<?xml version="1.0" encoding="UTF-8" standalone="no"?>
<!DOCTYPE svg PUBLIC "-//W3C//DTD SVG 1.1//EN" "http://www.w3.org/Graphics/SVG/1.1/DTD/svg11.dtd">
<svg width="100%" height="100%" viewBox="0 0 780 521" version="1.1" xmlns="http://www.w3.org/2000/svg" xmlns:xlink="http://www.w3.org/1999/xlink" xml:space="preserve" xmlns:serif="http://www.serif.com/" style="fill-rule:evenodd;clip-rule:evenodd;stroke-linejoin:round;stroke-miterlimit:2;">
    <g transform="matrix(1,0,0,1,-250.383,-1039)">
        <g transform="matrix(1,0,0,1,0,912)">
            <g transform="matrix(1,0,0,1,50.3832,26.0404)">
                <g transform="matrix(1,0,0,1,-43.2707,-951)">
                    <path d="M580.243,1413.2C584.725,1410.29 588.431,1405.66 592.138,1401.19C600.719,1390.85 608.042,1379.28 616.137,1369.05C622.741,1360.6 627.638,1351.03 633.579,1342.07C649.384,1318.24 669.447,1294.82 697.38,1292.69C699.48,1292.53 701.585,1292.47 703.693,1292.47C726.595,1292.66 749.158,1299.42 770.413,1308.87C771.242,1308.54 772.084,1308.18 772.872,1307.8C777.336,1305.67 781.511,1302.88 785.229,1299.62C785.229,1299.62 787.09,1299.18 787.09,1299.18C787.631,1299.51 788.172,1299.84 788.713,1300.17C788.713,1300.17 789.156,1302.05 789.156,1302.05L788.162,1303.67C783.862,1306.77 778.653,1309.04 773.37,1310.21C777.684,1312.19 781.942,1314.27 786.135,1316.43C786.135,1316.43 787.119,1317.6 787.119,1317.6C787.119,1317.6 786.986,1319.13 786.986,1319.13L785.819,1320.11L784.304,1319.98C778.23,1316.84 771.996,1313.85 765.649,1311.11C765.609,1311.11 765.568,1311.11 765.528,1311.11L765.382,1311C746.665,1302.95 726.966,1297.12 707.483,1296.04C699.892,1295.62 692.175,1296.08 684.963,1298.44C669.681,1303.43 657.632,1315.25 647.313,1328.1C638.448,1339.14 631.083,1351.26 623.413,1363.2C617.701,1372.05 610.932,1380.35 604.626,1388.97C598.59,1397.18 592.736,1405.94 585.041,1412.27C587.174,1411.94 589.312,1411.74 591.426,1411.64C591.426,1411.64 592.286,1411.95 592.862,1412.16C592.862,1412.16 593.51,1413.56 593.51,1413.56L592.983,1414.99L591.606,1415.63C591.391,1415.64 591.176,1415.65 590.961,1415.66C579.622,1416.41 567.975,1420.2 560.434,1427.95C550.659,1438 542.359,1449.98 530.607,1457.4C521.305,1463.27 508.447,1460.62 499.535,1467.34C497.971,1468.52 495.962,1470.49 495.962,1470.49C495.17,1470.98 494.061,1470.47 493.123,1470.18C486.155,1468.07 478.85,1466.96 471.56,1468.52C455.546,1471.94 443.329,1484.35 432.359,1494.78C424.471,1502.26 416.305,1509.74 406.193,1513.91C395.076,1518.49 383.047,1520.48 371.123,1522.75C365.741,1523.77 360.351,1524.76 354.962,1525.75C354.962,1525.75 349.385,1526.76 349.385,1526.76C349.056,1527.1 348.725,1527.44 348.393,1527.78C340.819,1535.45 331.891,1542.23 328.194,1551.87C325.664,1558.46 324.922,1565.65 324.447,1572.75L324.167,1572.73C324.739,1562.44 326.07,1551.78 332.054,1543.58C336.732,1537.17 343.035,1532.14 348.48,1526.42C348.735,1526.15 348.833,1525.98 349.081,1525.91C364.585,1522.91 380.299,1520.31 395.362,1516.02C401.69,1514.21 407.929,1511.89 413.476,1508.36C428.313,1498.93 438.61,1483.7 453.855,1473.78C463.669,1467.4 475.713,1463.78 487.278,1465.96C489.742,1466.43 492.163,1467.08 494.564,1467.8C494.564,1467.8 498.835,1463.8 503.573,1461.75C509.444,1459.22 516.029,1458.85 522.448,1457.63C530.632,1455.99 536.788,1448.67 542.623,1442.38C549.288,1435.2 554.864,1426.83 562.744,1421.03C567.9,1417.24 573.966,1414.69 580.243,1413.2ZM802.996,1185.96C808.832,1182.12 814.264,1177.79 819.073,1172.86C825.973,1165.78 828.523,1154.9 834.296,1146.79C840.65,1137.85 851.244,1132.08 862.246,1131.62C865.421,1131.49 868.431,1131.83 871.48,1133.96C875.76,1136.94 879.569,1141.36 884.278,1142.39C885.603,1142.68 886.978,1141.94 888.204,1141.97C890.814,1142.1 892.084,1145.36 892.535,1147.36C892.634,1147.8 892.718,1148.25 892.79,1148.69C893.373,1152.27 892.998,1155.97 893.143,1159.57C893.167,1159.86 893.513,1160.12 893.819,1159.51C896.305,1154.34 892.323,1146.85 896.863,1143.32C900.505,1140.48 906.201,1143.45 910.626,1145.95C915.046,1148.34 920.828,1144.45 923.543,1139.88C926.182,1135.59 934.49,1139.75 938.926,1144.5C948.189,1154.42 951.247,1169.96 962.845,1180.04C963.849,1180.92 964.918,1181.72 966.057,1182.41C970.305,1184.98 975.205,1186.4 979.116,1190.07C983.502,1194.25 987.883,1198.41 992.233,1202.62C993.154,1203.53 992.165,1202.41 994.488,1205.11C1005.44,1217.85 1016.75,1230.98 1021.81,1246.81L1022.12,1247.42L1022.06,1247.61L1022.08,1247.69C1022.37,1248.65 1022.35,1248.88 1022.38,1249.43C1022.97,1258.79 1021.28,1268.27 1020.09,1278.02C1017.25,1301.41 1005.42,1324.01 988.622,1339.8C986.149,1342.08 983.761,1344.99 981.183,1347.53C963.052,1365.39 940.473,1378.64 915.435,1383.88C913.527,1384.28 911.612,1384.65 909.697,1385.01C908.602,1385.21 908.503,1385.21 907.97,1385.27C907.229,1385.36 906.484,1385.41 905.739,1385.44C893.908,1385.79 883.338,1379.02 874.44,1372.46C867.183,1367.12 860.741,1360.58 853.314,1355.67C842.839,1348.74 827.77,1349.28 815.166,1351.04C818.456,1359.6 821.403,1368.28 823.813,1377.13C829.273,1397.18 827.348,1419.13 819.156,1438.07C812.348,1453.81 805.387,1469.52 796.622,1484.05C795.946,1485.17 794.918,1486.71 794.918,1486.71L794.127,1486.87C794.127,1486.87 793.879,1486.22 794.079,1485.92C800.363,1476.35 804.838,1465.6 809.593,1455.04C814.726,1443.63 820.078,1432.43 822.562,1420.2C825.891,1403.81 823.973,1386.53 818.513,1370.92C813.515,1356.64 807.819,1342.6 801.516,1328.84C801.516,1328.84 801.475,1327.31 801.475,1327.31C801.475,1327.31 802.533,1326.19 802.533,1326.19L804.053,1326.16L805.162,1327.2C807.286,1331.94 809.36,1336.7 811.347,1341.5C811.504,1336.8 813.218,1332 814.763,1327.21C817.131,1319.89 820.112,1312.78 823.424,1305.81L823.487,1305.68C807.254,1281.71 787.119,1259.3 761.631,1245.86C755.325,1242.53 748.558,1239.77 741.649,1239.82C721.795,1239.86 702.896,1231.26 683.093,1226.07L682.328,1226.47C632.039,1230.83 581.269,1235.5 532.564,1248.17C513.722,1253.08 494.98,1259.36 479.22,1270.73C463.366,1282.12 446.063,1291.82 428.736,1301.36C406.304,1313.72 383.531,1325.43 360.538,1336.68C343.199,1345.11 324.554,1350.84 305.747,1355.92C291.403,1359.81 278.636,1368.03 265.477,1375.43C260.064,1378.48 254.664,1381.55 249.275,1384.63L248.833,1384.88L248.205,1384.72L248.373,1384.09C263.231,1375.45 277.981,1366.55 293.408,1358.87C304.465,1353.37 317.063,1351.71 329.428,1347.61C354.892,1339.16 378.544,1325.99 402.333,1313.34C428.165,1299.61 454.269,1285.89 477.784,1268.75C498.902,1253.36 524.997,1246.51 551,1240.87C591.101,1232.18 631.883,1227.54 672.786,1223.65C635.532,1215.52 597.168,1211.29 559.877,1206.14C544.616,1204.12 528.755,1208.37 513.066,1212.58C487.49,1219.43 462.07,1228.09 438.939,1240.46C428.723,1245.93 419.257,1252.83 409.14,1258.69C393.922,1267.51 378.4,1276.14 361.845,1281.91C354.968,1284.3 347.689,1285.29 341.109,1288.33C339.574,1289.03 338.059,1289.79 336.563,1290.58L336.56,1290.61L335.655,1291.32C335.357,1291.4 335.059,1291.48 334.762,1291.56C326.08,1296.42 318.101,1302.63 310.956,1309.35C310.956,1309.35 309.675,1309.38 309.675,1309.38L309.705,1308.16C315.16,1302.95 321.015,1297.93 327.281,1293.68C302.498,1301.02 278.569,1311.39 260.679,1328.84C253.051,1336.28 246.231,1345.2 243.883,1355.39C243.221,1358.26 243.272,1356.95 243.272,1356.95C244.206,1346.48 251.771,1336.29 260.216,1327.75C280.039,1307.7 307.601,1296.38 334.815,1288.38C334.815,1288.38 335.469,1288.45 335.932,1288.51C340.666,1286.06 345.612,1284.13 350.771,1282.95C370.51,1278.41 388.378,1268.28 406.058,1258.06C414.906,1252.95 423.489,1247.6 432.125,1241.9C444.101,1234.11 457.605,1228.99 471.036,1223.84C493.262,1215.3 516.128,1207.76 539.285,1204.36C544.216,1203.63 549.181,1203.13 554.191,1203.15C560.084,1203.21 565.886,1204.33 571.73,1205.12C610.302,1210.34 648.958,1214.21 686.565,1223.83C687.483,1223.42 688.401,1223.02 689.318,1222.62C719.652,1209.2 749.746,1195.9 777.845,1178.76C783.261,1175.45 788.993,1172.18 792.946,1167.55C794.208,1166.07 794.248,1165.13 795.577,1165.17C796.558,1165.37 796.036,1164.72 797.182,1166.62C800.668,1172.41 802.471,1179.18 802.996,1185.96ZM1019.36,1249.16L1018.98,1249.04C1012.7,1243.63 999.984,1246.09 989.555,1249.28C971.531,1254.74 953.154,1258.95 935.706,1265.96C933.044,1267.03 930.06,1267.85 928.166,1269.88C925.691,1272.53 926.656,1279.96 924.921,1287.25C922.175,1298.79 914.466,1309.05 900.598,1311.3C890.684,1312.91 879.328,1310.88 872.709,1302.09C866.049,1293.25 865.102,1281.53 865.411,1271.12C855.283,1266.42 842.434,1269.96 833.144,1277.74C826.849,1283.15 825.446,1293.72 826.499,1303.68C827.317,1304.84 827.664,1305.14 827.192,1306.33C822.159,1316.64 817.483,1327.49 815.715,1338.55C815.275,1341.3 814.925,1344.21 815.863,1346.71L815.837,1347.43C830.384,1345.58 846.466,1346.07 856.854,1354.01C857.287,1354.34 857.716,1354.68 858.144,1355.02C870.423,1364.7 881.469,1376.67 897.478,1381.06C906.111,1383.42 915.61,1380.82 924.931,1378.19C948.81,1371.46 969.447,1356.01 986.369,1337.59C1002.56,1322.68 1013.86,1302.06 1016.73,1280.54C1018.01,1270.57 1019.63,1260.51 1019.44,1250.47C1019.43,1249.94 1019.4,1249.51 1019.36,1249.16ZM1017.54,1243.81C1011.99,1230.07 1001.87,1218.12 992.027,1206.67C984.871,1198.35 976.506,1189.7 967.971,1186.49C966.669,1185.98 966.295,1185.78 965.501,1185.35C949.874,1176.82 946.415,1153.82 934.692,1144.35C932.396,1142.49 929.87,1140.41 927.066,1140.44C926.84,1140.44 926.287,1140.89 925.02,1142.78C921.518,1148.02 914.515,1151.3 909.174,1148.21C904.852,1145.7 898.809,1142.64 897.317,1147.07C896.063,1150.79 898.587,1156.1 896.061,1160.89C895.896,1161.21 894.736,1162.55 893.323,1162.48C889.916,1162.33 890.887,1156.15 890.496,1151.42C890.293,1148.97 890.414,1145.68 888.411,1144.64C887.777,1144.31 887.005,1144.94 886.056,1145.05C881.833,1145.54 878.3,1142.42 875.311,1140.12C871.765,1137.36 868.647,1133.96 863.364,1134.12C850.911,1134.62 839.543,1141.57 833.505,1152.91C831.224,1157.22 829.036,1161.59 826.942,1165.99C826.295,1167.32 826.16,1167.53 825.747,1168.23C821.13,1176.07 813.239,1181.6 805.373,1186.72C804.58,1187.23 803.784,1187.74 802.984,1188.25L802.665,1189.11C802.665,1189.11 801.483,1189.64 801.483,1189.64L801.024,1189.47C789.502,1196.57 777.238,1202.56 764.446,1206.78C762.29,1207.49 760.097,1208.07 757.867,1208.53C757.536,1208.6 757.537,1208.6 757.206,1208.67C742.876,1211.93 729.063,1217.37 715.12,1222.35C710.219,1224.1 705.325,1225.88 700.441,1227.67C714.618,1231.91 728.797,1236.79 742.862,1236.55C743.848,1236.55 743.983,1236.57 744.5,1236.61C756.197,1237.45 766.967,1244.33 777.09,1251.57C795.377,1264.64 810.849,1281.5 823.892,1299.93C823.493,1291.22 825.125,1282.4 830.984,1276.4C839.878,1267.3 855.726,1262.83 867.366,1269.12L867.593,1269.27C867.593,1269.27 868.098,1270.3 868.07,1271.45C867.787,1285.32 869.624,1301.3 883.617,1307.1C895.255,1311.91 909.685,1308.12 916.214,1299.49C921.759,1292.16 922.598,1282.5 923.836,1273.74C924.213,1271.14 924.676,1268.32 926.724,1266.77C933.677,1261.53 943.014,1259.55 952.34,1256.59C965.183,1252.5 978.14,1249.12 991.025,1244.97C996.37,1243.27 1001.89,1242.14 1007.46,1242.17C1010.84,1242.22 1014.43,1242.58 1017.54,1243.81ZM889.833,1276C898.061,1276.07 907.474,1277.33 911.046,1284.13C912.207,1286.34 912.39,1288.93 912.184,1291.44C911.816,1295.94 909.75,1300.7 905.327,1302.71C899.957,1305.16 893.551,1303.94 887.432,1302.23C887.432,1302.23 886.635,1301.61 886.635,1301.61C886.635,1301.61 886.496,1300.66 886.519,1300.58L887.148,1299.79L888.147,1299.67C894.969,1301.63 903.211,1303.73 907.611,1297.78C911.728,1292.21 910.352,1284.03 904.344,1280.97C898.077,1277.79 890.417,1277.75 883.551,1278.42C883.551,1278.42 882.304,1277.48 882.304,1277.48L883.245,1276.31C885.426,1276.07 887.626,1276 889.833,1276ZM888.949,1286.14C893.163,1286.26 896.107,1290.89 899.097,1293.52C899.412,1293.8 900.036,1293.91 900.036,1293.91L901.172,1294.65C901.172,1294.65 901.423,1295.98 901.401,1296.08L900.6,1297.24L899.253,1297.45C895.283,1296.38 894.546,1290.58 890.04,1288.55C888.102,1287.67 885.661,1288.54 884.173,1289.95C883.927,1290.18 883.153,1290.05 883.153,1290.05C883.153,1290.05 883.198,1288.78 884.265,1287.91C885.577,1286.83 887.223,1286.13 888.949,1286.14ZM846.984,1230.31C847.042,1230.65 847.104,1230.99 847.167,1231.32C847.242,1231.71 847.32,1232.11 847.399,1232.5C849.086,1240.66 851.235,1249.41 855.89,1255.19C856.725,1256.23 857.712,1257.17 858.896,1257.8L859.319,1259.07C859.319,1259.07 858.789,1260.09 856.897,1258.84C848.743,1253.46 847.025,1241.36 845.814,1234.88C845.479,1233.1 845.115,1230.59 845.115,1230.59L845.911,1229.52C846.269,1229.78 846.627,1230.05 846.984,1230.31ZM799.752,1188.02C799.556,1181.65 798.141,1175.35 795.317,1169.71C795.317,1169.71 793.165,1171.74 791.375,1173.17C781.088,1181.35 768.957,1187.25 757.007,1193.3C734.79,1204.56 712.1,1214.8 689.258,1224.53C691.14,1225.02 693.02,1225.53 694.897,1226.06C695.569,1226.25 696.241,1226.44 696.914,1226.63C714.826,1219.95 732.777,1213.2 751.109,1207.9C756.572,1206.32 762.147,1205.25 767.619,1203.19C778.666,1199.04 789.722,1194.18 799.752,1188.02ZM971.861,1190.02L972.434,1191C974.017,1203.09 967.775,1217.01 956.737,1223.2L956.255,1223.09C956.255,1223.09 963.107,1217.69 966.024,1212.19C969.379,1205.87 970.611,1198.3 969.461,1191.4C969.461,1191.4 969.76,1190.29 969.76,1190.29C969.76,1190.29 970.764,1189.71 970.764,1189.71C971.129,1189.81 971.495,1189.91 971.861,1190.02ZM963.207,1189.03C963.207,1189.03 963.895,1189.81 963.895,1189.81C963.895,1189.81 963.826,1190.8 963.179,1192.01C959.174,1199.38 955.677,1207.51 949.061,1212.6C947.295,1213.96 945.161,1215.37 945.339,1218.45C945.371,1219.12 945.263,1220.08 945.263,1220.08L944.766,1220.47C944.766,1220.47 943.392,1216.59 945.349,1214.2C947.181,1211.97 949.414,1210.54 951.105,1208.2C955.256,1202.47 958.432,1196.08 961.433,1189.63C961.433,1189.63 962.189,1188.96 962.189,1188.96C962.528,1188.98 962.867,1189.01 963.207,1189.03ZM959.227,1187.25L959.463,1188.28C959.463,1188.28 951.517,1194.8 947.792,1201.42L947.193,1201.63C947.193,1201.63 946.979,1201.06 947.283,1200.38C949.639,1195.21 952.954,1190.3 957.383,1186.92C957.383,1186.92 958.363,1186.69 958.363,1186.69C958.651,1186.88 958.939,1187.06 959.227,1187.25ZM917.028,1155.34C918.869,1156.19 920.607,1157.31 921.8,1158.99C922.46,1159.91 922.926,1161.2 922.698,1162.41L921.645,1163.24L920.822,1162.18C920.846,1161.27 921.425,1161.84 919.6,1159.93C918.801,1159.1 917.52,1157.91 916.116,1157C916.116,1157 915.706,1155.7 915.706,1155.7C915.706,1155.7 916.841,1155.26 917.028,1155.34Z"/>
                </g>
                <g transform="matrix(1.15068,-0.317652,0.317652,1.15068,-492.307,-854.099)">
                    <path d="M734.909,1058.42C715.796,1051.87 699.745,1037.09 682.184,1027.58C671.462,1021.77 660.211,1017.01 648.95,1012.33C648.27,1011.98 647.267,1011.47 647.267,1011.47L646.148,1010.89C643.587,1009.83 640.372,1008.5 640.372,1008.5L638.429,1007.65L638.027,1006.74C638.027,1006.74 638.644,1006.5 638.953,1006.38C639.448,1006.58 639.942,1006.77 640.437,1006.96C640.437,1006.96 643.008,1008 644.889,1008.77C646.384,1009.38 646.374,1009.41 647.917,1009.89C648.701,1010.13 649.721,1010.47 649.721,1010.47C662.211,1015.61 674.638,1020.88 686.311,1027.55C704.568,1037.97 720.059,1052.94 740.942,1058.24C740.942,1058.24 741.036,1058.29 741.2,1058.35C743.688,1058.63 746.182,1059.05 748.516,1058.91C748.516,1058.91 750.487,1057.71 752.637,1057.72C757.524,1057.81 762.017,1061.1 766.374,1063.76C769.533,1065.67 772.84,1067.21 776.618,1067.91C783.641,1069.24 790.671,1071.36 796.257,1075.8C799.23,1078.16 800.591,1081.99 799.234,1086.05C797.725,1090.56 794.636,1094.36 791.884,1098.27L791.752,1098.46C796.584,1105.97 799.708,1114.99 798.359,1124.12C797.945,1126.92 796.433,1130.18 792.977,1130.32C792.977,1130.32 792.6,1131.78 792.213,1132.84C792.015,1133.38 791.786,1133.91 791.527,1134.43C791.334,1134.81 791.124,1135.19 790.897,1135.55C790.723,1135.83 790.538,1136.11 790.343,1136.37C788.566,1138.81 785.557,1140.73 782.417,1140C778.677,1139.13 776.203,1135.1 774.616,1131.66C773.121,1128.38 771.754,1125.05 769.293,1122.34C767.467,1120.34 765.53,1118.46 763.53,1116.64C763.53,1116.64 763.603,1116.01 763.226,1117.15C761.834,1121.15 758.033,1124.06 754.087,1125.52C754.087,1125.52 753.361,1125.73 752.845,1125.74C752.065,1125.72 751.933,1125.68 751.503,1125.63C747.256,1125.13 743.39,1122.79 739.952,1120.23C739.784,1120.11 739.784,1120.11 739.614,1119.99C733.543,1115.77 725.366,1115.09 719.893,1109.82C718.411,1108.39 717.18,1106.65 716.696,1104.66C716.696,1104.66 715.804,1104.07 714.871,1103.08C714.833,1103.07 714.795,1103.06 714.757,1103.06C713.467,1102.93 712.181,1102.78 710.898,1102.61C685.885,1099.34 662.76,1087.44 642.433,1073.14C632.352,1066.05 622.332,1058.85 611.799,1052.48L611.489,1051.28L612.693,1050.97C612.838,1051.06 612.984,1051.14 613.129,1051.23C641.513,1067.85 665.991,1090.82 700.057,1098.29C704.38,1099.23 708.75,1099.94 713.152,1100.49C713.055,1100.25 712.974,1099.99 712.913,1099.74C711.769,1094.92 713.273,1089.82 713.657,1085.03C713.68,1084.77 713.68,1084.77 713.707,1084.5C714.931,1073.51 723.067,1064.03 732.438,1059.28C733.238,1058.88 734.064,1058.6 734.909,1058.42ZM753.094,1059.9C748.743,1060.02 746.423,1065.47 741.953,1068.35C737.345,1071.33 730.765,1071.12 727.566,1076.28C725.144,1080.2 725.509,1085.11 723.843,1089.45C721.746,1094.92 715.772,1099.7 719.414,1105.94C721.799,1110.03 726.85,1111.44 730.856,1113.09C735.56,1115.05 739.891,1117.84 744.036,1120.66C746.82,1122.52 750.111,1123.55 753.432,1123.64C753.432,1123.64 753.666,1123.71 753.807,1123.86C754.162,1123.64 754.61,1123.36 754.61,1123.36C754.244,1123.14 753.878,1122.92 753.513,1122.7C745.13,1117.61 737.211,1111.75 730.246,1104.8L729.857,1104.31C729.825,1104.22 729.825,1104.22 729.814,1104.13L729.812,1103.3C729.878,1102.74 730.117,1102.87 730.381,1102.86C731.821,1102.78 733.245,1104.76 734.807,1106.16C741.201,1111.91 748.2,1116.96 755.588,1121.43L756.523,1122.03C756.702,1121.9 756.878,1121.76 757.053,1121.63C757.436,1121.32 757.812,1121.01 758.176,1120.68C758.46,1120.42 758.738,1120.16 759.005,1119.88C759.231,1119.65 759.45,1119.41 759.66,1119.16C759.796,1119 759.929,1118.84 760.056,1118.67C760.889,1117.58 761.576,1116.25 761.461,1114.83L761.461,1114.81C757.3,1111.21 752.96,1107.81 748.797,1104.2C748.797,1104.2 748.701,1104.15 748.652,1103.91L748.592,1103.03C748.635,1102.45 748.861,1102.58 749.191,1102.55C750.098,1102.46 750.846,1103.22 751.582,1103.84C758.624,1109.81 766.189,1115.14 772.079,1122.29C776.231,1127.33 776.157,1135.78 782.367,1137.78C782.589,1137.85 782.817,1137.9 783.048,1137.93C785.792,1138.28 787.957,1135.88 789.228,1133.9C790.023,1132.65 790.467,1131.21 790.735,1129.76C790.735,1129.76 789.487,1128.65 788.758,1127.58C785.974,1123.49 785.189,1118.24 782.331,1114.1C777.466,1107.05 769.019,1103.08 763.226,1096.82C761.687,1095.16 760.407,1093.27 758.964,1091.54L758.593,1091.09C758.559,1090.98 758.559,1090.98 758.552,1090.87L758.616,1089.96C758.731,1089.42 758.946,1089.56 759.208,1089.56C760.351,1089.52 761.109,1090.8 761.963,1091.87C762.135,1092.08 762.135,1092.08 762.309,1092.29C769.771,1101.16 782.085,1105.78 786.488,1117.39C787.87,1121.04 788.132,1125.37 791.12,1127.61L791.63,1126.95C792.001,1126.68 792.116,1126.85 792.271,1127.02C792.609,1127.38 792.868,1128.09 792.868,1128.09C794.919,1127.58 795.661,1125.19 796.048,1123.41C796.27,1122.39 796.34,1121.35 796.321,1120.3C796.189,1113.24 794.158,1106.23 790.433,1100.2L790.349,1100.06L789.627,1100.19C788.661,1100.02 789.185,1099.5 789.421,1098.73L789.441,1098.67C783.824,1090.35 776.156,1083.65 770.886,1074.86C770.886,1074.86 770.81,1074.78 770.839,1074.54L771.069,1073.62C771.16,1073.39 771.326,1073.29 771.581,1073.32L772.495,1073.55C772.686,1073.62 772.987,1074.13 773.234,1074.52C775.368,1077.92 777.877,1081.08 780.457,1084.16L780.573,1084.3C780.176,1082.49 779.561,1080.71 778.21,1079.28C777.832,1078.87 777.361,1078.26 777.774,1077.72C778.069,1077.33 778.854,1077.33 778.854,1077.33C779.644,1077.46 780.198,1078.23 780.71,1078.91C782.658,1081.53 782.477,1085.13 783.829,1088.13C783.829,1088.13 786.427,1091.16 788.575,1093.97C789.486,1095.16 790.551,1096.67 790.551,1096.67C793.788,1092.12 797.989,1087.6 797.964,1082.23C797.95,1079.43 795.195,1077.48 793.129,1076.09C787.522,1072.33 780.659,1070.88 774.012,1069.55C773.837,1069.51 773.838,1069.51 773.663,1069.47C766.813,1067.82 761.633,1061.88 754.643,1060.13C754.135,1060 753.859,1059.9 753.094,1059.9ZM781.221,1118.74C781.407,1118.79 781.533,1118.9 781.584,1119.1L781.68,1119.93C781.676,1120.31 781.541,1120.31 781.409,1120.48C780.468,1121.68 779.292,1122.66 778.037,1123.52C778.037,1123.52 777.914,1123.66 777.646,1123.67L776.706,1123.61C775.614,1123.38 776.922,1122.38 777.752,1121.49C778.474,1120.71 779.192,1119.93 779.89,1119.13C779.89,1119.13 779.96,1118.92 780.275,1118.84L781.109,1118.73C781.146,1118.74 781.184,1118.74 781.221,1118.74ZM770.308,1107.79C770.492,1107.84 770.613,1107.97 770.655,1108.17L770.716,1109C770.692,1109.41 770.615,1109.31 770.344,1109.62C769.738,1110.28 769.079,1110.89 768.345,1111.41C768.345,1111.41 768.151,1111.61 767.862,1111.6L767.044,1111.45C766.181,1111.17 766.994,1110.51 767.489,1109.89C768.154,1109.07 769.152,1107.92 769.152,1107.92C769.249,1107.88 769.249,1107.88 769.355,1107.85L770.197,1107.78C770.234,1107.78 770.271,1107.78 770.308,1107.79ZM791.068,1106.49C791.25,1106.56 791.365,1106.69 791.397,1106.89L791.415,1107.72C791.394,1107.91 791.341,1107.96 791.299,1108.02C790.42,1108.94 789.555,1109.88 788.553,1110.66C788.44,1110.75 788.325,1110.84 788.209,1110.92C788.04,1111.05 787.999,1111.17 787.663,1111.16L786.855,1111.02C786.012,1110.76 786.761,1110.13 787.221,1109.59C788.021,1108.63 788.835,1107.7 789.689,1106.8C789.689,1106.8 789.747,1106.58 790.12,1106.52L790.957,1106.48C790.994,1106.49 791.031,1106.49 791.068,1106.49ZM716.063,1101.38C716.189,1101.59 716.325,1101.8 716.472,1101.99C716.472,1101.99 716.524,1101.64 716.573,1101.26C717.051,1097.81 718.857,1094.67 720.551,1091.56C720.631,1091.41 720.631,1091.41 720.709,1091.26C723.919,1084.84 722.643,1076.16 729.174,1071.62C732.951,1068.99 738.151,1068.88 741.735,1065.91C743.467,1064.48 744.724,1062.53 746.245,1060.9C743.625,1060.71 741.057,1060.07 738.446,1060.05C738.335,1060.05 738.336,1060.05 738.225,1060.05C732.767,1060.12 727.878,1064.09 724.157,1067.86C720.489,1071.57 717.604,1076.13 716.305,1081.24C715.058,1086.14 714.964,1091.37 714.802,1096.26C714.768,1097.82 715.055,1099.4 715.74,1100.79L716.06,1100.83L716.066,1101.35L716.063,1101.38ZM779.2,1092.74C779.333,1092.81 779.427,1092.92 779.472,1093.07L779.603,1093.9C779.618,1094.48 777.439,1096.96 775.689,1098.23C775.599,1098.3 775.52,1098.42 775.231,1098.41L774.4,1098.28C773.85,1098.12 774.025,1097.89 774.063,1097.62C774.219,1096.52 775.494,1095.81 776.4,1094.83C777.056,1094.13 777.874,1093.04 777.874,1093.04C777.921,1092.99 777.953,1092.94 778.138,1092.88L779.091,1092.72C779.128,1092.73 779.164,1092.74 779.2,1092.74ZM731.373,1080.55C731.739,1080.71 732.012,1081.48 732.012,1081.48C732.212,1082 731.035,1084.58 732.533,1085.85C732.533,1085.85 732.623,1085.9 732.679,1086.13L732.774,1086.94C732.757,1087.62 732.408,1087.46 731.964,1087.37C731.139,1087.22 730.419,1086.66 730.042,1085.88C729.338,1084.43 729.686,1082.73 730.114,1081.25C730.114,1081.25 730.08,1081.15 730.327,1080.97L731.051,1080.58C731.17,1080.54 731.098,1080.5 731.373,1080.55ZM744.602,1068.73L745.503,1068.98C745.982,1069.35 745.279,1068.88 746.56,1070.46C746.85,1070.82 747.271,1071.3 747.271,1071.3C747.309,1071.4 747.309,1071.4 747.32,1071.51L747.291,1072.33C747.251,1072.58 747.11,1072.71 746.855,1072.74L746.029,1072.71C745.557,1072.63 744.027,1070.59 743.878,1070.05C743.851,1069.96 743.864,1069.93 743.876,1069.83L744.086,1069.03C744.169,1068.83 744.298,1068.69 744.602,1068.73Z"/>
                </g>
            </g>
        </g>
    </g>
</svg>
