<?xml version="1.0" encoding="UTF-8" standalone="no"?>
<!DOCTYPE svg PUBLIC "-//W3C//DTD SVG 1.1//EN" "http://www.w3.org/Graphics/SVG/1.1/DTD/svg11.dtd">
<svg width="100%" height="100%" viewBox="0 0 375 629" version="1.1" xmlns="http://www.w3.org/2000/svg" xmlns:xlink="http://www.w3.org/1999/xlink" xml:space="preserve" xmlns:serif="http://www.serif.com/" style="fill-rule:evenodd;clip-rule:evenodd;stroke-linejoin:round;stroke-miterlimit:2;">
    <g transform="matrix(1,0,0,1,-255.44,-1782.68)">
        <g transform="matrix(1,0,0,1,0,1737)">
            <g transform="matrix(1,0,0,1,0,-1737)">
                <path d="M337.209,1784.19C340.488,1783.17 343.902,1782.67 347.358,1782.68C357.725,1782.75 367.49,1787 377.29,1790.77C379.624,1791.19 381.885,1791.89 383.999,1793.03C384.262,1793.17 384.521,1793.32 384.776,1793.47C385.012,1793.55 385.248,1793.63 385.484,1793.7L385.648,1794.03C390.756,1797.43 394.366,1802.85 398.418,1806.74C403.122,1811.23 408.008,1815.76 411.119,1822.44C412.876,1826.22 413.043,1831.36 409.309,1834.38C410.339,1837.68 409.975,1841.09 406.392,1842.99L405.429,1842.67C404.554,1849.71 403.775,1856.78 405.546,1863.57C407.06,1869.37 409.432,1875.08 409.055,1881.14C408.657,1887.55 405.801,1893.35 406.198,1900.16C406.62,1907.4 408.119,1915.23 402.605,1920.72C399.24,1924.07 394.798,1925.68 390.098,1926.52C389.92,1927.99 389.727,1929.47 389.541,1930.94C389.53,1931.03 389.52,1931.11 389.509,1931.2L389.89,1930.97C390.085,1931.02 390.28,1931.07 390.475,1931.12C391.229,1931.31 391.979,1931.51 392.73,1931.71C393.419,1931.89 394.116,1932.06 394.82,1932.18C395.158,1932.07 395.584,1932 396.12,1932C396.765,1932.01 397.374,1932.11 397.947,1932.3C398.106,1932.13 398.611,1931.66 399.12,1931.72C415.42,1933.65 432.647,1932.92 447.087,1940.75C451.585,1943.19 455.322,1946.9 458.067,1951.27C462.71,1958.65 464.846,1967.3 468.848,1974.89L468.415,1976.27L467.04,1975.84C461.925,1965.95 459.615,1954.11 452.007,1946.53C445.074,1939.63 434.43,1937.43 424.134,1935.93C416.124,1934.75 408.05,1934.31 399.98,1933.38C402.927,1935.65 404.509,1940.27 404.757,1943.88C406.006,1962.06 391.216,1981.13 372.449,1979.39C360.316,1978.26 350.206,1970.25 341.182,1962.81C333.93,1956.84 327.029,1950.31 318.988,1945.67L318.986,1945.66C317.658,1945.68 317.151,1945.74 316.186,1945.87C307.865,1947.04 301.513,1954.02 294.319,1957.91C283.035,1964.01 270.53,1968.47 263.122,1979.68C253.261,1994.6 257.27,2015.44 263.807,2031.78C269.67,2046.43 277.986,2060.19 283.422,2074.8C288.949,2089.66 293.522,2106.63 311.388,2111.39C308.87,2097.42 311.591,2082.47 319.99,2071.52C323.989,2066.31 329.854,2062.27 336.339,2062.32C337.162,2062.34 337.981,2062.42 338.79,2062.58L339.066,2062.99C339.554,2058.65 339.166,2054.2 337.835,2049.98C333.541,2036.36 321.886,2026.7 315.211,2015.21L314.993,2014.83L315.279,2013.78C315.631,2013.87 315.983,2013.97 316.334,2014.06C316.477,2014.31 316.622,2014.56 316.768,2014.8C319.256,2018.95 322.263,2022.82 325.305,2026.64C323.063,2016.74 323.284,2006.24 316.991,1998.08C316.694,1997.69 316.387,1997.32 316.074,1996.95L316.163,1995.86C316.527,1995.89 316.89,1995.92 317.253,1995.95C319.719,1998.82 321.68,2002.13 322.961,2005.69C325.476,2012.69 325.621,2020.24 327.596,2027.46L326.901,2028.64C335.138,2038.98 343.017,2049.3 340.931,2064.44L340.805,2064.55C344.32,2067.9 346.887,2072.21 349.224,2076.62C353.652,2064.97 358.819,2053.66 366.092,2043.27C372.021,2034.8 378.362,2026.72 384.664,2018.38C390.719,2010.4 397.234,2001.89 407.128,1998.93C414.696,1996.67 422.156,1992.74 429.303,1991.06C435.007,1989.72 441.037,1990 446.553,1988.02C455.957,1984.64 463.444,1976.25 473.931,1975.93C474.136,1975.92 474.34,1975.92 474.545,1975.92C476.329,1975.94 478.103,1976.21 479.818,1976.71L480.503,1977.72L479.542,1978.24C470.969,1975.71 461.9,1981.51 455.104,1985.54C452.059,1987.34 448.909,1989.03 445.501,1990.03C439.695,1991.73 433.501,1991.38 427.729,1993.15C421.103,1995.18 415.118,1998.43 408.181,2000.32C396.229,2003.66 387.771,2017.09 379.822,2027.68C370.591,2039.92 361.215,2052.28 355.098,2066.51C353.365,2070.55 351.857,2074.68 350.363,2078.81C350.53,2079.13 350.697,2079.46 350.864,2079.78L350.395,2081.14L349.614,2080.88C348.347,2084.37 347.063,2087.85 345.634,2091.24C342.577,2098.49 338.968,2105.55 336.207,2112.87C335.078,2115.9 334.304,2119.3 335.509,2122.27C337.917,2128.21 346.182,2130.28 351.677,2133.11C364.046,2139.52 376.31,2146.85 390.888,2146.9C391.358,2146.9 391.828,2146.89 392.297,2146.87C395.622,2146.7 399.085,2145.8 401.464,2143.24C404.394,2140.09 405.191,2135.62 406.834,2131.61C409.197,2125.85 412.596,2120.5 414.351,2114.53C415.924,2109.19 416.42,2103.6 417.465,2098.14L418.716,2097.06C418.716,2097.06 419.252,2097.86 419.521,2098.26C418.688,2102.49 418.184,2106.8 417.298,2111.01C420.196,2108.43 422.714,2105.46 425.3,2102.57L425.925,2101.88L427.016,2101.81C427.038,2102.18 427.061,2102.54 427.083,2102.9C423.899,2106.58 420.915,2110.46 417.291,2113.67L416.671,2113.68C416.377,2114.81 416.044,2115.92 415.657,2117.02C414.318,2120.82 412.571,2124.41 410.85,2128.04C412.53,2128.61 412.855,2128.29 413.615,2128.16C415.441,2127.81 417.28,2127.63 419.164,2127.63C423.004,2127.64 426.839,2127.86 430.665,2128.18C442.917,2129.22 454.93,2133.1 466.431,2134.93C469.729,2132.26 475.637,2130.3 480.072,2129.48C489.066,2127.8 497.424,2124.16 504.704,2117.83L505.795,2117.91L505.72,2119C502.418,2121.89 498.821,2124.4 494.937,2126.4C499.69,2126.68 504.384,2128.96 508.996,2129.64C515.051,2130.53 521.68,2129.79 526.301,2126.02C530.163,2122.87 532.754,2118.42 535.663,2114.26C542.271,2104.9 549.796,2096.26 556.423,2086.87L557.5,2086.68C557.563,2087.04 557.625,2087.39 557.688,2087.75C553.846,2093.25 549.87,2098.67 545.862,2104.04C545.918,2104.03 545.977,2104.01 546.042,2103.99C551.831,2102.45 558.556,2104.52 562.937,2100.65C563.835,2099.86 564.224,2100.27 564.796,2100.28L564.773,2101.72C564.259,2102.2 564.22,2102.21 563.971,2102.41C563.608,2102.68 563.225,2102.94 562.826,2103.16C557.38,2106.26 550.589,2103.84 545.084,2105.94L544.601,2105.73C543.312,2107.45 542.021,2109.17 540.732,2110.89L540.795,2110.97C540.271,2114.22 541.123,2117.57 541.714,2120.72C542.431,2124.42 543.326,2128.34 546.269,2130.7C546.594,2130.96 546.929,2131.2 547.273,2131.41C547.347,2130.9 547.434,2130.38 547.535,2129.86L548.481,2129.05C548.684,2129.36 548.887,2129.66 549.09,2129.96C549.041,2130.21 548.994,2130.46 548.949,2130.71C548.861,2131.2 548.787,2131.7 548.726,2132.19C552.974,2134.09 558.177,2133.47 562.638,2132.9C564.055,2132.72 565.468,2132.51 566.877,2132.27C568.635,2131.98 570.389,2131.66 572.146,2131.35C572.468,2131.3 572.79,2131.24 573.113,2131.19C582.886,2129.61 593.522,2130.09 602.098,2125.27C602.1,2124.88 602.101,2124.5 602.102,2124.11L602.876,2123.34C603.133,2123.6 603.391,2123.86 603.648,2124.12C603.648,2124.18 603.648,2124.25 603.648,2124.32C604.158,2123.98 604.659,2123.62 605.152,2123.24C611.414,2118.38 611.14,2108.48 609.66,2101.16C607.31,2089.55 603.568,2078.23 602.428,2066.27C601.164,2053 600.679,2039.64 595.399,2027.27C593.573,2023 591.193,2018.75 587.543,2015.81C580.276,2026.66 571.481,2036.33 560.48,2044.08C560.124,2044.33 559.762,2044.57 559.394,2044.81C555.256,2047.45 549.552,2047.93 544.891,2044.82C540.752,2042.06 537.738,2038.1 533.788,2034.63C532.709,2033.68 531.629,2032.72 530.565,2031.74C524.141,2034.2 516.26,2029.67 510.506,2027.17C498.563,2021.92 488.843,2011.81 483.552,2000.33C480.66,1994.05 479.132,1987.07 480.189,1980.07L479.681,1979.92L480.071,1978.54C480.135,1978.5 480.198,1978.47 480.261,1978.43C487.887,1974.35 497.119,1972.62 501.583,1965.08C499.806,1964.47 498.135,1964.4 496.606,1965.66C496.606,1965.66 494.801,1965.77 495.406,1964.6L497.294,1961.59C498.352,1959.64 499.061,1957.5 499.084,1955.3C499.149,1949.24 495.023,1943.85 496.068,1937.16C496.978,1931.34 500.542,1926.23 505.16,1922.02C505.24,1921.67 505.291,1921.48 505.384,1921.12C508.712,1908.08 518.437,1897.58 527.188,1888.56C531.78,1883.82 537.536,1879.8 544.183,1879.69C544.314,1879.68 544.445,1879.68 544.576,1879.68C545.102,1879.69 545.628,1879.71 546.153,1879.75L546.533,1879.18C551.244,1878.21 555.908,1876.68 560.705,1876.61C560.841,1876.61 560.976,1876.61 561.112,1876.61C570.844,1876.71 578.562,1884.25 586.997,1889.62C587.066,1889.62 587.131,1889.62 587.185,1889.64C595.998,1893.02 606.722,1891.14 614.329,1898.79C618.916,1903.4 621.093,1909.79 623.988,1915.65C626.271,1918.5 627.911,1921.88 628.618,1925.69C629.444,1930.15 627.575,1934.8 627.998,1939.24C628.551,1945.06 632.519,1950.3 628.442,1956.87C624.334,1963.49 616.571,1967.17 612.618,1973.94L611.461,1974.24C611.221,1974.71 610.974,1975.17 610.72,1975.63C606.848,1982.61 601.141,1988.36 596.676,1994.88L597.173,1995.29C597.758,2001.82 592.608,2007.8 589.716,2012.45C589.283,2013.14 588.845,2013.83 588.401,2014.51C593.693,2018.7 596.673,2025.51 598.869,2031.76C603.841,2045.91 602.62,2061.66 605.489,2076.52C607.408,2086.46 610.998,2096.08 612.242,2106.03C613.209,2113.77 611.152,2121.95 603.809,2126.3C603.753,2126.33 603.697,2126.37 603.641,2126.4C603.573,2138.14 603.033,2149.87 602.945,2161.57C602.922,2168.82 606.203,2175.67 606.963,2182.92C609.595,2208.05 606.619,2232.82 605.139,2258.81C604.619,2267.93 603.799,2277.25 605.634,2286.06C608.533,2299.97 619.168,2311.71 617.622,2326.23C617.065,2331.46 614.992,2336.28 612.211,2340.89L612.424,2341.32C610.833,2346.17 609.893,2351.15 610.016,2356.37C610.042,2357.82 610.019,2359.3 609.617,2360.71C608.887,2363.26 607.07,2365.33 605.434,2367.36C601.998,2371.63 597.864,2375.91 592.749,2377.45C590.604,2378.09 588.179,2376.78 587.434,2374.69C584.368,2376.56 579.774,2376.98 579.32,2372.66C578.793,2367.66 583.181,2362.71 585.621,2358.17C590.283,2349.49 591.958,2339.51 591.422,2329.56C588.566,2331.74 585.554,2333.76 583.612,2336.79C581.668,2339.83 583.067,2344.39 580.334,2347.41C577.988,2350 573.423,2350.66 571.168,2347.67C568.928,2344.7 569.847,2340.54 569.167,2336.89C567.717,2328.88 568.877,2320.63 574.166,2313.3C577.522,2308.69 580.759,2303.76 581.387,2298.2C582.264,2290.44 579.821,2282.5 578.021,2275.13C573.066,2255.2 560.162,2237.71 554.824,2218.01C550.465,2201.93 557.773,2183.82 554.361,2168.49C551.76,2156.8 546.087,2145.57 547.044,2133.48C544.903,2132.39 543.142,2130.72 541.936,2128.26C540.242,2124.8 539.672,2120.88 539.034,2117.09C538.848,2115.95 538.694,2114.81 538.64,2113.66C537.684,2114.94 536.729,2116.21 535.777,2117.47L535.947,2118.14C535.299,2119.24 535.15,2119.59 534.828,2120.34C530.069,2131.5 537.147,2145.55 532.644,2155.14C530.283,2160.17 524.401,2162.55 520.651,2166.44C516.175,2175.62 521.265,2186.76 518.758,2197.18C518.7,2197.72 518.643,2198.25 518.588,2198.79C516.863,2215.93 517.361,2232.91 516.801,2250.2C516.336,2266.48 519.044,2283.43 513.739,2297.76C515.771,2313.66 517.806,2329.33 516.657,2345.74C515.144,2367.33 510.961,2388.81 513.685,2410.38L512.798,2411.52L511.661,2410.63C508.425,2383.76 516.112,2356.8 515.451,2329.95C515.209,2320.14 513.831,2310.38 512.55,2300.63C512.422,2300.91 512.291,2301.19 512.156,2301.46C508.884,2308.13 504.122,2314 498.955,2319.4L497.514,2319.43L497.485,2317.98C503.494,2311.77 508.895,2304.72 512.047,2296.74C512.021,2296.54 511.996,2296.34 511.971,2296.14L511.896,2295.54L512.567,2294.68L512.754,2294.83C513.417,2292.89 513.945,2290.9 514.315,2288.86C516.95,2274.34 514.862,2259.42 515.281,2244.31C515.645,2230.39 515.524,2216.44 516.681,2202.59C513.554,2208.7 508.937,2214.12 503.055,2217.47C496.98,2220.91 489.897,2222.01 483.549,2223.27C474.741,2225.01 465.708,2225.49 456.706,2225.66C455.364,2225.67 455.242,2225.66 454.592,2225.64C449.003,2225.48 443.377,2224.49 437.951,2225.8L437.383,2225.56C436.206,2226.09 435.011,2226.58 433.782,2226.98C425.534,2229.69 416.531,2230.47 407.827,2229.6C405.911,2232.6 404.646,2236.01 404.406,2239.58L403.294,2240.49L402.375,2239.38C402.815,2235.82 404.144,2232.42 406.075,2229.4C403.564,2229.08 401.083,2228.63 398.659,2228.05C392.901,2226.66 387.586,2223.58 381.603,2223.51C380.921,2223.51 380.114,2223.51 379.443,2223.52C377.402,2233.6 375.053,2243.58 373.262,2253.32C371.494,2263.02 370.02,2272.77 367.538,2282.34C365.031,2292 360.629,2301.17 359.915,2311.25L358.824,2312.19L357.881,2311.1C358.749,2299.62 364.14,2289.02 366.709,2277.64C370.698,2259.96 373.824,2242.22 377.606,2224.28C377.675,2223.95 377.745,2223.62 377.814,2223.29L377.038,2222.52L378.055,2221.5L378.184,2221.5C381.076,2207.33 383.196,2192.95 382.13,2178.48C381.72,2179.14 381.32,2179.81 380.934,2180.48L379.54,2180.84C379.54,2180.84 378.805,2180.05 379.648,2178.67C385.908,2168.51 394.561,2159.7 397.372,2148.02C390.341,2150.47 381.811,2148.24 374.375,2145.76C363.241,2142.04 352.982,2136.14 342.47,2130.64C340.924,2129.83 339.386,2128.95 338.016,2127.93C338.966,2143.93 329.233,2159.03 327.171,2174.48C321.599,2216.87 322.252,2260.22 326.392,2302.6C327.348,2312.5 328.141,2322.42 328.277,2332.38C328.316,2333.89 328.388,2334.37 328.484,2335.36C328.6,2336.53 328.73,2337.7 328.846,2338.87C329.114,2341.62 329.446,2344.46 328.994,2347.09C329.256,2358.93 331.704,2370.69 337.549,2381.19C338.424,2382.76 339.539,2384.24 340.876,2385.48L340.89,2384.45L341.664,2383.67C341.922,2383.93 342.179,2384.19 342.437,2384.45L342.469,2386.75C344.409,2388.07 346.712,2388.89 349.34,2388.86C349.03,2388.56 348.729,2388.25 348.44,2387.93C342.546,2381.33 340.581,2372.46 337.336,2364.22C336.174,2361.24 335.077,2358.24 334.164,2355.18L334.681,2354.22C335.002,2354.39 335.323,2354.56 335.645,2354.73C338.303,2363.43 341.745,2371.77 345.639,2380.04C347.477,2383.95 350.186,2387.58 354.022,2389.75C352.518,2387.79 351.237,2385.63 349.989,2383.49C343.418,2372.24 337.851,2360.41 338.544,2346.85L339.617,2345.89L340.58,2346.96C340.487,2348.6 340.497,2348.73 340.49,2349.52C340.36,2363 347.283,2375.57 354.196,2387.08C355.109,2388.57 356.31,2390.03 357.631,2391.25C358.085,2391.37 358.551,2391.48 359.03,2391.57L360.103,2392.79L359.833,2392.98C362.807,2394.92 365.917,2395.34 367.564,2392.36C369.977,2387.99 362.666,2382.27 360.423,2376.74C356.574,2367.26 358.863,2356.08 356.934,2346.17L357.274,2345.66C357.006,2344.03 356.899,2342.41 357.182,2340.84L358.369,2340.02L359.188,2341.21C358.553,2344.61 359.845,2346.36 360.231,2349.12C361.254,2356.59 361.181,2365.24 367.785,2369.67C369.317,2370.7 371.333,2371.65 372.746,2370.7C375.846,2368.6 373.692,2364.14 373.202,2361.32C371.626,2351.97 374.875,2341.95 370.518,2332.56C366.127,2323.1 359.087,2314.19 360.931,2304.44C360.931,2304.44 361.863,2303.71 361.863,2303.71C362.066,2304.01 362.269,2304.31 362.473,2304.61C362.443,2304.76 362.416,2304.92 362.39,2305.07C360.425,2317.23 372.251,2328.33 374.229,2338.49C375.737,2346.23 373.648,2354.4 375.085,2361.74C375.252,2362.6 375.437,2363.45 375.589,2364.31C375.678,2364.82 375.756,2365.34 375.807,2365.86C375.848,2366.28 375.871,2366.7 375.87,2367.12C375.87,2367.44 375.855,2367.76 375.823,2368.08C375.564,2370.63 373.465,2373.38 370.32,2372.77C363.937,2371.53 360.868,2363.89 359.36,2356.4C359.518,2363.8 359.324,2371.27 362.733,2377.81C365.123,2382.39 370.727,2386.19 369.621,2391.68C368.762,2395.95 363.125,2397.57 358.351,2394.1C357.978,2393.82 357.619,2393.54 357.271,2393.24C355.092,2392.65 353.019,2391.71 351.183,2390.39C350.976,2390.62 350.677,2390.83 350.262,2390.86C347.577,2391.04 344.864,2390.57 342.503,2389.3L342.684,2402.45L341.664,2403.22L340.644,2402.45L340.839,2388.21C337.825,2385.87 335.919,2382.39 334.428,2378.97C330.469,2369.9 328.115,2360.15 327.557,2350.26L326.66,2350.55C326.66,2350.55 326.102,2349.39 326.254,2349.09C329.054,2343.29 326.39,2335.47 326.23,2328.3C325.73,2309.13 322.923,2290.02 321.899,2270.71C320.275,2240.12 321.178,2209.36 324.958,2178.93L324.283,2179.12C319.006,2176.14 317.917,2175.91 315.358,2177.7C312.369,2179.78 312.337,2183.97 312.207,2187.13C312.173,2187.97 312.16,2188.8 312.166,2189.63C312.226,2197.38 313.62,2204.97 313.175,2213C312.58,2223.76 311.556,2234.42 311.559,2245.14C311.566,2263.49 312.778,2281.82 312.508,2300.09C312.157,2323.8 309.326,2347.72 313.476,2371.06C315.41,2381.82 317.63,2392.59 316.52,2403.6L315.402,2404.51L314.491,2403.39C316.071,2388.14 310.794,2372.87 309.688,2357.61C308.089,2335.58 310.887,2313.37 310.777,2291.22C310.656,2267.02 308.985,2242.97 311.133,2218.61C312.022,2208.34 309.858,2198.45 310.682,2186.17C310.724,2185.53 310.783,2184.89 310.864,2184.26C310.927,2183.76 311.004,2183.27 311.098,2182.77C311.168,2182.41 311.247,2182.04 311.339,2181.68C311.402,2181.43 311.471,2181.18 311.546,2180.93C312.372,2178.22 314.314,2175.55 317.633,2175.4C317.788,2175.39 317.942,2175.39 318.096,2175.4C320.549,2175.48 322.876,2176.55 325.045,2177.77L325.085,2177.92C325.204,2176.98 325.325,2176.05 325.449,2175.11C326.989,2163.47 332.565,2152.67 335.177,2141.39L334.449,2141.15C333.686,2139.62 332.466,2138.41 331.336,2137.11C330.594,2136.26 330.51,2136.13 330.163,2135.66C325.758,2129.53 320.661,2123.96 315.662,2118.41C314.96,2117.62 314.301,2116.78 313.803,2115.87L313.552,2116.3L312.306,2115.58C312.125,2114.88 311.957,2114.18 311.803,2113.48C311.6,2113.51 311.369,2113.5 311.109,2113.43C305.362,2111.92 300.093,2108.84 296.024,2104.39C287.685,2095.3 284.352,2083.07 280.14,2071.78C279.101,2089 286.078,2106.49 297.083,2120.16L297.849,2119.7C298.038,2120.01 298.226,2120.32 298.415,2120.63C298.342,2120.93 298.273,2121.23 298.208,2121.53C301.277,2125.18 304.634,2128.53 308.2,2131.52L308.32,2132.95C308.32,2132.95 307.363,2133.03 306.884,2133.08C303.636,2130.31 300.573,2127.26 297.746,2124C296.492,2132.14 297.78,2140.55 301.487,2147.93C306.173,2157.26 312.925,2165.7 313.973,2176.38L313.051,2177.49L311.942,2176.57C310.524,2160.22 295.16,2148.02 295.502,2130.28C295.552,2127.64 295.885,2125.02 296.418,2122.43C283.966,2107.33 276.527,2087.81 278.877,2068.51C278.186,2066.79 277.461,2065.1 276.678,2063.46C269.515,2048.46 261.304,2033.86 257.252,2017.5C252.537,1998.47 256.3,1976.62 277.176,1964.75C284.552,1960.56 292.587,1957.7 299.642,1952.76C305.606,1948.59 311.548,1944.25 319.099,1944.12C319.312,1943.89 319.595,1943.66 319.968,1943.48C324.756,1941.06 328.456,1936.76 329.943,1931.49C327.051,1926.35 325.606,1920.51 326.631,1915.17C321.782,1915.67 317.588,1911.23 314.813,1907.94C305.76,1897.22 301.095,1883.58 293.692,1871.34C288.276,1862.33 288.54,1850.86 290.961,1839.98C294.318,1824.9 300.437,1809.95 312.616,1800.03C319.518,1794.41 328.028,1791.11 335.112,1785.78L335.083,1785.76L335.539,1784.77C336.03,1784.59 336.525,1784.41 337.024,1784.25C337.05,1784.23 337.076,1784.21 337.103,1784.19L337.209,1784.19ZM460.175,2327.2C458.781,2327.15 457.358,2326.81 455.904,2326.1C453.587,2324.98 451.743,2323 450.267,2320.84L450.474,2319.3C450.474,2319.3 451.752,2319.38 451.965,2319.72C453.682,2322.37 456.089,2324.77 459.228,2325.22C464.966,2326.06 469.887,2321.87 474.215,2318.82L475.293,2319L475.113,2320.08C470.846,2323.16 466.299,2326.81 461.389,2327.18C470.314,2351.05 455.393,2377.98 456.376,2402.42L455.394,2403.47L454.338,2402.49C453.571,2378.14 468.4,2354.6 460.916,2330.57C460.617,2329.61 460.288,2328.66 459.939,2327.72L460.175,2327.2ZM609.788,2344.62C604.312,2352.56 597.32,2360.01 593.226,2368.06C591.48,2371.35 590.414,2372.35 589.244,2373.32C589.212,2374.88 590.799,2376.35 593.44,2375.05C599.206,2372.21 604.205,2367.22 607.135,2362.16C609.058,2358.84 608.094,2354.64 608.508,2351C608.755,2348.84 609.211,2346.72 609.788,2344.62ZM602.086,2127.24C592.967,2131.83 581.887,2131.54 571.976,2133.3C564.035,2134.7 554.97,2136.49 548.551,2134.14C547.788,2147.37 555.537,2160.55 556.781,2173.15C558.234,2187.85 552.29,2203.05 556.623,2218.23C562.215,2237.81 575.023,2255.18 579.877,2275.21C582.61,2286.69 585.933,2299.19 578.885,2309.9C575.46,2315.11 571.302,2320.1 570.54,2326.16C569.901,2331.22 571.229,2335.73 571.552,2341.72C571.721,2344.65 572.781,2348.69 576.461,2347.66C579.402,2346.84 580.281,2343.03 580.631,2340.03C581.292,2334.62 586.819,2331.13 591.259,2327.26C591.247,2327.13 591.236,2327.01 591.224,2326.88L592.146,2325.77L592.538,2326.1C593.337,2325.34 594.074,2324.55 594.708,2323.73L596.138,2323.55C596.138,2323.55 596.6,2324.65 595.966,2325.42C595.184,2326.37 594.299,2327.22 593.362,2328.01C594.222,2340.28 591.477,2352.59 584.918,2363.24C583.088,2366.25 580.826,2369.72 581.268,2372.59C581.569,2374.54 584.553,2374.05 587.553,2371.67C587.575,2371.62 587.598,2371.56 587.622,2371.51L587.856,2371.42C589.373,2370.15 590.871,2368.41 592.006,2366.25C598.66,2353.75 610.721,2344.21 614.933,2330.24C618.581,2318.14 610.202,2305.03 605.809,2292.95C603.135,2285.6 602.898,2277.56 603.009,2269.7C603.277,2250.57 606.073,2231.59 606.1,2212.35C606.139,2199.55 606.973,2186.47 603.698,2174.13C600.426,2161.98 601.647,2148.51 601.947,2135.81C602.01,2132.95 602.061,2130.1 602.086,2127.24ZM462.437,2257.45C462.533,2274.65 473.825,2290.51 466.65,2308.43L465.321,2308.99C465.321,2308.99 464.566,2308.16 465.029,2307.01C469.148,2296.56 466.248,2284.73 463.384,2273.95C462.002,2268.7 460.941,2263.35 460.891,2257.9L460.89,2257.45L461.662,2256.67C461.92,2256.93 462.179,2257.19 462.437,2257.45ZM340.341,2169.82C334.309,2180.78 330.018,2192.99 329.741,2205.56C329.278,2226.55 337.268,2246.47 335.522,2268.57L334.422,2269.5L333.49,2268.4C335.668,2242.95 324.276,2217.43 329.546,2193.04C331.364,2184.63 334.8,2176.62 338.987,2169.07L340.038,2168.77C340.139,2169.12 340.24,2169.47 340.341,2169.82ZM460.432,2228.36C460.966,2232.39 459.926,2236.61 457.487,2239.86L456.057,2240.02C456.057,2240.02 455.54,2239.02 456.104,2238.33C458.286,2235.6 459.256,2232.01 458.896,2228.54L459.573,2227.68C459.859,2227.91 460.145,2228.13 460.432,2228.36ZM485.415,2227.63C484.942,2229.73 484.541,2232.56 484.658,2235.45L483.637,2236.46L482.618,2235.45C482.697,2233.54 482.793,2232.85 482.993,2231.56C483.217,2230.11 483.534,2228.68 483.913,2227.26L484.849,2226.7C485.037,2227.01 485.226,2227.32 485.415,2227.63ZM387.762,2170C386.316,2172.11 384.868,2174.2 383.5,2176.31C384.957,2191.36 382.801,2206.55 379.844,2221.51C382.986,2221.55 386.077,2221.75 389.321,2222.83C397.923,2225.71 407.032,2228.27 416.973,2227.91C425.425,2227.6 433.489,2225.7 441.444,2221.82C444.486,2220.35 447.61,2218.91 450.963,2218.34C451.26,2218.55 451.558,2218.77 451.855,2218.98L451.223,2219.87C448.08,2220.41 445.182,2221.73 442.301,2223.16C447.636,2222.86 453.048,2223.78 458.248,2223.69C470.373,2223.47 482.267,2221.84 494.356,2218.78C504.684,2216.14 514.286,2207.97 517.237,2196.88C519.532,2188.25 515.752,2178.87 517.758,2170.05C514.488,2174.7 511.91,2179.97 506.499,2182.78C502.422,2184.89 497.232,2186.13 493.258,2184.34L493.186,2184.46C488.632,2185.64 484.289,2185.82 479.45,2187.04C479.271,2187.08 479.092,2187.12 478.912,2187.16C477.831,2187.37 476.488,2187.42 475.717,2186.45C471.977,2187.77 467.859,2188.05 464.315,2187.1C461.447,2186.34 459.376,2183.3 460.041,2180C460.216,2179.13 460.478,2178.32 460.812,2177.54C440.949,2178.18 420.675,2175.69 401.465,2173.41C396.913,2172.85 392.352,2172.14 388.097,2170.5L387.762,2170ZM584.484,2174.98C584.967,2171.84 585.484,2168.69 586.013,2165.56L586.18,2164.57L586.516,2162.59L587.406,2161.96C587.618,2162.25 587.83,2162.55 588.042,2162.85C586.048,2175.09 584.788,2187.55 583.482,2199.64C583.133,2203 582.714,2206.45 583.77,2209.54L583.125,2210.83L581.835,2210.19C579.876,2204.17 581.905,2197.1 582.427,2191.26C582.78,2187.42 583.245,2183.6 583.779,2179.78L583.343,2179.43C583.251,2178.51 583.125,2177.6 582.942,2176.69C582.862,2176.29 582.77,2175.89 582.667,2175.49C581.658,2171.63 578.324,2169.52 575.168,2166.36L575.161,2165.26C575.161,2165.26 576.127,2165.13 576.31,2165.31C577.544,2166.47 579.211,2167.05 580.482,2168.18C582.502,2169.97 583.725,2172.42 584.484,2174.98ZM532.692,2121.6C532.601,2121.72 532.509,2121.84 532.418,2121.97C528.733,2126.92 523.803,2130.68 517.11,2131.54C508.62,2132.64 499.95,2127.26 492.114,2128.55L491.398,2128.03C488.707,2129.15 485.89,2130.01 482.949,2130.58C476.868,2131.75 470.266,2132.66 466.479,2137.16C464.351,2139.69 468.113,2142.52 473.811,2144.25C474.001,2144.31 474.19,2144.37 474.38,2144.43C480.23,2146.33 484.805,2153.38 478.887,2161.67C473.899,2168.65 464.145,2171.07 461.982,2179.99C461.49,2182.02 462.117,2184.3 464.099,2185.02C471.339,2187.66 480.974,2183.72 483.872,2176.94L485.211,2176.41C485.211,2176.41 485.852,2177.5 485.681,2177.89C484.238,2181.1 481.58,2183.6 478.417,2185.26C482.903,2184.7 487.557,2184.13 491.875,2183.18C491.168,2182.08 491.129,2180.56 491.979,2179.42C493.423,2177.49 496.096,2176.58 497.472,2174.79C497.472,2174.79 498.927,2174.54 498.927,2174.54C498.927,2174.54 499.208,2175.87 499.095,2176.02C497.353,2178.26 492.434,2179.25 493.242,2181.82C493.76,2183.46 495.487,2183.54 497.301,2183.32C497.389,2182.99 497.57,2182.61 497.938,2182.44C500.658,2181.12 502.487,2178.43 504.926,2176.53C505.289,2176.56 505.651,2176.6 506.014,2176.64L505.899,2177.73C504.078,2179.25 502.631,2181.2 500.873,2182.76C504.208,2182.11 507.376,2180.51 509.8,2178.11C514.785,2173.19 517.06,2166.37 523.494,2161.83C527.943,2158.72 532.095,2154.95 532.292,2149.07C532.595,2140.01 529.846,2130.3 532.692,2121.6ZM464.739,2136.71C450.081,2134 436.078,2129.53 419.981,2129.24C416.542,2129.18 413.213,2130.38 410.19,2129.44C409.004,2131.97 407.858,2134.53 406.897,2137.22C405.535,2140.97 403.703,2144.69 400.162,2146.74C399.811,2146.95 399.455,2147.14 399.094,2147.31L399.111,2147.34C397.527,2155.25 393.07,2162.21 388.453,2168.98C388.471,2168.99 388.489,2168.99 388.506,2169C397.243,2172.38 407.12,2172.42 416.268,2173.43C431.199,2175.06 446.25,2176.15 461.233,2175.49L461.635,2175.47L461.821,2175.64C467.073,2167.36 480.638,2163.92 479.852,2152.1C479.407,2145.39 465.637,2146.45 464.039,2139.93C463.76,2138.8 464.048,2137.71 464.739,2136.71ZM338.27,2064.06C337.337,2063.89 336.996,2063.88 336.321,2063.88C329.455,2063.81 323.468,2068.96 320.123,2074.26C312.995,2085.56 310.812,2099.71 313.718,2112.78L314.515,2113.34C314.53,2113.43 314.547,2113.52 314.567,2113.6C315.581,2117.83 320.02,2120.23 323.47,2124.18C325.414,2126.41 327.268,2128.71 329.072,2131.05C329.63,2131.77 330.183,2132.49 330.732,2133.22C332.307,2135.32 334.286,2137.12 335.647,2139.18C336.422,2135.18 336.772,2131.1 336.387,2126.9L336.531,2126.68C334.751,2124.98 333.46,2122.9 333.16,2120.16C332.434,2113.53 336.404,2107.26 339.028,2101.51C341.968,2095.11 344.822,2088.73 347.226,2082.03C347.576,2081.05 347.931,2080.08 348.289,2079.11C345.701,2073.69 342.871,2068.28 338.385,2064.49L338.27,2064.06ZM583.141,2069.84C578.301,2076.89 574.516,2084.76 567.584,2090.05L566.16,2089.83C566.16,2089.83 565.99,2088.69 566.863,2088.05C573.358,2083.15 577.205,2075.57 581.871,2068.96L582.948,2068.77C583.012,2069.12 583.076,2069.48 583.141,2069.84ZM405.458,2013.28C413.422,2018.76 415.78,2029.69 417.807,2038.48C419.14,2044.51 418.711,2050.81 419.013,2056.98C419.471,2066.76 419.276,2076.67 416.625,2086.11L415.287,2087.06L414.591,2085.8C417.688,2075.29 417.444,2064.05 417.036,2053.16C416.786,2045.83 416.375,2038.87 414.284,2030.69C412.7,2024.49 410.097,2018.29 404.391,2014.43L404.182,2013.35C404.182,2013.35 405.057,2013.01 405.458,2013.28ZM425.384,2049.5C426.519,2057.15 427.155,2065.2 423.948,2072.08C423.948,2072.08 422.509,2072.7 422.509,2072.7L422.046,2071.33C425.256,2065.09 424.859,2057.43 423.895,2050.03L424.51,2048.84C424.802,2049.06 425.093,2049.28 425.384,2049.5ZM595.644,1993.64C602.547,1983.61 611.856,1974.84 613.264,1962.67C613.682,1959.06 615.629,1955.43 613.942,1952.33C611.883,1948.55 606.914,1948.27 603.351,1947.67C598.363,1946.84 593.586,1945.61 589.66,1941.94C586.175,1938.66 582.631,1935.29 577.323,1935.33C567.919,1935.39 560.628,1942.93 551.081,1945.55C545.771,1947 539.51,1946.19 536.149,1950.74L535.886,1950.77C535.921,1951.67 535.858,1952.58 535.684,1953.5L534.755,1954.22L534.145,1953.31C534.171,1953.18 534.195,1953.05 534.217,1952.91C535.121,1947.23 530.836,1940.26 524.229,1941.77C514.849,1943.9 509.788,1958.09 510.843,1967.85L511.153,1968.23C511.153,1968.23 511.06,1968.32 510.913,1968.43C511.142,1970.11 511.56,1971.65 512.178,1972.95C512.959,1974.59 514.502,1976.03 516.457,1976.04L517.543,1977.06L516.525,1978.08C511.995,1978.06 509.519,1972.52 509.099,1968.52C506.996,1967.82 504.958,1966.57 503.029,1965.67C502.455,1966.71 502.33,1966.87 501.953,1967.41C497.367,1974.01 488.381,1976.32 481.773,1979.92C481.645,1980.64 481.643,1980.81 481.588,1981.29C479.425,2000.53 495.538,2019.15 512.037,2025.78C517.648,2028.03 523.819,2031.53 528.897,2030.16C522.891,2024.37 517.742,2017.88 516.764,2009.81C515.842,2002.21 517.134,1994.51 517.164,1986.92L517.939,1986.15C518.196,1986.41 518.453,1986.67 518.71,1986.92C518.693,1997.06 515.95,2007.81 520.585,2016.96C523.006,2021.74 526.627,2025.75 530.602,2029.49C530.665,2029.46 530.728,2029.42 530.79,2029.38L532.178,2029.78C532.178,2029.78 532.22,2030.31 531.999,2030.78C533.709,2032.33 535.465,2033.85 537.203,2035.36C538.199,2036.25 538.273,2036.34 538.73,2036.79C542.68,2040.65 546.383,2045.61 552.307,2045.52C557.81,2045.43 562.256,2040.43 566.115,2037.14C573.851,2030.51 580.509,2022.68 586.183,2014.22L586.106,2013.83C586.106,2013.83 586.295,2013.76 586.53,2013.7C587.573,2012.13 588.582,2010.54 589.558,2008.93C592.18,2004.67 595.552,2000.74 595.157,1995.65C594.91,1995.68 594.665,1995.66 594.473,1995.55C594.188,1995.39 593.893,1995.25 593.591,1995.12C592.357,1995.55 590.65,1995.73 590.65,1995.73C589.837,1995.58 589.273,1994.91 589.204,1994.08L588.911,1994.04L588.145,1993.1L589.089,1992.33C589.22,1992.34 589.351,1992.35 589.482,1992.36C591.591,1992.53 593.727,1992.78 595.644,1993.64ZM507.346,2035.66C509.93,2036.07 512.468,2036.96 515.056,2036.68L516.134,2037.63C516.134,2037.63 515.557,2038.81 513.981,2038.68C511.677,2038.49 509.443,2037.68 507.192,2037.22C507.192,2037.22 506.335,2036.28 506.335,2036.28C506.335,2036.28 507.028,2035.62 507.346,2035.66ZM556.088,2035.38C557.052,2036 558.269,2036.06 559.412,2036.11L560.185,2036.88L559.412,2037.65C559.068,2037.67 558.723,2037.68 558.378,2037.69C557.011,2037.72 555.099,2037.16 555.099,2037.16L554.669,2035.78C554.669,2035.78 555.878,2035.24 556.088,2035.38ZM554.967,2025.34C555.887,2028.19 557.176,2031.19 559.991,2032.7L560.434,2034.12L559.045,2034.5C556.069,2032.67 554.449,2029.14 553.488,2025.79L554.002,2024.83C554.324,2025 554.646,2025.17 554.967,2025.34ZM472.522,1986.45C472.527,1987.02 472.527,1987.02 472.549,1987.59C473.183,2000.89 481.796,2012.79 489.491,2023.95C491.867,2027.39 494.65,2030.63 498.327,2032.72L498.702,2034.11C498.702,2034.11 497.688,2034.72 496.805,2034.18C491.203,2030.74 487.714,2024.73 484.172,2019.35C477.481,2009.14 471.002,1998.23 470.976,1986.45L471.745,1985.68C472.004,1985.93 472.263,1986.19 472.522,1986.45ZM563.696,2025.53C564.346,2025.55 565.255,2025.77 565.255,2025.77L565.857,2027.08L564.55,2027.68C562.536,2026.82 559.929,2027.7 557.401,2028.18L556.298,2027.61L556.901,2026.7C559.199,2026.18 561.114,2025.5 563.696,2025.53ZM584.19,1997.98C582.15,2005.06 585.219,2013.83 579.178,2019.52C578.999,2019.68 578.815,2019.85 578.624,2020C577.51,2020.9 576.051,2021.63 574.574,2021.28C574.574,2021.28 573.797,2020.01 573.797,2020.01C573.797,2020.01 574.839,2019.31 575.346,2019.35C578.095,2019.48 579.969,2015.96 580.662,2013.17C581.914,2008.14 581.194,2002.72 582.666,1997.68L583.667,1997.02C583.842,1997.34 584.016,1997.66 584.19,1997.98ZM563.401,2010.44C563.347,2010.54 563.294,2010.65 563.244,2010.75C562.103,2013.22 565.037,2014.78 569.908,2015.99C571.053,2016.28 572.504,2016.88 572.504,2016.88L572.818,2017.92C572.818,2017.92 571.976,2018.33 571.6,2018.15C567.279,2016.24 560.152,2016.9 560.965,2011.43C561.095,2010.56 561.573,2009.54 561.573,2009.54L562.938,2009.08C563.092,2009.53 563.247,2009.99 563.401,2010.44ZM300.254,1964.7C301.317,1965.52 302.38,1966.34 303.431,1967.18C304.091,1967.71 304.746,1968.25 305.393,1968.79C305.858,1969.18 306.319,1969.58 306.773,1969.99C310.761,1973.54 314.35,1978.12 314.852,1983.69C315.238,1987.97 314.09,1992.3 312.539,1996.37L311.219,1996.95L310.639,1995.63C312.738,1990.39 314.15,1984.5 311.902,1979.21C309.255,1972.99 303.334,1969.1 298.189,1965.06L298.053,1963.97L299.139,1963.84C299.51,1964.12 299.882,1964.41 300.254,1964.7ZM559.648,1988.46C558.775,1988.48 557.903,1988.5 557.033,1988.53L556.227,1987.79L556.967,1986.99C558.939,1986.88 560.912,1986.8 562.877,1986.8C566.727,1986.82 570.598,1987.12 574.252,1988.39L574.972,1989.75C574.972,1989.75 574.059,1990.44 572.492,1989.92C571.569,1989.62 570.631,1989.37 569.683,1989.18L569.626,1989.37C565.707,1991.59 558.594,1994.44 559.648,1988.46ZM561.66,1988.45C561.676,1988.56 561.673,1988.67 561.644,1988.78C560.728,1992.55 561.246,1989.6 561.768,1990.03L561.196,1990.53L561.212,1990.54C561.321,1990.28 561.544,1989.85 561.768,1990.03C562.268,1990.45 564.679,1989.92 567.281,1988.78C565.429,1988.55 563.548,1988.46 561.66,1988.45ZM348.564,1976.03C360.874,1982.18 373.719,1989.98 386.876,1984.53L388.203,1985.09C388.203,1985.09 388.026,1986.28 387.152,1986.61C376.202,1990.67 363.753,1985.48 354.168,1980.64C352.245,1979.67 350.336,1978.68 348.42,1977.7L347.317,1977.14L346.973,1976.1L348.011,1975.76C348.195,1975.85 348.38,1975.94 348.564,1976.03ZM599.24,1985.46L598.912,1986.87C596.959,1988.01 594.556,1985.6 592.917,1985.02C591.699,1984.58 590.324,1984.46 589.102,1984.92L588.101,1984.48C588.101,1984.48 588.513,1983.32 589.907,1983.09C592.207,1982.71 594.444,1983.74 596.506,1984.97C598.288,1985.99 597.837,1985.13 597.837,1985.13C598.304,1985.24 599.24,1985.46 599.24,1985.46ZM565.195,1973.88C568.627,1973.96 571.934,1975.25 574.648,1977.42L574.776,1978.51L573.689,1978.63C572.831,1977.96 572.688,1977.89 572.192,1977.58C565.947,1973.71 557.494,1976.99 551.671,1980L550.308,1979.54C550.308,1979.54 550.608,1978.63 550.759,1978.18C551.128,1978 551.498,1977.82 551.869,1977.64C556.093,1975.66 560.466,1973.84 565.195,1973.88ZM292.672,1970.57C298.154,1970.69 303.024,1974.06 308.048,1976.9L309.238,1977.58L309.606,1978.96L308.22,1979.34C301.924,1975.62 296.141,1971.28 287.808,1972.69C285.47,1973.08 283.159,1973.64 280.85,1974.2L279.913,1973.63L280.477,1972.7C284.498,1971.67 288.571,1970.53 292.672,1970.57ZM404.828,1840.82L403.617,1840.23C402.431,1836.7 399.135,1834.32 395.94,1832.5C388.033,1827.97 378.261,1827.56 368.955,1828.66L368.412,1828.23C368.09,1828.4 367.769,1828.57 367.447,1828.74C362.42,1831.39 357.253,1833.87 351.09,1833.33C348.628,1833.11 346.129,1832.33 344.138,1830.85C344.144,1831.66 344.149,1832.47 344.151,1833.28C344.151,1840.91 343.326,1848.97 338.533,1855.12C335.403,1859.13 330.792,1861.84 326.89,1865.2C328.95,1864.25 331.2,1863.75 333.696,1863.78C335.773,1863.81 337.855,1864.36 339.53,1865.57L339.728,1866.99L338.302,1867.19C334.85,1864.46 329.28,1865.28 325.286,1867.93L324.148,1867.86C323.129,1869 322.221,1870.24 321.483,1871.64C319.747,1874.92 319.855,1878.94 321.872,1882.1C323.772,1885.06 325.51,1888.12 326.918,1891.39C327.593,1892.91 328.677,1894.47 330.083,1895.29L330.234,1895.04C330.546,1895.23 330.858,1895.42 331.169,1895.61C331.182,1895.66 331.194,1895.71 331.206,1895.76C331.927,1895.94 332.712,1895.92 333.553,1895.63C335.405,1894.99 336.657,1893.22 337.22,1891.41L338.499,1890.74C338.499,1890.74 339.238,1891.79 339.13,1892.13C338.09,1895.26 334.866,1897.82 331.574,1897.65C332.298,1902.52 331.322,1907.45 329.263,1912.31C325.851,1920.57 330.587,1931.46 337.276,1937.64L337.321,1939.08L335.881,1939.13C334.068,1937.4 332.422,1935.42 331.026,1933.27C329.333,1938.25 325.761,1942.47 321.106,1945.12C334.179,1953.04 344.37,1965.29 358.152,1972.85C366.669,1977.52 377.483,1980.04 386.632,1974.73C398.579,1967.78 406.373,1951.97 401.828,1938.88C401.125,1936.85 399.532,1934.99 397.428,1934.32L397.399,1934.32C396.664,1934.31 395.936,1934.22 395.215,1934.08C395.117,1934.09 395.019,1934.1 394.92,1934.12L394.67,1933.97C392.925,1933.58 391.213,1932.93 389.511,1932.47L389.38,1932.25C388.769,1937.32 388.308,1942.5 389.617,1947.37L388.876,1948.61L387.639,1947.87C386.023,1941.02 387.53,1933.75 388.5,1926.77C384.814,1927.3 381.029,1927.42 377.527,1927.59L376.465,1926.61L377.437,1925.55C388.533,1925.09 402.138,1924.27 404.51,1913.37C405.822,1907.34 403.756,1900.93 404.547,1894.73C405.375,1888.23 408.234,1882.35 406.949,1875.24C406.244,1871.34 404.907,1867.56 403.937,1863.72C402.21,1865.71 398.873,1866.27 397.409,1863.63C397.131,1863.13 396.963,1862.58 396.873,1862.02C396.324,1862.15 395.783,1862.33 395.253,1862.57L393.927,1862.01C393.927,1862.01 393.962,1860.87 394.79,1860.57C396.204,1860.09 397.33,1859.93 399.119,1859.93C400.435,1859.94 402.138,1860.04 403.166,1860.11C403.002,1859.12 402.882,1858.13 402.822,1857.12C402.684,1854.85 402.768,1852.57 402.961,1850.3C402.61,1850.35 402.197,1850.38 401.751,1850.34C399.899,1850.18 398,1850.52 396.327,1851.35L394.986,1850.83C394.986,1850.83 395.166,1849.61 395.858,1849.35C397.298,1848.84 398.52,1848.6 400.279,1848.61C401.273,1848.63 402.455,1848.83 403.086,1848.96C403.322,1846.64 403.649,1844.33 403.949,1842.03L404.023,1841.45L404.828,1840.82ZM413.431,1944.35C414.684,1954.12 413.15,1964.45 406.696,1972.09L405.259,1972.19C405.259,1972.19 404.748,1971.22 405.444,1970.42C411.405,1963.44 412.926,1953.35 411.896,1944.54L412.57,1943.68C412.857,1943.9 413.144,1944.13 413.431,1944.35ZM523.549,1958.76C521.526,1962.15 517.837,1965.74 519.554,1969.53C519.614,1969.66 519.687,1969.79 519.78,1969.9C521.271,1971.7 522.823,1967.68 523.3,1964.3C523.686,1961.67 525.517,1959.71 527.914,1958.43C527.914,1958.43 529.412,1958.79 529.412,1958.79C529.412,1958.79 529.129,1959.71 528.988,1960.17C528.6,1960.37 528.207,1960.56 527.819,1960.76C524.138,1962.67 526.072,1970.38 521.097,1971.81C518.69,1972.5 517.03,1969.23 517.979,1965.78C518.767,1962.93 520.67,1960.51 522.224,1957.96L523.286,1957.7C523.374,1958.05 523.461,1958.41 523.549,1958.76ZM592.663,1892.73C593.119,1892.93 593.577,1893.13 594.04,1893.3L594.613,1894.63C594.613,1894.63 593.907,1895.46 592.779,1894.99C582.206,1890.5 574.45,1879.44 562.607,1878.34C558.173,1877.93 553.717,1879.14 549.371,1880.14C551.478,1880.49 553.572,1880.96 555.657,1881.34L556.72,1882.57L555.533,1883.39C555.198,1883.33 554.864,1883.26 554.529,1883.19C553.373,1882.96 552.22,1882.71 551.064,1882.47C545.071,1881.26 538.522,1881.57 533.071,1885.66C526.748,1890.41 521.587,1896.6 516.509,1903.18C512.545,1908.32 509.134,1913.99 507.257,1920.23C510.609,1917.54 514.345,1915.29 517.95,1913.55C518.403,1913.71 518.856,1913.87 519.309,1914.03C519.309,1914.03 519.256,1915.18 518.264,1915.66C509.808,1919.86 501.645,1926.42 498.526,1934.88C495.294,1943.64 503.965,1952.87 498.706,1962.41C498.706,1962.41 497.052,1963 499.434,1963.06C502.777,1963.13 505.712,1965.61 509.002,1966.85C508.63,1954.04 515.606,1940.06 525.9,1939.91C525.999,1939.91 525.999,1939.91 526.099,1939.91C530.608,1939.99 534.364,1943.64 535.525,1948.26C536.689,1946.95 537.183,1946.99 537.935,1946.58C543.01,1943.87 549.157,1944.61 554.998,1942.06C557.686,1940.88 560.263,1939.47 562.87,1938.12C567.49,1935.75 572.297,1933.48 577.446,1933.49C580.278,1933.52 583.099,1934.31 585.44,1935.87C590.154,1939.03 593.182,1944.07 599.41,1945.25C606.674,1946.63 616.346,1946.77 616.249,1955.11C616.192,1959.96 615.267,1964.71 613.678,1969.12C618.708,1963.6 626.087,1959.96 628.365,1952.8C629.769,1948.39 626.499,1944.03 626.208,1939.02C625.905,1933.82 628.007,1928.92 626.333,1923.49C626.12,1922.8 625.87,1922.12 625.585,1921.47L624.811,1921.3C624.669,1921.07 624.669,1921.07 624.528,1920.85C623.521,1919.19 622.661,1917.46 621.855,1915.7C617.084,1910.39 609.722,1907.15 602.297,1907.1L601.527,1906.33C601.527,1906.33 602.06,1905.55 602.581,1905.56C608.925,1905.64 615.257,1907.87 620.131,1911.8C618.186,1907.35 616.151,1902.98 612.559,1899.53C607.378,1894.55 599.638,1894.1 592.663,1892.73ZM317.237,1948.9C321.83,1952.18 324.862,1957.25 328.454,1961.57L328.289,1963L326.859,1962.84C323.466,1958.42 320.83,1953.46 316.212,1950.08L316.036,1949C316.036,1949 316.94,1948.7 317.237,1948.9ZM540.027,1954.28C540.209,1954.16 540.396,1954.04 540.587,1953.93C545.28,1951.13 550.576,1949.13 553.849,1944.8C553.849,1944.8 554.735,1944.3 554.735,1944.3L555.738,1944.6L556.231,1945.51L555.937,1946.47C550.58,1952.71 541.169,1953.78 536.079,1959.94C535.389,1960.78 534.72,1961.63 533.997,1962.44L532.909,1962.51C532.909,1962.51 532.683,1961.61 532.998,1961.24C534.158,1959.85 535.248,1958.48 536.502,1957.19C536.167,1957.19 535.831,1957.17 535.494,1957.11C533.642,1956.81 532.002,1955.82 530.367,1954.97C528.256,1953.87 527.25,1953.39 525.343,1953.72L524.44,1953.11L525.057,1952.2C526.087,1952 526.048,1952.07 526.435,1952.07C531.104,1952.17 535.107,1957.4 539.407,1954.17L540.027,1954.28ZM343.265,1900.74C350.354,1910.62 355.808,1923.91 368.084,1923L369.166,1923.95L368.216,1925.04C360.078,1925.49 353.121,1918.46 348.867,1912.21C348.144,1911.14 347.445,1910.07 346.755,1908.98C345.276,1906.66 343.849,1904.3 342.29,1902.04L342.004,1901.63L342.186,1900.55C342.546,1900.61 342.905,1900.67 343.265,1900.74ZM370.792,1790.16C360.185,1785.84 349.618,1782.13 338.031,1785.57C337.945,1785.59 337.859,1785.62 337.773,1785.64C328.352,1793.53 316.122,1797.38 307.817,1807.08C296.542,1820.25 290.841,1838.63 290.948,1854.94C290.96,1856.73 291.071,1858.53 291.318,1860.31C292.343,1867.71 297.702,1873.87 301.004,1880.33C306.353,1890.79 310.718,1902 319.492,1910.02C319.822,1910.33 320.162,1910.62 320.511,1910.9C320.74,1911.08 320.972,1911.26 321.21,1911.43C322.903,1912.64 325.043,1913.55 327.161,1913.01L327.188,1913.03C327.301,1912.69 327.425,1912.35 327.561,1912.01C328.795,1908.97 330.195,1905.97 330.335,1902.69C330.412,1900.9 330.28,1899.1 329.957,1897.34C328.943,1896.99 327.957,1896.34 327.061,1895.33C324.218,1892.13 323.619,1888.06 320.758,1883.78C317.787,1879.3 317.846,1873.3 321.228,1868.73C327.166,1860.71 338.069,1857.29 341.254,1846.1C342.786,1840.71 342.593,1835.03 342.579,1829.47L342.579,1829.42C342.379,1829.19 342.188,1828.95 342.008,1828.7L342.18,1827.62L343.26,1827.8C343.279,1827.82 343.297,1827.85 343.316,1827.87L343.351,1827.84L344.126,1828.61C344.126,1828.7 344.127,1828.79 344.127,1828.88C344.676,1829.48 344.928,1829.53 345.242,1829.75C350.043,1833.14 356.606,1831.94 361.513,1829.78C369.767,1826.13 377.182,1819.84 386.395,1819.73C386.543,1819.73 386.543,1819.73 386.692,1819.73C389.299,1819.76 391.872,1820.47 394.134,1821.82L394.599,1823.31C394.599,1823.31 393.466,1823.76 392.461,1823.2C385.728,1819.55 377.296,1823.56 371.273,1826.72C371.17,1826.77 371.066,1826.82 370.963,1826.88C373.121,1826.67 375.286,1826.56 377.45,1826.56C388.829,1826.62 402.167,1830.04 405.545,1839.57L404.93,1840.83L405.348,1841.37C405.432,1841.24 405.537,1841.14 405.669,1841.07C408.923,1839.39 407.764,1834.45 406.495,1831.99C406.227,1831.47 405.925,1830.97 405.595,1830.49L405.783,1829.41C406.142,1829.48 406.501,1829.54 406.86,1829.6C407.474,1830.45 408.044,1831.4 408.517,1832.38C412.019,1829.05 409.452,1822.88 407.355,1819.69C402.453,1812.22 395.681,1806.24 389.514,1799.67C387.901,1797.96 386.031,1796.51 383.959,1795.34C381.46,1794.48 378.987,1793.51 376.525,1792.51C374.732,1792.1 372.864,1791.85 370.943,1791.76C368.523,1791.64 366.099,1791.66 363.676,1791.66L363.114,1791.66L362.34,1790.88L363.113,1790.11C364.454,1790.11 365.796,1790.1 367.138,1790.1C368.351,1790.11 369.572,1790.12 370.792,1790.16ZM400.709,1907.22C400.709,1907.22 401.237,1908.44 398.953,1909.33C397.368,1909.94 395.584,1909.8 393.966,1909.18L393.286,1908.1L394.28,1907.64C395.918,1908.2 397.727,1907.99 399.134,1907.02C399.134,1907.02 398.933,1906.81 400.709,1907.22ZM393.435,1901.87C396.425,1901.89 399.406,1902.18 402.369,1902.57L403.043,1903.43L402.181,1904.11C397.196,1903.55 392.146,1903.24 387.334,1904.42L386.123,1903.64C386.123,1903.64 386.282,1902.54 387.351,1902.34C389.361,1901.98 391.407,1901.86 393.435,1901.87ZM395.14,1891.21C395.109,1891.69 395.091,1892.11 395.091,1892.11C395.048,1893.26 395.011,1894.86 395.011,1894.86L393.881,1895.73L392.986,1894.62C393.299,1893.14 393.602,1891.04 393.602,1891.04L394.455,1890.36C394.683,1890.64 394.911,1890.92 395.14,1891.21ZM392.989,1858.79C392.99,1858.95 392.993,1859.11 392.997,1859.27C393.248,1867.03 399.392,1873.79 400.665,1880.84C401.154,1883.55 399.048,1886.49 395.126,1886.06C392.964,1885.83 390.601,1885.19 389.025,1886.32L387.604,1886.08C387.604,1886.08 386.981,1884.84 388.891,1884.1C392.127,1882.83 396.542,1885.86 398.496,1883.62C400.201,1881.65 398.351,1879.03 397.394,1876.84C394.835,1871 391.441,1865.36 391.442,1858.79L392.212,1858.02C392.471,1858.27 392.73,1858.53 392.989,1858.79ZM368.363,1864.84C367.339,1865.21 366.346,1865.66 365.401,1866.21L364.023,1865.8C364.023,1865.8 363.905,1864.67 364.783,1864.24C367.736,1862.82 371.015,1862.12 374.29,1862.14C375.149,1862.16 376.006,1862.22 376.858,1862.33L377.534,1863.19L376.674,1863.87C375.585,1863.75 375.324,1863.76 374.664,1863.76C374.515,1863.76 374.366,1863.76 374.216,1863.76C374.41,1866.68 371.486,1870 369.089,1867.74C368.899,1867.56 368.74,1867.34 368.618,1867.11C368.245,1866.41 368.227,1865.61 368.363,1864.84ZM372.186,1863.92C371.382,1864.03 370.586,1864.19 369.802,1864.4C369.892,1864.59 369.953,1864.8 369.92,1864.98C369.237,1869.34 370.091,1866.69 370.742,1866.67C370.9,1866.66 371.054,1866.62 371.199,1866.55C371.319,1866.5 371.431,1866.43 371.533,1866.34C372.203,1865.79 372.338,1864.85 372.186,1863.92ZM402.858,1861.71C401.361,1861.69 399.862,1861.62 398.404,1861.77C398.408,1861.78 398.411,1861.79 398.414,1861.81C398.873,1863.94 402.227,1864.31 402.858,1861.71ZM365.524,1849.41C368.458,1849.45 371.357,1850.19 373.912,1851.65L374.207,1852.7L373.153,1853C372.274,1852.51 372.119,1852.46 371.613,1852.25C364.93,1849.47 355.919,1851.91 352.726,1858.92L351.296,1859.61C351.296,1859.61 350.618,1858.59 350.984,1857.86C353.635,1852.62 359.398,1849.41 365.524,1849.41Z"/>
            </g>
        </g>
    </g>
</svg>
