<?xml version="1.0" encoding="UTF-8" standalone="no"?>
<!DOCTYPE svg PUBLIC "-//W3C//DTD SVG 1.1//EN" "http://www.w3.org/Graphics/SVG/1.1/DTD/svg11.dtd">
<svg width="100%" height="100%" viewBox="0 0 576 216" version="1.1" xmlns="http://www.w3.org/2000/svg" xmlns:xlink="http://www.w3.org/1999/xlink" xml:space="preserve" xmlns:serif="http://www.serif.com/" style="fill-rule:evenodd;clip-rule:evenodd;stroke-linejoin:round;stroke-miterlimit:2;">
    <g transform="matrix(1,0,0,1,-690,-1841)">
        <g transform="matrix(0.482813,0,0,0.380556,664,1823)">
            <g transform="matrix(2.0712,0,0,2.62774,-1853.2,-5402.55)">
                <path d="M1199.12,2160.97C1198.65,2160.86 1198.19,2160.72 1197.73,2160.58C1192.81,2159.01 1188.29,2156.32 1185.57,2151.72C1182.7,2146.89 1181.96,2141.05 1182.05,2135.59C1182.13,2130.86 1182.55,2125.35 1186.61,2122.49C1189.4,2120.54 1192.51,2119.14 1195.4,2117.01C1198.33,2114.84 1201.16,2112.55 1204.06,2110.36C1217.63,2100.05 1230.96,2089.82 1241.32,2074.77L1241.78,2074.19L1242.89,2073.97C1242.96,2074.34 1243.03,2074.71 1243.11,2075.07C1243.11,2075.07 1241.42,2077.7 1239.92,2079.73C1229.1,2094.35 1214.01,2104.97 1199.65,2116.05C1194.25,2120.21 1187.03,2122.88 1185.31,2126.72C1183.09,2131.66 1183.51,2137.82 1184.3,2142.61C1185.42,2149.41 1189.75,2156.05 1196.6,2158.28C1197.73,2158.65 1199.15,2159 1199.95,2159.19C1201.43,2156.12 1203.08,2153.16 1204.97,2150.37C1200.35,2150.38 1194.82,2149.3 1195.29,2143.8C1195.69,2139.12 1200.37,2136.23 1203.52,2133.41C1209.41,2128.13 1215.03,2122.3 1218.06,2114.99L1218.2,2114.63C1218.57,2114.47 1219.31,2114.15 1219.31,2114.15L1219.79,2115.26C1215.69,2125.47 1205.44,2132.28 1198.93,2139.88C1197.32,2141.77 1195.8,2144.66 1197.94,2146.63C1199.98,2148.5 1202.83,2149.21 1205.88,2149.07L1205.91,2149.03L1207.23,2148.8L1207.26,2148.96C1210.7,2148.53 1214.26,2147.14 1217.07,2145.22C1221.73,2142.04 1225.54,2137.7 1230.34,2134.68L1230.6,2134.39C1230.83,2134.29 1230.61,2134.29 1230.97,2134.29C1231.63,2133.9 1232.31,2133.53 1233.02,2133.2C1235.38,2132.08 1237.83,2131.18 1240.26,2130.22C1241.59,2129.69 1242.91,2129.15 1244.2,2128.54C1244.59,2128.36 1244.98,2128.17 1245.37,2127.97C1249.78,2125.72 1253.65,2121.96 1254.23,2116.5L1255.02,2115.86C1255.02,2115.86 1255.69,2116.41 1255.61,2117.12C1255.22,2120.08 1253.98,2122.89 1251.91,2125.08C1247.05,2130.24 1239.85,2131.64 1233.51,2134.69C1234.5,2135.06 1235.38,2135.67 1236.04,2136.5L1236.72,2136.52C1238.68,2138.57 1240.81,2140.51 1242.88,2142.45L1243.02,2142.13C1249.6,2136.29 1259.63,2131.76 1262.76,2122.87C1264.26,2118.57 1263.74,2113.78 1265.03,2109.34C1265.07,2109.2 1265.12,2109.06 1265.17,2108.91C1264.95,2109.13 1264.73,2109.35 1264.51,2109.59C1264.37,2109.74 1264.06,2110.01 1263.83,2110.28L1262.72,2110.42L1262.59,2109.31C1265.75,2104.96 1271.06,2103.12 1274.91,2098.93C1275.53,2098.26 1276.14,2097.57 1276.76,2096.89C1282.04,2091.12 1288.31,2086.21 1291.92,2079.06L1293.16,2078.51C1293.29,2078.9 1293.42,2079.28 1293.55,2079.67C1289.49,2087.84 1282,2093.94 1275.72,2100.63C1273.42,2103.04 1270.49,2104.73 1267.85,2106.68L1268.02,2107.26C1268.02,2107.26 1266.57,2112.94 1265.93,2118.41C1264.73,2128.22 1255.48,2135.39 1247.84,2141.27C1247.06,2141.84 1246.27,2142.4 1245.44,2142.9C1245.23,2143.03 1245.01,2143.16 1244.79,2143.28C1244.55,2143.43 1244.29,2143.52 1244.08,2143.59C1247.92,2147.25 1251.4,2150.96 1253.03,2155.39C1257.37,2167.15 1252.85,2180.59 1254.1,2192.72C1254.49,2196.43 1255.04,2200.15 1254.8,2203.88L1254.7,2203.99L1254.66,2204.51C1251.56,2207.19 1247.25,2208.49 1243.23,2208.26C1242.36,2208.21 1241.42,2208.01 1240.83,2207.3L1240.92,2206.15C1240.92,2206.15 1241.02,2206.16 1241.19,2206.18L1241.06,2205.82C1241.51,2204.73 1241.27,2205.51 1241.9,2203.47C1243.8,2197.28 1243.62,2190.64 1243.67,2184.04C1243.73,2175.8 1242.5,2167.59 1241.43,2159.4C1241.07,2156.74 1240.13,2154.42 1238.28,2152.28C1237.21,2155.41 1236.77,2158.82 1233.97,2161.06C1228.77,2165.24 1221.01,2164.23 1214.67,2164.21L1214.44,2164.02C1213.68,2164.07 1212.91,2164.13 1212.17,2164.19C1212.12,2164.29 1212.08,2164.39 1212.03,2164.49C1209.81,2169.5 1207.97,2174.78 1207.75,2180.27C1209.53,2180.16 1211.31,2180.06 1213.1,2180.05C1213.1,2180.05 1213.19,2180.05 1213.29,2180.08L1214.12,2180.9L1213.75,2181.23L1213.8,2181.28C1213.79,2185.44 1213.33,2189.56 1212.8,2193.7C1212.72,2194.32 1212.73,2195.18 1212.73,2195.18C1212.73,2195.18 1212.59,2195.24 1212.39,2195.3L1213.29,2196.06L1212.28,2196.98C1209.84,2196.99 1207.39,2196.63 1204.94,2196.79C1204.91,2197.56 1204.85,2198.33 1204.75,2199.1C1204.75,2199.17 1204.74,2199.24 1204.73,2199.31C1204.71,2199.58 1204.68,2199.85 1204.65,2200.11C1204.53,2201.25 1204.5,2202.5 1204.19,2203.57C1205.15,2203.56 1206.11,2203.55 1207.06,2203.55C1211.34,2203.59 1215.78,2204.01 1219.18,2206.48C1222.08,2208.58 1223.86,2211.16 1226.89,2213.45L1227,2214C1236.68,2216.19 1246.74,2227.48 1256.79,2230.64C1266.11,2222.15 1279.15,2217.35 1291.2,2214.31C1293.93,2213.63 1296.69,2213 1299.45,2212.42C1316.33,2208.86 1333.72,2206.89 1349.65,2201.06C1363.99,2195.81 1378.31,2189.16 1388.47,2178.08C1397.01,2168.76 1403.62,2157.2 1415.16,2151.67C1429.58,2144.76 1446.6,2145.79 1461.92,2143.97C1461.92,2143.97 1462.19,2143.85 1462.32,2144.04L1462.33,2144.13C1462.41,2144.08 1462.5,2144.05 1462.57,2144.05C1463.05,2144.05 1463.52,2144.08 1463.99,2144.14C1464.33,2144.18 1464.66,2144.23 1464.99,2144.29C1465.21,2144.34 1465.43,2144.39 1465.64,2144.45C1468.35,2145.18 1470.62,2148.94 1467.64,2151.89C1464.85,2154.65 1460.48,2155.02 1456.41,2156.24C1457.95,2156.75 1459.45,2157.36 1461,2157.82L1461.31,2158.35C1461.69,2158.29 1462.11,2158.25 1462.55,2158.24C1462.76,2158.23 1462.97,2158.23 1463.18,2158.23C1467.71,2158.26 1472.47,2159 1476.73,2160.47C1476.38,2160.1 1476.04,2159.72 1475.71,2159.35C1473.49,2156.78 1472.6,2151.21 1477.09,2151.24C1481.69,2151.39 1485.24,2156.08 1489.03,2159.57C1492.8,2163.08 1495.74,2167.51 1495.78,2172.95L1495.79,2174.95C1495.83,2175.3 1495.83,2175.3 1495.87,2175.68C1496.64,2185.45 1489.99,2194.16 1483.71,2200.14C1475.46,2208.02 1465.45,2214.2 1454.62,2217.4C1433.32,2223.7 1409.55,2219.48 1388.88,2228.72C1362.02,2240.73 1341.25,2264.58 1315.17,2278.15C1302.5,2284.74 1288.29,2289.68 1274.11,2288.91C1252.3,2287.72 1233.08,2271.53 1210.54,2278.12C1210.2,2278.22 1209.85,2278.33 1209.51,2278.44L1209.39,2279.13L1208.02,2278.89C1202.12,2281.46 1196.76,2286.76 1189.64,2283L1189.35,2282.28C1188.64,2282.68 1187.96,2282.19 1187.96,2282.19C1187.96,2282.19 1188.1,2281.92 1188.31,2281.47C1184.88,2281.52 1181.18,2281.78 1178.43,2280.42L1178.47,2280.49C1178.47,2280.49 1174.3,2281.02 1171.85,2281.56C1164.97,2283.01 1158.83,2276.63 1155.84,2270.98L1155.74,2270.92L1155.64,2271.01C1133.75,2270.62 1112.36,2261.39 1089.8,2261.42C1087.55,2261.43 1085.28,2261.57 1083.08,2262.03C1083.08,2262.03 1081.69,2262.23 1080.69,2262.57L1079.68,2262.11L1080.15,2261.1C1080.33,2261.03 1080.52,2260.96 1080.7,2260.89C1083.86,2259.73 1087.25,2259.51 1090.58,2259.52C1111.99,2259.68 1133.31,2268.26 1154.42,2268.95C1150.4,2248.53 1155.62,2227.37 1164.63,2208.45C1165.7,2206.19 1166.76,2204.59 1169.52,2202.3C1169.87,2202.01 1170.26,2201.67 1170.62,2201.35C1139.72,2198.75 1111.78,2176.93 1080.82,2171.31C1068.81,2169.12 1056.68,2174.62 1044.75,2175.43C1043.74,2175.51 1042.72,2175.57 1041.7,2175.62C1027.3,2176.41 1012.84,2175.82 998.57,2174.07C998.57,2174.07 996.321,2173.64 996.321,2173.64L995.615,2172.74L996.52,2172.03L997.277,2172.08C999.353,2172.18 999.463,2172.22 1000.3,2172.31C1015.04,2173.8 1029.82,2174.33 1044.61,2173.3C1054.49,2172.61 1063.75,2168.55 1073.82,2168.42C1074.08,2168.42 1074.08,2168.42 1074.35,2168.42C1080.36,2168.48 1086.34,2170.08 1092.2,2171.82C1119.1,2179.84 1143.4,2197.08 1171.52,2199.13L1172.51,2200.27L1172.78,2200.28L1172.87,2200.16C1173.65,2200.04 1174.45,2199.98 1175.25,2199.99C1179.43,2200.03 1183.49,2201.7 1187.7,2201.86C1187.97,2200.57 1188.2,2199.05 1188.48,2197.16C1187.96,2197.17 1187.61,2197.18 1187.61,2197.18L1187.44,2197.04L1187.17,2197.49L1186.21,2196.91C1185.41,2194.54 1185.95,2193.39 1185.92,2191.68C1185.85,2188.8 1185.64,2185.94 1185.62,2183.05C1185.62,2183.05 1185.66,2183.06 1185.74,2182.42L1186.53,2181.63L1186.58,2181.68L1187.32,2180.77C1189.12,2180.58 1190.93,2180.53 1192.74,2180.54L1192.68,2180.47C1192.65,2177.74 1193.3,2176.34 1193.8,2174.85C1195.37,2170.17 1197.07,2165.47 1199.12,2160.97ZM1093.35,2216.45L1092.81,2217.76C1082.24,2222.54 1074.15,2231.63 1068.18,2241.87C1059.46,2256.81 1053.38,2273.57 1040.4,2285.46C1039.67,2286.13 1038.9,2286.76 1038.12,2287.38L1036.96,2287.28L1037.08,2286.13C1038.43,2284.97 1037.75,2285.58 1039.49,2283.94C1040.02,2283.45 1040.53,2282.95 1041.03,2282.45C1052.22,2271.1 1057.99,2255.16 1065.63,2241.28C1070.23,2232.94 1076.2,2225.07 1084.26,2219.79C1086.61,2218.24 1089.21,2217.01 1091.87,2215.97C1091.87,2215.97 1092.77,2216.21 1093.35,2216.45ZM1462.46,2145.63L1462.47,2145.76C1443.64,2148.1 1423.18,2145.56 1407.77,2158.57C1397.72,2167.06 1392.06,2179.19 1380.59,2187.44C1364.35,2199.13 1344.68,2205.74 1325.12,2209.47C1308.45,2212.64 1291.52,2214.73 1275.75,2221.15C1269.36,2223.75 1263.22,2227.22 1258.17,2231.8L1258.36,2232.08L1257.18,2232.78C1257.17,2232.77 1257.16,2232.77 1257.15,2232.77C1255.03,2234.82 1253.12,2237.09 1251.51,2239.6L1250.25,2239.87L1249.98,2238.61C1251.49,2236.28 1253.24,2234.14 1255.18,2232.19C1244.99,2228.68 1237.45,2218.2 1226.5,2215.9L1226.48,2215.94C1226.3,2216.08 1226.11,2216.22 1225.92,2216.36C1215.91,2224.04 1208.69,2235.38 1205.53,2247.24C1202.92,2257.02 1203.31,2267.95 1209.02,2276.8C1209.65,2276.58 1210.03,2276.49 1210.67,2276.31C1226.71,2271.89 1244.24,2279.92 1258.74,2284.18C1269.83,2287.45 1281.09,2287.98 1294.32,2284.34C1328.53,2274.93 1353.17,2244.61 1384.09,2228.78C1398.29,2221.51 1414.76,2220.44 1430.82,2219.16C1450.18,2217.59 1470.22,2212.43 1485.53,2195.43C1486.24,2194.64 1486.93,2193.82 1487.59,2192.99C1491.59,2187.91 1494.73,2181.85 1493.93,2175.05C1493.94,2172.22 1493.87,2169.35 1492.66,2166.83C1490.57,2162.51 1486.45,2159.59 1483.03,2156.47C1481.03,2154.68 1478.39,2152.23 1476.48,2153.03C1474.67,2153.78 1475.64,2157.14 1478.06,2159.41C1479.21,2160.49 1480.41,2161.53 1481.58,2162.6C1482.55,2163.14 1483.46,2163.73 1484.31,2164.36L1484.55,2165.42C1484.55,2165.42 1484.52,2165.43 1484.47,2165.44C1487.23,2168.43 1489.38,2171.92 1489.65,2176.91L1488.92,2177.73C1488.92,2177.73 1488.14,2177.55 1488.07,2176.48C1487.64,2170.88 1483.37,2167.03 1479.24,2163C1473.51,2160.23 1466.78,2158.97 1460.87,2159.86C1459.45,2160.07 1457.97,2161.15 1460.42,2163.93C1462.89,2166.72 1467.21,2167.24 1470.95,2169.2C1471.02,2169.22 1471.08,2169.24 1471.15,2169.26L1471.2,2169.33C1471.64,2169.57 1472.07,2169.83 1472.48,2170.12C1476.7,2173.03 1479.85,2177.31 1482.13,2181.94L1481.79,2182.95L1480.78,2182.6C1478.34,2177.64 1474.86,2173 1469.97,2170.31C1464.6,2168.42 1459.32,2165.75 1453.61,2165.13C1452.59,2165.01 1451.55,2164.92 1451.49,2165.89C1451.33,2168.48 1454.47,2169.12 1456.39,2170.12C1457.6,2170.75 1458.84,2171.34 1460.01,2171.99C1460.67,2172.08 1461.01,2172.2 1460.65,2172.35C1460.65,2172.35 1461.63,2172.67 1461.63,2172.67C1461.63,2172.67 1461.77,2172.87 1461.78,2173.09C1462.64,2173.68 1463.43,2174.36 1464.11,2175.17C1467.93,2179.72 1469.81,2185.09 1471.9,2191.75L1471.42,2192.68L1470.49,2192.19C1468.97,2187.37 1467.95,2182.47 1464.97,2178.58C1463.2,2176.26 1461.03,2174.78 1458.67,2173.37C1458.44,2173.34 1458.21,2173.33 1457.98,2173.32C1457.86,2173.32 1457.74,2173.32 1457.62,2173.32C1457.51,2173.32 1457.39,2173.33 1457.28,2173.34C1456.46,2173.43 1455.5,2174.32 1456.47,2175.58C1459.36,2179.36 1464.92,2177.59 1464.77,2192.62C1464.75,2194.1 1464.7,2196.12 1464.69,2196.73C1465.69,2196.15 1466.73,2195.64 1467.79,2195.21C1467.79,2195.21 1468.41,2195.36 1468.81,2195.52C1468.81,2195.52 1463.88,2198.44 1460.56,2201.54C1458.57,2203.4 1456.87,2205.58 1455.63,2208L1454.63,2208.43C1454.63,2208.43 1454.22,2207.7 1454.59,2206.99C1456.7,2203.05 1459.9,2199.71 1463.7,2197.32C1463.51,2197.09 1463.3,2196.73 1463.31,2196.23C1463.38,2192.01 1463.73,2187.57 1462.53,2183.75C1462.25,2183.87 1461.97,2183.99 1461.69,2184.12C1453.63,2187.62 1446.83,2192.55 1441.18,2198.94C1440.88,2199.28 1440.43,2199.78 1440.43,2199.78L1439.59,2199.86C1439.59,2199.86 1441.42,2196.68 1443.63,2194.51C1448.9,2189.35 1455.12,2185.33 1462.12,2182.6C1462.07,2182.48 1462.02,2182.36 1461.96,2182.24C1460.66,2179.37 1456.42,2178.62 1454.89,2175.77C1454.19,2174.46 1454.94,2172.72 1456.52,2172.1C1455.14,2171.29 1453.73,2170.43 1452.32,2169.39C1450.55,2168.08 1449.04,2165.48 1450.82,2164.13C1451.39,2163.68 1452.16,2163.63 1452.86,2163.64C1455.01,2163.7 1457.15,2164.16 1459.27,2164.82C1458.86,2164.34 1458.51,2163.81 1458.24,2163.2C1458.17,2163.05 1458.1,2162.89 1458.04,2162.73C1457.98,2162.59 1457.93,2162.44 1457.88,2162.3C1457.42,2160.88 1458.09,2159.46 1459.9,2158.73C1458.08,2158.14 1456.3,2157.4 1454.45,2156.92C1453.1,2157.47 1451.82,2158.18 1450.7,2159.18C1450.26,2159.58 1449.83,2159.98 1449.42,2160.4C1450.32,2160.24 1451.23,2160.1 1452.14,2159.98C1453.62,2159.54 1455.16,2159.28 1456.7,2159.14C1456.7,2159.14 1457.23,2159.53 1457.57,2159.82L1456.89,2160.64C1456.14,2160.7 1455.39,2160.8 1454.65,2160.93L1454.49,2161.13C1454.03,2161.18 1453.56,2161.22 1453.1,2161.28C1451.08,2161.81 1449.14,2162.65 1447.42,2163.91C1447.42,2163.91 1446.41,2163.8 1446.41,2163.8C1446.41,2163.8 1446.42,2163.78 1446.44,2163.74C1443.86,2166.98 1441.71,2170.59 1439.75,2174.15C1437.41,2178.35 1433.21,2181.08 1428.06,2182.11L1426.36,2182.35L1425.41,2181.69C1425.41,2181.69 1425.67,2180.82 1428.26,2180.28C1429.55,2180 1429.71,2179.95 1430.36,2179.75C1436.65,2177.9 1439.31,2170.45 1442.8,2165.6C1445.82,2161.38 1449.16,2156.91 1454.02,2155.16C1459.29,2153.26 1466.69,2153.4 1467.61,2148.63C1467.65,2148.44 1467.67,2148.24 1467.65,2148.04C1467.43,2145.63 1464.43,2145.65 1462.46,2145.63ZM1203.43,2205.12C1203.18,2205.87 1202.89,2206.61 1202.56,2207.34C1202.56,2207.34 1202.16,2207.59 1202.16,2207.59L1201.44,2207.14C1197.56,2212.73 1195.44,2219.52 1193.87,2225.87C1194.7,2225.62 1195.55,2225.44 1196.42,2225.45C1196.59,2225.45 1196.79,2225.46 1196.79,2225.46L1197.38,2226.1C1197.38,2226.1 1195.57,2226.68 1193.51,2227.31C1193.32,2228.1 1193.14,2228.88 1192.96,2229.64C1192.07,2233.52 1191.47,2237.44 1191.1,2241.38L1191.15,2241.33C1193.05,2241.5 1194.94,2241.66 1196.83,2241.83L1197.38,2242.48L1196.73,2243.02L1191.05,2242.53L1191,2242.47C1190.12,2252.99 1190.72,2263.69 1191.13,2274.37C1191.22,2276.95 1191.72,2279.73 1190.18,2281.55L1190.22,2281.53C1194.92,2284.11 1200.61,2280.96 1204.81,2278.81C1205.53,2278.44 1206.43,2278.04 1207.2,2277.71C1198.68,2264.16 1202.24,2245.44 1209.39,2232.83C1213.14,2226.22 1218.05,2220.18 1223.96,2215.52C1223.46,2215.47 1222.95,2215.44 1222.44,2215.44L1221.53,2214.59L1222.39,2213.68C1222.55,2213.67 1222.71,2213.66 1222.87,2213.66C1223.24,2213.64 1223.61,2213.63 1223.98,2213.63C1224.05,2213.63 1224.12,2213.63 1224.19,2213.64C1221.65,2211.41 1219.63,2208.57 1216.69,2207.04C1212.85,2205.03 1208.14,2205.31 1203.65,2205.31L1203.43,2205.12ZM1172.76,2201.56C1172.54,2201.77 1172.32,2201.98 1172.1,2202.19C1169.9,2204.25 1167.87,2205.86 1166.05,2209.76C1157.62,2227.92 1152.16,2248.03 1156.56,2269.08C1157.31,2270.46 1159.41,2274.24 1161.18,2276.13C1164.14,2279.28 1168.27,2280.91 1173.46,2279.63C1174.56,2279.37 1175.69,2279.18 1176.83,2279.32C1176.61,2279.12 1176.4,2278.9 1176.2,2278.66C1174.67,2276.77 1175.29,2273.67 1175.38,2270.88C1175.6,2265.33 1176.12,2259.79 1176.18,2254.2C1176.19,2253.84 1176.19,2253.84 1176.2,2253.48C1176.22,2252.91 1176.25,2252.33 1176.28,2251.76L1170.67,2252.7L1169.98,2252.2L1170.47,2251.51L1176.37,2250.53C1176.65,2247.1 1177.19,2243.7 1177.71,2240.28L1177.6,2240.39C1176.6,2240.39 1175.6,2240.37 1174.6,2240.36C1174.24,2240.36 1173.88,2240.36 1173.51,2240.36C1172.39,2240.37 1171.1,2240.43 1171.1,2240.43L1170.45,2239.88C1170.45,2239.88 1172.19,2239.09 1174.61,2239.09C1175.82,2239.1 1177.6,2239.12 1177.6,2239.12L1177.85,2239.37C1178.29,2236.47 1178.7,2233.57 1178.94,2230.63C1179.01,2229.85 1179.07,2229.07 1179.14,2228.28C1176.93,2227.82 1174.64,2227.83 1172.41,2228.25L1171.66,2227.73C1171.66,2227.73 1171.77,2227.04 1172.71,2226.89C1173.75,2226.72 1174.79,2226.64 1175.84,2226.64C1176.99,2226.65 1178.14,2226.76 1179.27,2226.99C1179.85,2221.36 1180.86,2215.73 1183.88,2210.82C1184.51,2209.8 1185.15,2208.78 1185.77,2207.75L1185.68,2207.13C1186.42,2205.95 1186.91,2204.82 1187.3,2203.49C1182.55,2203.2 1177.86,2201.06 1173.13,2201.84L1172.76,2201.56ZM1204.49,2185.38C1201.63,2185.2 1198.78,2184.95 1196.09,2184.97C1196.04,2185.44 1195.72,2185.91 1195.72,2185.91C1192.84,2190.22 1191.31,2194.88 1191.49,2201.27C1191.55,2204 1189.97,2206.53 1188.44,2208.84L1186.84,2209.34C1185.16,2212.26 1183.26,2215.11 1182.29,2218.81C1181.55,2221.62 1181.05,2224.47 1180.67,2227.33C1180.68,2227.33 1180.69,2227.33 1180.7,2227.34L1181.27,2228.18C1181.27,2228.18 1181,2228.35 1180.53,2228.41C1179.88,2233.66 1179.55,2238.97 1178.73,2244.22C1177.22,2253.95 1177.31,2263.93 1176.76,2273.79C1176.67,2275.6 1176.67,2277.51 1178.48,2278.58C1181.47,2280.37 1185.31,2279.98 1188.79,2279.96L1188.88,2280.03C1189.32,2278.75 1189.73,2277.05 1189.65,2275.29C1189.01,2259.36 1187.99,2243.3 1191.96,2227.61L1191.37,2227.31L1191.79,2226.52C1191.95,2226.47 1192.12,2226.42 1192.29,2226.36C1192.68,2224.9 1193.13,2223.43 1193.62,2221.97C1195.63,2216 1197.49,2209.64 1201.17,2204.98C1202.22,2202.32 1202.79,2199.47 1203.12,2196.66C1203.02,2192.79 1202.85,2188.78 1204.49,2185.38ZM1095.35,2251.72L1094.54,2252.76C1082.5,2254.34 1073.9,2265.52 1067.63,2274.7L1066.38,2274.95L1066.14,2273.7C1066.57,2273.05 1066.99,2272.41 1067.42,2271.77C1074.01,2262 1082.34,2252.47 1094.12,2250.93C1094.12,2250.93 1094.88,2251.36 1095.35,2251.72ZM976.264,2210.64L975.614,2211.68C960.981,2215.04 945.671,2217.14 932.617,2225.25L931.472,2224.99C931.472,2224.99 931.202,2224.18 932.298,2223.49C944.939,2215.7 960.529,2213.37 975.005,2210.04C975.005,2210.04 975.772,2210.34 976.264,2210.64ZM953.738,2149.06C954.132,2140.1 953.687,2131.08 952.711,2122.14C952.711,2122.14 952.702,2121.22 952.615,2119.94L953.321,2119.03C953.623,2119.27 953.925,2119.5 954.227,2119.74C954.227,2119.74 955.219,2126.28 955.562,2131.79C955.924,2137.58 955.992,2143.45 955.701,2149.31C978.724,2152.57 999.953,2164.27 1023.55,2167.02C1024.21,2167.09 1024.87,2167.2 1025.53,2167.28L1026.31,2168.21L1025.38,2168.98C1024.89,2168.95 1024.41,2168.92 1023.92,2168.88C1003.43,2167.34 985.316,2157.83 965.212,2152.95C962.03,2152.18 958.832,2151.49 955.609,2150.98C954.376,2171.1 948.85,2191.06 936.436,2207.52C932.283,2213.02 927.468,2218.01 922.179,2222.44L920.822,2222.33C920.822,2222.33 920.38,2221.45 921.658,2220.36C937.763,2206.54 948.295,2186.84 952.015,2165.34C952.854,2160.49 953.384,2155.6 953.657,2150.69C953.64,2150.69 953.623,2150.68 953.606,2150.68L952.614,2149.73C952.614,2149.73 953.255,2149.02 953.738,2149.06ZM1412.39,2210.75L1412.05,2211.53L1400.63,2215.96L1399.86,2215.62L1400.2,2214.85L1411.61,2210.41C1411.87,2210.52 1412.13,2210.63 1412.39,2210.75ZM1203.21,2213.54C1204.38,2213.56 1205.54,2213.73 1206.66,2214.05L1207.09,2214.79C1207.09,2214.79 1201.39,2214.81 1198.49,2215.46L1197.48,2215.09C1197.48,2215.09 1197.72,2214.36 1198.51,2214.16C1200.04,2213.77 1201.62,2213.53 1203.21,2213.54ZM1397.93,2194.85L1397.71,2195.75C1396.64,2196.42 1395.86,2196.91 1395.86,2196.91C1391.37,2199.63 1386.93,2202.41 1382.4,2205.04C1382.4,2205.04 1381.21,2205.71 1380.16,2206.29L1379.27,2206.06L1379.52,2205.17C1384.62,2202.09 1389.71,2199 1394.82,2195.91L1397.03,2194.62C1397.33,2194.7 1397.63,2194.77 1397.93,2194.85ZM1237.27,2139.61C1237.6,2142.23 1236.58,2144.84 1235.33,2147.3C1235.46,2147.41 1235.6,2147.52 1236.08,2147.92C1236.84,2148.56 1237.62,2149.2 1238.36,2149.86L1238.39,2149.85L1238.41,2149.91C1240.29,2151.6 1241.95,2153.49 1242.62,2156.14C1245.53,2167.62 1245.85,2180.17 1245.13,2192.1C1244.84,2196.89 1244.72,2201.76 1242.71,2206.25C1245.21,2206.29 1249.79,2206 1252.94,2203.68C1253.21,2199.59 1251.65,2190.81 1252.17,2183.57C1252.92,2173.14 1255.16,2162.21 1249.96,2152.7C1249.75,2152.31 1249.52,2151.94 1249.27,2151.57C1246.22,2146.99 1241.59,2143.92 1237.27,2139.61ZM1212.03,2181.78C1205.61,2181.92 1199.28,2182.34 1192.78,2182.31C1191.06,2182.31 1189.34,2182.35 1187.63,2182.53L1186.94,2182.04L1187.32,2182.42C1187.32,2182.42 1187.64,2188.38 1187.59,2192.15C1187.57,2193.2 1187.62,2194.52 1187.67,2195.43C1187.97,2195.41 1188.26,2195.39 1188.56,2195.4C1188.62,2195.4 1188.69,2195.4 1188.76,2195.4C1189.03,2194.01 1189.45,2192.64 1189.98,2191.32C1190.25,2189.27 1190.58,2187.16 1191.41,2185.39C1191.23,2185.42 1191.05,2185.46 1190.87,2185.5L1189.79,2184.85C1189.79,2184.85 1189.94,2183.89 1190.81,2183.68C1192.2,2183.38 1193.63,2183.27 1195.05,2183.28C1199.7,2183.31 1204.39,2183.24 1208.99,2183.67L1209.71,2183.91L1210.41,2184.76L1209.75,2185.2C1209.68,2185.97 1209.6,2186.73 1209.52,2187.5C1209.5,2187.74 1209.47,2187.99 1209.45,2188.24C1209.33,2189.86 1209.35,2191.92 1209.36,2192.43L1209.7,2192.86L1208.79,2193.59C1208.5,2193.56 1208.21,2193.53 1207.92,2193.51C1206.95,2193.43 1205.97,2193.37 1205,2193.42C1204.99,2193.95 1204.99,2194.48 1204.99,2195.02C1205.4,2194.95 1205.93,2194.9 1206.6,2194.9C1208.09,2194.92 1209.57,2195.03 1211.06,2195.09C1210.55,2191.3 1211.93,2186.78 1212.03,2181.78ZM1445.58,2185.08C1445.58,2185.08 1445.42,2185.8 1444.72,2186.1C1441.23,2187.61 1438.09,2189.94 1435.84,2193.01L1435,2193.15L1434.86,2192.3C1435.79,2191.02 1436.23,2190.52 1437.04,2189.72C1439.22,2187.57 1441.87,2185.92 1444.73,2184.76C1444.73,2184.76 1445.25,2184.94 1445.58,2185.08ZM1206.41,2185.49C1205.37,2187.37 1205.1,2189.5 1205.03,2191.75C1205.26,2191.73 1205.52,2191.71 1205.82,2191.72C1206.43,2191.73 1207.06,2191.77 1207.6,2191.81C1207.41,2189.74 1207.63,2187.64 1207.86,2185.55C1207.81,2185.55 1207.77,2185.55 1207.72,2185.54C1207.29,2185.53 1206.85,2185.51 1206.41,2185.49ZM1193.68,2185.08C1193.57,2185.09 1193.46,2185.1 1193.35,2185.11C1193.01,2185.6 1192.73,2186.12 1192.49,2186.68C1192.86,2186.13 1193.26,2185.6 1193.68,2185.08ZM1194.52,2185.32C1194.52,2185.32 1195.06,2185.8 1195.53,2185.53C1195.53,2185.53 1194.45,2185.16 1194.52,2185.32ZM1194.51,2185.02C1194.47,2185.02 1194.43,2185.03 1194.39,2185.03L1194.46,2185.19C1194.46,2185.19 1194.48,2185.13 1194.51,2185.02ZM1222.74,2142.51C1218.24,2146.27 1213.55,2149.7 1207.35,2150.27C1204.38,2154.75 1198.8,2166.83 1195.89,2175.23C1195.33,2176.87 1194.73,2179.33 1194.73,2179.33C1194.57,2179.75 1194.42,2180.34 1194.36,2180.56C1196.98,2180.6 1199.61,2180.7 1202.21,2180.6C1203.36,2180.55 1204.5,2180.48 1205.65,2180.41C1205.86,2174.55 1207.86,2168.92 1210.21,2163.46C1210.22,2163.41 1210.25,2163.28 1210.35,2163.14C1211.34,2160.84 1212.38,2158.58 1213.38,2156.34C1215.66,2151.26 1219.08,2146.78 1222.74,2142.51ZM1234.52,2148.83C1234.07,2149.68 1233.61,2150.51 1233.2,2151.32C1231.68,2154.41 1231.1,2157.95 1228.07,2160.28C1226.62,2161.4 1225,2162.15 1223.3,2162.68C1225.51,2162.56 1227.71,2162.24 1229.87,2161.47C1231.5,2160.89 1233.08,2159.98 1234.15,2158.6C1235.82,2156.47 1236.08,2153.6 1237.04,2151C1236.65,2150.63 1236.22,2150.27 1235.77,2149.91C1235.34,2149.57 1234.92,2149.21 1234.52,2148.83ZM1213,2162.35C1214.83,2162.2 1216.65,2162.07 1218.45,2161.83C1219.01,2161.76 1219.56,2161.67 1220.1,2161.57C1220.48,2161.5 1220.86,2161.43 1221.23,2161.34C1224.99,2160.49 1228.63,2158.52 1230.2,2154.23C1230.41,2153.63 1230.62,2153.01 1230.83,2152.41C1232.17,2148.67 1234.99,2145.48 1235.45,2141.38C1235.73,2138.88 1234.32,2136.04 1230.94,2136.07C1230.12,2136.56 1229.33,2137.09 1228.57,2137.68C1228.43,2137.79 1228.3,2137.89 1228.16,2138L1228.22,2138.93C1228,2139.21 1227.78,2139.49 1227.56,2139.77C1226.92,2140.6 1226.65,2140.94 1226.65,2140.94C1226.15,2141.5 1225.66,2142.07 1225.17,2142.63C1220.2,2148.4 1216.57,2154.62 1213,2162.35ZM1221.27,2153.72C1223,2154.34 1224.77,2154.88 1226.58,2155.25C1226.58,2155.25 1227.22,2156.18 1227.22,2156.18L1226.3,2156.79C1224.27,2156.38 1222.3,2155.77 1220.36,2155.05L1219.9,2154.05C1219.9,2154.05 1220.61,2153.48 1221.27,2153.72ZM1206.42,2135.7C1208.59,2138.25 1206.83,2143.15 1203.35,2144.51L1202.31,2144.11C1202.31,2144.11 1204.4,2141.93 1205.1,2140.64C1205.72,2139.5 1205.96,2138.06 1205.29,2136.88C1205.04,2136.45 1205.31,2135.55 1205.31,2135.55C1205.68,2135.6 1206.05,2135.65 1206.42,2135.7Z"/>
            </g>
        </g>
    </g>
</svg>
