<?xml version="1.0" encoding="UTF-8" standalone="no"?>
<!DOCTYPE svg PUBLIC "-//W3C//DTD SVG 1.1//EN" "http://www.w3.org/Graphics/SVG/1.1/DTD/svg11.dtd">
<svg width="100%" height="100%" viewBox="0 0 211 245" version="1.1" xmlns="http://www.w3.org/2000/svg" xmlns:xlink="http://www.w3.org/1999/xlink" xml:space="preserve" xmlns:serif="http://www.serif.com/" style="fill-rule:evenodd;clip-rule:evenodd;stroke-linejoin:round;stroke-miterlimit:2;">
    <g transform="matrix(1,0,0,1,-860.547,-2272.68)">
        <g transform="matrix(0.482813,0,0,0.380556,664,2257)">
            <g transform="matrix(2.0712,0,0,2.62774,-1375.28,-5930.8)">
                <path d="M971.522,2283.63C973.391,2282.47 975.609,2281.92 977.815,2281.93C982.187,2281.99 986.295,2284.07 990.672,2284.57C993.68,2284.91 996.76,2284.14 999.664,2284.86C1002.15,2285.48 1004.34,2287.02 1006.6,2288.32L1006.81,2288.44L1006.95,2288.94C1006.98,2288.93 1007.02,2288.93 1007.06,2288.94C1007.06,2288.94 1006.89,2288.6 1007.71,2289.49C1009.9,2292.01 1013.47,2292.38 1016.55,2292.96C1020.77,2293.78 1024.87,2295.18 1028.08,2298.36C1030.95,2301.21 1033.57,2304.31 1035.76,2307.7C1038.67,2312.12 1045.23,2313.54 1047.32,2319.05C1048.74,2322.79 1048.42,2326.93 1051.09,2330.33C1052.59,2332.25 1054.47,2333.88 1055.62,2335.97C1056.73,2338 1057.16,2340.32 1058.51,2342.24C1058.8,2342.64 1059.09,2343.04 1059.38,2343.45C1062.22,2347.51 1061.7,2352.93 1061.96,2357.71C1062.29,2363.68 1063.73,2369.77 1062.02,2375.54C1060.82,2379.58 1059.46,2383.71 1056.91,2387.04C1055.95,2388.29 1054.59,2389.35 1053.05,2389.74L1053.05,2389.76L1053.02,2389.75C1052.55,2389.87 1052.07,2389.93 1051.57,2389.91C1050.71,2391.18 1049.26,2392.85 1047.23,2393.48C1046.1,2393.84 1044.42,2393.71 1044.15,2393.66C1044.06,2393.64 1043.97,2393.63 1043.88,2393.6C1042.45,2393.28 1041.05,2392.77 1039.59,2392.65L1039.58,2392.65C1039.58,2392.66 1039.57,2392.66 1039.57,2392.66C1039.52,2392.82 1039.51,2392.89 1039.49,2393.03C1039.29,2394.58 1040.08,2396.03 1039.85,2397.81C1038.83,2405.22 1034.25,2411.85 1026.31,2414.3C1025.37,2414.59 1024.42,2414.84 1023.46,2415.05C1014.31,2417.08 1004.37,2417.22 995.885,2413.56C1005.39,2429.07 1008.7,2447.61 1010.92,2465.36C1012.27,2476.2 1012.59,2487.1 1013.41,2498.2C1013.8,2503.54 1014.08,2508.92 1013.6,2514.25L1013.5,2514.69L1013.14,2515.04L1012.82,2514.39C1012.84,2514.09 1012.87,2513.8 1012.89,2513.51C1013.67,2503.31 1012.18,2492.94 1011.71,2482.72C1011.07,2469.66 1009.33,2456.59 1006.74,2444.47C1004.36,2433.34 1000.45,2422.54 994.358,2412.85C991.54,2411.45 988.905,2409.6 986.542,2407.22C981.812,2402.45 980.285,2395.1 977.334,2389.12L977.133,2388.54L977.187,2388.35C976.812,2388.36 976.436,2388.38 976.059,2388.43C973.965,2388.67 971.985,2389.34 970.008,2390.03C974.713,2397.97 979.437,2406.03 984.18,2414.03C992.532,2428.16 1000.9,2442.61 1004.75,2458.62C1007.62,2470.54 1007.17,2482.93 1007.97,2495.09C1008.44,2502.27 1009.09,2509.38 1008.99,2516.66L1008.99,2517.06L1008.48,2517.52L1008.01,2517.03C1008.57,2507.75 1007.19,2498.21 1006.81,2489.06C1006.33,2477.13 1006.15,2465.08 1002.5,2453.77C1002.09,2452.49 1001.66,2451.22 1001.2,2449.96C993.542,2428.66 980.206,2409.74 969.355,2390.25C967.816,2390.79 966.271,2391.32 964.67,2391.64C958.144,2392.96 951.303,2393.71 944.862,2391.61C940.885,2390.31 937.623,2387.51 934.091,2385.55L933.531,2385.16L933.379,2384.7C932.08,2384.3 930.881,2383.82 929.84,2383.3C927.581,2382.18 925.641,2380.27 924.826,2377.86C924.014,2375.45 923.43,2373.14 922.046,2370.57C921.973,2370.43 921.9,2370.3 921.828,2370.16C921.201,2368.94 920.65,2367.67 920.489,2366.32C920.246,2364.29 920.825,2362.24 921.41,2360.21C915.813,2366.17 904.489,2366.02 899.921,2358.73C897.515,2354.89 897.315,2349.85 894.464,2346C892.745,2343.7 891.243,2341.15 891.171,2338.34C891.096,2335.48 891.956,2332.54 893.855,2330.39C892.06,2330.54 890.157,2328.82 890.462,2326.46C890.767,2324.11 892.179,2322.04 893.391,2319.89C896.447,2314.49 900.347,2309.64 905.379,2305.9C905.527,2305.78 905.527,2305.78 905.674,2305.67C908.825,2303.12 910.931,2299.41 914.311,2297.17C917.22,2295.25 920.74,2294.46 923.752,2292.79C927.22,2290.87 930.19,2288.05 933.891,2286.64C939.005,2284.7 944.752,2285.05 950.119,2284.48C953.791,2284.09 956.83,2281.94 960.956,2281.95C963.002,2281.97 965.035,2282.37 966.949,2283.1L967.107,2283.16L967.245,2283.48C967.845,2283.42 968.443,2283.4 969.025,2283.4C969.861,2283.4 970.704,2283.47 971.522,2283.63ZM879.18,2434.07C875.303,2433.54 871.837,2431.51 871.396,2428.28C870.719,2423.32 878.435,2418.76 867.843,2414.23C864.437,2412.77 860.546,2411 860.547,2407.45C860.549,2403.18 863.257,2399.22 864.714,2395.65C868.38,2386.74 874.348,2378.62 875.837,2369.1C876.751,2363.26 872.372,2357.72 871.931,2351.71C871.645,2347.83 872.734,2344.02 873.529,2340.23L874.374,2336.78C882.28,2319.48 892.062,2302.1 907.489,2291.54C926.616,2278.46 950.527,2272.91 973.909,2272.68C974.404,2272.68 974.898,2272.68 975.393,2272.68C999.047,2272.78 1023.15,2279 1041.46,2293.69C1052.24,2302.34 1060.62,2313.83 1065.57,2326.94C1075.25,2352.6 1072.46,2381.97 1061.44,2406.54C1055.44,2419.9 1043.58,2429.95 1037.88,2443.98C1032.35,2457.58 1032.35,2473.06 1033.3,2488.21C1033.79,2496.08 1034.78,2503.94 1036.59,2511.55C1036.94,2512.98 1037.57,2514.77 1037.57,2514.77L1037.23,2515.57C1037.23,2515.57 1036.5,2515.42 1036.21,2514.7C1032.76,2505.77 1032.38,2496.7 1031.84,2487.61C1030.83,2470.46 1030.96,2452.1 1039.12,2438.36C1046.76,2425.49 1057.11,2414.5 1062.59,2400.17C1077.42,2361.34 1070.55,2312.52 1032.42,2288.95C1005.08,2272.03 970.243,2270.5 940.071,2278.57C921.606,2283.5 904.234,2292.44 892.264,2308.01C885.55,2316.74 880.483,2326.63 875.876,2336.67L875.626,2337.22L874.902,2340.1C873.961,2344.72 872.527,2349.38 873.623,2354.03C874.992,2359.83 878.396,2364.97 876.614,2371.55C874.082,2380.9 868.502,2389.42 865.03,2398.36C864.378,2399.99 863.553,2401.55 862.885,2403.17C862.728,2403.55 862.579,2403.93 862.444,2404.32C862.332,2404.64 862.23,2404.97 862.141,2405.3C861.561,2407.43 862.074,2409.75 864.162,2411.06C868.016,2413.49 873.832,2413.89 874.512,2418.69C875.046,2422.46 871.448,2425.9 872.926,2429.12C874.756,2433.11 881.62,2433.79 885.587,2432.15L886.572,2432.38C886.572,2432.38 886.56,2432.55 886.497,2432.74C886.523,2432.75 886.548,2432.76 886.572,2432.78C886.572,2432.78 886.421,2433.51 885.912,2433.69C881.841,2435.1 877.042,2435.11 873.582,2437.64C871.54,2439.12 873.606,2442.47 875.252,2444.53C876.944,2446.65 878.914,2448.72 878.847,2451.43C878.776,2454.32 877.061,2456.81 876.396,2459.72C875.18,2465.04 875.274,2471.14 879.078,2474.68C883.639,2478.92 890.517,2478.79 896.255,2478.63C902.206,2478.46 908.099,2477.47 914.013,2476.76C919.783,2476.09 926.246,2477.27 929.087,2483.03C931.36,2487.63 930.943,2493.16 931.49,2497.75C931.776,2500.16 932.064,2502.56 932.355,2504.95C932.355,2504.95 932.815,2507.8 933.245,2509.96C933.556,2511.52 934.057,2513.85 934.057,2513.85L933.728,2514.91C933.728,2514.91 932.71,2515.45 932.71,2515.45L931.621,2515.14C931.621,2515.14 931.074,2514.25 931.073,2514.16C931.067,2512.9 931.068,2512.52 931.04,2511.36C930.867,2504.37 929.793,2497.43 929.184,2490.49C928.717,2485.44 926.859,2480.14 921.465,2478.56C916.882,2477.22 911.975,2478.57 907.519,2479.13C899.473,2480.12 891.23,2481.2 883.434,2478.66C878.98,2477.21 875.309,2473.33 874.541,2468.58C873.753,2463.69 875.133,2458.72 876.889,2454.01C878.969,2448.34 869.408,2443.13 871.452,2438.12C872.518,2435.51 876.112,2434.74 879.18,2434.07ZM978.271,2388.36C981.747,2394.52 982.701,2401.76 987.845,2406.72C989.683,2408.49 991.753,2409.92 993.983,2411.07L994.136,2411.1L994.358,2411.18C994.384,2411.22 994.411,2411.26 994.437,2411.3C1003.07,2415.53 1013.98,2415.53 1022.97,2413.95C1028.45,2412.99 1033.76,2410.37 1036.49,2405.44C1037.81,2403.03 1038.63,2400.3 1038.98,2397.52C1039.17,2396.03 1038.52,2394.55 1038.61,2393.12C1036.93,2393.65 1034.91,2393.05 1033.22,2392.57C1030.72,2391.84 1028.26,2391 1025.68,2391.01C1024.34,2391.02 1023,2391.09 1021.66,2391.04L1021.66,2391.03C1018.33,2391.1 1015,2391.88 1011.7,2391.51C1006.35,2390.9 1001.25,2388.24 995.688,2389.16C992.585,2389.68 989.563,2390.27 986.214,2389.7C983.564,2389.24 980.95,2388.47 978.271,2388.36ZM1006.54,2289.2L1006.35,2289.25C1006.13,2289.13 1005.91,2289.01 1005.7,2288.88C1003.62,2287.66 1001.56,2286.28 999.323,2285.75C995.886,2284.95 992.349,2286.04 988.595,2285.14C983.324,2283.87 977.833,2281.47 972.75,2283.93C973.866,2284.27 974.899,2284.8 975.756,2285.58C978.131,2287.73 979.142,2291.26 982.199,2292.74C982.209,2292.75 982.218,2292.75 982.227,2292.76C983.937,2292.11 985.276,2290.83 985.92,2289.21C986.027,2288.93 986.021,2289.09 986.196,2288.72C986.196,2288.72 986.37,2288.28 986.36,2287.91L986.645,2287.6C986.75,2287.69 986.855,2287.79 986.96,2287.88C986.973,2288.06 986.987,2288.23 987.004,2288.41C987.054,2288.88 987.148,2288.54 986.94,2289.56C986.753,2290.48 985.462,2292.33 983.639,2293.26C985.545,2293.77 987.621,2293.75 989.372,2294.6C990.488,2295.15 991.385,2296.03 992.308,2296.84C992.979,2297.42 993.09,2297.5 993.493,2297.76L993.717,2298.79L992.68,2299.02C991.844,2298.48 991.121,2297.78 990.374,2297.13C990.242,2297.01 990.242,2297.01 990.109,2296.9C987.232,2294.51 982.786,2295.59 979.747,2292.84C977.425,2290.73 976.276,2287.41 973.758,2285.87C971.122,2284.26 967.518,2284.29 964.794,2285.06C961.968,2285.87 959.703,2288.49 960.3,2292.14L959.55,2292.28C958.924,2295.29 957.274,2298.75 955.573,2301.94C952.198,2308.38 954.002,2315.82 951.639,2323.45C950.325,2327.79 954.673,2332.24 952.175,2336.01C952.175,2336.01 951.309,2336.29 951.309,2336.29C951.309,2336.29 951.202,2335.77 951.259,2335.54C951.259,2335.54 951.812,2334.53 951.916,2333.67C952.33,2330.29 949.435,2327.52 950.332,2323.77C950.747,2322.04 951.015,2320.31 951.217,2318.6C950.609,2318.07 949.877,2317.37 949.273,2316.61C944.77,2311.08 934.582,2313.17 929.609,2319.26C927.051,2322.39 925.569,2325.34 922.162,2326.62C922.059,2326.66 921.956,2326.7 921.852,2326.73C921.165,2326.96 920.459,2327.13 919.745,2327.24C919.066,2327.36 918.379,2327.41 917.69,2327.43C916.012,2327.46 914.313,2327.2 912.834,2326.49L912.646,2325.95C912.646,2325.95 913.062,2325.72 913.493,2325.91C917.649,2327.63 923.073,2325.76 925.699,2322.43C926.621,2321.26 927.586,2320.09 928.61,2318.97C928.302,2317.93 927.678,2316.16 926.763,2315.12C924.045,2312.02 919.682,2309.61 920.631,2305.37C920.631,2305.37 920.811,2304.49 921.453,2305.44C920.751,2309.95 926.498,2312.76 928.274,2315.02C928.954,2315.88 929.397,2316.92 929.523,2318.01C932.186,2315.3 935.251,2313.06 938.971,2312.26C938.166,2311.05 936.641,2308.29 937.415,2305.74C937.415,2305.74 937.666,2304.93 938.219,2305.94C937.649,2308 939.139,2310.02 939.778,2312.06L939.754,2312.12C940.293,2312.03 940.844,2311.98 941.41,2311.96C941.615,2311.95 941.819,2311.95 942.023,2311.95C945.772,2312.03 948.808,2314.36 951.359,2317.3C951.695,2313.99 951.857,2310.74 952.434,2307.62C952.235,2306.91 951.884,2305.87 951.414,2305.26C949.703,2303.05 945.296,2303.19 945.104,2300.13C945.104,2300.13 945.284,2298.97 946.047,2299.89C946.047,2299.89 947.583,2301.69 949.721,2302.79C951.038,2303.48 952.223,2304.59 952.778,2305.99C953.229,2304.12 953.871,2302.3 954.838,2300.55C955.913,2298.62 957.153,2296.67 957.951,2294.7C954.489,2295.23 950.927,2294 947.239,2294.11C943.955,2294.21 940.758,2294.32 937.508,2293.99C934.305,2293.7 931.394,2295.08 928.404,2297.25C927.462,2297.93 926.475,2298.59 925.406,2299.03C925.654,2299.07 925.901,2299.11 926.148,2299.15C926.164,2299.15 929.258,2299.21 929.258,2299.21C930.622,2299.29 929.589,2300.08 929.589,2300.08C927.077,2301.63 923.207,2299.15 919.758,2300.17C912.875,2302.2 910.001,2311.6 908.451,2317.02C907.949,2318.74 907.302,2320.45 906.077,2321.79C906.03,2321.85 905.425,2322.39 905.425,2322.39L904.74,2322.34C904.74,2322.34 906.367,2319.98 907.103,2317.84C908.644,2313.37 909.529,2308.85 912.905,2304.43C915.07,2301.59 917.716,2298.68 921.229,2298.57C921.353,2298.56 921.476,2298.56 921.6,2298.56C922.078,2298.57 922.553,2298.61 923.028,2298.66C924.398,2297.87 927.905,2295.83 930.685,2294.19C932.282,2293.25 934.12,2292.76 935.983,2292.77C937.36,2292.79 938.737,2292.87 940.119,2292.94C939.65,2292.04 939.816,2290.57 940.278,2289.11C940.436,2288.63 940.519,2288.64 940.519,2288.64L941.012,2288.32C941.102,2288.5 941.191,2288.67 941.281,2288.84C941.251,2289.68 941.182,2289.84 941.15,2290.11C941.064,2290.97 941.239,2291.8 941.611,2292.63L941.551,2293.01C943.071,2293.07 944.598,2293.1 946.138,2293.03C950.14,2292.84 954.207,2294.22 958.056,2293.61C958.056,2293.61 958.155,2293.76 958.228,2293.96C958.616,2292.83 958.833,2291.69 958.766,2290.55C958.63,2288.22 956.611,2285.92 956.611,2285.92C956.611,2285.92 956.843,2284.58 958.347,2286.03C958.992,2286.65 959.401,2287.41 959.619,2288.27C959.932,2287.36 960.453,2286.51 961.208,2285.82C962.467,2284.66 964.067,2284.02 965.732,2283.69C962.324,2282.62 958.606,2282.72 955.254,2284.01C953.159,2284.83 951.063,2285.45 948.638,2285.65C943.6,2286.05 938.414,2285.88 933.718,2287.84C929.979,2289.4 926.972,2292.34 923.302,2294.1C919.054,2296.15 914.489,2297.28 911.042,2301.11C909.13,2303.23 907.273,2305.34 904.934,2307.14C899.56,2311.3 895.545,2316.97 892.432,2323.02C891.471,2324.89 890.234,2327.19 891.665,2328.79C892.155,2329.34 892.89,2329.7 893.603,2329.72C892.719,2328.18 892.877,2326.26 894.905,2323.9C896.247,2322.29 895.588,2319.85 896.288,2317.94C897.411,2314.88 901.73,2314.23 904.573,2313.26L905.857,2313.6L905.315,2314.66C902.022,2315.96 897.636,2316.08 897.344,2320.15C897.275,2321.25 897.284,2322.37 896.832,2323.36C895.896,2325.42 892.556,2327 894.454,2329.57C894.522,2329.54 894.59,2329.51 894.655,2329.47L895.128,2329.54C895.128,2329.54 895.138,2329.83 894.878,2330.06C894.88,2330.06 894.881,2330.07 894.883,2330.07C895.494,2330.71 896.421,2331.4 897.765,2332.18C898.764,2332.75 900.25,2333.09 900.686,2333.18C901.611,2331.96 902.177,2330.33 901.493,2328.83C901.118,2328.01 900.446,2326.95 900.446,2326.95C900.446,2326.95 900.041,2326.18 901.223,2326.51C902.101,2328.05 903.147,2329.61 902.66,2331.45C901.836,2334.55 898.221,2336.01 897.874,2339.49C897.324,2345.01 902.489,2350.54 907.402,2352.71L907.718,2353.44C907.718,2353.44 907.157,2353.82 906.609,2353.61C899.242,2350.68 893.594,2341.43 898.792,2335.35C899.222,2334.85 899.673,2334.36 900.112,2333.87C900.192,2333.77 900.272,2333.68 900.352,2333.59C899.072,2333.51 896.661,2333.06 894.531,2330.9C892.107,2333.78 891.335,2338.12 892.704,2341.63C893.991,2344.93 896.712,2347.4 897.911,2351.02C899.085,2354.61 900.127,2358.47 903.044,2360.84C908.366,2365.15 917.344,2364.21 921.52,2358.57C921.52,2358.57 921.728,2358.27 921.951,2358.24C921.956,2358.23 921.96,2358.21 921.964,2358.19L922.267,2357.97C921.787,2357.95 921.289,2357.89 920.772,2357.8C916.726,2357.08 912.505,2356.63 910.007,2353.9C906.904,2350.51 909.731,2343.98 909.277,2339.4C909.021,2336.8 907.748,2334.43 906.357,2332.2L906.456,2331.02L907.519,2331.31C909.872,2334.71 911.278,2338.62 910.634,2342.91C910.115,2346.38 908.739,2350.13 910.845,2352.86C912.928,2355.56 916.675,2355.89 919.812,2356.59C921.391,2356.93 923.029,2357.21 924.648,2356.86C928.666,2356 931.331,2352.74 934.321,2349.77C929.478,2349.63 926.165,2344.36 923.795,2340.73C922.965,2339.48 922.077,2338.24 920.938,2337.24L920.695,2336.33C920.695,2336.33 921.211,2336.2 921.473,2336.31C921.473,2336.31 923.432,2338.02 924.649,2339.78C927.234,2343.54 929.09,2348.43 934.528,2348.68L935.005,2349.1C937.301,2346.92 939.854,2345.02 943.379,2344.57C943.581,2344.54 943.782,2344.52 943.984,2344.51C940.026,2341.26 938.58,2335.38 939.805,2330.44C940.272,2328.62 940.876,2326.8 940.725,2324.95C940.725,2324.95 941.619,2324.83 941.813,2324.85C942.171,2328.43 940.023,2331.75 940.506,2335.69C940.927,2339.13 942.663,2342.5 945.579,2344.36L945.601,2344.46C951.634,2344.59 957.794,2347.73 963.311,2343.93C967.133,2341.29 967.342,2334.52 963.147,2331.76C963.147,2331.76 962.142,2330.95 963.45,2330.75C963.45,2330.75 963.712,2330.68 963.802,2330.74C967.334,2333.01 968.145,2337.9 966.32,2341.68C969.695,2340.55 973.208,2340.05 976.738,2339.73C978.251,2338.43 981.28,2335.66 982.718,2333.21C982.718,2333.21 983.131,2332.52 983.431,2333.59C982.136,2335.98 980.226,2337.97 978.038,2339.62C981.523,2339.33 985.01,2339.17 988.388,2338.68C989.78,2338.49 991.173,2338.33 992.586,2338.34C993.932,2338.35 995.245,2338.74 996.539,2339.28C996.556,2339.16 996.626,2339.02 996.77,2338.82C997.102,2338.73 996.508,2338.92 997.858,2338.51C1004.12,2336.54 1005.99,2328.38 1010.49,2325.64C1010.49,2325.64 1011.02,2325.39 1011.73,2325.59C1011.73,2325.59 1009.26,2328.21 1008.13,2329.66C1004.97,2333.72 1002.38,2338.68 997.359,2339.64C997.359,2339.64 997.357,2339.64 997.353,2339.65C1001.48,2341.59 1005.42,2344.74 1009.6,2342.29C1009.6,2342.29 1010.5,2342.44 1010.5,2342.44C1010.5,2342.44 1009.5,2344.3 1006.87,2344.38C1001.99,2344.51 998.271,2340.14 993.679,2339.58C987.991,2338.89 982.258,2340.36 975.926,2340.93C975.735,2340.95 975.544,2340.97 975.352,2340.99C975.424,2341.05 975.502,2341.12 975.586,2341.2C975.604,2341.33 975.625,2341.46 975.648,2341.59C976.02,2343.48 977.044,2346.92 979.41,2349.94C980.136,2350.89 980.924,2352 980.711,2353.16L980.197,2353.61C980.197,2353.61 976.698,2348.3 975.597,2346.3C974.774,2344.77 974.249,2343.15 974.489,2341.23C974.489,2341.23 974.491,2341.16 974.507,2341.08C971.964,2341.39 969.437,2341.88 966.967,2342.39C966.306,2342.54 966.054,2342.45 965.988,2342.31C964.788,2344.37 962.744,2346.01 959.872,2346.54C953.62,2347.71 946.799,2343.81 940.455,2346.46C933.963,2349.18 930.937,2357.94 922.964,2357.99L923.221,2358.37C923.118,2358.88 922.992,2359.38 922.858,2359.88C922.311,2361.91 921.573,2363.97 921.717,2365.95C921.862,2367.94 922.981,2369.67 923.908,2371.39C924.374,2372.27 924.401,2372.34 924.587,2372.76C925.542,2374.91 925.619,2377.43 926.916,2379.34C930.119,2384.06 937.431,2384.15 942.006,2384.47C942.261,2384.48 942.559,2384.48 942.842,2384.48C940.706,2383.24 939.021,2381.47 938.6,2378.24C938.199,2375.18 939.738,2372.04 940.538,2369.34C940.538,2369.34 940.697,2369.03 940.838,2368.72C937.411,2367.73 935.025,2364.32 931.887,2362.99C931.887,2362.99 930.791,2362.57 932.115,2361.98C935.931,2363.45 937.693,2367.98 942.755,2367.89C946.952,2367.77 951.18,2367.29 954.932,2365.1C956.604,2364.15 958.492,2364.01 960.528,2364.07C958.544,2361.72 957.802,2358.49 957.333,2355.48L957.242,2354.72C957.172,2353.55 957.672,2353.93 958.002,2354.16C958.002,2354.16 958.634,2356.72 959.11,2358.59C959.652,2360.65 960.632,2362.61 962.201,2364.04L962.221,2364.16C965.192,2364.34 968.42,2364.59 971.713,2363.21C975.034,2361.78 978.577,2361.32 982.515,2361.59C986.554,2361.83 990.391,2359.28 993.717,2360.15C993.789,2360.16 993.86,2360.18 993.931,2360.2C995.419,2359.8 996.866,2359.14 997.933,2358C999.527,2356.29 1000.17,2353.95 1000.82,2351.76C1000.82,2351.76 1001.36,2350.14 1001.93,2351.57C1002.07,2352.47 1002.2,2351.37 1001.42,2353.83C1000.5,2356.75 998.828,2359.46 995.885,2360.82C1000.01,2362.27 1004.08,2364.28 1008.91,2361.57C1013.17,2359.18 1016.72,2355.72 1020.83,2352.77C1023.72,2350.68 1026.06,2348.15 1027.48,2344.46C1027.96,2343.25 1028.11,2342.94 1028.53,2342.25C1030.98,2338.2 1036.63,2335.29 1034.22,2330.24C1032.83,2327.32 1029.96,2325.2 1029,2322.01C1029,2322.01 1030.14,2321.36 1030.49,2321.53C1030.49,2321.53 1032.18,2324.42 1033.91,2326.64C1035.69,2328.96 1037.08,2331.77 1036.03,2334.76C1035.44,2336.46 1034.33,2337.83 1033.12,2339.18C1034.22,2341.19 1036.99,2341.69 1038.68,2343.34C1039.78,2344.4 1038.25,2344.26 1038.25,2344.26C1035.95,2343 1033.5,2342.22 1032.17,2340.24C1030.9,2341.66 1029.65,2343.14 1028.9,2345.02C1026.17,2351.84 1020.88,2354.12 1016.31,2357.71C1013.98,2359.54 1011.61,2361.58 1009.05,2362.97C1009.42,2363.31 1010,2363.84 1010.88,2364.68C1012.19,2365.92 1013.05,2368.34 1013.08,2368.58C1013.09,2368.7 1013.1,2368.81 1013.11,2368.92C1013.17,2370.49 1012.7,2372.04 1012.78,2373.58L1012.44,2374.26C1012.44,2374.26 1011.92,2373.84 1011.87,2373.38C1011.75,2372.14 1012.32,2371.46 1011.7,2368.81C1011.2,2366.62 1009.18,2365.26 1007.78,2363.76L1007.71,2363.62C1005.64,2364.52 1003.43,2364.92 1001,2364.41C997.04,2363.57 993.656,2360.15 989.429,2361.72C986.493,2362.81 983.353,2362.55 980.295,2362.59C980.252,2363.24 979.92,2368.88 981.072,2370.5C981.351,2370.89 981.709,2371.23 982.089,2371.52C982.089,2371.52 982.746,2371.99 981.629,2372.2C980.64,2371.6 979.619,2370.23 979.619,2370.23C978.789,2368.98 979.199,2365.43 979.136,2362.99C979.136,2362.99 979.185,2362.8 979.301,2362.61C977.589,2362.68 975.913,2362.91 974.323,2363.58C969.851,2365.46 964.722,2366.25 959.219,2365.62C958.164,2365.51 957.167,2365.76 956.127,2366.15L956.131,2366.17C956.074,2366.29 956.017,2366.41 955.966,2366.53C955.134,2368.39 955.635,2370.14 956.311,2372.97C956.982,2375.78 955.723,2374.59 955.723,2374.59C955.155,2371.99 953.021,2369.98 953.964,2367.08C952.896,2367.54 951.732,2368 950.39,2368.29C947.774,2368.86 945.084,2369.14 942.36,2368.98C942.244,2368.98 942.129,2368.97 942.015,2368.95C941.746,2372.56 939.61,2372.23 939.839,2377.85C940.047,2382.95 947.303,2384.76 951.014,2387.02C951.518,2387.33 952,2387.67 952.454,2388.05C952.454,2388.05 953.211,2388.7 951.805,2388.85C949.736,2387.21 946.935,2386.42 944.437,2385.29C944.303,2385.49 944.108,2385.7 943.863,2385.73C941.007,2386.1 938.01,2385.83 935.297,2385.21C939.709,2387.64 943.65,2390.66 948.947,2391.29C956.669,2392.22 964.608,2390.62 971.774,2388.24C973.451,2387.69 975.17,2387.25 976.924,2387.17C981.345,2386.97 985.639,2388.95 989.888,2388.84C993.057,2388.76 996.144,2387.62 999.351,2387.83C1003.96,2388.14 1008.26,2390.37 1012.8,2390.58C1016.02,2390.72 1019.21,2389.97 1022.43,2390.02L1022.61,2390.02L1022.87,2390.3C1026.27,2390.3 1029.59,2390.51 1033.24,2391.58C1033.65,2391.69 1034.06,2391.81 1034.47,2391.91C1036.04,2392.31 1038.11,2392.47 1039.03,2391.9L1039.14,2391.8C1039.15,2391.8 1039.16,2391.8 1039.18,2391.8C1039.38,2391.62 1039.5,2391.39 1039.5,2391.11C1039.98,2389.23 1037.9,2386.85 1036.07,2385.34C1034.07,2383.67 1031.72,2382.37 1030.24,2380.32C1030.24,2380.32 1030.3,2380.3 1030.37,2379.98C1030.37,2379.98 1030.39,2379.96 1030.43,2379.94C1027.41,2381.03 1024.22,2381.71 1020.98,2381.88C1021.36,2382.55 1021.67,2383.26 1021.84,2384.02C1021.84,2384.02 1021.71,2384.59 1021.71,2384.59C1021.74,2384.72 1021.75,2384.86 1021.77,2384.99C1021.89,2385.88 1021.89,2386.77 1021.68,2387.65C1021.68,2387.65 1021.59,2387.87 1021.5,2388.03L1021.09,2388.27C1021.09,2388.27 1021.2,2386.05 1020.89,2384.77L1020.54,2384.41C1020.25,2383.54 1019.87,2382.69 1019.37,2381.92C1017.09,2381.92 1014.79,2381.66 1012.51,2381.11C1008.9,2380.24 1005.44,2378.53 1001.78,2378.43C999.205,2378.35 996.686,2379.11 994.09,2379C992.638,2378.93 991.203,2378.68 989.767,2378.48C988.502,2378.3 987.22,2378.1 985.978,2378.29C982.818,2378.77 980.384,2381.41 976.95,2381.95C973.657,2382.47 970.295,2382.09 966.984,2382.27C962.891,2382.51 958.811,2383.36 954.745,2383.33L954.318,2383.3C953.949,2383.16 953.817,2383.14 953.674,2383.11L953.348,2382.78L953.884,2382.41C954.361,2382.25 954.351,2382.22 954.351,2382.22C954.609,2382.21 954.868,2382.19 955.126,2382.17C955.399,2382.15 955.671,2382.13 955.944,2382.1C959.897,2381.71 963.821,2381.08 967.768,2380.99C971.136,2380.91 974.558,2381.43 977.827,2380.54C981.299,2379.6 983.889,2376.77 988.092,2377.07C990.485,2377.24 992.847,2377.84 995.232,2377.72C996.364,2377.67 997.489,2377.49 998.615,2377.33C996.811,2376.01 995.547,2373.4 996.119,2370.36C996.168,2370.11 996.266,2369.79 996.266,2369.79L996.628,2369.56C996.703,2369.68 996.778,2369.8 996.852,2369.92C996.759,2370.36 996.805,2370.09 996.744,2370.76C996.578,2372.86 997.476,2374.91 999.332,2376.19C999.689,2376.5 1000.19,2376.9 1000.48,2377.13C1001.09,2377.08 1001.7,2377.07 1002.32,2377.12C1006.99,2377.45 1011.31,2379.84 1016.08,2380.38C1017.03,2380.49 1017.98,2380.55 1018.94,2380.57L1018.94,2380.25C1019.09,2380.26 1019.24,2380.27 1019.38,2380.28C1019.38,2380.28 1019.72,2380.22 1020.09,2380.58C1026.7,2380.48 1033.3,2378.34 1038.86,2374.58C1039.05,2374.62 1039.24,2374.65 1039.42,2374.68L1039.32,2375.24C1036.86,2377.01 1034.15,2378.5 1031.27,2379.62C1031.28,2379.63 1031.28,2379.63 1031.29,2379.64C1033.24,2382.11 1036.33,2383.5 1038.69,2386.01C1040.04,2387.45 1041.25,2389.39 1040.59,2391.42C1040.52,2391.62 1040.45,2391.78 1040.38,2391.9C1041.69,2392.11 1042.97,2392.53 1044.28,2392.57C1046.34,2392.62 1048.59,2391.48 1050.29,2389.47L1050.15,2389.24C1050.15,2389.24 1050.31,2388.99 1050.68,2388.98C1050.9,2388.68 1051.12,2388.37 1051.32,2388.03L1051.52,2387.8L1051.6,2387.78C1051.51,2387.38 1051.46,2386.97 1051.47,2386.56C1051.56,2383.25 1054.53,2380.69 1054.7,2377.07C1054.87,2373.48 1053.28,2370.03 1051.53,2366.7C1051.53,2366.7 1051.36,2365.88 1051.36,2365.88C1051.36,2365.88 1051.29,2365.75 1051.36,2365.68C1049.51,2365.72 1047.55,2365.44 1045.64,2364.93C1046,2368.14 1045.72,2371.68 1045.2,2374.17C1044.74,2376.33 1044.56,2376.82 1044.56,2376.82C1044.56,2376.82 1043.79,2375.78 1044.04,2374.26C1044.57,2371.1 1044.9,2367.55 1043.94,2363.73C1043.71,2362.83 1040.76,2358.98 1039.15,2356.14C1038.79,2356.44 1038.42,2356.72 1038.05,2357C1036.7,2358.05 1036.56,2358.19 1035.85,2358.97C1035.49,2359.35 1035.16,2359.75 1034.85,2360.16C1032.07,2363.88 1030.68,2368.99 1026.35,2370.99C1025.68,2371.29 1024.96,2371.51 1024.24,2371.66C1024.24,2371.66 1023.45,2371.82 1024.05,2370.85C1028.1,2369.85 1028.16,2368.9 1029.58,2366.89C1032.09,2363.35 1033.54,2359.32 1037.06,2355.87C1040.53,2352.45 1045.99,2349.99 1046.02,2344.24C1046.04,2341.33 1045.01,2338.62 1044.6,2335.46C1043.68,2328.76 1041.6,2321.79 1036.3,2317.64C1033.04,2315.09 1028.8,2315.16 1024.36,2315.6C1024.19,2315.61 1024.06,2315.62 1023.97,2315.61C1023.18,2317.69 1021.24,2319.23 1019.36,2320.26C1020.71,2323.84 1020.66,2328.11 1022.52,2331.49C1022.58,2331.6 1022.64,2331.71 1022.71,2331.82C1023.14,2332.51 1023.81,2333.17 1024.69,2333.17C1024.69,2333.17 1025.18,2333.61 1025.18,2333.61C1024.7,2334.1 1024.91,2333.83 1024.72,2334.12C1024.46,2334.13 1024.2,2334.1 1023.95,2334.04C1021.73,2333.46 1021.01,2330.89 1020.54,2329.02C1019.34,2324.25 1019.26,2318.41 1014.93,2316.41C1009.3,2313.81 1002.62,2318.06 998.503,2321.01C997.597,2321.65 996.585,2322.12 995.411,2322.32L995.063,2322.18C995.117,2322.18 995.361,2322.08 996.445,2321.39C996.445,2321.39 996.71,2321.26 996.979,2321.12C999.129,2319.93 1000.86,2318.1 1003.03,2316.92C1003.44,2316.7 1003.86,2316.49 1004.28,2316.3C1001.47,2314.33 1000.1,2310.24 1002.08,2307.01C1002.72,2305.95 1003.64,2305.07 1004.71,2304.46C1004.71,2304.46 1004.77,2304.42 1004.85,2304.44L1005.35,2304.55C1005.19,2305.12 1005.17,2305.11 1005.17,2305.11C1005.02,2305.2 1004.87,2305.3 1004.72,2305.41C1001.38,2307.78 1000.86,2313.17 1005.02,2315.73L1005.07,2315.95C1006.92,2315.19 1008.88,2314.71 1010.88,2314.68C1011.01,2314.67 1011.01,2314.67 1011.13,2314.67C1013.98,2314.71 1016.88,2315.88 1018.36,2318.22C1018.61,2318.62 1018.83,2319.03 1019.02,2319.46C1019.7,2319.08 1019.86,2318.96 1020.26,2318.67C1020.53,2318.48 1020.78,2318.28 1021.03,2318.07C1023.06,2316.32 1024.6,2313.37 1022.2,2310.29C1021.46,2309.34 1020.48,2308.55 1019.72,2307.56L1019.44,2307.08C1019.44,2307.08 1019.23,2306.75 1019.77,2306.86C1020.12,2307.32 1020.19,2307.34 1020.34,2307.52C1022.07,2309.55 1024.67,2311.29 1024.31,2314.29C1024.64,2314.25 1024.74,2314.22 1024.99,2314.18C1026.1,2313.99 1027.1,2313.62 1029.71,2313.58C1029.78,2313.58 1029.77,2313.58 1029.84,2313.58C1030.63,2313.61 1031.39,2313.72 1032.11,2313.9C1031.91,2313.54 1031.42,2312.62 1031.29,2311.9C1031.14,2311.05 1031.01,2310.3 1031.03,2309.31L1031.38,2308.8C1031.54,2308.93 1031.7,2309.05 1031.86,2309.18C1032.26,2310.33 1032.5,2311.27 1033.2,2312.95C1033.61,2313.86 1033.26,2313.2 1033.21,2313.94L1033.13,2314.21C1039.66,2316.51 1043.56,2324.59 1045.08,2330.21C1045.14,2330.4 1045.19,2330.59 1045.24,2330.78L1045.43,2330.87C1045.43,2330.87 1047.12,2333.51 1048.21,2334.87C1049.71,2336.74 1051.06,2337.78 1053.74,2340.22C1055.87,2342.19 1056.93,2345.19 1056.4,2348.1C1055.95,2350.6 1054.72,2352.96 1054.75,2355.48L1054.21,2356.23C1054.21,2356.23 1053.64,2355.88 1053.63,2355.4C1053.6,2351.25 1057.01,2347.03 1054.39,2342.95C1053.39,2341.45 1054.63,2342.66 1050.96,2340.19C1050.29,2339.74 1047.94,2337.76 1046.37,2335.66C1046.86,2338.11 1047.24,2340.59 1047.51,2343.07C1048.01,2347.75 1044.37,2351.8 1040.46,2355.08L1040.47,2355.08C1040.47,2355.08 1044.12,2359.05 1044.93,2361.52C1045.18,2362.27 1045.37,2363.09 1045.5,2363.94C1048.56,2364.76 1051.72,2365.08 1054.95,2364.34C1055.58,2364.19 1056.08,2364.14 1056.48,2364C1056.48,2364 1056.88,2363.83 1056.65,2364.39C1055.19,2365.21 1053.49,2365.6 1051.68,2365.67C1051.69,2365.68 1051.71,2365.68 1051.72,2365.68C1051.72,2365.68 1052.31,2366.26 1052.31,2366.26C1054.18,2369.57 1055.74,2373.33 1055.62,2376.92C1055.81,2376.63 1056.09,2376.19 1056.5,2375.54C1057.76,2373.52 1058.79,2371.34 1060.79,2369.91C1060.93,2369.81 1061.14,2369.76 1061.36,2369.8C1061.36,2369.8 1061.48,2369.95 1060.82,2370.47C1058.59,2372.23 1057.51,2375 1056.01,2377.57C1056.01,2377.57 1055.85,2377.77 1055.71,2377.92L1055.54,2377.95C1055.41,2378.95 1055.14,2379.92 1054.7,2380.87C1053.49,2383.44 1051.43,2386.02 1053,2388.81C1055.01,2388.08 1056.59,2385.93 1057.5,2384.19C1059.71,2379.93 1061.63,2375.29 1061.8,2370.83C1061.98,2366.12 1061.06,2361.41 1060.92,2356.69C1060.8,2352.36 1061.35,2347.86 1058.65,2343.96C1057.97,2342.99 1057.24,2342.05 1056.73,2340.99C1055.48,2338.4 1054.82,2335.85 1052.4,2333.26C1050.31,2331.03 1048.41,2328.57 1047.74,2325.62C1046.88,2321.82 1046.45,2317.84 1043.3,2315.14C1040.9,2313.07 1037.79,2311.75 1035.81,2309.41C1034.32,2307.65 1033.39,2305.59 1031.76,2303.67C1029.36,2300.86 1026.9,2297.92 1023.75,2296.27C1018.12,2293.32 1010.37,2294.92 1006.54,2289.62C1006.54,2289.62 1006.49,2289.53 1006.54,2289.2ZM967.732,2311.11C968.05,2309.5 968.591,2307.96 969.318,2306.59C970.954,2303.52 973.666,2300.45 972.052,2297.05C971.239,2295.34 969.912,2293.91 968.505,2292.64L968.461,2291.94C968.461,2291.94 969.043,2291.79 969.344,2292.05C971.713,2294.14 973.914,2296.84 973.667,2299.84C973.251,2304.88 968.483,2308.02 968.738,2314.77C968.84,2317.47 969.655,2320.23 971.475,2322.28L971.42,2323.22C971.42,2323.22 970.662,2323.4 970.209,2322.86C967.795,2319.93 967.064,2315.97 967.548,2312.24C966.913,2311.12 965.351,2308.53 963.671,2306.83C962.997,2306.14 961.909,2305.24 961.909,2305.24L961.837,2304.64C961.837,2304.64 962.359,2304.51 962.474,2304.59C964.712,2306.32 966.645,2308.52 967.732,2311.11ZM995.063,2322.18C995.045,2322.18 995.048,2322.18 995.048,2322.18L995.063,2322.18ZM993.5,2299.21C994.306,2298.2 995.021,2297.22 995.556,2296.23C996.749,2294.22 997.741,2292.01 999.89,2290.95C1001.88,2289.97 1004.28,2290.21 1006.51,2290.66L1006.72,2290.93L1006.42,2291.1C1003.21,2290.47 999.427,2290.64 997.489,2294.02C996.729,2295.35 996.033,2296.74 995.228,2298.13C997.82,2296.67 1000.71,2295.78 1003.64,2295.8C1008.17,2295.87 1012.22,2299.01 1016.62,2299.41C1018.53,2299.58 1020.5,2299.14 1022.31,2297.73L1022.65,2297.75C1022.65,2297.75 1022.84,2297.9 1022.12,2298.52C1020.22,2300.14 1017.46,2300.78 1014.71,2300.08C1011.52,2299.28 1008.62,2297.45 1005.38,2296.95C1001.48,2296.33 997.57,2297.91 994.038,2300.03C993.649,2300.6 993.228,2301.16 992.763,2301.71C992.176,2302.41 991.585,2303.1 991,2303.79C990.679,2304.18 990.36,2304.56 990.048,2304.95C987.955,2307.58 986.221,2310.57 986.114,2314.12C985.998,2316.67 984.765,2319.25 986.218,2321.32L986.143,2322.07C986.143,2322.07 985.519,2322.06 985.404,2321.9C983.735,2319.52 985.059,2316.01 985.126,2313.54C985.132,2313.39 985.132,2313.39 985.141,2313.23C985.21,2312.26 985.405,2311.33 985.698,2310.43C985.228,2310.19 984.256,2309.72 983.58,2309.52C982.482,2309.07 981.465,2308.75 980.297,2307.92C979.873,2307.62 979.369,2307.16 979.31,2307.05C978.91,2306.33 979.245,2306.4 979.492,2306.45C979.757,2306.75 979.813,2306.77 979.935,2306.89C980.938,2307.89 982.968,2308.23 982.968,2308.23C983.378,2308.37 983.96,2308.59 983.96,2308.59C984.641,2308.96 985.279,2309.47 985.818,2310.08C987.267,2306.03 990.662,2302.68 993.249,2299.52L993.308,2299.34C993.372,2299.3 993.436,2299.25 993.5,2299.21Z"/>
            </g>
        </g>
    </g>
</svg>
