<?xml version="1.0" encoding="UTF-8" standalone="no"?>
<!DOCTYPE svg PUBLIC "-//W3C//DTD SVG 1.1//EN" "http://www.w3.org/Graphics/SVG/1.1/DTD/svg11.dtd">
<svg width="100%" height="100%" viewBox="0 0 240 199" version="1.1" xmlns="http://www.w3.org/2000/svg" xmlns:xlink="http://www.w3.org/1999/xlink" xml:space="preserve" xmlns:serif="http://www.serif.com/" style="fill-rule:evenodd;clip-rule:evenodd;stroke-linejoin:round;stroke-miterlimit:2;">
    <g transform="matrix(1,0,0,1,-1004.21,-2161.33)">
        <g transform="matrix(0.192969,0,0,0.380556,1000,2135)">
            <g transform="matrix(5.18219,0,0,2.62774,-5182.19,-5610.22)">
                <path d="M1200.14,2181.28C1202.04,2180.47 1203.85,2179.44 1205.63,2178.37C1205.85,2178.23 1205.6,2178.39 1206.58,2177.83C1211.59,2174.9 1216.19,2171.32 1221.54,2168.97C1221.54,2168.97 1222.8,2168.45 1223.7,2168.1C1227.86,2166.48 1232.12,2165.03 1236.36,2163.7C1238.31,2163.08 1240.26,2162.33 1241.99,2161.33C1242.14,2161.36 1242.29,2161.38 1242.45,2161.41L1242.35,2161.87C1241.74,2162.34 1240.81,2162.92 1240.81,2162.92C1238.25,2164.25 1235.41,2164.93 1232.66,2165.8C1230.98,2166.34 1229.32,2166.94 1227.68,2167.59C1220.68,2170.36 1214.54,2174.18 1208.19,2178.31C1205.84,2179.82 1203.41,2181.29 1200.79,2182.35C1206.02,2191.49 1206.65,2203.54 1203.93,2213.55L1203.97,2213.51C1207,2211 1208.63,2210.95 1211.09,2210.97C1211.41,2210.97 1211.45,2210.95 1211.72,2210.95C1212.16,2210.94 1212.59,2210.94 1213.02,2210.95C1213.03,2210.95 1213.04,2210.95 1213.05,2210.95C1213.04,2210.88 1213.03,2210.81 1213.03,2210.74C1213.03,2210.74 1213.3,2210.43 1214.26,2210.58C1214.27,2210.67 1214.29,2210.77 1214.3,2210.86C1214.88,2210.83 1215.56,2210.87 1216.62,2211.2L1216.99,2211.55L1216.04,2211.96C1215.56,2211.94 1215.09,2211.92 1214.61,2211.9C1216.12,2215.77 1221.27,2217.85 1221.87,2222.46C1222.23,2225.21 1221.31,2228.1 1222.4,2230.5C1222.42,2230.57 1222.45,2230.63 1222.47,2230.7C1222.53,2230.86 1222.51,2230.87 1222.71,2231.32L1222.62,2231.78C1222.62,2231.78 1222.38,2232.11 1221.66,2231C1221.66,2231 1221.65,2230.98 1221.64,2230.94L1221.56,2231.08C1220.52,2233.07 1219.53,2235.1 1218.53,2237.12L1218.22,2237.76C1215.63,2242.65 1213.46,2247.8 1210.36,2252.4C1207.11,2257.23 1202.62,2261.03 1200.45,2266.53C1198.26,2272.07 1195.3,2277.32 1191.7,2282.27C1191.56,2282.46 1191.4,2282.66 1191.25,2282.85C1195.51,2282.68 1199.76,2282.56 1203.98,2282.61C1209.73,2282.7 1215.48,2283.23 1221.15,2284.21C1221.25,2283.92 1221.38,2283.61 1221.55,2283.31C1221.88,2282.74 1222.23,2282.18 1222.59,2281.63C1223.83,2279.77 1225.28,2278.07 1226.74,2276.37L1228.27,2274.5C1228.4,2274.35 1228.54,2274.2 1228.67,2274.04L1228.7,2273.93C1228.81,2273.82 1228.92,2273.71 1229.03,2273.61C1231.02,2271.21 1232.68,2268.64 1234.39,2265.89L1234.37,2265.79C1233.38,2261.38 1229.31,2258.12 1226.25,2255.83C1223.26,2253.61 1220.21,2251.41 1217.55,2248.86C1217.07,2248.39 1216.98,2248.25 1216.74,2247.95C1216.08,2247.1 1215.49,2246.19 1215.02,2245.22C1215.02,2245.22 1215.98,2244.4 1216.12,2244.66C1216.19,2244.79 1216.26,2244.91 1216.34,2245.04C1217.16,2246.42 1218.26,2247.66 1219.31,2248.79L1219.37,2248.86C1222.65,2252.03 1226.66,2254.41 1229.99,2257.43C1230.17,2257.6 1230.17,2257.6 1230.35,2257.77C1232.46,2259.77 1234.29,2262.16 1235.08,2264.92C1235.82,2264.02 1236.74,2263.28 1237.86,2262.92C1237.86,2262.92 1237.94,2262.98 1237.99,2263.05L1238.24,2263.93C1238.33,2263.94 1238.28,2263.98 1238.29,2264C1238.49,2265.03 1238.38,2265.82 1237.63,2267.16C1236.81,2268.59 1235.58,2269.74 1234.31,2270.79C1234.31,2270.79 1232.78,2271.76 1231.18,2273.01C1230.13,2274.26 1229.03,2275.46 1227.88,2276.62C1227.88,2276.62 1226.28,2278.32 1225.07,2279.83C1223.92,2281.26 1222.88,2282.76 1222,2284.36C1227.92,2285.44 1233.75,2287.02 1239.41,2289.1C1240.12,2289.36 1240.82,2289.66 1241.52,2289.96C1242.22,2290.26 1243.13,2290.7 1243.13,2290.7L1243.31,2291.13L1242.87,2291.3C1242.47,2291.15 1242.8,2291.29 1241.46,2290.79C1241.15,2290.67 1240.83,2290.56 1240.52,2290.45C1239.96,2290.26 1239.41,2290.06 1238.86,2289.86C1233.23,2287.84 1227.37,2286.34 1221.41,2285.31C1221.34,2285.41 1221.3,2285.46 1221.3,2285.46L1220.85,2285.63C1220.85,2285.63 1220.87,2285.48 1220.9,2285.23C1217.48,2284.65 1214.02,2284.23 1210.55,2283.96C1203.73,2283.41 1196.85,2283.84 1189.93,2284.21L1189.67,2284.26L1189.66,2284.23C1187.87,2284.32 1186.08,2284.41 1184.29,2284.49C1180.83,2284.63 1177.38,2284.78 1173.92,2284.91L1173.43,2284.93C1168.26,2285.22 1163.06,2285.34 1157.87,2285.31C1157.87,2285.31 1157.83,2285.36 1157.59,2285.18C1156.35,2285.93 1155.11,2286.69 1153.88,2287.45C1156.53,2287.28 1159.2,2287.25 1161.84,2287.27L1162.43,2287.27L1163.11,2287.28C1172.36,2287.54 1181.71,2286.78 1191.03,2286.79C1199.05,2286.84 1207.19,2286.37 1215.64,2287.95C1219.49,2288.67 1223.34,2289.26 1227.14,2290.05C1228.37,2290.3 1229.58,2290.6 1230.77,2290.94C1232.1,2291.33 1232.09,2291.38 1232.09,2291.38L1232.11,2291.41C1232.7,2291.3 1233.3,2291.24 1233.9,2291.23C1234.04,2291.23 1234.04,2291.23 1234.17,2291.23C1236.51,2291.25 1238.81,2291.97 1240.79,2293.19C1241.68,2293.74 1242.78,2294.82 1242.78,2294.82L1242.82,2295.28L1242.35,2295.31C1240.8,2294.09 1241.11,2294.36 1239.64,2293.57C1235.2,2291.21 1229.29,2292.1 1225.76,2295.72C1224.29,2297.23 1223.82,2299.51 1223.69,2301.84C1223.81,2301.79 1223.95,2301.74 1224.12,2301.69C1224.13,2301.71 1224.14,2301.73 1224.15,2301.75C1224.6,2302.5 1224.84,2302.83 1225.78,2303.9C1227.42,2305.76 1230.88,2306.74 1233.17,2306.96C1233.63,2307.01 1234.1,2307.03 1234.56,2307.04C1235.61,2307.06 1236.67,2306.91 1237.69,2306.93C1237.69,2306.93 1238.35,2307.22 1238.35,2307.22L1238.24,2307.31C1238.26,2307.31 1238.28,2307.31 1238.3,2307.31L1238.61,2307.39C1238.65,2308.71 1238.41,2310.47 1238.33,2310.75C1237.51,2313.64 1235.95,2316.44 1233.16,2317.33C1231.11,2317.98 1228.43,2317.49 1226.51,2316.1C1226.97,2316.77 1227.49,2317.4 1228.1,2317.95C1231.05,2320.67 1235.03,2322.01 1238.73,2322.92C1240.05,2323.25 1241.4,2323.5 1242.76,2323.67C1242.76,2323.67 1242.98,2324.01 1242.98,2324.01L1242.91,2324.61L1242.66,2324.9C1236.27,2324.31 1229.5,2321.96 1225.93,2317.41C1225.91,2317.43 1225.88,2317.45 1225.86,2317.47C1222.5,2320.09 1217.83,2320.77 1213.61,2321.08C1208.5,2321.46 1203.16,2320.68 1198.71,2318.3C1198.41,2318.7 1198.05,2319.18 1197.7,2319.63C1194.86,2323.01 1191.92,2326.32 1188.69,2329.31C1186.81,2331.06 1184.45,2332.43 1181.99,2333.03C1183.14,2334.04 1184.66,2334.56 1186.11,2335.19C1186.92,2335.55 1187.07,2335.63 1187.53,2335.85C1188,2336.06 1188.47,2336.28 1188.94,2336.51C1199.29,2341.31 1211.54,2339.86 1221.72,2337.78C1225.08,2337.09 1228.42,2336.28 1231.75,2335.41L1233.12,2335.1L1233.96,2334.93L1234.01,2334.95C1236,2333.87 1237.95,2332.7 1239.87,2331.47C1240.78,2330.88 1241.73,2330.32 1242.53,2329.61C1242.68,2329.61 1242.84,2329.61 1243,2329.62L1242.98,2330.08C1242.57,2330.51 1242.53,2330.53 1242.33,2330.72C1242.14,2330.89 1241,2331.82 1239.99,2332.46C1233.47,2336.58 1226.37,2340.04 1219.15,2342.15C1218.52,2342.34 1217.57,2342.49 1217.57,2342.49C1217.27,2342.55 1216.97,2342.62 1216.67,2342.67C1216.2,2342.76 1215.73,2342.85 1215.26,2342.93C1206.86,2344.4 1198.03,2344.3 1189.84,2342.59C1189.35,2342.42 1188.86,2342.25 1188.37,2342.08C1185.59,2341.08 1182.88,2339.87 1180.34,2338.36C1180.34,2338.36 1174.42,2334.68 1172.55,2330.63L1172.61,2330.41C1170.55,2328.22 1169.51,2325.09 1170.07,2322.17C1171.24,2316.09 1174.85,2310.28 1180.53,2307.6C1182.82,2306.51 1185.51,2306.11 1188.11,2306.13C1188.71,2306.14 1189.32,2306.17 1189.92,2306.23C1190.17,2300.78 1195.25,2295.02 1201.97,2293.45C1205.29,2292.67 1208.97,2292.98 1211.9,2294.8C1215.94,2297.3 1219.05,2301.03 1222.42,2304.23C1222.5,2302.06 1222.82,2299.94 1223.34,2297.99C1223.79,2296.3 1225.04,2294.94 1226.42,2293.9C1227.72,2292.93 1229.19,2292.18 1230.74,2291.73C1230.52,2291.68 1230.23,2291.62 1229.86,2291.54C1221.95,2289.91 1214.01,2288.13 1206.22,2287.95C1191.89,2287.63 1177.87,2288.47 1163.61,2288.65C1163.61,2288.65 1161.22,2288.65 1159.45,2288.64C1156.96,2288.63 1154.48,2288.66 1152,2288.83L1151.85,2288.7C1148.37,2290.86 1144.89,2293.03 1141.38,2295.17L1140.89,2295.47C1137.44,2297.51 1133.95,2299.5 1130.44,2301.42C1130.44,2301.42 1130.17,2301.7 1129.84,2301.72C1128.05,2302.93 1126.19,2304.08 1124.74,2305.65C1124.58,2305.84 1124.44,2306.05 1124.34,2306.27C1124.27,2306.44 1124.21,2306.62 1124.18,2306.8C1123.9,2308.32 1125.91,2309.44 1127.61,2310.49C1128.47,2311.02 1129.28,2311.56 1130.37,2311.39C1133.49,2310.9 1136.44,2309.48 1139.59,2308.95C1143.1,2308.33 1146.8,2308.05 1150.25,2309.3C1154.53,2310.85 1157.97,2314.26 1160.18,2318.19C1160.77,2319.24 1161.56,2320.75 1161.56,2320.75C1163.35,2325.46 1165.58,2329.94 1168.16,2334.31C1170.37,2338.08 1173.79,2341.06 1177.28,2343.55C1180.63,2345.93 1184.38,2347.91 1188.54,2348.37C1188.54,2348.37 1191.07,2348.94 1193.08,2349.2C1200.06,2350.1 1207.14,2349.96 1214.21,2349.66C1224.02,2349.25 1233.8,2347.87 1242.46,2342.13L1242.92,2342.21L1242.83,2342.67C1242.61,2342.82 1242.4,2342.98 1242.18,2343.13C1232.4,2349.88 1220.54,2350.52 1209.18,2350.73C1202.21,2350.86 1195.21,2350.76 1188.37,2349.43C1188.37,2349.43 1187.32,2349.23 1186.6,2349.08C1180.39,2347.78 1174.98,2343.84 1170.45,2339.37C1168.3,2337.24 1166.87,2334.54 1165.36,2331.93C1165.17,2331.6 1165.17,2331.6 1164.98,2331.26C1163.21,2328.04 1161.74,2324.68 1160.44,2321.25C1158.73,2317.99 1156.77,2314.78 1153.87,2312.63C1149.68,2309.51 1144.16,2309.26 1138.56,2310.42C1135.89,2311.01 1133.25,2312.42 1130.31,2312.79C1127.72,2313.11 1124.95,2310.71 1123.42,2308.89C1122.35,2307.61 1122.85,2305.54 1124.32,2304.27C1125.51,2303.24 1126.78,2302.31 1128.08,2301.42C1116.29,2299.93 1104.31,2300.36 1092.26,2299.18C1092.26,2299.18 1089.93,2298.92 1088.54,2298.77C1088.24,2298.74 1087.94,2298.71 1087.64,2298.69C1086.27,2299.18 1084.88,2299.6 1083.46,2299.93C1074.56,2302.01 1065.29,2301.43 1056.28,2299.79C1055.54,2299.65 1054.67,2299.47 1054.23,2299.38C1050.31,2308.78 1046.36,2318.12 1041.91,2326.7C1040.03,2330.32 1038.47,2334.17 1036.8,2337.94C1034.38,2343.45 1031.97,2348.97 1029.55,2354.48L1028.51,2356.85L1027.84,2358.27L1027.59,2358.8L1027.25,2359.47L1026.94,2360.13L1026.5,2360.32C1026.5,2360.32 1026.39,2360.02 1026.34,2359.87L1026.61,2359.19L1026.88,2358.49L1027.1,2357.95L1027.68,2356.49C1031.82,2346.97 1035.93,2337.43 1040.16,2327.99C1040.39,2327.5 1040.62,2327.01 1040.86,2326.52C1041.01,2326.23 1041.01,2326.23 1041.14,2325.94C1046.66,2314.26 1051.65,2302.35 1056.67,2290.33C1058.22,2286.58 1059.75,2282.82 1061.43,2279.06C1062.09,2277.58 1062.68,2276.05 1062.93,2274.45C1062.79,2274.53 1062.64,2274.57 1062.64,2274.57C1062.25,2274.65 1061.86,2274.74 1061.47,2274.83C1060.47,2275.07 1059.11,2275.42 1059.11,2275.42C1058.6,2275.57 1057.91,2275.78 1057.91,2275.78C1055.84,2276.55 1053.61,2276.94 1051.53,2277.79C1051.53,2277.79 1050.58,2278.04 1049.62,2278.25L1049.49,2277.96C1049.47,2277.92 1049.47,2277.89 1049.46,2277.86L1049.23,2277.92L1048.64,2277.66C1041.75,2274.83 1035.65,2269.43 1030.68,2265.31C1028.21,2263.26 1025.77,2261.18 1023.36,2259.05C1022.95,2260.13 1022.18,2261.12 1021.52,2262.05L1020.53,2263.29C1020.39,2263.49 1020.24,2263.68 1020.1,2263.87C1018.08,2266.52 1015.99,2269.12 1013.88,2271.7C1013.88,2271.7 1012.88,2272.84 1012.15,2273.67C1009.76,2276.38 1007.46,2279.22 1005.47,2282.18C1004.93,2283 1005.14,2282.5 1004.77,2283.14L1004.34,2283.3C1004.34,2283.3 1004.05,2283.19 1004.33,2282.45L1004.7,2281.71C1006.92,2278.28 1009.7,2275.25 1012.14,2271.99L1012.78,2271.13C1015.03,2268.34 1017.29,2265.57 1019.43,2262.7C1019.43,2262.7 1020.15,2261.61 1020.53,2261.07C1021.19,2260.12 1022.02,2259.17 1022.34,2258.14C1020.51,2256.51 1018.69,2254.84 1016.88,2253.12L1016.99,2252.78L1017.09,2252.68L1016.83,2252.77C1016.83,2252.77 1016.67,2252.39 1016.72,2252.29C1017.87,2250.24 1020.19,2248.78 1022.21,2247.43C1025.29,2245.38 1029.75,2244.97 1033.52,2244.8C1033.73,2244.79 1033.93,2244.79 1034.14,2244.79C1033.8,2244.28 1034.31,2244.16 1034.55,2243.87C1034.86,2243.5 1035.21,2243.08 1035.21,2243.08C1035.24,2243.06 1035.67,2242.59 1035.7,2242.55C1037.46,2240.77 1039.2,2238.92 1040.93,2237.07C1040.93,2237.07 1041.81,2236.26 1042.24,2235.8C1042.38,2235.65 1042.52,2235.51 1042.65,2235.36C1043.88,2234.03 1045.04,2232.64 1046.16,2231.22L1046.44,2230.86C1046.68,2230.62 1046.76,2230.54 1046.76,2230.54L1047.47,2230.22C1047.49,2230.39 1047.5,2230.56 1047.51,2230.72C1047.18,2231.42 1047.15,2231.41 1047.15,2231.41C1046.45,2232.34 1045.72,2233.26 1044.97,2234.15C1044.31,2234.93 1043.65,2235.7 1042.98,2236.47L1041.88,2237.83C1040.16,2239.72 1038.25,2241.49 1036.71,2243.48L1036.23,2244.01C1035.97,2244.28 1035.66,2244.6 1035.41,2244.87C1040.46,2245.43 1045.35,2248.98 1050.02,2252.3C1057.05,2257.3 1063.81,2262.68 1071,2267.51C1071.51,2266.65 1072.01,2265.79 1072.58,2264.97C1072.79,2264.65 1072.84,2264.59 1073.05,2264.28C1073.36,2263.76 1073.67,2263.24 1073.98,2262.71C1075.33,2260.41 1076.62,2258.07 1077.94,2255.75L1079.19,2253.75C1080.84,2250.97 1082.49,2248.2 1084.31,2245.55L1084.86,2244.85L1085.17,2244.53L1085.65,2244.4C1085.67,2244.57 1085.68,2244.73 1085.7,2244.9C1085.2,2245.88 1085.18,2245.87 1085.18,2245.87C1084.92,2246.26 1084.66,2246.64 1084.4,2247.03C1083,2249.16 1081.69,2251.36 1080.44,2253.58L1080.07,2254.25C1078.02,2258.24 1075.66,2262 1073.53,2266.01C1073.07,2266.76 1072.59,2267.5 1072.09,2268.23C1073.35,2269.06 1074.62,2269.88 1075.91,2270.67C1076.58,2271.08 1077.26,2271.47 1077.95,2271.84L1081.02,2273.68C1088.54,2272.11 1094.61,2266.12 1101.31,2262.25C1102.56,2261.53 1103.81,2260.81 1105.06,2260.09C1108.38,2258.2 1111.7,2256.32 1115.04,2254.46L1116.28,2253.76L1116.9,2253.42C1122.4,2250.29 1127.96,2247.24 1133.54,2244.23L1135.06,2243.41L1139.59,2240.97C1139.35,2240.6 1139.11,2240.22 1138.87,2239.85C1138.87,2239.85 1138.03,2239.21 1138.93,2238.27C1141.09,2235.98 1141.57,2232.66 1140.12,2229.49C1139.89,2228.99 1139.66,2228.5 1139.42,2228C1135.6,2219.98 1130.82,2212.02 1130.75,2203.1C1130.68,2194.54 1134.13,2186 1139.32,2179.26C1140.52,2177.71 1141.91,2176.32 1143.45,2175.11C1143.74,2174.83 1144.02,2174.56 1144.31,2174.29C1144.42,2174.19 1144.42,2174.19 1144.53,2174.09C1150.98,2168.41 1159.17,2164.85 1167.86,2164.75C1168.01,2164.75 1168.15,2164.75 1168.3,2164.75C1177.83,2164.82 1187.13,2168.67 1194.57,2174.86C1194.98,2175.19 1195.37,2175.55 1195.76,2175.91C1197.45,2177.51 1198.91,2179.32 1200.14,2181.28ZM1175.12,2332.33C1177.34,2335.08 1180.61,2337.09 1183.57,2338.7C1184.47,2339.18 1184.91,2339.37 1185.61,2339.67C1186.46,2340.04 1187.33,2340.39 1188.21,2340.71C1188.6,2340.86 1189,2341 1189.4,2341.14C1190.89,2341.66 1192.46,2341.84 1194.03,2342.04C1201.87,2343.04 1210.01,2342.99 1217.44,2341.51C1218.12,2341.46 1218.4,2341.35 1218.88,2341.21C1222.99,2340.05 1227,2338.47 1230.88,2336.57C1223.78,2338.47 1216.67,2340.09 1209.14,2340.68C1200.31,2341.38 1191.18,2339.04 1184.05,2335.76C1182.91,2335.23 1181.77,2334.61 1180.9,2333.7L1180.93,2333.24C1178.96,2333.53 1176.96,2333.3 1175.12,2332.33ZM1189.95,2307.47C1189.84,2307.47 1189.73,2307.46 1189.62,2307.45C1185.87,2307.25 1182.06,2307.95 1178.85,2310.03C1175.89,2311.96 1173.92,2315.09 1172.58,2318.39C1171.55,2320.91 1170.68,2323.6 1171.5,2326.17C1172.93,2330.61 1178.09,2333.56 1182.67,2332.1C1186.11,2331 1188.62,2328.19 1191.19,2325.52C1193.56,2323.05 1195.8,2320.43 1198.04,2317.93C1195.12,2316.23 1192.63,2313.81 1190.88,2310.55C1190.36,2309.58 1190.06,2308.54 1189.95,2307.47ZM1222.41,2305.91C1218.6,2302.57 1215.42,2298.53 1211.05,2295.74C1204.34,2291.46 1191.67,2296.99 1191,2306.09L1191.11,2306.18C1192.02,2306.85 1193.28,2307.78 1193.28,2307.78C1195.16,2309.02 1197.26,2309.87 1199.38,2310.61C1199.38,2310.61 1202.45,2311.34 1204.93,2311.27C1205.43,2311.25 1205.44,2311.34 1205.44,2311.34L1205.94,2311.65C1206.05,2311.58 1206.8,2311.15 1205.93,2313.36C1205.47,2314.54 1205.26,2314.62 1204.94,2315.06C1204.61,2315.51 1204.24,2315.91 1203.82,2316.27C1202.77,2317.18 1201.29,2317.72 1199.81,2317.78C1204.72,2320.17 1210.75,2320.59 1216.39,2319.87C1218.39,2319.61 1220.4,2319.22 1222.27,2318.49C1222.87,2318.26 1223.46,2318.01 1224.03,2317.73C1224.54,2317.47 1225.15,2317.09 1225.52,2316.85C1225.19,2316.39 1224.9,2315.9 1224.64,2315.38C1223.18,2312.47 1222.5,2309.18 1222.41,2305.91ZM1191.08,2307.82C1191.52,2310.28 1193.21,2312.63 1195.11,2314.5C1196,2315.37 1196.97,2316.13 1198,2316.78L1198.08,2316.75C1198.51,2316.77 1198.18,2316.76 1198.89,2316.84C1201.04,2317.04 1203.41,2315.74 1204.53,2313.35C1204.53,2313.35 1204.74,2312.59 1204.78,2312.46C1204.81,2312.39 1204.83,2312.32 1204.85,2312.24C1204.86,2312.22 1204.87,2312.2 1204.87,2312.17C1201.46,2312.72 1197.83,2311.51 1195.18,2310.26C1194.31,2309.85 1193.47,2309.37 1192.66,2308.85L1191.46,2308.12C1191.31,2308 1191.19,2307.9 1191.08,2307.82ZM1223.65,2303.34C1223.65,2304.1 1223.68,2304.86 1223.7,2305.57C1223.79,2308.1 1224.13,2310.71 1224.98,2313.04L1224.98,2313.04C1225.89,2314.22 1226.1,2314.48 1226.57,2314.89C1227.74,2315.93 1229.29,2316.57 1230.87,2316.57C1233.82,2316.58 1236.12,2314.1 1236.91,2311.16C1236.91,2311.16 1237.15,2309.79 1237.26,2308.83C1237.3,2308.49 1237.33,2308.08 1237.35,2307.78C1236.02,2307.93 1232.38,2307.91 1230.37,2307.58L1230.28,2307.56C1228.31,2307.08 1226.43,2306.17 1224.94,2304.81C1224.73,2304.61 1224.17,2304.06 1223.65,2303.34ZM1114.81,2280.22C1113.6,2281.89 1112.48,2283.67 1111.32,2285.41C1110.71,2286.33 1110.1,2287.25 1109.53,2288.2C1109.53,2288.2 1109.43,2288.57 1109.13,2288.7C1102.22,2291.26 1095.97,2295.39 1089.23,2298.08C1090.06,2298.12 1090.89,2298.18 1091.72,2298.24C1091.72,2298.24 1095.36,2298.59 1097.76,2298.68C1108.38,2299.07 1119.04,2299.2 1129.74,2300.64L1129.74,2300.64C1129.82,2300.6 1133.19,2298.74 1136.08,2297C1142.52,2293.11 1148.88,2289.06 1155.31,2285.12L1155.45,2285.04C1148.34,2284.33 1141.25,2282.88 1134.08,2282.51C1132.09,2284 1129.02,2284.08 1127.6,2281.72C1127.6,2281.72 1126.13,2281.51 1124.69,2281.35C1121.62,2281 1118.54,2280.75 1115.46,2280.49L1115.1,2280.46C1114.97,2280.35 1114.88,2280.28 1114.81,2280.22ZM1140.26,2242.01C1132.89,2246.08 1125.53,2250.16 1118.14,2254.16L1117.5,2254.5C1111.87,2257.63 1106.26,2260.8 1100.68,2264.03C1100.4,2264.2 1100.4,2264.19 1100.13,2264.36C1094.03,2268.06 1088.56,2273.18 1081.7,2274.79C1081.32,2274.88 1081.07,2275.09 1080.6,2274.85L1077.34,2272.9C1076.62,2272.5 1076.58,2272.47 1076.31,2272.32C1074.64,2271.34 1073.03,2270.28 1071.45,2269.16C1071.3,2269.31 1070.95,2269.45 1070.31,2268.63C1070.35,2268.56 1070.39,2268.5 1070.43,2268.43C1068.37,2266.94 1066.34,2265.38 1064.28,2263.85C1058.8,2259.83 1053.35,2255.77 1047.79,2251.87C1043.49,2248.89 1038.89,2245.5 1033.56,2245.72C1030.24,2245.86 1026.91,2246.53 1023.76,2247.66C1022.81,2248 1022.01,2248.67 1021.18,2249.27C1019.87,2250.22 1018.38,2251.2 1017.53,2252.28L1017.72,2252.21C1018,2252.45 1018.27,2252.7 1018.55,2252.94C1019.56,2253.83 1020.83,2254.95 1020.83,2254.95C1021.29,2255.37 1021.94,2255.96 1021.94,2255.96C1025.73,2259.68 1029.82,2263.07 1033.94,2266.39C1033.94,2266.39 1035.18,2267.43 1036.41,2268.44C1036.41,2268.44 1038.52,2270.08 1040.25,2271.31C1040.77,2271.68 1041.29,2272.05 1041.81,2272.41C1043.99,2273.9 1046.3,2275.18 1048.49,2276.64C1048.82,2276.86 1049.02,2276.99 1049.02,2276.99L1049.31,2277.19C1049.31,2277.15 1049.3,2277.1 1049.3,2277.05C1051.24,2276.42 1051.25,2276.46 1051.77,2276.37C1053.34,2275.93 1054.91,2275.45 1056.48,2275.02L1057.65,2274.8C1059.21,2274.42 1060.77,2274.02 1062.35,2273.71C1062.35,2273.71 1062.73,2273.67 1062.8,2273.68L1063.27,2273.87L1063.65,2273.45C1063.74,2273.55 1063.84,2273.66 1063.93,2273.77C1063.93,2273.77 1064.23,2274.06 1064.18,2274.51C1063.62,2278.72 1061.33,2282.39 1059.75,2286.24L1059.66,2286.46C1057.92,2290.52 1056.21,2294.64 1054.5,2298.74C1054.59,2298.76 1054.68,2298.77 1054.85,2298.79C1066.76,2300.38 1078.84,2301.54 1090.11,2296.77C1091.5,2296.17 1092.87,2295.51 1094.22,2294.82C1095.34,2294.24 1096.45,2293.64 1097.55,2293.02C1101,2291.09 1104.47,2289.19 1108.15,2287.77C1108.15,2287.77 1108.53,2287.49 1108.74,2287.14C1111.65,2282.44 1114.43,2277.27 1118.73,2274.14C1119.92,2273.27 1121.21,2272.53 1122.48,2271.76C1122.48,2271.76 1122.27,2270.14 1123.11,2269.16C1124.54,2267.49 1127,2267.46 1129.01,2267.43C1129.01,2267.43 1130.87,2266.21 1132.3,2265.05C1136.78,2261.4 1141.73,2258.42 1146.37,2254.95C1147.01,2254.47 1147.67,2254.01 1148.35,2253.57C1147.14,2252.11 1146.04,2250.55 1144.95,2249C1143.33,2246.71 1141.78,2244.37 1140.26,2242.01ZM1082.02,2282.4C1082.02,2282.4 1081.82,2282.23 1082.36,2282.26C1086.07,2282.53 1088.65,2287.42 1086.32,2290.71C1084.33,2293.5 1079.44,2293.88 1077.38,2290.23C1075.79,2287.42 1077.45,2283.26 1080.69,2282.52C1081.15,2282.41 1081.95,2282.58 1081.95,2282.58C1081.97,2282.52 1082,2282.46 1082.02,2282.4ZM1081.95,2282.71C1080.51,2282.97 1078.49,2283.85 1077.67,2285.55C1076.28,2288.46 1078.45,2292.75 1082.54,2292.22C1085.88,2291.79 1088.24,2287.23 1085.13,2284.27C1084.31,2283.49 1083.21,2283.02 1082.07,2282.97C1082.07,2282.97 1081.95,2282.48 1081.95,2282.71ZM1213.22,2211.88C1212.21,2211.88 1211.21,2211.94 1210.22,2212.17C1210.22,2212.17 1207.09,2212.78 1205.79,2213.82C1205.16,2214.32 1204.62,2214.7 1203.88,2215.26L1203.57,2215.11C1203.54,2215.07 1203.5,2215.03 1203.47,2214.99C1201.49,2220.48 1196.89,2225.22 1192.16,2228.8C1185.25,2234.03 1177.04,2237.37 1169.66,2242.01L1169.47,2242C1166,2244.29 1162.54,2246.6 1159.15,2249.02C1156.45,2250.95 1153.78,2252.92 1151.12,2254.9L1150.62,2255.27C1149.96,2255.69 1149.74,2255.15 1149.48,2254.86C1149.37,2254.75 1149.27,2254.63 1149.16,2254.52C1149.06,2254.58 1148.95,2254.65 1148.85,2254.72C1146.82,2256.1 1144.98,2257.73 1142.95,2259.13C1138.7,2262.05 1134.8,2265.13 1129.79,2268.42C1129.79,2268.42 1126.13,2268.79 1125.01,2269.29C1124.08,2269.7 1123.48,2270.78 1123.79,2271.9C1123.79,2271.9 1123.82,2272.38 1123.5,2272.59C1123.5,2272.59 1121.71,2273.64 1120.55,2274.39C1118.59,2275.66 1116.98,2277.36 1115.53,2279.25L1115.56,2279.25C1116.9,2279.35 1118.24,2279.44 1119.59,2279.54C1122.14,2279.74 1124.69,2279.96 1127.24,2280.27C1127.24,2280.27 1128,2280.32 1128,2280.32C1128.6,2280.37 1128.49,2280.54 1128.87,2281.16C1129.15,2281.58 1129.51,2281.97 1129.98,2282.18C1131.18,2282.72 1132.55,2282.07 1133.48,2281.36C1133.48,2281.36 1136.69,2281.42 1139.79,2281.78C1145.61,2282.46 1151.39,2283.47 1157.23,2283.97C1157.23,2283.97 1157.4,2284.04 1157.58,2284.16L1157.67,2284.07C1158.42,2284.06 1159.17,2284.05 1159.92,2284.04C1164.23,2283.95 1168.53,2283.79 1172.84,2283.71L1173.39,2283.7C1178.98,2283.49 1184.59,2283.14 1190.19,2282.9C1192.74,2278.83 1195.77,2274.94 1197.88,2270.39C1199.9,2266.05 1201.31,2261.68 1204.96,2257.27C1207.62,2254.07 1210.05,2250.77 1212.12,2246.95C1213.37,2244.64 1214.54,2242.28 1215.69,2239.92C1215.69,2239.92 1216.66,2237.8 1217.3,2236.51C1218.47,2234.14 1219.7,2231.79 1221,2229.48L1221.13,2229.44C1221.02,2228.99 1220.92,2228.49 1220.9,2228C1220.76,2225.12 1221.47,2222.18 1219.25,2219.39C1217.28,2216.91 1214.1,2215.35 1213.22,2211.88ZM1206.12,2273.47C1206.12,2273.47 1207.7,2275.46 1209.3,2276.53L1210.27,2277.1C1211.64,2278.1 1212.67,2279.46 1213.84,2280.64C1213.84,2280.64 1214.38,2281.33 1214.86,2282.12C1214.86,2282.12 1215.14,2282.35 1213.9,2282.93C1213.63,2282.58 1213.53,2282.49 1212.88,2281.62C1212.88,2281.62 1212.41,2280.89 1212.33,2280.8C1212.16,2280.6 1212,2280.4 1211.82,2280.2C1211.15,2279.45 1210.42,2278.75 1209.62,2278.13L1208.81,2277.41C1207.57,2276.48 1206.31,2275.55 1205.58,2274.19C1205.58,2274.19 1205.45,2273.64 1205.45,2273.64L1205.61,2273.19C1205.61,2273.19 1205.99,2273.31 1206.12,2273.47ZM1237.09,2264.75C1236.4,2265.26 1235.84,2265.92 1235.34,2266.65L1235.35,2267.22L1235.05,2267.59L1234.88,2267.35C1234.36,2268.21 1233.89,2269.13 1233.38,2270L1233.46,2269.92C1234.44,2269.09 1235.44,2268.21 1236.18,2267.15C1236.69,2266.42 1237.09,2265.89 1237.09,2264.75ZM1176.22,2170.5C1176.07,2170.45 1175.92,2170.4 1175.77,2170.36C1169.98,2168.67 1163.8,2168.63 1158.09,2169.7C1150.7,2171.08 1143.61,2174.63 1139.11,2181.12C1134.03,2188.46 1130.76,2197.41 1131.9,2206.27C1132.97,2214.53 1137.76,2221.97 1141.2,2229.44C1141.28,2229.6 1141.28,2229.6 1141.35,2229.76C1142.64,2232.87 1142.05,2236.53 1139.75,2239.03L1139.71,2239.07C1143.02,2244.18 1146.28,2249.48 1150.2,2253.85L1150.32,2253.97C1162.2,2245.07 1174.97,2237.13 1186.53,2228.87C1189.56,2226.69 1192.32,2224.14 1194.34,2220.8C1201.25,2209.32 1202.64,2194.35 1193.68,2182.96C1189.41,2177.52 1183.54,2173.36 1177.03,2171.07L1176.73,2170.79C1176.4,2170.52 1176.24,2170.46 1176.22,2170.5ZM1181.95,2233.63C1185.06,2231.93 1188.09,2230.17 1190.9,2228.18C1193.92,2226.04 1201.09,2220.06 1202.92,2212.53C1205.55,2201.71 1204.59,2189.71 1198.27,2180.55C1195.82,2177 1192.43,2174.18 1188.7,2171.88C1181.19,2167.24 1172.17,2164.72 1163.33,2166.03C1158.32,2166.77 1153.57,2168.8 1149.33,2171.54C1154.33,2169.23 1160.02,2168.13 1165.41,2168.13C1169.14,2168.16 1172.89,2168.66 1176.42,2169.88C1176.42,2169.88 1177.35,2169.87 1178.17,2170.16C1189.78,2174.43 1199.57,2184.49 1201.06,2196.88C1202.15,2205.96 1199.48,2215.49 1194.47,2222.88C1191.52,2227.23 1186.84,2230.16 1182.61,2233.16C1182.39,2233.32 1182.17,2233.48 1181.95,2233.63ZM1221.07,2212.43C1221.93,2212.96 1223.1,2213.68 1223.1,2213.68C1223.85,2214.18 1224.86,2214.92 1224.86,2214.92C1225.17,2215.14 1225.48,2215.35 1225.79,2215.56C1228.02,2217.11 1230.22,2218.74 1232.05,2220.78C1234.54,2223.57 1236,2227.43 1239.07,2229.79C1239.22,2229.9 1239.6,2230.25 1239.68,2230.33C1239.76,2230.4 1239.76,2230.4 1239.85,2230.46L1239.96,2230.92C1239.96,2230.92 1238.87,2230.8 1238.11,2230.18C1235.28,2227.88 1233.72,2224.29 1231.29,2221.75C1231.2,2221.65 1231.12,2221.56 1230.88,2221.3C1228.94,2219.29 1226.67,2217.64 1224.36,2216.08L1223.17,2215.37L1222.35,2214.84C1221.4,2214.18 1220.12,2213.29 1220.12,2213.29C1220.39,2212.37 1220.43,2212.56 1220.8,2212.26C1220.89,2212.31 1220.98,2212.37 1221.07,2212.43ZM1137.16,2210.67C1138.12,2209.88 1139.31,2209.26 1140.52,2208.8C1140.52,2208.8 1139.14,2204.81 1139.44,2200.79C1140.29,2189.46 1148.11,2178.93 1160.59,2175.2C1162.98,2174.49 1165.47,2174.12 1167.97,2174.08C1168.2,2174.08 1168.2,2174.08 1168.44,2174.08C1174.62,2174.16 1180.77,2176.54 1184.92,2181.39C1191.8,2189.41 1192.76,2201.77 1188.08,2210.73C1185.03,2216.55 1180.5,2221.61 1174.71,2224.6C1173.14,2225.41 1171.54,2226.15 1169.92,2226.85C1169.92,2226.85 1168.42,2227.47 1166.99,2227.83C1156.91,2230.39 1145.26,2227.27 1137.87,2219.92C1137.62,2219.66 1137.37,2219.4 1137.13,2219.13C1136.94,2218.91 1136.75,2218.69 1136.58,2218.46C1135.47,2217.01 1134.58,2215.08 1135.26,2213.23C1135.46,2212.69 1135.75,2212.19 1136.11,2211.74L1136.06,2211.73C1136.06,2211.73 1136.06,2211.36 1136.43,2211.12C1136.67,2210.97 1136.91,2210.82 1137.16,2210.67ZM1139.38,2210.31C1138.9,2210.57 1138.45,2210.87 1138.01,2211.22C1137.05,2211.98 1136.16,2212.95 1135.99,2214.16C1135.58,2216.97 1138.2,2219.08 1140.05,2220.62C1148.19,2227.36 1160.33,2229.9 1169.84,2225.61C1172.94,2224.19 1176.1,2222.79 1178.69,2220.64C1184.7,2215.64 1189,2208.46 1189.62,2200.91C1189.97,2196.66 1189.34,2192.32 1187.73,2188.36C1187.73,2188.36 1187.77,2188.2 1187.56,2188.27C1185.82,2188.83 1184.14,2189.57 1182.52,2190.43C1177.94,2192.84 1173.84,2196.17 1169.58,2199.13C1168.74,2199.96 1166.23,2202.44 1164.38,2204.28C1162.24,2206.37 1160.16,2208.5 1157.02,2209.21C1153.24,2210.07 1149.28,2209.83 1145.41,2209.47C1143.36,2209.29 1141.29,2209.59 1139.38,2210.31ZM1166.76,2200.99C1165.5,2201.78 1164.22,2202.51 1162.89,2203.15C1159.93,2204.59 1156.76,2205.49 1153.63,2206.55C1152.43,2206.97 1152.81,2206.88 1151.63,2207.24C1149.17,2207.95 1146.52,2208.21 1144.02,2208.73C1146.58,2208.71 1149.13,2209.3 1151.72,2209.2C1154.34,2209.1 1157.13,2208.89 1159.2,2207.72C1162.1,2206.1 1164.37,2203.48 1166.76,2200.99ZM1160.63,2176.53C1152.35,2179.14 1145.12,2185.69 1142.24,2193.74C1141.63,2195.45 1141.2,2197.23 1140.94,2199.03C1140.51,2202.01 1140.69,2205.04 1141.4,2207.98C1141.4,2207.98 1141.34,2208.51 1141.34,2208.51C1142.41,2208.17 1143.49,2207.89 1144.57,2207.64C1144.43,2207.06 1144.29,2206.45 1144.29,2206.45C1143.29,2199.8 1143.88,2192.76 1148.09,2186.87C1151.13,2182.62 1155.58,2179.5 1160.1,2176.81C1160.1,2176.81 1160.32,2176.69 1160.63,2176.53ZM1145.29,2207.49C1148.22,2206.85 1151.19,2206.39 1154.1,2205.41C1158.7,2203.89 1163.11,2202.27 1167.45,2199.33C1173.8,2195.04 1179.54,2189.9 1187.37,2187.62L1187.4,2187.61C1184.61,2181.36 1178.69,2176.54 1171.87,2175.57C1170.73,2175.41 1169.58,2175.33 1168.43,2175.32C1168.2,2175.32 1168.2,2175.32 1167.98,2175.32C1167.32,2175.33 1166.65,2175.36 1165.99,2175.43C1165.77,2175.53 1165.55,2175.63 1165.33,2175.73C1164.98,2175.89 1164.63,2176.05 1164.28,2176.22C1162.59,2177.03 1160.94,2177.88 1159.28,2178.77C1159.18,2178.83 1159.18,2178.83 1159.08,2178.89C1152.34,2182.89 1146.32,2188.86 1145.06,2197.09C1144.62,2200 1144.73,2202.97 1145.12,2205.89C1145.12,2205.89 1145.17,2206.27 1145.21,2206.68C1145.27,2207.31 1145.27,2207.31 1145.27,2207.31L1145.29,2207.49ZM1230.59,2177.85C1230.41,2178.81 1230.38,2178.81 1230.38,2178.81C1229.46,2181.48 1228.54,2184.15 1227.76,2186.86L1227.31,2188.72C1227.31,2188.72 1226.52,2191.61 1226.03,2193.89C1225.78,2195.02 1225.57,2196.15 1225.38,2197.29L1225.13,2199.4C1225.1,2199.6 1225.07,2199.8 1225.04,2200.01C1224.95,2200.63 1224.86,2201.26 1224.78,2201.89L1224.46,2201.95C1223.99,2201.91 1223.98,2201.94 1223.55,2201.77C1223.64,2200.32 1223.77,2198.88 1224.08,2197.48C1224.08,2197.48 1224.75,2193.71 1225.54,2190.62C1225.76,2189.78 1226.1,2188.61 1226.1,2188.61C1226.36,2187.82 1226.75,2186.74 1226.75,2186.74C1227.5,2184.37 1228.29,2182.02 1229.12,2179.67L1229.32,2179.12L1229.6,2178.37L1229.97,2177.64L1230.41,2177.38C1230.47,2177.54 1230.53,2177.7 1230.59,2177.85ZM1216.57,2180.77C1216.64,2180.94 1216.69,2180.5 1216.83,2181.71C1217.01,2183.27 1216.94,2184.86 1216.95,2186.44L1217.04,2187.72C1217.06,2189.37 1217.2,2191.05 1217.84,2192.57C1217.84,2192.57 1218.44,2193.74 1219.15,2194.67C1219.15,2194.67 1219.18,2194.99 1218.25,2195.53C1217.79,2195.05 1217.44,2194.66 1217.02,2193.87C1217.02,2193.87 1216.22,2192.03 1215.99,2190.39C1215.87,2189.54 1215.83,2188.68 1215.83,2187.82C1215.83,2187.82 1215.94,2186.55 1215.94,2186.55C1216.02,2184.66 1215.87,2182.89 1215.9,2181.12C1215.9,2181.12 1216.19,2180.48 1216.19,2180.48C1216.32,2180.58 1216.44,2180.68 1216.57,2180.77Z"/>
            </g>
        </g>
    </g>
</svg>
