<?xml version="1.0" encoding="UTF-8" standalone="no"?>
<!DOCTYPE svg PUBLIC "-//W3C//DTD SVG 1.1//EN" "http://www.w3.org/Graphics/SVG/1.1/DTD/svg11.dtd">
<svg width="100%" height="100%" viewBox="0 0 401 145" version="1.1" xmlns="http://www.w3.org/2000/svg" xmlns:xlink="http://www.w3.org/1999/xlink" xml:space="preserve" xmlns:serif="http://www.serif.com/" style="fill-rule:evenodd;clip-rule:evenodd;stroke-linejoin:round;stroke-miterlimit:2;">
    <g transform="matrix(1,0,0,1,-2918,-2936)">
        <g transform="matrix(1,0,0,1,2716,2551)">
            <g transform="matrix(-0.973865,-0.227126,0.227126,-0.973865,2737.08,3988.82)">
                <path d="M3232.76,2798.72C3237.66,2798.76 3242.52,2800.3 3246.63,2803C3258.26,2810.62 3264.91,2825.94 3260.76,2839.03C3259.25,2843.79 3256.35,2848.05 3252.73,2851.55L3252.31,2851.96L3250.89,2852.82C3222.57,2869.93 3193.89,2887.04 3165.66,2903.73C3131.99,2923.65 3098.72,2944.87 3062.74,2957.1C3053.51,2960.23 3044.02,2962.6 3034.65,2965.46C3021.71,2969.41 3008.78,2973.32 2996.04,2978.01C2991.28,2979.76 2986.75,2982.04 2982.16,2984.18C2960.47,2994.33 2938.75,3004.44 2917.27,3015.21C2916.1,3015.8 2914.93,3016.39 2913.76,3017L2913.65,3017.07L2904.42,3022.55L2904.03,3022.69C2901.14,3023.2 2897.63,3022.72 2896.41,3019.71C2895.51,3017.51 2896.24,3014.89 2897.22,3012.58C2897.23,3012.57 2897.79,3011.83 2897.79,3011.83C2898.05,3011.69 2898.3,3011.55 2898.55,3011.42C2916.46,3001.81 2933.85,2991.48 2950.68,2980.25C2978.49,2961.69 3003.57,2939.07 3028.56,2916.96C3033.27,2912.79 3037.92,2908.52 3042.85,2904.66C3056.9,2895.08 3071.48,2886.13 3086.04,2877.13C3108.69,2863.13 3131.42,2849.28 3154.47,2835.83C3157.29,2834.18 3160.1,2832.49 3163,2830.99L3163.12,2830.93L3211.19,2806.49C3214.73,2804.69 3218.27,2802.89 3221.81,2801.11C3225.18,2799.45 3228.99,2798.7 3232.76,2798.72ZM2919.82,3001C2912.78,3004.99 2905.68,3008.84 2898.52,3012.56C2898.52,3012.56 2898.27,3012.65 2898.14,3012.95C2897.05,3015.63 2896.08,3018.97 2898.52,3020.75C2899.95,3021.8 2901.97,3021.89 2903.8,3021.58C2903.8,3021.58 2913.03,3015.99 2913.03,3015.99C2916.85,3013.93 2920.7,3011.94 2924.57,3010C2922.88,3009.28 2921.72,3007.39 2921.14,3006.2C2921.14,3006.2 2920.89,3005.72 2920.6,3004.82C2920.55,3004.66 2920.32,3003.89 2920.14,3003.05L2919.87,3001.47C2919.86,3001.32 2919.84,3001.16 2919.82,3001ZM2925.2,3009.69C2932.06,3006.25 2938.98,3002.94 2945.88,2999.57C2960.59,2992.38 2975.33,2985.15 2990.13,2978.21C2996.97,2975 3004.22,2972.8 3011.4,2970.39C3024.51,2966 3037.59,2961.69 3050.94,2957.89C3084.47,2948.36 3114.63,2929.96 3144.6,2912.13C3178.85,2891.76 3212.9,2871.15 3246.96,2850.48L3248.53,2849.53L3249.83,2848.74C3254.29,2844.44 3257.41,2838.76 3257.88,2832.72C3258.4,2826 3256.06,2819.07 3252.09,2813.79C3247.45,2807.64 3240.64,2802.84 3232.73,2802.75C3232.64,2802.75 3232.56,2802.75 3232.48,2802.75C3229.42,2802.76 3226.33,2803.36 3223.59,2804.7C3203.93,2814.52 3184.31,2824.4 3164.71,2834.33C3158.31,2837.62 3152.18,2841.41 3145.95,2845.06C3114.12,2863.69 3082.43,2882.4 3051.4,2902.35C3049.28,2903.72 3047.16,2905.1 3045.06,2906.5L3044.76,2906.7C3044.05,2907.18 3044.06,2907.21 3043.84,2907.38C3036.62,2913.1 3029.8,2919.31 3022.85,2925.35C3002.08,2943.38 2981.08,2961.64 2958.57,2976.96C2946.15,2985.41 2933.36,2993.3 2920.33,3000.7L2920.34,3000.73C2920.97,3002.22 2921.67,3003.68 2922.36,3005.12C2922.49,3005.39 2922.76,3006.01 2922.92,3006.38C2923.13,3006.84 2922.77,3006.25 2923.53,3007.63C2923.96,3008.42 2924.46,3009.2 2925.2,3009.69ZM3143.88,2861.24C3144.77,2861.4 3145.69,2861.81 3146.46,2862.7C3146.46,2862.7 3151.42,2869.62 3153.9,2873.08L3157.92,2878.77L3159.19,2880.6C3159.64,2881.38 3159.89,2882.24 3159.92,2883.15C3159.92,2883.15 3159.87,2883.85 3159.61,2884.45C3159.19,2885.45 3158.33,2886.16 3157.34,2886.71L3151.84,2889.73C3147.82,2891.88 3143.81,2894.05 3139.78,2896.19C3130.03,2901.36 3124.4,2904.24 3114.63,2909.29L3112.02,2910.62C3111.7,2910.73 3111.62,2910.78 3111.28,2910.81C3110.68,2910.87 3110.06,2910.67 3109.61,2910.26C3109.38,2910.06 3109.35,2909.98 3109.18,2909.73L3102.38,2899.34L3097.42,2891.68L3097.22,2891.37C3096.58,2890.3 3097.18,2890.17 3097.81,2889.76L3111.14,2881.1C3116.85,2877.44 3122.56,2873.76 3128.29,2870.11C3134.56,2866.12 3136.35,2865.03 3141.62,2861.78L3142.13,2861.51C3142.69,2861.32 3142.7,2861.32 3143.28,2861.23C3143.48,2861.23 3143.68,2861.24 3143.88,2861.24ZM3098.02,2890.8L3110.84,2908.54L3155.85,2882.91L3143.37,2864.84C3128.25,2873.49 3113.14,2882.14 3098.02,2890.8ZM3118.61,2891.18C3119.75,2890.67 3120.78,2890.55 3121.72,2890.82C3122.64,2891.1 3123.39,2891.7 3123.96,2892.64C3124.38,2893.32 3124.59,2894.03 3124.61,2894.76C3124.63,2895.49 3124.43,2896.2 3124.01,2896.88C3123.58,2897.57 3122.92,2898.18 3122.02,2898.7C3121.24,2899.16 3120.41,2899.47 3119.54,2899.64C3118.67,2899.8 3117.86,2899.8 3117.13,2899.61L3117.03,2897.85C3117.64,2898.02 3118.31,2898.04 3119.03,2897.93C3119.76,2897.82 3120.45,2897.58 3121.11,2897.19C3121.92,2896.71 3122.44,2896.16 3122.67,2895.52C3122.89,2894.88 3122.81,2894.23 3122.41,2893.58C3122.01,2892.92 3121.48,2892.54 3120.81,2892.44C3120.14,2892.34 3119.36,2892.56 3118.45,2893.09L3117.57,2893.61L3116.85,2892.42L3117.38,2887.14L3112.11,2890.23L3111.22,2888.75L3118.44,2884.52L3119.14,2885.67L3118.61,2891.18ZM3128.12,2878.85L3128.82,2880L3130.9,2893.31L3129.24,2894.28L3127.27,2881.35L3122.26,2884.28L3123.55,2886.4L3122.05,2887.28L3119.87,2883.69L3128.12,2878.85ZM3136.98,2889.89C3136.69,2890.06 3136.37,2890.09 3136.03,2889.99C3135.69,2889.9 3135.41,2889.68 3135.21,2889.34C3135.01,2889.01 3134.95,2888.68 3135.02,2888.33C3135.1,2887.99 3135.28,2887.73 3135.57,2887.56C3135.87,2887.39 3136.18,2887.36 3136.5,2887.45C3136.83,2887.55 3137.1,2887.77 3137.31,2888.11C3137.51,2888.45 3137.58,2888.79 3137.51,2889.13C3137.44,2889.47 3137.26,2889.72 3136.98,2889.89ZM3138.23,2879.34C3139.8,2878.42 3141.14,2878.06 3142.26,2878.27C3143.39,2878.48 3144.28,2879.14 3144.96,2880.25C3145.38,2880.95 3145.61,2881.67 3145.64,2882.41C3145.67,2883.15 3145.48,2883.86 3145.05,2884.55C3144.63,2885.23 3143.96,2885.84 3143.06,2886.37C3142.28,2886.83 3141.46,2887.14 3140.59,2887.3C3139.71,2887.47 3138.91,2887.46 3138.16,2887.29L3138.07,2885.53C3138.68,2885.69 3139.34,2885.72 3140.07,2885.61C3140.79,2885.5 3141.48,2885.25 3142.12,2884.87C3142.95,2884.39 3143.47,2883.83 3143.7,2883.18C3143.92,2882.54 3143.83,2881.89 3143.43,2881.23C3143,2880.52 3142.42,2880.13 3141.7,2880.05C3140.98,2879.98 3140.01,2880.29 3138.8,2881L3136.31,2882.46L3133.13,2875.91L3139.3,2872.29L3140.2,2873.77L3135.34,2876.62L3137.01,2880.05L3138.23,2879.34ZM3175.34,2861.72L3175.48,2861.8L3180.6,2865.42C3184.27,2863.78 3187.67,2861.31 3190.18,2858.61C3190.39,2858.38 3190.66,2858.03 3190.66,2858.03C3188.9,2854.28 3186.47,2850.82 3183.93,2847.63C3183.58,2847.19 3183.02,2846.58 3183.02,2846.58C3182.93,2846.64 3182.85,2846.69 3182.76,2846.75C3179.11,2849.08 3175.22,2850.96 3171.67,2853.42C3171.33,2853.66 3170.84,2854.05 3170.84,2854.05C3170.99,2854.46 3170.99,2854.49 3171.03,2854.65C3171.18,2855.29 3171.23,2855.94 3171.21,2856.59C3171.21,2856.59 3171.08,2857.02 3171.08,2857.02C3171.03,2857.09 3171,2857.16 3170.78,2857.31C3168.97,2858.42 3167.15,2859.54 3165.33,2860.64C3165.33,2860.64 3164.96,2860.71 3164.96,2860.71L3164.65,2860.51L3164.58,2860.16L3164.89,2859.74L3164.68,2859.42L3169.36,2856.19C3169.26,2855.62 3169.13,2855.03 3168.79,2854.59C3168.79,2854.59 3168.5,2854.14 3168.59,2853.65C3168.82,2852.41 3170.03,2851.73 3170.95,2850.97C3171.89,2850.2 3172.85,2849.48 3173.81,2848.76C3173.87,2848.72 3174.33,2848.37 3174.39,2848.33C3175.07,2847.84 3175.76,2847.35 3176.44,2846.86C3178.1,2845.68 3179.89,2844.6 3181.4,2843.26C3181.58,2843.1 3181.57,2843.09 3181.65,2843.02C3183.04,2841.86 3185.22,2843.28 3186.68,2844.89C3189.8,2848.34 3192.52,2852.41 3194.13,2856.34C3194.45,2857.1 3194.69,2857.9 3194.47,2858.74C3193.93,2860.76 3192.01,2861.97 3190.3,2863.16C3187.38,2865.18 3184.29,2867.12 3180.91,2868C3180.91,2868 3180.43,2868.09 3180.1,2867.96C3179.52,2867.72 3179.97,2867.5 3179.97,2867.5L3174.93,2863.63C3173.65,2864.69 3172.32,2865.68 3171.2,2866.9C3170.97,2867.14 3171.08,2867.04 3171.08,2867.04C3171.08,2867.04 3170.75,2867.42 3170.41,2867.25C3170.41,2867.25 3170.18,2866.96 3170.18,2866.96L3170.2,2866.58C3170.74,2865.44 3171.87,2864.5 3172.82,2863.49C3173.31,2862.97 3173.8,2862.46 3174.29,2861.95C3174.29,2861.95 3174.76,2861.52 3175.34,2861.72ZM3190.82,2857.75C3190.74,2857.94 3190.87,2857.64 3190.82,2857.75ZM3170.55,2853.44C3170.68,2853.65 3170.52,2853.39 3170.55,2853.44ZM3184.09,2845.78C3183.92,2845.94 3184.09,2845.78 3184.09,2845.78Z"/>
            </g>
        </g>
    </g>
</svg>
