<?xml version="1.0" encoding="UTF-8" standalone="no"?>
<!DOCTYPE svg PUBLIC "-//W3C//DTD SVG 1.1//EN" "http://www.w3.org/Graphics/SVG/1.1/DTD/svg11.dtd">
<svg width="100%" height="100%" viewBox="0 0 160 454" version="1.1" xmlns="http://www.w3.org/2000/svg" xmlns:xlink="http://www.w3.org/1999/xlink" xml:space="preserve" xmlns:serif="http://www.serif.com/" style="fill-rule:evenodd;clip-rule:evenodd;stroke-linejoin:round;stroke-miterlimit:2;">
    <g transform="matrix(1,0,0,1,-761.469,-3925.26)">
        <path d="M796.166,4234.67L796.16,4233.18C795.825,4145.85 795.516,4058.64 795.346,3971.11C793.308,3955.83 800.141,3939.39 814.004,3931.62C822.775,3926.7 833.207,3925.25 842.953,3925.26C855.31,3925.33 868.003,3929.19 876.198,3938.35C883.938,3947 887.666,3959.15 887.287,3970.93C887.287,3970.93 887.251,3990.63 887.251,3990.63L887.142,4036.98C886.951,4102.25 886.708,4167.71 886.445,4233.21L886.44,4234.57C907.763,4250.07 922.159,4275.25 920.836,4302.79C919.825,4323.84 910.011,4344.27 894.292,4358.33C871.165,4379.02 835.7,4384.63 806.905,4370.85C778.962,4357.48 760.236,4327.01 761.532,4295.56C762.53,4271.35 775.9,4248.46 796.166,4234.67ZM885.088,4235.3L884.788,4235L884.78,4233.21L884.518,4167.76C884.286,4102.2 884.048,4036.31 883.943,3970.97C884.498,3956.94 878.154,3941.73 866.24,3934.5C855.575,3928.02 841.858,3927.69 830.055,3929.75C818.478,3931.77 807.046,3938.3 801.944,3949.44C798.891,3956.11 797.64,3963.73 798.64,3970.89L798.589,3997.27C798.384,4075.78 798.128,4154.51 797.826,4233.18L797.82,4234.53L797.833,4234.53L797.82,4234.6L797.818,4235L797.725,4235.09L797.612,4235.68C774.03,4251.93 760.983,4280.86 764.736,4308.49C768.839,4338.7 792.386,4365.48 822.711,4372.92C854.693,4380.77 891.057,4366.07 908.139,4336.31C918.704,4317.9 921.379,4295.13 914.4,4274.88C909.061,4259.39 898.659,4245.83 885.597,4236L885.145,4235.67L885.088,4235.3ZM814.732,4264.23L814.727,4262.86L814.591,4228.98C814.313,4152.42 814.044,4075.82 813.889,3999.19C812.565,3982.82 815.374,3964.11 829.502,3956.2C833.341,3954.05 837.77,3953.13 842.218,3953.14C848.996,3953.2 855.442,3956.67 859.515,3962.17C867.253,3972.61 868.875,3986.81 868.64,3999.03C868.64,3999.03 868.586,4029.42 868.586,4029.42L868.477,4074.02C868.286,4136.85 868.044,4199.84 867.781,4262.88L867.775,4264.18C880.967,4273.77 889.791,4290.09 887.622,4307.65C885.035,4328.59 866.668,4346.49 845.413,4348.42C824.926,4350.28 803.729,4337.2 796.842,4316.7C790.541,4297.94 797.581,4275.92 814.732,4264.23ZM866.016,4238.98L865.833,4239.14C860.859,4238.88 855.891,4239.47 850.84,4239.26C846.95,4239.1 843.629,4236.73 839.398,4237.84C837.913,4238.22 835.885,4239.06 835.885,4239.06C835.578,4239.14 835.339,4239.21 835.339,4239.21C834.062,4239.61 832.803,4240.07 831.557,4240.53C829.991,4241.1 831.585,4240.9 827.579,4241.66C826.379,4241.96 824.542,4242.28 824.531,4242.28C823.078,4242.23 822.319,4242.18 820.972,4241.81C820.972,4241.81 819.586,4241.22 819.493,4241.21C818.496,4241.04 817.485,4240.96 816.478,4241C816.45,4248.29 816.421,4255.57 816.392,4262.85L816.384,4264.6L816.211,4264.78L816.114,4265.29C801.085,4275.79 793.405,4295.22 798.771,4313.45C805.358,4335.84 831.167,4351.3 855.754,4342.68C876.369,4335.44 890.039,4311.53 883.777,4289.79C881.016,4280.2 874.874,4271.76 866.99,4265.66C866.711,4265.45 866.471,4265.27 866.471,4265.27L866.414,4264.9L866.123,4264.6L866.116,4262.88L866.016,4238.98ZM866.009,4237.22L865.853,4199.9C865.608,4133.02 865.372,4065.94 865.26,3999.1C865.517,3987.44 863.772,3974.81 857.58,3965.43C851.102,3955.61 835.1,3953.09 825.92,3963.52C817.831,3972.71 816.309,3986.92 817.229,3999.06L817.155,4035.86C816.972,4103.4 816.748,4171.11 816.486,4238.81C817.067,4238.76 817.648,4238.75 818.231,4238.76C819.654,4238.81 820.262,4238.85 824.668,4239.11C826.066,4239.59 828.216,4239.24 828.483,4239.16C828.601,4239.13 828.718,4239.09 828.835,4239.06C829.229,4238.93 829.619,4238.8 830.004,4238.65C831.626,4238.02 833.135,4237.15 834.637,4236.27C834.637,4236.27 837.842,4234.97 839.547,4234.7C843.98,4234 848.721,4236.66 852.196,4237.06C852.196,4237.06 858.51,4236.95 863.049,4237.07C864.23,4237.1 865.942,4237.21 866.009,4237.22ZM840.192,3998.28C840.231,3994.4 840.272,3990.52 840.316,3986.64L840.323,3986L841.148,3985.18C841.423,3985.45 841.698,3985.72 841.974,3986L841.981,3986.64L842.112,3998.3C843.642,3998.36 843.817,3998.36 845.473,3998.47C848.115,3998.65 850.636,3998.91 853.079,3999.17C853.079,3999.17 853.974,4000 853.974,4000L853.079,4000.83L850.543,4001.1C847.758,4001.35 844.608,4001.54 842.149,4001.64L842.243,4010.05C842.318,4017.63 842.383,4025.22 842.438,4032.79C843.677,4032.84 843.942,4032.85 845.473,4032.95C848.115,4033.13 850.636,4033.4 853.079,4033.65C853.079,4033.65 853.974,4034.48 853.974,4034.48L853.079,4035.32L850.543,4035.58C847.875,4035.82 844.871,4036.01 842.461,4036.11C842.533,4046.51 842.586,4056.9 842.622,4067.28C843.708,4067.33 844.021,4067.34 845.473,4067.44C848.115,4067.62 850.636,4067.88 853.079,4068.13C853.079,4068.13 853.974,4068.97 853.974,4068.97L853.079,4069.8L850.543,4070.06C847.938,4070.3 845.012,4070.48 842.633,4070.59C842.666,4080.98 842.681,4091.38 842.681,4101.77C843.72,4101.81 844.048,4101.82 845.473,4101.92C848.115,4102.1 850.636,4102.36 853.079,4102.62C853.079,4102.62 853.974,4103.45 853.974,4103.45L853.079,4104.28L850.543,4104.55C847.955,4104.78 845.051,4104.96 842.68,4105.07C842.676,4115.47 842.656,4125.86 842.621,4136.25C843.708,4136.3 844.021,4136.31 845.473,4136.4C848.115,4136.59 850.636,4136.85 853.079,4137.1C853.079,4137.1 853.974,4137.93 853.974,4137.93C853.974,4137.93 853.079,4138.77 853.079,4138.77L850.543,4139.03C847.929,4139.27 844.993,4139.45 842.61,4139.55C842.572,4149.95 842.519,4160.34 842.452,4170.73C843.679,4170.78 843.948,4170.78 845.473,4170.89C848.115,4171.07 850.636,4171.33 853.079,4171.59C853.079,4171.59 853.974,4172.42 853.974,4172.42L853.079,4173.25L850.543,4173.51C847.863,4173.76 844.845,4173.94 842.43,4174.05C842.361,4184.43 842.278,4194.82 842.182,4205.2C843.648,4205.26 843.843,4205.26 845.473,4205.37C848.115,4205.55 850.636,4205.82 853.079,4206.07C853.079,4206.07 853.974,4206.9 853.974,4206.9C853.974,4206.9 853.079,4207.73 853.079,4207.73L850.543,4208C847.759,4208.25 844.609,4208.44 842.151,4208.54C842.098,4214.14 842.041,4219.75 841.981,4225.35L841.974,4226L841.148,4226.83L840.323,4226L840.316,4225.35L840.18,4212.76C840.167,4211.37 840.154,4209.99 840.141,4208.6C839.403,4208.62 838.811,4208.62 838.423,4208.6C832.856,4208.36 830.533,4208.06 827.219,4207.73L826.316,4206.9L827.219,4206.07L828.583,4205.93C833.003,4205.53 836.481,4205.22 840.109,4205.18C840.015,4194.83 839.935,4184.48 839.87,4174.12C839.258,4174.13 838.763,4174.13 838.423,4174.12C832.856,4173.87 830.533,4173.58 827.219,4173.25C827.219,4173.25 826.316,4172.42 826.316,4172.42C826.316,4172.42 827.219,4171.59 827.219,4171.59L828.583,4171.45C832.897,4171.06 836.314,4170.75 839.85,4170.7C839.788,4160.35 839.741,4150 839.708,4139.64C839.17,4139.65 838.732,4139.65 838.423,4139.63C832.856,4139.39 830.533,4139.1 827.219,4138.77C827.219,4138.77 826.316,4137.93 826.316,4137.93L827.219,4137.1L828.583,4136.97C832.835,4136.58 836.216,4136.28 839.698,4136.22C839.669,4125.87 839.654,4115.51 839.655,4105.16C839.141,4105.17 838.722,4105.16 838.423,4105.15C832.856,4104.9 830.533,4104.61 827.219,4104.28C827.219,4104.28 826.316,4103.45 826.316,4103.45L827.219,4102.62L828.583,4102.48C832.818,4102.1 836.189,4101.8 839.655,4101.74C839.659,4091.38 839.677,4081.03 839.711,4070.68C839.172,4070.68 838.733,4070.68 838.423,4070.67C832.856,4070.42 830.533,4070.13 827.219,4069.8C827.219,4069.8 826.316,4068.97 826.316,4068.97C826.316,4068.97 827.219,4068.13 827.219,4068.13L828.583,4068C832.845,4067.62 836.232,4067.31 839.722,4067.26C839.759,4056.89 839.811,4046.54 839.878,4036.19C839.262,4036.2 838.764,4036.2 838.423,4036.18C832.856,4035.94 830.533,4035.64 827.219,4035.32C827.219,4035.32 826.316,4034.48 826.316,4034.48C826.316,4034.48 827.219,4033.65 827.219,4033.65L828.583,4033.52C832.918,4033.13 836.347,4032.82 839.901,4032.77C839.971,4022.4 840.057,4012.05 840.158,4001.7C839.412,4001.72 838.814,4001.72 838.423,4001.7C832.856,4001.45 830.533,4001.16 827.219,4000.83C827.219,4000.83 826.316,4000 826.316,4000C826.316,4000 827.219,3999.17 827.219,3999.17L828.583,3999.03C833.036,3998.63 836.533,3998.32 840.192,3998.28Z"/>
    </g>
</svg>
