<?xml version="1.0" encoding="UTF-8" standalone="no"?>
<!DOCTYPE svg PUBLIC "-//W3C//DTD SVG 1.1//EN" "http://www.w3.org/Graphics/SVG/1.1/DTD/svg11.dtd">
<svg width="100%" height="100%" viewBox="0 0 160 454" version="1.1" xmlns="http://www.w3.org/2000/svg" xmlns:xlink="http://www.w3.org/1999/xlink" xml:space="preserve" xmlns:serif="http://www.serif.com/" style="fill-rule:evenodd;clip-rule:evenodd;stroke-linejoin:round;stroke-miterlimit:2;">
    <g transform="matrix(1,0,0,1,-992.78,-3925.26)">
        <path d="M1027.48,4069.21C1007.05,4055.3 993.635,4032.07 992.823,4007.68C992.107,3986.21 1000.52,3964.59 1015.59,3949.21C1030.28,3934.22 1051.1,3925.45 1071.98,3925.26C1072.24,3925.26 1072.5,3925.26 1072.76,3925.26C1101.82,3925.38 1130.15,3942.72 1143.47,3968.63C1153.31,3987.77 1155.07,4010.93 1147.38,4031.16C1141.6,4046.38 1131.06,4059.59 1117.9,4069.21L1117.75,4069.31L1117.76,4070.67L1118.02,4136.1C1118.25,4201.65 1118.49,4267.52 1118.6,4332.84C1119.22,4347.29 1113.04,4363.07 1100.89,4371.33C1090.36,4378.48 1076.4,4379.59 1063.89,4378.01C1050.21,4376.28 1036.3,4369.35 1030.18,4355.83C1026.95,4348.7 1025.77,4340.6 1026.63,4332.97C1026.63,4332.97 1026.71,4306.5 1026.71,4306.5C1026.92,4228.04 1027.17,4149.34 1027.47,4070.69L1027.48,4069.21ZM1116.4,4068.58L1116.46,4068.21C1136.93,4053.02 1151.01,4027.91 1149.51,4001.47C1147.59,3967.62 1121.21,3936.39 1086.55,3930.01C1056.24,3924.43 1023.23,3938.65 1006.7,3965.56C992.87,3988.08 991.601,4017.92 1004.09,4041C1009.99,4051.88 1018.69,4061.14 1028.93,4068.19L1029.04,4068.78L1029.13,4068.88L1029.13,4069.27L1029.15,4069.34L1029.13,4069.34L1029.14,4070.69L1029.28,4105.9C1029.54,4181.53 1029.81,4257.17 1029.95,4332.99C1028.11,4346.17 1033.78,4360.88 1045.17,4368.16C1056.35,4375.32 1070.61,4376.36 1082.81,4374.51C1093.41,4372.89 1103.4,4367.05 1108.92,4357.85C1113.39,4350.38 1115.6,4341.45 1115.26,4332.91L1115.29,4313.31C1115.48,4232.32 1115.77,4151.46 1116.09,4070.67L1116.1,4068.88L1116.4,4068.58ZM1046.05,4039.65C1046.01,4039.62 1045.96,4039.6 1045.92,4039.57C1036.29,4032.97 1029.12,4022.93 1026.72,4011.58C1022.93,3993.71 1030.63,3973.9 1046.4,3963.26C1054.13,3958.04 1063.28,3955.24 1072.81,3955.26C1097.36,3955.47 1121.14,3977.26 1119.19,4005.03C1118.23,4018.62 1110.45,4031.34 1099.3,4039.55C1099.23,4039.6 1099.15,4039.65 1099.09,4039.7L1099.09,4040.34L1099.23,4040.45L1099.09,4040.59L1099.1,4041L1099.36,4103.97C1099.6,4170.85 1099.84,4237.9 1099.95,4304.73C1100.44,4323.99 1094.79,4347.61 1077.01,4350.45C1068.97,4351.74 1060.34,4348.98 1054.83,4342.85C1046.05,4333.08 1044.24,4318.04 1045.2,4304.76C1045.2,4304.76 1045.28,4267.91 1045.28,4267.91L1045.42,4214.01C1045.61,4156.42 1045.81,4098.72 1046.04,4041.02L1046.05,4039.65ZM1097.43,4041.52C1093.87,4041.67 1090.3,4041.55 1086.74,4041.5C1086.74,4041.5 1085.08,4041.19 1082.81,4041.97C1082.81,4041.97 1078.62,4043.74 1075.18,4044.07C1072.19,4044.36 1069.23,4043.41 1066.45,4042.2L1065.3,4041.54C1063.23,4040.37 1061.06,4039.26 1058.64,4039.15C1057.59,4039.1 1056,4039.62 1056,4039.62C1055.77,4039.64 1055.54,4039.66 1055.31,4039.69C1055.07,4039.72 1054.84,4039.75 1054.6,4039.78C1053.56,4039.93 1052.36,4039.98 1052.36,4039.98C1050.22,4039.66 1048.96,4039.86 1047.7,4039.85L1047.71,4041.02L1047.84,4074.9C1048.12,4151.5 1048.39,4228.14 1048.54,4304.82C1047.9,4313.36 1048.75,4322.28 1051.65,4330.43C1054.66,4338.88 1061.57,4346.45 1071.26,4347.18C1075.9,4347.54 1080.72,4346.44 1084.32,4343.56C1095.06,4335.01 1096.78,4317.95 1096.58,4304.91L1096.57,4304.77C1096.72,4216.75 1097.06,4129.18 1097.43,4041.52ZM1071.46,4095.26C1071.51,4089.68 1071.57,4084.1 1071.63,4078.53L1071.64,4077.88L1072.46,4077.04C1072.74,4077.32 1073.01,4077.6 1073.29,4077.88L1073.3,4078.53L1073.43,4091.12C1073.44,4092.5 1073.46,4093.89 1073.47,4095.27C1074.96,4095.33 1075.15,4095.33 1076.79,4095.45C1079.43,4095.63 1081.95,4095.89 1084.39,4096.14C1084.39,4096.14 1085.29,4096.98 1085.29,4096.98L1084.39,4097.81L1081.86,4098.07C1079.09,4098.32 1075.95,4098.51 1073.5,4098.61C1073.6,4108.99 1073.67,4119.38 1073.74,4129.77C1074.99,4129.82 1075.25,4129.82 1076.79,4129.93C1079.43,4130.11 1081.95,4130.37 1084.39,4130.63C1084.39,4130.63 1085.29,4131.46 1085.29,4131.46C1085.29,4131.46 1084.39,4132.29 1084.39,4132.29L1081.86,4132.55C1079.18,4132.8 1076.17,4132.98 1073.76,4133.09C1073.82,4143.48 1073.87,4153.87 1073.9,4164.26C1075.02,4164.3 1075.32,4164.31 1076.79,4164.41C1079.43,4164.59 1081.95,4164.86 1084.39,4165.11C1084.39,4165.11 1085.29,4165.94 1085.29,4165.94C1085.29,4165.94 1084.39,4166.77 1084.39,4166.77L1081.86,4167.04C1079.24,4167.27 1076.3,4167.46 1073.91,4167.56C1073.94,4177.96 1073.96,4188.35 1073.96,4198.74C1075.03,4198.79 1075.34,4198.8 1076.79,4198.9C1079.43,4199.08 1081.95,4199.34 1084.39,4199.59C1084.39,4199.59 1085.29,4200.43 1085.29,4200.43L1084.39,4201.26L1081.86,4201.52C1079.26,4201.76 1076.33,4201.94 1073.95,4202.04C1073.95,4212.44 1073.93,4222.84 1073.9,4233.22C1075.02,4233.27 1075.32,4233.28 1076.79,4233.38C1079.43,4233.56 1081.95,4233.82 1084.39,4234.08C1084.39,4234.08 1085.29,4234.91 1085.29,4234.91C1085.29,4234.91 1084.39,4235.74 1084.39,4235.74L1081.86,4236C1079.23,4236.24 1076.28,4236.43 1073.89,4236.53C1073.85,4246.93 1073.8,4257.32 1073.73,4267.7C1074.99,4267.75 1075.25,4267.76 1076.79,4267.86C1079.43,4268.04 1081.95,4268.31 1084.39,4268.56C1084.39,4268.56 1085.29,4269.39 1085.29,4269.39L1084.39,4270.23L1081.86,4270.49C1079.16,4270.73 1076.13,4270.92 1073.71,4271.02C1073.64,4281.41 1073.55,4291.8 1073.45,4302.17C1074.96,4302.23 1075.14,4302.23 1076.79,4302.35C1079.43,4302.53 1081.95,4302.79 1084.39,4303.04C1084.39,4303.04 1085.29,4303.88 1085.29,4303.88C1085.29,4303.88 1084.39,4304.71 1084.39,4304.71L1081.86,4304.97C1079.06,4305.23 1075.88,4305.42 1073.42,4305.52C1073.38,4309.42 1073.34,4313.33 1073.3,4317.23L1073.29,4317.88L1072.46,4318.7L1071.64,4317.88L1071.63,4317.23L1071.5,4305.58C1070.74,4305.59 1070.13,4305.59 1069.74,4305.57C1064.17,4305.33 1061.85,4305.04 1058.53,4304.71C1058.53,4304.71 1057.63,4303.88 1057.63,4303.88C1057.63,4303.88 1058.53,4303.04 1058.53,4303.04L1059.9,4302.91C1064.33,4302.51 1067.82,4302.19 1071.46,4302.16L1071.37,4293.82C1071.29,4286.25 1071.23,4278.67 1071.17,4271.1C1070.57,4271.11 1070.08,4271.11 1069.74,4271.09C1064.17,4270.85 1061.85,4270.55 1058.53,4270.22C1058.53,4270.22 1057.63,4269.39 1057.63,4269.39L1058.53,4268.56L1059.9,4268.42C1064.2,4268.04 1067.62,4267.73 1071.15,4267.68C1071.08,4257.32 1071.03,4246.97 1070.99,4236.62C1070.47,4236.62 1070.04,4236.62 1069.74,4236.61C1064.17,4236.36 1061.85,4236.07 1058.53,4235.74C1058.53,4235.74 1057.63,4234.91 1057.63,4234.91C1057.63,4234.91 1058.53,4234.08 1058.53,4234.08L1059.9,4233.94C1064.13,4233.56 1067.51,4233.25 1070.98,4233.2C1070.94,4222.84 1070.93,4212.49 1070.93,4202.14C1070.43,4202.14 1070.03,4202.14 1069.74,4202.12C1064.17,4201.88 1061.85,4201.59 1058.53,4201.26C1058.53,4201.26 1057.63,4200.43 1057.63,4200.43L1058.53,4199.59L1059.9,4199.46C1064.12,4199.08 1067.48,4198.77 1070.93,4198.72C1070.93,4188.36 1070.95,4178 1070.99,4167.65C1070.47,4167.66 1070.04,4167.65 1069.74,4167.64C1064.17,4167.4 1061.85,4167.1 1058.53,4166.77C1058.53,4166.77 1057.63,4165.94 1057.63,4165.94L1058.53,4165.11L1059.9,4164.97C1064.14,4164.59 1067.52,4164.29 1071,4164.23C1071.04,4153.87 1071.09,4143.52 1071.16,4133.16C1070.56,4133.17 1070.07,4133.17 1069.74,4133.16C1064.17,4132.91 1061.85,4132.62 1058.53,4132.29C1058.53,4132.29 1057.63,4131.46 1057.63,4131.46C1057.63,4131.46 1058.53,4130.63 1058.53,4130.63L1059.9,4130.49C1064.22,4130.1 1067.64,4129.79 1071.18,4129.74C1071.25,4119.39 1071.33,4109.03 1071.43,4098.68C1070.7,4098.69 1070.12,4098.69 1069.74,4098.67C1064.17,4098.43 1061.85,4098.14 1058.53,4097.81C1058.53,4097.81 1057.63,4096.98 1057.63,4096.98L1058.53,4096.14L1059.9,4096.01C1064.33,4095.61 1067.82,4095.29 1071.46,4095.26ZM1097.73,4038.98L1097.79,4038.61C1114.82,4025.79 1122.09,4001.22 1111.16,3981.53C1101.04,3963.29 1077.33,3953.63 1056.45,3961.73C1037.59,3969.05 1025.09,3990.32 1029.06,4011.11C1031.1,4021.83 1037.61,4031.42 1046.58,4037.98L1047.01,4037.64C1048.75,4037.78 1049.28,4037.74 1050.66,4037.49C1052.33,4037.18 1052.82,4036.77 1052.82,4036.77C1053.82,4036.64 1054.9,4036.33 1055.76,4036.45C1056.03,4036.49 1056.29,4036.53 1056.56,4036.57C1058.11,4036.77 1059.04,4036.43 1063.36,4037.94C1064.71,4038.4 1066.43,4038.98 1066.43,4038.98C1067.42,4039.3 1067.51,4039.32 1067.51,4039.32C1068.03,4039.55 1068.56,4039.77 1069.09,4039.98C1073.18,4041.57 1077.5,4040.45 1082.14,4039.53L1085.56,4039.5C1089.53,4039.61 1093.49,4039.74 1097.44,4039.57L1097.44,4039.27L1097.73,4038.98Z"/>
    </g>
</svg>
