<?xml version="1.0" encoding="UTF-8" standalone="no"?>
<!DOCTYPE svg PUBLIC "-//W3C//DTD SVG 1.1//EN" "http://www.w3.org/Graphics/SVG/1.1/DTD/svg11.dtd">
<svg width="100%" height="100%" viewBox="0 0 168 162" version="1.1" xmlns="http://www.w3.org/2000/svg" xmlns:xlink="http://www.w3.org/1999/xlink" xml:space="preserve" xmlns:serif="http://www.serif.com/" style="fill-rule:evenodd;clip-rule:evenodd;stroke-linejoin:round;stroke-miterlimit:2;">
    <g transform="matrix(1,0,0,1,-436,-2791)">
        <g transform="matrix(1,0,0,1,2.04281e-14,2551)">
            <g id="Pulmones" transform="matrix(0.896794,-0.110817,0.110817,0.896794,520.261,320.941)">
                <g transform="matrix(1,0,0,1,-83,-80)">
                    <clipPath id="_clip1">
                        <rect x="0" y="0" width="166" height="160"/>
                    </clipPath>
                    <g clip-path="url(#_clip1)">
                        <g>
                            <clipPath id="_clip2">
                                <rect x="0" y="0" width="166" height="160"/>
                            </clipPath>
                            <g clip-path="url(#_clip2)">
                                <clipPath id="_clip3">
                                    <rect x="0" y="0.054" width="166" height="158.999"/>
                                </clipPath>
                                <g clip-path="url(#_clip3)">
                                    <path d="M157.242,65.254C144.188,36.718 127.957,19.683 113.824,19.683C110.98,19.683 108.371,20.402 106.074,21.816C94.633,28.859 94.109,50.847 94.09,53.277C94.07,54.035 93.914,60.105 93.781,68.562L89.16,66.863L89.16,3.254C89.16,1.488 87.727,0.054 85.961,0.054L79.484,0.054C77.719,0.054 76.285,1.488 76.285,3.254L76.285,66.863L71.664,68.562C71.531,60.121 71.375,54.074 71.355,53.332C71.336,50.847 70.812,28.855 59.371,21.816C57.074,20.402 54.465,19.683 51.621,19.683C37.488,19.683 21.258,36.718 8.203,65.254C-9.078,103.027 6.207,154.55 6.867,156.726C7.285,158.101 8.547,159 9.926,159C10.172,159 10.422,158.972 10.672,158.915C11.238,158.777 24.684,155.554 38.684,150.441C58.684,143.14 69.031,135.968 70.324,128.515C71.91,119.355 71.965,94.09 71.754,75.347L80.488,72.133L84.957,72.133L93.691,75.347C93.48,94.101 93.535,119.359 95.121,128.515C96.414,135.968 106.762,143.14 126.762,150.441C140.762,155.554 154.207,158.777 154.773,158.915C155.023,158.972 155.273,159 155.52,159C156.898,159 158.16,158.101 158.578,156.726C159.238,154.554 174.52,103.027 157.242,65.254ZM62.484,79.613L39.695,91.386L39.695,100.949L41.434,106.265L45.793,110.484C47.062,111.715 47.094,113.738 45.863,115.008C45.238,115.656 44.402,115.984 43.566,115.984C42.762,115.984 41.961,115.683 41.34,115.082L36.645,110.535L31.32,116.41C30.688,117.109 29.82,117.461 28.949,117.461C28.184,117.461 27.414,117.187 26.801,116.633C25.492,115.445 25.391,113.422 26.578,112.113L33.293,104.703L33.293,94.695L20.719,101.191C20.25,101.433 19.746,101.547 19.254,101.547C18.094,101.547 16.977,100.918 16.406,99.816C15.594,98.246 16.211,96.316 17.781,95.504L20.582,94.054L15.57,90.058C14.191,88.957 13.965,86.945 15.066,85.562C16.167,84.179 18.184,83.953 19.562,85.054L26.812,90.836L44.344,81.777L29.312,70.383C27.902,69.316 27.625,67.308 28.695,65.902C29.762,64.492 31.77,64.215 33.176,65.285L38.031,68.961L38.441,65.254C38.633,63.496 40.215,62.234 41.973,62.422C43.73,62.617 44.996,64.199 44.801,65.957L43.973,73.465L50.648,78.523L59.547,73.925C61.117,73.117 63.047,73.73 63.859,75.3C64.668,76.871 64.055,78.8 62.484,79.613ZM149.871,90.058L144.859,94.058L147.664,95.504C149.234,96.316 149.848,98.246 149.035,99.816C148.469,100.918 147.352,101.55 146.191,101.55C145.695,101.55 145.195,101.433 144.727,101.191L132.152,94.695L132.152,104.703L138.867,112.117C140.055,113.425 139.953,115.449 138.645,116.636C138.031,117.191 137.262,117.465 136.496,117.465C135.625,117.465 134.754,117.109 134.125,116.414L128.8,110.539L124.105,115.082C123.484,115.683 122.68,115.984 121.879,115.984C121.043,115.984 120.207,115.66 119.578,115.011C118.352,113.742 118.383,111.715 119.652,110.484L124.012,106.265L125.75,100.949L125.75,91.386L102.961,79.613C101.391,78.8 100.773,76.871 101.586,75.3C102.398,73.73 104.328,73.113 105.898,73.925L114.797,78.523L121.473,73.465L120.641,65.957C120.449,64.199 121.715,62.617 123.473,62.425C125.227,62.234 126.809,63.496 127.004,65.254L127.414,68.961L132.266,65.285C133.676,64.218 135.684,64.492 136.75,65.902C137.816,67.312 137.543,69.316 136.133,70.386L121.098,81.781L138.629,90.84L145.879,85.058C147.262,83.957 149.273,84.183 150.379,85.562C151.48,86.945 151.254,88.957 149.871,90.058Z" style="fill:rgb(221,0,0);fill-rule:nonzero;"/>
                                </g>
                            </g>
                        </g>
                    </g>
                </g>
            </g>
        </g>
    </g>
</svg>
