<?xml version="1.0" encoding="UTF-8" standalone="no"?>
<!DOCTYPE svg PUBLIC "-//W3C//DTD SVG 1.1//EN" "http://www.w3.org/Graphics/SVG/1.1/DTD/svg11.dtd">
<svg width="100%" height="100%" viewBox="0 0 299 334" version="1.1" xmlns="http://www.w3.org/2000/svg" xmlns:xlink="http://www.w3.org/1999/xlink" xml:space="preserve" xmlns:serif="http://www.serif.com/" style="fill-rule:evenodd;clip-rule:evenodd;stroke-linejoin:round;stroke-miterlimit:2;">
    <g transform="matrix(1,0,0,1,-146,-2780)">
        <g transform="matrix(1,0,0,1,2.04281e-14,2551)">
            <g transform="matrix(0.384251,0,0,0.384251,52.0528,-291.376)">
                <path d="M955.779,1838.38C963.87,1840.27 973.739,1841.7 977.911,1834.28C980.262,1830.1 979.901,1824.68 978.48,1819.96C978.48,1819.96 978.809,1819.15 978.809,1819.15L979.544,1819.5C982.276,1826.55 982.183,1835.38 976.064,1839.81C969.815,1844.33 961.484,1843.31 954.609,1842.14C954.609,1842.14 953.368,1841.33 953.368,1841.33C953.368,1841.33 953.069,1839.92 953.09,1839.82L953.931,1838.56L955.381,1838.29C955.514,1838.32 955.646,1838.35 955.779,1838.38ZM893.968,1826.69C893.92,1826.61 893.872,1826.53 893.825,1826.44C892.99,1824.94 892.109,1823.45 890.945,1822.21C890.945,1822.21 887.105,1825.24 883.458,1824.32C879.943,1823.43 876.829,1821.16 873.144,1820.35C864.525,1818.44 855.573,1821.07 846.928,1823.37C836.49,1826.14 825.875,1828.84 815.155,1829.17C834.294,1833.8 853.639,1837.95 872.918,1839.14C879.468,1839.54 886.385,1840.18 892.291,1837.77C892.611,1834.01 893.096,1830.28 893.968,1826.69ZM1000.55,1813.52C1002.99,1820.45 1001.7,1829.26 995.585,1833.82C992.887,1835.83 989.646,1836.96 986.299,1837.63C986.299,1837.63 984.853,1837.31 984.853,1837.31C984.853,1837.31 984.067,1835.98 984.067,1835.98L984.419,1834.49L985.691,1833.75C990.585,1833.23 995.544,1831.37 998.066,1826.97C1000.32,1823.04 1000.46,1818.09 999.461,1813.91L999.832,1813.14C1000.07,1813.27 1000.31,1813.39 1000.55,1813.52ZM909.948,1780.05L959.634,1829.63L958.194,1832.11L955.642,1833.41L908.776,1781.16L908.806,1780.02C909.187,1780.03 909.568,1780.04 909.948,1780.05ZM401.613,1730.28L403.444,1731.54L403.838,1733.71C403.745,1734.12 403.656,1734.53 403.568,1734.95C399.992,1751.93 397.191,1769.63 400.577,1785.74C401.696,1791.06 404.268,1795.52 408.737,1799.74C420.559,1810.92 434.252,1820.01 448.654,1827.75C448.654,1827.75 449.349,1828.59 449.349,1828.59C449.349,1828.59 449.296,1829.59 449.256,1829.67L448.432,1830.34L447.355,1830.26C431.403,1822.19 416.142,1812.54 403.21,1800.13C395.548,1792.78 394.502,1780.91 394.443,1769.23C394.381,1756.89 395.758,1744.52 398.164,1732.51C398.164,1732.51 399.409,1730.68 399.409,1730.68C399.409,1730.68 401.441,1730.24 401.613,1730.28ZM898.007,1785.31C895.437,1787.86 892.954,1790.51 891.709,1793.5C891.073,1795.03 891.176,1796.13 889.521,1795.85C885.769,1795.2 884.769,1790.26 879.91,1786.17C879.645,1785.95 879.374,1785.73 879.096,1785.52C878.887,1785.37 878.674,1785.22 878.457,1785.07C878.254,1784.93 878.047,1784.81 877.835,1784.68C877.687,1784.6 877.538,1784.52 877.385,1784.44C877.266,1784.38 877.146,1784.33 877.024,1784.28C875.845,1783.77 874.603,1783.94 873.258,1785.14C857.887,1798.68 841.721,1811.6 824.12,1821.79C820.335,1823.98 816.419,1826.2 812.365,1827.58C819.265,1827.62 826.316,1826.02 833.293,1824.45C848.645,1821 864.19,1813.31 878.559,1819.02C882.103,1820.42 885.412,1822.74 889.008,1819.7C890.374,1818.58 890.109,1818.51 891.65,1818.94C893.305,1819.4 894.437,1820.63 895.347,1822.1C895.385,1821.99 895.423,1821.89 895.462,1821.79C897.502,1816.26 898.623,1810.4 899.551,1804.63C900.563,1798.35 899.876,1791.82 898.007,1785.31ZM993.403,1811.34L992.674,1814.11L990.562,1816.05L892.583,1754.69L892.308,1753.58L893.417,1753.31C926.746,1772.65 960.074,1791.99 993.403,1811.34ZM1014.92,1774.75C1021.41,1784.83 1026.16,1798.34 1017.48,1807.48C1014.45,1810.67 1010.14,1812.53 1005.77,1813.58C1005.77,1813.58 1004.3,1813.33 1004.3,1813.33C1004.3,1813.33 1003.47,1812.15 1003.45,1812.06L1003.72,1810.57L1004.95,1809.74C1010.58,1808.73 1016.17,1806.1 1018.35,1800.67C1021.79,1792.06 1017.72,1782.09 1013.93,1775.35L1014.12,1774.55C1014.39,1774.62 1014.65,1774.68 1014.92,1774.75ZM472.673,1775.88C472.727,1776.02 472.783,1776.16 472.839,1776.3C478.469,1790.13 489.437,1803.06 505.181,1805.6C505.181,1805.6 506.123,1806.16 506.123,1806.16C506.123,1806.16 506.421,1807.11 506.41,1807.19L505.871,1808.1L504.829,1808.4C487.952,1806.74 473.763,1792.46 467.323,1778.12C467.323,1778.12 467.292,1775.91 467.292,1775.91C467.292,1775.91 468.895,1774.32 468.895,1774.32L471.142,1774.31C471.652,1774.83 472.163,1775.35 472.673,1775.88ZM449.754,1757.68C449.754,1757.68 450.875,1759.62 450.875,1759.62L450.308,1761.8L448.397,1762.87C448.295,1762.88 448.193,1762.9 448.092,1762.91C439.81,1764.14 432.73,1770.12 430.871,1779.14C429.374,1786.4 428.029,1794.41 433.368,1800.2C435.984,1803.05 439.685,1804.61 443.347,1805.63C443.347,1805.63 444.213,1806.29 444.213,1806.29C444.213,1806.29 444.373,1807.36 444.373,1807.36L443.73,1808.2L442.663,1808.37C442.404,1808.31 442.144,1808.25 441.886,1808.19C435.817,1806.67 429.834,1803.36 427.253,1797.02C424.508,1790.28 425.322,1782.49 427.04,1775.22C429.243,1765.89 437.936,1758.59 447.613,1757.13C447.613,1757.13 448.896,1757.45 449.754,1757.68ZM1007.1,1788.83L1006.74,1791.68L1004.9,1793.88L887.678,1740.74L887.259,1739.68L888.322,1739.26C927.914,1755.78 967.506,1772.31 1007.1,1788.83ZM859.172,1709.52C862.175,1709.13 865.201,1708.98 868.158,1708.98C872.326,1709.01 876.517,1709.28 880.63,1710.07C880.63,1710.07 882.516,1711.37 882.516,1711.37C882.516,1711.37 882.931,1713.64 882.931,1713.64L881.627,1715.52L879.38,1715.93C879.267,1715.91 879.247,1715.9 878.806,1715.8C873.186,1714.58 867.403,1714.09 861.653,1714.35C861.653,1714.35 861.356,1714.24 861.098,1714.55L859.819,1718.61L859.461,1719.28L852.591,1727.39L852.181,1727.77L848.972,1729.99C847.377,1731.42 845.717,1732.61 843.988,1733.42L843.276,1733.91L842,1734.33L841.388,1734.34C840.922,1734.45 840.45,1734.53 839.974,1734.58C839.173,1734.66 838.361,1734.59 837.581,1734.38L837,1734.39C836.223,1734.34 835.284,1733.7 835.284,1733.7C835.035,1733.41 835.034,1733.41 834.833,1733.08L834.774,1732.97C833.367,1731.83 832.388,1730.16 832.302,1728.21C832.255,1727.15 832.552,1727.04 832.741,1726.6C833.162,1725.66 833.639,1724.74 834.169,1723.85L835.66,1720.66C836.086,1719.89 835.76,1720.17 836.68,1719.52L838.435,1718.46C839.625,1717.31 840.929,1716.26 842.333,1715.33C846.719,1712.44 851.722,1710.76 856.866,1709.87L859.034,1709.1L859.172,1709.52ZM753.042,1640.92C753.042,1640.92 753.9,1643 753.9,1643L753.054,1645.07L751.018,1645.9C750.624,1645.89 750.23,1645.89 749.836,1645.88C729.017,1645.75 707.419,1646.68 688.583,1654.36C686.574,1655.17 684.612,1656.11 682.74,1657.21C682.74,1657.21 681.661,1657.37 681.661,1657.37C681.661,1657.37 680.784,1656.74 680.784,1656.74L680.628,1655.68C681.263,1654.78 681.734,1654.49 682.284,1654.15C694.907,1646.52 710.27,1644.05 725.489,1642.12C733.967,1641.05 742.514,1640.3 750.992,1640.1C750.992,1640.1 752.221,1640.59 753.042,1640.92ZM733.712,1568.93C745.59,1569.01 757.604,1570.42 768.894,1574.24C768.894,1574.24 768.47,1575.67 768.47,1575.67L768.649,1575.74C769.272,1576.12 769.367,1576.24 769.648,1576.46C771.86,1578.19 773.722,1580.79 772.796,1583.65C771.584,1587.4 767.425,1589.57 764.32,1590.47C764.32,1590.47 761.276,1590.01 758.783,1589.66C729.569,1585.59 699.637,1594.65 674.026,1608.24C664.008,1613.55 654.254,1619.55 645.518,1626.55C645.518,1626.55 644.317,1627.42 643.243,1627.02C640.865,1626.13 642.937,1622.36 644.958,1619.04C657.18,1598.93 675.702,1582.43 697.767,1574.71C709.28,1570.69 721.489,1568.91 733.712,1568.93ZM811.748,1600.08L811.746,1600.07L811.746,1600.07L811.746,1600.07L811.748,1600.08L811.748,1600.08L811.748,1600.08L811.749,1600.07L811.748,1600.08L811.748,1600.08L811.748,1600.08L811.748,1600.08L811.748,1600.08L811.748,1600.08L811.748,1600.08L811.731,1600.69L811.736,1600.95C811.982,1611.81 819.726,1621.86 828.269,1630.38C830.859,1632.97 833.582,1635.41 836.411,1637.73C838.322,1633.48 838.26,1628.46 838.23,1623.51C838.225,1622.66 838.212,1621.8 838.188,1620.94C837.596,1620.84 836.857,1620.62 835.934,1620.23C828.986,1617.35 821.792,1613.76 817.177,1608.67C812.807,1603.85 818.767,1595.81 823.87,1591C823.87,1591 827.017,1590.62 830.187,1591.57C830.106,1591.44 830.033,1591.32 829.927,1591.15C824.393,1582.26 823.893,1571.18 821.562,1561.1C821.055,1558.91 820.489,1556.73 819.873,1554.57C819.873,1554.57 816.051,1550.92 813.421,1547.94C794.986,1527.03 780.541,1502.48 766.553,1478.76C762.856,1474.48 758.948,1470.44 754.879,1466.59C718.084,1448.64 677.542,1437.01 637.09,1436.02C606.713,1435.28 575.498,1441.94 550.545,1460.86L550.231,1461.1C572.054,1482 587.75,1511.2 582.032,1539.52L581.955,1539.89C588.398,1537.74 595.572,1535.42 599.507,1530.22C601.272,1527.88 600.075,1522.58 603.8,1523.05C606.203,1523.51 607.308,1526.3 607.416,1528C607.446,1541.76 607.765,1556.13 612.234,1568.44C613.155,1570.97 614.393,1573.79 616.482,1574.68C616.482,1574.68 618.461,1576.05 615.949,1577.71C598.716,1589.13 581.601,1602.98 573.259,1620.58C569.279,1628.98 567.497,1639.2 566.21,1649.29C563.691,1669.04 564.926,1689.17 568.927,1708.77C569.496,1711.55 570.679,1714.25 571.756,1716.96C578.269,1733.4 585.233,1749.97 595.224,1764.12C598.325,1768.52 601.972,1773.25 606.323,1774.69C606.323,1774.69 608.005,1775.6 606.992,1776.91C596.506,1788.33 585.489,1799.59 573.177,1808.13C569.818,1810.46 566.254,1812.9 562.279,1813.31C560.764,1813.47 559.691,1810.81 558.502,1808.89C541.934,1782.13 525.253,1755.41 510.714,1727.44C508.271,1722.74 505.732,1718.02 504.159,1713.03C493.96,1718.1 481.274,1716.71 469.372,1715.51C462.491,1714.82 455.653,1713.75 448.857,1712.47C448.857,1712.47 447.731,1712.11 445.999,1711.55C444.449,1711.51 443.878,1711.21 443.221,1710.99C427.856,1705.82 411.435,1702.5 395.383,1704.82C384.652,1706.38 373.81,1711.96 368.766,1722.17C360.84,1738.21 364.92,1758.68 369.793,1776.1C369.884,1776.43 369.983,1776.74 370.089,1777.03C370.629,1778.11 371.201,1779.17 371.802,1780.2C372.252,1780.86 372.726,1781.49 373.192,1782.19C385.347,1800.63 400.358,1817.35 417.431,1831.05C423.081,1835.59 429.02,1840.04 435.987,1841.5C447.913,1843.98 460.69,1843.86 470.621,1851.29C484.45,1861.83 501.315,1870.52 518.143,1863.97C522.113,1862.42 525.676,1859.42 527.068,1855.31C529.854,1847.1 526.137,1837.74 521.792,1829.66C521.792,1829.66 521.685,1828.61 521.685,1828.61C521.685,1828.61 522.353,1827.79 522.353,1827.79L523.388,1827.68L524.203,1828.34C530.224,1839.33 535.817,1853.78 525.376,1863.15C519.691,1868.25 511.297,1869.56 503.893,1869.15C490.878,1868.44 478.687,1861.83 468.734,1854.22C467.497,1853.29 467.149,1853.08 466.327,1852.59C456.805,1846.89 444.531,1847.1 434.016,1844.93C434.016,1844.93 430,1843.75 427.075,1842.23C422.131,1839.64 417.538,1836.47 413.18,1832.93C421.236,1876.38 428.474,1920.17 430.896,1964.03C431.624,1977.23 432.502,1990.83 429.403,2003.37C428.924,2005.31 428.238,2007.73 427.37,2009.1C428.686,2016.63 429.447,2024.29 429.556,2032.07C429.712,2043.17 429.604,2056.54 427.001,2068.73C422.421,2090.17 410.642,2109.44 398.133,2128C392.977,2135.66 387.568,2143.13 382.013,2150.51C382.013,2150.51 380.352,2151.49 380.352,2151.49C380.352,2151.49 378.57,2151.08 378.478,2151.01L377.51,2149.35L377.981,2147.49C392.465,2128.22 406.171,2108.86 415.643,2086.95C420.699,2075.25 423.654,2062.76 423.729,2049.81C423.747,2044.47 423.602,2039.12 424.421,2033.85L424.43,2033.8C424.406,2024.3 423.331,2014.9 421.413,2005.67C381.485,1961.01 344.467,1915.38 312.459,1865.78C300.439,1847.16 289.721,1827.83 281.594,1806.99C263.229,1759.9 249.373,1710.91 245.479,1660.57C243.219,1631.36 244.192,1601.44 255.442,1574.24C266.759,1546.87 285.42,1522.92 305.142,1500.25C334.66,1466.32 367.616,1435.59 402.36,1407.21C415.602,1396.46 431.112,1388.74 447.701,1384.96C470.11,1379.85 493.116,1378.25 515.502,1371.39C535.032,1365.41 553.976,1355.82 573.047,1355.43C591.38,1355.06 609.666,1358.89 627.874,1361.6C661.949,1366.72 696.01,1374.9 726.332,1390.2C735.55,1394.85 744.674,1400.19 751.171,1407.97C760.468,1418.99 773.771,1426.75 782.758,1438.22C787.749,1444.59 791.106,1452.96 788.874,1461.24C786.724,1469.13 785.544,1477.43 781.79,1484.59C781.697,1484.77 781.599,1484.95 781.496,1485.12C780.792,1486.3 779.601,1486.88 778.151,1486.72C789.114,1505.37 800.793,1524.33 814.576,1541.42C817.354,1544.86 820.213,1548.27 823.584,1551.09C823.584,1551.09 825.028,1554.55 825.753,1557.59C828.43,1568.8 828.494,1581.04 834.703,1590.21C842.996,1602.47 843.995,1619.25 841.594,1633.61C841.233,1635.77 840.745,1637.92 839.772,1639.87L839.454,1640.15C847.664,1646.49 856.639,1651.89 865.74,1656.77C876.513,1663.78 888.461,1668.5 897.901,1678.25C903.115,1683.64 906.907,1690.88 906.445,1698.57C905.751,1710.13 897.514,1720.03 888.759,1728.38C888.759,1728.38 886.042,1731.39 883.655,1733.71C881.207,1736.09 878.744,1738.42 876.8,1741.15C887.796,1752.89 896.853,1766.79 901.822,1782.06C904.236,1789.48 905.471,1797.4 904.479,1805.14L904.449,1805.37C903.279,1812.22 901.716,1818.96 899.237,1825.58C898.297,1828.12 897.938,1830.88 897.594,1833.62C895.657,1849.03 895.085,1865.5 901.272,1879.05C903.94,1884.89 908.525,1889.72 912.052,1895.29C919.865,1907.63 924.317,1922.75 917.155,1936.92C910.174,1950.74 896.29,1959.52 882.887,1966.25C861.437,1977.03 837.946,1983.54 814.446,1988.98C814.446,1988.98 808.715,1988.8 804.029,1988.48C803.439,2018.25 801.853,2048.2 796.244,2076.83C795.052,2082.92 793.662,2089 791.447,2094.77C782.489,2128.85 775.763,2163.76 772.711,2198.78C771.077,2217.53 767.423,2229.73 767.671,2216.42C768.444,2175.03 776.568,2133.56 786.432,2093.71C786.432,2093.71 786.666,2092.96 787.085,2091.76C793.494,2073.01 794.637,2052.79 796.05,2032.72C797.099,2017.82 797.769,2002.9 797.935,1988.02C757.756,1984.8 717.584,1977.64 680.413,1961.31C659.896,1952.3 640.338,1940.04 627.725,1921.89C627.725,1921.89 627.471,1920.73 627.471,1920.73C627.471,1920.73 628.118,1919.72 628.118,1919.72L629.271,1919.47L630.27,1920.1C647.161,1944.2 673.671,1956.3 700.176,1965.29C732.365,1976.2 766.377,1982.21 799.991,1984.41C800.484,1984.21 800.971,1984.02 801.054,1984.02L802.292,1984.55C806.089,1984.78 809.88,1984.96 813.661,1985.1L813.804,1985.1C843.355,1978.2 873.544,1970.8 898.316,1951.83C908.282,1944.2 916.924,1933.7 916.441,1920.46C915.965,1907.41 906.591,1896.24 899.515,1885.45C891.453,1873.17 891.071,1856.92 892.009,1841.69L892.019,1841.53C889.637,1842.14 886.753,1842.25 884.052,1842.35C866.032,1843.06 847.961,1838.82 830.012,1834.64C822.556,1832.91 815.136,1831.02 807.741,1829.04L806.797,1828.79L806.556,1828.38L806.193,1828.1L806.282,1827.99L806.197,1827.87L806.234,1827.84L806.205,1827.79L806.619,1827.55L806.899,1827.19C812.024,1826.52 814.216,1824.99 817.072,1823.55C836.917,1813.52 854.347,1798.38 870.543,1783.85C872.007,1782.54 873.25,1781.25 875.097,1781.1C880.068,1780.68 883.563,1785.32 886.455,1788.55C887.545,1789.76 889.137,1791.61 889.137,1791.61C889.2,1791.48 889.266,1791.36 889.333,1791.24C891.291,1787.69 894.065,1784.68 896.879,1781.79C892.007,1767.94 882.159,1754.45 872.367,1744.08C872.3,1744.07 872.255,1744.06 872.241,1744.05L871.137,1742.61L871.372,1740.82C874.752,1735.07 880.473,1730.82 885.426,1725.45C895.136,1716.51 905.529,1705.33 902.037,1691.93C899.501,1682.21 890.702,1675.74 882.869,1670.6C876.826,1666.64 870.372,1663.3 864.421,1659.34C864.421,1659.34 860.164,1656.95 856.679,1654.84C839.215,1644.28 821.834,1631.46 813.45,1613.28C811.515,1609.08 809.834,1604.53 810.248,1599.95C810.248,1599.95 811.074,1599.25 811.074,1599.25L811.749,1600.07L811.748,1600.08ZM811.746,1600.07L811.746,1600.07L811.746,1600.07L811.746,1600.07Z"/>
            </g>
        </g>
    </g>
</svg>
