<?xml version="1.0" encoding="UTF-8" standalone="no"?>
<!DOCTYPE svg PUBLIC "-//W3C//DTD SVG 1.1//EN" "http://www.w3.org/Graphics/SVG/1.1/DTD/svg11.dtd">
<svg width="100%" height="100%" viewBox="0 0 297 741" version="1.1" xmlns="http://www.w3.org/2000/svg" xmlns:xlink="http://www.w3.org/1999/xlink" xml:space="preserve" xmlns:serif="http://www.serif.com/" style="fill-rule:evenodd;clip-rule:evenodd;stroke-linejoin:round;stroke-miterlimit:2;">
    <g transform="matrix(1,0,0,1,-354.625,-2595.07)">
        <g transform="matrix(0.770474,0,0,1.12778,18,2534)">
            <g transform="matrix(1.2979,0,0,0.8867,-23.3622,-2246.9)">
                <path d="M429.096,2786.82C427.848,2784.74 426.607,2782.66 425.279,2780.63L425.16,2780.45L425.307,2779.72C425.551,2779.77 425.794,2779.82 426.038,2779.87C431.715,2788.29 436.124,2798.13 445.218,2802.89C449.723,2805.25 454.868,2806.87 459.715,2806.63C460.429,2806.6 461.351,2806.37 461.558,2806.33C461.986,2806.24 462.074,2806.18 462.31,2806.06L462.717,2806.19L462.59,2806.59C459.017,2808.54 454.396,2807.23 450.979,2806.47C445.024,2805.1 439.745,2801.58 435.876,2796.88C434.353,2795.03 432.99,2793.07 431.697,2791.05C432.663,2801.33 432.645,2811.67 433.942,2821.92C435.25,2832.27 438.149,2842.36 439.684,2852.68C440.906,2860.89 440.726,2869.4 444.261,2877.06C444.363,2877.28 444.451,2877.46 444.451,2877.46L444.141,2878.34L443.259,2878.03C441.477,2874.31 440.526,2870.3 439.898,2866.22C440.01,2871.69 439.906,2877.19 439.647,2882.76C439.309,2890.37 439.448,2898.08 441.553,2905.39C442.012,2906.98 442.588,2908.56 443.304,2910.07L443.715,2910.2L443.542,2910.55C444.849,2913.16 446.594,2915.54 448.902,2917.39L448.988,2918.17C448.988,2918.17 448.469,2918.22 448.21,2918.25C448.061,2918.13 448.062,2918.13 447.914,2918.01C445.75,2916.2 444.091,2913.94 442.812,2911.45C442.238,2911.77 441.209,2912.29 440.394,2913.02C436.373,2916.61 435.241,2922.27 434.103,2927.25C430.03,2945.04 430.431,2963.44 430.069,2981.73C429.958,2987.92 429.952,2994.13 430.333,3000.32C431.016,3011.43 432.621,3022.58 433.438,3033.51C434.977,3053.26 439.777,3072.55 444.053,3092.06C445.538,3098.67 447.599,3105.53 452.198,3110.09C453.111,3110.99 454.156,3111.77 455.322,3112.32L455.677,3113.32C455.677,3113.32 455.011,3113.56 454.678,3113.68C454.518,3113.6 454.519,3113.6 454.361,3113.52C452.267,3112.44 450.546,3110.87 449.111,3108.97L449.083,3109.3C448.823,3110.15 448.563,3110.99 448.306,3111.85C446.882,3116.62 445.627,3121.52 445.936,3126.45C446.585,3136.82 453.976,3145.74 456.216,3155.8C456.216,3155.8 456.022,3156.6 456.022,3156.6C456.022,3156.6 455.934,3157.84 455.14,3156.53L454.777,3156.12C453.852,3152 452.12,3148.07 450.332,3144.17C445.219,3172.92 450.136,3203.37 456.825,3230.64C460.406,3245.1 464.35,3259.46 466.015,3274.29C466.75,3273.21 467.515,3272.15 468.327,3271.12L469.097,3271.02C469.13,3271.28 469.162,3271.53 469.195,3271.79C469.029,3272.01 468.865,3272.23 468.702,3272.45C467.822,3273.65 467,3274.89 466.211,3276.16L466.262,3276.68L465.828,3277.21L465.653,3277.06C462.416,3282.38 459.658,3287.98 455.528,3292.61C452.808,3295.66 449.613,3298.29 446.473,3300.95L446.08,3301.28C445.071,3302.11 444.06,3302.95 443.052,3303.78C440.881,3305.59 438.761,3307.46 436.707,3309.4L436.623,3309.46C435.039,3311.15 433.352,3313.02 432.644,3314.03C432.564,3314.14 432.489,3314.26 432.42,3314.38C432.363,3314.48 432.312,3314.58 432.264,3314.69C432.228,3314.77 432.195,3314.85 432.165,3314.93C431.909,3315.63 432.055,3316.55 432.957,3316.87C433.001,3316.88 433.038,3316.9 433.069,3316.91C433.413,3316.55 433.78,3316.24 434.107,3315.97C434.487,3315.65 435.083,3315.25 435.083,3315.25C435.237,3315.28 435.39,3315.32 435.543,3315.35C435.543,3315.35 435.646,3315.67 435.181,3315.99C434.891,3316.19 434.612,3316.41 434.345,3316.64C434.154,3316.81 433.969,3316.98 433.792,3317.16C433.645,3317.32 433.503,3317.47 433.369,3317.64C433.265,3317.76 433.165,3317.89 433.072,3318.03C433.005,3318.12 432.941,3318.22 432.881,3318.32C432.365,3319.19 432.556,3320.36 433.733,3321.02L433.868,3321.27C434.595,3320.37 435.698,3319.6 436.635,3318.61L437.09,3318.58C437.09,3318.58 437.104,3318.89 437.111,3319.04C435.391,3321.02 432.677,3322.22 434.229,3324.54C434.344,3324.71 434.47,3324.87 434.604,3325.03C435.122,3324.38 435.801,3323.85 436.469,3323.33C437.924,3322.2 439.485,3321.21 441.034,3320.21C441.034,3320.21 441.337,3320.23 441.54,3320.28L441.442,3320.72C440.913,3321.06 440.384,3321.39 439.857,3321.73C439.372,3322.05 438.889,3322.37 438.413,3322.69C438.084,3322.92 437.759,3323.15 437.437,3323.38C437.164,3323.58 436.895,3323.79 436.63,3324C436.417,3324.17 436.208,3324.34 436.004,3324.52C435.848,3324.65 435.696,3324.79 435.548,3324.93C435.442,3325.04 435.338,3325.14 435.239,3325.25C435.163,3325.34 435.089,3325.42 435.02,3325.51L435.017,3325.95C435.017,3325.95 434.895,3325.98 434.735,3325.95C434.46,3326.54 434.591,3327.4 435.534,3327.68C436.485,3327.96 437.943,3327.61 437.943,3327.61L438.098,3327.68C439.911,3326.44 441.407,3324.77 443.289,3323.67C444.128,3323.18 445.029,3322.81 445.912,3322.4C446.093,3322.32 446.093,3322.32 446.274,3322.23C447.096,3321.83 447.89,3321.36 448.542,3320.72L449.136,3320.72C449.136,3320.72 449.33,3321.13 448.969,3321.47C447.83,3322.51 446.363,3323.1 444.955,3323.75C444.772,3323.83 444.773,3323.83 444.59,3323.92C441.559,3325.41 439.296,3327.89 436.149,3329.73C435.091,3330.37 434.092,3331.44 434.463,3332.57C435.438,3335.54 440.821,3336.03 443.889,3334.41C446.331,3333.11 448.064,3330.85 450.676,3329.29C454.37,3327.07 458.637,3326.36 463.119,3325.58C465.805,3325.09 468.459,3324.14 470.593,3322.39C474.779,3318.94 477.024,3313.65 481.115,3309.92C482.59,3308.58 484.505,3307.82 486.492,3307.66C489.685,3307.4 493.066,3307.94 495.727,3306.29C498.128,3304.81 499.531,3301.99 499.382,3299.1C499.05,3292.65 495.621,3287.05 492.56,3281.47L492.627,3280.94C492.771,3280.98 492.914,3281.02 493.058,3281.06C493.238,3281.38 493.419,3281.69 493.602,3282C496.667,3287.23 500.152,3292.43 500.821,3298.35C501.294,3302.53 498.6,3307.07 494.023,3308.32C489.829,3309.47 485.247,3307.57 481.736,3310.83C476.796,3315.4 474.174,3322.71 467.799,3325.34C463.224,3327.22 457.958,3326.68 453.461,3328.76C450.743,3330.01 448.421,3331.93 446.115,3333.88C443.744,3335.85 440.459,3336.39 437.345,3335.58C434.988,3334.97 432.737,3332.6 434.015,3330.58C434.625,3329.62 435.712,3329.04 436.767,3328.47C434.981,3328.51 433.107,3327.52 434.21,3325.6C433.535,3324.84 432.968,3323.92 433.106,3322.91C433.173,3322.42 433.362,3321.99 433.63,3321.59C433.541,3321.6 433.442,3321.6 433.343,3321.56C433.044,3321.43 432.758,3321.26 432.51,3321.04C432.355,3320.91 432.217,3320.75 432.105,3320.58C432.024,3320.45 431.957,3320.32 431.908,3320.18C431.54,3319.13 432.005,3318.15 432.686,3317.33C432.251,3317.27 431.741,3317.06 431.487,3316.46C430.94,3315.18 431.923,3313.84 432.633,3312.92C432.874,3312.61 433.12,3312.3 433.371,3312C433.666,3311.64 433.967,3311.29 434.272,3310.94C434.662,3310.49 435.059,3310.06 435.461,3309.62C435.584,3309.49 435.708,3309.36 435.832,3309.22L435.944,3308.75C443.246,3301.71 451.807,3295.78 457.574,3287.6C460.312,3283.71 462.588,3279.52 465.178,3275.55C462.498,3250.16 453.207,3225.86 449.193,3200.25C446.197,3181.13 445.411,3161.53 449.139,3142.49L449.184,3142.26L449.394,3142.12C446.624,3136.06 444.038,3129.97 444.448,3123.16C444.712,3118.75 445.955,3114.45 447.245,3110.22L447.428,3109.62C447.597,3109.07 447.591,3109.07 447.775,3108.52L447.839,3108.43C448.071,3108.08 448.152,3107.96 448.265,3107.76C445.058,3102.85 443.428,3096.22 442.124,3090.24C437.903,3070.88 433.047,3051.29 431.82,3031.82C431.038,3019.41 428.945,3007.19 428.595,2994.8C428.251,2982.61 428.814,2970.41 429.077,2958.21C429.382,2945.51 430.406,2932.58 434.36,2920.5C435.718,2916.35 437.972,2912.08 442.162,2910.09C440.298,2905.93 439.381,2901.25 438.878,2896.97C437.861,2888.33 439.057,2879.54 439.151,2870.89C439.208,2865.61 438.988,2860.33 438.602,2855.07C438.386,2853.19 438.14,2851.33 437.813,2849.53C435.834,2838.61 432.971,2827.93 432.112,2816.85C431.454,2808.37 431.129,2799.85 430.458,2791.39C430.434,2798.78 430.43,2806.17 431.094,2813.56C432.005,2823.71 433.997,2833.94 431.825,2843.93C431.494,2845.46 431.064,2846.96 430.567,2848.43L430.853,2848.15C430.96,2848.26 431.067,2848.36 431.173,2848.47C431.236,2858.77 432.962,2869.22 431.342,2879.35C430.234,2886.28 427.61,2892.97 425.634,2899.42C419.752,2918.54 413.463,2937.54 408.847,2957.17C407.417,2963.24 405.844,2969.4 406.344,2975.51C406.443,2976.72 406.634,2978.1 406.634,2978.1C406.629,2978.23 406.629,2978.23 406.632,2978.36L406.568,2978.48C406.669,2978.83 406.774,2979.21 406.867,2979.55C406.974,2979.91 407.079,2980.26 407.182,2980.62C408.271,2984.47 408.791,2988.49 408.011,2992.5C407.038,2997.52 404.299,3002.02 402.888,3006.94C401.683,3011.15 401.364,3015.63 399.664,3019.66C399.081,3021.05 398.049,3022.46 396.54,3022.55C395.395,3022.61 394.641,3021.69 394.258,3020.6C393.974,3022.09 393.569,3023.55 393.014,3024.96C391.822,3027.98 387.359,3030.6 385.804,3027.46C385.647,3027.14 385.529,3026.81 385.443,3026.47C385.39,3026.69 385.336,3026.91 385.279,3027.13C384.627,3029.66 383.378,3032.63 380.78,3032.78C380.596,3032.79 380.412,3032.78 380.231,3032.74C378.535,3032.41 377.955,3030.45 377.63,3029.02C377.437,3028.17 377.302,3027.3 377.215,3026.42C376.381,3028.6 374.955,3030.7 372.935,3030.15C370.125,3029.4 370.313,3024.58 370.423,3021.76C370.555,3018.64 370.761,3015.52 370.977,3012.4L371.004,3012.02C371.426,3006.75 371.848,3001.49 372.021,2996.19L372.139,2995.2C372.255,2994.26 372.266,2994.03 372.292,2993.72L372.679,2993.33C372.808,2993.46 372.937,2993.59 373.065,2993.72L373.148,2994.72C374.033,3003.66 371.879,3013.12 371.489,3022.8C371.489,3022.8 371.404,3027.03 372.068,3028.23C372.111,3028.31 372.156,3028.38 372.204,3028.46C372.606,3029.08 373.461,3029.54 374.247,3029.05C375.854,3028.05 376.559,3025.82 377.091,3023.75C377.091,3021.52 377.325,3019.24 377.653,3017.02C378.311,3012.56 379.463,3008.19 380.723,3003.87C380.723,3003.87 380.894,3003.3 381.078,3002.72L381.32,3002.62C381.564,3002.69 381.808,3002.76 382.052,3002.84L382.2,3003.05C380.078,3010.6 377.805,3018.24 378.358,3025.99C378.554,3028.75 379.05,3032.53 381.401,3031.54C383.774,3030.54 384.441,3026.98 384.962,3024.07C385.848,3019.14 385.999,3014.1 386.877,3009.15L387.077,3008.61L387.454,3008.3L387.723,3009.16C387.661,3009.53 387.603,3009.9 387.549,3010.27C386.852,3014.91 386.727,3019.6 385.913,3024.19C385.888,3025.57 386.085,3026.95 386.833,3027.61C387.809,3028.48 389.503,3027.55 390.522,3026.71C392.776,3024.85 393.21,3021.57 393.58,3018.33C393.913,3015.41 393.901,3012.45 393.747,3009.51C393.789,3008.91 393.764,3008.01 393.764,3008.01L394.042,3007.67C394.155,3007.76 394.267,3007.86 394.38,3007.95C394.392,3008.03 394.405,3008.11 394.417,3008.19C394.491,3008.62 394.601,3008.71 394.71,3010.2C394.878,3012.82 394.903,3015.47 394.629,3018.07L394.673,3018.12C394.662,3018.29 394.628,3018.36 394.592,3018.4C394.57,3018.59 394.546,3018.78 394.521,3018.97C394.558,3019.23 394.639,3019.62 394.786,3020.23C395.034,3021.26 396.1,3022.49 397.515,3021.22C398.685,3020.17 399.125,3018.48 399.587,3016.85C400.676,3012.99 401.139,3008.97 402.428,3005.19C404.834,2998.14 408.66,2991.93 406.666,2983.63C406.381,2982.44 406.03,2981.27 405.657,2980.11C405.657,2980.11 404.812,2977.76 404.812,2977.76C402.97,2972.03 402.041,2966.13 402.725,2959.88C402.725,2959.88 402.872,2959.51 402.872,2959.51L403.511,2958.98C403.687,2959.19 403.862,2959.41 404.038,2959.62C404.11,2960.01 404.084,2960.38 404.06,2960.76C404.039,2961.14 404.039,2961.14 404.02,2961.51C403.993,2962.13 403.969,2962.76 403.953,2963.38C403.938,2963.93 403.933,2964.49 403.941,2965.05C403.98,2968.05 404.487,2971.01 405.248,2973.92C405.259,2973.53 405.273,2973.13 405.281,2972.74C405.398,2966.79 406.824,2960.91 408.236,2955.08C412.981,2935.47 419.209,2916.31 424.872,2896.84C425.313,2895.33 425.791,2893.84 426.282,2892.34C426.282,2892.34 426.9,2890.52 427.367,2889.14C429.515,2882.72 430.883,2876.05 430.984,2869.11C431.083,2862.3 430.518,2855.51 430.533,2848.69L430.533,2848.54C429.437,2851.78 428.025,2854.93 426.643,2858.08L425.685,2858.46L425.312,2857.5C425.45,2857.18 425.588,2856.87 425.727,2856.55C428.459,2850.32 430.888,2843.85 431.228,2837.11C431.741,2826.95 429.592,2816.81 429.167,2806.58C428.913,2800.46 428.969,2794.33 428.983,2788.2L428.99,2787.37L428.999,2786.91L429.096,2786.82ZM451.096,2652.94C450.878,2652.78 450.604,2652.52 450.46,2652.14C449.366,2649.27 449.549,2646.01 448.952,2642.89C447.255,2633.75 448.042,2624.01 451.816,2615.69C454.593,2609.57 459.753,2604.83 465.232,2600.99C470.159,2597.54 475.921,2595.07 482.069,2595.07C484.738,2595.1 487.388,2595.47 490.051,2595.49C496.24,2595.54 502.786,2594.53 508.007,2597.89C508.549,2598.24 509.071,2598.62 509.588,2599.01C512.338,2601.06 515.339,2603.08 516.206,2606.32C516.218,2606.36 516.232,2606.4 516.247,2606.43C516.847,2606.14 517.504,2605.97 518.217,2605.99C520.478,2606.08 522.286,2607.64 524.145,2609.04C527.328,2611.44 529.897,2614.63 530.953,2618.65C533.249,2627.4 529.154,2636.43 530.487,2645.12L530.447,2645.18C530.82,2646.09 530.998,2647.14 530.926,2648.2C530.879,2648.89 530.77,2649.56 530.608,2650.22L530.685,2650.37C530.685,2650.37 530.146,2652.38 529.706,2653.89C528.091,2659.43 526.272,2665.02 522.791,2669.65C522.195,2670.44 521.655,2671.38 520.904,2671.94C520.724,2673.04 520.444,2674.14 519.99,2675.22C519.598,2676.16 519.155,2677.07 518.671,2677.97L518.666,2678.23C518.652,2678.74 518.604,2680.47 518.592,2680.78C518.581,2681.04 518.558,2681.3 518.541,2681.55L518.515,2682.64C518.324,2688.49 517.95,2694.34 519.411,2700.13C519.742,2701.45 520.276,2703.22 520.276,2703.22C520.361,2703.7 520.442,2704.16 520.442,2704.16L520.37,2704.32C522.037,2705.57 523.817,2706.67 525.679,2707.62C533.684,2711.7 542.709,2713.13 551.062,2715.94C552.48,2716.41 553.892,2716.91 555.295,2717.43C556.526,2717.88 557.75,2718.35 558.966,2718.84C570.868,2723.66 582.397,2731.02 589.158,2742.31C590.704,2744.89 591.997,2747.62 593.049,2750.44C595.704,2757.55 597.74,2765.17 596.353,2772.6C595.396,2777.74 593.014,2782.47 591.455,2787.37C593.184,2798 593.361,2808.87 594.914,2819.52C596.034,2827.2 597.941,2834.79 598.421,2842.51C598.461,2843.16 598.468,2843.82 598.46,2844.47C598.425,2847.1 598.178,2849.69 597.782,2852.32L598.039,2852.41L598.602,2852.84C602.784,2861.07 606.969,2869.38 608.82,2878.48C610.974,2889.07 611.29,2899.91 613.654,2910.47C616.865,2924.82 622.465,2938.66 622.602,2953.49C622.918,2954.04 623.216,2954.58 623.463,2955.15C623.463,2955.15 623.798,2955.72 624.058,2956.14C627.93,2962.21 632.422,2967.9 635.817,2974.33C638.153,2978.78 640.367,2983.4 643.961,2986.88C646.481,2989.3 649.286,2991.64 650.696,2994.66C651.56,2996.52 651.02,2999.03 649.055,2999.62C646.271,3000.46 643.27,2997.01 640.984,2994.8C638.168,2992.05 635.537,2989.11 632.724,2986.38L632.82,2986.98C633.256,2989.25 633.4,2991.55 633.69,2993.83C634.583,3000.85 635.787,3007.86 636.504,3014.84C636.504,3014.84 636.613,3016.3 636.675,3017.32C636.75,3018.81 636.596,3019.01 636.466,3019.54C636.413,3019.76 636.35,3019.98 636.275,3020.2C636.23,3020.32 636.182,3020.45 636.129,3020.57C635.631,3021.74 634.368,3022.91 632.929,3022.31C631.565,3021.74 630.656,3020.46 629.962,3018.94C629.92,3019.77 629.84,3020.6 629.72,3021.42C629.68,3021.69 629.633,3021.96 629.577,3022.23C629.532,3022.44 629.48,3022.65 629.42,3022.86C629,3024.31 627.769,3026.05 625.803,3025.37C623.581,3024.6 622.448,3021.98 621.7,3019.43C621.465,3020.86 620.561,3022.3 618.841,3022.08C616.465,3021.77 614.549,3019.85 613.609,3017.48C613.217,3016.5 612.887,3015.49 612.612,3014.47C612.231,3015.69 611.173,3016.8 609.49,3016.22C609.117,3016.1 607.945,3015.18 607.41,3014.3C604.849,3010.11 604.515,3004.72 602.471,2999.83C599.613,2992.98 595.208,2986.9 596.442,2978.19C596.688,2976.45 597.081,2974.74 597.453,2973.01L597.367,2972.84C597.213,2971.45 597.507,2970.15 597.45,2968.75C597.166,2961.78 594.743,2954.98 592.612,2948.37C586.499,2929.43 579.006,2910.76 571.985,2892.44C569.332,2885.58 566.293,2878.89 565.35,2871.49C564.239,2862.78 564.75,2853.95 564.218,2845.23L564.205,2845.01L564.503,2844.67L564.824,2844.95C564.027,2843.02 563.345,2841.05 562.851,2839.02C560.006,2827.36 562.232,2814.77 561.931,2803.12C561.801,2798.08 561.46,2793.05 561.106,2788.01C561.004,2798.77 561.659,2809.63 560.874,2820.41C560.143,2830.43 558.03,2840.32 557.279,2850.3C557.267,2850.45 557.256,2850.61 557.245,2850.76C557.164,2857.83 557.363,2864.91 558.111,2871.93C559.151,2881.68 560.771,2891.37 558.948,2901.43C558.593,2903.39 558.086,2905.36 557.383,2907.24C562.364,2909.25 565.208,2915 566.82,2919.76C573.109,2938.35 574.009,2958.36 575.697,2977.77C576.227,2983.98 576.65,2990.21 576.685,2996.45C576.747,3007.58 575.893,3018.72 575.808,3029.81C575.592,3049.7 572.079,3069.37 569.114,3089.14C568.273,3094.56 567,3100 564.39,3104.73L564.554,3104.99L565.157,3105.92C567.773,3112.79 570.255,3119.96 569.292,3127.15C568.728,3131.36 567.302,3135.35 565.777,3139.3L565.869,3139.35C573.491,3167.67 570.806,3197.81 565.631,3226.18C562.752,3241.87 559.443,3257.44 558.818,3273.39C563.209,3279.2 566.902,3285.53 572.528,3290.45C577.068,3294.43 582.007,3298.03 586.738,3301.76C586.785,3301.79 586.834,3301.82 586.882,3301.86C586.964,3301.93 587.046,3302 587.128,3302.08C588.141,3302.88 589.143,3303.69 590.129,3304.52L590.364,3304.81L590.4,3305.02C591.839,3306.38 593.219,3307.79 594.474,3309.32C594.525,3309.38 594.575,3309.44 594.623,3309.51C594.702,3309.62 594.779,3309.73 594.85,3309.84C595.491,3310.87 595.613,3312.63 594.244,3313.2C595.426,3314.55 595.849,3316.12 593.908,3317.26C593.729,3317.36 593.553,3317.39 593.411,3317.38C594.106,3318.25 594.392,3319.26 593.678,3320.57C593.54,3320.83 593.351,3321.1 593.182,3321.32C593.54,3321.9 593.642,3322.51 593.372,3323.13C592.97,3324.06 592.03,3324.42 591.071,3324.47C591.15,3324.51 591.229,3324.54 591.308,3324.58C592.37,3325.09 593.475,3325.76 593.901,3326.78C594.349,3327.86 593.944,3329.14 593.09,3330.01C591.148,3331.98 587.776,3332.36 585.289,3331.96C581.895,3331.41 579.65,3328.31 575.902,3326.51C572.371,3324.81 568.388,3324.52 564.119,3324.14C561.635,3323.9 559.121,3323.35 556.984,3322.07C551.694,3318.88 549.054,3312.53 543.815,3309.08C539.864,3306.49 534.375,3309.49 529.843,3307.18C526.901,3305.69 524.99,3302.65 524.769,3299.25L524.764,3299.14C524.755,3292.89 528.423,3286.85 531.319,3280.87L531.759,3280.64C530.656,3276.89 530.526,3272.7 530.289,3268.91C529.09,3250.59 528.96,3232.24 526.706,3215.13C526.158,3210.98 525.5,3206.83 524.721,3202.71C523.38,3195.63 521.005,3188.76 519.284,3181.76C518.013,3176.59 517.648,3171.19 518.258,3165.89C519.154,3158.11 521.516,3150.51 521.813,3142.7L522.396,3142.16C520.079,3137.89 517.995,3133.52 516.835,3128.8C515.685,3124.11 515.434,3119.27 515.65,3114.39L515.529,3114.29L515.248,3113.58C513.063,3101.63 512.12,3089.46 512.688,3077.32C513.09,3069.16 513.609,3061.09 512.246,3052.85C510.588,3042.81 507.198,3033.05 506.125,3022.98C505.168,3014 505.773,3004.85 504.543,2996.13C503.239,2996.24 501.923,2996.28 500.653,2996.22C500.642,2996.36 500.632,2996.49 500.622,2996.63C499.892,3007.23 501.789,3017.81 500.48,3028.57C499.237,3038.77 496.562,3048.82 496.554,3059.08C496.546,3068.72 498.621,3078.22 498.977,3088.12C499.274,3096.39 498.921,3104.66 497.991,3112.97L497.736,3113.89L497.612,3114.01C498.283,3120.05 498.23,3126.03 496.632,3131.85C495.655,3135.41 494.242,3138.81 492.697,3142.17L492.722,3142.14C492.936,3142.31 493.15,3142.49 493.365,3142.66C494.499,3153.44 499.509,3163.69 499.255,3174.46C499.06,3182.7 496.141,3190.57 495.007,3198.64C492.848,3214.03 492.553,3229.66 493.148,3245.11C493.47,3254.12 493.352,3263.16 493.354,3272.24C493.344,3277.56 492.82,3283.02 489.682,3287.41C489.498,3287.67 489.186,3288.01 489.186,3288.01C488.737,3288.37 488.716,3288.39 488.36,3288.73L487.889,3288.78L487.973,3288.15C488.465,3287.38 488.282,3287.54 489.073,3286.37C492.33,3281.46 492.255,3275.03 492.223,3269.16C492.197,3259.12 492.164,3249.07 491.676,3239.09C490.919,3222.5 491.489,3205.85 495.283,3189.66C496.558,3184.22 497.971,3178.78 497.937,3173.26C497.875,3163.06 493.351,3153.38 492.238,3143.16C489.164,3149.73 485.702,3156.2 484.154,3163.47C482.228,3172.52 482.298,3181.88 483.601,3191.05C483.622,3191.21 483.621,3191.21 483.64,3191.36C483.842,3193.22 483.716,3195.12 484.122,3196.91L483.932,3197.63L483.438,3197.26C482.708,3194.78 482.873,3192.16 482.467,3189.66C480.695,3178.51 480.765,3166.9 484.788,3156.15C488.362,3146.61 494.637,3138.11 496.435,3127.99C498.468,3116.56 495.197,3104.61 492.874,3092.89L492.797,3092.5L493.084,3092.07C493.228,3092.16 493.372,3092.26 493.516,3092.36C493.629,3092.9 493.742,3093.45 493.857,3094C495.001,3099.44 496.29,3104.91 497.126,3110.36C498.03,3100.24 498.232,3089.99 497.178,3079.86C496.212,3070.56 494.594,3061.37 495.531,3051.96C496.652,3040.69 499.786,3029.66 499.666,3018.21C499.588,3010.84 498.764,3003.48 499.492,2996.14C496.462,2995.83 493.82,2994.84 492.425,2992.57C490.588,2989.58 491.697,2985.5 491.604,2981.98C491.445,2976.01 490.335,2970.01 490.915,2964.04L491.304,2964.03C491.85,2964.09 491.852,2964.07 492.389,2964.18C492.364,2964.44 492.365,2964.44 492.342,2964.7C491.843,2971.38 493.444,2978.08 493.054,2984.75C492.906,2987.27 492.469,2990 493.811,2991.95C495.451,2994.34 498.762,2994.55 501.328,2994.63C505.047,2994.75 509.027,2994.58 512.075,2992.98C515.332,2991.27 514.065,2985.49 514.187,2981.65C514.23,2980.26 514.326,2978.89 514.445,2977.51C514.743,2974.19 515.152,2970.89 515.209,2967.55C515.209,2967.55 515.219,2967.56 515.274,2966.4C515.36,2964.03 515.324,2964.63 515.309,2964.1L515.594,2963.73C515.71,2963.83 515.826,2963.93 515.943,2964.04L516.127,2965.06C516.169,2965.4 516.207,2965.74 516.244,2966.08C516.304,2966.66 516.375,2967.43 516.375,2967.43C516.518,2973.94 515.61,2980.29 515.851,2987.04C515.902,2988.83 515.869,2990.73 515.031,2992.26C513.567,2994.94 510.092,2995.44 507.423,2995.81C506.862,2995.89 506.289,2995.96 505.71,2996.02C507.489,3006.88 506.36,3018.06 508.467,3029.08C510.68,3040.64 514.567,3051.84 514.542,3063.83C514.528,3070.69 513.746,3077.52 513.729,3084.39C513.707,3093.2 514.521,3101.99 515.896,3110.69C516.412,3104.72 517.457,3098.73 518.247,3092.91L518.3,3092.52L518.712,3092.2C518.817,3092.34 518.922,3092.48 519.027,3092.61C518.955,3093.17 518.882,3093.73 518.807,3094.28C517.058,3107.21 514.591,3120.49 519.044,3132.32C523.076,3143.04 530.842,3151.93 534.029,3163.18C536.53,3172 536.426,3181.65 535.675,3190.4C535.664,3190.55 535.665,3190.54 535.655,3190.69C535.602,3191.71 535.637,3192.73 535.637,3193.75C535.633,3194.47 535.621,3194.5 535.601,3194.8C535.534,3195.76 535.27,3196.64 535.27,3196.64L534.898,3196.91C534.898,3196.91 534.636,3196.36 534.636,3196.36C534.656,3196.25 534.674,3196.14 534.69,3196.03C535.06,3193.25 534.816,3190.5 535.015,3187.54C535.498,3179.98 534.922,3172.36 532.978,3165.02C532.872,3164.62 532.765,3164.22 532.658,3163.81C532.552,3163.41 532.441,3163.01 532.326,3162.61C530.328,3155.69 526.454,3149.52 522.967,3143.2C522.515,3153.63 518.521,3163.84 519.338,3174.15C520.028,3182.85 523.79,3190.9 525.615,3199.72C528.655,3214.41 529.679,3229.5 530.03,3244.46C530.272,3254.05 530.944,3263.62 531.693,3273.24C532.071,3277.85 532.985,3282.47 536.006,3286.19C537.17,3287.8 536.407,3286.87 537.031,3287.65L537.041,3288.12L536.423,3287.99C534.131,3286.16 532.757,3283.76 531.906,3281.11C531.764,3281.42 531.62,3281.73 531.475,3282.03C528.852,3287.55 525.847,3293.31 526.263,3299.1C526.264,3299.23 526.268,3299.37 526.273,3299.5C526.429,3302.8 528.704,3305.84 531.965,3306.78C536.22,3308.01 541.067,3305.47 545.214,3308.77C550.118,3312.68 552.949,3318.88 558.519,3321.7C562.196,3323.57 566.761,3323.08 570.743,3323.88C574.995,3324.73 578.759,3327.11 582.229,3329.66C584.654,3331.41 588.027,3331.67 590.899,3330.51C592.537,3329.85 594.001,3328.04 592.976,3326.69C591.928,3325.32 589.919,3324.99 588.251,3323.91C586.612,3322.85 585.154,3321.5 583.414,3320.66C582.594,3320.26 581.726,3319.97 580.874,3319.65C580.68,3319.57 580.68,3319.57 580.487,3319.5C579.556,3319.12 578.653,3318.66 577.889,3318L577.843,3317.41C577.843,3317.41 578.228,3317.2 578.588,3317.49C579.719,3318.4 581.132,3318.84 582.514,3319.37C583.298,3319.68 583.341,3319.7 583.681,3319.86C585.996,3320.96 587.842,3322.65 590.112,3323.96C590.51,3323.93 591.041,3323.84 591.729,3323.64C591.81,3323.61 591.89,3323.59 591.968,3323.56C592.558,3323.32 592.941,3322.57 592.572,3321.82L592.308,3321.83C592.308,3321.83 592.272,3321.67 592.33,3321.45C592.326,3321.45 592.321,3321.44 592.317,3321.43C590.643,3319.5 588.044,3318.35 585.658,3317.01L585.473,3316.54C585.473,3316.54 585.833,3316.37 585.975,3316.45C588.277,3317.75 591.354,3319.18 592.763,3320.76C593.176,3320.2 593.506,3319.56 593.39,3318.86C593.11,3317.19 591.144,3316.41 589.824,3315.05L589.819,3314.59C589.819,3314.59 590.2,3314.52 590.382,3314.69C591.287,3315.52 592.457,3316.28 593.239,3317.17C593.564,3316.89 594.317,3316.2 594.449,3315.67C594.834,3314.13 593.234,3313.08 592.252,3312.35C591.882,3312.07 591.307,3311.73 591.307,3311.73L591.18,3311.28C591.18,3311.28 591.564,3311.12 591.668,3311.17C592.415,3311.59 593.209,3312.16 593.859,3312.8C594.1,3312.62 594.375,3312.38 594.534,3312.17C595.26,3311.2 594.239,3310.07 593.65,3309.37C593.475,3309.17 593.296,3308.96 593.115,3308.76C592.892,3308.51 592.665,3308.26 592.435,3308.02C592.119,3307.68 591.799,3307.35 591.474,3307.03C591.06,3306.61 590.639,3306.2 590.214,3305.8C590.066,3305.65 589.917,3305.51 589.767,3305.37L589.564,3305.35C589.256,3305.09 588.946,3304.84 588.635,3304.58C587.298,3303.5 585.94,3302.45 584.572,3301.41L584.418,3301.29C579.227,3297.49 573.742,3293.96 569.284,3289.49C565.021,3285.2 561.942,3279.92 558.443,3274.95L558.28,3275.11L557.812,3274.61C557.817,3274.43 557.822,3274.26 557.827,3274.09C556.794,3272.66 555.718,3271.26 554.558,3269.93L554.605,3269.15C554.863,3269.17 555.122,3269.18 555.38,3269.2C556.258,3270.17 557.092,3271.17 557.899,3272.2C558.849,3250.78 564.497,3230.08 567.091,3208.59C569.797,3186.17 570.274,3163.27 564.903,3141.54C563.373,3145.48 561.889,3149.42 561.214,3153.55C561.214,3153.55 560.76,3154.22 560.76,3154.22C560.76,3154.22 560.27,3155.38 559.95,3153.86L559.757,3153.33C561.346,3142.38 568.834,3132.64 567.977,3121.52C567.579,3116.36 565.637,3111.36 563.767,3106.45L563.645,3106L563.645,3106C562.328,3108.09 560.631,3109.99 558.477,3111.2L557.456,3110.91L557.743,3109.89C558.511,3109.46 558.647,3109.34 559.049,3109.03C564.68,3104.64 566.472,3096.39 567.633,3088.91C570.753,3068.11 574.427,3047.23 574.303,3026.19C574.271,3014.4 575.518,3002.63 575.066,2990.9C574.596,2978.71 573.219,2966.58 572.149,2954.5C571.013,2942.01 569.118,2929.44 564.567,2917.9C564.398,2917.47 564.222,2917.05 564.036,2916.63C563.888,2916.29 563.733,2915.96 563.574,2915.63C562.145,2912.69 560.071,2909.99 556.849,2908.57C555.679,2911.27 554.066,2913.75 551.87,2915.78L551.089,2915.74L551.121,2914.96C551.256,2914.84 551.256,2914.84 551.389,2914.71C553.443,2912.75 554.929,2910.37 556.006,2907.77L555.817,2907.44L556.201,2907.29C557.874,2903.02 558.487,2898.23 558.72,2893.87C559.099,2886.77 557.96,2879.7 557.215,2872.56C556.918,2869.62 556.721,2866.66 556.601,2863.71C556.277,2867.59 555.648,2871.41 554.202,2875.11L554.121,2875.31L553.263,2875.68L552.894,2874.82C556.449,2865.93 555.266,2855.85 556.339,2846.36C557.575,2835.43 559.723,2824.6 559.843,2813.51C559.936,2804.95 559.601,2796.36 559.842,2787.82C557.697,2791.73 555.305,2795.44 552.072,2798.51C546.885,2803.43 539.305,2806.36 532.916,2806.04C531.957,2805.99 531.019,2805.76 530.132,2805.36C530.132,2805.36 529.907,2804.93 529.907,2804.93C529.907,2804.93 530.126,2804.71 530.44,2804.83C533.777,2806.07 537.885,2804.54 541.775,2803.12C546.614,2801.35 550.908,2798.2 554.124,2794.18C558.421,2788.81 561.202,2782.32 564.635,2776.41L564.744,2776.22L565.464,2776.02C565.529,2776.26 565.594,2776.5 565.66,2776.74C564.438,2778.91 563.31,2781.15 562.173,2783.37L562.261,2783.45L562.326,2784.2C562.907,2792.71 563.606,2801.22 563.434,2809.77C563.228,2820.05 561.897,2830.55 564.655,2840.13C566.017,2844.85 568.375,2849.24 570.657,2853.63L570.348,2854.61L569.368,2854.3C567.771,2851.24 566.156,2848.17 564.846,2845C565.535,2855 564.759,2865.1 567.106,2874.91C568.588,2881.11 571.521,2886.84 573.725,2892.85C578.822,2906.82 584.043,2920.61 589.1,2934.78C592.511,2944.34 596.208,2953.89 597.927,2964.07C598.186,2965.6 598.385,2967.15 598.442,2968.7C598.561,2968.12 598.677,2967.52 598.774,2966.94C599.467,2962.8 599.221,2958.53 598.661,2954.49C598.661,2954.49 598.708,2954.1 598.708,2954.1L599.191,2953.43C599.415,2953.59 599.639,2953.75 599.864,2953.91C600.542,2955.35 600.471,2956.86 600.596,2958.47C600.947,2962.99 600.315,2967.51 599.222,2971.95C599.222,2971.95 598.83,2973.33 598.54,2974.36C598.499,2974.5 598.499,2974.5 598.462,2974.65C597.556,2978.29 596.89,2982.05 597.602,2985.71C598.69,2991.32 602.243,2996.08 604.07,3001.33C605.568,3005.64 605.93,3010.5 608.48,3014.18C609.134,3015.13 610.215,3015.99 611.109,3015.47C612.39,3014.74 612.095,3012.83 611.961,3011.84L612.012,3011.77C611.511,3008.96 611.356,3006.07 611.404,3003.19C611.41,3002.82 611.465,3002.78 611.553,3001.92C611.553,3001.92 611.574,3001.68 611.574,3001.68L611.893,3001.38C611.993,3001.48 612.093,3001.59 612.193,3001.69C612.203,3002.31 612.207,3002.12 612.227,3002.37C612.352,3004.19 612.346,3005.07 612.403,3006.12C612.635,3010.4 613.008,3014.87 615.143,3018.57C616.453,3020.85 619.964,3022.21 620.76,3020.24C621.506,3018.4 620.842,3016.16 620.401,3013.95L620.378,3013.7C619.682,3010 619.179,3006.25 618.329,3002.57L618.293,3002L618.508,3001.56L619.106,3002.24C620.602,3008.15 620.843,3014.35 622.913,3020.09C623.682,3022.22 625.137,3025.05 627.097,3024.41C628.374,3023.99 628.436,3022.39 628.595,3021.26C629.186,3017.08 628.426,3012.74 627.421,3008.57C626.453,3004.55 625.112,3000.63 623.677,2996.76L623.399,2995.97L623.532,2995.75L624.248,2995.48C624.331,2995.51 624.414,2995.54 624.497,2995.57C627.144,3002.33 629.79,3009.53 629.987,3016.64C630.581,3018.49 631.287,3020.33 632.967,3021.33C633.134,3021.43 633.313,3021.51 633.502,3021.56C633.617,3021.59 633.737,3021.6 633.857,3021.6C635.185,3021.55 635.48,3019.94 635.647,3018.86C635.889,3017.29 635.484,3015.65 635.299,3013.98C634.325,3005.47 632.558,2997.11 631.843,2988.56L631.874,2987.05C631.885,2986.55 631.885,2986.55 631.89,2986.05L632.112,2985.8C630.935,2984.68 629.721,2983.6 628.446,2982.6C626.289,2980.89 623.552,2980.1 621.367,2978.62L621.166,2977.97C621.166,2977.97 621.469,2977.72 622.402,2978.29C623.412,2978.89 624.494,2979.35 625.556,2979.85C625.767,2979.95 625.766,2979.95 625.976,2980.05C628.026,2981.07 629.815,2982.59 631.527,2984.16C635.694,2987.95 639.428,2992.22 643.477,2996.09C645.38,2997.88 647.99,2999.76 649.579,2998.39C651.95,2996.33 647.918,2991.98 644.792,2989.07C644.276,2988.59 643.754,2988.12 643.242,2987.63C637.958,2982.57 635.502,2975.05 631.302,2968.95C628.38,2964.7 625.289,2960.56 622.542,2956.18C622.542,2956.18 620.599,2953.2 619.143,2950.33C619.143,2950.33 618.849,2949.68 618.646,2949.2L618.961,2948.29C619.264,2948.4 619.566,2948.5 619.869,2948.61C620.141,2949.11 619.615,2948.13 621.185,2951.08C621.336,2951.37 621.496,2951.64 621.658,2951.92C621.008,2936.26 614.15,2921.32 611.313,2905.93C609.272,2894.85 609.138,2883.4 605.813,2872.58C604.363,2867.86 602.252,2863.38 600.072,2858.94L599.957,2858.71C599.157,2857.01 598.355,2855.32 597.571,2853.62C597.563,2853.67 597.554,2853.72 597.542,2853.79C597.383,2854.65 597.202,2855.51 596.998,2856.36L596.567,2856.63L596.298,2856.2C596.369,2855.88 596.369,2855.88 596.437,2855.56C596.835,2853.61 597.041,2851.63 597.174,2849.61L597.181,2849.47C597.563,2838.16 594.243,2827.04 593.004,2815.41C592.85,2813.96 592.709,2812.51 592.576,2811.05C591.945,2804.19 591.451,2797.31 590.589,2790.47C589.892,2793.3 589.362,2796.17 588.574,2798.98C588.574,2798.98 588.409,2799.4 588.409,2799.4C588.107,2799.62 587.983,2799.78 587.886,2799.93L587.485,2800.2L587.305,2799.53C587.189,2798.96 587.12,2798.98 587.12,2798.98C587.195,2798.72 587.267,2798.45 587.338,2798.19C588.317,2794.5 589.008,2790.75 590.119,2787.01C590.091,2786.82 590.063,2786.63 590.035,2786.44L589.965,2785.99C590.242,2785.92 590.28,2785.9 590.475,2785.87C590.67,2785.26 590.878,2784.66 591.102,2784.05C593.008,2778.93 595.17,2773.89 595.289,2768.37C595.414,2762.58 593.864,2756.82 591.942,2751.39C589.298,2743.91 584.81,2737.13 578.797,2731.8C567.419,2721.72 552.159,2717.09 538.403,2713.19C530.334,2710.89 522.38,2707.89 516.358,2701.91L516.356,2701.34L516.919,2701.34C516.991,2701.41 517.063,2701.48 517.135,2701.55C518.012,2702.4 518.935,2703.2 519.898,2703.95L519.561,2703.44C518.733,2700.71 518.059,2697.94 517.681,2695.12C517.589,2694.4 517.593,2694.37 517.57,2694.18C517.278,2691.88 517.281,2689.57 517.354,2687.25L517.507,2682.61L517.552,2681.52L517.553,2680.74C517.564,2680.45 517.575,2680.13 517.587,2679.82C514.441,2684.84 510.076,2689.13 506.202,2692.92C503.314,2695.75 499.95,2698.23 496.066,2699.42C495.96,2699.5 495.774,2699.58 495.475,2699.64C491.517,2700.52 487.079,2700.2 483.859,2697.78L483.796,2697.81C480.367,2696.24 477.187,2694.26 473.992,2692.32C471.253,2690.64 468.887,2688.49 467.228,2685.26C467.235,2685.55 467.238,2685.83 467.236,2686.11L467.274,2686.98C467.355,2689.44 467.444,2691.89 467.504,2694.34C467.504,2694.34 467.489,2695.45 467.437,2696.27C467.429,2696.54 467.429,2696.54 467.418,2696.81C467.326,2698.75 466.801,2700.49 466.041,2702.49C466.272,2702.24 466.5,2701.99 466.726,2701.74L467.288,2701.7C467.3,2701.89 467.312,2702.08 467.323,2702.26C464.433,2705.56 461.041,2708.39 457.281,2710.61C447.76,2716.24 436.836,2718.81 426.699,2724.03C415.884,2729.59 405.789,2737.57 400.359,2748.67C397.429,2754.66 395.799,2761.24 395.123,2767.89C394.78,2771.27 394.867,2774.72 395.698,2778.01C396.865,2782.62 399.223,2786.87 401.042,2791.23C401.167,2791.24 401.28,2791.26 401.527,2791.3C401.5,2791.61 401.475,2791.92 401.449,2792.24C401.662,2792.77 401.864,2793.32 402.053,2793.86C403.223,2797.23 404.032,2800.72 405.236,2804.08L404.951,2805.31L404.4,2804.89C403.963,2804.51 403.922,2804.56 403.922,2804.56C402.896,2801.74 402.097,2798.86 401.187,2796.01C400.625,2805.92 400.937,2815.93 400.178,2825.83C399.432,2835.55 397.644,2845.22 398.551,2854.95C398.551,2854.95 398.662,2855.84 398.762,2856.49C398.864,2857.11 398.681,2856.47 398.997,2858.11C399.235,2859.35 399.546,2860.57 399.899,2861.78L399.66,2862.22L399.212,2861.98C399.114,2861.67 399.114,2861.67 399.018,2861.35C398.816,2860.66 398.633,2859.98 398.46,2859.28C395.482,2867.13 391.977,2874.81 390.655,2883.13C388.689,2895.51 389.369,2908.16 386.896,2920.69C384.383,2933.42 380.62,2945.98 380.991,2959.03C381.348,2958.25 381.716,2957.43 382.048,2956.66L382.558,2955.56L383.442,2955.18C383.567,2955.47 383.692,2955.77 383.817,2956.07C383.02,2958.33 381.958,2960.52 380.821,2962.63C380.821,2962.63 378.539,2966.67 376.56,2969.96C374.614,2973.2 372.489,2976.35 370.799,2979.67C367.957,2985.26 366.111,2991.42 361.816,2996.08C359.299,2998.79 356.12,3001.44 355.428,3004.8C355.116,3006.31 356.551,3007.97 358.125,3007.57C360.482,3006.96 362.145,3004.55 363.784,3002.75C367.852,2998.24 371.417,2993.29 375.95,2989.23C377.977,2987.42 380.628,2986.49 382.638,2984.87L383.225,2984.94C383.225,2984.94 383.379,2985.36 382.877,2985.74C381.787,2986.56 380.564,2987.17 379.371,2987.83C379.173,2987.94 379.173,2987.94 378.976,2988.05C372.584,2991.76 368.481,2998.78 362.759,3005.05C360.775,3007.19 357.925,3009.49 355.737,3007.88C353.784,3006.44 354.652,3003.33 356.43,3000.8C357.939,2998.66 359.827,2996.82 361.544,2994.82C366.046,2989.47 367.984,2982.39 371.313,2976.39C372.017,2975.12 372.739,2973.86 373.465,2972.61L373.856,2971.93C375.647,2968.85 377.552,2965.83 379.244,2962.67C379.244,2962.67 379.632,2961.89 380.167,2960.78C379.097,2943.12 385.793,2926 387.184,2908.6C387.992,2898.5 387.741,2888.22 390.044,2878.41C391.191,2873.53 393.028,2868.84 394.939,2864.2L395.038,2863.96C395.802,2862.2 396.574,2860.45 397.331,2858.69L397.377,2858.58C397.756,2858.25 397.786,2858.18 398.151,2858.01C398.092,2857.76 398.033,2857.51 397.975,2857.27C397.74,2856.25 396.866,2850.93 396.866,2847.95C396.867,2847.54 396.871,2847.13 396.878,2846.72C397.054,2836.97 398.901,2827.31 399.186,2817.42C399.423,2809.22 399.358,2801.01 400.123,2792.89C399.769,2791.93 399.389,2790.99 398.968,2790.05C396.234,2784.05 393.329,2778.18 393.454,2771.22C393.529,2767.04 394.336,2762.91 395.316,2758.85C397.51,2749.77 402.221,2741.36 409.027,2734.85C419.545,2724.78 433.483,2719.65 446.83,2714.51C453.429,2711.94 459.717,2708.69 464.829,2703.72C465.212,2701.94 465.854,2701.49 466.168,2700.41C466.705,2698.58 466.657,2696.57 466.532,2694.71C466.532,2694.71 466.49,2693.68 466.464,2692.95C466.393,2690.97 466.331,2688.99 466.267,2687.02L466.247,2686.14L466.202,2685.52C466.171,2684.46 466.138,2683.1 466.138,2683.1L466.265,2683.08C465.229,2680.43 464.483,2677.68 463.879,2674.92C460.893,2674.57 458.103,2673.18 456.204,2670.66C453.879,2667.58 452.988,2663.65 452.675,2659.82L452.678,2659.82C451.3,2657.69 450.463,2655.33 451.096,2652.94ZM479.679,3134.88C479.215,3140.08 474.87,3144.31 473.384,3148.87C473.12,3149.52 472.931,3150.19 472.727,3150.86C472.641,3151.16 472.643,3151.16 472.643,3151.16C472.206,3153.94 472.131,3156.75 472.503,3159.58C472.591,3160.25 472.853,3161.09 472.853,3161.09C472.886,3161.43 472.763,3161.18 472.941,3161.58L472.858,3162.01L472.371,3161.84C471.101,3160.54 471.324,3159.47 471.261,3158.31C471.08,3154.95 471.007,3151.45 471.974,3148.36C473.262,3144.24 478.209,3140.2 478.849,3134.89L479.313,3134.43C479.435,3134.58 479.557,3134.73 479.679,3134.88ZM543.484,3160.13C543.504,3160.03 543.435,3160.08 543.637,3159.15C544.25,3156.11 543.71,3152.79 543.072,3149.86C543.072,3149.86 542.501,3148.31 542.017,3147.22C540.553,3144.04 537.942,3141.46 536.339,3138.28C535.678,3136.97 535.193,3135.58 534.964,3134.13L535.284,3133.55L535.759,3133.88C536.679,3138.74 541.103,3142.2 543.348,3146.57C543.813,3147.48 544.054,3148.46 544.177,3149.49C544.177,3149.49 545.804,3156.5 544.444,3159.97L544.104,3160.36C544.043,3160.43 544.043,3160.43 543.987,3160.5L543.567,3160.63C543.567,3160.63 543.424,3160.29 543.484,3160.13ZM479.568,3111.62C479.134,3114.14 480.559,3119.89 478.775,3123.8C478.775,3123.8 477.589,3124.42 477.589,3124.42L477.493,3123.81C477.539,3123.25 477.236,3123.66 477.756,3122.45C479.143,3119.11 478.327,3115.21 478.955,3111.61L479.323,3111.27C479.405,3111.39 479.486,3111.51 479.568,3111.62ZM534.093,3110.66C535.062,3114.5 534.505,3118.63 536.425,3122.18C536.425,3122.18 536.335,3123.45 536.335,3123.45L535.747,3123.26C535.347,3122.98 535.173,3123.03 535.049,3122.79C533.362,3119.03 534.419,3114.74 533.526,3110.9L533.726,3110.44C533.848,3110.51 533.97,3110.59 534.093,3110.66ZM401.416,2992.6C401.072,2993.26 400.534,2994.13 400.534,2994.13C398.978,2996.22 396.654,2997.68 394.091,2998.25C389.96,2999.17 385.569,2998.39 381.619,2997.43L381.611,2997.1C381.719,2996.56 381.673,2996.54 381.898,2996.04C381.898,2996.04 383.989,2996.44 385.478,2996.7C390.542,2997.57 396.125,2997.66 399.755,2993.52C399.988,2993.24 400.359,2992.86 400.607,2992.55C400.727,2992.4 400.727,2992.4 400.842,2992.24L401.315,2992.12C401.349,2992.28 401.382,2992.44 401.416,2992.6ZM392.235,2979.12C392.235,2979.12 392.447,2978.7 392.272,2979.96C391.624,2984.65 387.866,2988.22 383.409,2990.76C382.522,2991.26 381.63,2991.76 380.741,2992.26C380.501,2992.4 380.482,2992.43 379.931,2992.72L379.527,2992.62L379.191,2992C379.191,2992 379.242,2991.66 379.406,2991.57C380.745,2990.9 382.093,2990.25 383.411,2989.54C383.54,2989.47 383.539,2989.47 383.666,2989.39C387.535,2987.13 390.646,2983.89 391.282,2979.04C391.282,2979.04 391.832,2979.08 392.235,2979.12ZM604.077,2986.43C604.077,2986.43 605.182,2987.65 606,2988.33C610.421,2992.02 617.697,2990.37 622.651,2989.1L623.232,2988.95L623.388,2989.25C623.533,2989.78 623.58,2989.78 623.603,2990.33C623.603,2990.33 621.737,2990.86 620.372,2991.18C615.15,2992.41 609.345,2993.39 604.9,2988.73C604.393,2988.2 603.856,2987.37 603.856,2987.37C603.745,2987.19 603.637,2987.01 603.528,2986.83L603.597,2986.34C603.757,2986.38 603.917,2986.41 604.077,2986.43ZM502.679,2989.06C502.788,2988.89 503.054,2988.52 503.413,2988.46C505.193,2988.16 505.839,2985.86 506.128,2984.12C507.226,2977.07 507.121,2969.89 506.793,2962.71L506.76,2962.05L506.781,2961.23C506.94,2960.85 506.985,2960.73 506.985,2960.73L507.317,2960.35C507.443,2960.46 507.57,2960.57 507.696,2960.68C508.048,2961.41 508.047,2961.41 508.047,2961.41C508.626,2969.17 508.8,2976.84 507.463,2984.61C507.055,2986.98 505.837,2989.43 503.283,2989.69L502.703,2989.22C502.572,2989.38 502.249,2989.72 501.901,2989.7C500.496,2989.58 499.172,2988.72 498.504,2987.42C497.763,2985.99 497.499,2984.37 497.153,2982.77C495.671,2975.92 495.449,2968.85 495.501,2961.81L495.803,2961.07L496.159,2960.71C496.278,2960.83 496.397,2960.95 496.516,2961.06C496.82,2961.81 496.82,2961.81 496.82,2961.81C496.937,2969.57 497.095,2977.36 499.09,2984.98C499.154,2985.23 499.224,2985.47 499.302,2985.71C499.742,2987.07 500.622,2988.41 502.055,2988.51L502.679,2989.06ZM612.765,2972.78C613.759,2977.47 617.491,2980.91 622.169,2982.97C623.247,2983.43 624.336,2983.88 625.419,2984.33L625.663,2984.74L625.37,2985.39C625.37,2985.39 625.071,2985.55 624.9,2985.48C620.907,2983.54 616.498,2981.93 613.92,2978.42C612.714,2976.78 611.971,2974.82 611.671,2972.81C611.671,2972.81 612.734,2972.63 612.734,2972.63C612.744,2972.68 612.755,2972.73 612.765,2972.78ZM546.811,2918.3C542.229,2924.32 536.283,2929.22 531.891,2935.33C526.827,2942.38 523.933,2950.98 517.425,2956.9C516.578,2957.67 515.76,2958.16 514.956,2958.66L514.328,2958.96L513.681,2958.86L513.994,2958.07C514.678,2957.39 514.529,2957.58 514.968,2957.18C515.472,2956.71 515.548,2956.59 516.529,2955.69C516.676,2955.55 516.697,2955.53 516.843,2955.39C523.141,2949.36 526.316,2940.68 531.545,2933.91C535.939,2928.22 541.589,2923.63 545.993,2917.96L546.133,2917.78L546.732,2917.7C546.758,2917.91 546.784,2918.11 546.811,2918.3ZM454.069,2919.87C454.324,2920.16 454.364,2920.21 455.059,2920.96C459.836,2926.02 465.528,2930.15 470.075,2935.41C475.801,2942.04 479.478,2950.41 486.264,2955.81C486.985,2956.45 487.718,2957.06 488.491,2957.62C488.491,2957.62 489.001,2958.06 489.001,2958.06L489.193,2958.68C489.193,2958.68 488.767,2958.78 488.554,2958.83C487.543,2958.43 486.614,2957.9 485.743,2957.28C485.493,2957.11 485.456,2957.09 485.195,2956.88C477.578,2950.57 473.741,2940.62 466.62,2933.29C462.346,2928.89 457.483,2925.08 453.427,2920.44L453.465,2919.83C453.666,2919.85 453.868,2919.86 454.069,2919.87ZM492.651,2822L492.604,2822.44C490.268,2824.36 488.366,2826.77 487.168,2829.58C484.262,2836.39 484.939,2844.1 481.659,2850.8C478.222,2857.81 472.861,2863.78 465.596,2867.55C464.533,2868.1 463.312,2868.62 463.312,2868.62L462.859,2868.45C462.859,2868.45 462.973,2868.15 463.031,2868C463.771,2867.64 464.502,2867.26 465.224,2866.86C465.745,2866.57 466.259,2866.26 466.764,2865.94C473.452,2861.72 478.883,2855.42 481.475,2847.48C483.982,2839.8 484.046,2831.1 489.07,2825C489.973,2823.91 490.998,2822.92 492.106,2822.03C492.106,2822.03 492.411,2821.97 492.651,2822ZM501.641,2822.7C504.98,2825.03 507.517,2828.39 509.041,2832.18C510.961,2836.95 511.821,2842.03 513.763,2846.91C516.489,2853.77 521.394,2859.65 527.886,2863.67C529.745,2864.82 531.7,2865.81 533.725,2866.63L533.926,2867.07C533.926,2867.07 533.632,2867.2 533.485,2867.26C523.137,2863.62 514.52,2854.98 511.402,2844.68C509.46,2838.26 508.934,2831.11 504.505,2826.1C503.547,2825.02 502.454,2824.06 501.276,2823.22L501.096,2822.71C501.096,2822.71 501.451,2822.57 501.641,2822.7ZM446.411,2789.63C446.411,2789.63 447.625,2789.96 447.625,2789.96C450.073,2790.94 452.614,2792.35 455.502,2792.5C455.518,2792.5 457.826,2792.57 458.936,2791.83C458.936,2791.83 458.952,2791.36 458.952,2791.36C458.952,2791.36 459.862,2791.39 459.862,2791.39C460.683,2792.24 459.198,2793.22 458.163,2793.47C457.966,2793.51 457.767,2793.55 457.567,2793.59C453.983,2794.26 450.27,2792.86 447.064,2791.08L446.687,2790.8C446.315,2790.43 446.312,2790.43 446.312,2790.43C446.312,2790.43 446.078,2790.21 446.078,2790.21L445.946,2789.76C446.101,2789.71 446.256,2789.58 446.411,2789.63ZM458.933,2791.85C458.831,2792 458.93,2792.27 458.93,2792.27C458.93,2792.27 458.975,2791.79 458.933,2791.85ZM545.541,2787.41C545.541,2787.41 545.436,2787.89 545.436,2787.89C545.123,2788.22 545.006,2788.35 545.006,2788.35L544.539,2788.79C541.333,2791.23 536.534,2792.92 532.654,2791.72C531.996,2791.52 531.013,2790.87 531.766,2789.97L532.672,2789.89C532.174,2790.49 534.338,2790.93 536.052,2790.8C538.831,2790.49 541.401,2789.17 543.854,2787.74C543.854,2787.74 545.075,2787.31 545.075,2787.31C545.23,2787.35 545.386,2787.38 545.541,2787.41ZM532.755,2790.79C532.855,2790.64 532.715,2790.36 532.715,2790.36C532.728,2790.5 532.741,2790.65 532.755,2790.79ZM497.63,2777.69C497.61,2780.76 496.701,2783.78 497.345,2786.82C497.529,2787.68 497.565,2788.31 497.565,2788.31L497.431,2788.78L496.911,2788.53C496.334,2788.27 496.52,2788.96 496.145,2786.71C495.709,2784.08 496.187,2781.43 496.535,2778.82C496.647,2777.95 496.76,2777.61 496.76,2777.61L497.234,2777.22C497.366,2777.37 497.498,2777.53 497.63,2777.69ZM493.963,2776.71C494.006,2776.89 494.049,2777.06 494.096,2777.23C494.19,2777.59 494.259,2777.86 494.259,2777.86C494.836,2780.78 495.72,2783.73 495.04,2786.68C494.879,2787.38 494.47,2787.68 494.47,2787.68L494.04,2787.9L493.86,2787.36C493.615,2786.84 493.795,2787.64 494.024,2785.71C494.344,2782.8 493.33,2779.88 493.103,2776.88C493.103,2776.88 493.464,2776.35 493.464,2776.35C493.631,2776.47 493.797,2776.59 493.963,2776.71ZM496.061,2761.18C496.061,2761.18 496.335,2761.7 496.335,2761.7C496.438,2762.59 496.486,2763.72 496.486,2763.72C496.488,2763.75 496.296,2764.55 496.296,2764.55L495.972,2765.01L495.387,2764.2C495.243,2763.95 495.281,2763.61 495.274,2763.49L495.204,2762.53C495.184,2762.16 495.192,2761.56 495.192,2761.56C495.309,2761.32 495.373,2761.22 495.373,2761.22L495.694,2760.85C495.816,2760.96 495.939,2761.07 496.061,2761.18ZM494.252,2760.27C494.252,2760.27 494.491,2760.81 494.491,2760.81C494.534,2761.7 494.506,2762.84 494.506,2762.84C494.506,2762.86 494.262,2763.65 494.262,2763.65L493.907,2764.09L493.378,2763.24C493.25,2762.98 493.311,2762.65 493.313,2762.52L493.307,2761.57C493.311,2761.19 493.359,2760.59 493.359,2760.59C493.493,2760.36 493.563,2760.27 493.563,2760.27L493.907,2759.92C494.022,2760.04 494.137,2760.15 494.252,2760.27ZM450.503,2730.18C450.654,2730.25 450.756,2730.29 450.919,2730.31L451.427,2730.42L451.282,2731.05C451.224,2731.37 451.242,2731.4 451.242,2731.4C447.516,2733.74 442.571,2732.96 438.615,2735.32C431.471,2739.6 428.677,2748.89 429.194,2756.41C429.194,2756.41 429.175,2757.22 429.175,2757.22C429.128,2757.42 429.128,2757.42 429.103,2757.63L428.816,2758.09L428.197,2757.33C428.105,2756.99 428,2756.58 428,2756.58C427.411,2752.11 428.255,2747.46 430.046,2743.37C432.131,2738.62 435.715,2734.22 440.919,2732.66C444.074,2731.72 447.532,2731.83 450.338,2730.25C450.338,2730.25 450.452,2730.15 450.503,2730.18ZM537.103,2728.3C541.403,2730.41 546.617,2729 551.436,2732.17C557.42,2736.11 560.646,2743.31 561.229,2750.25C561.376,2752.2 561.272,2752.36 561.234,2753.06C561.234,2753.06 560.906,2754.3 560.906,2754.3L560.517,2754.68L560.082,2753.63C560.047,2753.2 560.043,2753.12 560.018,2752.21C559.702,2743.75 555.488,2734.98 547.933,2732.04C544.281,2730.61 540.002,2731.51 536.358,2729.54L536.108,2728.57L536.73,2728.41C537.073,2728.28 536.953,2728.22 537.103,2728.3ZM506.262,2706.9L506.036,2707.33C505.713,2708 505.689,2708.12 505.578,2708.43C502.761,2713.3 500.231,2718.27 497.692,2723.4C497.236,2724.29 496.353,2725.44 496.353,2725.44C496.022,2725.8 496.169,2725.52 495.522,2725.89L495.073,2725.85L495.194,2725.34C495.425,2725.01 495.123,2725.32 495.799,2724.28C496.954,2722.46 497.6,2720.45 498.774,2718.26C500.452,2715.1 502.052,2711.9 503.89,2708.84C503.89,2708.84 504.736,2707.64 504.736,2707.64C504.736,2707.64 505.299,2707.04 505.71,2706.53L506.171,2706.44C506.202,2706.6 506.232,2706.75 506.262,2706.9ZM461.566,2721.77C465.45,2721.8 469.316,2722.53 473.142,2722.21C473.142,2722.21 473.507,2722.26 474.012,2722.23L474.377,2722.49L473.927,2722.88C467.868,2724.46 460.929,2720.93 454.736,2723.93C453.883,2724.35 453.088,2724.87 452.356,2725.47L451.632,2725.57L451.724,2725.04C451.909,2724.71 452.009,2724.73 452.164,2724.6C454.764,2722.56 458.177,2721.77 461.566,2721.77ZM480.284,2706.39C480.284,2706.39 481.945,2708.11 482.807,2709.38C483.265,2710.05 483.711,2710.74 484.15,2711.42C486.388,2714.92 488.587,2718.46 490.535,2722.08C490.996,2722.96 491.82,2724.06 491.82,2724.06C491.96,2724.48 492.187,2724.95 492.187,2724.95L491.105,2724.79C489.836,2723.94 489.156,2722.23 488.441,2720.88C488.175,2720.39 488.155,2720.36 488.041,2720.17C485.598,2716.16 483.146,2712.2 480.555,2708.3C480.555,2708.3 480.221,2707.52 479.758,2706.8L479.817,2706.33C479.973,2706.35 480.128,2706.37 480.284,2706.39ZM527.205,2720.56C530.106,2720.59 533.007,2721.37 535.317,2723.06L535.518,2723.31L535.58,2723.75L535.039,2723.78C534.699,2723.68 534.689,2723.59 534.534,2723.48C529.998,2720.45 523.723,2721.69 518.732,2722.39C517.178,2722.59 515.613,2722.75 514.047,2722.71C514.047,2722.71 513.45,2722.61 512.979,2722.53L512.679,2722.2L513.2,2721.91C517.8,2721.62 522.359,2720.64 526.847,2720.56C527.026,2720.56 527.026,2720.56 527.205,2720.56ZM509.367,2618.41C504.829,2625.61 495.972,2630.19 487.871,2629.9C482.022,2629.69 476.244,2629.9 470.359,2630.49C470.119,2630.51 470.119,2630.51 469.879,2630.54C467.583,2630.82 465.304,2631.56 463.777,2633.39C461.349,2636.31 461.16,2640.4 461.167,2643.97C461.174,2647.58 461.728,2651.24 461.667,2654.62C461.651,2655.5 461.538,2656.38 461.227,2657.19C461.237,2657.21 461.247,2657.24 461.257,2657.26C461.257,2657.26 461.086,2657.74 461.086,2657.74C461.086,2657.74 461.012,2657.65 460.884,2657.5L460.639,2657.6C460.639,2657.6 460.4,2657.21 460.474,2657.01C459.654,2656.03 458.208,2654.32 457.395,2653.43C457.164,2653.18 456.926,2652.94 456.677,2652.72C456.46,2652.51 456.236,2652.32 456.003,2652.14C455.852,2652.02 455.698,2651.91 455.539,2651.8C455.406,2651.71 455.27,2651.63 455.131,2651.55C455.028,2651.49 454.924,2651.43 454.817,2651.38C453.979,2650.98 452.761,2651.02 452.225,2652.05C450.134,2656.1 453.932,2661.16 457.921,2664.34C459.11,2665.29 460.675,2665.83 462.04,2665.3C462.04,2665.3 462.064,2665.3 462.106,2665.29L462.051,2664.99L463.305,2664.74C463.328,2664.85 463.351,2664.95 463.375,2665.06C463.397,2665.16 464.298,2670.19 464.806,2673.42C465.637,2678.11 466.646,2682.93 469.233,2686.92C471.201,2689.95 474.77,2691.64 478.092,2693.62C479.991,2694.76 481.916,2695.85 483.916,2696.78L484.204,2696.92L484.242,2697.02C484.314,2697.06 484.378,2697.12 484.446,2697.17C487.583,2699.3 491.738,2699.68 495.622,2698.74C495.622,2698.74 495.66,2698.76 495.717,2698.79C502.926,2696.59 507.925,2689.99 512.486,2684.76C514.327,2682.64 516.192,2680.46 517.655,2678.06C517.663,2677.85 517.667,2677.73 517.667,2677.73C517.667,2677.73 517.748,2677.71 517.873,2677.69C518.709,2676.27 519.398,2674.77 519.852,2673.16C520.747,2670 520.269,2666.63 520.846,2663.28L520.866,2662.88C520.894,2662.83 520.922,2662.78 520.95,2662.74C520.954,2662.72 520.957,2662.7 520.96,2662.69L520.993,2662.67C522.241,2660.64 524.165,2659.13 525.733,2657.38C528.208,2654.63 530.238,2651.14 530.074,2647.35C529.986,2645.32 528.756,2643 526.435,2643.22C523.992,2643.45 522.659,2646.35 522.022,2648.98C522.022,2648.98 521.602,2649.29 521.602,2649.29L521.455,2649.07L521.344,2649.11L521.141,2648.57C523.84,2642.53 522.468,2634.8 517.326,2630.5C513.978,2627.7 509.223,2625.88 509.136,2620.66C509.123,2619.91 509.211,2619.16 509.367,2618.41ZM483.367,2679.94C486.664,2681.01 490.309,2679.91 493.775,2679.67C496.41,2679.48 499.05,2679.45 501.693,2679.5C502.322,2679.51 502.741,2679.96 502.741,2679.96L502.384,2680.32L502.006,2680.41C497.607,2680.51 493.218,2680.72 488.815,2681.22C486.8,2681.43 484.702,2681.46 482.803,2680.69L482.543,2680.11C482.543,2680.11 482.834,2679.76 483.367,2679.94ZM453.581,2661.09C453.771,2662.32 454.01,2663.54 454.342,2664.74C455.558,2669.12 458.645,2673.31 463.693,2674.05C463.138,2671.38 462.7,2668.7 462.246,2666.09C461.224,2666.63 460.419,2666.38 459.592,2666.15C457.64,2665.63 456.111,2664.02 454.699,2662.43C454.316,2662 453.939,2661.55 453.581,2661.09ZM497.974,2665.4C499.432,2665.92 499.44,2666.56 499.379,2667.53C499.236,2669.79 496.572,2670.73 493.954,2671.17C491.48,2671.58 488.837,2671.59 486.571,2670.61C485.168,2670 483.956,2668.44 485.413,2666.47L485.91,2666.28L485.941,2666.8C485.593,2667.49 485.374,2668.13 485.567,2668.7C486.059,2670.14 487.824,2670.32 489.697,2670.49C492.597,2670.76 495.961,2670.74 497.949,2668.64C498.553,2668 498.665,2666.85 497.798,2666.16L497.486,2665.47C497.486,2665.47 497.838,2665.34 497.974,2665.4ZM528.592,2654.8C527.299,2656.85 525.619,2658.7 523.933,2660.33C523.77,2660.49 523.771,2660.49 523.609,2660.65C522.855,2661.41 522.227,2662.32 521.569,2663.16C521.556,2663.24 521.545,2663.33 521.522,2663.49C521.226,2665.87 521.313,2668.26 521.075,2670.62C521.541,2670 522.132,2669.21 522.521,2668.64C525.359,2664.46 527.068,2659.64 528.592,2654.8ZM515.606,2606.8C515.587,2606.72 515.571,2606.66 515.529,2606.5C514.548,2603.13 511.186,2601.04 508.469,2599.1C506.803,2597.93 504.935,2597.06 502.966,2596.63C497.807,2595.51 492.435,2596.52 487.114,2596.16C483.595,2595.92 480.096,2595.71 476.555,2596.59C469.635,2598.3 463.754,2602.81 458.785,2607.67C456.253,2610.15 454.099,2612.97 452.613,2616.31C448.807,2624.88 448.409,2634.94 450.128,2643.88C450.624,2646.6 450.384,2649.46 451.412,2652.03C451.802,2651.12 452.606,2650.32 453.68,2650.34C456.447,2650.45 458.516,2653.57 460.086,2655.43C460.308,2655.69 460.52,2655.97 460.711,2656.26C461.096,2654.64 460.751,2652.87 460.591,2651.16C460.572,2650.94 460.572,2650.94 460.555,2650.72C460.04,2643.13 458.769,2633.95 465.909,2630.6C469.029,2629.13 472.624,2629.27 476.299,2629.07C480.395,2628.84 484.5,2628.89 488.617,2628.97C488.83,2628.98 488.829,2628.98 489.041,2628.98C497.98,2628.86 506.609,2623.05 510.185,2614.74L510.672,2614.45C510.684,2614.42 510.696,2614.39 510.709,2614.36C510.709,2614.36 510.94,2613.83 510.94,2613.83L511.404,2613.63C511.47,2613.79 511.537,2613.94 511.603,2614.1C511.469,2614.47 511.448,2614.52 511.105,2615.44C511.006,2615.71 511.006,2615.71 510.91,2615.99C510.069,2618.43 509.498,2621.14 510.635,2623.48C512.102,2626.5 515.575,2627.82 518.13,2630.07C522.016,2633.51 523.793,2638.94 523.197,2644.09C524.006,2643.08 525.097,2642.35 526.505,2642.26C526.612,2642.25 526.718,2642.25 526.825,2642.25C527.839,2642.29 528.732,2642.78 529.425,2643.53C528.732,2635.41 532.139,2627.05 529.998,2618.9C529.367,2616.5 528.174,2614.24 526.483,2612.42C524.76,2610.56 522.723,2608.99 520.544,2607.74C519.343,2607.05 517.833,2606.65 516.509,2607.3C515.365,2607.87 514.537,2608.91 513.835,2609.94C513.277,2610.76 512.842,2611.66 512.615,2612.63C512.615,2612.63 511.845,2612.52 511.845,2612.52C512.102,2611.23 512.732,2610.02 513.505,2608.93C514.075,2608.13 514.777,2607.35 515.606,2606.8ZM505.294,2650.81C507.411,2650.84 509.52,2651.17 511.555,2651.39L512.174,2651.88C512.174,2651.88 511.941,2652.39 511.273,2652.48C510.569,2652.57 509.321,2652.37 509.321,2652.37C508.361,2652.32 507.401,2652.27 506.442,2652.23C505.526,2652.19 505.477,2652.2 505.073,2652.21C504.822,2652.22 504.57,2652.23 504.319,2652.26C504.149,2652.27 503.98,2652.29 503.811,2652.32C503.652,2652.34 503.493,2652.37 503.336,2652.4C502.202,2652.65 501.128,2653.55 501.019,2654.79C501.019,2654.79 500.89,2654.84 500.687,2655C500.687,2655 499.599,2654.77 499.599,2654.77C499.621,2653.69 500.039,2652.62 500.887,2651.93C502.108,2650.93 503.806,2650.8 505.294,2650.81ZM475.552,2650.81C475.794,2650.82 476.035,2650.82 476.276,2650.84C478.379,2650.96 480.912,2652.02 481.003,2654.72C481.003,2654.72 480.889,2654.82 480.682,2655L479.586,2654.83C479.581,2654.75 479.573,2654.67 479.562,2654.59C479.29,2652.68 476.679,2652.2 475.082,2652.21C473.193,2652.21 471.329,2652.49 469.332,2652.48C469.154,2652.48 468.92,2652.42 468.92,2652.42L468.429,2651.88C468.429,2651.88 469.543,2651.39 471.079,2651.23C471.079,2651.23 472.447,2651.03 473.263,2650.93C473.944,2650.87 474.626,2650.82 475.309,2650.81C475.431,2650.81 475.43,2650.81 475.552,2650.81ZM477.589,2643.6C480.8,2643.63 484.418,2644 486.109,2647.03C487.256,2649.08 487.117,2651.63 486.813,2654.03L486.307,2654.51L485.897,2654.01C486.028,2651.9 486.04,2647.87 483.1,2646.07C482.135,2645.48 481.015,2645.17 479.884,2644.99C479.416,2644.91 476.164,2644.81 473.777,2644.92C472.809,2644.96 471.842,2645.02 470.875,2645.06C470.619,2645.08 470.363,2645.09 470.106,2645.09C468.858,2645.12 467.596,2645.13 466.395,2644.81L465.896,2644.6L465.705,2644.2L466.165,2644.03C466.529,2644.1 466.306,2644.07 467.059,2644.22C470.501,2644.83 474.082,2643.6 477.589,2643.6ZM503.345,2643.6C506.979,2643.64 510.822,2645 514.057,2644.1C514.499,2644.02 514.498,2644.02 514.498,2644.02L514.897,2644.2C514.897,2644.2 514.514,2644.79 513.545,2644.96C508.488,2645.82 502.921,2643.55 498.175,2645.72C496.303,2646.57 495.06,2648.39 494.773,2650.62C494.632,2651.72 494.632,2652.83 494.702,2653.94C494.702,2653.94 494.296,2654.51 494.296,2654.51L493.799,2654.1C493.339,2650.52 493.604,2646.43 496.921,2644.74C498.868,2643.74 501.153,2643.59 503.345,2643.6Z"/>
            </g>
        </g>
    </g>
</svg>
