<?xml version="1.0" encoding="UTF-8" standalone="no"?>
<!DOCTYPE svg PUBLIC "-//W3C//DTD SVG 1.1//EN" "http://www.w3.org/Graphics/SVG/1.1/DTD/svg11.dtd">
<svg width="100%" height="100%" viewBox="0 0 515 385" version="1.1" xmlns="http://www.w3.org/2000/svg" xmlns:xlink="http://www.w3.org/1999/xlink" xml:space="preserve" xmlns:serif="http://www.serif.com/" style="fill-rule:evenodd;clip-rule:evenodd;stroke-linejoin:round;stroke-miterlimit:2;">
    <g transform="matrix(1,0,0,1,-712.194,-2563.91)">
        <g transform="matrix(0.542969,0,0,0.605556,630,2534)">
            <g transform="matrix(1.84173,0,0,1.65138,-1160.29,-4184.59)">
                <path d="M1055.88,2595.73C1060.44,2591.62 1065.46,2587.98 1069.68,2583.5C1075.32,2577.51 1079.87,2570.53 1085.75,2564.74L1087,2563.91C1087.45,2563.92 1087.91,2563.94 1088.36,2563.95L1088.32,2565.31C1087.31,2566.65 1088.01,2565.96 1087.04,2566.92C1080.92,2573.15 1076.18,2580.67 1069.96,2586.76C1065.2,2591.42 1059.7,2595.23 1054.98,2599.94L1054.74,2600.18L1053.02,2600.19C1053.02,2600.19 1052.63,2598.84 1053.5,2597.97C1053.67,2597.8 1053.84,2597.63 1054.02,2597.46C1042.88,2599.76 1031.01,2598.96 1020.22,2600.53C1000.63,2603.45 981.054,2607.97 961.168,2607.97C959.376,2607.97 956.935,2608.06 956.935,2608.06C937.015,2607.64 917.171,2608.04 897.809,2614.39C897.809,2614.39 897.815,2614.4 896.19,2614.96C880.852,2620.14 863.959,2617 848.538,2621.13C848.538,2621.13 844.932,2623.22 842.361,2624.81C837.023,2628.05 830.869,2629.61 824.679,2630.56C824.679,2630.56 820.336,2631.22 816.499,2631.39C811.075,2631.64 805.649,2631.35 800.161,2631.63C796.138,2631.83 797.752,2635.36 798.532,2636.75C799.104,2637.76 800.45,2638.8 800.45,2638.8C803.405,2640.91 806.833,2641.99 810.828,2641.56C810.828,2641.56 812.032,2641.58 812.936,2641.5L813.515,2641.93L812.721,2642.56C809.332,2643.18 805.769,2642.94 802.595,2641.6C803.126,2642.88 804.036,2644.9 805.09,2646.51C811.19,2655.85 823.247,2658.93 833.625,2659.94C843.434,2660.9 853.295,2660.57 863.344,2661.45C881.034,2662.95 899.548,2652.32 916.101,2662.44C916.206,2662.5 916.31,2662.57 916.415,2662.63C916.193,2661.56 915.815,2660.51 915.815,2660.51C915.787,2660.26 915.747,2660.26 915.699,2660.17C915.699,2660.17 915.122,2659.36 916.5,2659.57C916.942,2660.03 916.652,2659.5 917.078,2660.22C917.821,2661.53 918.206,2663.71 918.206,2663.71C918.718,2667.12 918.547,2670.66 917.883,2674.01C918.271,2673.67 918.666,2673.33 919.068,2673.01C919.444,2672.71 920.319,2672.95 920.319,2672.95C920.242,2673.24 920.164,2673.54 920.087,2673.84C920.087,2673.84 917.139,2676.71 915.104,2678.89C913.34,2680.78 911.541,2682.64 909.696,2684.45L909.698,2684.46C909.698,2684.46 909.684,2684.47 909.658,2684.49C902.971,2691.05 895.683,2697.05 887.279,2702.16C886.201,2702.82 885.096,2703.44 883.977,2704.04C892.906,2706.09 902.025,2707.48 909.919,2712.82C920.41,2719.91 927.196,2731.45 938.337,2738.29C942.592,2740.9 947.005,2743.33 950.333,2747.15C950.333,2747.15 953.851,2750.67 955.228,2754.02C957.705,2760.06 953.631,2767.12 946.211,2770.14C941.605,2772.01 936.441,2772.17 931.395,2772.11C918.72,2771.93 906.15,2767.41 896.727,2758.03C893.674,2754.97 890.683,2751.78 886.987,2749.64C886.621,2749.58 886.255,2749.51 885.888,2749.45C885.377,2749.36 884.863,2749.29 884.348,2749.22C872.168,2747.63 859.873,2752.19 849.175,2756.65C846.398,2757.76 843.627,2758.88 840.833,2759.94C828.495,2764.62 816.093,2769.8 803.371,2772.08C790.34,2784.37 777.519,2797.02 763.999,2808.83C764.831,2808.88 763.72,2808.85 766.057,2809.38C766.057,2809.38 770.058,2810.76 770.779,2813.94C771.49,2817.08 770.778,2820.57 769.029,2823.43L768.337,2823.62C768.337,2823.62 769.626,2819.46 769.812,2816.99C770.006,2814.43 769.176,2811.7 766.356,2810.86C766.356,2810.86 764.416,2810.64 764.416,2810.64C761.61,2811.23 762.126,2810.88 762.126,2810.88L762.105,2810.47C756.061,2815.69 749.871,2820.73 743.454,2825.49C741.722,2827.49 745.61,2830.02 748.276,2830.69C753.676,2832.05 759.452,2829.85 763.887,2826.96L764.287,2826.69C764.287,2826.69 765.186,2826.13 764.897,2827.6C764.695,2827.74 764.491,2827.87 764.287,2828.01C761.263,2829.99 757.883,2831.61 754.358,2832.17C754.886,2832.3 755.313,2832.36 755.894,2832.44C765.784,2833.73 776.075,2830.83 784.156,2827.12C799.003,2820.3 809.944,2807.03 824.076,2796.97C834.029,2789.84 843.471,2782.35 855.05,2776.56C865.993,2771.09 877.261,2766.26 888.004,2760.44C888.077,2760.54 888.15,2760.64 888.223,2760.73C888.69,2761.59 888.769,2762.02 888.659,2762.25L888.936,2762.45C888.936,2762.45 889.02,2762.58 889.02,2762.58C886.697,2766.3 884.344,2770.01 881.946,2773.69L881.746,2773.99C875.954,2782.58 869.942,2791.1 862.439,2798.2C852.588,2807.52 844.484,2818.44 834.484,2829.82C834.049,2830.35 833.922,2830.58 833.922,2830.58C833.922,2830.58 832.417,2832.38 832.417,2832.38C826.05,2838.7 819.776,2845.11 813.649,2851.68L813.1,2852.62C812.954,2852.66 812.807,2852.7 812.66,2852.74C805.001,2860.99 797.577,2869.48 790.497,2878.34C799.266,2879.41 805.07,2891.12 799.891,2900.28C797.656,2904.23 794.177,2907.57 790.143,2909.54C800.687,2907.02 810.194,2899.09 817.608,2891.93C829.772,2880.12 841.46,2867.29 855.199,2856.07L858.226,2853.38C860.207,2851.85 860.989,2851.44 860.989,2851.44C861.636,2850.95 862.286,2850.46 862.935,2849.97C872.655,2842.67 882.686,2835.69 891.885,2827.89C899.485,2821.45 906.201,2813.96 914.471,2808.35C914.471,2808.35 914.595,2808.21 914.75,2808.27C915.085,2808.33 915.089,2808.35 915.424,2808.28C915.424,2808.28 915.48,2808.28 915.563,2808.27L916.05,2808.07C916.184,2808.41 916.317,2808.74 916.451,2809.07C912.653,2818.13 908.869,2827.2 902.721,2834.85C897.091,2841.86 891.324,2848.74 885.407,2855.5L885.449,2855.55L885.306,2855.61C883.48,2857.7 881.641,2859.76 879.787,2861.82C879.787,2861.82 878.841,2863 877.877,2864.21C870.545,2873.33 862.268,2881.66 854.107,2890.07C854.107,2890.07 850.804,2893.34 847.557,2896.79C848.656,2896.33 849.826,2896.07 851.054,2896.15C853.347,2896.31 851.894,2897.24 851.894,2897.24C851.764,2897.24 851.635,2897.25 851.505,2897.26C850.909,2897.3 851.789,2897.19 850.206,2897.39C848.284,2897.65 846.505,2898.51 844.989,2899.81C844.827,2899.95 844.671,2900.07 844.671,2900.07L844.527,2900.07C839.25,2905.85 833.927,2912 832.336,2919.25C832.116,2920.25 832.065,2921.34 832.649,2922.2C835.216,2925.99 840.868,2924.3 843.792,2923.13C849.272,2920.92 852.128,2914.75 855.266,2910.07C855.557,2909.64 856.26,2909.5 856.26,2909.5L856.395,2910.2C852.843,2915.72 849.478,2921.95 843.502,2924.3C847.513,2924.7 851.546,2924.66 855.616,2923.18C859.747,2921.67 863.555,2919.43 867.292,2917.15L868.361,2916.49C877.194,2912.05 884.672,2905.23 891.821,2898.84C908.498,2883.93 924.568,2866.98 940.098,2850.64C946.412,2844.03 954.022,2839.13 960.854,2832.83C962.432,2831.39 964.062,2830 965.842,2828.82C965.918,2828.65 965.994,2828.48 966.068,2828.31C966.068,2828.31 966.312,2828.19 967.067,2827.87C967.162,2828.1 967.257,2828.32 967.352,2828.55C967.352,2828.55 967.331,2828.61 967.294,2828.73C967.308,2828.73 967.322,2828.74 967.336,2828.74L967.002,2829.64L966.989,2829.66C966.641,2830.69 966.092,2832.24 965.556,2833.39C954.464,2857.2 940.149,2880 927.352,2903.01C922.642,2911.44 916.87,2919.32 913.842,2928.64C912.092,2934.15 920.335,2939.5 927.074,2937.43C932.027,2935.91 936.024,2932.33 938.77,2928.11L939.48,2927.92C939.48,2927.92 939.569,2928.93 938.971,2929.8C937.555,2931.86 935.806,2933.75 933.835,2935.29C943.126,2932.16 950.968,2924.68 957.025,2916.53C972.247,2896.04 984.156,2874.06 999.607,2853.44C1001.81,2850.49 1003.69,2847.28 1005.75,2844.3C1005.03,2844.74 1004.31,2845.16 1003.57,2845.56C1003.57,2845.56 1002.36,2845.53 1002.36,2845.53L1002.94,2844.48C1003.13,2844.36 1003.33,2844.24 1003.52,2844.11C1010.94,2839.31 1016.95,2832.6 1023.57,2826.55C1023.57,2826.55 1023.69,2826.46 1023.86,2826.31C1020.57,2825 1018.22,2822.68 1018.39,2819C1018.59,2814.85 1022.32,2811.54 1024.89,2808.63C1027.83,2805.34 1031.18,2802.39 1033.83,2798.92C1036.74,2795.13 1039.41,2791.22 1041.91,2786.86L1041.93,2786.81C1039.12,2786.85 1036.22,2786.65 1033.27,2786.56C1029.15,2786.43 1024.92,2784.75 1021.76,2781.4C1019.48,2778.97 1019.83,2774.35 1024.21,2771.24C1030.51,2766.78 1039.27,2765.81 1044.5,2760.56L1044.74,2760.49C1044.4,2759.46 1044.29,2758.22 1042.85,2757.22C1040.79,2755.73 1042.1,2752.5 1039.68,2750.05C1037.63,2747.92 1040.38,2744.62 1039.73,2742.54C1039.13,2740.63 1037.88,2738.71 1038.78,2736.84C1039.36,2735.62 1040.11,2734.72 1040.07,2733.09C1040.03,2730.44 1043.22,2728.79 1043.54,2727.56C1044.3,2724.72 1042.68,2721.72 1044.38,2718.61C1046.91,2713.98 1052.55,2711.82 1055.9,2708.79C1059.13,2705.92 1063.75,2706.01 1068.44,2706.26C1069.52,2706.31 1070.89,2705.8 1070.89,2705.8C1070.89,2705.8 1074.65,2705.81 1076.2,2705.72C1076.91,2705.69 1077.61,2705.7 1078.31,2705.69C1078.53,2705.68 1078.74,2705.68 1078.95,2705.67C1080.84,2705.57 1082.2,2704.54 1084.8,2705.91C1086.66,2706.86 1089.33,2706.29 1090.97,2708.31C1092.19,2709.82 1092.6,2711.9 1094.04,2713.13C1095.94,2714.75 1099.2,2714.67 1100.51,2717.04C1101.65,2719.09 1100.88,2721.17 1103.75,2723.27C1105.72,2724.76 1104.18,2728.65 1105.55,2730.38C1106.65,2731.73 1106.22,2734.09 1106.08,2734.51C1105.49,2736.42 1108.14,2738.06 1107.96,2741.07C1119.26,2729.49 1124.83,2713.17 1136.11,2702.72C1143.52,2695.87 1152.26,2689.93 1155.79,2680.09C1157.56,2675.17 1158.2,2669.91 1158.3,2664.65C1158.3,2664.65 1158.46,2663.89 1158.46,2663.89L1159.27,2663.08C1159.54,2663.35 1159.81,2663.62 1160.07,2663.89C1160.07,2663.89 1160.23,2666.6 1160.13,2668.58C1159.99,2671.14 1159.64,2673.67 1159.03,2676.13C1159.47,2675.63 1159.91,2675.13 1160.35,2674.63L1160.46,2674.51C1170.06,2664.97 1181.36,2657.33 1189.71,2646.79C1201.48,2631.93 1210.11,2614.33 1224.45,2601.77C1224.45,2601.77 1225.47,2601.37 1226.55,2601.44C1226.55,2601.44 1226.59,2602.9 1225.08,2604.3C1210.02,2618.43 1201.68,2637.69 1187.18,2653.35C1179.47,2661.67 1170.01,2668.27 1162.03,2675.86C1162.03,2675.86 1159.76,2677.86 1158,2679.57C1156.64,2683.4 1154.6,2687.02 1151.72,2690.32C1144.67,2698.4 1135.54,2704.38 1129.09,2713.25C1121.86,2723.22 1116.81,2734.72 1107.63,2743.39L1107.37,2743.41C1107.2,2743.94 1107.08,2744.44 1107.13,2744.92L1107.21,2744.53C1107.28,2744.53 1107.35,2744.53 1107.42,2744.53C1109.83,2745 1112.08,2745.85 1114.28,2747.35C1114.28,2747.35 1118.07,2749.95 1121.1,2752.9C1121.21,2752.64 1121.36,2752.46 1121.55,2752.49C1121.85,2752.58 1122.16,2752.66 1122.47,2752.74C1129.06,2754.39 1136.13,2755.28 1141.38,2759.56C1150.53,2766.99 1155.87,2778.95 1162.59,2788.14C1164.25,2790.42 1165.75,2792.8 1166.92,2795.34C1167.13,2795.31 1167.53,2795.28 1167.77,2795.44C1171.28,2797.75 1173.67,2801.45 1175.76,2805.24C1182.06,2816.65 1182.2,2830.47 1182.94,2843.2C1183.05,2844.95 1183.15,2845.53 1183.35,2846.68C1184.26,2851.91 1186.08,2856.97 1186.57,2862.27C1187.73,2874.78 1188.24,2887.92 1185.18,2898.27C1183.85,2902.79 1181.12,2907.12 1178.86,2911.57C1173.09,2922.9 1167.16,2934.13 1161.37,2945.35L1160.1,2947.78L1159.69,2948.51L1158.99,2948.77C1158.99,2948.77 1160.4,2944.72 1162.11,2941.35L1162.57,2940.43C1169.66,2926.62 1177.59,2913.47 1183.61,2898.94C1186.73,2891.39 1185.45,2882.49 1185.46,2875.38C1185.5,2867.49 1185.14,2859.95 1182.99,2851.46C1180.88,2843.02 1181.3,2834.17 1180.24,2825.59C1178.95,2815.17 1175.62,2804.63 1167.65,2797.08C1168.18,2798.46 1168.61,2799.89 1168.92,2801.38C1168.93,2801.45 1170.17,2805.71 1171.43,2808.93C1174.5,2816.93 1174.65,2826.07 1175.1,2834.98C1175.17,2836.12 1175.2,2836.26 1175.27,2836.85C1175.77,2840.86 1177.08,2844.77 1176.67,2848.88C1176.41,2851.57 1175.49,2849.93 1175.49,2849.93C1175.5,2849.82 1175.51,2849.7 1175.52,2849.58C1175.94,2843.82 1174.09,2838.3 1173.72,2832.33C1173.14,2823.47 1172.46,2814.59 1169.01,2806.3C1167.3,2802.16 1167.06,2797.76 1164.4,2793.6C1161.01,2788.32 1157.2,2783.68 1153.79,2777.41C1151.18,2772.67 1147.31,2768.82 1143.47,2764.25C1141.58,2762.02 1139.34,2760.07 1136.61,2758.79C1132.3,2756.79 1127.55,2756.03 1122.96,2754.79C1129.61,2761.68 1135.99,2768.79 1143.15,2776.53C1143.15,2776.53 1145.03,2778.61 1146.35,2780.19C1148.3,2782.51 1150.39,2784.89 1150.77,2787.58C1153.57,2806.53 1159.72,2825.18 1162.55,2844.21L1162.53,2844.93L1162.08,2845.56L1161.41,2844.86C1161.1,2843.95 1161.16,2843.82 1161.08,2843.34C1157.95,2824.95 1152.57,2806.67 1149.51,2788.3C1148.64,2783.09 1143.73,2779.46 1140.32,2775.87C1133.6,2768.79 1127.39,2761.34 1120.03,2754.13C1118.07,2752.21 1115.9,2750.46 1113.52,2749.12L1110.86,2748.11C1109.92,2747.75 1109.85,2747.75 1109.55,2747.65C1109.04,2747.49 1108.47,2747.32 1107.98,2747.18C1107.87,2748.25 1106.75,2749.2 1107.45,2750.94C1108.34,2753.22 1105.97,2755.13 1105.46,2757.49C1105.13,2759.02 1103.23,2758.97 1102.78,2760.99C1101.98,2764.54 1102.76,2768.81 1099.19,2770.53C1097.83,2771.18 1096.3,2771.51 1096.1,2772.87C1095.84,2774.24 1093.56,2774.2 1092.95,2774.41C1091.92,2774.75 1091.17,2776.16 1089.98,2776.16C1090.01,2776.6 1090.04,2777.03 1090.07,2777.47C1091.68,2777.65 1093.44,2777.94 1093.79,2778.02C1093.89,2778.05 1093.99,2778.07 1094.09,2778.1C1094.23,2778.14 1094.36,2778.18 1094.49,2778.22C1095.04,2778.39 1095.56,2778.61 1096.07,2778.86C1095.96,2778.45 1096.06,2777.69 1096.89,2776.3C1097.61,2775.13 1099.05,2773.73 1099.05,2773.73C1099.29,2773.75 1099.54,2773.77 1099.79,2773.79L1096.58,2779.13C1101.87,2782.07 1105.07,2788.87 1108.31,2793.54C1110.87,2797.27 1112.94,2801.33 1114.93,2805.41C1115.06,2805.69 1115.19,2806.01 1115.31,2806.33C1115.29,2805.64 1115.26,2804.94 1115.24,2804.25C1115.12,2800.13 1115.38,2795.85 1117.42,2792.35C1118.15,2791.1 1118.8,2791.18 1118.8,2791.18C1118.8,2791.18 1117.86,2793.65 1117.32,2795.45C1115.67,2800.92 1116.89,2806.98 1116.72,2812.79C1116.47,2821.09 1115.94,2829.38 1113.6,2837.44C1118.17,2832.2 1122.66,2827.2 1128.12,2824.11C1129.4,2823.39 1128.95,2823.28 1130.5,2823.71L1130.04,2824.58C1129.5,2825.09 1130.6,2824.42 1128.53,2825.7C1120.25,2830.91 1115.06,2839.9 1107.9,2846.74C1104.81,2849.7 1101.42,2852.28 1097.8,2854.64C1097.96,2854.81 1098.12,2854.97 1098.28,2855.14C1099.61,2856.47 1101.19,2857.96 1101.19,2857.96C1102.82,2859.81 1100.71,2859.18 1100.71,2859.18C1089.04,2851.78 1084.92,2835.86 1084.23,2822.17C1083.69,2824.48 1083.32,2826.82 1083.29,2829.22C1083.29,2829.22 1083.18,2830.17 1083.22,2831L1082.75,2831.56L1082.2,2831.09C1082.1,2830.3 1081.98,2829.29 1081.98,2829.29C1081.96,2825.27 1082.93,2821.29 1083.95,2817.37C1084.7,2814.52 1085.27,2812.42 1085.71,2810.67C1085.72,2810.41 1085.8,2810.06 1085.96,2809.58C1085.99,2809.52 1086.01,2809.45 1086.03,2809.39C1086.56,2807.24 1086.9,2805.56 1087.23,2803.37C1089.77,2786.43 1088.73,2769.27 1084.94,2752.28C1084.75,2751.41 1084.54,2750.55 1084.3,2749.69C1084.11,2749.01 1083.9,2748.33 1083.67,2747.66C1083.5,2747.17 1083.31,2746.68 1083.11,2746.19C1082.94,2745.79 1082.77,2745.39 1082.58,2745.01C1081.3,2742.41 1079.06,2739.93 1075.93,2739.76C1068.53,2738.86 1063.58,2747.3 1061.48,2753.62C1057.86,2764.5 1057.69,2776.51 1053.87,2787.32C1045.89,2817.87 1029.26,2845 1014.96,2872.66C1014.93,2872.71 1013.62,2875.26 1013.57,2875.35C1012.33,2877.96 1011.47,2881.69 1010.29,2885.02C1009.35,2887.69 1008.37,2890.36 1007.39,2893.02C1007.32,2893.21 1006.61,2895.04 1006.54,2895.23C999.994,2912.28 993.679,2929.47 990.498,2947.53L989.843,2947.98L989.384,2947.33C992.688,2928.56 999.691,2910.56 1005.93,2892.49C1005.95,2892.43 1006.7,2890.29 1006.72,2890.24C1008.49,2885.2 1010.19,2880.14 1011.75,2875.05L1011.88,2874.65C1014.33,2869.88 1016.86,2865.13 1019.4,2860.38C1019.07,2860.35 1018.7,2860.28 1018.34,2860.12C1013.84,2858.11 1011.94,2852.07 1014.72,2846.97C1018.04,2840.88 1024.77,2837.29 1030.21,2832.61C1032.21,2830.91 1034.43,2829.4 1036.03,2827.39C1035.83,2827.42 1035.53,2827.45 1035.08,2827.5C1032.09,2827.83 1028.7,2827.7 1025.76,2826.93C1025.65,2827.03 1025.54,2827.14 1025.43,2827.24C1020.04,2832.43 1015,2837.81 1008.79,2842.28C1007.98,2843.58 1005.53,2847.48 1003.95,2849.81C999.62,2856.22 994.689,2862.14 990.461,2868.74C979.416,2886.04 969.291,2903.35 956.066,2920.2C950.929,2926.75 944.773,2932.75 937.131,2935.96C934.729,2936.96 932.124,2937.47 929.626,2937.92L929.566,2937.9C925.832,2939.57 921.68,2939.94 917.635,2938.17C913.561,2936.38 910.809,2932.08 912.456,2927.19C915.77,2917.36 922.06,2908.83 926.961,2899.91C939.348,2877.36 952.841,2855.56 964.003,2832.64C964.192,2832.27 964.38,2831.9 964.566,2831.52C959.343,2835.45 954.889,2840.16 949.287,2844.47C942.307,2849.88 936.429,2856.73 930.271,2863.28C919.248,2874.99 908.441,2887.08 896.095,2897.38C887.237,2904.77 879.217,2912.67 869.065,2917.76C863.149,2921.38 857.057,2925.3 850.047,2926.03C846.77,2926.37 843.488,2925.51 840.289,2925.31L840.145,2925.15C839.522,2925.22 838.875,2925.26 838.201,2925.26C837.809,2925.26 837.417,2925.25 837.026,2925.22C836.725,2925.2 836.424,2925.16 836.126,2925.12C835.874,2925.08 835.623,2925.03 835.374,2924.98C832.702,2924.39 830.291,2922.24 831.463,2918.03C834.632,2906.65 844.82,2897.94 851.866,2890.4L852.427,2889.8C861.143,2880.74 870.071,2871.81 877.785,2861.88C877.785,2861.88 878.427,2861.07 879.318,2860.07C880.508,2858.73 881.697,2857.38 882.883,2856.03C880.696,2856 876.822,2856 873.23,2855.91C868.613,2855.81 863.979,2855.45 859.37,2855.89C859.074,2855.91 858.798,2855.93 858.549,2855.94C858.329,2856.1 858.2,2856.19 858.2,2856.19C840.715,2868.56 824.992,2888.33 810.075,2900.59C803.536,2905.96 795.992,2910.54 787.279,2911.37C785.55,2911.54 783.777,2911.55 782.028,2911.42C781.667,2911.41 781.305,2911.39 780.943,2911.36C775.949,2910.98 768.395,2911.09 770.729,2902.84C772.144,2897.84 776.02,2893.8 779.29,2889.91C781.444,2887.33 783.552,2884.72 785.636,2882.09C791.742,2874.38 797.66,2866.55 804.175,2859.2C805.861,2857.3 807.574,2855.42 809.303,2853.56C788.317,2858.28 766.114,2855.15 745.06,2853.25C733.175,2852.17 721.946,2850.24 712.806,2845.34L712.194,2844.09C712.194,2844.09 713.156,2843.71 713.563,2843.93C728.326,2851.75 746.71,2851.26 764.092,2852.69C779.95,2853.98 796.135,2854.9 811.517,2851.2C816.918,2845.47 822.451,2839.86 827.861,2834.12C827.861,2834.12 830.739,2830.82 830.739,2830.82C833.267,2828.12 831.723,2830.1 833.288,2828.27C839.14,2821.42 843.924,2813.64 850.061,2807.06C856.766,2799.86 864.196,2793.72 870.654,2785.72L870.338,2785.49C871.434,2783.08 872.313,2780.68 872.939,2778.2C872.939,2778.2 873.713,2774.94 874.084,2772.13L874.14,2771.64C874.14,2771.64 874.28,2770.67 875.146,2771.75C874.762,2775.24 874.479,2778.74 873.474,2782.02C877.905,2775.92 882.138,2769.68 886.292,2763.4C872.563,2770.6 858.024,2776.14 844.57,2784.46C836.839,2789.25 829.709,2795.12 822.484,2800.29C808.256,2810.58 796.489,2824.8 780.473,2830.22C771.083,2833.39 760.326,2835.47 752.641,2832.78C752.641,2832.78 752.265,2832.64 752.295,2832.38C749.901,2832.47 747.461,2832.02 745.036,2830.83C744.776,2830.7 744.521,2830.56 744.272,2830.42C744.094,2830.31 743.92,2830.2 743.75,2830.08C742.1,2828.93 740.75,2826.64 742.543,2824.51C763.383,2808.62 781.801,2790.54 800.922,2772.48C794.489,2773.44 787.97,2773.61 781.333,2772.55C779.164,2772.21 777.022,2771.7 774.916,2771.06C774.916,2771.06 774.214,2770.42 773.467,2770.09L773.135,2769.44L774.059,2769.17C781.237,2770.33 784.792,2771.04 789.365,2771.1C794.296,2771.15 799.157,2770.61 803.949,2769.66C804.769,2768.99 804.889,2769.23 805.376,2769.25L805.344,2769.38C816.601,2766.98 827.475,2762.49 837.978,2758.69C851.234,2753.86 864.225,2747.5 878.053,2747.22C878.423,2747.22 878.793,2747.22 879.162,2747.22C883.236,2747.26 887.19,2747.89 890.781,2748.98L891.7,2749.32L892.153,2750.15C892.153,2750.15 892.644,2750.49 890.419,2750.2C896.674,2754.8 901.313,2761.46 908.875,2765.31C918.376,2770.14 929.855,2771.44 939.882,2770.02C947.524,2768.93 956.533,2763.09 953.663,2755.27C949.852,2744.87 936.555,2741.09 928.695,2733.9C919.361,2725.36 911.936,2714.77 899.919,2710.69C893.794,2708.61 887.547,2707.08 881.302,2705.33L881.047,2705.39L880.036,2705.05L880.075,2704.98C872.092,2702.7 864.127,2699.99 856.439,2695.25C853.848,2693.65 851.317,2691.95 848.823,2690.21C848.823,2690.21 848.202,2688.33 848.202,2688.33C848.202,2688.33 848.925,2688.14 849.58,2688.3L850.147,2688.26C857.424,2693.33 865.085,2697.88 873.326,2700.95C873.159,2700.5 872.945,2700.07 872.281,2699.04L872.147,2697.64C872.025,2696.08 871.816,2695.97 871.596,2695.26C871.596,2695.26 870.037,2690.63 870.037,2690.63C870.037,2690.63 869.732,2689.65 871,2690.31L872.572,2694.36C872.929,2695.1 872.943,2695.14 873.081,2695.44C873.577,2696.51 873.646,2696.59 874.434,2697.85C874.684,2698.26 874.753,2697.54 874.55,2699.45L874.731,2701.46C875.239,2701.64 875.749,2701.81 876.262,2701.97C876.307,2701.64 876.437,2700.71 876.451,2700.67C876.999,2698.96 876.991,2701.97 877.496,2694.55C877.645,2692.35 877.874,2690.18 877.599,2687.98C877.471,2686.96 878.133,2687.22 878.541,2687.48C879.668,2691.55 878.355,2695.59 878.507,2699.39L878.665,2700.93C878.637,2701.52 878.578,2702.21 878.535,2702.66C879.449,2702.93 880.368,2703.17 881.291,2703.4C882.509,2702.78 883.716,2702.13 884.912,2701.47C893.264,2696.83 900.865,2690.95 907.803,2684.23C900.189,2679.49 891.547,2675.8 882.935,2676.83C877.439,2677.49 872.003,2678.78 866.499,2679.68L863.281,2680.38C855.441,2681.63 847.607,2682.87 839.815,2684.33C836.071,2685.03 832.362,2685.89 828.595,2686.36C821.239,2687.28 813.866,2687.59 806.323,2688.52C783.036,2691.36 759.501,2693.21 736.643,2695.39C729.139,2696.1 721.581,2696.61 714.07,2696.26L712.878,2695.33C712.878,2695.33 713.851,2694.51 713.851,2694.51C729.762,2695.13 745.622,2692.36 761.5,2691.11C778.277,2689.76 795.056,2687.65 811.69,2685.59C819.673,2684.63 827.639,2684.33 835.538,2682.73C844.631,2680.9 853.75,2679.34 862.88,2677.91C863.535,2677.8 864.201,2677.76 864.862,2677.69L866.008,2677.56C872.413,2676.52 878.821,2674.55 885.175,2674.6C893.569,2674.76 901.798,2678.33 909.029,2683.02C910.508,2681.55 911.957,2680.04 913.375,2678.5C914.161,2677.65 914.958,2676.81 915.777,2675.99C915.819,2675.48 916.068,2676.01 915.617,2675.01C915.617,2675.01 916.311,2672.73 916.525,2671.32C916.597,2670.85 916.658,2670.37 916.703,2669.89C916.869,2668.13 916.787,2666.35 916.644,2664.58C902.278,2654.96 882.076,2663.08 868.044,2663.56C862.556,2663.74 857.129,2662.9 851.607,2662.83C838.928,2662.71 826.144,2663.26 814.144,2657.24C807.654,2653.98 802.006,2648.69 800.277,2641.57L800.714,2640.64C800.41,2640.46 800.112,2640.26 799.819,2640.05C799.819,2640.05 792.309,2633.12 798.776,2630.35C798.776,2630.35 805.559,2629.93 810.277,2629.89C811.364,2629.88 812.451,2629.88 813.538,2629.87C822.944,2629.75 832.718,2628.33 840.515,2623.69C843.928,2621.66 846.959,2619.35 851.417,2618.36C858.252,2616.83 865.273,2616.46 872.273,2616.05C880.555,2615.56 888.839,2615.04 896.658,2612.13C911.715,2607.15 927.724,2605.19 943.721,2605.32C948.045,2605.35 952.366,2605.5 956.688,2605.61C956.688,2605.61 963.187,2605.92 968.844,2605.57C979.16,2604.95 989.449,2603.4 999.692,2601.77L1000.2,2601.69C1003.41,2601.21 1006.62,2600.72 1009.83,2600.24C1013.55,2599.69 1017.27,2599.16 1021,2598.68C1021,2598.68 1025.11,2598.24 1028.11,2597.9C1037.21,2596.9 1046.55,2597.73 1055.45,2595.64C1055.45,2595.64 1055.63,2595.66 1055.88,2595.73ZM938.973,2916.61C938.819,2916.14 938.648,2915.67 938.457,2915.21C938.323,2914.89 938.178,2914.57 938.023,2914.26C936.331,2910.84 932.629,2908 928.215,2909.46C927.281,2909.77 926,2910.42 926,2910.42L925.265,2910.21C925.265,2910.21 923.861,2909.21 928.928,2908.08C931.012,2907.62 933.256,2907.91 935.093,2909.07C937.627,2910.67 939.144,2913.48 940.049,2916.25C940.049,2916.25 939.715,2917.05 939.715,2917.05C939.715,2917.05 939.047,2916.83 938.973,2916.61ZM789.425,2879.68C783.548,2887.02 775.967,2893.46 772.461,2901.76C770.936,2905.38 770.9,2909.56 778.176,2909.94C780.01,2910.03 781.856,2910.29 783.626,2910.14C794.334,2909.24 804.46,2896.91 799.123,2886.61C797.21,2882.92 793.876,2879.72 789.567,2879.53C789.567,2879.53 789.476,2879.62 789.425,2879.68ZM1035.35,2829.98C1029.85,2835.17 1022.8,2838.79 1017.62,2844.97C1014.11,2849.16 1012.5,2856.98 1019.87,2859.5C1025.12,2849.71 1030.44,2839.92 1035.35,2829.98ZM913.871,2811.21C912.498,2812.35 910.624,2813.93 908.859,2815.44C900.839,2822.31 893.427,2829.64 884.707,2836.2C877.252,2841.82 869.529,2847.28 862.319,2852.89L860.562,2854.4C861.84,2854.32 863.121,2854.3 864.395,2854.3C870.337,2854.33 876.259,2854.44 882.232,2854.67C882.887,2854.7 883.494,2854.75 883.963,2854.81C890.666,2847.16 897.25,2839.39 903.393,2831.39C908.041,2825.34 910.921,2818.14 913.871,2811.21ZM1090.72,2804.56C1089.7,2805.71 1088.71,2806.88 1087.95,2808.2C1087.57,2809.96 1087.13,2811.72 1086.63,2813.48C1086.24,2814.89 1085.82,2816.28 1085.42,2817.67C1085.49,2819.65 1085.67,2823.66 1086.08,2827.31C1086.47,2830.76 1087.15,2834.21 1088.16,2837.54C1089.82,2834.91 1092.92,2833.31 1094.05,2830.02C1095.31,2826.34 1095.03,2822.77 1095.55,2817.46C1095.55,2817.46 1095.6,2816.02 1096.59,2817.13C1096.33,2824.03 1096.1,2830.59 1091.63,2835.77C1090.49,2837.12 1089.19,2839.33 1089.19,2839.33L1088.8,2839.49C1090.58,2844.63 1093.19,2849.45 1096.78,2853.53C1097.07,2853.33 1097.36,2853.13 1097.65,2852.92C1098.05,2852.64 1098.45,2852.35 1098.86,2852.07C1099.01,2851.96 1099.16,2851.85 1099.32,2851.74L1099.3,2851.56C1099.34,2851.35 1099.28,2851.49 1099.31,2851.5C1099.31,2851.5 1099.31,2851.5 1099.31,2851.5C1099.35,2851.51 1099.6,2851.19 1100.84,2848.49C1101.48,2847.08 1101.95,2845.6 1102.23,2844.08C1102.23,2844.08 1102.43,2843.12 1103.23,2844.25C1102.93,2846.16 1102.48,2848.09 1101.7,2849.86C1103.3,2848.51 1104.82,2847.07 1106.29,2845.57C1106.23,2845.44 1106.17,2845.32 1106.12,2845.19C1104.29,2841.39 1101.23,2838.65 1097.81,2836.27C1097.81,2836.27 1096.77,2835.61 1098.2,2835.3C1098.25,2835.34 1098.31,2835.38 1098.37,2835.41C1101.92,2837.59 1104.78,2840.71 1107.27,2843.98L1107.46,2844.35C1108.83,2842.89 1110.15,2841.4 1111.46,2839.9C1111.56,2839.46 1111.69,2838.94 1111.87,2838.34C1113.45,2832.86 1114.33,2827.19 1114.83,2821.47C1114.79,2821.43 1114.75,2821.37 1114.72,2821.31C1111.15,2814.58 1103.35,2811.33 1097.46,2808.6C1095.09,2807.49 1092.77,2806.27 1090.72,2804.56ZM1053.1,2784.43C1052.76,2784.58 1052.41,2784.73 1052.07,2784.88C1051.84,2784.98 1051.61,2785.08 1051.38,2785.17C1048.81,2786.23 1046.09,2786.64 1043.28,2786.77C1042.82,2787.75 1042.05,2789.28 1041.21,2790.52C1040.69,2791.27 1040.17,2792.02 1039.66,2792.78C1039.03,2793.72 1039.01,2793.77 1038.76,2794.16C1034.12,2801.56 1027.34,2808.02 1022.18,2814.08C1020.43,2816.17 1019.2,2819.03 1020.48,2821.51C1021.52,2823.52 1023.3,2824.7 1025.33,2825.39L1026.17,2825.44L1026.15,2825.64C1028.35,2826.24 1030.75,2826.34 1032.79,2826.35C1034.27,2826.37 1036.38,2826.09 1036.38,2826.09L1036.77,2826.35C1036.82,2826.28 1036.86,2826.22 1036.9,2826.15L1037.29,2826C1043.38,2813.32 1048.71,2800.37 1052.31,2786.83C1052.6,2786.04 1052.86,2785.24 1053.1,2784.43ZM1090.15,2778.97C1090.6,2787.58 1090.2,2796.25 1088.63,2804.86C1091.09,2801.57 1094.28,2798.6 1095.83,2794.39C1095.83,2794.39 1096.18,2793.46 1096.79,2794.72C1096.18,2796.55 1094.98,2799.11 1094.98,2799.11C1094.1,2800.75 1092.89,2802.15 1091.65,2803.52C1091.67,2803.54 1091.69,2803.56 1091.71,2803.58C1097.79,2808.26 1105.5,2809.9 1111.07,2815.33C1112.44,2816.66 1113.89,2817.97 1114.99,2819.49C1115.2,2816.6 1115.32,2813.7 1115.39,2810.81C1115.4,2810.31 1115.41,2809.92 1115.41,2809.59C1114.66,2808.05 1112.57,2803.76 1111.33,2801.33C1108.42,2795.75 1104.9,2790.51 1101.17,2785.42C1099.24,2782.79 1096.92,2780.21 1093.55,2779.45C1092.5,2779.22 1091.16,2779.07 1090.15,2778.97ZM998.194,2785.01C998.647,2785.87 999.156,2786.71 999.733,2787.53L1000.25,2788.47L1000.17,2789.24L999.13,2788.89C994.926,2784.01 993.629,2777.58 992.475,2771.44C990.645,2761.91 981.415,2755.5 978.57,2746.76C976.767,2741.21 977.136,2735.52 975.24,2729.25C972.509,2720.21 969.242,2711.53 969.925,2701.28C970.322,2695.33 971.432,2689.37 970.867,2683.51C970.291,2677.53 968.654,2671.85 966.662,2666.87C966.662,2666.87 966.294,2665.91 967.644,2666.46C968.898,2669.31 970.177,2672.14 971.573,2674.91L971.6,2674.96C971.776,2675.53 971.929,2676.11 972.06,2676.69C973.116,2676.44 972.813,2676.94 972.946,2677.26C976.623,2685.95 980.059,2694.76 984.575,2703.03C985.923,2705.5 987.526,2707.82 989.06,2710.19C989.06,2710.19 991.422,2714.16 992.533,2716.14C995.749,2721.9 998.198,2728.15 998.035,2734.89C997.959,2739.08 1001.41,2742.59 1001.2,2746.91C1000.88,2753.2 995.994,2758.2 995.427,2764.33C994.829,2770.79 996.161,2777.6 997.693,2783.39C997.967,2784.38 998.021,2784.5 998.197,2785.01L998.194,2785.01ZM1045.41,2761.64C1038.66,2768.43 1026.38,2767.83 1021.87,2775.9C1019.8,2779.6 1025.66,2784.07 1030.78,2785.05C1034.68,2785.8 1038.63,2785.4 1042.7,2785.5C1042.74,2785.43 1042.76,2785.39 1042.76,2785.39C1042.76,2785.39 1043.11,2784.59 1043.61,2785.53C1047.05,2785.62 1050.35,2784.4 1053.49,2783.07C1054.48,2779.49 1055.14,2775.81 1055.77,2772.07C1055.72,2772.05 1055.67,2772.03 1055.62,2772.01C1054.35,2771.52 1053.17,2771.41 1051.6,2769.89C1050.67,2769 1051.07,2767.6 1049.68,2767.13C1047.62,2766.35 1047.51,2763.09 1046.29,2762.25C1046.08,2762.11 1045.87,2761.98 1045.66,2761.84C1045.57,2761.78 1045.49,2761.71 1045.41,2761.64ZM1106.54,2742.46C1106.84,2741.52 1107.1,2740.55 1106.93,2739.64C1106.6,2737.88 1103.76,2737.46 1105.41,2733.25C1105.98,2731.72 1104.17,2730.88 1103.96,2729.17C1103.72,2727.11 1104.87,2725.36 1101.94,2723.34C1100.19,2722.1 1100.61,2719.4 1099.59,2717.55C1098.02,2714.71 1093.77,2715.56 1091.71,2711.71C1091.07,2710.46 1090.51,2709.09 1089.47,2708.3C1087.79,2707.02 1085.59,2707.51 1083.7,2706.51C1081.63,2705.45 1079.42,2706.52 1075.88,2706.8C1074.57,2706.91 1073.59,2706.21 1071.54,2706.78C1071.54,2706.78 1068.02,2707.2 1064.98,2707.28C1061.64,2707.39 1058.36,2707.96 1055.67,2710.43C1055.55,2710.54 1055.42,2710.65 1055.3,2710.76C1051.16,2714.26 1044.1,2716.23 1044.53,2722.88C1044.69,2725.45 1045.23,2728.06 1042.69,2729.94C1040.81,2731.37 1041.38,2734.39 1040.63,2735.71C1039.64,2737.46 1039.46,2739.15 1040.39,2741.3C1041.71,2744.4 1038.54,2747.37 1040.55,2749.39C1042.57,2751.38 1041.6,2755.07 1043.62,2756.43C1045.92,2757.93 1045.69,2760.05 1047.39,2761.72C1048.69,2762.99 1048.3,2765.66 1050.4,2766.17C1050.4,2766.17 1051.51,2766.72 1052.03,2768.44C1052.4,2769.61 1053.95,2769.32 1055.53,2770.67C1055.67,2770.78 1055.82,2770.87 1055.96,2770.94C1057.21,2763.43 1058.44,2755.72 1061.97,2748.16C1062.23,2747.61 1062.5,2747.06 1062.79,2746.52C1065.16,2742.12 1069.09,2738.29 1074.15,2738.14C1074.29,2738.14 1074.43,2738.14 1074.57,2738.14C1076.53,2738.16 1078.51,2738.48 1080.15,2739.6C1085.07,2742.96 1086.04,2749.54 1087.03,2754.9C1087.3,2756.32 1087.53,2757.75 1087.77,2759.18C1087.87,2759.77 1087.96,2760.35 1088.06,2760.94C1088.88,2765.63 1089.51,2770.35 1089.89,2775.1C1090.85,2775.22 1091.14,2773.26 1094.1,2773.22C1094.65,2773.21 1094.86,2773.26 1095.05,2772.01C1095.46,2769.88 1099.05,2770.2 1100.37,2768.01C1101.89,2765.47 1100.65,2761.92 1102.23,2759.1C1102.78,2758.13 1104.13,2758.95 1104.46,2755.94C1104.72,2753.99 1107.26,2753.23 1106.02,2750.54C1105.29,2748.86 1107.5,2747.64 1106.37,2746.26C1105.59,2745.25 1106.07,2743.92 1106.51,2742.54L1106.51,2742.48L1106.54,2742.46ZM972.743,2683.55C972.719,2692.25 970.067,2701.61 971.908,2712.19C973.218,2719.71 976.651,2726.71 978.106,2734.22C979.156,2739.63 978.978,2745.37 981.812,2750.12C985.705,2756.63 991.815,2761.78 993.604,2769.51C993.63,2769.62 993.655,2769.73 993.681,2769.84C993.442,2766.12 993.772,2762.49 995.061,2759.2C997.275,2753.55 1001.68,2748.09 998.532,2742.04C997.838,2740.73 997.045,2739.46 996.706,2738.03C996.024,2735.17 996.746,2732.3 996.109,2729.27C995.214,2725.02 993.412,2720.97 991.297,2717.17C991.297,2717.17 989.652,2714.43 987.835,2711.79L987.7,2711.6C984.753,2707.05 981.808,2702.51 979.168,2697.72C976.67,2693.18 974.633,2688.4 972.743,2683.55ZM1003.8,2746.64C1003.68,2748.99 1002.98,2751.27 1002.14,2753.45L1001.77,2754.35L1001.1,2754.68C1001.1,2754.68 1001.75,2751.56 1002.32,2749.15C1002.56,2748.13 1002.7,2746.58 1002.7,2746.58C1002.7,2746.58 1002.79,2745.52 1003.8,2746.64ZM970.325,2725.89C971.775,2731.6 974.155,2737.05 975.366,2742.82C975.366,2742.82 975.452,2743.3 975.516,2743.69L975.1,2744.3C975.1,2744.3 973.977,2741.34 973.258,2738.88C972.021,2734.64 970.41,2730.51 969.334,2726.24C969.334,2726.24 969.073,2725.15 970.325,2725.89ZM993.045,2710.51C993.245,2710.86 993.447,2711.21 993.649,2711.57C997.646,2718.5 1002.25,2725.63 1002.2,2733.85L1002.16,2734.51L1001.65,2735.02L1001.13,2734.07C1001.06,2733.42 1001.11,2733.41 1001.09,2733.02C1000.59,2725.19 996.065,2718.13 992.186,2711.1C992.186,2711.1 991.643,2710.11 993.045,2710.51ZM969.607,2693.8C969.702,2694.28 969.807,2694.29 969.807,2694.29C969.836,2701.39 967.624,2708.68 969.067,2715.8C969.089,2715.95 969.113,2716.09 969.138,2716.24C969.26,2716.9 969.268,2717.1 969.268,2717.1L968.906,2717.77L968.114,2717.1C965.944,2710 968.039,2702.1 968.356,2694.67C968.389,2693.79 968.575,2693.8 968.575,2693.8C968.575,2693.8 968.61,2692.8 969.607,2693.8ZM981.857,2691.06C984.644,2694.59 987.89,2697.95 989.06,2702.32C989.227,2702.95 988.788,2703.45 988.788,2703.45C988.788,2703.45 988.303,2703.47 987.633,2701.68C986.193,2697.98 983.47,2694.94 981.063,2691.73C981.063,2691.73 980.435,2690.88 981.857,2691.06Z"/>
            </g>
        </g>
    </g>
</svg>
