<?xml version="1.0" encoding="UTF-8" standalone="no"?>
<!DOCTYPE svg PUBLIC "-//W3C//DTD SVG 1.1//EN" "http://www.w3.org/Graphics/SVG/1.1/DTD/svg11.dtd">
<svg width="100%" height="100%" viewBox="0 0 515 415" version="1.1" xmlns="http://www.w3.org/2000/svg" xmlns:xlink="http://www.w3.org/1999/xlink" xml:space="preserve" xmlns:serif="http://www.serif.com/" style="fill-rule:evenodd;clip-rule:evenodd;stroke-linejoin:round;stroke-miterlimit:2;">
    <g transform="matrix(1,0,0,1,-2964.19,-2539.44)">
        <g transform="matrix(0.542969,0,0,0.605556,2882,2539)">
            <g transform="matrix(1.84173,0,0,1.65138,-1160.29,-4184.59)">
                <path d="M1226.55,2601.44C1226.55,2601.44 1226.59,2602.9 1225.08,2604.3C1210.02,2618.43 1201.68,2637.69 1187.18,2653.35C1179.47,2661.67 1170.01,2668.27 1162.03,2675.86C1162.03,2675.86 1158.73,2678.76 1157.02,2680.57L1156.1,2680.64C1156.1,2680.64 1156.06,2680.03 1156.05,2679.72C1157.43,2678 1158.86,2676.29 1160.35,2674.63L1160.46,2674.51C1170.06,2664.97 1181.36,2657.33 1189.71,2646.79C1201.48,2631.93 1210.11,2614.33 1224.45,2601.77C1224.45,2601.77 1225.47,2601.37 1226.55,2601.44Z"/>
            </g>
        </g>
        <g transform="matrix(0.542969,0,0,0.605556,2882,2539)">
            <g transform="matrix(1.84173,0,0,1.65138,-1160.29,-4184.59)">
                <path d="M1160.07,2663.89C1160.07,2663.89 1160.23,2666.6 1160.13,2668.58C1159.71,2676.45 1157.24,2683.98 1151.72,2690.32C1144.67,2698.4 1135.54,2704.38 1129.09,2713.25C1121.86,2723.22 1116.81,2734.72 1107.63,2743.39L1106.48,2743.49L1106.51,2742.48C1106.74,2742.26 1106.97,2742.05 1107.2,2741.83C1107.33,2741.7 1107.47,2741.56 1107.6,2741.43C1119.14,2729.83 1124.71,2713.28 1136.11,2702.72C1143.52,2695.87 1152.26,2689.93 1155.79,2680.09C1157.56,2675.17 1158.2,2669.91 1158.3,2664.65C1158.3,2664.65 1158.46,2663.89 1158.46,2663.89L1159.27,2663.08C1159.54,2663.35 1159.81,2663.62 1160.07,2663.89Z"/>
            </g>
        </g>
        <g transform="matrix(0.542969,0,0,0.605556,2882,2539)">
            <g transform="matrix(1.84173,0,0,1.65138,-1160.29,-4184.59)">
                <path d="M1089.67,2775.04C1090.82,2775.52 1090.92,2773.26 1094.1,2773.22C1094.65,2773.21 1094.86,2773.26 1095.05,2772.01C1095.46,2769.88 1099.05,2770.2 1100.37,2768.01C1101.89,2765.47 1100.65,2761.92 1102.23,2759.1C1102.78,2758.13 1104.13,2758.95 1104.46,2755.94C1104.72,2753.99 1107.26,2753.23 1106.02,2750.54C1105.29,2748.86 1107.5,2747.64 1106.37,2746.26C1105.04,2744.55 1107.36,2741.91 1106.93,2739.64C1106.6,2737.88 1103.76,2737.46 1105.41,2733.25C1105.98,2731.72 1104.17,2730.88 1103.96,2729.17C1103.72,2727.11 1104.87,2725.36 1101.94,2723.34C1100.19,2722.1 1100.61,2719.4 1099.59,2717.55C1098.02,2714.71 1093.77,2715.56 1091.71,2711.71C1091.07,2710.46 1090.51,2709.09 1089.47,2708.3C1087.79,2707.02 1085.59,2707.51 1083.7,2706.51C1081.63,2705.45 1079.42,2706.52 1075.88,2706.8C1074.57,2706.91 1073.59,2706.21 1071.54,2706.78C1071.54,2706.78 1068.02,2707.2 1064.98,2707.28C1061.64,2707.39 1058.36,2707.96 1055.67,2710.43C1055.55,2710.54 1055.42,2710.65 1055.3,2710.76C1051.16,2714.26 1044.1,2716.23 1044.53,2722.88C1044.69,2725.45 1045.23,2728.06 1042.69,2729.94C1040.81,2731.37 1041.38,2734.39 1040.63,2735.71C1039.64,2737.46 1039.46,2739.15 1040.39,2741.3C1041.71,2744.4 1038.54,2747.37 1040.55,2749.39C1042.57,2751.38 1041.6,2755.07 1043.62,2756.43C1045.92,2757.93 1045.69,2760.05 1047.39,2761.72C1048.69,2762.99 1048.3,2765.66 1050.4,2766.17C1050.4,2766.17 1051.51,2766.72 1052.03,2768.44C1052.4,2769.61 1053.95,2769.32 1055.53,2770.67C1056.03,2771.07 1056.66,2771.18 1056.66,2771.18C1056.66,2771.18 1058.4,2773.08 1055.62,2772.01C1054.35,2771.52 1053.17,2771.41 1051.6,2769.89C1050.67,2769 1051.07,2767.6 1049.68,2767.13C1047.62,2766.35 1047.51,2763.09 1046.29,2762.25C1046.08,2762.11 1045.87,2761.98 1045.66,2761.84C1044.16,2760.8 1045.03,2758.73 1042.85,2757.22C1040.79,2755.73 1042.1,2752.5 1039.68,2750.05C1037.63,2747.92 1040.38,2744.62 1039.73,2742.54C1039.13,2740.63 1037.88,2738.71 1038.78,2736.84C1039.36,2735.62 1040.11,2734.72 1040.07,2733.09C1040.03,2730.44 1043.22,2728.79 1043.54,2727.56C1044.3,2724.72 1042.68,2721.72 1044.38,2718.61C1046.91,2713.98 1052.55,2711.82 1055.9,2708.79C1059.13,2705.92 1063.75,2706.01 1068.44,2706.26C1069.52,2706.31 1070.89,2705.8 1070.89,2705.8C1070.89,2705.8 1074.65,2705.81 1076.2,2705.72C1076.91,2705.69 1077.61,2705.7 1078.31,2705.69C1078.53,2705.68 1078.74,2705.68 1078.95,2705.67C1080.84,2705.57 1082.2,2704.54 1084.8,2705.91C1086.66,2706.86 1089.33,2706.29 1090.97,2708.31C1092.19,2709.82 1092.6,2711.9 1094.04,2713.13C1095.94,2714.75 1099.2,2714.67 1100.51,2717.04C1101.65,2719.09 1100.88,2721.17 1103.75,2723.27C1105.72,2724.76 1104.18,2728.65 1105.55,2730.38C1106.65,2731.73 1106.22,2734.09 1106.08,2734.51C1105.42,2736.66 1108.85,2738.46 1107.75,2742.25C1107.33,2743.64 1106.68,2744.85 1107.56,2745.92C1108.93,2747.66 1106.49,2748.56 1107.45,2750.94C1108.34,2753.22 1105.97,2755.13 1105.46,2757.49C1105.13,2759.02 1103.23,2758.97 1102.78,2760.99C1101.98,2764.54 1102.76,2768.81 1099.19,2770.53C1097.83,2771.18 1096.3,2771.51 1096.1,2772.87C1095.84,2774.24 1093.56,2774.2 1092.95,2774.41C1091.71,2774.82 1090.88,2776.77 1089.19,2775.98C1089.19,2775.98 1088.23,2775.49 1089.61,2775.01C1089.64,2775.02 1089.64,2775.02 1089.67,2775.04ZM1056.33,2771.54C1056.27,2772.41 1056.56,2771.01 1056.33,2771.54Z"/>
            </g>
        </g>
        <g transform="matrix(0.542969,0,0,0.605556,2882,2539)">
            <g transform="matrix(1.84173,0,0,1.65138,-1160.29,-4184.59)">
                <path d="M1054.85,2783.09L1054.56,2783.8C1054.26,2783.93 1053.96,2784.06 1053.66,2784.19C1053.13,2784.42 1052.6,2784.65 1052.07,2784.88C1051.84,2784.98 1051.61,2785.08 1051.38,2785.17C1045.85,2787.43 1039.67,2786.76 1033.27,2786.56C1029.15,2786.43 1024.92,2784.75 1021.76,2781.4C1019.48,2778.97 1019.83,2774.35 1024.21,2771.24C1030.51,2766.78 1039.27,2765.81 1044.5,2760.56L1045.85,2760.12C1045.85,2760.12 1045.61,2761.44 1045.61,2761.44C1038.91,2768.45 1026.42,2767.75 1021.87,2775.9C1019.8,2779.6 1025.66,2784.07 1030.78,2785.05C1034.93,2785.85 1039.13,2785.34 1043.47,2785.52C1047.12,2785.65 1050.6,2784.31 1053.91,2782.89L1054.85,2783.09Z"/>
            </g>
        </g>
        <g transform="matrix(0.542969,0,0,0.605556,2882,2539)">
            <g transform="matrix(1.84173,0,0,1.65138,-1160.29,-4184.59)">
                <path d="M1043.73,2785.78C1043.73,2785.78 1042.56,2788.54 1041.21,2790.52C1040.69,2791.27 1040.17,2792.02 1039.66,2792.78C1039.03,2793.72 1039.01,2793.77 1038.76,2794.16C1034.12,2801.56 1027.34,2808.02 1022.18,2814.08C1020.43,2816.17 1019.2,2819.03 1020.48,2821.51C1022.76,2825.91 1028.56,2826.32 1032.79,2826.35C1034.27,2826.37 1036.38,2826.09 1036.38,2826.09L1037.08,2826.55L1036.6,2827.24C1036.14,2827.36 1037.1,2827.28 1035.08,2827.5C1027.77,2828.31 1018.05,2826.36 1018.39,2819C1018.59,2814.85 1022.32,2811.54 1024.89,2808.63C1027.83,2805.34 1031.18,2802.39 1033.83,2798.92C1036.74,2795.13 1039.41,2791.22 1041.91,2786.86C1042.29,2786.19 1042.76,2785.39 1042.76,2785.39C1042.76,2785.39 1043.17,2784.46 1043.73,2785.78Z"/>
            </g>
        </g>
        <g transform="matrix(0.542969,0,0,0.605556,2882,2539)">
            <g transform="matrix(1.84173,0,0,1.65138,-1160.29,-4184.59)">
                <path d="M1038.01,2826.62C1038.01,2826.62 1036.7,2828.7 1035.41,2829.93C1029.9,2835.14 1022.82,2838.77 1017.62,2844.97C1014.07,2849.21 1012.46,2857.17 1020.15,2859.59L1020.52,2860.29C1020.52,2860.29 1019.39,2860.59 1018.34,2860.12C1013.84,2858.11 1011.94,2852.07 1014.72,2846.97C1018.04,2840.88 1024.77,2837.29 1030.21,2832.61C1032.6,2830.58 1035.31,2828.81 1036.9,2826.15L1037.79,2825.81C1037.86,2826.08 1037.94,2826.35 1038.01,2826.62Z"/>
            </g>
        </g>
        <g transform="matrix(0.542969,0,0,0.605556,2882,2539)">
            <g transform="matrix(1.84173,0,0,1.65138,-1160.29,-4184.59)">
                <path d="M1085.38,2816.41C1085.38,2816.41 1085.51,2822.21 1086.08,2827.31C1087.24,2837.59 1090.97,2847.77 1098.28,2855.14C1099.61,2856.47 1101.19,2857.96 1101.19,2857.96C1102.82,2859.81 1100.71,2859.18 1100.71,2859.18C1087.59,2850.86 1084.01,2831.78 1084.12,2817.19L1084.22,2816.41L1084.8,2815.83C1085,2816.03 1085.19,2816.22 1085.38,2816.41Z"/>
            </g>
        </g>
        <g transform="matrix(0.542969,0,0,0.605556,2882,2539)">
            <g transform="matrix(1.84173,0,0,1.65138,-1160.29,-4184.59)">
                <path d="M1130.5,2823.71L1130.04,2824.58C1129.5,2825.09 1130.6,2824.42 1128.53,2825.7C1120.25,2830.91 1115.06,2839.9 1107.9,2846.74C1104.65,2849.85 1101.07,2852.55 1097.24,2855C1097.24,2855 1097.26,2855.22 1095.97,2854.97L1096.3,2853.87C1096.75,2853.56 1097.19,2853.24 1097.65,2852.92C1098.05,2852.64 1098.45,2852.35 1098.86,2852.07C1110.23,2843.96 1117.26,2830.25 1128.12,2824.11C1129.4,2823.39 1128.95,2823.28 1130.5,2823.71Z"/>
            </g>
        </g>
        <g transform="matrix(0.542969,0,0,0.605556,2882,2539)">
            <g transform="matrix(1.84173,0,0,1.65138,-1160.29,-4184.59)">
                <path d="M1118.8,2791.18C1118.8,2791.18 1117.86,2793.65 1117.32,2795.45C1115.67,2800.92 1116.89,2806.98 1116.72,2812.79C1116.43,2822.24 1115.79,2831.68 1112.52,2840.78C1112.33,2841.33 1112.04,2841.99 1112.04,2841.99L1111.25,2842.36C1111.25,2842.36 1110.91,2841.63 1111.87,2838.34C1114.43,2829.45 1115.15,2820.1 1115.39,2810.81C1115.43,2808.99 1115.39,2808.55 1115.36,2807.45C1115.32,2806.38 1115.27,2805.31 1115.24,2804.25C1115.12,2800.13 1115.38,2795.85 1117.42,2792.35C1118.15,2791.1 1118.8,2791.18 1118.8,2791.18Z"/>
            </g>
        </g>
        <g transform="matrix(0.542969,0,0,0.605556,2882,2539)">
            <g transform="matrix(1.84173,0,0,1.65138,-1160.29,-4184.59)">
                <path d="M1096.79,2794.72C1096.18,2796.55 1094.98,2799.11 1094.98,2799.11C1092.72,2803.32 1088.22,2805.95 1086.88,2810.72C1086.8,2811.01 1086.67,2811.28 1086.67,2811.28C1086.67,2811.28 1085.11,2812.02 1085.96,2809.58C1087.92,2803.99 1093.58,2800.48 1095.83,2794.39C1095.83,2794.39 1096.18,2793.46 1096.79,2794.72Z"/>
            </g>
        </g>
        <g transform="matrix(0.542969,0,0,0.605556,2882,2539)">
            <g transform="matrix(1.84173,0,0,1.65138,-1160.29,-4184.59)">
                <path d="M1091.07,2803.22C1091.64,2803.42 1091.58,2803.48 1091.71,2803.58C1097.79,2808.26 1105.5,2809.9 1111.07,2815.33C1112.91,2817.12 1114.89,2818.86 1115.96,2821.11L1115.68,2821.91C1115.68,2821.91 1114.97,2821.8 1114.72,2821.31C1111.15,2814.58 1103.35,2811.33 1097.46,2808.6C1094.99,2807.45 1092.57,2806.16 1090.45,2804.33C1090.45,2804.33 1090.21,2803.22 1090.21,2803.22C1090.21,2803.22 1090.83,2803.1 1091.07,2803.22Z"/>
            </g>
        </g>
        <g transform="matrix(0.542969,0,0,0.605556,2882,2539)">
            <g transform="matrix(1.84173,0,0,1.65138,-1160.29,-4184.59)">
                <path d="M1096.59,2817.13C1096.33,2824.03 1096.1,2830.59 1091.63,2835.77C1090.49,2837.12 1089.19,2839.33 1089.19,2839.33L1088.05,2839.8L1087.58,2838.67C1088.94,2835.32 1092.76,2833.75 1094.05,2830.02C1095.31,2826.34 1095.03,2822.77 1095.55,2817.46C1095.55,2817.46 1095.6,2816.02 1096.59,2817.13Z"/>
            </g>
        </g>
        <g transform="matrix(0.542969,0,0,0.605556,2882,2539)">
            <g transform="matrix(1.84173,0,0,1.65138,-1160.29,-4184.59)">
                <path d="M1098.37,2835.41C1101.92,2837.59 1104.78,2840.71 1107.27,2843.98C1107.27,2843.98 1108.07,2845.55 1108.07,2845.55L1107.62,2846.63L1106.54,2846.17C1106.41,2845.84 1106.27,2845.51 1106.12,2845.19C1104.29,2841.39 1101.23,2838.65 1097.81,2836.27C1097.81,2836.27 1096.77,2835.61 1098.2,2835.3C1098.25,2835.34 1098.31,2835.38 1098.37,2835.41Z"/>
            </g>
        </g>
        <g transform="matrix(0.542969,0,0,0.605556,2882,2539)">
            <g transform="matrix(1.84173,0,0,1.65138,-1160.29,-4184.59)">
                <path d="M1103.23,2844.25C1102.81,2846.94 1102.08,2849.65 1100.6,2851.93C1100.6,2851.93 1099.4,2852.43 1099.4,2852.43L1099.3,2851.56C1099.4,2851.01 1098.84,2852.86 1100.84,2848.49C1101.48,2847.08 1101.95,2845.6 1102.23,2844.08C1102.23,2844.08 1102.43,2843.12 1103.23,2844.25Z"/>
            </g>
        </g>
        <g transform="matrix(0.542969,0,0,0.605556,2882,2539)">
            <g transform="matrix(1.84173,0,0,1.65138,-1160.29,-4184.59)">
                <path d="M1089.01,2777.36C1090.82,2777.51 1093.36,2777.92 1093.79,2778.02C1093.89,2778.05 1093.99,2778.07 1094.09,2778.1C1094.23,2778.14 1094.36,2778.18 1094.49,2778.22C1101.07,2780.34 1104.66,2788.28 1108.31,2793.54C1110.87,2797.27 1112.94,2801.33 1114.93,2805.41C1115.67,2806.97 1116.23,2809.43 1116.23,2809.43L1115.68,2810.16C1115.68,2810.16 1112.86,2804.32 1111.33,2801.33C1108.42,2795.75 1104.9,2790.51 1101.17,2785.42C1099.24,2782.79 1096.92,2780.21 1093.55,2779.45C1091.61,2779.02 1088.68,2778.86 1088.68,2778.86C1088.68,2778.86 1088.56,2777.32 1089.01,2777.36Z"/>
            </g>
        </g>
        <g transform="matrix(0.542969,0,0,0.605556,2882,2539)">
            <g transform="matrix(1.84173,0,0,1.65138,-1160.29,-4184.59)">
                <path d="M1099.79,2773.79C1099.79,2773.79 1096.46,2779.34 1096.46,2779.34C1096.46,2779.34 1095.25,2779.03 1096.89,2776.3C1097.61,2775.13 1099.05,2773.73 1099.05,2773.73C1099.29,2773.75 1099.54,2773.77 1099.79,2773.79Z"/>
            </g>
        </g>
        <g transform="matrix(0.542969,0,0,0.605556,2882,2539)">
            <g transform="matrix(1.84173,0,0,1.65138,-1160.29,-4184.59)">
                <path d="M1107.42,2744.53C1109.83,2745 1112.08,2745.85 1114.28,2747.35C1114.28,2747.35 1118.61,2750.32 1121.72,2753.51C1128.82,2760.8 1135.54,2768.31 1143.15,2776.53C1143.15,2776.53 1145.03,2778.61 1146.35,2780.19C1148.3,2782.51 1150.39,2784.89 1150.77,2787.58C1153.57,2806.53 1159.72,2825.18 1162.55,2844.21L1162.53,2844.93L1162.08,2845.56L1161.41,2844.86C1161.1,2843.95 1161.16,2843.82 1161.08,2843.34C1157.95,2824.95 1152.57,2806.67 1149.51,2788.3C1148.64,2783.09 1143.73,2779.46 1140.32,2775.87C1133.6,2768.79 1127.39,2761.34 1120.03,2754.13C1118.07,2752.21 1115.9,2750.46 1113.52,2749.12L1110.86,2748.11C1109.92,2747.75 1109.85,2747.75 1109.55,2747.65C1108.32,2747.25 1106.74,2746.85 1106.74,2746.85C1106.74,2746.85 1107.21,2744.53 1107.21,2744.53C1107.28,2744.53 1107.35,2744.53 1107.42,2744.53Z"/>
            </g>
        </g>
        <g transform="matrix(0.542969,0,0,0.605556,2882,2539)">
            <g transform="matrix(1.84173,0,0,1.65138,-1160.29,-4184.59)">
                <path d="M1121.55,2752.49C1121.85,2752.58 1122.16,2752.66 1122.47,2752.74C1129.06,2754.39 1136.13,2755.28 1141.38,2759.56C1150.53,2766.99 1155.87,2778.95 1162.59,2788.14C1165.5,2792.13 1167.9,2796.4 1168.92,2801.38C1168.93,2801.45 1170.17,2805.71 1171.43,2808.93C1174.5,2816.93 1174.65,2826.07 1175.1,2834.98C1175.17,2836.12 1175.2,2836.26 1175.27,2836.85C1175.77,2840.86 1177.08,2844.77 1176.67,2848.88C1176.41,2851.57 1175.49,2849.93 1175.49,2849.93C1175.5,2849.82 1175.51,2849.7 1175.52,2849.58C1175.94,2843.82 1174.09,2838.3 1173.72,2832.33C1173.14,2823.47 1172.46,2814.59 1169.01,2806.3C1167.3,2802.16 1167.06,2797.76 1164.4,2793.6C1161.01,2788.32 1157.2,2783.68 1153.79,2777.41C1151.18,2772.67 1147.31,2768.82 1143.47,2764.25C1141.58,2762.02 1139.34,2760.07 1136.61,2758.79C1131.71,2756.51 1126.24,2755.85 1121.07,2754.25C1121.07,2754.25 1120.81,2754.06 1120.81,2754.06C1120.81,2754.06 1121.02,2752.39 1121.55,2752.49Z"/>
            </g>
        </g>
        <g transform="matrix(0.542969,0,0,0.605556,2882,2539)">
            <g transform="matrix(1.84173,0,0,1.65138,-1160.29,-4184.59)">
                <path d="M1074.57,2738.14C1076.53,2738.16 1078.51,2738.48 1080.15,2739.6C1085.07,2742.96 1086.04,2749.54 1087.03,2754.9C1087.3,2756.32 1087.53,2757.75 1087.77,2759.18C1087.87,2759.77 1087.96,2760.35 1088.06,2760.94C1091.08,2778.23 1091.53,2796.05 1086.63,2813.48C1085.17,2818.7 1083.37,2823.81 1083.29,2829.22C1083.29,2829.22 1083.18,2830.17 1083.22,2831L1082.75,2831.56L1082.2,2831.09C1082.1,2830.3 1081.98,2829.29 1081.98,2829.29C1081.96,2825.27 1082.93,2821.29 1083.95,2817.37C1085.92,2809.92 1086.6,2807.6 1087.23,2803.37C1089.77,2786.43 1088.73,2769.27 1084.94,2752.28C1084.75,2751.41 1084.54,2750.55 1084.3,2749.69C1084.11,2749.01 1083.9,2748.33 1083.67,2747.66C1083.5,2747.17 1083.31,2746.68 1083.11,2746.19C1082.94,2745.79 1082.77,2745.39 1082.58,2745.01C1081.3,2742.41 1079.06,2739.93 1075.93,2739.76C1068.53,2738.86 1063.58,2747.3 1061.48,2753.62C1057.86,2764.5 1057.69,2776.51 1053.87,2787.32C1045.89,2817.87 1029.26,2845 1014.96,2872.66C1014.93,2872.71 1013.62,2875.26 1013.57,2875.35C1012.33,2877.96 1011.47,2881.69 1010.29,2885.02C1009.35,2887.69 1008.37,2890.36 1007.39,2893.02C1007.32,2893.21 1006.61,2895.04 1006.54,2895.23C999.994,2912.28 993.679,2929.47 990.498,2947.53L989.843,2947.98L989.384,2947.33C992.688,2928.56 999.691,2910.56 1005.93,2892.49C1005.95,2892.43 1006.7,2890.29 1006.72,2890.24C1008.49,2885.2 1010.19,2880.14 1011.75,2875.05L1011.88,2874.65C1026.63,2845.93 1044.04,2817.94 1052.31,2786.83C1056.63,2774.76 1055.87,2761.21 1061.97,2748.16C1062.23,2747.61 1062.5,2747.06 1062.79,2746.52C1065.16,2742.12 1069.09,2738.29 1074.15,2738.14C1074.29,2738.14 1074.43,2738.14 1074.57,2738.14Z"/>
            </g>
        </g>
        <g transform="matrix(0.542969,0,0,0.605556,2882,2539)">
            <g transform="matrix(1.84173,0,0,1.65138,-1160.29,-4184.59)">
                <path d="M1026.17,2825.44L1026.09,2826.62C1025.87,2826.83 1025.65,2827.03 1025.43,2827.24C1019.76,2832.7 1014.48,2838.38 1007.82,2842.97C1006.45,2843.91 1005.03,2844.76 1003.57,2845.56C1003.57,2845.56 1002.36,2845.53 1002.36,2845.53L1002.94,2844.48C1003.13,2844.36 1003.33,2844.24 1003.52,2844.11C1010.94,2839.31 1016.95,2832.6 1023.57,2826.55C1023.57,2826.55 1024.39,2825.86 1024.99,2825.37C1025.38,2825.39 1025.78,2825.42 1026.17,2825.44Z"/>
            </g>
        </g>
        <g transform="matrix(0.542969,0,0,0.605556,2882,2539)">
            <g transform="matrix(1.84173,0,0,1.65138,-1160.29,-4184.59)">
                <path d="M1009.07,2841.84C1009.07,2841.84 1005.87,2846.98 1003.95,2849.81C999.62,2856.22 994.689,2862.14 990.461,2868.74C979.416,2886.04 969.291,2903.35 956.066,2920.2C950.929,2926.75 944.773,2932.75 937.131,2935.96C934.729,2936.96 932.124,2937.47 929.626,2937.92L928.638,2937.49C928.638,2937.49 928.256,2936.75 930.884,2936.13C941.473,2933.7 950.338,2925.53 957.025,2916.53C972.247,2896.04 984.156,2874.06 999.607,2853.44C1002.37,2849.74 1004.63,2845.62 1007.37,2842.09C1007.4,2842.05 1007.81,2841.66 1008.3,2841.17C1008.3,2841.17 1008.97,2840.44 1009.07,2841.84Z"/>
            </g>
        </g>
        <g transform="matrix(0.542969,0,0,0.605556,2882,2539)">
            <g transform="matrix(1.84173,0,0,1.65138,-1160.29,-4184.59)">
                <path d="M1167.77,2795.44C1171.28,2797.75 1173.67,2801.45 1175.76,2805.24C1182.06,2816.65 1182.2,2830.47 1182.94,2843.2C1183.05,2844.95 1183.15,2845.53 1183.35,2846.68C1184.26,2851.91 1186.08,2856.97 1186.57,2862.27C1187.73,2874.78 1188.24,2887.92 1185.18,2898.27C1183.85,2902.79 1181.12,2907.12 1178.86,2911.57C1173.09,2922.9 1167.16,2934.13 1161.37,2945.35L1160.1,2947.78L1159.69,2948.51L1158.99,2948.77C1158.99,2948.77 1160.4,2944.72 1162.11,2941.35L1162.57,2940.43C1169.66,2926.62 1177.59,2913.47 1183.61,2898.94C1186.73,2891.39 1185.45,2882.49 1185.46,2875.38C1185.5,2867.49 1185.14,2859.95 1182.99,2851.46C1180.88,2843.02 1181.3,2834.17 1180.24,2825.59C1178.94,2815.05 1175.55,2804.4 1167.39,2796.83C1167.39,2796.83 1167.21,2796.58 1166.84,2796.17L1166.79,2795.37C1166.79,2795.37 1167.44,2795.22 1167.77,2795.44Z"/>
            </g>
        </g>
        <g transform="matrix(0.542969,0,0,0.605556,2882,2539)">
            <g transform="matrix(1.84173,0,0,1.65138,-1160.29,-4184.59)">
                <path d="M967.352,2828.55C967.352,2828.55 966.435,2831.5 965.556,2833.39C954.464,2857.2 940.149,2880 927.352,2903.01C922.642,2911.44 916.87,2919.32 913.842,2928.64C912.092,2934.15 920.335,2939.5 927.074,2937.43C932.027,2935.91 936.024,2932.33 938.77,2928.11L939.48,2927.92C939.48,2927.92 939.569,2928.93 938.971,2929.8C934.22,2936.71 925.715,2941.71 917.635,2938.17C913.561,2936.38 910.809,2932.08 912.456,2927.19C915.77,2917.36 922.06,2908.83 926.961,2899.91C939.348,2877.36 952.841,2855.56 964.003,2832.64C964.728,2831.22 965.432,2829.78 966.068,2828.31C966.068,2828.31 966.312,2828.19 967.067,2827.87C967.162,2828.1 967.257,2828.32 967.352,2828.55Z"/>
            </g>
        </g>
        <g transform="matrix(0.542969,0,0,0.605556,2882,2539)">
            <g transform="matrix(1.84173,0,0,1.65138,-1160.29,-4184.59)">
                <path d="M938.973,2916.61C938.819,2916.14 938.648,2915.67 938.457,2915.21C938.323,2914.89 938.178,2914.57 938.023,2914.26C936.331,2910.84 932.629,2908 928.215,2909.46C927.281,2909.77 926,2910.42 926,2910.42L925.265,2910.21C925.265,2910.21 923.861,2909.21 928.928,2908.08C931.012,2907.62 933.256,2907.91 935.093,2909.07C937.627,2910.67 939.144,2913.48 940.049,2916.25C940.049,2916.25 939.715,2917.05 939.715,2917.05C939.715,2917.05 939.047,2916.83 938.973,2916.61Z"/>
            </g>
        </g>
        <g transform="matrix(0.542969,0,0,0.605556,2882,2539)">
            <g transform="matrix(1.84173,0,0,1.65138,-1160.29,-4184.59)">
                <path d="M967.336,2828.74L967.002,2829.64C966.596,2830.16 966.564,2830.09 966.365,2830.22C960.334,2834.38 955.521,2839.67 949.287,2844.47C942.307,2849.88 936.429,2856.73 930.271,2863.28C919.248,2874.99 908.441,2887.08 896.095,2897.38C887.237,2904.77 879.217,2912.67 869.065,2917.76C863.149,2921.38 857.057,2925.3 850.047,2926.03C846.77,2926.37 843.488,2925.51 840.289,2925.31L839.67,2924.61C839.67,2924.61 840.873,2924.01 842.251,2924.16C846.676,2924.69 851.123,2924.81 855.616,2923.18C859.747,2921.67 863.555,2919.43 867.292,2917.15L868.361,2916.49C877.194,2912.05 884.672,2905.23 891.821,2898.84C908.498,2883.93 924.568,2866.98 940.098,2850.64C946.412,2844.03 954.022,2839.13 960.854,2832.83C962.456,2831.37 964.111,2829.96 965.922,2828.77C965.922,2828.77 966.509,2828.55 967.336,2828.74Z"/>
            </g>
        </g>
        <g transform="matrix(0.542969,0,0,0.605556,2882,2539)">
            <g transform="matrix(1.84173,0,0,1.65138,-1160.29,-4184.59)">
                <path d="M916.451,2809.07C912.653,2818.13 908.869,2827.2 902.721,2834.85C895.323,2844.06 887.689,2853.06 879.787,2861.82C879.787,2861.82 878.841,2863 877.877,2864.21C870.545,2873.33 862.268,2881.66 854.107,2890.07C854.107,2890.07 849.623,2894.51 845.968,2898.5C840.253,2904.73 834.072,2911.33 832.336,2919.25C832.116,2920.25 832.065,2921.34 832.649,2922.2C835.216,2925.99 840.868,2924.3 843.792,2923.13C849.272,2920.92 852.128,2914.75 855.266,2910.07C855.557,2909.64 856.26,2909.5 856.26,2909.5L856.395,2910.2C851.91,2917.17 847.722,2925.28 838.201,2925.26C837.809,2925.26 837.417,2925.25 837.026,2925.22C836.725,2925.2 836.424,2925.16 836.126,2925.12C835.874,2925.08 835.623,2925.03 835.374,2924.98C832.702,2924.39 830.291,2922.24 831.463,2918.03C834.632,2906.65 844.82,2897.94 851.866,2890.4L852.427,2889.8C861.143,2880.74 870.071,2871.81 877.785,2861.88C877.785,2861.88 878.427,2861.07 879.318,2860.07C887.61,2850.73 895.836,2841.23 903.393,2831.39C908.508,2824.73 911.483,2816.67 914.765,2809.13L915.051,2808.47L916.05,2808.07C916.184,2808.41 916.317,2808.74 916.451,2809.07Z"/>
            </g>
        </g>
        <g transform="matrix(0.542969,0,0,0.605556,2882,2539)">
            <g transform="matrix(1.84173,0,0,1.65138,-1160.29,-4184.59)">
                <path d="M851.054,2896.15C853.347,2896.31 851.894,2897.24 851.894,2897.24C851.764,2897.24 851.635,2897.25 851.505,2897.26C850.909,2897.3 851.789,2897.19 850.206,2897.39C848.284,2897.65 846.505,2898.51 844.989,2899.81C844.827,2899.95 844.671,2900.07 844.671,2900.07L843.937,2900.07C843.937,2900.07 844.532,2898.51 846.065,2897.57C847.575,2896.64 849.253,2896.03 851.054,2896.15Z"/>
            </g>
        </g>
        <g transform="matrix(0.542969,0,0,0.605556,2882,2539)">
            <g transform="matrix(1.84173,0,0,1.65138,-1160.29,-4184.59)">
                <path d="M914.75,2808.27C915.085,2808.33 915.089,2808.35 915.424,2808.28C915.424,2808.28 916.88,2808.01 915.919,2809.51C915.919,2809.51 912.193,2812.58 908.859,2815.44C900.839,2822.31 893.427,2829.64 884.707,2836.2C877.252,2841.82 869.529,2847.28 862.319,2852.89C862.319,2852.89 859.641,2855.18 859.641,2855.18C858.816,2855.75 858.2,2856.19 858.2,2856.19C840.715,2868.56 824.992,2888.33 810.075,2900.59C803.536,2905.96 795.992,2910.54 787.279,2911.37C785.253,2911.57 783.166,2911.55 781.129,2911.34L780.659,2911.28L780.186,2910.72L780.759,2910.25C781.645,2910.32 781.441,2910.29 782.157,2910.32C795.862,2910.98 808.363,2900.86 817.608,2891.93C829.772,2880.12 841.46,2867.29 855.199,2856.07L858.226,2853.38C860.207,2851.85 860.989,2851.44 860.989,2851.44C861.636,2850.95 862.286,2850.46 862.935,2849.97C872.655,2842.67 882.686,2835.69 891.885,2827.89C899.485,2821.45 906.201,2813.96 914.471,2808.35C914.471,2808.35 914.595,2808.21 914.75,2808.27Z"/>
            </g>
        </g>
        <g transform="matrix(0.542969,0,0,0.605556,2882,2539)">
            <g transform="matrix(1.84173,0,0,1.65138,-1160.29,-4184.59)">
                <path d="M888.936,2762.45C888.936,2762.45 889.02,2762.58 889.02,2762.58C886.697,2766.3 884.344,2770.01 881.946,2773.69L881.746,2773.99C875.954,2782.58 869.942,2791.1 862.439,2798.2C852.588,2807.52 844.484,2818.44 834.484,2829.82C834.049,2830.35 833.922,2830.58 833.922,2830.58C833.922,2830.58 832.417,2832.38 832.417,2832.38C817.726,2846.96 803.53,2862.04 790.497,2878.34C799.266,2879.41 805.07,2891.12 799.891,2900.28C796.067,2907.04 788.604,2912.02 780.943,2911.36C775.949,2910.98 768.395,2911.09 770.729,2902.84C772.144,2897.84 776.02,2893.8 779.29,2889.91C781.444,2887.33 783.552,2884.72 785.636,2882.09C791.742,2874.38 797.66,2866.55 804.175,2859.2C811.803,2850.6 819.963,2842.5 827.861,2834.12C827.861,2834.12 830.739,2830.82 830.739,2830.82C833.267,2828.12 831.723,2830.1 833.288,2828.27C839.14,2821.42 843.924,2813.64 850.061,2807.06C857.572,2799 865.992,2792.26 872.938,2782.75C877.947,2775.9 882.698,2768.86 887.362,2761.78L887.678,2761.55C888.097,2761.85 888.517,2762.15 888.936,2762.45ZM789.425,2879.68C783.548,2887.02 775.967,2893.46 772.461,2901.76C770.936,2905.38 770.9,2909.56 778.176,2909.94C780.01,2910.03 781.856,2910.29 783.626,2910.14C794.334,2909.24 804.46,2896.91 799.123,2886.61C797.21,2882.92 793.876,2879.72 789.567,2879.53C789.567,2879.53 789.476,2879.62 789.425,2879.68Z"/>
            </g>
        </g>
        <g transform="matrix(0.542969,0,0,0.605556,2882,2539)">
            <g transform="matrix(1.84173,0,0,1.65138,-1160.29,-4184.59)">
                <path d="M888.223,2760.73C889.346,2762.8 888.225,2762.37 887.636,2762.68C873.515,2770.24 858.464,2775.87 844.57,2784.46C836.839,2789.25 829.709,2795.12 822.484,2800.29C808.256,2810.58 796.489,2824.8 780.473,2830.22C771.083,2833.39 760.326,2835.47 752.641,2832.78C752.641,2832.78 751.66,2832.41 752.994,2831.76C754.356,2832.23 754.901,2832.31 755.894,2832.44C765.784,2833.73 776.075,2830.83 784.156,2827.12C799.003,2820.3 809.944,2807.03 824.076,2796.97C834.029,2789.84 843.471,2782.35 855.05,2776.56C865.993,2771.09 877.261,2766.26 888.004,2760.44C888.077,2760.54 888.15,2760.64 888.223,2760.73Z"/>
            </g>
        </g>
        <g transform="matrix(0.542969,0,0,0.605556,2882,2539)">
            <g transform="matrix(1.84173,0,0,1.65138,-1160.29,-4184.59)">
                <path d="M805.376,2769.25L805.056,2770.5C785.03,2789.31 765.59,2809.08 743.454,2825.49C741.722,2827.49 745.61,2830.02 748.276,2830.69C753.676,2832.05 759.452,2829.85 763.887,2826.96L764.287,2826.69C764.287,2826.69 765.186,2826.13 764.897,2827.6C764.695,2827.74 764.491,2827.87 764.287,2828.01C758.651,2831.7 751.782,2834.14 745.036,2830.83C744.776,2830.7 744.521,2830.56 744.272,2830.42C744.094,2830.31 743.92,2830.2 743.75,2830.08C742.1,2828.93 740.75,2826.64 742.543,2824.51C764.286,2807.93 783.393,2788.97 803.412,2770.14C804.737,2768.89 804.798,2769.23 805.376,2769.25Z"/>
            </g>
        </g>
        <g transform="matrix(0.542969,0,0,0.605556,2882,2539)">
            <g transform="matrix(1.84173,0,0,1.65138,-1160.29,-4184.59)">
                <path d="M762.689,2808.75C765.745,2808.94 763.053,2808.7 766.057,2809.38C766.057,2809.38 770.058,2810.76 770.779,2813.94C771.49,2817.08 770.778,2820.57 769.029,2823.43L768.337,2823.62C768.337,2823.62 769.626,2819.46 769.812,2816.99C770.006,2814.43 769.176,2811.7 766.356,2810.86C766.356,2810.86 764.416,2810.64 764.416,2810.64C761.61,2811.23 762.126,2810.88 762.126,2810.88C762.126,2810.88 762.016,2808.81 762.016,2808.81C762.232,2808.79 762.298,2808.73 762.689,2808.75Z"/>
            </g>
        </g>
        <g transform="matrix(0.542969,0,0,0.605556,2882,2539)">
            <g transform="matrix(1.84173,0,0,1.65138,-1160.29,-4184.59)">
                <path d="M713.563,2843.93C728.326,2851.75 746.71,2851.26 764.092,2852.69C780.183,2854 796.61,2854.93 812.193,2851.03L812.649,2850.92L813.727,2851.54C813.727,2851.54 813.309,2852.26 813.1,2852.62C791.01,2858.66 767.389,2855.26 745.06,2853.25C733.175,2852.17 721.946,2850.24 712.806,2845.34L712.194,2844.09C712.194,2844.09 713.156,2843.71 713.563,2843.93Z"/>
            </g>
        </g>
        <g transform="matrix(0.542969,0,0,0.605556,2882,2539)">
            <g transform="matrix(1.84173,0,0,1.65138,-1160.29,-4184.59)">
                <path d="M879.162,2747.22C883.236,2747.26 887.19,2747.89 890.781,2748.98L891.7,2749.32L892.153,2750.15C892.153,2750.15 892.998,2750.73 887.445,2749.72C886.927,2749.63 886.408,2749.54 885.888,2749.45C885.377,2749.36 884.863,2749.29 884.348,2749.22C872.168,2747.63 859.873,2752.19 849.175,2756.65C846.398,2757.76 843.627,2758.88 840.833,2759.94C821.486,2767.28 801.979,2775.84 781.333,2772.55C779.164,2772.21 777.022,2771.7 774.916,2771.06C774.916,2771.06 774.214,2770.42 773.467,2770.09L773.135,2769.44L774.059,2769.17C781.237,2770.33 784.792,2771.04 789.365,2771.1C806.393,2771.3 822.584,2764.26 837.978,2758.69C851.234,2753.86 864.225,2747.5 878.053,2747.22C878.423,2747.22 878.793,2747.22 879.162,2747.22Z"/>
            </g>
        </g>
        <g transform="matrix(0.542969,0,0,0.605556,2882,2539)">
            <g transform="matrix(1.84173,0,0,1.65138,-1160.29,-4184.59)">
                <path d="M864.395,2854.3C870.337,2854.33 876.259,2854.44 882.232,2854.67C883.682,2854.73 884.897,2854.94 884.897,2854.94L885.449,2855.55L884.346,2856.08C883.051,2856 877.901,2856.03 873.23,2855.91C868.613,2855.81 863.979,2855.45 859.37,2855.89C858.139,2856 857.244,2855.96 857.244,2855.96L856.662,2855.52L857.578,2854.71C859.838,2854.36 862.127,2854.29 864.395,2854.3Z"/>
            </g>
        </g>
        <g transform="matrix(0.542969,0,0,0.605556,2882,2539)">
            <g transform="matrix(1.84173,0,0,1.65138,-1160.29,-4184.59)">
                <path d="M849.58,2688.3L850.147,2688.26C858.801,2694.28 867.998,2699.59 878.068,2702.53C888.793,2705.66 900.271,2706.3 909.919,2712.82C920.41,2719.91 927.196,2731.45 938.337,2738.29C942.592,2740.9 947.005,2743.33 950.333,2747.15C950.333,2747.15 953.851,2750.67 955.228,2754.02C957.705,2760.06 953.631,2767.12 946.211,2770.14C941.605,2772.01 936.441,2772.17 931.395,2772.11C918.72,2771.93 906.15,2767.41 896.727,2758.03C893.66,2754.95 890.656,2751.75 886.937,2749.61L886.382,2748.49C886.382,2748.49 887.027,2748.03 887.785,2748.46C895.474,2752.95 900.292,2760.95 908.875,2765.31C918.376,2770.14 929.855,2771.44 939.882,2770.02C947.524,2768.93 956.533,2763.09 953.663,2755.27C949.852,2744.87 936.555,2741.09 928.695,2733.9C919.361,2725.36 911.936,2714.77 899.919,2710.69C885.563,2705.82 870.533,2703.95 856.439,2695.25C853.848,2693.65 851.317,2691.95 848.823,2690.21C848.823,2690.21 848.202,2688.33 848.202,2688.33C848.202,2688.33 848.925,2688.14 849.58,2688.3Z"/>
            </g>
        </g>
        <g transform="matrix(0.542969,0,0,0.605556,2882,2539)">
            <g transform="matrix(1.84173,0,0,1.65138,-1160.29,-4184.59)">
                <path d="M875.146,2771.75C874.611,2776.6 874.274,2781.49 871.905,2785.76C871.627,2786.26 871.37,2786.26 871.37,2786.26L870.338,2785.49C871.434,2783.08 872.313,2780.68 872.939,2778.2C872.939,2778.2 873.713,2774.94 874.084,2772.13L874.14,2771.64C874.14,2771.64 874.28,2770.67 875.146,2771.75Z"/>
            </g>
        </g>
        <g transform="matrix(0.542969,0,0,0.605556,2882,2539)">
            <g transform="matrix(1.84173,0,0,1.65138,-1160.29,-4184.59)">
                <path d="M871,2690.31L872.572,2694.36C872.929,2695.1 872.943,2695.14 873.081,2695.44C873.577,2696.51 873.646,2696.59 874.434,2697.85C874.684,2698.26 874.753,2697.54 874.55,2699.45C874.55,2699.45 874.798,2702.2 874.798,2702.2L874.416,2702.83L873.474,2701.38C873.246,2700.71 873.143,2700.38 872.281,2699.04L872.147,2697.64C872.025,2696.08 871.816,2695.97 871.596,2695.26C871.596,2695.26 870.037,2690.63 870.037,2690.63C870.037,2690.63 869.732,2689.65 871,2690.31Z"/>
            </g>
        </g>
        <g transform="matrix(0.542969,0,0,0.605556,2882,2539)">
            <g transform="matrix(1.84173,0,0,1.65138,-1160.29,-4184.59)">
                <path d="M878.541,2687.48C879.668,2691.55 878.355,2695.59 878.507,2699.39L878.665,2700.93C878.618,2701.91 878.486,2703.16 878.486,2703.16C878.391,2703.9 877.815,2703.59 877.815,2703.59C874.554,2703.26 876.053,2703.91 876.246,2702.09C876.246,2702.09 876.434,2700.72 876.451,2700.67C876.999,2698.96 876.991,2701.97 877.496,2694.55C877.645,2692.35 877.874,2690.18 877.599,2687.98C877.471,2686.96 878.133,2687.22 878.541,2687.48Z"/>
            </g>
        </g>
        <g transform="matrix(0.542969,0,0,0.605556,2882,2539)">
            <g transform="matrix(1.84173,0,0,1.65138,-1160.29,-4184.59)">
                <path d="M920.087,2673.84C920.087,2673.84 917.139,2676.71 915.104,2678.89C906.936,2687.65 898.018,2695.63 887.279,2702.16C885.465,2703.27 883.574,2704.27 881.669,2705.25L881.047,2705.39L880.036,2705.05L880.848,2703.63C882.216,2702.93 883.571,2702.21 884.912,2701.47C895.56,2695.56 904.986,2687.63 913.375,2678.5C915.169,2676.56 917.021,2674.67 919.068,2673.01C919.444,2672.71 920.319,2672.95 920.319,2672.95C920.242,2673.24 920.164,2673.54 920.087,2673.84Z"/>
            </g>
        </g>
        <g transform="matrix(0.542969,0,0,0.605556,2882,2539)">
            <g transform="matrix(1.84173,0,0,1.65138,-1160.29,-4184.59)">
                <path d="M916.5,2659.57C916.942,2660.03 916.652,2659.5 917.078,2660.22C917.821,2661.53 918.206,2663.71 918.206,2663.71C918.777,2667.51 918.499,2671.47 917.636,2675.15C917.357,2676.35 916.781,2676.5 916.781,2676.5L916.112,2676.86L915.776,2676C915.815,2675.47 916.072,2676.02 915.617,2675.01C915.617,2675.01 916.311,2672.73 916.525,2671.32C916.597,2670.85 916.658,2670.37 916.703,2669.89C916.904,2667.77 916.742,2665.62 916.549,2663.48C916.422,2662.19 915.815,2660.51 915.815,2660.51C915.787,2660.26 915.747,2660.26 915.699,2660.17C915.699,2660.17 915.122,2659.36 916.5,2659.57Z"/>
            </g>
        </g>
        <g transform="matrix(0.542969,0,0,0.605556,2882,2539)">
            <g transform="matrix(1.84173,0,0,1.65138,-1160.29,-4184.59)">
                <path d="M885.175,2674.6C893.735,2674.76 902.123,2678.47 909.457,2683.3L909.698,2684.46C909.698,2684.46 909.034,2685.01 908.106,2684.42C900.418,2679.59 891.662,2675.78 882.935,2676.83C877.439,2677.49 872.003,2678.78 866.499,2679.68L863.281,2680.38C855.441,2681.63 847.607,2682.87 839.815,2684.33C836.071,2685.03 832.362,2685.89 828.595,2686.36C821.239,2687.28 813.866,2687.59 806.323,2688.52C783.036,2691.36 759.501,2693.21 736.643,2695.39C729.139,2696.1 721.581,2696.61 714.07,2696.26L712.878,2695.33C712.878,2695.33 713.851,2694.51 713.851,2694.51C729.762,2695.13 745.622,2692.36 761.5,2691.11C778.277,2689.76 795.056,2687.65 811.69,2685.59C819.673,2684.63 827.639,2684.33 835.538,2682.73C844.631,2680.9 853.75,2679.34 862.88,2677.91C863.535,2677.8 864.201,2677.76 864.862,2677.69L866.008,2677.56C872.413,2676.52 878.821,2674.55 885.175,2674.6Z"/>
            </g>
        </g>
        <g transform="matrix(0.542969,0,0,0.605556,2882,2539)">
            <g transform="matrix(1.84173,0,0,1.65138,-1160.29,-4184.59)">
                <path d="M802.102,2640.35C802.102,2640.35 803.415,2643.95 805.09,2646.51C811.19,2655.85 823.247,2658.93 833.625,2659.94C843.434,2660.9 853.295,2660.57 863.344,2661.45C881.034,2662.95 899.548,2652.32 916.101,2662.44C916.684,2662.79 917.253,2663.17 917.812,2663.57L917.998,2664.61L916.958,2664.79C902.574,2654.84 882.178,2663.08 868.044,2663.56C862.556,2663.74 857.129,2662.9 851.607,2662.83C838.928,2662.71 826.144,2663.26 814.144,2657.24C807.654,2653.98 802.006,2648.69 800.277,2641.57L801.146,2639.72C801.465,2639.93 801.783,2640.14 802.102,2640.35Z"/>
            </g>
        </g>
        <g transform="matrix(0.542969,0,0,0.605556,2882,2539)">
            <g transform="matrix(1.84173,0,0,1.65138,-1160.29,-4184.59)">
                <path d="M1088.36,2563.95L1088.32,2565.31C1087.31,2566.65 1088.01,2565.96 1087.04,2566.92C1080.92,2573.15 1076.18,2580.67 1069.96,2586.76C1065.2,2591.42 1059.7,2595.23 1054.98,2599.94L1054.74,2600.18L1053.02,2600.19C1053.02,2600.19 1052.63,2598.84 1053.5,2597.97C1058.64,2592.88 1064.72,2588.77 1069.68,2583.5C1075.32,2577.51 1079.87,2570.53 1085.75,2564.74L1087,2563.91C1087.45,2563.92 1087.91,2563.94 1088.36,2563.95Z"/>
            </g>
        </g>
        <g transform="matrix(0.542969,0,0,0.605556,2882,2539)">
            <g transform="matrix(1.84173,0,0,1.65138,-1160.29,-4184.59)">
                <path d="M1056.73,2596.08L1056.19,2596.97C1044.44,2599.88 1031.71,2598.85 1020.22,2600.53C1000.63,2603.45 981.054,2607.97 961.168,2607.97C959.376,2607.97 956.935,2608.06 956.935,2608.06C937.015,2607.64 917.171,2608.04 897.809,2614.39C897.809,2614.39 897.815,2614.4 896.19,2614.96C880.852,2620.14 863.959,2617 848.538,2621.13C848.538,2621.13 844.932,2623.22 842.361,2624.81C837.023,2628.05 830.869,2629.61 824.679,2630.56C824.679,2630.56 820.336,2631.22 816.499,2631.39C811.075,2631.64 805.649,2631.35 800.161,2631.63C796.138,2631.83 797.752,2635.36 798.532,2636.75C799.104,2637.76 800.45,2638.8 800.45,2638.8C803.405,2640.91 806.833,2641.99 810.828,2641.56C810.828,2641.56 812.032,2641.58 812.936,2641.5L813.515,2641.93L812.721,2642.56C808.3,2643.37 803.581,2642.71 799.819,2640.05C799.819,2640.05 792.309,2633.12 798.776,2630.35C798.776,2630.35 805.559,2629.93 810.277,2629.89C811.364,2629.88 812.451,2629.88 813.538,2629.87C822.944,2629.75 832.718,2628.33 840.515,2623.69C843.928,2621.66 846.959,2619.35 851.417,2618.36C858.252,2616.83 865.273,2616.46 872.273,2616.05C880.555,2615.56 888.839,2615.04 896.658,2612.13C911.715,2607.15 927.724,2605.19 943.721,2605.32C948.045,2605.35 952.366,2605.5 956.688,2605.61C956.688,2605.61 963.187,2605.92 968.844,2605.57C979.16,2604.95 989.449,2603.4 999.692,2601.77L1000.2,2601.69C1003.41,2601.21 1006.62,2600.72 1009.83,2600.24C1013.55,2599.69 1017.27,2599.16 1021,2598.68C1021,2598.68 1025.11,2598.24 1028.11,2597.9C1037.21,2596.9 1046.55,2597.73 1055.45,2595.64C1055.45,2595.64 1056.19,2595.75 1056.73,2596.08Z"/>
            </g>
        </g>
        <g transform="matrix(0.542969,0,0,0.605556,2882,2539)">
            <g transform="matrix(1.84173,0,0,1.65138,-5307.86,-4192.84)">
                <path d="M3338.92,2570.68L3338.92,2570.84L3338.92,2570.98L3338.92,2571.13L3338.93,2571.27L3338.93,2571.42L3338.93,2571.57L3338.94,2571.71L3338.95,2571.86L3338.95,2572L3338.96,2572.15L3338.97,2572.29L3338.98,2572.43L3338.99,2572.58L3339,2572.72L3339.01,2572.87L3339.02,2573.01L3339.04,2573.15L3339.05,2573.3L3339.07,2573.44L3339.08,2573.58L3339.1,2573.72L3339.12,2573.87L3339.14,2574.01L3339.15,2574.15L3339.17,2574.29L3339.19,2574.43L3339.22,2574.57L3339.24,2574.71L3339.26,2574.85L3339.28,2574.99L3339.31,2575.13L3339.33,2575.27L3339.36,2575.41L3339.39,2575.55L3339.41,2575.69L3339.44,2575.83L3339.47,2575.97L3339.5,2576.1L3339.53,2576.24L3339.56,2576.38L3339.59,2576.52L3339.62,2576.66L3339.66,2576.79L3339.69,2576.93L3339.72,2577.07L3339.76,2577.2L3339.8,2577.34L3339.83,2577.47L3339.87,2577.61L3339.91,2577.74L3339.95,2577.88L3339.99,2578.01L3340.03,2578.15L3340.07,2578.28L3340.11,2578.42L3340.15,2578.55L3340.24,2578.82L3340.33,2579.09L3340.42,2579.35L3340.51,2579.62L3340.61,2579.88L3340.71,2580.14L3340.81,2580.4L3340.92,2580.66L3341.03,2580.92L3341.14,2581.18L3341.25,2581.44L3341.36,2581.69L3341.48,2581.95L3341.6,2582.2L3341.72,2582.46L3341.85,2582.71L3341.97,2582.96L3342.1,2583.21L3342.24,2583.46L3342.37,2583.71L3342.51,2583.96L3342.64,2584.2L3342.78,2584.45L3342.93,2584.69L3343.07,2584.94L3343.22,2585.18L3343.37,2585.42L3343.52,2585.66L3343.68,2585.9L3343.83,2586.14L3343.99,2586.37L3344.15,2586.61L3344.31,2586.85L3344.47,2587.08L3344.64,2587.31L3344.81,2587.54L3344.98,2587.77L3345.15,2588L3345.32,2588.23L3345.5,2588.46L3345.67,2588.68L3345.85,2588.91L3346.03,2589.13L3346.22,2589.35L3346.4,2589.58L3346.59,2589.8L3346.77,2590.01L3346.96,2590.23L3347.15,2590.45L3347.35,2590.66L3347.54,2590.88L3347.74,2591.09L3347.93,2591.3L3348.13,2591.52L3348.33,2591.73L3348.53,2591.93L3348.74,2592.14L3348.94,2592.35L3349.15,2592.55L3349.35,2592.76L3349.56,2592.96L3349.77,2593.16L3349.98,2593.36L3350.2,2593.56L3350.41,2593.76L3350.62,2593.95L3350.84,2594.15L3351.06,2594.34L3351.27,2594.53L3351.49,2594.72L3351.71,2594.91L3351.94,2595.1L3352.16,2595.29L3352.38,2595.48L3352.61,2595.66L3352.83,2595.85L3353.06,2596.03L3353.29,2596.21L3353.51,2596.39L3353.74,2596.57L3353.97,2596.74L3354.2,2596.92L3354.44,2597.09L3354.67,2597.27L3354.9,2597.44L3355.14,2597.61L3355.37,2597.78L3355.61,2597.95L3355.84,2598.11L3356.08,2598.28L3356.32,2598.44L3356.55,2598.6L3356.79,2598.76L3357.03,2598.92L3357.27,2599.08L3357.51,2599.24L3357.75,2599.39L3357.99,2599.55L3358.23,2599.7L3358.47,2599.85L3360,2600.8L3360.77,2601.28L3361.54,2601.75L3362.31,2602.22L3363.08,2602.7L3363.85,2603.17L3364.62,2603.64L3365.39,2604.11L3366.16,2604.58L3366.94,2605.05L3367.72,2605.51L3368.49,2605.97L3369.27,2606.44L3370.05,2606.9L3370.83,2607.35L3371.61,2607.81L3372.39,2608.26L3373.17,2608.71L3373.96,2609.16L3374.35,2609.39L3374.74,2609.61L3375.14,2609.83L3375.53,2610.05L3375.93,2610.27L3376.32,2610.49L3376.71,2610.71L3377.11,2610.93L3377.5,2611.14L3377.9,2611.36L3378.29,2611.58L3378.69,2611.79L3379.09,2612L3379.48,2612.22L3379.88,2612.43L3380.28,2612.64L3380.67,2612.85L3381.07,2613.06L3381.47,2613.27L3381.87,2613.47L3382.27,2613.68L3382.67,2613.89L3383.07,2614.09L3383.47,2614.29L3383.8,2614.46L3384.13,2614.63L3384.47,2614.8L3384.8,2614.96L3385.14,2615.13L3385.48,2615.29L3386.15,2615.62L3386.83,2615.94L3387.5,2616.27L3388.18,2616.59L3388.86,2616.91L3390.22,2617.56L3390.9,2617.88L3391.58,2618.21L3392.25,2618.54L3392.93,2618.87L3393.27,2619.03L3393.61,2619.2L3393.95,2619.37L3394.28,2619.54L3394.62,2619.71L3394.96,2619.88L3395.3,2620.05L3395.63,2620.22L3395.97,2620.4L3396.3,2620.57L3396.64,2620.75L3396.97,2620.93L3397.31,2621.11L3397.64,2621.29L3397.97,2621.47L3398.3,2621.66L3398.63,2621.85L3398.96,2622.04L3399.29,2622.23L3399.62,2622.42L3399.95,2622.61L3400.28,2622.81L3400.6,2623.01L3400.93,2623.21L3401.25,2623.41L3401.57,2623.62L3401.89,2623.83L3402.21,2624.04L3402.53,2624.25L3402.85,2624.47L3403.17,2624.68L3403.49,2624.91L3403.8,2625.13L3403.96,2625.24L3404.11,2625.36L3404.27,2625.47L3404.43,2625.59L3404.58,2625.7L3404.74,2625.82L3404.9,2625.94L3405.07,2626.07L3405.23,2626.2L3405.4,2626.33L3405.56,2626.46L3405.72,2626.59L3405.88,2626.72L3406.04,2626.85L3406.2,2626.99L3406.36,2627.12L3406.51,2627.26L3406.67,2627.39L3406.82,2627.53L3406.97,2627.66L3407.13,2627.8L3407.28,2627.94L3407.43,2628.08L3407.58,2628.22L3407.72,2628.36L3407.87,2628.5L3408.02,2628.64L3408.16,2628.78L3408.31,2628.93L3408.45,2629.07L3408.59,2629.22L3408.73,2629.36L3408.87,2629.51L3409.01,2629.65L3409.15,2629.8L3409.28,2629.95L3409.42,2630.1L3409.56,2630.25L3409.69,2630.4L3409.82,2630.55L3409.95,2630.7L3410.09,2630.85L3410.22,2631.01L3410.35,2631.16L3410.47,2631.31L3410.6,2631.47L3410.73,2631.62L3410.85,2631.78L3410.98,2631.93L3411.1,2632.09L3411.22,2632.25L3411.35,2632.41L3411.47,2632.57L3411.59,2632.72L3411.71,2632.88L3411.83,2633.04L3411.94,2633.2L3412.06,2633.37L3412.18,2633.53L3412.29,2633.69L3412.41,2633.86L3412.52,2634.02L3412.63,2634.18L3412.74,2634.35L3412.85,2634.51L3412.96,2634.68L3413.07,2634.85L3413.18,2635.01L3413.29,2635.18L3413.39,2635.35L3413.5,2635.51L3413.61,2635.68L3413.71,2635.85L3413.81,2636.02L3413.92,2636.19L3414.02,2636.36L3414.12,2636.53L3414.22,2636.71L3414.32,2636.88L3414.42,2637.05L3414.52,2637.22L3414.62,2637.4L3414.71,2637.57L3414.81,2637.75L3414.9,2637.92L3415,2638.1L3415.09,2638.27L3415.18,2638.45L3415.28,2638.63L3415.37,2638.8L3415.46,2638.98L3415.55,2639.16L3415.64,2639.33L3415.73,2639.51L3415.82,2639.69L3415.91,2639.87L3416.08,2640.23L3416.25,2640.59L3416.42,2640.95L3416.58,2641.32L3416.74,2641.68L3416.91,2642.05L3417.06,2642.42L3417.22,2642.79L3417.37,2643.16L3417.52,2643.53L3417.67,2643.9L3417.82,2644.27L3417.96,2644.65L3418.1,2645.02L3418.24,2645.4L3418.38,2645.78L3418.52,2646.16L3418.65,2646.54L3418.78,2646.92L3418.91,2647.3L3419.04,2647.68L3419.17,2648.06L3419.29,2648.45L3419.42,2648.83L3419.54,2649.22L3419.66,2649.6L3419.77,2649.99L3419.89,2650.38L3420.01,2650.76L3420.12,2651.15L3420.23,2651.54L3420.34,2651.93L3420.45,2652.32L3420.56,2652.71L3420.66,2653.1L3420.77,2653.49L3420.87,2653.88L3420.97,2654.27L3421.08,2654.66L3421.18,2655.05L3421.27,2655.44L3421.37,2655.83L3421.47,2656.22L3421.57,2656.61L3421.66,2657L3421.76,2657.39L3421.85,2657.79L3422.03,2658.57L3422.21,2659.35L3422.39,2660.13L3422.57,2660.91L3422.74,2661.68L3422.92,2662.46L3423.26,2664L3423.6,2665.53L3423.77,2666.29L3423.93,2667.05L3424.11,2667.8L3424.28,2668.55L3424.45,2669.3L3424.62,2670.04L3424.79,2670.78L3424.88,2671.14L3424.97,2671.51L3424.23,2672.72L3423.02,2671.98L3422.93,2671.61L3422.85,2671.24L3422.67,2670.5L3422.5,2669.75L3422.33,2669L3422.15,2668.25L3421.98,2667.49L3421.81,2666.73L3421.64,2665.97L3421.31,2664.43L3420.97,2662.89L3420.79,2662.12L3420.62,2661.35L3420.44,2660.57L3420.27,2659.8L3420.09,2659.02L3419.9,2658.25L3419.81,2657.86L3419.72,2657.47L3419.62,2657.09L3419.53,2656.7L3419.43,2656.31L3419.34,2655.93L3419.24,2655.54L3419.14,2655.16L3419.04,2654.77L3418.94,2654.39L3418.84,2654L3418.73,2653.62L3418.63,2653.24L3418.52,2652.85L3418.41,2652.47L3418.31,2652.09L3418.2,2651.71L3418.09,2651.33L3417.97,2650.95L3417.86,2650.57L3417.74,2650.19L3417.63,2649.81L3417.51,2649.44L3417.39,2649.06L3417.27,2648.69L3417.14,2648.31L3417.02,2647.94L3416.89,2647.57L3416.76,2647.2L3416.63,2646.83L3416.5,2646.46L3416.37,2646.09L3416.23,2645.73L3416.09,2645.36L3415.95,2645L3415.81,2644.64L3415.67,2644.28L3415.52,2643.91L3415.37,2643.56L3415.22,2643.2L3415.07,2642.85L3414.91,2642.49L3414.76,2642.14L3414.6,2641.79L3414.44,2641.44L3414.27,2641.09L3414.11,2640.74L3414.02,2640.57L3413.94,2640.4L3413.85,2640.23L3413.77,2640.06L3413.68,2639.89L3413.59,2639.72L3413.5,2639.55L3413.41,2639.38L3413.33,2639.21L3413.24,2639.04L3413.14,2638.88L3413.05,2638.71L3412.96,2638.54L3412.87,2638.37L3412.78,2638.21L3412.68,2638.04L3412.59,2637.88L3412.49,2637.71L3412.4,2637.55L3412.3,2637.39L3412.2,2637.22L3412.11,2637.06L3412.01,2636.9L3411.91,2636.74L3411.81,2636.58L3411.7,2636.42L3411.6,2636.26L3411.5,2636.1L3411.4,2635.94L3411.29,2635.78L3411.19,2635.62L3411.08,2635.47L3410.98,2635.31L3410.87,2635.15L3410.76,2635L3410.66,2634.84L3410.55,2634.69L3410.44,2634.53L3410.33,2634.38L3410.21,2634.23L3410.1,2634.08L3409.99,2633.93L3409.87,2633.77L3409.76,2633.62L3409.64,2633.47L3409.53,2633.33L3409.41,2633.18L3409.29,2633.03L3409.17,2632.88L3409.05,2632.74L3408.93,2632.59L3408.81,2632.44L3408.69,2632.3L3408.57,2632.16L3408.44,2632.01L3408.32,2631.87L3408.19,2631.73L3408.07,2631.59L3407.94,2631.44L3407.81,2631.3L3407.68,2631.16L3407.55,2631.03L3407.42,2630.89L3407.29,2630.75L3407.16,2630.61L3407.02,2630.47L3406.89,2630.34L3406.75,2630.2L3406.62,2630.07L3406.48,2629.94L3406.34,2629.8L3406.2,2629.67L3406.06,2629.54L3405.92,2629.41L3405.78,2629.28L3405.64,2629.15L3405.49,2629.02L3405.35,2628.89L3405.2,2628.77L3405.06,2628.64L3404.91,2628.51L3404.76,2628.39L3404.61,2628.26L3404.46,2628.14L3404.31,2628.02L3404.15,2627.89L3404,2627.77L3403.84,2627.65L3403.69,2627.53L3403.53,2627.41L3403.38,2627.3L3403.23,2627.19L3403.09,2627.08L3402.93,2626.97L3402.78,2626.86L3402.64,2626.76L3402.33,2626.54L3402.03,2626.33L3401.72,2626.12L3401.42,2625.91L3401.11,2625.71L3400.8,2625.5L3400.49,2625.3L3400.18,2625.1L3399.87,2624.91L3399.55,2624.71L3399.24,2624.52L3398.92,2624.33L3398.6,2624.14L3398.28,2623.95L3397.97,2623.77L3397.64,2623.59L3397.32,2623.4L3397,2623.22L3396.68,2623.05L3396.35,2622.87L3396.03,2622.69L3395.7,2622.52L3395.37,2622.34L3395.04,2622.17L3394.71,2622L3394.38,2621.83L3394.05,2621.66L3393.72,2621.49L3393.39,2621.32L3393.06,2621.16L3392.72,2620.99L3392.39,2620.83L3392.05,2620.66L3391.38,2620.34L3390.71,2620.01L3390.03,2619.69L3389.36,2619.36L3388,2618.72L3387.32,2618.4L3386.64,2618.07L3385.96,2617.75L3385.28,2617.42L3384.6,2617.09L3384.26,2616.92L3383.92,2616.76L3383.58,2616.59L3383.24,2616.42L3382.9,2616.25L3382.56,2616.08L3382.16,2615.87L3381.75,2615.66L3381.35,2615.46L3380.95,2615.25L3380.55,2615.04L3380.14,2614.83L3379.74,2614.62L3379.34,2614.41L3378.94,2614.19L3378.54,2613.98L3378.14,2613.77L3377.74,2613.55L3377.34,2613.33L3376.94,2613.12L3376.54,2612.9L3376.14,2612.68L3375.74,2612.46L3375.35,2612.24L3374.95,2612.02L3374.55,2611.8L3374.16,2611.57L3373.76,2611.35L3373.37,2611.13L3372.97,2610.9L3372.18,2610.45L3371.39,2609.99L3370.6,2609.54L3369.82,2609.08L3369.03,2608.62L3368.25,2608.16L3367.47,2607.69L3366.69,2607.23L3365.91,2606.76L3365.13,2606.29L3364.35,2605.82L3363.58,2605.35L3362.8,2604.88L3362.03,2604.4L3361.26,2603.93L3360.49,2603.45L3359.72,2602.98L3358.95,2602.5L3357.42,2601.55L3357.17,2601.39L3356.92,2601.23L3356.67,2601.07L3356.42,2600.91L3356.17,2600.75L3355.92,2600.59L3355.68,2600.42L3355.43,2600.26L3355.18,2600.09L3354.94,2599.92L3354.69,2599.75L3354.45,2599.58L3354.21,2599.4L3353.96,2599.23L3353.72,2599.05L3353.48,2598.87L3353.24,2598.7L3353,2598.51L3352.76,2598.33L3352.52,2598.15L3352.28,2597.96L3352.05,2597.78L3351.81,2597.59L3351.57,2597.4L3351.34,2597.21L3351.11,2597.02L3350.88,2596.82L3350.64,2596.63L3350.41,2596.43L3350.18,2596.24L3349.96,2596.04L3349.73,2595.84L3349.5,2595.64L3349.28,2595.43L3349.06,2595.23L3348.83,2595.02L3348.61,2594.82L3348.39,2594.61L3348.17,2594.4L3347.95,2594.19L3347.74,2593.97L3347.52,2593.76L3347.31,2593.55L3347.1,2593.33L3346.89,2593.11L3346.68,2592.89L3346.47,2592.67L3346.27,2592.45L3346.06,2592.23L3345.86,2592L3345.66,2591.78L3345.46,2591.55L3345.26,2591.32L3345.06,2591.09L3344.87,2590.86L3344.67,2590.63L3344.48,2590.39L3344.29,2590.16L3344.11,2589.92L3343.92,2589.68L3343.73,2589.45L3343.55,2589.21L3343.37,2588.97L3343.19,2588.72L3343.02,2588.48L3342.84,2588.23L3342.67,2587.99L3342.5,2587.74L3342.33,2587.49L3342.16,2587.24L3342,2586.99L3341.83,2586.74L3341.67,2586.48L3341.52,2586.23L3341.36,2585.97L3341.21,2585.71L3341.05,2585.45L3340.9,2585.19L3340.76,2584.93L3340.61,2584.67L3340.47,2584.4L3340.33,2584.14L3340.19,2583.87L3340.06,2583.6L3339.92,2583.34L3339.79,2583.07L3339.67,2582.79L3339.54,2582.52L3339.42,2582.25L3339.3,2581.97L3339.18,2581.7L3339.07,2581.42L3338.95,2581.14L3338.84,2580.86L3338.74,2580.58L3338.63,2580.3L3338.53,2580.01L3338.43,2579.73L3338.34,2579.44L3338.25,2579.16L3338.2,2579.01L3338.16,2578.87L3338.11,2578.72L3338.07,2578.58L3338.03,2578.44L3337.99,2578.29L3337.94,2578.14L3337.9,2578L3337.86,2577.85L3337.83,2577.71L3337.79,2577.56L3337.75,2577.41L3337.71,2577.27L3337.68,2577.12L3337.64,2576.97L3337.61,2576.82L3337.58,2576.68L3337.54,2576.53L3337.51,2576.38L3337.48,2576.23L3337.45,2576.08L3337.42,2575.93L3337.39,2575.78L3337.37,2575.63L3337.34,2575.48L3337.31,2575.33L3337.29,2575.18L3337.26,2575.03L3337.24,2574.88L3337.22,2574.72L3337.19,2574.57L3337.17,2574.42L3337.15,2574.27L3337.13,2574.11L3337.11,2573.96L3337.1,2573.81L3337.08,2573.65L3337.06,2573.5L3337.05,2573.35L3337.03,2573.19L3337.02,2573.04L3337.01,2572.88L3336.99,2572.73L3336.98,2572.57L3336.97,2572.42L3336.96,2572.26L3336.95,2572.1L3336.95,2571.95L3336.94,2571.79L3336.93,2571.63L3336.93,2571.48L3336.93,2571.32L3336.92,2571.16L3336.92,2571L3336.92,2570.85L3336.92,2570.69L3337.92,2569.69L3338.92,2570.68Z"/>
            </g>
        </g>
        <g transform="matrix(0.542969,0,0,0.605556,2882,2539)">
            <g transform="matrix(1.84173,0,0,1.65138,-5307.86,-4192.84)">
                <path d="M3379.45,2553.53L3379.5,2553.7L3379.55,2553.86L3379.6,2554.03L3379.66,2554.2L3379.71,2554.36L3379.77,2554.53L3379.82,2554.69L3379.88,2554.86L3379.93,2555.02L3379.99,2555.18L3380.05,2555.35L3380.11,2555.51L3380.17,2555.67L3380.23,2555.83L3380.29,2555.99L3380.36,2556.15L3380.42,2556.32L3380.48,2556.47L3380.55,2556.63L3380.61,2556.79L3380.68,2556.95L3380.74,2557.11L3380.81,2557.27L3380.88,2557.43L3380.95,2557.58L3381.02,2557.74L3381.09,2557.89L3381.16,2558.05L3381.23,2558.21L3381.3,2558.36L3381.38,2558.52L3381.45,2558.67L3381.52,2558.82L3381.6,2558.98L3381.68,2559.13L3381.75,2559.28L3381.83,2559.44L3381.91,2559.59L3382.06,2559.89L3382.22,2560.19L3382.38,2560.49L3382.55,2560.79L3382.71,2561.09L3382.88,2561.39L3383.05,2561.68L3383.23,2561.97L3383.4,2562.27L3383.58,2562.56L3383.76,2562.85L3383.94,2563.14L3384.13,2563.43L3384.31,2563.71L3384.5,2564L3384.69,2564.28L3384.89,2564.57L3385.08,2564.85L3385.27,2565.13L3385.47,2565.41L3385.67,2565.69L3385.87,2565.97L3386.08,2566.25L3386.28,2566.53L3386.49,2566.8L3386.69,2567.08L3386.9,2567.35L3387.11,2567.63L3387.33,2567.9L3387.54,2568.17L3387.76,2568.44L3387.97,2568.72L3388.19,2568.99L3388.41,2569.26L3388.63,2569.53L3388.85,2569.79L3389.07,2570.06L3389.29,2570.33L3389.52,2570.6L3389.74,2570.86L3389.97,2571.13L3390.2,2571.4L3390.43,2571.66L3390.66,2571.93L3390.89,2572.19L3391.12,2572.46L3391.35,2572.72L3391.81,2573.25L3392.28,2573.78L3392.75,2574.3L3393.22,2574.83L3393.69,2575.35L3394.64,2576.4L3395.59,2577.45L3396.06,2577.98L3396.54,2578.51L3397.01,2579.04L3397.48,2579.57L3397.95,2580.1L3398.42,2580.63L3398.65,2580.9L3398.89,2581.17L3399.12,2581.44L3399.35,2581.71L3399.58,2581.98L3399.81,2582.25L3400.04,2582.52L3400.27,2582.79L3400.49,2583.06L3400.72,2583.34L3400.95,2583.61L3401.17,2583.89L3401.39,2584.16L3401.61,2584.44L3401.84,2584.72L3402.06,2584.99L3402.27,2585.27L3402.49,2585.55L3402.71,2585.83L3402.92,2586.12L3403.14,2586.4L3403.35,2586.68L3403.56,2586.97L3403.76,2587.25L3403.97,2587.54L3404.18,2587.83L3404.38,2588.12L3404.58,2588.41L3404.78,2588.7L3404.98,2588.99L3405.18,2589.29L3405.37,2589.59L3405.57,2589.89L3405.77,2590.2L3405.96,2590.51L3406.15,2590.82L3406.34,2591.13L3406.53,2591.44L3406.71,2591.75L3406.89,2592.06L3407.07,2592.38L3407.24,2592.69L3407.41,2593.01L3407.58,2593.32L3407.75,2593.64L3407.92,2593.95L3408.08,2594.27L3408.24,2594.59L3408.4,2594.91L3408.56,2595.22L3408.72,2595.54L3408.87,2595.86L3409.02,2596.18L3409.17,2596.5L3409.32,2596.82L3409.47,2597.14L3409.62,2597.47L3409.76,2597.79L3409.9,2598.11L3410.04,2598.44L3410.18,2598.76L3410.32,2599.08L3410.46,2599.41L3410.6,2599.73L3410.73,2600.06L3410.87,2600.38L3411,2600.71L3411.13,2601.03L3411.26,2601.36L3411.4,2601.69L3411.66,2602.34L3411.91,2602.99L3412.17,2603.65L3412.42,2604.3L3412.68,2604.96L3413.18,2606.27L3413.43,2606.93L3413.69,2607.59L3413.94,2608.24L3414.2,2608.9L3414.46,2609.56L3414.72,2610.21L3414.89,2610.66L3415.07,2611.1L3415.25,2611.55L3415.42,2611.99L3415.6,2612.44L3415.77,2612.89L3415.94,2613.34L3416.12,2613.79L3416.29,2614.25L3416.46,2614.7L3416.63,2615.16L3416.8,2615.62L3416.97,2616.08L3417.14,2616.53L3417.31,2617L3417.48,2617.46L3417.65,2617.92L3417.81,2618.39L3417.98,2618.85L3418.14,2619.32L3418.31,2619.79L3418.47,2620.26L3418.63,2620.73L3418.79,2621.2L3418.95,2621.67L3419.11,2622.14L3419.27,2622.62L3419.42,2623.09L3419.58,2623.57L3419.73,2624.05L3419.89,2624.52L3420.04,2625L3420.19,2625.48L3420.34,2625.96L3420.49,2626.45L3420.64,2626.93L3420.78,2627.41L3420.93,2627.89L3421.07,2628.38L3421.21,2628.87L3421.35,2629.35L3421.49,2629.84L3421.63,2630.33L3421.76,2630.81L3421.9,2631.3L3422.03,2631.79L3422.16,2632.28L3422.29,2632.77L3422.42,2633.27L3422.55,2633.76L3422.67,2634.25L3422.8,2634.74L3422.92,2635.24L3423.04,2635.73L3423.16,2636.23L3423.28,2636.72L3423.39,2637.22L3423.5,2637.72L3423.61,2638.21L3423.72,2638.71L3423.83,2639.21L3423.94,2639.71L3424.04,2640.2L3424.14,2640.7L3424.24,2641.2L3424.34,2641.7L3424.43,2642.2L3424.53,2642.7L3424.62,2643.2L3424.71,2643.7L3424.79,2644.2L3424.88,2644.7L3424.96,2645.21L3425.04,2645.71L3425.12,2646.21L3425.2,2646.71L3425.27,2647.21L3425.34,2647.71L3425.41,2648.22L3425.48,2648.72L3425.54,2649.22L3425.6,2649.72L3425.66,2650.23L3425.72,2650.73L3425.77,2651.23L3425.83,2651.73L3425.87,2652.24L3425.92,2652.74L3425.96,2653.24L3426.01,2653.74L3426.04,2654.24L3426.08,2654.75L3426.11,2655.25L3426.14,2655.75L3426.17,2656.25L3426.2,2656.75L3426.22,2657.25L3426.24,2657.75L3426.26,2658.25L3426.27,2658.76L3426.28,2659.26L3426.29,2659.75L3426.29,2660.25L3426.29,2660.75L3426.29,2661L3426.29,2661.25L3426.29,2661.5L3426.29,2661.75L3426.28,2662L3426.28,2662.25L3426.28,2662.5L3426.27,2662.75L3426.26,2662.99L3426.26,2663.24L3426.25,2663.49L3426.24,2663.74L3426.23,2663.99L3426.22,2664.24L3426.21,2664.48L3426.2,2664.73L3426.18,2664.98L3426.17,2665.23L3426.16,2665.47L3426.14,2665.72L3426.13,2665.97L3426.11,2666.22L3426.09,2666.46L3426.07,2666.71L3426.05,2666.96L3426.03,2667.2L3426.01,2667.45L3425.99,2667.7L3425.97,2667.94L3425.94,2668.19L3425.92,2668.43L3425.89,2668.68L3425.87,2668.93L3425.84,2669.17L3425.81,2669.42L3425.78,2669.66L3425.75,2669.91L3425.72,2670.15L3425.69,2670.4L3425.66,2670.64L3425.63,2670.88L3425.59,2671.13L3425.56,2671.37L3425.52,2671.62L3425.49,2671.86L3425.45,2672.1L3425.41,2672.35L3425.37,2672.59L3424.22,2673.41L3423.4,2672.27L3423.43,2672.03L3423.47,2671.79L3423.51,2671.56L3423.54,2671.32L3423.58,2671.09L3423.61,2670.85L3423.65,2670.61L3423.68,2670.38L3423.71,2670.14L3423.74,2669.9L3423.77,2669.66L3423.8,2669.43L3423.83,2669.19L3423.85,2668.95L3423.88,2668.71L3423.91,2668.47L3423.93,2668.23L3423.95,2667.99L3423.98,2667.76L3424,2667.52L3424.02,2667.28L3424.04,2667.04L3424.06,2666.8L3424.08,2666.56L3424.1,2666.32L3424.11,2666.08L3424.13,2665.84L3424.14,2665.6L3424.16,2665.36L3424.17,2665.12L3424.19,2664.87L3424.2,2664.63L3424.21,2664.39L3424.22,2664.15L3424.23,2663.91L3424.24,2663.67L3424.25,2663.42L3424.26,2663.18L3424.26,2662.94L3424.27,2662.7L3424.28,2662.45L3424.28,2662.21L3424.28,2661.97L3424.29,2661.73L3424.29,2661.48L3424.29,2661.24L3424.29,2661L3424.29,2660.76L3424.29,2660.27L3424.29,2659.78L3424.28,2659.29L3424.27,2658.8L3424.26,2658.31L3424.24,2657.83L3424.22,2657.34L3424.2,2656.85L3424.18,2656.36L3424.15,2655.87L3424.12,2655.38L3424.09,2654.88L3424.05,2654.39L3424.01,2653.9L3423.97,2653.41L3423.93,2652.92L3423.88,2652.43L3423.84,2651.93L3423.78,2651.44L3423.73,2650.95L3423.68,2650.45L3423.62,2649.96L3423.56,2649.47L3423.49,2648.98L3423.43,2648.48L3423.36,2647.99L3423.29,2647.5L3423.22,2647.01L3423.14,2646.51L3423.07,2646.02L3422.99,2645.53L3422.91,2645.03L3422.82,2644.54L3422.74,2644.05L3422.65,2643.56L3422.56,2643.07L3422.47,2642.57L3422.37,2642.08L3422.28,2641.59L3422.18,2641.1L3422.08,2640.61L3421.98,2640.12L3421.88,2639.63L3421.77,2639.14L3421.66,2638.65L3421.55,2638.16L3421.44,2637.67L3421.33,2637.18L3421.21,2636.69L3421.1,2636.2L3420.98,2635.71L3420.86,2635.23L3420.74,2634.74L3420.61,2634.25L3420.49,2633.77L3420.36,2633.28L3420.23,2632.8L3420.1,2632.32L3419.97,2631.83L3419.84,2631.35L3419.7,2630.87L3419.57,2630.38L3419.43,2629.9L3419.29,2629.42L3419.15,2628.94L3419.01,2628.46L3418.87,2627.99L3418.72,2627.51L3418.58,2627.03L3418.43,2626.55L3418.28,2626.08L3418.13,2625.61L3417.98,2625.13L3417.83,2624.66L3417.68,2624.19L3417.52,2623.72L3417.37,2623.25L3417.21,2622.78L3417.06,2622.31L3416.9,2621.84L3416.74,2621.38L3416.58,2620.91L3416.42,2620.45L3416.26,2619.98L3416.09,2619.52L3415.93,2619.06L3415.76,2618.6L3415.6,2618.14L3415.43,2617.68L3415.26,2617.22L3415.1,2616.77L3414.93,2616.31L3414.76,2615.86L3414.59,2615.41L3414.42,2614.96L3414.25,2614.51L3414.08,2614.06L3413.91,2613.61L3413.73,2613.16L3413.56,2612.72L3413.39,2612.28L3413.21,2611.84L3413.03,2611.39L3412.86,2610.95L3412.6,2610.29L3412.34,2609.63L3412.08,2608.97L3411.82,2608.31L3411.57,2607.65L3411.31,2606.99L3410.81,2605.68L3410.56,2605.02L3410.31,2604.37L3410.05,2603.72L3409.8,2603.08L3409.54,2602.43L3409.41,2602.11L3409.28,2601.78L3409.15,2601.46L3409.02,2601.14L3408.89,2600.82L3408.75,2600.51L3408.62,2600.19L3408.48,2599.87L3408.35,2599.55L3408.21,2599.23L3408.07,2598.92L3407.93,2598.6L3407.79,2598.29L3407.65,2597.97L3407.51,2597.66L3407.36,2597.35L3407.21,2597.04L3407.07,2596.73L3406.92,2596.42L3406.77,2596.11L3406.61,2595.8L3406.46,2595.49L3406.3,2595.18L3406.14,2594.88L3405.98,2594.57L3405.82,2594.27L3405.66,2593.96L3405.49,2593.66L3405.32,2593.36L3405.15,2593.06L3404.98,2592.76L3404.8,2592.46L3404.63,2592.16L3404.45,2591.86L3404.26,2591.56L3404.08,2591.27L3403.89,2590.97L3403.7,2590.68L3403.51,2590.39L3403.32,2590.11L3403.13,2589.83L3402.94,2589.55L3402.74,2589.26L3402.55,2588.98L3402.35,2588.7L3402.15,2588.43L3401.94,2588.15L3401.74,2587.87L3401.53,2587.6L3401.33,2587.32L3401.12,2587.05L3400.91,2586.77L3400.7,2586.5L3400.48,2586.23L3400.27,2585.96L3400.05,2585.69L3399.84,2585.42L3399.62,2585.15L3399.4,2584.88L3399.18,2584.61L3398.95,2584.34L3398.73,2584.08L3398.51,2583.81L3398.28,2583.54L3398.06,2583.28L3397.83,2583.01L3397.6,2582.74L3397.37,2582.48L3397.14,2582.22L3396.91,2581.95L3396.45,2581.42L3395.98,2580.9L3395.52,2580.37L3395.05,2579.84L3394.58,2579.32L3394.1,2578.79L3393.15,2577.74L3392.2,2576.69L3391.73,2576.16L3391.26,2575.63L3390.78,2575.11L3390.31,2574.57L3389.84,2574.04L3389.61,2573.77L3389.38,2573.51L3389.14,2573.24L3388.91,2572.97L3388.68,2572.7L3388.45,2572.43L3388.22,2572.16L3387.99,2571.89L3387.76,2571.61L3387.53,2571.34L3387.31,2571.07L3387.08,2570.79L3386.86,2570.52L3386.63,2570.24L3386.41,2569.97L3386.19,2569.69L3385.97,2569.41L3385.75,2569.13L3385.53,2568.85L3385.32,2568.57L3385.1,2568.28L3384.89,2568L3384.67,2567.72L3384.46,2567.43L3384.25,2567.14L3384.05,2566.86L3383.84,2566.57L3383.64,2566.28L3383.43,2565.99L3383.23,2565.69L3383.03,2565.4L3382.84,2565.1L3382.64,2564.81L3382.45,2564.51L3382.26,2564.21L3382.07,2563.91L3381.88,2563.61L3381.69,2563.3L3381.51,2563L3381.33,2562.69L3381.15,2562.38L3380.97,2562.07L3380.8,2561.76L3380.63,2561.45L3380.46,2561.13L3380.29,2560.82L3380.13,2560.5L3380.04,2560.34L3379.96,2560.18L3379.88,2560.02L3379.8,2559.86L3379.72,2559.7L3379.65,2559.53L3379.57,2559.37L3379.49,2559.21L3379.42,2559.05L3379.34,2558.88L3379.27,2558.72L3379.19,2558.55L3379.12,2558.39L3379.05,2558.22L3378.97,2558.06L3378.9,2557.89L3378.83,2557.72L3378.76,2557.56L3378.7,2557.39L3378.63,2557.22L3378.56,2557.05L3378.49,2556.88L3378.43,2556.71L3378.36,2556.54L3378.3,2556.37L3378.23,2556.2L3378.17,2556.03L3378.11,2555.86L3378.05,2555.68L3377.99,2555.51L3377.93,2555.34L3377.87,2555.16L3377.81,2554.99L3377.75,2554.81L3377.7,2554.64L3377.64,2554.46L3377.59,2554.28L3377.53,2554.11L3378.2,2552.86L3379.45,2553.53Z"/>
            </g>
        </g>
        <g transform="matrix(0.542969,0,0,0.605556,2882,2539)">
            <g transform="matrix(1.84173,0,0,1.65138,-5307.86,-4192.84)">
                <path d="M3339.83,2568.74L3340.01,2568.86L3340.19,2568.97L3340.37,2569.09L3340.55,2569.2L3340.73,2569.32L3340.9,2569.44L3341.08,2569.56L3341.26,2569.68L3341.43,2569.8L3341.61,2569.92L3341.78,2570.05L3341.95,2570.17L3342.12,2570.3L3342.3,2570.42L3342.47,2570.55L3342.64,2570.68L3342.8,2570.81L3342.97,2570.94L3343.14,2571.07L3343.31,2571.2L3343.47,2571.34L3343.64,2571.47L3343.8,2571.61L3343.97,2571.74L3344.13,2571.88L3344.29,2572.01L3344.45,2572.15L3344.62,2572.29L3344.78,2572.43L3344.94,2572.57L3345.1,2572.71L3345.26,2572.85L3345.41,2572.99L3345.57,2573.14L3345.73,2573.28L3345.89,2573.42L3346.04,2573.57L3346.2,2573.71L3346.35,2573.86L3346.51,2574.01L3346.66,2574.15L3346.82,2574.3L3346.97,2574.45L3347.27,2574.75L3347.58,2575.05L3347.88,2575.35L3348.17,2575.66L3348.47,2575.96L3348.76,2576.27L3349.06,2576.58L3349.35,2576.89L3349.64,2577.2L3349.93,2577.52L3350.22,2577.83L3350.5,2578.15L3350.78,2578.47L3351.07,2578.78L3351.35,2579.1L3351.63,2579.42L3351.91,2579.74L3352.19,2580.06L3352.47,2580.38L3352.74,2580.7L3353.29,2581.35L3353.84,2581.99L3354.39,2582.63L3355.47,2583.91L3356.01,2584.55L3356.55,2585.18L3356.82,2585.49L3357.09,2585.8L3357.36,2586.12L3357.63,2586.43L3357.9,2586.73L3358.17,2587.04L3358.44,2587.35L3358.71,2587.65L3358.95,2587.91L3359.19,2588.18L3359.43,2588.44L3359.68,2588.71L3359.92,2588.97L3360.16,2589.23L3360.41,2589.49L3360.66,2589.75L3360.91,2590.01L3361.16,2590.27L3361.41,2590.53L3361.66,2590.78L3361.92,2591.04L3362.17,2591.3L3362.43,2591.55L3362.68,2591.81L3362.94,2592.06L3363.2,2592.31L3363.46,2592.57L3363.72,2592.82L3363.98,2593.07L3364.24,2593.32L3364.5,2593.57L3364.76,2593.82L3365.03,2594.07L3365.29,2594.32L3365.56,2594.57L3365.82,2594.82L3366.09,2595.06L3366.35,2595.31L3366.89,2595.8L3367.43,2596.29L3367.97,2596.78L3368.51,2597.27L3369.05,2597.76L3369.59,2598.24L3370.14,2598.72L3370.68,2599.21L3371.23,2599.69L3371.77,2600.17L3372.32,2600.65L3373.41,2601.61L3374.51,2602.57L3375.59,2603.52L3375.72,2603.64L3375.85,2603.75L3375.99,2603.86L3376.12,2603.97L3376.25,2604.08L3376.38,2604.19L3376.51,2604.3L3376.65,2604.41L3376.78,2604.51L3376.92,2604.62L3377.06,2604.72L3377.19,2604.83L3377.33,2604.93L3377.47,2605.03L3377.6,2605.14L3377.74,2605.24L3377.88,2605.34L3378.02,2605.44L3378.16,2605.54L3378.3,2605.64L3378.45,2605.74L3378.59,2605.83L3378.73,2605.93L3378.87,2606.03L3379.02,2606.12L3379.16,2606.22L3379.31,2606.31L3379.45,2606.4L3379.74,2606.59L3380.04,2606.77L3380.33,2606.95L3380.63,2607.13L3380.93,2607.31L3381.23,2607.49L3381.53,2607.66L3381.83,2607.84L3382.14,2608.01L3382.44,2608.18L3382.75,2608.35L3383.06,2608.52L3383.36,2608.68L3383.67,2608.85L3383.99,2609.01L3384.3,2609.18L3384.61,2609.35L3384.92,2609.51L3385.55,2609.84L3386.18,2610.16L3386.81,2610.49L3387.45,2610.82L3388.08,2611.15L3388.4,2611.31L3388.72,2611.48L3389.03,2611.65L3389.35,2611.82L3389.66,2611.99L3389.98,2612.16L3390.29,2612.33L3390.61,2612.5L3390.92,2612.68L3391.24,2612.86L3391.55,2613.03L3391.86,2613.22L3392.17,2613.4L3392.48,2613.59L3392.79,2613.77L3393.1,2613.96L3393.41,2614.16L3393.71,2614.35L3393.86,2614.45L3394.01,2614.55L3394.17,2614.65L3394.32,2614.75L3394.47,2614.85L3394.62,2614.95L3394.77,2615.06L3394.92,2615.16L3395.13,2615.31L3395.33,2615.45L3395.53,2615.6L3395.74,2615.75L3395.93,2615.9L3396.13,2616.05L3396.33,2616.21L3396.52,2616.36L3396.72,2616.51L3396.91,2616.67L3397.1,2616.83L3397.28,2616.99L3397.47,2617.15L3397.65,2617.31L3397.83,2617.47L3398.01,2617.63L3398.19,2617.8L3398.37,2617.96L3398.55,2618.13L3398.72,2618.3L3398.9,2618.46L3399.07,2618.63L3399.24,2618.8L3399.41,2618.97L3399.58,2619.15L3399.74,2619.32L3399.91,2619.49L3400.07,2619.67L3400.24,2619.84L3400.4,2620.02L3400.56,2620.2L3400.72,2620.38L3400.87,2620.56L3401.03,2620.74L3401.19,2620.92L3401.34,2621.1L3401.5,2621.28L3401.65,2621.47L3401.8,2621.65L3401.95,2621.84L3402.1,2622.03L3402.25,2622.21L3402.4,2622.4L3402.55,2622.59L3402.69,2622.78L3402.84,2622.97L3402.99,2623.16L3403.13,2623.35L3403.27,2623.55L3403.42,2623.74L3403.56,2623.93L3403.7,2624.13L3403.84,2624.33L3403.98,2624.52L3404.13,2624.72L3404.26,2624.92L3404.41,2625.12L3404.54,2625.32L3404.82,2625.72L3405.1,2626.12L3405.37,2626.53L3405.1,2627.92L3403.71,2627.65L3403.44,2627.25L3403.17,2626.85L3402.9,2626.46L3402.77,2626.26L3402.63,2626.07L3402.49,2625.88L3402.36,2625.68L3402.22,2625.49L3402.08,2625.3L3401.95,2625.12L3401.81,2624.93L3401.67,2624.74L3401.53,2624.55L3401.39,2624.37L3401.25,2624.18L3401.11,2624L3400.97,2623.82L3400.83,2623.64L3400.68,2623.45L3400.54,2623.28L3400.4,2623.1L3400.25,2622.92L3400.11,2622.74L3399.96,2622.57L3399.81,2622.39L3399.67,2622.22L3399.52,2622.05L3399.37,2621.87L3399.22,2621.7L3399.07,2621.53L3398.91,2621.37L3398.76,2621.2L3398.61,2621.03L3398.45,2620.87L3398.3,2620.7L3398.14,2620.54L3397.98,2620.38L3397.82,2620.21L3397.66,2620.05L3397.5,2619.89L3397.34,2619.74L3397.17,2619.58L3397.01,2619.42L3396.84,2619.27L3396.67,2619.11L3396.5,2618.96L3396.33,2618.81L3396.16,2618.66L3395.98,2618.51L3395.81,2618.36L3395.63,2618.21L3395.45,2618.07L3395.27,2617.92L3395.09,2617.78L3394.91,2617.63L3394.72,2617.49L3394.54,2617.35L3394.35,2617.21L3394.16,2617.07L3393.97,2616.94L3393.77,2616.8L3393.63,2616.7L3393.49,2616.6L3393.35,2616.51L3393.2,2616.41L3393.06,2616.31L3392.92,2616.22L3392.77,2616.13L3392.63,2616.03L3392.33,2615.84L3392.04,2615.66L3391.75,2615.48L3391.45,2615.3L3391.15,2615.12L3390.85,2614.94L3390.55,2614.77L3390.25,2614.59L3389.94,2614.42L3389.64,2614.25L3389.33,2614.08L3389.02,2613.91L3388.71,2613.74L3388.4,2613.58L3388.09,2613.41L3387.78,2613.25L3387.47,2613.08L3387.16,2612.92L3386.53,2612.59L3385.9,2612.26L3385.26,2611.94L3384.63,2611.61L3384,2611.28L3383.68,2611.12L3383.36,2610.95L3383.05,2610.78L3382.73,2610.61L3382.41,2610.44L3382.1,2610.27L3381.78,2610.1L3381.47,2609.93L3381.16,2609.75L3380.84,2609.58L3380.53,2609.4L3380.22,2609.22L3379.91,2609.03L3379.6,2608.85L3379.29,2608.66L3378.98,2608.47L3378.67,2608.28L3378.37,2608.09L3378.22,2607.99L3378.07,2607.89L3377.91,2607.79L3377.76,2607.69L3377.61,2607.59L3377.46,2607.49L3377.31,2607.38L3377.16,2607.28L3377.01,2607.18L3376.87,2607.07L3376.72,2606.96L3376.57,2606.86L3376.42,2606.75L3376.27,2606.64L3376.13,2606.53L3375.98,2606.42L3375.84,2606.31L3375.69,2606.2L3375.55,2606.09L3375.4,2605.97L3375.26,2605.86L3375.12,2605.74L3374.97,2605.63L3374.83,2605.51L3374.69,2605.39L3374.55,2605.27L3374.41,2605.15L3374.27,2605.03L3373.19,2604.07L3372.1,2603.11L3371,2602.15L3370.45,2601.67L3369.91,2601.19L3369.36,2600.71L3368.81,2600.22L3368.26,2599.74L3367.72,2599.25L3367.17,2598.76L3366.62,2598.27L3366.08,2597.77L3365.54,2597.28L3365,2596.78L3364.73,2596.53L3364.46,2596.28L3364.19,2596.03L3363.92,2595.78L3363.65,2595.53L3363.39,2595.27L3363.12,2595.02L3362.85,2594.77L3362.59,2594.51L3362.33,2594.26L3362.06,2594L3361.8,2593.74L3361.54,2593.49L3361.27,2593.23L3361.01,2592.97L3360.75,2592.71L3360.49,2592.45L3360.24,2592.19L3359.98,2591.93L3359.72,2591.66L3359.47,2591.4L3359.22,2591.13L3358.96,2590.87L3358.71,2590.6L3358.46,2590.34L3358.21,2590.07L3357.96,2589.8L3357.71,2589.53L3357.47,2589.26L3357.22,2588.98L3356.95,2588.68L3356.67,2588.37L3356.4,2588.05L3356.12,2587.74L3355.85,2587.43L3355.58,2587.11L3355.3,2586.8L3355.03,2586.48L3354.49,2585.85L3353.95,2585.21L3352.86,2583.93L3352.32,2583.29L3351.77,2582.65L3351.23,2582.01L3350.95,2581.69L3350.68,2581.37L3350.4,2581.06L3350.13,2580.74L3349.85,2580.43L3349.57,2580.11L3349.29,2579.8L3349.01,2579.49L3348.73,2579.18L3348.45,2578.87L3348.17,2578.56L3347.89,2578.26L3347.6,2577.95L3347.32,2577.65L3347.03,2577.35L3346.74,2577.05L3346.45,2576.76L3346.16,2576.46L3345.87,2576.17L3345.57,2575.88L3345.43,2575.74L3345.28,2575.6L3345.13,2575.45L3344.98,2575.31L3344.83,2575.17L3344.68,2575.03L3344.53,2574.89L3344.38,2574.76L3344.23,2574.62L3344.08,2574.48L3343.93,2574.34L3343.77,2574.21L3343.62,2574.07L3343.47,2573.94L3343.31,2573.8L3343.16,2573.67L3343,2573.54L3342.85,2573.41L3342.69,2573.28L3342.53,2573.15L3342.38,2573.02L3342.22,2572.89L3342.06,2572.77L3341.9,2572.64L3341.74,2572.52L3341.58,2572.39L3341.42,2572.27L3341.26,2572.15L3341.1,2572.03L3340.94,2571.91L3340.78,2571.79L3340.61,2571.67L3340.45,2571.55L3340.28,2571.44L3340.12,2571.32L3339.95,2571.21L3339.79,2571.1L3339.62,2570.98L3339.45,2570.87L3339.28,2570.76L3339.11,2570.66L3338.94,2570.55L3338.77,2570.44L3338.6,2570.33L3338.27,2568.96L3339.65,2568.63L3339.83,2568.74Z"/>
            </g>
        </g>
        <g transform="matrix(0.542969,0,0,0.605556,2882,2539)">
            <g transform="matrix(1.84173,0,0,1.65138,-5307.86,-4192.84)">
                <path d="M3379.46,2554.46L3379.4,2554.7L3379.34,2554.94L3379.29,2555.18L3379.23,2555.42L3379.18,2555.66L3379.13,2555.9L3379.08,2556.14L3379.03,2556.38L3378.99,2556.62L3378.94,2556.86L3378.9,2557.1L3378.86,2557.33L3378.82,2557.57L3378.78,2557.81L3378.74,2558.05L3378.7,2558.28L3378.67,2558.52L3378.64,2558.75L3378.61,2558.99L3378.58,2559.22L3378.55,2559.46L3378.52,2559.7L3378.5,2559.93L3378.47,2560.16L3378.45,2560.4L3378.43,2560.63L3378.41,2560.86L3378.39,2561.1L3378.38,2561.33L3378.36,2561.56L3378.35,2561.8L3378.33,2562.03L3378.32,2562.26L3378.31,2562.49L3378.3,2562.72L3378.3,2562.95L3378.29,2563.18L3378.28,2563.42L3378.28,2563.65L3378.28,2563.88L3378.28,2564.11L3378.28,2564.34L3378.28,2564.57L3378.28,2564.8L3378.29,2565.03L3378.29,2565.25L3378.3,2565.48L3378.31,2565.71L3378.32,2565.94L3378.33,2566.17L3378.34,2566.4L3378.35,2566.62L3378.37,2566.85L3378.38,2567.08L3378.39,2567.31L3378.41,2567.53L3378.43,2567.76L3378.45,2567.99L3378.47,2568.21L3378.49,2568.44L3378.51,2568.67L3378.54,2568.89L3378.56,2569.12L3378.59,2569.35L3378.62,2569.57L3378.64,2569.8L3378.67,2570.02L3378.7,2570.25L3378.73,2570.47L3378.76,2570.7L3378.8,2570.92L3378.83,2571.15L3378.87,2571.37L3378.9,2571.6L3378.94,2571.82L3378.98,2572.04L3379.01,2572.27L3379.05,2572.49L3379.09,2572.72L3379.14,2572.94L3379.18,2573.16L3379.22,2573.39L3379.26,2573.61L3379.31,2573.83L3379.36,2574.05L3379.4,2574.28L3379.45,2574.5L3379.5,2574.72L3379.55,2574.95L3379.6,2575.17L3379.64,2575.39L3379.7,2575.61L3379.75,2575.84L3379.8,2576.06L3379.91,2576.5L3380.02,2576.95L3380.13,2577.39L3380.25,2577.83L3380.37,2578.28L3380.49,2578.72L3380.61,2579.16L3380.74,2579.6L3380.87,2580.05L3381,2580.49L3381.13,2580.93L3381.27,2581.37L3381.4,2581.81L3381.54,2582.25L3381.68,2582.69L3381.83,2583.13L3381.97,2583.58L3382.12,2584.02L3382.27,2584.46L3382.41,2584.9L3382.57,2585.34L3382.72,2585.78L3382.87,2586.22L3383.03,2586.66L3383.18,2587.1L3383.34,2587.54L3383.49,2587.98L3383.81,2588.87L3384.13,2589.75L3384.45,2590.63L3385.1,2592.4L3385.42,2593.29L3385.74,2594.18L3386.06,2595.07L3386.38,2595.96L3386.54,2596.4L3386.7,2596.85L3386.85,2597.3L3387.01,2597.74L3387.16,2598.19L3387.32,2598.64L3387.47,2599.09L3387.62,2599.54L3387.77,2599.99L3387.92,2600.44L3388.07,2600.89L3388.21,2601.34L3388.36,2601.79L3388.5,2602.24L3388.64,2602.7L3388.78,2603.15L3388.91,2603.61L3389.05,2604.06L3389.18,2604.52L3389.31,2604.98L3389.43,2605.44L3389.56,2605.89L3389.68,2606.35L3389.8,2606.81L3389.92,2607.28L3390.03,2607.74L3390.09,2607.97L3390.14,2608.2L3390.2,2608.43L3390.25,2608.66L3390.3,2608.9L3390.36,2609.13L3390.41,2609.36L3390.46,2609.6L3390.51,2609.83L3390.56,2610.06L3390.61,2610.3L3390.65,2610.53L3390.7,2610.76L3390.74,2611L3390.79,2611.23L3390.83,2611.47L3390.88,2611.7L3390.92,2611.94L3390.96,2612.18L3391,2612.41L3390.18,2613.56L3389.03,2612.74L3388.99,2612.51L3388.95,2612.29L3388.91,2612.06L3388.87,2611.83L3388.82,2611.6L3388.78,2611.38L3388.74,2611.15L3388.69,2610.92L3388.64,2610.7L3388.6,2610.47L3388.55,2610.24L3388.5,2610.02L3388.45,2609.79L3388.4,2609.56L3388.35,2609.34L3388.3,2609.11L3388.25,2608.89L3388.2,2608.66L3388.14,2608.44L3388.09,2608.21L3387.98,2607.76L3387.86,2607.31L3387.75,2606.86L3387.63,2606.41L3387.51,2605.97L3387.38,2605.52L3387.26,2605.07L3387.13,2604.62L3386.99,2604.18L3386.86,2603.73L3386.72,2603.28L3386.59,2602.84L3386.45,2602.39L3386.31,2601.95L3386.16,2601.51L3386.02,2601.06L3385.87,2600.62L3385.72,2600.17L3385.58,2599.73L3385.42,2599.28L3385.27,2598.84L3385.12,2598.4L3384.97,2597.96L3384.81,2597.51L3384.65,2597.07L3384.5,2596.63L3384.18,2595.74L3383.86,2594.86L3383.54,2593.97L3383.22,2593.09L3382.57,2591.32L3382.25,2590.43L3381.93,2589.54L3381.61,2588.66L3381.45,2588.21L3381.29,2587.77L3381.14,2587.32L3380.98,2586.88L3380.83,2586.43L3380.67,2585.99L3380.52,2585.54L3380.37,2585.1L3380.22,2584.65L3380.07,2584.2L3379.93,2583.75L3379.78,2583.31L3379.64,2582.86L3379.5,2582.41L3379.36,2581.96L3379.22,2581.51L3379.08,2581.06L3378.95,2580.61L3378.82,2580.16L3378.69,2579.7L3378.56,2579.25L3378.44,2578.8L3378.32,2578.35L3378.2,2577.89L3378.08,2577.43L3377.97,2576.98L3377.86,2576.52L3377.8,2576.29L3377.75,2576.07L3377.7,2575.84L3377.64,2575.61L3377.59,2575.38L3377.54,2575.15L3377.49,2574.92L3377.44,2574.69L3377.4,2574.46L3377.35,2574.23L3377.3,2574L3377.26,2573.77L3377.21,2573.54L3377.17,2573.3L3377.13,2573.07L3377.09,2572.84L3377.04,2572.61L3377,2572.38L3376.97,2572.15L3376.93,2571.91L3376.89,2571.68L3376.85,2571.45L3376.82,2571.22L3376.78,2570.98L3376.75,2570.75L3376.72,2570.51L3376.69,2570.28L3376.66,2570.05L3376.63,2569.81L3376.6,2569.58L3376.58,2569.34L3376.55,2569.11L3376.53,2568.87L3376.5,2568.63L3376.48,2568.4L3376.46,2568.16L3376.44,2567.93L3376.42,2567.69L3376.4,2567.45L3376.38,2567.21L3376.37,2566.98L3376.35,2566.74L3376.34,2566.5L3376.33,2566.26L3376.32,2566.02L3376.31,2565.78L3376.3,2565.55L3376.29,2565.31L3376.29,2565.07L3376.28,2564.83L3376.28,2564.59L3376.28,2564.35L3376.28,2564.11L3376.28,2563.86L3376.28,2563.62L3376.28,2563.38L3376.29,2563.14L3376.3,2562.9L3376.3,2562.65L3376.31,2562.41L3376.32,2562.17L3376.34,2561.93L3376.35,2561.68L3376.36,2561.44L3376.38,2561.19L3376.4,2560.95L3376.42,2560.7L3376.44,2560.46L3376.46,2560.21L3376.48,2559.97L3376.51,2559.72L3376.53,2559.47L3376.56,2559.23L3376.59,2558.98L3376.62,2558.73L3376.66,2558.49L3376.69,2558.24L3376.72,2557.99L3376.76,2557.74L3376.8,2557.49L3376.84,2557.24L3376.88,2556.99L3376.93,2556.74L3376.97,2556.49L3377.02,2556.24L3377.07,2555.99L3377.12,2555.74L3377.17,2555.49L3377.23,2555.24L3377.28,2554.99L3377.34,2554.73L3377.4,2554.48L3377.46,2554.23L3377.52,2553.98L3378.73,2553.25L3379.46,2554.46Z"/>
            </g>
        </g>
        <g transform="matrix(0.542969,0,0,0.605556,2882,2539)">
            <g transform="matrix(1.84173,0,0,1.65138,-5307.86,-4192.84)">
                <path d="M3389.66,2541.13L3389.49,2541.31L3389.32,2541.49L3389.15,2541.67L3388.98,2541.86L3388.81,2542.04L3388.64,2542.22L3388.47,2542.41L3388.3,2542.6L3388.13,2542.79L3387.97,2542.98L3387.8,2543.17L3387.63,2543.36L3387.47,2543.55L3387.3,2543.75L3387.14,2543.94L3386.97,2544.14L3386.81,2544.33L3386.65,2544.53L3386.48,2544.73L3386.32,2544.93L3386.16,2545.13L3386,2545.33L3385.84,2545.53L3385.68,2545.74L3385.52,2545.94L3385.36,2546.14L3385.04,2546.55L3384.73,2546.96L3384.41,2547.38L3384.1,2547.79L3383.79,2548.21L3383.48,2548.63L3383.18,2549.05L3382.87,2549.47L3382.57,2549.89L3382.26,2550.32L3381.96,2550.74L3381.66,2551.16L3381.36,2551.58L3380.77,2552.42L3379.59,2554.09L3378.2,2554.33L3377.96,2552.94L3379.13,2551.27L3379.73,2550.43L3380.03,2550L3380.33,2549.58L3380.64,2549.15L3380.94,2548.72L3381.25,2548.3L3381.56,2547.87L3381.87,2547.45L3382.18,2547.02L3382.5,2546.6L3382.82,2546.18L3383.14,2545.75L3383.46,2545.33L3383.78,2544.91L3383.94,2544.7L3384.11,2544.5L3384.27,2544.29L3384.44,2544.08L3384.6,2543.88L3384.77,2543.67L3384.93,2543.47L3385.1,2543.26L3385.27,2543.06L3385.44,2542.86L3385.61,2542.65L3385.78,2542.45L3385.95,2542.25L3386.12,2542.05L3386.29,2541.86L3386.46,2541.66L3386.64,2541.46L3386.81,2541.26L3386.98,2541.07L3387.16,2540.88L3387.34,2540.68L3387.51,2540.49L3387.69,2540.3L3387.87,2540.12L3388.05,2539.93L3388.23,2539.74L3389.64,2539.72L3389.66,2541.13Z"/>
            </g>
        </g>
    </g>
</svg>
