<?xml version="1.0" encoding="UTF-8" standalone="no"?>
<!DOCTYPE svg PUBLIC "-//W3C//DTD SVG 1.1//EN" "http://www.w3.org/Graphics/SVG/1.1/DTD/svg11.dtd">
<svg width="100%" height="100%" viewBox="0 0 382 367" version="1.1" xmlns="http://www.w3.org/2000/svg" xmlns:xlink="http://www.w3.org/1999/xlink" xml:space="preserve" xmlns:serif="http://www.serif.com/" style="fill-rule:evenodd;clip-rule:evenodd;stroke-linejoin:round;stroke-miterlimit:2;">
    <g transform="matrix(1,0,0,1,-1602,-2765)">
        <g transform="matrix(1,0,0,1,1382,2551)">
            <g transform="matrix(0.422902,0,0,0.422902,-16.2995,185.904)">
                <path d="M1202.59,158.811C1194.39,153.371 1190.17,142.577 1186.89,131.64C1186.89,131.64 1187.06,129.96 1187.06,129.96C1187.06,129.96 1188.27,128.917 1188.37,128.886L1190.04,129.057L1191.11,130.35C1193.57,138.402 1196.56,146.655 1202.28,152.554C1204.87,155.229 1208.3,157.231 1212.09,157.225C1220.32,157.211 1226.77,150.645 1231.83,145.021C1242.85,132.766 1251.52,117.893 1256.63,102.662C1257.05,101.439 1257.51,99.598 1257.51,99.598C1258.69,89.52 1257.76,77.171 1246.27,73.395C1236.73,70.258 1226.39,72.923 1216.83,75.33C1216.83,75.33 1211.95,80.121 1207.86,83.526C1188.07,100.021 1162.31,108.303 1137.43,111.629C1126.5,113.091 1115.4,113.809 1104.48,113.069C1104.48,113.069 1099.92,114.434 1096.12,115.668C1047.8,131.353 999.997,152.088 963.303,186.672C951.403,197.886 940.794,210.664 933.756,225.356C933.756,225.356 928.46,241.153 928.46,241.153C928.46,241.153 926.85,243.934 924.502,243.608C922.277,243.299 921.064,241.02 921.618,238.19C922.576,233.294 924.391,228.543 926.471,223.97L926.488,223.919L596.915,291.519C596.915,291.519 593.454,290.838 593.454,290.838C593.454,290.838 591.479,287.905 591.479,287.905L592.162,284.454C592.162,284.454 595.085,282.481 595.085,282.481L930.896,215.436C931.024,215.215 931.153,214.994 931.282,214.773C948.666,185.367 977.415,163.586 1007.41,146.64C1037.16,129.836 1069.02,117.507 1102.12,107.412C1102.82,107.198 1108.58,107.312 1113.22,107.321C1132.26,107.358 1151.31,104.56 1169.39,98.324C1185.52,92.766 1200.82,84.12 1212.61,71.598C1212.61,71.598 1213.07,70.791 1214.36,70.376C1221.8,68.566 1229.33,66.818 1236.99,66.82C1246.21,66.874 1255.8,70.032 1260.17,78.93C1263.33,85.359 1263.37,92.858 1262.56,99.81C1262.56,99.81 1261.75,103.442 1260.62,106.407C1252.82,126.858 1241.53,147.664 1223.45,158.364C1219.03,160.985 1213.58,162.421 1208.53,161.375L1208.1,162.284C1203.93,166.001 1198.68,168.501 1193.4,170.622C1189.81,172.065 1186.13,173.246 1182.38,174.192C1190.25,172.648 1197.66,170.096 1204.14,165.618C1204.14,165.618 1204.14,165.191 1205.85,164.985C1205.85,164.985 1207.55,164.891 1209.25,164.794C1253.29,162.265 1297.26,158.899 1341.48,158.17C1343.52,158.136 1345.55,158.1 1347.58,158.195C1357.84,155.175 1368.4,152.945 1379.05,153.183C1388.53,153.395 1397.96,155.094 1407.04,157.805C1412.49,159.43 1420.35,163.809 1425.71,168.231C1432.99,174.235 1438.42,183.053 1437.51,193.111C1437.51,193.111 1443.91,196.281 1449.09,200.438C1455.63,205.678 1460.47,213.224 1461.28,221.606C1461.71,226.084 1462.67,230.534 1461.42,234.994C1459.15,243.112 1452.4,249.011 1446.19,254.053C1445.4,254.698 1444.74,255.014 1442.58,255.722C1425.15,261.523 1407.93,268.839 1392.71,278.626C1390.82,279.844 1388.75,281.105 1387.54,282.702C1387.54,282.702 1385.97,284.002 1384.57,284.807C1376.11,289.657 1367.03,293.729 1357.38,294.433C1362.98,314.272 1360.88,337.873 1344.04,352.254C1334.08,360.765 1320.89,366.087 1308.09,366.478C1309.78,384.109 1301.76,401.892 1287.04,412.38C1273.3,422.165 1256.11,425.665 1239.7,426.797C1239.7,426.797 1239.59,426.807 1238.21,426.973C1210.83,430.043 1182.78,428.387 1154.98,432.489C1152.45,432.862 1149.88,433.219 1147.52,434.089C1147.52,434.089 1140.88,435.462 1135.09,436.613C1094.98,444.52 1053.03,449.492 1013.61,437.009C1007.61,435.11 1002.02,432.106 996.447,429.101C993.673,427.607 990.945,426.026 988.271,424.359C982.419,425.196 909,445 900,450C878.414,461.992 878.167,453.609 896,446C918,436.613 956.524,428.221 977.426,423.981C980.014,423.456 982.641,422.839 985.241,422.42C972.11,413.787 960.39,403.048 951.106,390.407L950.672,388.652C950.672,388.652 951.599,387.098 951.599,387.098L953.338,386.671C955.137,387.731 955.665,388.615 956.295,389.424C970.469,407.543 990.204,420.636 1010.94,430.173C1014.5,431.814 1018.5,432.718 1022.42,433.673C1060.99,443.07 1102.21,436.528 1141.13,428.446C1141.77,428.314 1142.41,428.183 1143.06,428.055C1174.77,421.84 1202.73,422.069 1231.91,419.865C1255.35,418.096 1279.38,414.622 1292.65,395.468C1298.83,386.541 1301.63,374.883 1299.32,364.379C1298.99,362.895 1298.53,363.355 1298.86,361.318C1298.99,360.513 1299.35,359.841 1299.89,359.315C1295.4,353.829 1290.49,348.599 1284.58,345.051C1280.96,342.873 1276.84,342.027 1272.56,340.069C1264.39,336.336 1256.07,332.64 1249.23,326.917C1248.31,326.144 1247.1,324.827 1247.1,324.827C1239.16,326.723 1231.28,331.944 1229.94,339.471C1228.41,348.027 1234,356.221 1239.07,362.656C1239.07,362.656 1242.54,367.147 1245.45,370.299C1245.78,370.663 1246.12,371.027 1246.46,371.39L1246.81,371.627L1246.86,371.822C1253.34,378.744 1260.27,385.467 1268.63,389.85C1269.42,390.264 1270.67,390.738 1270.67,390.738L1272.06,391.886C1272.06,391.886 1272.26,393.67 1272.26,393.67L1271.14,395.051L1269.35,395.268C1262.23,393.32 1256.43,388.017 1250.39,382.885C1249.35,381.999 1248.31,381.104 1247.28,380.196C1247.37,382.956 1247.56,385.687 1247.82,388.325C1247.86,388.68 1247.91,389.695 1248,390.438C1248.11,391.794 1248.07,391.291 1248.26,392.814C1248.69,396.225 1249.56,399.676 1251.68,402.341C1251.68,402.341 1252.29,404.096 1252.29,404.096C1252.29,404.096 1251.66,405.695 1251.66,405.695L1250.06,406.301L1248.33,405.665C1244.11,402.104 1242.13,396.965 1241.1,391.365C1240.75,389.499 1240.68,386.713 1240.68,386.713C1240.67,382.875 1241.13,379.017 1241.99,375.275C1236.88,370.264 1232.21,364.789 1228.4,358.484C1220.47,364.828 1212.02,370.624 1207.02,377.221C1207.02,377.221 1205.47,378.243 1205.47,378.243C1205.47,378.243 1203.86,378.081 1203.76,378.026L1202.79,376.62L1202.98,374.788C1203.72,373.254 1204.63,371.807 1205.62,370.415C1207.56,367.688 1209.81,365.257 1212.21,362.971L1214.11,361.303C1216.36,359.534 1218.75,357.962 1221.2,356.475C1221.2,356.475 1223.66,355.06 1224.95,354.396C1225.25,354.24 1225.6,354.065 1225.94,353.893C1222.69,346.779 1221.47,338.362 1225.75,331.191C1230.16,323.786 1238.6,319.114 1246.99,317.716C1247.84,317.575 1248.7,317.502 1249.57,317.569C1252.83,318.403 1252.42,320.387 1252.42,320.387C1254.37,323.011 1257.7,324.699 1260.82,326.605C1267.2,330.498 1273.86,333.911 1280.7,337.01C1280.7,337.01 1284.77,338.272 1287.66,340.151C1294.65,344.702 1300.29,351.224 1305.11,358.018C1317.37,358.958 1330.62,352.844 1339.13,345.089C1352.98,332.467 1354.03,308.572 1347.62,293.177C1346.91,291.47 1346.78,291.485 1346.65,290.902C1346.65,290.879 1346.65,290.856 1346.64,290.833C1333.2,286.758 1319.57,282.912 1307.3,275.92C1306.21,275.303 1304.7,274.239 1304.7,274.239C1293.91,273.734 1281.77,277.032 1279.38,288.272C1279.07,289.739 1278.91,291.233 1278.88,292.731C1278.86,293.329 1278.86,293.928 1278.88,294.526C1278.91,295.46 1278.98,296.392 1279.08,297.322L1279.35,297.84L1279.19,298.285C1279.56,301.092 1280.19,303.874 1280.96,306.612L1281.01,306.809C1287.52,320.869 1299.26,332.703 1315.38,335.671C1315.38,335.671 1316.91,336.644 1316.91,336.644C1316.91,336.644 1317.33,338.39 1317.33,338.39C1317.02,338.891 1316.7,339.393 1316.38,339.894C1314.79,340.291 1314.01,340.248 1313.11,340.096C1297.32,337.43 1283.96,326.622 1275.98,311.137C1274.75,308.75 1274.52,307.772 1274.07,306.166C1273.61,304.522 1273.19,302.828 1272.86,301.107C1270.75,301.444 1268.62,301.736 1266.49,301.993L1264.09,302.209C1261.43,302.356 1259.85,302.322 1259.85,302.322C1255.35,302.191 1250.41,302.426 1246.47,300.844C1245.58,303.893 1244.49,306.887 1243.22,309.787C1243.22,309.787 1241.95,311.103 1241.95,311.103C1241.95,311.103 1240.2,311.221 1240.2,311.221L1238.96,310.044C1238.74,307.842 1239.01,307.261 1239.17,306.541C1240.61,300.067 1241.43,293.532 1241.89,287.197C1241.89,287.197 1242.71,276.519 1241.87,270.283C1241.62,268.426 1241.26,266.586 1240.77,264.773C1240.77,264.773 1240.94,262.936 1240.94,262.936C1240.94,262.936 1242.13,261.786 1242.23,261.751C1242.81,261.797 1243.38,261.844 1243.96,261.89C1244.47,262.422 1245.22,263.209 1245.23,263.227C1245.66,264.239 1245.71,264.399 1245.91,264.931C1248.98,273.057 1249.66,282.119 1248.62,290.566C1248.39,292.352 1248.09,294.135 1247.71,295.906C1248.75,295.92 1250.85,295.939 1252.1,295.882C1254.23,295.785 1257.23,295.533 1257.23,295.533C1258.62,295.445 1259.7,295.361 1259.7,295.361C1261.9,295.259 1263.83,295.221 1263.83,295.221C1263.96,295.222 1264.09,295.224 1264.22,295.225C1266.51,295.239 1266.98,295.266 1268.09,295.296C1269.68,295.336 1270.98,295.38 1272.1,295.425C1271.46,286.379 1273.79,277.366 1283.01,271.86C1289.76,267.827 1298.1,266.896 1305.97,267.666C1306.69,267.736 1307,267.545 1308.32,268.637C1308.32,268.637 1310.86,270.526 1313.18,271.743C1324.48,277.661 1336.58,282.049 1348.73,286.344C1349.59,285.824 1350.67,285.538 1351.9,285.611C1353.52,285.695 1353.84,285.681 1354.76,285.664C1363.99,285.487 1372.65,281.374 1380.96,276.61C1380.96,276.61 1383.38,274.284 1385.37,272.859C1399.59,262.693 1416.37,256.186 1432.78,249.921C1435.34,248.943 1437.92,248 1440.53,247.171C1440.53,247.171 1443.04,245.334 1444.77,243.758C1449.13,239.79 1453.57,235.212 1453.5,229.525C1453.42,223.734 1452.47,217.814 1449.48,213.23C1445.69,207.399 1439.23,203.872 1433.12,200.368C1432.16,199.812 1431.19,199.216 1430.41,198.457C1415.52,194.184 1397.6,199.376 1386.05,203.55C1373.98,207.909 1362.33,213.673 1350.93,220.274C1350.92,220.802 1350.91,221.33 1350.9,221.858C1350.64,231.405 1349.65,241.182 1353.24,250.297C1354.5,253.49 1356.62,256.451 1359.81,257.783C1359.81,257.783 1361.13,259.05 1361.13,259.05L1361.22,260.821L1360.01,262.104L1358.2,262.22C1347.58,258.794 1344.85,244.549 1343.98,236.186C1343.48,231.444 1343.42,226.668 1343.24,221.913C1331.17,225.727 1319.43,230.181 1308.37,235.485C1303.4,237.868 1298.26,240.454 1295.02,244.784C1295.02,244.784 1294.21,247.735 1294.22,250.336C1294.23,253.346 1294.55,256.379 1295.24,259.265C1295.24,259.265 1295.03,261.096 1295.03,261.096C1295.03,261.096 1293.83,262.223 1293.73,262.256L1292,262.089L1290.76,260.744C1288.28,254.648 1286.7,247.451 1288.67,241.925C1288.99,241.038 1289.92,239.656 1291.11,238.202C1276.4,238.002 1261.34,239.668 1247.26,244.154C1244.73,244.96 1241.63,246.094 1241.63,246.094C1241.63,246.094 1240.96,246.577 1239.4,246.364C1235.4,245.816 1234.08,239.105 1232.16,233.783C1232.16,233.783 1230.48,228.896 1229.51,225.887C1226.34,216.032 1222.52,205.465 1223.31,195.617C1223.39,194.676 1223.71,193.301 1223.71,193.301L1224.82,191.864C1224.82,191.864 1226.42,191.541 1226.57,191.578L1227.95,192.631L1228.29,194.425C1227.12,201.228 1231.42,209.516 1234.16,216.716C1236.62,223.185 1239.3,229.573 1242.12,235.963L1242.32,236.405C1249.03,234.074 1253.35,233.446 1257.99,232.779C1269.48,231.13 1283.44,231.376 1295.68,233.547C1301.26,228.898 1307.83,225.679 1314.58,223.138C1323.8,219.669 1333.7,217.539 1343.49,216.198C1343.67,215.859 1343.95,215.429 1344.35,215.063C1345.05,214.433 1346.2,213.64 1347.55,212.785C1342.87,206.11 1340.49,197.265 1341.91,189.094L1343.07,187.92C1343.4,188.304 1343.73,188.688 1344.06,189.072C1344.07,189.283 1344.09,189.494 1344.1,189.705C1344.67,197.06 1348.64,204.111 1354.25,208.757C1370.31,199.265 1387.39,192.336 1405.63,190.736C1409.38,190.407 1410.81,190.44 1412.73,190.445C1418.22,190.487 1423.86,190.885 1429.13,192.328C1429.18,190.019 1429.06,187.074 1428.34,185.01C1424.95,175.359 1415.01,169.967 1406.37,166.119C1406.37,166.119 1399.5,163.854 1393.49,162.689C1379.14,159.903 1364.25,161.154 1350.2,165.295C1349.15,165.601 1347.68,165.757 1347.68,165.757C1339.53,165.029 1331.05,165.833 1322.49,166.104C1284.08,167.318 1245.76,169.194 1207.56,170.95C1207.56,170.95 1203.13,173.507 1198.65,175.332C1182.57,181.879 1164.38,181.659 1146.83,182.658C1133.08,183.505 1118.88,188.76 1110.87,199.928C1110.52,200.413 1110.05,201.169 1110.05,201.169L1108.62,202.267L1108.05,202.196C1107.81,202.928 1107.57,203.662 1107.35,204.396C1107.35,204.396 1106.66,205.234 1106.66,205.234C1106.66,205.234 1105.67,205.376 1105.59,205.352L1104.78,204.679L1104.65,203.614C1105.03,202.258 1105.43,200.896 1105.86,199.545L1105.94,198.848C1106.06,198.643 1106.17,198.439 1106.29,198.236C1108.53,191.655 1111.7,185.437 1117.43,181.427C1128.89,173.41 1144.23,173.676 1156.88,172.659C1172.61,171.395 1189.54,168.771 1202.43,158.933C1202.48,158.894 1202.54,158.854 1202.59,158.811ZM1174.08,234.904C1174.08,234.904 1175.23,236.286 1175.23,236.286C1175.05,238.651 1174.62,239.048 1174.24,239.837C1167.62,253.494 1161.04,267.452 1157.43,282.122C1155.2,291.212 1156.79,300.144 1155.93,309.73C1155.02,319.956 1153.95,330.519 1149.91,339.502C1149.34,340.771 1148.19,342.509 1148.19,342.509C1148.14,342.778 1148.09,343.047 1148.04,343.316C1147.98,343.611 1147.92,343.906 1147.86,344.201C1145.37,355.915 1140.85,367.662 1143.86,379.426L1143.95,380.145C1145.26,391.112 1146.65,402.312 1145.45,413.219C1145.45,413.219 1144.59,414.814 1144.59,414.814C1144.59,414.814 1142.98,415.361 1142.87,415.351L1141.3,414.508L1140.75,412.791C1140.76,412.598 1140.77,412.405 1140.78,412.212C1141.19,402.143 1139.82,391.757 1138.29,381.47C1138.29,381.47 1136.79,375.449 1136.64,370.614C1136.32,360.412 1140.11,350.391 1141.64,340.458C1141.64,340.458 1141.61,339.62 1142.57,338.616C1142.72,338.454 1142.44,338.835 1142.79,338.328C1143.82,336.79 1144.34,334.926 1144.87,333.105C1148.85,319.26 1150.24,304.622 1149.67,290.819C1149.64,289.873 1149.65,289.786 1149.67,289.327C1149.97,282.295 1152.63,275.418 1155.19,268.962C1159.68,257.596 1165.04,246.614 1170.91,235.907C1170.91,235.907 1172.31,234.76 1172.31,234.76C1172.9,234.808 1173.49,234.856 1174.08,234.904ZM1102.06,229.995C1103.83,256.285 1091.31,283.279 1078.45,296.874C1059.82,316.58 1030.61,323.128 1005.84,322.525C1003,322.456 1000.15,322.307 997.317,322.091L995.915,320.981L997.018,319.936C1018.88,318.955 1041.38,314.001 1058.94,301.855C1069.5,294.554 1078.8,285.219 1086.01,272.897C1093.65,259.821 1098.77,245.082 1099.91,230.308C1099.92,230.169 1099.94,230.005 1099.94,230.005L1101,228.936C1101.35,229.289 1101.71,229.642 1102.06,229.995ZM1252.33,320.259L1252.34,320.265C1252.33,320.262 1252.33,320.256 1252.33,320.259ZM1300.57,173.711L1301.93,174.759L1302.29,176.554C1302.25,176.866 1302.2,177.179 1302.16,177.492C1300.24,191.322 1297.76,206.193 1302.14,218.011C1302.14,218.011 1302.15,219.856 1302.15,219.856C1302.15,219.856 1301.08,221.115 1300.99,221.16L1299.25,221.192L1297.86,219.997C1295.17,215.091 1294.1,209.411 1293.6,203.839L1293.42,199.907C1293.42,198.605 1293.47,196.731 1293.47,196.731C1293.55,195.498 1293.69,193.823 1293.69,193.823C1294.39,187.415 1295.84,181.088 1297.71,175.436C1297.71,175.436 1298.85,174.002 1298.85,174.002C1298.85,174.002 1300.43,173.675 1300.57,173.711ZM1135.43,179.145C1126.87,180.458 1119.15,183.053 1114.39,189.052C1120.3,184.301 1127.77,181.026 1135.43,179.145Z"/>
                <path d="M816.77,393.27C817.932,386.426 819.327,379.617 820.647,372.798C826.386,343.157 832.982,313.615 838.65,284.092C840.819,273.142 845.225,262.166 855.552,256.616C859.45,254.521 863.899,253.521 868.336,253.528C870.38,253.552 872.415,253.757 874.391,254.24C874.391,254.24 880.884,254.76 886.245,257.067C891.576,259.361 896.158,263.271 899.272,268.276C907.135,280.916 905.736,297.232 904.212,310.829C899.635,353.226 895.123,395.631 890.83,438.058C889.44,452.134 889.126,466.322 888.77,480.499C901.556,475.571 916.061,471.723 929.284,471.776C933.983,471.823 938.787,472.49 942.661,474.942C942.661,474.942 947.703,478.719 950.963,481.155C959.218,487.353 966.572,495.34 968.776,505.137C970.317,511.985 969.7,519.216 967.884,526.04C966.665,530.667 965.849,535.433 965.239,540.328C976.824,549.463 988.476,558.815 998.11,569.637C1000.49,572.314 1003.08,575.15 1003.65,578.488C1003.69,578.777 1003.69,578.776 1003.73,579.066C1006.56,602.402 1006.48,626.658 999.335,648.527C999.133,649.139 999.221,649.971 999.158,650.764C997.062,676.466 993.372,702.172 992.644,727.717C992.571,730.302 992.545,732.891 992.677,735.475C992.677,735.475 992.129,739.363 991.407,742.253C984.182,771.173 973.609,800.1 958.638,824.6C954.851,830.797 950.636,836.842 945.193,841.585L945.142,841.628C933.985,869.504 928.774,899.926 928.744,930.003C928.744,930.003 927.949,931.908 927.949,931.908C927.949,931.908 926.032,932.699 926.032,932.699L924.137,931.904L923.346,930.007C923.377,899.193 928.821,868.659 939.614,840.931C941.067,837.197 944.365,835.072 946.684,832.271C956.312,820.646 962.702,806.5 968.64,792.355C975.992,774.839 982.591,756.937 986.764,738.46C987.629,734.631 987.145,730.178 987.305,725.864C988.266,699.945 991.923,674.263 993.928,648.42C993.928,648.42 994.896,644.87 995.772,641.528C1000.99,621.622 1000.8,599.973 998.422,580.147C998.015,576.758 995.147,574.325 992.673,571.691C984.095,562.556 974.351,554.451 964.555,546.67C963.435,558.591 963.007,571.221 960.609,584.428C960.285,586.216 960.06,588.125 959.14,589.56C959.14,589.56 957.675,589.906 957.675,589.906L957.4,588.305C957.501,588.079 957.309,588.657 957.573,587.841C959.088,582.986 959.062,577.596 959.435,572.278C960.114,562.572 960.236,552.625 960.878,543.311L960.323,542.317C960.323,542.317 960.886,540.322 960.886,540.322L961.116,540.194C961.305,537.941 961.534,535.733 961.817,533.581C962.254,530.266 962.891,526.981 963.648,523.725C963.648,523.725 964.691,518.249 964.525,513.521C964.212,504.616 959.566,496.28 952.575,490.514C948.311,486.999 943.498,484.207 939.119,480.926C939.119,480.926 936.44,479.619 933.639,479.32C923.756,478.265 913.742,481.413 903.962,484.652C898.732,486.384 893.543,488.303 888.52,490.485C888.346,497.801 888.2,505.129 888.077,512.457C892.464,509.236 897.408,506.724 902.377,505.162C904.172,504.597 906.92,504.312 906.92,504.312C907.179,504.515 907.438,504.717 907.697,504.919C907.697,504.919 907.342,505.618 906.684,505.777C899.039,507.7 892.875,514.353 887.958,520.131C887.789,531.8 887.678,543.457 887.611,555.054C887.611,555.054 886.219,558.294 886.219,558.294C886.219,558.294 882.936,559.611 882.936,559.611L879.706,558.219L878.389,554.956C878.467,548.293 878.69,539.394 878.888,531.004C879.552,502.901 880.117,474.765 882.178,446.775C882.421,443.478 882.696,440.182 883.067,436.896C888.11,393.279 893.156,349.56 898.411,306.081C900.22,290.762 900.777,273.519 887.961,264.51C883.77,261.564 878.626,260.199 873.49,259.734C866.567,257.724 859.178,259.577 854.012,264.096C846.635,270.55 844.351,281.063 842.541,289.851C834.836,327.093 825.239,363.946 819.246,401.212C818.228,407.544 817.72,413.929 817.321,420.455C815.645,447.54 813.968,474.731 810.166,501.324C809.336,507.133 808.985,513.177 806.881,518.526L806.597,522.365C806.597,522.365 804.989,525.504 804.989,525.504C804.989,525.504 801.625,526.596 801.625,526.596L798.496,524.989L797.403,521.645C800.525,482.302 803.95,442.603 807.721,403.105C810.842,370.417 819.725,337.697 825.516,306.27C827.451,295.618 829.584,283.29 821.711,276.738C812.746,269.278 797.782,272.769 789.91,281.551C784.906,287.132 782.302,294.484 780.85,301.664C777.404,314.277 772.784,326.414 768.618,338.752C752.144,387.656 738.434,437.705 733.874,489.249C726.57,528.205 720.563,568.468 703.437,604.516C698.844,614.183 693.406,623.573 686.137,631.332C685.868,631.726 685.592,632.116 685.309,632.502C684.349,633.81 683.297,635.109 681.861,635.806L680.319,635.327L680.861,633.923C681.374,633.691 681.83,633.354 682.248,632.947L682.257,632.238C682.956,631.55 683.638,630.85 684.306,630.137C684.492,629.833 684.677,629.525 684.864,629.22C689.1,622.315 692.029,614.589 696.664,607.941C698.811,604.794 695.893,600.765 693.765,597.942C686.666,588.529 681.987,577.31 674.836,568.542C667.362,559.38 658.125,551.596 648.269,545.267C648.269,545.267 645.041,542.528 641.944,540.281C624.769,527.821 602.827,521.121 582.154,525.164C580.654,525.457 578.809,525.971 578.809,525.971C578.409,526.052 578.409,526.051 578.011,526.135C572.541,527.329 566.568,529.241 564.184,534.484C561.364,540.687 565.115,547.908 568.267,553.199C572.407,560.147 577.711,566.364 583.266,572.266C583.416,572.425 584.631,573.639 585.705,574.701C609.151,598.075 626.014,628.367 639.944,658.07C640.219,658.656 640.49,659.242 640.758,659.831C641.65,661.79 641.392,662.467 641.404,663.624C641.686,686.684 644.533,709.898 652.792,731.228C653.788,733.8 654.83,736.324 655.707,738.941C656.905,742.224 658.987,745.238 660.804,748.355C676.05,774.519 693.288,799.759 706.749,826.526C708.83,830.663 710.679,834.801 711.152,839.691C712.807,856.804 710.101,874.223 708.073,891.67C707.106,899.988 706.053,908.296 704.852,916.582C704.852,916.582 703.028,919.6 703.028,919.6C703.028,919.6 699.596,920.454 699.596,920.454L696.587,918.631L695.731,915.219C699.168,892.39 702.992,869.25 703.017,846.159C703.03,834.045 695.515,822.421 688.938,810.824C676.49,788.874 662.571,767.718 650.84,745.216C646.19,736.296 643.262,726.192 640.79,716.069C636.533,698.63 635.143,680.548 635.192,662.536C622.923,634.641 607.188,607.376 588.223,584.984C578.594,573.615 566.835,563.852 560.842,548.848C558.156,542.122 557.469,533.432 563.661,527.879C567.474,524.459 572.661,522.798 577.787,521.817C582.995,520.275 588.486,519.937 593.879,519.952C614.495,520.082 634.641,528.943 650.324,542.53C664.308,551.775 677.25,563.031 684.368,577.822C688.221,585.83 694.181,592.668 698.681,600.522C700.036,602.886 700.392,605.692 699.122,608.446C704.97,596.909 709.13,584.23 712.841,571.776C720.696,545.411 725.136,518.269 729.722,491.083C730.347,487.416 730.325,486.261 730.445,484.848C735.431,427.84 751.783,372.66 769.737,317.929C771.645,312.093 773.606,306.263 775.15,300.336C775.223,299.952 775.223,299.953 775.299,299.569C777.816,287.294 784.174,275.38 795.082,269.961C799.533,267.748 804.492,266.63 809.489,266.579C809.74,266.579 809.739,266.579 809.99,266.58C810.785,266.591 811.579,266.624 812.371,266.698C820.096,267.419 827.69,271.141 831.219,278.621C836.533,289.887 833.042,303.425 831.088,314.589C826.567,339.882 820.835,365.023 817.139,390.593C817.01,391.485 816.888,392.377 816.77,393.27ZM986.465,617.386L987.885,619.177C990.392,628.079 990.48,638.291 987.659,645.096C987.15,646.325 986.467,647.493 985.529,648.446L984.548,648.536C984.548,648.536 986.419,643.217 986.17,638.649C985.842,632.626 984.25,626.688 982.191,621.022C982.157,620.933 982.11,620.804 982.11,620.804L982.386,618.535C982.386,618.535 984.196,617.11 984.196,617.11C984.952,617.202 985.709,617.294 986.465,617.386ZM698.777,609.123C698.59,609.455 698.379,609.786 698.142,610.115C696.041,613.078 694.341,616.277 692.696,619.508C694.915,616.188 696.929,612.713 698.777,609.123ZM940.276,569.289L941.819,570.975C942.458,572.748 945.62,591.239 944.052,599.26C942.966,604.813 940.36,610.26 935.413,613.556L934.435,613.42L934.587,612.444C935.298,611.854 935.347,611.788 935.662,611.477C942.458,604.781 941.648,593.641 939.956,585.464C939.089,581.27 937.886,577.131 936.248,573.183C936.217,573.11 936.174,573.007 936.174,573.007L936.289,570.724C936.289,570.724 937.993,569.174 937.993,569.174C938.754,569.212 939.515,569.251 940.276,569.289ZM860.82,551.359L862.573,554.409C862.995,557.733 862.822,561.112 862.816,564.457C862.797,575.105 862.532,586.086 858.949,595.843C857.8,598.97 856.239,602.069 853.399,603.801L851.774,603.592L852.076,602.114C855.512,599.425 856.058,594.238 856.406,589.192C857.182,577.96 855.708,566.628 853.426,555.581C853.426,555.581 854.359,552.18 854.359,552.18C854.359,552.18 857.429,550.424 857.429,550.424C858.559,550.736 859.69,551.048 860.82,551.359ZM778.023,536.525L779.599,539.67C780.571,553.659 779.049,568.569 776.054,581.429C775.201,585.094 774.217,588.916 771.846,591.645L770.349,591.854C770.349,591.854 769.889,590.79 770.283,590.151C772.896,585.746 772.764,580.038 772.852,574.468C773.033,563.072 772.017,551.669 770.4,540.32C770.4,540.32 771.525,536.977 771.525,536.977L774.69,535.399C775.801,535.775 776.912,536.15 778.023,536.525ZM813.499,430.669C811.849,451.924 810.249,473.177 808.668,494.429C811.266,473.314 812.466,452.1 813.499,430.669Z"/>
            </g>
        </g>
    </g>
</svg>
