<?xml version="1.0" encoding="UTF-8" standalone="no"?>
<!DOCTYPE svg PUBLIC "-//W3C//DTD SVG 1.1//EN" "http://www.w3.org/Graphics/SVG/1.1/DTD/svg11.dtd">
<svg width="100%" height="100%" viewBox="0 0 124 113" version="1.1" xmlns="http://www.w3.org/2000/svg" xmlns:xlink="http://www.w3.org/1999/xlink" xml:space="preserve" xmlns:serif="http://www.serif.com/" style="fill-rule:evenodd;clip-rule:evenodd;stroke-linejoin:round;stroke-miterlimit:2;">
    <g transform="matrix(1,0,0,1,-1839,-2938)">
        <g transform="matrix(1,0,0,1,1382,2551)">
            <g id="Corazon" transform="matrix(0.37013,0.113442,-0.113442,0.37013,518.907,443.503)">
                <g transform="matrix(1,0,0,1,-131.5,-110)">
                    <g>
                        <path d="M189.43,0.598C165.75,0.598 144.703,11.844 131.32,29.281C117.938,11.844 96.887,0.598 73.207,0.598C32.777,0.598 0,33.375 0,73.809C0,164.402 131.32,219 131.32,219C131.32,219 262.637,165.227 262.637,73.809C262.641,33.375 229.863,0.598 189.43,0.598Z" style="fill:rgb(184,0,0);fill-rule:nonzero;"/>
                    </g>
                </g>
            </g>
        </g>
    </g>
</svg>
