<?xml version="1.0" encoding="UTF-8" standalone="no"?>
<!DOCTYPE svg PUBLIC "-//W3C//DTD SVG 1.1//EN" "http://www.w3.org/Graphics/SVG/1.1/DTD/svg11.dtd">
<svg width="100%" height="100%" viewBox="0 0 970 712" version="1.1" xmlns="http://www.w3.org/2000/svg" xmlns:xlink="http://www.w3.org/1999/xlink" xml:space="preserve" xmlns:serif="http://www.serif.com/" style="fill-rule:evenodd;clip-rule:evenodd;stroke-linejoin:round;stroke-miterlimit:2;">
    <g transform="matrix(1,0,0,1,-1859.91,-6141.21)">
        <g transform="matrix(0.561086,0,0,1,1400.71,-6)">
            <g transform="matrix(1.78226,0,0,1,-2496.43,6)">
                <path d="M2007.31,6262.19C2003.5,6265.17 1999.63,6268.08 1995.76,6270.99C1995.76,6270.99 1993.74,6272.53 1992.3,6273.65C1976.58,6285.91 1960.54,6298.45 1950.94,6316.05C1947.78,6321.87 1945.11,6327.93 1942.35,6333.95C1942.35,6333.95 1940.77,6337.19 1939.61,6339.47C1937.78,6343.03 1936,6346.66 1933.28,6349.65C1930.45,6352.77 1925.5,6354.82 1921.86,6351.98C1921.86,6351.98 1921.81,6351.87 1921.47,6351.38L1921.32,6349.24C1921.32,6349.24 1923.53,6349.12 1923.53,6349.12C1924.22,6349.34 1924.82,6349.76 1925.53,6349.79C1927.7,6349.9 1929.04,6347.65 1930.08,6346.3C1933.21,6342.18 1935.08,6337.21 1937.2,6332.4L1937.33,6332.09C1944.34,6317.11 1951.71,6302.87 1965.15,6290.33C1967.25,6288.37 1969.41,6286.47 1971.61,6284.62C1973.46,6283.06 1975.33,6281.53 1977.22,6280.03L1977.64,6279.7C1992.37,6268.55 2007.75,6258.36 2021.32,6245.57C2029.76,6237.62 2035.38,6227.05 2041.71,6217.43C2041.71,6217.43 2042.85,6216.65 2042.85,6216.65C2043.3,6216.74 2043.75,6216.82 2044.19,6216.91C2044.19,6216.91 2044.98,6218.05 2044.98,6218.05L2044.72,6219.4C2037.78,6229.96 2031.61,6241.02 2022.34,6249.57C2019.89,6251.83 2017.38,6254.02 2014.82,6256.15L2014.71,6256.48C2014.56,6256.65 2014.42,6256.82 2014.27,6256.99C2005.62,6267.53 2004.62,6282.24 2001.04,6294.51C1999.32,6300.41 1997.14,6306.24 1995.48,6312.12C1999.66,6304.58 2005.8,6297.67 2012.52,6292.64C2017.96,6288.56 2024.4,6285.79 2031.24,6285.22C2038.7,6284.63 2046.17,6287.24 2053.66,6289.82C2053.66,6289.82 2055.06,6290.34 2055.06,6290.34C2067.18,6294.84 2080.86,6296.05 2094.17,6293.05C2107.77,6289.99 2120.67,6283.68 2131.29,6274.55C2131.29,6274.55 2132.48,6274.16 2132.48,6274.16C2132.85,6274.35 2133.22,6274.53 2133.59,6274.72C2133.59,6274.72 2133.99,6275.91 2133.99,6275.91L2133.43,6277.03C2117.19,6290.99 2096.1,6299.11 2074.07,6298.22C2059.26,6297.61 2044.74,6290.1 2031.83,6291.32C2031.61,6291.33 2031.39,6291.35 2031.18,6291.36C2019.44,6292.33 2009.28,6301.11 2002.2,6311.24C1996.17,6319.87 1991.98,6330.92 1996.02,6340.28C2000.26,6330.84 2007.37,6323.3 2017.05,6319.08C2037.14,6310.31 2060.8,6315.56 2079.38,6321.25C2088.04,6323.89 2097.04,6325.74 2106.14,6323.3C2111.06,6321.97 2115.68,6319.64 2120.02,6316.91C2120.02,6316.91 2123.24,6314.35 2125.86,6311.48C2125.86,6311.48 2132.15,6306.82 2136.76,6302.98C2139.9,6300.35 2143.09,6297.78 2146.35,6295.3C2146.35,6295.3 2146.24,6294.62 2147.57,6295.33L2148.7,6295.28L2150.77,6295.41C2150.68,6296.73 2150.7,6296.97 2150.56,6297.88L2150.83,6298.07L2151.12,6299.18C2151.04,6300.01 2151.11,6301.45 2151.98,6302.41C2151.98,6302.41 2151.88,6304.68 2152.27,6307.15C2153.11,6312.49 2155.57,6317.48 2158.11,6322.32C2158.11,6322.32 2159.42,6325.25 2159.42,6325.25C2159.87,6326.23 2160.32,6327.2 2160.78,6328.17C2161.08,6328.82 2161.38,6329.47 2161.68,6330.12C2166.21,6339.99 2169.79,6350.99 2162.9,6361.2C2156.63,6370.5 2144.12,6373.64 2132.28,6372.38C2115.7,6370.61 2099.99,6363.42 2084.93,6356.5C2078.76,6353.7 2072.04,6351.6 2065.33,6352.44C2059.87,6353.12 2055.03,6356.61 2052.13,6361.74C2045.59,6373.31 2045.22,6386.98 2046.27,6399.96C2048.77,6430.58 2061.65,6459.27 2062.16,6490.63C2062.23,6494.66 2061.99,6498.72 2061.27,6502.66C2061.63,6502.41 2062.09,6502.09 2062.67,6501.68C2074.09,6493.56 2083,6481.94 2085.1,6467.64C2087.54,6450.99 2081,6434.28 2074.93,6419.33C2073.1,6414.8 2071.31,6410.2 2070.43,6405.46C2069.82,6402.2 2069.67,6398.78 2070.01,6395.47C2070.01,6395.47 2070.48,6393.02 2071.1,6391.24C2071.1,6391.24 2072.37,6388.31 2073.18,6387.19C2074.62,6385.21 2075.55,6383.12 2079.49,6381.52C2085.15,6379.24 2091.84,6382.58 2096,6384.82C2101.46,6387.78 2106.46,6391.79 2112.56,6393.1C2125.45,6395.83 2139.04,6396.62 2151.58,6392.8C2154.63,6391.87 2157.6,6390.47 2160.41,6388.87C2160.41,6388.87 2168.6,6384.42 2173.9,6378.51C2175.02,6377.25 2176.08,6375.94 2177.07,6374.58C2178.11,6373.15 2179.09,6371.67 2180.01,6370.16C2180.01,6370.16 2181.47,6370.21 2181.47,6370.21C2181.76,6370.04 2181.81,6370.02 2181.99,6369.83C2175.46,6352.54 2175.31,6333.01 2174.37,6319.2L2174.32,6318.53L2175.05,6318.41L2178.14,6318.11C2178.14,6318.11 2178.8,6317.49 2178.96,6318.74C2179.4,6322.23 2179.76,6325.71 2180.11,6329.2C2180.11,6329.2 2180.4,6332.24 2180.64,6334.59C2182.16,6349.82 2183.85,6365.23 2191.58,6378.64C2195.17,6384.85 2199.69,6390.45 2204.91,6395.32C2209.75,6399.75 2215.54,6403.14 2221.24,6406.61L2221.72,6406.9C2227.95,6411 2234.46,6414.81 2239.45,6420.34C2239.45,6420.34 2239.84,6421.47 2239.84,6421.47C2239.84,6421.47 2239.64,6421.92 2239.49,6422.24C2253.19,6411.01 2260.68,6391.99 2272.15,6381.58C2280.11,6374.36 2291.35,6370.58 2302.02,6370.61C2304.34,6370.63 2306.66,6370.79 2308.97,6371.07C2308.97,6371.07 2310.82,6372.08 2310.82,6372.08C2310.82,6372.08 2311.43,6374.07 2311.43,6374.07L2310.45,6375.89C2306.89,6377.03 2305.54,6376.34 2303.63,6376.36C2293.87,6376.47 2284.4,6380.04 2276.84,6386.78C2276.84,6386.78 2273.02,6390.15 2270.45,6392.89C2263.99,6399.8 2258.63,6407.65 2252.45,6414.84C2246.18,6422.15 2236.25,6429.89 2226.84,6432.9C2213.35,6437.22 2198.67,6436.8 2184.7,6439.68C2171.81,6442.34 2158.98,6445.66 2146.35,6449.1C2137.88,6451.47 2131.18,6456.68 2119.3,6454.53C2117.39,6454.19 2115.5,6453.73 2113.63,6453.2C2112.86,6452.98 2112.1,6452.75 2111.33,6452.5C2103.16,6449.91 2095.49,6446.1 2087.14,6444.27C2088.25,6449.16 2088.98,6454.15 2089.01,6459.3C2089.03,6462.34 2088.78,6465.36 2088.28,6468.34C2093.35,6464.34 2099.3,6461.54 2105.72,6460.27C2119.62,6457.5 2134.08,6460.73 2147.2,6463.61C2151.25,6464.5 2155.28,6465.48 2159.31,6466.46C2159.31,6466.46 2162.75,6467.33 2165.24,6467.95C2170.67,6469.31 2176.12,6470.56 2181.7,6471.25C2181.7,6471.25 2185.91,6471.8 2189.02,6472.16C2196.95,6473.05 2204.97,6473.03 2212.85,6471.7C2219.37,6470.57 2225.75,6468.47 2231.58,6465.21C2231.58,6465.21 2232.6,6464.73 2232.6,6464.73C2234.6,6463.77 2237.25,6462.44 2237.25,6462.44C2240.7,6460.92 2243.86,6458.69 2247.22,6456.91C2247.22,6456.91 2249.66,6455.43 2251.27,6454.32L2251.29,6454.31C2252.99,6453.43 2254.71,6452.58 2256.44,6451.75L2256.62,6451.66C2258.45,6450.84 2260.28,6450.03 2262.11,6449.21C2263.15,6448.74 2263.76,6448.51 2264.6,6448.19C2272.04,6445.36 2278.68,6441.2 2284.72,6435.25C2297.57,6422.63 2308.49,6407.34 2325.99,6401.22C2328.59,6400.31 2331.27,6399.7 2333.97,6399.23C2334.1,6399.55 2334.22,6399.86 2334.34,6400.18L2335.24,6404.64L2335.28,6405.65C2334.97,6405.72 2334.66,6405.8 2334.34,6405.88C2327.27,6407.7 2320.51,6410.74 2314.72,6415.14C2299.8,6426.45 2290.15,6444.15 2273.35,6452.11C2271.18,6453.14 2268.94,6453.98 2266.63,6454.74C2276.68,6458.86 2284.01,6468.2 2288.05,6478.92C2288.89,6481.14 2289.66,6483.38 2290.43,6485.63C2290.43,6485.63 2291.49,6488.94 2292.38,6491.63C2294.27,6497.28 2296.47,6503.01 2300.71,6507.47C2302.14,6508.98 2303.85,6510.22 2305.64,6511.25C2305.64,6511.25 2308.75,6513.53 2311.42,6514.7C2316.46,6516.9 2322.11,6517.9 2327.51,6517.7C2328.9,6513.03 2329.81,6508.3 2329.96,6503.44C2329.96,6503.44 2330.24,6503.13 2330.73,6502.54L2333.11,6500.16C2333.91,6500.96 2334.7,6501.75 2335.49,6502.55C2335.49,6502.55 2336.26,6502.57 2336.23,6504.31C2336.11,6509.09 2335.3,6513.82 2334,6518.41L2334.37,6518.97L2334.04,6520.54C2333.72,6520.76 2333.44,6520.94 2333.18,6521.08C2331.83,6525.24 2330.1,6529.27 2328.16,6533.12C2324.51,6540.38 2319.65,6546.92 2315.79,6554C2307.95,6568.37 2302.75,6584.08 2294.19,6598.48C2284.59,6614.73 2275.51,6632.98 2283.31,6651.47C2284.55,6654.42 2286.22,6657.18 2288.17,6659.71C2288.17,6659.71 2288.52,6661.05 2288.52,6661.05C2288.52,6661.05 2287.82,6662.25 2287.82,6662.25L2286.49,6662.6L2285.3,6661.92C2283.65,6659.77 2282.23,6657.48 2281.05,6655.08C2279.55,6656.69 2277.98,6658.24 2276.36,6659.73C2276.36,6659.73 2273.01,6662.52 2270.27,6664.46C2262.21,6670.18 2253.41,6674.88 2244.54,6679.32L2243.2,6679.99C2234.51,6684.2 2225.78,6688.28 2217.61,6693.4C2205.01,6701.3 2194.51,6713.36 2186.74,6725.6C2183.49,6730.12 2180.69,6734.51 2177.67,6740.44C2172.64,6750.31 2168.74,6760.87 2165.62,6771.62C2181.2,6745.49 2210.36,6728.24 2235.88,6714.45L2236.65,6714.03C2239.75,6712.4 2242.86,6710.78 2245.97,6709.16C2245.97,6709.16 2250.44,6706.7 2254.44,6704.28C2268.38,6695.87 2284.2,6689.07 2297.8,6677.5C2299.41,6676.12 2300.96,6674.68 2302.43,6673.15L2302.47,6673.15L2302.59,6672.98L2303.84,6672.88L2304.23,6673.15L2305.5,6673.06L2305.59,6674.45C2305.85,6674.8 2305.89,6674.89 2306.02,6675.11C2313.13,6686.75 2322.68,6696.57 2333.32,6704.96C2333.86,6705.18 2334.39,6705.46 2334.91,6705.86C2335.63,6706.41 2336.26,6707.03 2336.86,6707.67C2347.11,6715.29 2358.19,6721.68 2368.97,6727.15C2369.76,6727.55 2370.55,6727.94 2371.35,6728.33C2372.08,6728.51 2372.8,6728.77 2373.5,6729.18C2373.91,6729.42 2374.3,6729.68 2374.68,6729.94C2376.98,6731.04 2379.29,6732.09 2381.63,6733.11C2393.34,6738.22 2405.39,6742.47 2417.83,6744.98C2418.65,6745.15 2419.47,6745.31 2420.29,6745.47C2421.51,6745.52 2422.61,6745.68 2423.5,6746.08C2430.26,6747.34 2437.04,6748.53 2443.62,6750.36C2445.48,6750.88 2447.3,6751.51 2449.1,6752.18C2457.08,6739.6 2463.9,6726.32 2469.24,6712.36C2470.74,6708.43 2472.13,6704.47 2473.45,6700.49C2471.02,6701.27 2467.18,6702.07 2466.16,6701.5C2464.55,6700.59 2462.63,6700.38 2459.43,6700.7C2459.19,6700.73 2459.19,6700.72 2458.95,6700.75C2456.87,6700.91 2454.56,6700.81 2452.94,6699.27C2452.54,6698.89 2452.09,6698.59 2451.61,6698.32C2441.47,6696.28 2431.52,6693.19 2421.72,6691.18C2393.49,6685.36 2363.7,6680.29 2340.92,6664.62C2340.25,6664.25 2339.62,6663.83 2339.05,6663.31C2339.02,6663.28 2339,6663.26 2338.98,6663.24C2333.74,6659.42 2328.89,6655.01 2324.55,6649.84C2323.91,6649.07 2323.28,6648.29 2322.67,6647.5C2319.98,6651.69 2316.62,6655.48 2312.96,6658.91C2312.14,6659.68 2311.29,6660.42 2310.43,6661.15L2308.84,6660.16L2306.89,6657.95L2306.1,6656.27C2306.27,6656.1 2306.45,6655.94 2306.62,6655.77C2315.64,6647.15 2322.27,6636.07 2324.53,6623.24C2325.43,6618.16 2325.88,6613.04 2326.47,6607.77L2326.61,6607.21C2326.82,6606.25 2326.83,6606.25 2327.02,6605.28C2328.17,6595.58 2328.72,6585.6 2331.6,6575.59C2333.47,6569.1 2336.3,6562.94 2339.17,6556.85C2339.17,6556.85 2340.69,6553.72 2341.89,6551.16C2341.93,6551.08 2341.97,6551 2342.01,6550.92C2342.39,6549.9 2342.85,6548.9 2343.36,6547.95C2344.47,6545.44 2345.51,6542.87 2346.44,6540.27C2346.54,6539.88 2346.67,6539.51 2346.84,6539.13C2346.88,6539.03 2346.91,6538.93 2346.95,6538.83L2346.42,6538.6C2346.42,6538.6 2345.99,6537.56 2345.99,6537.56L2346.43,6536.55C2346.94,6536.33 2347.4,6536.2 2347.83,6536.11C2350.51,6527.44 2351.84,6518.44 2350.45,6509.59C2349.91,6506.19 2348.81,6502.81 2346.91,6499.96C2346.91,6499.96 2346.77,6499.43 2346.54,6499.04L2346.75,6497.02C2347.42,6497.1 2348.09,6497.18 2348.76,6497.26C2349.54,6497.99 2349.59,6497.92 2349.59,6497.92C2357.26,6508.1 2354.86,6523.11 2351.82,6534.85C2351.75,6535.11 2351.68,6535.38 2351.61,6535.64C2353.89,6535.41 2356.7,6536.04 2359.41,6536.92C2359.63,6536.95 2359.84,6536.98 2360.06,6537.02L2360.5,6537.03C2370.75,6538.69 2380.72,6541.72 2390.9,6543.5C2412.8,6547.26 2434.76,6551.32 2456.92,6553.14C2460.46,6553.13 2464.03,6553.18 2467.39,6553.82C2474.48,6554.15 2481.59,6554.22 2488.72,6553.93C2489.84,6553.89 2490.97,6553.84 2492.09,6553.78C2493.21,6553.73 2494.33,6553.66 2495.45,6553.59C2502.06,6553.15 2508.66,6552.43 2515.01,6551.35L2515.12,6551.37C2514.72,6539.95 2513.74,6528.5 2512.74,6517.26C2511.73,6505.29 2511.98,6493.04 2505.36,6482.74C2500.3,6474.85 2492.3,6469.34 2484.76,6463.65C2484.76,6463.65 2482.99,6462.23 2481.38,6460.92C2481.38,6460.92 2479.87,6459.62 2478.47,6458.43L2478.07,6457.69C2476.13,6456.37 2474.19,6455.05 2472.25,6453.73C2468.39,6451.09 2464.56,6448.39 2460.66,6445.84C2460.66,6445.84 2458.22,6444.15 2456.93,6443.2C2418.28,6414.55 2392.16,6369.25 2354.18,6345.07C2337.87,6334.69 2319.72,6327.87 2301.65,6320.09L2301.37,6319.97C2285.76,6312.01 2269.92,6303.22 2259.8,6289.16L2259.72,6289.07C2258.6,6287.35 2257.2,6284.73 2257.2,6284.73C2257.2,6284.73 2257.91,6284.03 2257.91,6284.03L2261.89,6281.81C2261.89,6281.81 2262.73,6281.36 2262.91,6281.65C2272.33,6296.44 2288.56,6305.58 2304.55,6313.73C2304.92,6313.95 2305.29,6314.16 2305.66,6314.38C2307.94,6315.72 2310.23,6317.03 2312.53,6318.32L2312.65,6318.39C2333.34,6329.26 2354.75,6339.11 2372.16,6353.73C2403.29,6379.89 2426.37,6415.67 2457.11,6438.83C2459.64,6440.75 2462.69,6443.03 2462.69,6443.03L2463.47,6443.65C2464.43,6444.39 2463.3,6443.61 2466.67,6446.04C2468.05,6447.04 2469.72,6448.22 2469.72,6448.22C2475.15,6452.02 2480.66,6455.59 2486.03,6459.56L2486.59,6460.44C2488.05,6461.38 2489.51,6462.31 2490.95,6463.27L2491.11,6463.37C2494.53,6465.8 2497.89,6468.46 2500.94,6471.39C2511.08,6478.83 2520,6487.74 2530.99,6494.03C2539.54,6498.91 2548.57,6502.96 2556.39,6508.89C2561.96,6513.1 2565.95,6520.18 2572.83,6521.82C2573.07,6521.88 2573.33,6521.93 2573.58,6521.94C2577.38,6522.1 2577.51,6513.78 2574.54,6508.55C2564.23,6490.39 2547.61,6476.95 2532.66,6463.24C2510.52,6442.84 2488.3,6422.42 2467.78,6400.27C2433.2,6362.88 2399.66,6325.2 2355.85,6295.93C2355.85,6295.93 2355.22,6294.99 2355.22,6294.99C2355.22,6294.99 2355.45,6293.87 2355.45,6293.87L2356.38,6293.25C2356.75,6293.32 2357.11,6293.4 2357.48,6293.47C2401.41,6322.8 2437.38,6362.97 2473.39,6401.8C2493.35,6423.27 2515.1,6443.14 2537.32,6463.31C2550.22,6474.98 2563.54,6486.01 2573.21,6500.74C2576.93,6506.47 2581.74,6512.7 2579.56,6519.37C2578.51,6522.56 2575.75,6525.29 2572.64,6524.75C2565.01,6523.42 2559.49,6514.58 2553.07,6510.01C2543.39,6503.14 2532.12,6498.87 2522.14,6491.84C2517.82,6488.8 2513.77,6485.48 2509.7,6482.13C2511.36,6484.88 2512.69,6487.82 2513.62,6490.97C2516.56,6500.91 2516.32,6511.42 2517.21,6522.06C2518.68,6539.92 2520,6557.73 2519.1,6575.82C2519.28,6576.66 2519.35,6577.59 2519.18,6578.52C2519.11,6578.95 2519,6579.39 2518.87,6579.81C2516.98,6606.2 2504.29,6630.48 2494.3,6652.56C2483.05,6677.49 2477.14,6704.57 2465.31,6729.03C2458.73,6742.63 2450.99,6755.64 2442.26,6767.94C2441.96,6768.41 2441.66,6768.88 2441.36,6769.34C2439.11,6772.78 2437.18,6776.89 2434.3,6779.52L2434.37,6779.8L2433.74,6780.69C2433.74,6780.69 2433.09,6780.79 2432.53,6780.88C2426.99,6787.83 2421.12,6794.52 2414.99,6800.92L2414.68,6801.24C2403.5,6812.6 2391.51,6823.02 2378.28,6832.36C2375.61,6834.25 2372.84,6836.03 2370.09,6837.82L2368.41,6838.67L2367.85,6838.76L2366.64,6839.51C2354.22,6846.53 2340.81,6852.23 2326.5,6852.25C2312.7,6852.22 2298.87,6851.78 2285.38,6850.21C2285.38,6850.21 2282.74,6849.83 2280.48,6849.4C2278.79,6849.08 2278.34,6848.96 2277.29,6848.72C2275.57,6848.32 2273.86,6847.87 2272.16,6847.37C2271.41,6847.15 2270.68,6846.92 2269.94,6846.68C2264.22,6844.79 2259.26,6841.95 2255.19,6837.86L2254.51,6837.97C2253.87,6837.61 2252.92,6837.07 2252.91,6837.06C2252.28,6836.36 2252.2,6836.26 2251.88,6835.89C2250.88,6834.74 2249.52,6832.96 2249.52,6832.96C2244.16,6820.5 2249.12,6804.65 2250.04,6790.44C2250.42,6784.6 2250.69,6778.76 2250.99,6772.91L2251.06,6771.72C2252.78,6749.82 2254.14,6727.41 2264.68,6707.99C2265.52,6706.45 2266.41,6704.94 2267.35,6703.47C2266.28,6704.05 2265.2,6704.62 2264.11,6705.18C2264.11,6705.18 2261.61,6706.28 2259.83,6707.05C2255.88,6708.77 2251.97,6710.55 2248.07,6712.38L2247.7,6712.55C2215.76,6728.55 2181.34,6743.91 2164.64,6779.84C2163.89,6781.45 2163.2,6783.08 2162.55,6784.72L2162.08,6785.21C2161.84,6786.25 2161.6,6787.29 2161.37,6788.33C2161.37,6788.33 2160.7,6789.27 2160.7,6789.27C2160.7,6789.27 2159.57,6789.46 2159.57,6789.46L2158.64,6788.8L2158.44,6787.69C2162.2,6770.86 2167.05,6754.69 2174.4,6739.04C2174.4,6739.04 2175.68,6736.16 2176.98,6733.29C2176.98,6733.29 2180.14,6726.43 2182.39,6722.85C2187.56,6714.61 2193.74,6706.96 2200.97,6700.37C2200.97,6700.37 2204.61,6697.33 2207.97,6694.96C2218.24,6687.72 2229.47,6681.89 2240.67,6676.07C2240.67,6676.07 2253.48,6669.73 2259.86,6665.33C2266.09,6661.04 2271.85,6655.97 2276.85,6650.44C2276.85,6650.44 2277.44,6650.06 2277.44,6650.06C2277.95,6649.81 2278.1,6649.72 2278.1,6649.72L2278.8,6649.51C2277.71,6646.08 2277.09,6642.51 2276.98,6638.88C2276.42,6620.78 2287.19,6604.52 2294.93,6589.86C2301.81,6576.85 2306.75,6562.81 2313.13,6549.71C2317.58,6540.59 2322.53,6531.65 2325.9,6522.49C2317.4,6523.15 2308.65,6521.6 2301.67,6517.01C2301.67,6517.01 2299.72,6515.27 2298.89,6514.32C2295.55,6510.45 2293.39,6506.06 2291.38,6501.21C2290.56,6499.24 2290.26,6498.36 2289.77,6496.92C2288.77,6494.02 2287.92,6491.07 2287.06,6488.13C2287.06,6488.13 2285.13,6480.31 2282.84,6474.99C2278.92,6466.05 2271.69,6458.98 2261.79,6456.46L2261.57,6456.3C2258.89,6457.1 2256.11,6457.9 2253.25,6458.88C2249.16,6459.68 2245.34,6462.03 2241.3,6464.59C2241.29,6464.6 2240.34,6465.2 2240.32,6465.21C2238.24,6466.81 2236.42,6468.21 2234.45,6469.6C2234.45,6469.6 2230.01,6472.26 2226.41,6473.81C2214.43,6478.99 2200.4,6478.81 2187.19,6476.77L2187.03,6476.74C2184.58,6476.29 2181.13,6475.53 2181.13,6475.53C2178.11,6474.76 2175.09,6473.97 2172.08,6473.16C2172.08,6473.16 2169.16,6472.43 2166.77,6471.82C2152.44,6468.12 2138.39,6463.99 2123.16,6462.61C2110.8,6461.5 2097.65,6463.57 2087.84,6472.66L2087.32,6472.86C2084.89,6482.21 2079.89,6490.89 2072.61,6497.75C2069.62,6500.57 2066.33,6503.01 2062.91,6505.24C2062.91,6505.24 2061.63,6506.01 2061.63,6506.01L2060.5,6506.19L2060.49,6506.18C2058.82,6512.4 2055.75,6518.19 2050.5,6522.9C2049.21,6524.05 2047.83,6525.05 2046.39,6525.99C2046.39,6525.99 2045.31,6526.2 2045.31,6526.2C2045.31,6526.2 2044.44,6525.66 2044.39,6525.59L2044.19,6524.53L2044.78,6523.61C2049.99,6520 2053.99,6515.08 2056.27,6509.28C2061.1,6496.98 2059.13,6483.21 2056.98,6470.66C2052.99,6447.34 2045.23,6424.58 2042.53,6400.32C2042.05,6396.03 2041.67,6391.71 2041.55,6387.39C2041.54,6387.08 2041.6,6383.39 2041.88,6380.35C2042.5,6373.39 2044.18,6366.48 2047.62,6360.39C2052.2,6352.26 2062.78,6348.13 2072.63,6349.51C2081.09,6350.7 2088.7,6354.94 2096.74,6358.41C2111.57,6364.82 2127.66,6370.99 2142.82,6369.22C2152.86,6368.04 2162.71,6360.67 2163.34,6349.41C2163.82,6340.62 2158.56,6332.81 2153.47,6324.86C2153.28,6324.53 2153.1,6324.19 2152.92,6323.86C2149.55,6317.49 2146.55,6310.91 2146.48,6303.68C2146.22,6303.94 2145.97,6304.2 2145.71,6304.45L2145.62,6304.55C2140.58,6308.95 2135.44,6313.25 2129.98,6317.1C2127.44,6318.19 2124.88,6319.23 2122.36,6320.38C2122.36,6320.38 2118.87,6322.26 2115.8,6323.61C2109.74,6326.27 2103.21,6328.13 2096.63,6328.09C2085.16,6328.01 2074.31,6322.79 2063.08,6320.35C2043.19,6316.03 2020.77,6314.5 2005.65,6331C2002.04,6334.93 1999.33,6339.57 1997.43,6344.54C1997.43,6344.54 1996.67,6345.35 1996.67,6345.35C1996.67,6345.35 1995.55,6345.39 1995.55,6345.39L1994.75,6344.63L1994.71,6343.85L1993.13,6343.31C1992.72,6342.9 1992.48,6342.72 1992.48,6342.72C1990.12,6338.02 1989.48,6332.86 1990.13,6327.61C1990.39,6315.05 1996.04,6302.61 1999.15,6290.43C2001.59,6280.89 2002.82,6270.85 2007.31,6262.19ZM2263.03,6719.87C2258.18,6732.92 2256.21,6747.36 2255.18,6761.73C2254.95,6764.97 2254.85,6768.23 2254.76,6771.49L2254.74,6771.91C2254.03,6785.77 2252.16,6799.6 2252.16,6813.62C2252.16,6819.33 2253.17,6824.99 2255.55,6830.17C2255.55,6830.17 2255.82,6832.06 2256.58,6833.97C2256.91,6834.27 2257.01,6834.4 2257.27,6834.66C2260.75,6838.15 2265.26,6840.5 2269.96,6842.02C2274.87,6843.6 2279.92,6844.83 2285.01,6845.73C2285.01,6845.73 2292.41,6847.22 2298.05,6847.76C2307.51,6848.67 2317.01,6848.89 2326.51,6848.95C2335.85,6848.97 2344.83,6846.19 2353.54,6842.41C2339.75,6834.15 2327.54,6823.96 2316.61,6812.59C2315.21,6811.24 2313.88,6809.8 2312.6,6808.29C2304.15,6799.01 2296.48,6789.02 2289.44,6778.69C2278.8,6763.1 2269.33,6746.08 2265.4,6728.2C2265.06,6726.8 2264.68,6725.42 2264.16,6724.09C2263.88,6723.34 2263.64,6722.58 2263.44,6721.81C2263.3,6721.29 2263.19,6720.77 2263.09,6720.24C2263.07,6720.12 2263.05,6719.99 2263.03,6719.87ZM2276.1,6698.55C2275.4,6698.95 2274.7,6699.36 2274,6699.77C2272.4,6701.82 2270.95,6703.94 2269.61,6706.14C2269.64,6706.25 2269.59,6706.27 2269.59,6706.27C2270.31,6707.82 2271.03,6709.37 2271.75,6710.93C2279.19,6724.95 2287.91,6738.19 2297.95,6750.42C2315.23,6770.02 2336.41,6786.49 2357.21,6801.32C2365.63,6806.5 2374.23,6811.4 2382.76,6816.38C2384.91,6817.24 2387.11,6817.99 2389.36,6818.62L2389.56,6818.78C2397,6812.65 2404.15,6806.21 2410.9,6799.44C2416.62,6793.71 2422.11,6787.77 2427.34,6781.61C2424.9,6781.26 2422.21,6780.27 2419.53,6779.45C2416.64,6778.57 2413.74,6777.55 2411.31,6775.94C2410.3,6775.28 2409.26,6774.71 2408.2,6774.19C2401.28,6771.72 2394.41,6769.19 2387.53,6766.55C2384.47,6765.63 2381.43,6764.63 2378.58,6763.04C2368.44,6759.01 2358.22,6754.7 2347.72,6749.97C2342.33,6747.54 2337.03,6744.93 2331.85,6742.07L2331.38,6741.8C2310.75,6730.03 2295.39,6709.88 2276.13,6698.63C2276.13,6698.63 2276.14,6698.62 2276.1,6698.55ZM2340.53,6562.8C2339.98,6564.02 2339.39,6565.35 2338.83,6566.68C2334.78,6576.23 2332.74,6586.63 2331.96,6597.01C2331.96,6597.01 2331.87,6598.85 2331.82,6600.57C2333.05,6601.22 2334.12,6602.96 2335.92,6604.74C2337.02,6605.82 2337.23,6606.09 2337.83,6606.78C2338.67,6607.75 2339.49,6608.72 2340.33,6609.66C2342.84,6611.87 2345.54,6613.87 2348.37,6615.72C2353.02,6618.02 2357.65,6620.4 2361.94,6623.28C2367.18,6625.86 2372.47,6628.2 2377.42,6630.55C2377.42,6630.55 2380.66,6632.14 2382.99,6633.3C2385.14,6634.37 2387.29,6635.44 2389.45,6636.51C2393.1,6637.43 2396.48,6638.93 2399.2,6641.3C2400.72,6642.03 2402.24,6642.76 2403.76,6643.48C2405.98,6644.11 2408.31,6644.6 2410.16,6646.19C2412.59,6648.28 2416.4,6646.78 2419.21,6649.17C2422.49,6651.88 2427.15,6652.56 2430.77,6655.01C2434.46,6656.36 2438.18,6657.61 2441.92,6658.74C2444.4,6658.93 2447.02,6659.14 2449.56,6659.92C2450.84,6660.31 2452.32,6661.42 2452.62,6661.41C2454.06,6661.33 2455.11,6660.73 2456.86,6660.83C2458.35,6660.96 2459.02,6661.89 2460.33,6662.32C2461.32,6662.66 2462.35,6662.96 2463.39,6663.22C2466.67,6663.4 2469.96,6663.36 2473.23,6663.31C2475.6,6662.43 2478.25,6662.32 2480.76,6662.7C2481.35,6662.79 2482,6663.07 2482.52,6663.3C2483.76,6663.35 2484.99,6663.43 2486.21,6663.56C2493.73,6645.49 2503.17,6628.66 2509.23,6608.81C2511.48,6601.45 2512.98,6593.88 2513.93,6586.19C2513.26,6586.57 2512.55,6586.83 2511.82,6586.95C2510.21,6587.22 2508.93,6587 2507.25,6587.71C2498.24,6591.41 2486.82,6590.26 2479.34,6587.23C2479.1,6587.14 2478.86,6587.06 2478.62,6586.99C2477.36,6586.86 2476.1,6586.73 2474.85,6586.6C2471.47,6586.64 2467.92,6587.28 2465.16,6585.62C2463.72,6585.49 2462.28,6585.38 2460.85,6585.29C2459.34,6585.42 2457.59,6585.44 2456.28,6585.03C2454.93,6584.96 2453.57,6584.89 2452.21,6584.81C2449.25,6585.17 2446,6586.06 2443.71,6584.57C2443.59,6584.5 2443.47,6584.42 2443.36,6584.34C2441.17,6584.22 2438.98,6584.1 2436.79,6583.97C2431.4,6585.14 2425.33,6584.58 2420.1,6583.12C2419.66,6583 2419.29,6582.86 2418.96,6582.73C2416.91,6582.56 2414.85,6582.37 2412.79,6582.17C2412.71,6582.2 2412.56,6582.23 2412.26,6582.32C2412.26,6582.32 2412.05,6582.23 2411.73,6582.07C2398.91,6580.78 2386.2,6578.9 2373.77,6575.81C2371.77,6575.51 2369.78,6575.13 2367.81,6574.63C2367.03,6574.44 2366.34,6574.05 2365.69,6573.61C2362.05,6572.53 2358.43,6571.33 2354.84,6570C2353.12,6569.36 2351.4,6568.68 2349.72,6567.95C2348.91,6567.61 2348.12,6567.26 2347.33,6566.89C2346.44,6566.59 2345.56,6566.26 2344.7,6565.88C2343.07,6565.16 2341.01,6563.51 2341.01,6563.51C2340.79,6563.25 2340.63,6563.01 2340.53,6562.8ZM2343.86,6435.37C2343.86,6435.37 2344.23,6437.21 2344.37,6438.02C2345.62,6445 2352.96,6448.79 2359.62,6450.98C2373.85,6455.66 2390.02,6450.48 2404.9,6452.36C2407.37,6452.67 2409.82,6453.25 2412.18,6454.06C2412.18,6454.06 2413.01,6454.77 2413.01,6454.77C2413.01,6454.77 2413.11,6455.84 2413.11,6455.84L2412.42,6456.65C2409.45,6456.97 2408.62,6456.08 2406.94,6455.81C2388.26,6452.73 2368.83,6462.08 2350.64,6451.29C2350.11,6450.97 2349.58,6450.64 2349.06,6450.29C2344.83,6447.44 2341.08,6443.29 2340.46,6438.01C2340.33,6436.89 2340.58,6435.1 2340.58,6435.1C2340.58,6435.1 2342.49,6435.24 2343.86,6435.37ZM2184.16,6374.97C2179.07,6383.13 2171.78,6389.86 2163.18,6394.17C2146.88,6401.4 2128.1,6401.02 2110.31,6396.91C2101.27,6394.77 2094.58,6385.92 2084.88,6384.25C2081.65,6383.69 2078.17,6385.27 2076.76,6389.18C2075.84,6391.24 2075.53,6393.57 2075.53,6395.81C2075.53,6395.81 2075.67,6401.79 2076.27,6405.43C2078.38,6417.89 2083.44,6429.54 2086.51,6441.65L2087.5,6441.47C2095.53,6443.17 2103.03,6446.69 2110.96,6449.19C2118.6,6451.6 2126.65,6453.84 2135.42,6450.15C2153.2,6442.65 2172.03,6438.4 2190.61,6435.21C2205.39,6432.68 2221.25,6433.64 2234.19,6425.97C2235.86,6424.99 2237.44,6423.88 2238.94,6422.69L2238.22,6422.94L2237.14,6422.44C2235,6420.09 2230.26,6416.07 2224.74,6412.81C2220.59,6410.35 2218.62,6409.31 2216.35,6407.96C2205.68,6401.56 2195.72,6393.45 2188.56,6382.81C2186.89,6380.3 2185.43,6377.67 2184.16,6374.97ZM2035.61,6211.98L2035.76,6211.38C2058.8,6180.31 2095.1,6160.77 2130.42,6146.38C2137.3,6143.57 2144.42,6141.21 2151.9,6141.21C2160.39,6141.28 2168.71,6144.69 2174.71,6151.01C2185.91,6162.79 2188.81,6180.69 2188.48,6195.42C2188.46,6196.68 2188.41,6197.94 2188.34,6199.2C2202.32,6192.15 2216.38,6184.8 2231.33,6180.49C2235.7,6179.02 2236.86,6178.7 2239.51,6178.15C2246.73,6176.62 2254.07,6175.89 2261.46,6175.9C2267.32,6175.93 2273.14,6176.37 2278.91,6177.36C2279.69,6177.49 2289.2,6179.44 2296.91,6181.88C2310.56,6186.19 2323.63,6192.19 2336.63,6198.35L2337.05,6198.55C2355.13,6207.34 2373.92,6217.18 2381.87,6235.86C2382.01,6236.22 2382.16,6236.57 2382.3,6236.92C2385.63,6237.19 2388.96,6237.45 2392.29,6237.72L2395.98,6238.02C2400.27,6238.36 2404.56,6238.69 2408.86,6239.02L2409.78,6239.09C2439.81,6241.82 2469.72,6244.71 2499.43,6252.3C2515.78,6256.48 2530.2,6266.26 2546.73,6269.91C2556.81,6272.13 2567.09,6271.95 2577.55,6274.25C2624.8,6284.66 2672.58,6299.22 2717.83,6318.52C2747.53,6331.18 2779.16,6339.84 2808.13,6352.85C2815.7,6356.26 2823.37,6360.42 2827.66,6367.43C2829.39,6370.26 2830.12,6373.82 2828.47,6376.91C2823.8,6385.65 2810.51,6385.18 2799.54,6382.12C2779.17,6376.42 2757.16,6375.46 2735.92,6375.53C2711.7,6375.51 2687.91,6370.05 2664.02,6367.99C2637.96,6365.74 2611.73,6363.25 2587.02,6355.01C2546.88,6341.62 2512.46,6313.13 2471.78,6297.68C2466.26,6295.58 2460.69,6293.63 2455.12,6291.66L2454.68,6291.51C2449.81,6289.84 2444.93,6288.16 2440.09,6286.43C2440.09,6286.43 2437.49,6285.52 2435.66,6284.88C2430.97,6283.23 2426.39,6281.33 2421.85,6279.32L2421.61,6279.21C2412.33,6274.22 2403.2,6268.67 2393.18,6265.93C2391.63,6265.52 2390.02,6265.01 2388.37,6264.61C2389.16,6275.04 2388.66,6285.51 2387.83,6295.15C2387.37,6300.53 2387.26,6306.05 2388.77,6311.3C2388.77,6311.3 2389.01,6312.36 2389.01,6312.36L2388.89,6313.5C2388.89,6313.5 2388.08,6314.23 2388.08,6314.23L2387.01,6314.12C2386.09,6313.14 2385.81,6312.26 2385.81,6312.26C2385.57,6311.48 2385.37,6310.69 2385.2,6309.89C2382.66,6298.1 2386.35,6286.05 2385.65,6274.33C2385.43,6270.63 2385.14,6266.87 2384.7,6263.12C2384.36,6262.94 2383.98,6262.78 2383.59,6262.7C2383.59,6262.7 2382.42,6262.06 2382.42,6262.06C2382.42,6262.06 2381.94,6261.02 2381.94,6261.02L2382.43,6260.01L2383.59,6259.38C2383.8,6259.34 2383.99,6259.28 2384.19,6259.2C2382.36,6246.83 2378.53,6234.83 2369.49,6225.63C2355.86,6211.73 2336,6204.56 2319.19,6197.09C2305.86,6191.16 2292.16,6185.86 2277.85,6183.15C2265.54,6180.53 2252.78,6180.01 2240.24,6182.07C2237.84,6182.34 2235.48,6182.86 2233.12,6183.31C2232.17,6183.5 2232.17,6183.51 2232.17,6183.51C2217.28,6187.56 2203.51,6194.96 2189.74,6201.88C2189.12,6202.19 2188.18,6202.61 2188.18,6202.61L2188.1,6202.62C2187.33,6211.27 2185.38,6219.85 2181.17,6227.49C2176.81,6235.4 2170.13,6241.86 2164.16,6248.52C2164.16,6248.52 2163.39,6248.55 2163.39,6248.55L2161.32,6248.68C2161.32,6248.68 2161.11,6245.83 2161.11,6245.83C2161.5,6245.39 2161.88,6244.95 2162.27,6244.52C2170.65,6235.07 2178.92,6225.88 2182.1,6212.38C2186.26,6194.72 2185.67,6175.3 2177.68,6160.63C2172.45,6151.01 2162.39,6143.91 2150.59,6144.33C2139.83,6144.71 2129.71,6149.95 2119.75,6154.25C2090.52,6166.97 2062.68,6182.91 2041.02,6209.3C2040.9,6209.44 2040.79,6209.58 2040.68,6209.72L2041.56,6209.61C2041.94,6209.85 2042.33,6210.08 2042.71,6210.32C2042.71,6210.32 2042.93,6211.66 2042.93,6211.66C2042.93,6211.66 2042.18,6212.99 2042.18,6212.99L2040.83,6214.29C2039.96,6214.88 2039.1,6215.46 2038.24,6216.05C2031.77,6220.5 2025.39,6225.12 2019.46,6230.26C2008.57,6239.71 2001.12,6252.97 1989.65,6263.33C1972.78,6278.56 1952.51,6290.41 1941.13,6311.5C1941.13,6311.5 1940.3,6312.17 1940.3,6312.17C1940.3,6312.17 1939.3,6312.11 1939.22,6312.07L1938.56,6311.24L1938.65,6310.18C1949.98,6288.9 1972.66,6275.91 1989.81,6259.13C1998.04,6251.09 2003.48,6240.24 2011.31,6231.68C2015.8,6226.79 2021,6222.6 2026.42,6218.68C2027.58,6217.85 2028.71,6216.96 2029.85,6216.08C2018.08,6216.38 2006.83,6219.98 1997.82,6223.95L1996.36,6224.55C1987.86,6228.06 1980.21,6233.24 1972.89,6238.82C1954.72,6252.69 1939.63,6270.6 1924,6287.64C1913.89,6298.58 1902.1,6307.68 1892.81,6319.56C1884.85,6329.73 1877.56,6340.74 1866.57,6347.53C1865.01,6348.49 1863.26,6349.34 1861.77,6349.94C1861.77,6349.94 1860.68,6349.94 1860.68,6349.94C1860.68,6349.94 1859.91,6349.19 1859.91,6349.19L1859.91,6348.13C1862.38,6345.53 1863.45,6345.97 1865.17,6344.9C1879.32,6336.07 1887.6,6319.78 1898.67,6308.14C1907.02,6299.37 1916.35,6291.61 1924.48,6282.64C1939.05,6266.57 1953.49,6250.22 1970.33,6236.69C1978.14,6230.41 1986.52,6224.87 1995.41,6220.03L1995.59,6219.93C1997.75,6218.9 1999.95,6217.93 2002.19,6217.06C2002.95,6216.76 2003.72,6216.47 2004.49,6216.19C2010.99,6213.86 2017.77,6212.63 2024.69,6212.64C2027.79,6212.64 2030.9,6212.77 2033.92,6213.06C2034.48,6212.69 2035.04,6212.32 2035.61,6211.98ZM2383.44,6239.9C2385.54,6245.81 2386.9,6251.97 2387.71,6258.19C2400.9,6259.04 2412.98,6266.93 2424.76,6273.44C2445.41,6286.98 2471.11,6292.23 2493.83,6303.69C2526.72,6320.27 2557.14,6342.52 2592.12,6353.3C2620.68,6362.1 2651.76,6362.84 2680.15,6366.41C2699.17,6368.8 2718.02,6371.83 2737.27,6372.23C2726.97,6361 2717.41,6349.01 2703.74,6341.74C2681.49,6329.92 2656.97,6322.9 2632.83,6315.51C2620.94,6311.92 2608.56,6309.68 2597.47,6303.55C2597.47,6303.55 2596.77,6302.68 2596.77,6302.68C2596.77,6302.68 2596.9,6301.56 2596.9,6301.56L2597.77,6300.87C2598.14,6300.91 2598.5,6300.95 2598.87,6300.99C2609.75,6306.99 2622.39,6309.23 2634.27,6312.87C2658.56,6320.33 2683.16,6327.36 2705.64,6339.44C2719.37,6346.81 2729.44,6359.45 2739.94,6370.85C2739.94,6370.85 2740.32,6371.89 2740.32,6371.89L2740.15,6372.26C2740.51,6372.27 2740.87,6372.27 2741.23,6372.27C2759.99,6372.32 2779.15,6373.08 2796.86,6377.97C2805.15,6380.27 2814.02,6383.39 2821.53,6379.1C2821.87,6378.9 2822.2,6378.7 2822.52,6378.48C2822.78,6378.31 2823.04,6378.12 2823.28,6377.93C2827.3,6374.83 2825.56,6368.06 2818.71,6362.74C2809.8,6355.81 2798.57,6352.14 2787.96,6348.03C2763.54,6338.58 2738.18,6330.5 2714.4,6320.44C2678.91,6305.49 2642.16,6293.73 2604.67,6284.87C2588.62,6281.1 2572.73,6277.11 2556.01,6275.5C2534.5,6273.37 2515.65,6260.13 2495.52,6255.26C2460.18,6246.73 2423.58,6243.76 2388.33,6240.39L2387.65,6240.33C2386.25,6240.19 2384.85,6240.05 2383.44,6239.9ZM2410.45,6373.84C2410.45,6373.84 2411.77,6376.31 2413.17,6378.38C2413.8,6379.31 2414.82,6380.56 2414.82,6380.56L2414.8,6380.9L2414.46,6380.87C2412.8,6378.99 2411.54,6376.77 2410.31,6374.56C2410.31,6374.56 2410.29,6374.56 2410.05,6374.06C2410.05,6374.06 2409.84,6373.67 2410.45,6373.84ZM2530.11,6305.35C2522.88,6303.13 2515.74,6300.86 2508.76,6298.43C2496.16,6294.03 2483.8,6288.96 2472.1,6282.49C2472.1,6282.49 2471.42,6281.63 2471.42,6281.63C2471.42,6281.63 2471.55,6280.53 2471.55,6280.53L2472.4,6279.86C2472.76,6279.9 2473.12,6279.94 2473.48,6279.98C2522.15,6306.86 2581.08,6309.07 2625.66,6341.95C2628.85,6344.31 2631.93,6346.78 2634.89,6349.48C2634.89,6349.48 2635.36,6350.46 2635.36,6350.46C2635.36,6350.46 2635.01,6351.49 2635.01,6351.49L2634.05,6351.94C2631.36,6351.05 2631.22,6350.06 2629.86,6348.93C2603.89,6327.41 2569.98,6317.48 2536.99,6307.45C2551.56,6314.36 2563.47,6326.7 2574.52,6337.53C2574.52,6337.53 2574.97,6338.55 2574.97,6338.55C2574.97,6338.55 2574.64,6339.51 2574.58,6339.57L2573.6,6339.99L2572.57,6339.61C2560.26,6328.39 2548.76,6315.69 2533.42,6309.09C2532.19,6308.56 2530.35,6307.84 2530.35,6307.84L2529.54,6307.09C2529.54,6307.09 2529.49,6305.97 2529.49,6305.97C2529.49,6305.97 2529.73,6305.62 2530.11,6305.35ZM2023.57,6206.5C2023.57,6206.5 2024.04,6207.48 2024.04,6207.48L2023.66,6208.47L2022.68,6208.94C2003.85,6210.15 1985.5,6215.39 1969.82,6226.36C1949.75,6240.41 1935.13,6260.74 1918.57,6278.43C1910.7,6286.84 1900.51,6292.77 1892.41,6300.99C1886.78,6306.7 1882.21,6313.33 1876.98,6319.42C1876.98,6319.42 1875.43,6320.5 1875.43,6320.5C1875.43,6320.5 1874.4,6320.17 1874.4,6320.17L1873.94,6319.21C1874.4,6317.74 1874.6,6317.76 1874.6,6317.76C1874.84,6317.48 1875.08,6317.2 1875.32,6316.92C1880.79,6310.45 1885.68,6303.37 1891.84,6297.49C1900.47,6289.24 1910.73,6282.96 1918.79,6273.86C1938.28,6251.8 1956.12,6227.54 1983.97,6214.82C1995.3,6209.65 2007.74,6206.9 2020.14,6206.2C2021.11,6206.14 2022.56,6206.12 2022.56,6206.12C2022.9,6206.24 2023.24,6206.37 2023.57,6206.5ZM2408.85,6257.13C2445.2,6260.83 2480.62,6273.71 2515.53,6285.05C2537.2,6292.06 2559.08,6298.61 2581.66,6302.14C2581.66,6302.14 2582.57,6302.7 2582.57,6302.7C2582.57,6302.7 2582.83,6303.75 2582.83,6303.75L2582.27,6304.65L2581.24,6304.91C2522.76,6295.96 2468.87,6266.34 2407.89,6259.98C2407.89,6259.98 2406.57,6258.37 2406.57,6258.37C2406.57,6258.37 2408.19,6257.06 2408.19,6257.06C2408.41,6257.08 2408.63,6257.11 2408.85,6257.13ZM2145.04,6166.73C2153.66,6166.83 2161.54,6172.66 2164.37,6181.3C2164.37,6181.3 2165.38,6182.78 2165.38,6182.78L2165.72,6182.78C2165.73,6184.62 2165.63,6186.67 2165.63,6186.67L2165.73,6188.51C2165.86,6190.2 2165.87,6189.99 2165.33,6190.6C2165.33,6190.6 2164.48,6196.53 2162.81,6201.7C2158.92,6213.69 2151.35,6224.22 2142.68,6233.28C2131.22,6245.26 2117.31,6255.32 2104.16,6264.76C2096.68,6270.09 2088.66,6275.23 2079.24,6276.16C2074.55,6276.62 2069.31,6275.12 2066.6,6270.94C2062.6,6264.77 2063.37,6256.16 2065.18,6248.89C2070.9,6225.9 2092.87,6209.29 2109.63,6193.26C2116.89,6186.32 2120.83,6176.54 2129.88,6171.17C2134.45,6168.45 2139.67,6166.71 2145.04,6166.73ZM2245.39,6246.72C2256.27,6246.83 2267.03,6250.19 2275.82,6256.61C2277.71,6257.99 2279.52,6259.47 2281.34,6260.93C2284.68,6263.59 2288.11,6266.13 2292.09,6267.63C2292.09,6267.63 2292.95,6268.42 2292.95,6268.42C2292.95,6268.42 2293.01,6269.51 2292.98,6269.6L2292.19,6270.44L2291.03,6270.48C2283.68,6267.73 2278,6261.51 2271.6,6257.39C2258.84,6249.2 2242.39,6247.96 2227.5,6252.35C2227.5,6252.35 2226.38,6252.23 2226.38,6252.23C2226.38,6252.23 2225.68,6251.35 2225.68,6251.35L2225.8,6250.24L2226.66,6249.54C2232.75,6247.72 2239.07,6246.7 2245.39,6246.72ZM2309.68,6261.32L2310.3,6262.28L2310.06,6263.38L2309.12,6263.99C2308.39,6264.12 2307.67,6264.27 2306.95,6264.42C2305.85,6264.65 2304.74,6264.89 2303.64,6265.13C2299.43,6266 2295.17,6266.72 2290.92,6265.88C2290.92,6265.88 2289.63,6264.13 2289.63,6264.13C2289.63,6264.13 2291.47,6263 2291.47,6263C2296.99,6263.96 2302.89,6262.13 2308.57,6261.08C2308.57,6261.08 2309.23,6261.22 2309.68,6261.32Z"/>
            </g>
        </g>
    </g>
</svg>
