<?xml version="1.0" encoding="UTF-8" standalone="no"?>
<!DOCTYPE svg PUBLIC "-//W3C//DTD SVG 1.1//EN" "http://www.w3.org/Graphics/SVG/1.1/DTD/svg11.dtd">
<svg width="100%" height="100%" viewBox="0 0 1044 1247" version="1.1" xmlns="http://www.w3.org/2000/svg" xmlns:xlink="http://www.w3.org/1999/xlink" xml:space="preserve" xmlns:serif="http://www.serif.com/" style="fill-rule:evenodd;clip-rule:evenodd;stroke-linejoin:round;stroke-miterlimit:2;">
    <g transform="matrix(1,0,0,1,-3162.94,-5839.73)">
        <path d="M3877.26,6221.84C3884.78,6199.22 3887.25,6174.81 3890.04,6150.86C3893.76,6118.77 3896.45,6086.17 3907.41,6056.11C3913.42,6039.61 3921.63,6023.82 3931.21,6008.27C3950.82,5976.44 3978.11,5947.57 4001.75,5917.55C4012.2,5904.18 4018.3,5888.18 4026.54,5873.19L4026.63,5873.02C4032.83,5862.42 4039.6,5851.9 4049.83,5844.81C4054.04,5841.9 4058.97,5839.83 4064.01,5839.73C4064.25,5839.73 4064.25,5839.73 4064.49,5839.74C4072.79,5840.05 4079.01,5847.49 4083.1,5853.48C4092.43,5867.15 4098.34,5882.81 4104.05,5898.43C4113.95,5925.58 4121.54,5953.4 4129.59,5981.22C4133.79,5995.66 4138.68,6009.94 4142.55,6024.51C4155.49,6073.29 4164.24,6123.15 4165.84,6173.96C4166.49,6194.87 4161.89,6215.78 4157.73,6236.32C4154.61,6251.85 4152.04,6267.67 4153.74,6283.55C4156.64,6310.67 4167,6337.78 4162.28,6363.4C4157.54,6389.1 4133.6,6408.27 4112.71,6425.76C4109.82,6428.18 4106.93,6430.62 4104.08,6433.1C4104.52,6435.02 4105,6436.92 4105.54,6438.81L4105.59,6438.97C4108.13,6446.65 4111.82,6453.9 4116,6460.84C4117.57,6463.44 4119.01,6466.1 4120.49,6468.7C4120.49,6468.7 4122.99,6473.55 4125.14,6477.52C4135.21,6496.03 4145.44,6514.4 4153.9,6533.81C4159.38,6546.37 4164.69,6559.06 4170.11,6571.59C4170.58,6572.92 4171.06,6574.25 4171.54,6575.57C4173.07,6579.82 4174.5,6584.11 4175.97,6588.37L4176.4,6589.62C4178.14,6595.11 4180.09,6600.57 4182.27,6605.93L4182.39,6605.87C4183.27,6605.52 4183.73,6604.95 4184.54,6603.81C4184.54,6603.81 4184.55,6603.81 4184.56,6603.81C4191.82,6606.34 4197.7,6611.94 4201.16,6619.09C4207.03,6631.22 4207.05,6645.54 4205.71,6658.63C4204.03,6674.99 4199.38,6690.8 4194.59,6706.92C4178.59,6760.75 4154.26,6812.02 4120.89,6857.43C4094.8,6892.94 4067.76,6927.86 4037.34,6959.43C4015.26,6982.35 3989.16,7001.33 3961.61,7017.52C3901.08,7053.08 3832.45,7074.91 3762.82,7083.73L3762.58,7083.76C3745.51,7085.57 3728.35,7086.53 3711.2,7086.61C3711.2,7086.61 3708.82,7086.55 3706.75,7086.44C3700.63,7086.12 3694.52,7085.73 3688.4,7085.28C3688.4,7085.28 3681.13,7084.32 3675.39,7083.7C3675.39,7083.7 3666.86,7083.18 3659.64,7082.55C3659.64,7082.55 3656.88,7081.11 3656.88,7081.11C3656.88,7081.11 3655.93,7078.15 3655.93,7078.15L3657.35,7075.41C3658.33,7075.09 3659.71,7074.64 3660.16,7074.5C3660.17,7072.9 3660.27,7071.29 3660.39,7069.72C3661.86,7048.56 3662.29,7027.27 3660.88,7005.89C3660.84,7002.97 3660.69,7000.04 3660.56,6997.13L3660.51,6996.16C3660.35,6993.18 3660.3,6992.71 3660.19,6991.36C3660.19,6991.36 3660.02,6988 3659.77,6985.58C3659.58,6983.71 3659.35,6981.84 3659.1,6979.98C3659.1,6979.98 3658.57,6976.87 3658.14,6974.7C3657.13,6969.5 3655.93,6964.33 3654.54,6959.22C3635.84,6963.23 3617.29,6967.97 3598.97,6973.73L3598.42,6973.9C3587.51,6978.85 3576.63,6983.91 3565.72,6988.92L3564.5,6989.49C3523.13,7008.2 3481.15,7026.76 3436.8,7037.36C3429.33,7039.15 3421.79,7040.68 3414.2,7041.86C3375.27,7047.9 3334.92,7050.1 3296.41,7041.87C3291.15,7040.75 3285.95,7039.38 3280.86,7037.7C3264.3,7032.23 3248.39,7023.14 3238.78,7008.18C3237.89,7006.79 3237.06,7005.34 3236.31,7003.86C3235.93,7003.91 3235.54,7003.95 3235.15,7003.98C3235.15,7003.98 3234.99,7003.04 3234.85,7002.07C3231.11,7000.98 3227.67,6998.11 3224.63,6995.22C3211.43,6982.7 3202.68,6965.98 3194.59,6949.45C3186.2,6932.31 3178.76,6914.46 3172.51,6896.75C3164.36,6873.69 3162.2,6848.39 3163.14,6824.3C3163.45,6816.34 3163.72,6808.41 3165.92,6800.55C3170.64,6783.78 3176.32,6767.31 3183.1,6751.13L3183.56,6750.05C3196.7,6719.98 3209.08,6689.48 3225.58,6661.18C3229.58,6654.08 3233.77,6647.11 3238.07,6640.2C3239.49,6627.04 3243.37,6615.3 3247.83,6603.11C3257.1,6577.8 3266.22,6551.89 3277.33,6528.78C3279.37,6523.94 3281.2,6519.04 3283.06,6514.1C3284.7,6509.78 3287.42,6505.53 3290.15,6501.13C3290.15,6501.13 3293.51,6498.58 3295.52,6497.13C3299.4,6494.3 3303,6491.13 3306.64,6487.99C3303.17,6479.76 3299.43,6471.61 3296.97,6463.02C3296.61,6459.92 3296.35,6456.83 3296.18,6453.73C3296.18,6453.73 3295.26,6445.41 3295.75,6440.01L3295.76,6439.91C3298.86,6418.98 3316.43,6402.68 3332.74,6389.68C3343.11,6381.43 3353.66,6373.53 3361.89,6362.87C3379.26,6340.37 3391.74,6314.08 3409.58,6291.71C3410.55,6290.5 3411.53,6289.29 3412.51,6288.09C3415.01,6251.13 3409.84,6213.68 3401.94,6177.23C3392.56,6133.87 3379.03,6091.51 3365.42,6048.96C3358.84,6033.24 3353.33,6017.16 3349.63,6000.85C3349.16,5998.8 3345.36,5987.64 3343.67,5979.59L3343.53,5977.36C3342.95,5972.47 3343.16,5962.65 3351.36,5961.1C3357.13,5960 3362.56,5963.67 3366.61,5967.26C3367.92,5968.43 3369.59,5970.34 3369.59,5970.34C3373.22,5974.91 3376.78,5979.57 3380.37,5984.19L3381.18,5985.23C3394.38,6002.12 3408.93,6018.46 3427.02,6029.45C3454.05,6047.63 3480.24,6067.07 3504.78,6088.41C3507.75,6090.91 3510.72,6093.45 3513.66,6096.01C3513.66,6096.01 3516.57,6098.15 3518.94,6099.72C3522.38,6101.99 3526.09,6103.76 3529.21,6106.72C3553.52,6129.94 3576.53,6155.68 3591.15,6185.26C3591.15,6185.26 3592.33,6187.88 3593.08,6189.73L3592.13,6190.58C3598.22,6191.07 3604.31,6191.77 3610.4,6192.58L3610.76,6192.63C3612.91,6192.86 3615.06,6193.13 3617.21,6193.3C3628.2,6188.62 3639.51,6184.96 3650.84,6182.35C3656.09,6180.19 3661.43,6178.2 3666.83,6176.4L3667.15,6176.3C3677.93,6173.81 3688.99,6172.66 3700.06,6172.63C3700.35,6172.63 3700.65,6172.63 3700.95,6172.64C3703.26,6172.65 3706.58,6172.74 3706.58,6172.74C3742.44,6174.82 3777.11,6187.25 3811.43,6199.19L3813.2,6199.81C3815.37,6200.68 3817.54,6201.55 3819.72,6202.42L3820.85,6202.88C3821.56,6203.18 3822.27,6203.48 3822.98,6203.78C3830.76,6207.06 3838.53,6210.27 3846.42,6213.2L3846.57,6213.25C3856.66,6216.58 3866.86,6219.56 3877.26,6221.84ZM4098.28,6422.54C4111.29,6411.45 4124.97,6401.68 4136.34,6388.66C4142.98,6381.06 4148.61,6372.31 4151.03,6362.46C4156.12,6344.12 4151.18,6324.5 4147.71,6305.9C4144.67,6289.47 4142.83,6272.93 4145.06,6255.73C4148.32,6230.68 4157.08,6207.02 4157.04,6180.63C4156.97,6132.92 4148.47,6084.92 4137.23,6038.98C4133.4,6023.31 4128.98,6007.87 4123.91,5992.43C4111.72,5954.94 4103.72,5916.83 4087.39,5879.85C4082.94,5869.78 4078.22,5859.24 4070.52,5852C4068.73,5850.33 4066.66,5848.52 4064.2,5848.78C4063.95,5848.8 4064.79,5848.59 4063.39,5848.95C4053.38,5851.55 4046.28,5860.65 4040.3,5869.41C4035.82,5875.97 4031.81,5882.85 4027.89,5889.78L4027.34,5890.77C4021.05,5902.61 4015.21,5914.81 4006.99,5925.2C3983.85,5954.34 3958.87,5981.72 3938.66,6012.98C3926.54,6031.81 3915.89,6051.44 3909.8,6073.58C3899.84,6109.77 3898.66,6147.32 3892.18,6186.24C3889.95,6199.62 3887.36,6212.97 3882.95,6225.78C3882.99,6225.88 3883.03,6225.98 3883.08,6226.08C3883.08,6226.08 3883.1,6228.01 3883.1,6228.01L3882.37,6229.77C3881.78,6230.36 3881.42,6230.8 3880.99,6231.13C3879.99,6233.68 3878.91,6236.2 3877.74,6238.7C3876.83,6240.65 3875.77,6242.51 3874.69,6244.36C3874.69,6244.36 3872.77,6245.85 3872.77,6245.85C3872.77,6245.85 3870.38,6245.59 3870.38,6245.59L3868.91,6243.72C3869.01,6242.75 3869.15,6241.31 3869.16,6241.3C3869.32,6240.98 3869.49,6240.66 3869.65,6240.34C3871.15,6237.35 3872.53,6234.31 3873.79,6231.23C3854.65,6227.62 3836.03,6222.18 3816.58,6216.97L3816.04,6216.83C3813.94,6216.22 3811.83,6215.6 3809.72,6214.98L3808.1,6214.5C3782.38,6205.57 3756.64,6196.34 3729.99,6191.28C3721.96,6189.75 3713.88,6188.56 3705.74,6187.95C3705.74,6187.95 3698.27,6187.27 3692.32,6187.19C3684.75,6187.08 3677.15,6187.48 3669.61,6188.59C3669.61,6188.59 3666.11,6188.78 3663.24,6189.13C3638.31,6192.26 3615.58,6207.93 3593.68,6218.9C3593.68,6218.9 3592.49,6219.25 3592.49,6219.25C3591.6,6219.56 3591.34,6219.66 3591.34,6219.66L3588.87,6219.71C3588.87,6219.71 3587.09,6218.24 3587.09,6218.24L3587.05,6217.49C3586.24,6217.98 3584.97,6218.76 3583.73,6219.54C3583.73,6219.54 3581.26,6219.99 3581.26,6219.99C3581.26,6219.99 3579.21,6218.62 3579.21,6218.62L3578.76,6216.22C3579.3,6215.38 3580.11,6214.13 3580.12,6214.12C3580.27,6214.01 3580.43,6213.9 3580.58,6213.8C3581.04,6213.47 3581.49,6213.15 3581.95,6212.83C3588.33,6208.36 3594.98,6204.3 3601.83,6200.65C3596.98,6200.44 3591.97,6200.44 3586.74,6201.22C3586.74,6201.22 3581.14,6201.56 3576.63,6202.1C3555.45,6204.65 3534.71,6211.41 3514.92,6219.26C3508.73,6221.72 3502.86,6225.25 3496.96,6228.61C3496.96,6228.61 3488.64,6233.26 3482.12,6237.4C3467.33,6246.81 3453.53,6257.67 3440.86,6269.79C3440.83,6269.9 3440.81,6270.01 3440.78,6270.11C3440.65,6270.48 3440.53,6270.84 3440.4,6271.21C3440.24,6271.65 3440.06,6272.13 3440.06,6272.13L3438.67,6271.97L3438.61,6271.97C3423.28,6286.97 3409.65,6303.82 3397.97,6322.17C3385.38,6341.94 3375.17,6363.21 3357.29,6379.7C3341.98,6393.8 3323.16,6404.39 3311.82,6421.25C3309.1,6425.3 3306.92,6429.73 3305.76,6434.47C3303.76,6442.62 3305.74,6451.68 3309.51,6459.11C3309.51,6459.11 3310.88,6463.41 3312.2,6466.86C3316.34,6477.75 3321.51,6488.07 3325.19,6499.32C3326.47,6503.2 3327.59,6507.22 3329.71,6510.85C3331.64,6502.68 3333.01,6494.24 3336.23,6486.63C3342.9,6470.86 3353.48,6456.83 3361.98,6442.06C3361.98,6442.06 3362.17,6441.79 3362.92,6440.64C3362.92,6440.64 3365.01,6439.09 3365.01,6439.09C3365.83,6439.17 3366.65,6439.26 3367.47,6439.34C3367.47,6439.34 3369,6441.32 3369,6441.32C3368.91,6442.35 3368.79,6443.89 3368.78,6443.91C3360.87,6460.46 3348.07,6474.69 3341.45,6492.94C3337.04,6505.1 3336.53,6518.53 3330.61,6530.21C3329.65,6532.1 3328.1,6534.7 3328.1,6534.7C3327.07,6536.11 3325.38,6537.57 3325.38,6537.57C3324.07,6539.25 3322.87,6541.02 3322.03,6542.97C3321.72,6543.69 3321.6,6544.08 3321.6,6544.08C3321.26,6544.47 3320.93,6544.86 3320.59,6545.25C3306.61,6561.75 3294.23,6579.92 3282.2,6597.4C3282.2,6597.4 3275.85,6606.13 3270.54,6613.45C3258.03,6630.71 3245.55,6647.97 3234.45,6666.15C3234.28,6666.45 3234.28,6666.45 3234.1,6666.74C3217.87,6694.51 3206.01,6724.19 3192.82,6754.09C3189.12,6762.49 3185.43,6770.84 3182.28,6779.4C3179,6788.32 3176.15,6797.38 3173.47,6806.5C3173.47,6806.5 3172.93,6809.84 3172.62,6812.72C3172.05,6818 3171.68,6823.31 3171.53,6828.62C3178.91,6825.04 3189.2,6825.8 3197.3,6825.74C3208.3,6825.68 3219.29,6825.91 3230.33,6825.97C3230.33,6825.97 3239.22,6825.82 3245.35,6825.64C3250.01,6825.5 3254.66,6825.27 3259.3,6824.88C3259.3,6824.88 3262.89,6823.64 3265.88,6822.48C3278.88,6817.45 3291.61,6811.57 3304.88,6807.09C3311.4,6804.89 3318.65,6803.46 3325.91,6803.5C3330.79,6803.56 3335.84,6804.75 3339.38,6808.34C3341.07,6810.06 3342.29,6812.23 3343.8,6814.2C3351.62,6824.41 3360.58,6834.34 3364.37,6845.87C3365.17,6848.3 3365.66,6850.89 3365.4,6853.44C3365.4,6853.44 3362.99,6860.08 3360.17,6865.38C3342.61,6898.42 3314.5,6924.7 3288.38,6949.4C3286.27,6951.38 3284.12,6953.33 3281.87,6955.16C3281.87,6955.16 3278.97,6957.13 3277.3,6958.23C3270.91,6962.43 3263.33,6965.1 3255.66,6963.45C3248.08,6961.82 3241.83,6956.69 3235.84,6952.07C3221.74,6941.25 3206.01,6933 3194.12,6918.17C3190.94,6914.2 3187.91,6910.11 3185.03,6905.91C3194.57,6930.66 3205.11,6955.36 3220.24,6977.04C3224.15,6982.91 3228.51,6988.78 3233.88,6992.94C3233.84,6992.53 3233.8,6992.08 3233.75,6991.58C3239.34,6990.63 3243.29,6984.63 3247.26,6980.66C3256.94,6971.09 3270.38,6967.26 3285.4,6966.63L3285.91,6966.61C3288.06,6966.55 3288.05,6966.72 3290.16,6967.06C3302.53,6968.98 3314.93,6970.82 3327.36,6972.46C3327.36,6972.46 3330.02,6972.87 3331.94,6973.17C3333.09,6973.34 3334.23,6973.52 3335.38,6973.69C3343.28,6974.88 3351.22,6976.02 3359.16,6977.04L3360.28,6977.18C3360.28,6977.18 3367.03,6978.36 3372.48,6979.23C3375.04,6979.63 3377.6,6980.01 3380.17,6980.37L3380.22,6980.37C3417.05,6983.26 3454,6983.82 3488.11,6972.4C3506.79,6966.15 3523.79,6955.8 3537.37,6941.55C3551.62,6926.61 3566.1,6911.49 3576.94,6894.71L3578.26,6892.67C3578.36,6892.55 3578.45,6892.42 3578.54,6892.29C3579.23,6891.32 3580.07,6889.75 3580.07,6889.75L3581.88,6888.07C3581.88,6888.07 3584.09,6887.99 3584.26,6888.07L3585.89,6889.78L3585.93,6892.24C3585.62,6893.08 3585.19,6894.11 3584.85,6894.9C3596.52,6884.28 3608.19,6873.66 3618.57,6861.67C3628.36,6850.36 3637.13,6838.19 3645.53,6825.84C3645.53,6825.84 3646.96,6823.78 3646.96,6823.78C3658.42,6807.44 3670.15,6791.23 3679.84,6774.37C3681.55,6771.37 3683.26,6768.37 3684.97,6765.38C3684.97,6765.38 3688.32,6759.96 3691.17,6755.59C3701.34,6739.99 3712.84,6725.27 3725.17,6711.25C3741.13,6693.12 3759.66,6676.9 3780.47,6664.86C3774.97,6665.3 3769.47,6665.99 3763.99,6666.69C3756.71,6667.63 3749.47,6668.78 3742.25,6670.09C3742.25,6670.09 3737.23,6670.7 3732.47,6671.36C3732.47,6671.36 3730.59,6671.28 3730.59,6671.28C3720.58,6670.78 3710.63,6673.22 3700.93,6676.03L3700.76,6676.09C3695.88,6677.62 3690.96,6679.21 3686.47,6681.58C3686.6,6681.58 3686.73,6681.58 3686.85,6681.58C3686.85,6681.58 3687.77,6684.01 3689.67,6684.35C3689.67,6684.35 3692.15,6685.39 3692.15,6685.39C3692.15,6685.39 3693.34,6687.05 3693.34,6687.05L3692.63,6688.92C3692.63,6688.92 3690.25,6690.77 3690.25,6690.77C3689.38,6691.4 3689.42,6691.72 3689.32,6692.24C3689.16,6693.05 3689.78,6693.74 3688.55,6694.28C3687.32,6694.84 3685.55,6695.8 3685.55,6695.8C3666.98,6701.45 3652.4,6716.35 3640.43,6732.65C3632.36,6742.91 3625.12,6754.01 3618.73,6764.62L3617.84,6765.88C3613.57,6771.82 3610.02,6778.27 3606.71,6784.81L3606.65,6784.94C3600.44,6798.45 3594.65,6812.22 3588.99,6826.05C3588.99,6826.05 3587.21,6827.85 3587.21,6827.85C3587.21,6827.85 3584.69,6827.89 3584.69,6827.89L3582.91,6826.13L3582.86,6823.61C3586.33,6814.74 3589.8,6805.86 3593.4,6797.05L3593.56,6796.67C3598.73,6784.58 3604.35,6772.66 3608.65,6760.21L3608.78,6759.84C3611.59,6753.67 3614.51,6747.58 3617.65,6741.6L3617.75,6741.39C3621.09,6735.47 3624.63,6729.67 3628.42,6724.04L3628.48,6723.95C3640.43,6707.47 3654.8,6692.06 3673.82,6684.24C3675.38,6683.59 3676.97,6683.03 3678.59,6682.55L3678.25,6682.37L3677.72,6680.03C3678.4,6678.64 3679.13,6677.41 3679.2,6677.34C3679.81,6676.75 3680.36,6675.82 3682.49,6674.69C3688.01,6671.77 3694.01,6669.88 3699.97,6667.92C3705.6,6666.07 3711.28,6664.42 3717,6662.86L3717.06,6662.84C3722.2,6660.94 3727.14,6657.98 3732.04,6656.67C3734.3,6656.07 3736.56,6655.49 3738.83,6654.92L3739.04,6654.87C3756.48,6651.67 3774.12,6649.1 3791.8,6648.94C3792.29,6648.94 3792.78,6648.94 3793.26,6648.94C3798.13,6648.97 3803.01,6649.19 3807.75,6650.22C3807.75,6650.22 3813.4,6651.86 3817.78,6653.37C3846.65,6663.32 3873.12,6679.72 3894.56,6701.61L3894.73,6701.79C3907.52,6715.38 3918.42,6730.77 3927.55,6748.05C3931.83,6756.17 3935.27,6764.99 3938.65,6773.72C3938.65,6773.72 3939.03,6775.24 3939.03,6775.24C3939.28,6776.2 3939.2,6775.95 3939.85,6778.24C3939.85,6778.24 3940.17,6779.77 3940.17,6779.77C3940.34,6780.49 3940.35,6780.54 3940.53,6781.27C3940.93,6782.85 3941.33,6784.31 3941.95,6786.23C3944.23,6793.28 3947.23,6800.98 3949.32,6808.59C3949.32,6808.59 3949.05,6811.03 3949.05,6811.03C3949.05,6811.03 3947.18,6812.57 3947.18,6812.57L3944.79,6812.31C3943.4,6810.66 3944.07,6812.76 3941.86,6806.45C3940.56,6802.8 3939.34,6799.09 3938.06,6795.38C3937.17,6801.81 3934.88,6808.03 3931.35,6813.5C3931.35,6813.5 3930.25,6814.98 3929.42,6815.96C3916.48,6831.28 3895.7,6838.46 3875.6,6841.39C3864.09,6843.07 3852.47,6844.44 3840.96,6844.8C3840.96,6844.8 3838.4,6844.73 3836.5,6844.65C3833.71,6844.53 3830.91,6844.44 3828.12,6844.36L3826.98,6844.32C3826.98,6844.32 3823.25,6844.47 3820.14,6844.81C3814.58,6845.41 3809.02,6846.06 3803.46,6846.76L3802.52,6846.89C3784.83,6849.44 3767.2,6852.56 3749.66,6855.61C3733.31,6858.46 3716.92,6862.66 3700.54,6866.64C3700.52,6866.65 3696.7,6867.58 3696.6,6867.6C3689.77,6869.45 3682.87,6871.96 3675.96,6874.15C3652.66,6881.56 3629.32,6889.26 3607.52,6899.44C3589.62,6907.81 3572.63,6918.18 3557.66,6932.26C3556.61,6933.22 3556.06,6933.65 3555.81,6933.83C3545.54,6945.6 3534.85,6957.16 3521.86,6965.71C3490.69,6986.25 3451.81,6992.04 3414.66,6992.89C3401.44,6993.19 3387.96,6991.93 3374.82,6991.77C3369.86,6991.71 3364.9,6991.62 3359.95,6991.5L3359.84,6991.49C3348.66,6990.58 3337.5,6989.39 3326.34,6988.01L3325.58,6987.92C3312.37,6985.92 3299.19,6983.7 3286.03,6981.38C3285.51,6981.39 3284.99,6981.41 3284.46,6981.42C3274.66,6981.74 3264.7,6983.27 3257.13,6990.28C3252.77,6994.31 3248.55,6998.93 3243.19,7001.66C3253.31,7018.84 3273.47,7028.49 3291.31,7033.01C3328.98,7042.57 3369.24,7039.82 3407.86,7034.23C3409.53,7033.98 3411.19,7033.72 3412.85,7033.45C3454.28,7026.49 3493.77,7009.72 3531.98,6992.46C3552.34,6983.26 3572.39,6973.65 3592.79,6964.26L3594.41,6963.52C3665.23,6940.84 3739.98,6932.41 3814.49,6924.21C3851.33,6920.14 3888.41,6916.73 3923.85,6906.83C3939.93,6902.34 3955.33,6896.23 3968.94,6886.04C4015.52,6851.16 4051.24,6801.65 4074.29,6750.44C4074.74,6749.43 4075.19,6748.43 4075.63,6747.42C4077.74,6742.59 4078.19,6737.23 4078.9,6731.97C4082.34,6706.41 4084.65,6680.9 4085.05,6654.66C4085.08,6652.96 4085.09,6651.26 4085.03,6649.56C4085.03,6649.56 4085.8,6649.09 4085.8,6649.09C4087.68,6647.7 4086.96,6648.73 4087.09,6646.61C4087.09,6646.61 4087.1,6644.08 4087.1,6644.08C4087.67,6643.33 4088.48,6642.26 4088.48,6642.26L4090.8,6642.01C4091.45,6642.49 4092.09,6642.98 4092.73,6643.46C4093.58,6644.84 4094.08,6647.27 4094.08,6647.27C4094.54,6648.07 4095.27,6648.65 4096.13,6649.06C4097.39,6675.05 4094.3,6701.81 4091.43,6727.19C4090.5,6735.44 4090.12,6743.95 4086.89,6751.54C4068.44,6794.72 4041.05,6834.36 4007.75,6867.9C3991.07,6884.69 3972.81,6900.79 3950.99,6910.09C3923.55,6921.78 3893.47,6926.32 3863.78,6930.3C3796.53,6939.3 3728.08,6944.14 3661.49,6957.76C3663.35,6964.52 3664.87,6971.35 3666.18,6978.21C3666.18,6978.21 3666.73,6980.73 3667.11,6982.49C3668.71,6989.9 3670.22,6997.33 3671.54,7004.81L3671.55,7004.87C3672.04,7008.81 3672.48,7012.75 3672.87,7016.7C3674.78,7036.23 3675.29,7055.77 3675,7075.32C3676.42,7075.32 3679.97,7075.28 3682.91,7075.11C3691.74,7074.6 3700.6,7074.13 3709.4,7073.28C3709.4,7073.28 3718.89,7072.79 3726.73,7072.15C3826.61,7063.96 3925.15,7033.09 4002.34,6970.58C4029.77,6948.36 4052.08,6920.52 4074.19,6892.8C4094.03,6867.94 4113.79,6842.85 4130.07,6815.8C4133.04,6810.86 4135.91,6805.86 4138.69,6800.81L4138.12,6800.1L4137.72,6799.12C4137.01,6797.61 4135.94,6796.14 4135.94,6796.14C4135.94,6796.14 4135.07,6794.3 4135.07,6794.3C4133.45,6788.54 4131.81,6782.79 4130.17,6777.03L4130.09,6776.76C4127.73,6766.9 4125.52,6757.02 4123.36,6747.13L4122.9,6744.98C4117.53,6715.2 4112.04,6685.17 4102.49,6656.27C4099.27,6645.81 4095.56,6635.42 4091.7,6625.11C4091.7,6625.11 4088.85,6616.45 4086.41,6609.38C4085.47,6606.67 4084.16,6602.92 4084.16,6602.92L4083.7,6601.5L4083.06,6599.51C4082.22,6596.96 4081.2,6593.52 4081.2,6593.52C4079.99,6588.06 4078.02,6582.81 4076.16,6577.56C4076.16,6577.56 4072.09,6566.76 4069.1,6557.85C4068.54,6556.19 4067.99,6554.53 4067.45,6552.86C4066.48,6549.86 4065.59,6546.83 4064.72,6543.79C4064.72,6543.79 4065,6541.24 4065,6541.24C4065,6541.24 4066.97,6539.62 4066.97,6539.62C4067.81,6539.71 4068.65,6539.8 4069.49,6539.89C4070.15,6540.67 4071.12,6541.84 4071.13,6541.86C4071.18,6542.03 4071.23,6542.19 4071.29,6542.36C4071.44,6542.85 4071.6,6543.34 4071.76,6543.84C4075.05,6554.06 4078.67,6564.07 4082.56,6573.98L4082.81,6574.62C4084.19,6577.91 4085.61,6581.18 4087.06,6584.44C4087.06,6584.44 4088.16,6586.58 4089.07,6588.1C4089.92,6589.5 4089.92,6589.5 4090.66,6590.62L4091.18,6591.71C4092,6593.38 4092.19,6593.79 4093.01,6595.45C4101.85,6613.26 4109.96,6631.46 4116.73,6650.29C4127.23,6679.48 4132.37,6709.89 4137.85,6740.23L4138.2,6742.22C4140.43,6757.85 4142.27,6773.49 4144.7,6789.52C4158.37,6762.94 4169.53,6735.03 4178.52,6706.62C4185.97,6683.1 4194.94,6659.62 4192.01,6635.4C4191.94,6634.82 4191.86,6634.24 4191.77,6633.67L4191.61,6633.88L4189,6634.16C4188.15,6633.5 4186.89,6632.53 4186.88,6632.52C4179.91,6620.69 4172.59,6607.32 4165.28,6595.2L4165.02,6594.78C4163.45,6591.99 4161.88,6589.21 4160.32,6586.43L4160.2,6586.21C4158.83,6583.59 4157.47,6580.96 4156.12,6578.32L4155.83,6577.77C4147.86,6559.33 4140.53,6540.63 4131.78,6522.62C4124.27,6507.15 4115.32,6492.4 4107.74,6476.95C4107.44,6476.33 4104.62,6470 4102.87,6464.35C4100.55,6456.85 4098.57,6449.2 4096.98,6441.49C4096.98,6441.49 4096.83,6440.85 4096.61,6439.85C4091.7,6444.47 4087.03,6449.32 4082.84,6454.57C4082.67,6454.72 4082.5,6454.88 4082.34,6455.03C4079.04,6458.14 4076.12,6461.65 4073.63,6465.44C4073.63,6465.44 4071.31,6468.26 4070.17,6470.38C4069.49,6471.66 4068.58,6473.62 4068.58,6473.62L4066.81,6475.31C4066.81,6475.31 4064.4,6475.32 4064.4,6475.32L4062.73,6473.6C4062.72,6472.62 4062.7,6471.16 4062.71,6471.14C4063.4,6469.35 4064.44,6466.86 4064.44,6466.86C4064.99,6465.4 4065.68,6463.23 4065.68,6463.23C4065.97,6462.51 4066.37,6461.51 4066.37,6461.51C4068.65,6456.8 4071.19,6452.22 4073.75,6447.66L4073.84,6447.51C4078.6,6441.35 4083.96,6435.67 4089.6,6430.32C4091.33,6428.67 4093.1,6427.07 4094.88,6425.49L4095.26,6424.1C4095.26,6424.1 4098.02,6422.47 4098.02,6422.47L4098.28,6422.54ZM3176.1,6877.37C3177.51,6881.36 3179.95,6884.99 3182.12,6888.62C3190.36,6902.27 3199.5,6915.41 3212.27,6925.55C3223.81,6934.71 3236.03,6943.29 3247.78,6951.49C3251.04,6953.78 3254.58,6955.84 3258.47,6956.42C3263.06,6957.1 3268.7,6954.85 3273.4,6951.58C3273.4,6951.58 3276.55,6948.87 3276.55,6948.87C3276.84,6948.64 3277.12,6948.4 3277.41,6948.16C3292.6,6935.22 3306.63,6919.99 3319.28,6905.9C3333.95,6889.56 3348.57,6872.34 3356.56,6852.22C3356.56,6852.22 3356.56,6850.5 3356.01,6848.77C3353.84,6842.03 3349.26,6836.19 3344.82,6830.38C3344.68,6830.21 3344.68,6830.21 3344.54,6830.03C3340.55,6825.06 3336.21,6820.35 3332.32,6815.37C3328.9,6812.55 3323.08,6814.3 3317.96,6815.74C3314.18,6816.81 3310.52,6818.29 3306.82,6819.44C3292.17,6824.04 3277.66,6828.84 3262.74,6833.15L3261.85,6833.41C3260.57,6833.72 3261.12,6833.6 3259.76,6833.63C3254.61,6833.73 3249.48,6833.7 3244.34,6833.62L3243.78,6833.61C3239.63,6833.48 3235.48,6833.34 3231.33,6833.19L3230.91,6833.17C3216.5,6832.84 3202.3,6832.64 3187.91,6832.61C3182.08,6832.62 3175.46,6832.53 3171.47,6836.56C3171.62,6850.32 3173.18,6864.04 3176.1,6877.37ZM3810.97,6667.51C3780.94,6678.79 3757.47,6698.68 3736.7,6721.52C3729.9,6729.03 3723.25,6736.73 3716.85,6744.65C3717.23,6744.66 3717.64,6744.68 3717.98,6744.69L3719.74,6746.58L3719.75,6746.6L3719.65,6749.18L3717.76,6750.94C3715.47,6751.77 3711.06,6754.12 3707.21,6757.01C3703.6,6761.81 3700.1,6766.7 3696.71,6771.67C3696.71,6771.67 3694.01,6775.36 3694.01,6775.36L3692.66,6777.2C3690.17,6780.62 3687.69,6784.05 3685.21,6787.46C3686.4,6788.53 3687.55,6789.65 3688.53,6790.94C3688.53,6790.94 3691.28,6797.95 3691.28,6797.95C3691.5,6799.89 3691.48,6798.99 3692.97,6801.67C3692.97,6801.67 3693.76,6803.36 3693.76,6803.36C3693.92,6803.77 3693.89,6803.92 3693.89,6803.92L3693.76,6806.62C3693.76,6806.62 3692.82,6808.24 3692.72,6808.3L3690.76,6808.28C3690.76,6808.28 3687.99,6806.56 3687.99,6806.56L3687.03,6805.1C3686.35,6803.88 3685.23,6802.25 3685.23,6802.25C3684.05,6801.4 3684.04,6801.42 3684.04,6801.42C3684.04,6801.42 3681.03,6799.09 3681.03,6799.09C3679.97,6798.38 3680.86,6798.92 3679.98,6798.38C3679.98,6798.38 3678.84,6797.52 3678.84,6797.52C3678.68,6797.38 3678.52,6797.24 3678.36,6797.11L3678.27,6797.04C3670.4,6807.76 3662.08,6818.24 3654.05,6828.93L3652.89,6830.48C3650.44,6833.62 3647.99,6836.77 3645.54,6839.91C3632.47,6856.64 3618.55,6873 3602.95,6887.6C3598.16,6892.09 3593.29,6896.49 3588.43,6900.9C3593.21,6898.17 3598.08,6895.63 3602.99,6893.24C3609.51,6890.08 3616.1,6887.06 3622.77,6884.25L3623.12,6884.1C3628.23,6882.03 3633.39,6880.06 3638.58,6878.17C3639.21,6874.67 3639.13,6871.03 3638.72,6867.53C3638.67,6867.16 3638.64,6866.79 3638.6,6866.42C3638.27,6863.48 3637.58,6860.59 3636.44,6857.89C3636.44,6857.89 3636.49,6855.04 3636.49,6855.04C3636.49,6855.04 3637.98,6853.37 3637.98,6853.37C3638.72,6853.38 3639.47,6853.39 3640.22,6853.4L3642.14,6855.01C3642.52,6855.62 3642.47,6855.65 3642.59,6855.94C3645.1,6862.2 3646.26,6869.08 3645.67,6875.65C3661.4,6870.15 3677.35,6865.26 3693.14,6860.2L3694.3,6859.83C3694.35,6859.43 3694.46,6858.92 3694.67,6858.25C3695.14,6856.71 3695.85,6854.8 3695.99,6854.39C3699.13,6845.49 3698.73,6836.31 3696.72,6827.33C3696.67,6827.11 3696.63,6826.88 3696.58,6826.66C3696.04,6824.09 3696.83,6827.31 3695.93,6823.66C3695.93,6823.66 3696.22,6821.23 3696.22,6821.23C3696.22,6821.23 3697.88,6819.74 3698,6819.7C3698.77,6819.79 3699.55,6819.87 3700.32,6819.95C3700.96,6820.68 3701.93,6821.77 3701.94,6821.78C3701.99,6821.93 3702.05,6822.08 3702.1,6822.23C3703.59,6826.26 3703.93,6828.54 3704.35,6831.25C3704.84,6834.31 3705.2,6837.41 3705.4,6840.52L3706.18,6838.69C3707.06,6838.3 3708.38,6837.71 3708.4,6837.71C3709.19,6837.67 3711.15,6837.55 3711.15,6837.55C3712.23,6837.52 3713.32,6837.49 3714.4,6837.49C3714.61,6837.49 3714.82,6837.49 3715.03,6837.49C3722.24,6837.55 3729.08,6840.43 3735.93,6843.03C3735.93,6843.03 3738.86,6843.92 3738.86,6843.92C3739.87,6844.34 3740.88,6844.74 3741.89,6845.13C3743.61,6842.81 3745.34,6840.55 3746.86,6837.97C3750.61,6831.61 3753.75,6824.79 3754.45,6816.76C3754.65,6814.34 3754.64,6811.94 3754.47,6809.56L3753.3,6808.79C3753.3,6808.79 3752.69,6806.53 3752.69,6806.53L3753.93,6804.6C3753.45,6801.3 3752.78,6798.09 3752.12,6794.99C3752.12,6794.99 3752.51,6792.53 3752.51,6792.53C3752.51,6792.53 3754.44,6791.05 3754.44,6791.05C3755.23,6791.17 3756.03,6791.29 3756.82,6791.42C3757.95,6792.86 3758.07,6792.4 3758.66,6794.4L3758.73,6794.63C3759.52,6797.89 3760.15,6801.2 3760.57,6804.55C3761.34,6804.67 3762.12,6804.81 3762.84,6804.94C3770.84,6806.43 3778.68,6808.49 3786.56,6810.4C3790.47,6811.35 3794.66,6813.6 3798.55,6816.2C3800.42,6813.69 3802.47,6811.29 3804.3,6808.95C3804.3,6808.95 3807.45,6805.3 3808.95,6802.35C3810.12,6800.05 3811.07,6797.66 3811.85,6795.28C3811.85,6795.28 3812.64,6792 3813.05,6790.15C3814.83,6782.07 3814.7,6773.72 3814.19,6765.38C3814.17,6765.12 3814.14,6764.73 3814.14,6764.73L3814.9,6762.44C3814.9,6762.44 3817.03,6761.33 3817.03,6761.33C3817.79,6761.57 3818.55,6761.82 3819.3,6762.07C3819.76,6762.92 3820.43,6764.19 3820.44,6764.21C3820.49,6764.77 3820.55,6765.32 3820.6,6765.88C3820.64,6766.33 3820.67,6766.78 3820.7,6767.23C3820.72,6767.57 3820.74,6767.92 3820.76,6768.26C3820.91,6771.18 3820.95,6774.12 3820.88,6777.06L3822.54,6776.45L3823.88,6776.42C3824.01,6776.43 3824.15,6776.44 3824.29,6776.45C3825.03,6776.5 3825.78,6776.55 3826.52,6776.61C3834.86,6777.23 3843.09,6780.31 3851.4,6785.12C3853.39,6779.78 3856.29,6774.79 3858.87,6769.4L3858.92,6769.29C3861.72,6762.72 3863.22,6755.58 3862.91,6747.89C3862.5,6737.51 3860.33,6727.18 3857.33,6717.33C3854.15,6706.93 3848.8,6697.21 3840.88,6689.54C3838.79,6687.51 3836.59,6685.61 3834.27,6683.86L3834.2,6683.86C3834.2,6683.86 3831.88,6682.53 3831.88,6682.53C3831.15,6681.92 3829.86,6681.25 3829.86,6681.25C3829.78,6681.19 3829.7,6681.12 3829.61,6681.06C3822.02,6675.75 3810.34,6679.16 3805.39,6684.27C3804.94,6684.73 3804.51,6685.21 3804.09,6685.7C3796.84,6694.28 3796.17,6707.24 3798.28,6718.88L3797.83,6721.01C3802.13,6724.57 3806.11,6728.6 3809.71,6732.78C3810.3,6733.47 3811.14,6734.57 3811.14,6734.57L3811.81,6736.9C3811.81,6736.9 3810.83,6738.92 3810.73,6739.01L3808.48,6739.68L3806.31,6738.6C3806.07,6738.34 3805.83,6738.07 3805.58,6737.81C3797.57,6729.28 3789.52,6720.85 3777.68,6716.31C3773.38,6714.66 3768.71,6714.36 3764.18,6713.29C3764.18,6713.29 3762.17,6711.88 3762.17,6711.88C3762.17,6711.88 3761.68,6709.53 3761.68,6709.53L3763.02,6707.57C3763.82,6707.39 3764.61,6706.91 3765.42,6707.04C3766.68,6707.23 3765.85,6707.07 3767.14,6707.29C3767.57,6707.36 3768.01,6707.44 3768.44,6707.51C3769.33,6707.65 3770.22,6707.78 3771.11,6707.93C3778.28,6709.09 3784.98,6712.03 3791.13,6716.05C3788.98,6702.89 3790.45,6690.34 3799.5,6679.47C3803.94,6674.14 3810.55,6670.73 3817.87,6670C3815.59,6669.13 3813.29,6668.29 3810.97,6667.51ZM3981.22,6752L3983.41,6754.12L3983.67,6754.47C3986.82,6768.91 3990.07,6783.35 3992.09,6797.86C3992.73,6802.55 3993.85,6807.31 3994.8,6812.08L3994.82,6812.18C3995.66,6819.2 3996.08,6826.25 3995.14,6833.23C3995.14,6833.23 3994.33,6837.25 3993.39,6840.27C3989.05,6854.09 3978.77,6865.7 3965.69,6872.03C3944.83,6882.12 3919.49,6879.79 3896.96,6886.05C3896.13,6886.28 3892.7,6886.6 3892.7,6886.6C3892.7,6886.6 3890.28,6885.69 3888.18,6885.7C3888.18,6885.7 3884.33,6884.98 3884.33,6884.98C3884.33,6884.98 3882.19,6883.32 3882.14,6883.19L3882.52,6880.37C3882.52,6880.37 3884.88,6877.26 3884.88,6877.26C3884.88,6877.26 3887.58,6873.65 3889.13,6872.92C3909.41,6863.5 3934.76,6866.71 3952.7,6860.57C3962.46,6857.23 3971.54,6850.82 3976.25,6841.6C3980.22,6833.84 3981.74,6824.86 3982.7,6818.02C3984.32,6806.31 3983.6,6794.62 3981.25,6781.43C3979.91,6773.89 3978.37,6766.39 3976.88,6758.88C3976.88,6758.88 3976.44,6755.52 3976.44,6755.52L3977.64,6752.72C3977.64,6752.72 3979.23,6751.33 3979.23,6751.33C3979.89,6751.56 3980.56,6751.78 3981.22,6752ZM3705.45,6841.28C3705.71,6845.74 3705.65,6850.19 3705.16,6854.46C3705.05,6855.44 3704.82,6856.4 3704.54,6857.34C3714.74,6854.89 3724.94,6852.53 3735.17,6850.3L3733.72,6849.54C3729.03,6847.39 3724.26,6845.18 3719.21,6844.35C3716.73,6843.94 3714.21,6843.98 3711.72,6844.03C3711.72,6844.03 3710.02,6844.03 3708.43,6843.98C3708.43,6843.98 3706.2,6843.02 3706.2,6843.02L3705.45,6841.28ZM3761.14,6811.19C3761.48,6818.97 3760.63,6826.83 3758.2,6834.41C3756.81,6838.77 3754.69,6842.87 3752.1,6846.7C3754.99,6846.03 3757.87,6845.32 3760.76,6844.65C3760.76,6844.65 3763.12,6844.2 3764.75,6843.89C3779.68,6841.13 3794.69,6838.73 3809.83,6836.44C3808.12,6834.31 3806.28,6832.29 3804.3,6830.42C3804.3,6830.42 3803.29,6829.65 3803.29,6829.65C3797.96,6826.72 3792.43,6822.41 3785.83,6819.61C3785.83,6819.61 3775.44,6814.53 3769.93,6813.11C3767.02,6812.35 3764.09,6811.73 3761.14,6811.19ZM3869.59,6758.23C3869.21,6761.14 3868.58,6764.06 3867.65,6766.96C3866.51,6770.49 3865.1,6773.93 3863.78,6777.41C3863.78,6777.41 3863.07,6779.32 3862.46,6781.09C3862.46,6781.09 3860.61,6785.32 3859.49,6788.85L3858.28,6790.24C3859.06,6790.93 3859.82,6791.64 3860.57,6792.35C3860.57,6792.35 3862.21,6794.06 3863.87,6795.98L3863.97,6796.09C3867.91,6801.71 3871.81,6807.37 3875.35,6813.19C3875.35,6813.19 3876.56,6815.3 3877.48,6816.95C3877.48,6816.95 3877.78,6819.36 3877.78,6819.36C3877.78,6819.36 3876.37,6821.28 3876.37,6821.28L3874.03,6821.59L3872.07,6820.17C3871.62,6819.46 3871.17,6818.75 3870.71,6818.05C3869.09,6815.62 3867.51,6813.18 3865.8,6810.82L3865.66,6810.64C3859.67,6802.82 3852.01,6796.3 3846.4,6791.65C3839.89,6786.24 3831.77,6783.87 3823.33,6783.08C3821.97,6782.79 3821.96,6782.82 3821.96,6782.82L3820.64,6782.06C3820.56,6783.29 3820.46,6784.53 3820.34,6785.77C3820.13,6787.86 3819.91,6789.94 3819.64,6792.03C3819.64,6792.03 3818.88,6795.94 3818.4,6798.4C3818.19,6799.48 3817.86,6801.02 3817.86,6801.02C3816.68,6805.75 3815.11,6810.46 3812.92,6814.64C3812.92,6814.64 3811.68,6816.54 3811.68,6816.54C3811.27,6817.11 3810.85,6817.67 3810.43,6818.24C3809.32,6819.72 3808.14,6821.16 3807.03,6822.65L3806.71,6822.86C3807.34,6823.61 3808.12,6824.52 3808.81,6825.29C3808.81,6825.29 3814.01,6830.72 3816.07,6833.77C3816.41,6834.26 3816.84,6834.93 3817.11,6835.34C3818.85,6835.08 3820.6,6834.82 3822.34,6834.57C3822.34,6834.57 3825.93,6833.82 3825.93,6833.82C3825.93,6833.82 3829.34,6833.19 3832.11,6832.57C3834.31,6832.08 3836.49,6831.55 3838.68,6831C3838.68,6831 3845.02,6829.61 3849.82,6829.07C3871.27,6826.65 3893.96,6825.38 3911.39,6811.77C3911.47,6806.68 3909.33,6801.32 3907.28,6796.43C3901.61,6782.9 3889.81,6773.01 3878.1,6764.55C3876.03,6763.06 3873.44,6761.06 3873.44,6761.06C3872.16,6760.11 3870.88,6759.17 3869.59,6758.23ZM3842.06,6681.33C3854.08,6691.69 3862.65,6706.53 3866.24,6723.25C3868.09,6732.09 3869.98,6741.11 3870.05,6750.14L3870.48,6750.05C3870.48,6750.05 3871.52,6750.37 3872.24,6750.82C3893.17,6763.72 3913.43,6779.37 3918.98,6804.13C3919.88,6803.07 3922.86,6799.36 3924.43,6795.25C3926.86,6788.91 3927.14,6781.77 3926.1,6775.13C3926.1,6775.13 3925.89,6771.97 3925.12,6770.2C3925.12,6770.2 3925.07,6769.61 3925.03,6769.1C3922.33,6764.1 3919.45,6759.22 3916.37,6754.46C3916.37,6754.46 3913.73,6750.1 3911.42,6746.58C3909.99,6744.4 3908.51,6742.24 3907.01,6740.12C3889.89,6715.98 3867.86,6695.74 3842.06,6681.33ZM3796.11,6590.74C3845.69,6591.54 3892.66,6618.71 3932.09,6647.03C3932.09,6647.03 3934.12,6649.21 3934.12,6649.21L3935.11,6651.92L3935.03,6654.8C3935.03,6654.8 3933.8,6657.53 3933.8,6657.53L3931.61,6659.54C3928.93,6660.53 3928.89,6660.54 3926.03,6660.45L3923.32,6659.23C3893.98,6638.06 3863.62,6619.04 3829.73,6609.78C3816.42,6606.14 3802.44,6604.24 3788.83,6603.82C3775.35,6603.44 3761.88,6603.85 3747.43,6607.57C3730.14,6612.02 3713.39,6619.36 3697.32,6627.85C3697.32,6627.85 3695.27,6628.83 3693.51,6629.69C3693.51,6629.69 3690.99,6629.91 3690.99,6629.91C3690.99,6629.91 3689.06,6628.4 3689.06,6628.4L3688.82,6625.99C3690.12,6624.25 3688.66,6625.11 3693.16,6622.18C3715.34,6609.94 3738.85,6600.67 3764.22,6594.88C3769.8,6593.61 3775.46,6592.58 3781.14,6591.74L3781.31,6591.72C3786.06,6591.14 3790.85,6590.8 3795.64,6590.74C3795.87,6590.73 3795.87,6590.73 3796.11,6590.74ZM3309.79,6495.85C3306.77,6500 3304.43,6504.64 3302.98,6509.86C3302.98,6509.86 3299.92,6513.65 3297.76,6516.4C3294.3,6520.84 3290.69,6525.1 3287.57,6529.84C3287.57,6529.84 3285.73,6532.93 3285.73,6532.93C3273.85,6556.36 3266.32,6580.19 3256.62,6605.17C3254.72,6609.95 3252.85,6614.78 3251.21,6619.68C3254.68,6614.35 3258.19,6609.02 3261.7,6603.67L3262.03,6603.17C3267.34,6595.18 3272.81,6587.3 3278.55,6579.59L3278.9,6579.12C3289.9,6564.58 3301.12,6550.14 3313.53,6536.83C3313.53,6536.83 3317.13,6534.7 3319.4,6532.89C3319.45,6532.85 3322.21,6530.31 3322.21,6530.31C3323.91,6527.74 3325.25,6525.01 3326.35,6522.16C3325.39,6521.73 3324.34,6521.45 3322.84,6521.45C3322.3,6521.46 3321.01,6519.48 3319.99,6518.15C3316.66,6513.82 3314.46,6508.75 3312.47,6503.63C3312.47,6503.63 3311.56,6500.84 3310.83,6498.73C3310.49,6497.77 3310.15,6496.81 3309.79,6495.85ZM3600.55,6547.34C3602.26,6547.34 3604.49,6547.56 3604.49,6547.56C3606.93,6547.74 3609.37,6547.88 3611.82,6547.97C3611.82,6547.97 3614.37,6549.03 3614.37,6549.03C3614.37,6549.03 3615.5,6551.38 3615.5,6551.38L3614.53,6553.79L3612.07,6555.01C3609.75,6555.26 3606.6,6555.78 3606.6,6555.78C3605.84,6555.91 3605.61,6555.93 3603.9,6556.3C3603.9,6556.3 3602.83,6556.5 3602.83,6556.5C3601.79,6556.71 3600.38,6556.91 3600.38,6556.91C3599.77,6556.96 3599.15,6557.02 3598.54,6557.07C3567.55,6560.03 3535.45,6568.1 3513.06,6592.93C3508.17,6598.35 3503.89,6604.38 3500.15,6610.53C3500.15,6610.53 3499.78,6610.24 3498.75,6610.4L3493.1,6607.26C3493.1,6607.26 3492.27,6606.1 3492.27,6606.1C3504.86,6582.09 3528.53,6564.15 3553.79,6555.71C3558.57,6554.12 3563.42,6552.78 3568.33,6551.67C3578.58,6549.33 3589.02,6548.02 3599.43,6547.36C3599.43,6547.36 3600.03,6547.34 3600.55,6547.34ZM3573.54,6508.54C3566.7,6506.63 3560.32,6503.12 3555.07,6498.11C3547.87,6491.24 3542.42,6482.5 3538.39,6473.48C3538.1,6472.83 3538.09,6472.41 3538.09,6472.41C3537.72,6470.95 3537.3,6469.5 3536.85,6468.07C3536.85,6468.07 3536.97,6465.49 3536.97,6465.49C3536.97,6465.49 3538.7,6463.74 3538.7,6463.74L3541.12,6463.82L3543,6465.58L3543.25,6466.08C3544.09,6467.71 3545.3,6469.3 3545.92,6470.63C3549.54,6478.38 3553.93,6485.94 3560.27,6491.81C3569.33,6500.17 3582.98,6501.98 3595.95,6497.75C3614.51,6491.69 3630.66,6479.81 3645.95,6467.97C3661.12,6456.23 3674.88,6442.42 3692.97,6433.51C3704.27,6427.94 3716.97,6425.58 3728.99,6422.23C3728.99,6422.23 3731.46,6422.05 3731.46,6422.05C3732.22,6422.3 3732.98,6422.55 3733.74,6422.81L3735.58,6424.36C3736.03,6425.25 3736.7,6426.56 3736.71,6426.58L3736.89,6429.04C3736.24,6430.99 3736.28,6431.81 3734.57,6433.15C3732.35,6434.91 3730.72,6434.75 3729.14,6435.17C3716.75,6438.45 3704.33,6441.1 3693.22,6447.71C3694.67,6448.15 3695.95,6448.68 3697.14,6449.49C3698.42,6449.83 3699.14,6450.05 3700.52,6450.99C3700.52,6450.99 3701.85,6451.41 3701.85,6451.41C3704.81,6451.79 3707.36,6454.11 3711.03,6457.14C3711.03,6457.14 3712.14,6457.48 3713.47,6458.5C3713.47,6458.5 3713.88,6458.67 3715.8,6459.68C3715.8,6459.68 3718.62,6460.52 3721.04,6462.49C3721.1,6462.43 3721.17,6462.36 3721.24,6462.3L3722.3,6461.41C3722.73,6461.05 3723.37,6460.49 3723.37,6460.49L3725.76,6459.61L3727.99,6460.51L3729.91,6459.25C3730.96,6459.47 3732.01,6459.68 3733.06,6459.9C3733.06,6459.9 3734.84,6462.6 3734.84,6462.6L3734.19,6465.74C3717.29,6490.45 3689.04,6505.74 3658.47,6510.1C3660.47,6510.94 3662.44,6511.82 3664.39,6512.75C3664.39,6512.75 3666.46,6514.9 3666.46,6514.9L3666.65,6516.58C3666.91,6517.34 3667.72,6518.56 3667.72,6518.56L3669.37,6521.43C3669.37,6521.43 3669.63,6523.48 3669.58,6523.59L3667.74,6524.68C3667.74,6524.68 3664.43,6525.08 3664.43,6525.08C3664.43,6525.08 3662.76,6524.98 3660.93,6526.39C3660.93,6526.39 3660.92,6526.34 3658.24,6526.31C3643.26,6519.73 3627.04,6516.12 3611.07,6515.91C3610.72,6515.9 3610.36,6515.89 3610,6515.88C3608.22,6515.83 3606.44,6515.83 3604.67,6515.86C3604.67,6515.86 3600.79,6515.93 3597.84,6516C3576.86,6516.64 3556.43,6523.1 3537.7,6532.85C3537.51,6532.93 3537.32,6533.01 3537.13,6533.09C3536.5,6533.37 3535.56,6533.8 3535.56,6533.8L3532.94,6534C3532.94,6534 3530.95,6532.46 3530.95,6532.46L3530.72,6529.98C3531.97,6528.27 3530.89,6528.82 3534.23,6526.57C3534.23,6526.57 3535.13,6526.06 3535.75,6525.71C3547.98,6518.92 3560.63,6513.25 3573.54,6508.54ZM3664.13,6501.69C3662.09,6502.24 3660.03,6502.74 3657.97,6503.22C3660.49,6502.84 3663.01,6502.37 3665.51,6501.82C3665.06,6501.79 3664.6,6501.74 3664.13,6501.69ZM3665.75,6501.77L3665.81,6501.76L3665.8,6501.76L3665.75,6501.77ZM3639.81,6487.95C3633.07,6492.67 3626.17,6497.02 3618.96,6500.72C3621.57,6500.88 3624.18,6501.13 3626.78,6501.46C3626.98,6501.43 3627.2,6501.4 3627.45,6501.36C3627.45,6501.36 3633.88,6500.66 3639.13,6499.89C3643,6499.32 3646.84,6498.64 3650.66,6497.84C3646.2,6495.59 3642.34,6492.35 3639.81,6487.95ZM3713.88,6458.86C3714.36,6459.32 3714.06,6459.02 3713.88,6458.86ZM3712.47,6458.42C3712.55,6458.49 3712.44,6458.39 3712.47,6458.42ZM3698.09,6450.23C3698.09,6450.23 3698.27,6450.39 3698.38,6450.5C3698.38,6450.5 3698.26,6450.38 3698.09,6450.23ZM4059.26,5875.83L4058.28,5874.53C4058.28,5874.53 4058.56,5872.09 4058.56,5872.09L4060.5,5870.6C4061.32,5870.69 4062.14,5870.77 4062.97,5870.86C4063.6,5871.2 4064.21,5871.58 4064.8,5872C4064.99,5872.14 4065.18,5872.28 4065.37,5872.43L4066.66,5872.23C4067.31,5872.64 4067.96,5873.05 4068.61,5873.46L4069.02,5875.74L4068.99,5875.79C4072.57,5879.81 4074.76,5884.67 4077.06,5889.53C4088.1,5912.77 4094.02,5938.13 4099.72,5963.45C4103.03,5978.13 4105.22,5993.11 4109.44,6007.8C4116.72,6033.12 4127.46,6057.13 4133.93,6083.36C4139.07,6104.19 4143.05,6125.3 4145.94,6146.44C4148.39,6164.4 4150.96,6182.59 4149.4,6200.69L4149.37,6201.07C4148.73,6205.86 4147.82,6210.6 4146.82,6215.32L4146.78,6215.49C4142.3,6230.38 4136.64,6245.03 4135.24,6260.48C4133.06,6284.53 4136.55,6310.33 4124.07,6331.66C4116.43,6344.72 4104.13,6354.65 4090.04,6360.35C4066.81,6369.73 4040.6,6367.43 4017.2,6375.41C4011.18,6377.47 4005.4,6380.55 4001.21,6385.65L4000.25,6386.91C4000.25,6386.91 3997.58,6388.46 3997.58,6388.46L3994.53,6388.84C3991.67,6388.05 3991.64,6388.03 3989.28,6386.24L3987.74,6383.58C3983.85,6372.07 3978.51,6361.48 3972.88,6350.99C3967.33,6342.44 3961.24,6334.35 3954.76,6326.79C3954.76,6326.79 3953.94,6325.55 3953.94,6325.55C3948.34,6317.14 3940.87,6310.08 3932.66,6304.07C3926.88,6299.83 3920.55,6296.32 3913.94,6293.46C3913.94,6293.46 3912.8,6292.7 3912.8,6292.7L3911.13,6290.77C3911.13,6290.77 3911.02,6288.5 3911.02,6288.5L3912.67,6286.95C3913.52,6286.87 3914.39,6286.53 3915.22,6286.72L3916.54,6286.98C3923.46,6289.78 3930.11,6293.51 3936.36,6297.75C3941.87,6301.48 3947.14,6305.66 3952.39,6309.86C3942.91,6286.35 3936.74,6261.34 3932.84,6236.77C3923.14,6175.77 3937.48,6111.3 3959.04,6055.43C3964.25,6041.94 3970.02,6028.59 3976.1,6015.36L3976.24,6015.06C3977.34,6012.84 3978.45,6010.63 3979.57,6008.42L3979.68,6008.2C3980.87,6006.01 3982.06,6003.82 3983.27,6001.63L3983.71,6000.83C3985.58,5997.61 3987.47,5994.4 3989.36,5991.18C3995.98,5979.89 4002.62,5968.89 4008.26,5956.63C4019.35,5932.52 4028.85,5907.59 4047.05,5887.27C4050.78,5883.11 4054.85,5879.24 4059.26,5875.83ZM3951.55,6134.32C3947.99,6151.92 3945.76,6169.72 3945.27,6187.68C3944.37,6220.28 3950.3,6253.06 3959.97,6284.46C3969.05,6313.94 3986.98,6340.37 3998.32,6367.62C4006.16,6362.37 4015.66,6359.32 4024.86,6357.4C4024.49,6355.52 4024.08,6353.65 4023.62,6351.8L4023.53,6351.44C4022.34,6348.15 4020.74,6345.01 4018.89,6342.05C4018.89,6342.05 4017.31,6336.95 4015.47,6332.15C4014.35,6329.24 4013.14,6326.38 4011.88,6323.54C4011.88,6323.54 4010.31,6319.82 4008.81,6316.55C3992.24,6280.53 3967.13,6248.21 3957.71,6208.92C3954.4,6195.15 3952.56,6181 3951.76,6166.93C3951.15,6156.14 3951.08,6145.22 3951.55,6134.32ZM4064.32,5880.65C4044.3,5895.94 4032.86,5920.17 4022.98,5943.33C4019.39,5951.76 4015.94,5960.24 4012.24,5968.63C4012.24,5968.63 4008.71,5976.8 4006.57,5981.67C4002.96,5989.93 3999.59,5998.27 3996.35,6006.69C3996.35,6006.69 3993.81,6013.06 3991.8,6017.76C3991.09,6019.43 3990.22,6021.47 3990.22,6021.47C3980.65,6042.47 3971.82,6064 3964.56,6085.94C3960.41,6107.45 3958.66,6129.36 3959.07,6151.29C3959.16,6155.72 3959.73,6162.89 3960.22,6168.85C3962.5,6195.32 3969.39,6221.15 3981.78,6244.56C3994.91,6269.34 4011.85,6291.77 4024.07,6317.44L4024.27,6317.87C4027.18,6324.47 4029.72,6331.23 4031.78,6338.15C4031.95,6341.64 4032.12,6345.13 4032.41,6348.61C4032.41,6348.61 4033.02,6352.38 4033.49,6355.87C4053.64,6352.84 4074.66,6352.39 4092.61,6341.81C4104.67,6334.69 4113.29,6322.44 4116.13,6308.3C4120.16,6288.27 4117.39,6267.25 4121.46,6247.02C4123.93,6234.73 4128.48,6223.08 4132.33,6211.02C4137.31,6199.03 4140.99,6186.67 4141.06,6174.25C4141.09,6169.42 4140.84,6164.6 4140.48,6159.79L4140.47,6159.57C4140.21,6156.84 4139.93,6154.1 4139.61,6151.38C4135.84,6118.87 4129.39,6086.68 4118.67,6055.63C4110.99,6033.37 4102.36,6011.43 4097.98,5988.27C4092.58,5959.9 4086.17,5931.41 4076.14,5904.6C4073.01,5896.24 4070.02,5887.19 4064.32,5880.65ZM3386.4,6093.31C3395.89,6124.13 3404.55,6155.14 3410.84,6186.77C3416.92,6217.35 3420.86,6248.49 3419.74,6279.62C3422.82,6276.13 3425.97,6272.72 3429.19,6269.39L3428.5,6269.18L3427.6,6268.7C3427.6,6268.7 3426.33,6268.12 3426.33,6268.12C3427.1,6264.25 3427.3,6263.69 3427.6,6262.1C3432.1,6238.19 3428.36,6213.12 3423.28,6188.63C3419.55,6170.66 3414.7,6152.78 3407.35,6136.08C3403.91,6128.26 3399.03,6121.27 3394.97,6113.25L3394.3,6111.92C3391.76,6105.67 3389.14,6099.46 3386.4,6093.31ZM3576.57,6190.86C3564.67,6168.03 3547.9,6147.6 3530.38,6129.24C3526.04,6124.7 3521.65,6120.21 3517.16,6115.8C3517.16,6115.8 3516.47,6114.82 3516.47,6114.82L3515.8,6113.81C3513.33,6110.16 3511.09,6106.85 3507.68,6103.18C3505.2,6100.49 3502.1,6097.98 3499.21,6095.36L3498.94,6095.12C3474.9,6074.22 3449.33,6055.21 3422.91,6037.42C3422.91,6037.42 3417.53,6034.13 3412.75,6030.57C3405.67,6025.28 3399.19,6019.18 3393.16,6012.7L3393.06,6012.6C3382.49,6000.67 3373.27,5987.53 3363.57,5975.15C3360.81,5971.7 3356.74,5968.02 3352.81,5968.54C3352.23,5968.61 3352.17,5968.84 3352.1,5968.94C3352.12,5968.94 3351.29,5970.85 3351.26,5972.37C3351.05,5980.38 3356.18,5988.4 3357.8,5997.49L3357.82,5997.6C3364.6,6028.18 3377.53,6057.21 3392.16,6084.53C3392.16,6084.53 3393.36,6086.49 3394.22,6087.84C3397.89,6093.57 3401.92,6099.07 3406.13,6104.43C3406.13,6104.43 3409.52,6109.44 3412.85,6114.34L3413.24,6114.91C3417.82,6122.68 3422.01,6130.5 3425.18,6138.99C3435.99,6168.02 3442.38,6198.97 3443.88,6229.56C3444.3,6238.23 3444.32,6246.98 3443.4,6255.57C3457.96,6242.27 3473.69,6230.39 3490.32,6220.09L3490.82,6219.78C3508.26,6209.43 3526.75,6202.03 3546.35,6196.63C3556.15,6193.93 3566.31,6191.91 3576.57,6190.86Z"/>
    </g>
</svg>
