<?xml version="1.0" encoding="UTF-8" standalone="no"?>
<!DOCTYPE svg PUBLIC "-//W3C//DTD SVG 1.1//EN" "http://www.w3.org/Graphics/SVG/1.1/DTD/svg11.dtd">
<svg width="100%" height="100%" viewBox="0 0 1966 872" version="1.1" xmlns="http://www.w3.org/2000/svg" xmlns:xlink="http://www.w3.org/1999/xlink" xml:space="preserve" xmlns:serif="http://www.serif.com/" style="fill-rule:evenodd;clip-rule:evenodd;stroke-linejoin:round;stroke-miterlimit:2;">
    <g transform="matrix(1,0,0,1,-755.299,-4651.35)">
        <path d="M2526.64,4716.13C2531.1,4702.36 2531.8,4687.42 2536.02,4673.12C2537.43,4668.33 2539.26,4663.74 2543.28,4660.28C2551.21,4653.49 2562.3,4651.32 2573.12,4651.35C2592.38,4651.51 2614.07,4658.91 2619.84,4676.47C2621.62,4681.89 2620.43,4687.86 2620,4693.85C2618.98,4707.92 2617.58,4721.96 2616.01,4735.98C2615.87,4736.81 2615.73,4737.64 2615.59,4738.47C2615.03,4741.73 2614.47,4744.99 2613.88,4748.25C2613.88,4748.25 2613.75,4749.46 2613.56,4751.1C2620.56,4740.57 2627.95,4730.22 2637.7,4722.28C2643.19,4717.82 2649.24,4714.05 2656.02,4711.65C2656.02,4711.65 2660.86,4710.41 2664.42,4710.44C2671.42,4710.55 2678.28,4712.76 2684.09,4716.81C2696.81,4725.67 2703.63,4740.71 2707.41,4755.24C2712.52,4774.89 2713.23,4797 2702.98,4813.76C2693.07,4829.96 2674.35,4838.9 2663.96,4854.97C2658.58,4863.29 2658.55,4874.1 2654.55,4883.34C2653.51,4885.63 2653.09,4885.85 2652.51,4886.72C2644.67,4898.45 2636.24,4909.9 2627.5,4920.99C2650.28,4934.46 2679.69,4937.05 2696.01,4960.46C2706.26,4975.15 2711.55,4993.28 2708.4,5011.17C2705.72,5026.41 2697.74,5040.01 2688.76,5052.44C2694.26,5053.23 2699.55,5055.56 2703.96,5059.48C2709.9,5064.78 2713.63,5072.11 2716.53,5079.2C2717.62,5081.88 2719.05,5085.36 2719.11,5085.69C2719.14,5085.82 2719.16,5085.94 2719.19,5086.07C2719.24,5086.32 2719.29,5086.58 2719.34,5086.84C2721.89,5100.45 2721.16,5114.86 2714.6,5126.98C2703.97,5146.62 2689.65,5164.9 2669.72,5175.96C2651.24,5186.23 2630.28,5191.39 2610.32,5197.87C2610.32,5197.87 2607.65,5197.65 2607.65,5197.65C2607.65,5197.65 2605.91,5195.61 2605.91,5195.61L2606.13,5192.95L2608.15,5191.21C2635.66,5182.28 2665,5175.86 2685.74,5155.35C2695.41,5145.77 2703.24,5134.28 2709.24,5122.13C2714.46,5111.58 2714.72,5098.81 2712.39,5087.05C2712.39,5087.05 2712.24,5083.76 2711.68,5080.73C2711.57,5080.08 2710.57,5076.3 2709.39,5073.51C2709.39,5073.51 2708.8,5072.27 2708.34,5071.42C2705.12,5065.49 2700.38,5060.24 2694,5057.57C2691.58,5056.56 2689.01,5055.93 2686.39,5055.66C2684.19,5058.62 2681.96,5061.5 2679.75,5064.32C2674.45,5071.06 2668.29,5076.96 2660.5,5081.26C2634.91,5095.37 2603.56,5094.87 2574.28,5102.42C2554.2,5107.6 2535.24,5116.1 2514.12,5119.51C2493.67,5122.81 2472.93,5122.88 2452.07,5122.02C2436.83,5121.49 2422.1,5128.42 2407.99,5134.65C2391.83,5141.77 2374.45,5148.15 2355.95,5142.2C2355.27,5141.98 2354.59,5141.74 2353.91,5141.48C2350.49,5140.15 2347.18,5138.23 2344.87,5135.34C2345.35,5133.99 2345.06,5131.75 2345.06,5131.75L2345.77,5129.82C2345.77,5129.82 2347.8,5130.71 2347.8,5130.71C2348.51,5131.59 2350.08,5130.69 2350.6,5131.29C2357.08,5138.55 2370.52,5138.41 2379.09,5137C2401.43,5133.31 2420.49,5118.18 2443.59,5115.78C2451.47,5114.96 2459.48,5115.96 2467.51,5116.16C2489.49,5116.7 2511.78,5115.38 2532.85,5109.64C2551.51,5104.55 2569.53,5097.34 2588.85,5094.36C2614.36,5090.41 2641.21,5088.67 2662.72,5074.89C2670.88,5069.67 2676.78,5061.56 2682.56,5054.05L2682.47,5053.82L2682.97,5052.64L2683.97,5052.22C2696.64,5035.89 2706.81,5016.98 2705.53,4996.12C2705.09,4988.92 2703.31,4981.73 2700.44,4975.04C2698.51,4978.24 2695.14,4980.64 2690.92,4981.78L2690.8,4981.82C2678.91,4984.42 2666.61,4979.38 2656.07,4980.84C2653.73,4981.16 2651.39,4981.51 2649.05,4981.85C2649.05,4981.85 2643.51,4981.87 2639.02,4981.94L2638.33,4981.94C2625.14,4982.08 2611.98,4982.89 2598.79,4982.75C2598.79,4982.75 2597.67,4982.28 2597.67,4982.28C2597.67,4982.28 2597.21,4981.16 2597.21,4981.16L2597.67,4980.07C2600.08,4979.04 2601.03,4979.56 2602.39,4979.53C2607.45,4979.38 2612.51,4979.09 2617.56,4978.66C2620.51,4978.4 2623.46,4978.1 2626.41,4977.77C2626.41,4977.77 2629.93,4977.36 2632.6,4977.01C2635.14,4976.67 2638.59,4976.18 2638.59,4976.18C2641.63,4975.78 2644.67,4975.37 2647.71,4974.98C2647.71,4974.98 2650.95,4974.9 2653.15,4974.99C2665.95,4975.53 2678.77,4980.05 2689.97,4977.85C2693.89,4977.27 2697.46,4974.91 2698.6,4971.09C2695.47,4964.95 2691.41,4959.37 2686.63,4954.79C2670.23,4939.07 2645.22,4935.48 2625.43,4923.61C2622.63,4927.13 2619.79,4930.61 2616.94,4934.05C2616.94,4934.05 2614.25,4937.28 2612.53,4938.25C2599.81,4945.44 2584.56,4945.49 2572.19,4949.61C2562.66,4952.79 2552.97,4956.84 2543.15,4956.34C2539.4,4956.14 2535.56,4954.75 2533.07,4952.03C2517.08,4965.99 2499.37,4978.61 2478.19,4980.85C2465.57,4982.19 2452.82,4981.7 2440.93,4986.19C2415.64,4995.74 2397.12,5018.16 2370.53,5026.4C2356.86,5030.64 2342.25,5030.72 2327.8,5030.44C2327.8,5030.44 2326.41,5030.22 2326.41,5030.22L2325.03,5029.95L2323.35,5029.65L2322.25,5029.41L2321.31,5029.25L2321.59,5030.9L2320.06,5033.09C2291.35,5051.26 2255.76,5056.32 2228.35,5076.68C2224.53,5079.52 2220.79,5082.46 2217.12,5085.48C2217.82,5085.77 2218.52,5086.07 2219.22,5086.37C2219.22,5086.37 2222.33,5086.61 2222.33,5086.61C2252.46,5100.9 2275.3,5127.84 2308.16,5133.31C2309.71,5133.57 2312.05,5133.85 2312.05,5133.85L2313.83,5134.83C2313.83,5134.83 2314.41,5136.77 2314.41,5136.77L2313.44,5138.54L2311.51,5139.13C2279.13,5136.09 2252.59,5111.39 2229.25,5098.09C2226.25,5096.37 2223.19,5094.76 2220.07,5093.28C2220.07,5093.28 2218.01,5091.6 2218.01,5091.6C2217.28,5090.82 2217.27,5090.84 2217.27,5090.84C2215.82,5090.21 2214.35,5089.61 2212.88,5089.05C2194,5105.16 2176.82,5123.47 2159.75,5141.6C2159.8,5141.81 2159.85,5142.03 2159.92,5142.24C2165.14,5158.49 2182.07,5168.8 2196.78,5174.78C2220.97,5184.61 2247.4,5187.93 2271.65,5197.36C2273.45,5198.06 2275.23,5198.8 2276.99,5199.61C2274.75,5192.7 2273.86,5185.22 2274.22,5177.88C2274.22,5177.88 2275.09,5175.17 2275.83,5172.88C2275.83,5172.88 2277.38,5164.81 2280.35,5159.67C2281.42,5157.81 2282.63,5156.07 2284.19,5154.49C2284.19,5154.49 2285.35,5153.96 2285.35,5153.96C2285.73,5154.08 2286.11,5154.2 2286.49,5154.32C2286.49,5154.32 2287.03,5155.42 2287.03,5155.42L2286.67,5156.63C2283.57,5160.79 2281.44,5165.69 2280.41,5170.83C2280.41,5170.83 2280.1,5173.18 2280.26,5174.6C2280.4,5175.9 2280.89,5177.74 2280.89,5177.74C2280.88,5177.97 2280.87,5178.21 2280.87,5178.45C2280.36,5195.57 2288.23,5214.56 2303.43,5219.46C2325.15,5226.47 2349.84,5218.03 2372.43,5215.3C2403.21,5211.59 2434.54,5221.05 2464.09,5216.94C2483.83,5214.2 2502.1,5205.18 2522.09,5202.22C2527.88,5201.37 2533.75,5201.29 2539.6,5201.3C2543.66,5201.31 2553.74,5201.76 2561.33,5200.48C2566.03,5199.69 2570.55,5198.1 2575.14,5196.81C2576.93,5196.32 2579.56,5195.81 2579.56,5195.81C2581.03,5195.6 2583.24,5195.32 2583.24,5195.32L2584.29,5195.62C2584.29,5195.62 2584.85,5196.55 2584.85,5196.55L2584.56,5197.58C2582.43,5198.87 2581.54,5198.54 2580.37,5198.87C2580.37,5198.87 2576.91,5199.84 2574.63,5200.53C2567.25,5202.76 2559.76,5204.66 2551.72,5204.98C2538.7,5205.49 2526.12,5204.65 2513.1,5207.98C2493.83,5212.92 2475.15,5220.57 2456.16,5221.68C2441.61,5222.53 2426.91,5220.7 2412.72,5219.54L2412.32,5219.51C2405.63,5219.1 2398.92,5218.86 2392.21,5219.2C2378.81,5219.86 2365.38,5222.84 2352.14,5225.44L2351.64,5225.53C2347.82,5226.21 2343.98,5226.85 2340.13,5227.37C2336.79,5227.82 2333.44,5228.19 2330.07,5228.43C2315.32,5229.48 2299.37,5228.68 2288.96,5219.02C2285.51,5215.82 2282.69,5212.04 2280.47,5207.88L2280.28,5208.03L2277.63,5207.71C2249,5191.49 2209.82,5188.09 2181.06,5170.84C2170.74,5164.65 2161.54,5155.79 2157.41,5144.08C2150.79,5151.09 2144.18,5158.06 2137.48,5164.85C2125.09,5177.4 2112.39,5189.96 2098.63,5200.67C2080.94,5214.43 2056.84,5218.74 2040.4,5233.51C2030.96,5242 2022.87,5252.48 2011.27,5258.1C2009.06,5259.17 2006.76,5260.03 2004.4,5260.67C2007.43,5262.35 2010.6,5263.82 2013.97,5264.97C2021.27,5267.45 2029.63,5267.35 2036.43,5271.69C2040.47,5274.27 2042.29,5280.06 2038.41,5284.01C2034.71,5287.78 2028.17,5287.11 2021.85,5286.33C2021.85,5286.33 2015.28,5286.02 2008.72,5285.48L2007.45,5285.38C1994.07,5282.33 1981.04,5277.96 1967.44,5275.89C1965.69,5275.63 1963.08,5275.42 1963.08,5275.42C1963.08,5275.42 1962.29,5273.6 1960.49,5273.46L1958.84,5272.09L1960.24,5270.46C1961.95,5270.05 1962.98,5268.4 1964,5268.46C1978.88,5269.49 1993.29,5274.91 2007.95,5278.39L2009,5278.63C2012.21,5279.87 2015.46,5281.04 2018.8,5281.9C2018.8,5281.9 2022.1,5282.89 2022.1,5282.89C2026.58,5283.49 2031.64,5284.35 2035.2,5282.17C2036.63,5281.3 2037.5,5279.32 2037.01,5277.63C2035.67,5273.09 2028.18,5272.27 2021.05,5271.03C2021.05,5271.03 2015.95,5270.22 2012.57,5269.08C2007.42,5267.35 2002.6,5264.82 1997.99,5261.87C1996.88,5261.99 1995.77,5262.06 1994.65,5262.09C1994.65,5262.09 1993.98,5261.02 1993.98,5261.02C1993.71,5260.8 1993.42,5260.63 1993.01,5260.53L1991.58,5259.11L1992.61,5258.2C1987.32,5254.38 1982.25,5250.18 1977.2,5246.24C1967.18,5238.43 1955.82,5231.61 1943.06,5230.86C1933.96,5230.34 1924.85,5232.25 1916.28,5235C1907.75,5237.73 1899.58,5241.89 1891.08,5245.27L1890.77,5245.39C1879.28,5249.45 1867.4,5252.48 1855.28,5253.02C1850.66,5253.23 1846.04,5253.25 1841.43,5253.34C1844.19,5256.34 1846.17,5260.05 1847.01,5264.09C1849.02,5273.84 1846.83,5284.53 1853.02,5293.31C1855.35,5296.61 1858.45,5299.38 1860.7,5302.61C1860.7,5302.61 1861.18,5303.9 1862.86,5306.58C1862.86,5306.58 1864.08,5308.11 1865.36,5309.76C1865.36,5309.76 1867.65,5312.67 1869.1,5314.59C1871.56,5317.88 1873.78,5321.49 1874.51,5325.5C1875.7,5332.07 1870.81,5342.29 1865.2,5350.94C1859.15,5360.26 1848.99,5365.36 1836.92,5366.7C1827.56,5367.72 1818.38,5369.08 1809.44,5373.72C1809.14,5373.87 1808.83,5374.02 1808.53,5374.17C1788.13,5384.29 1771.7,5401.87 1750.46,5409.47C1720.68,5420.11 1687.13,5416.89 1656.41,5429.03L1655.44,5429.01C1629.85,5447.13 1601.6,5461.48 1572.49,5473.39C1563.88,5476.91 1555.16,5480.29 1545.85,5481.33C1520.62,5484.14 1494.78,5479.38 1470.41,5485.82C1451.64,5490.78 1435.31,5502.75 1416.31,5507.62C1386.76,5515.18 1355.35,5515.85 1324.87,5513.8C1306.09,5512.54 1287.25,5509.67 1269.71,5502.82C1247.09,5493.99 1225.58,5482.39 1203.43,5472.34L1202.21,5471.79C1197.18,5469.14 1192.13,5466.53 1187.16,5464.15L1186.7,5463.93C1183.14,5462.32 1179.53,5460.81 1175.89,5459.39L1175.63,5459.29C1161.81,5454.17 1147.19,5449.73 1132.34,5450.63C1128.77,5450.85 1125.21,5451.44 1121.79,5452.53C1121.55,5452.57 1121.28,5452.62 1121.01,5452.69C1120.12,5453.22 1119.22,5453.75 1118.32,5454.27C1117.31,5454.83 1117.17,5454.89 1116.63,5455.15C1112.25,5457.26 1107.45,5458.44 1102.63,5459.26L1102.47,5459.29C1086.78,5461.39 1069.88,5461.26 1056.34,5453.2C1054.4,5452.04 1052.58,5450.54 1050.97,5448.88L1050.87,5448.78C1049.6,5447.28 1048.48,5445.65 1047.61,5443.88C1047.61,5443.88 1047.47,5442.31 1047.47,5442.31L1048.42,5440.81C1049.82,5438.89 1051.02,5437.68 1052.22,5436.54C1048.71,5429.87 1040.75,5425.31 1033.29,5428.47C1029.12,5430.23 1025.85,5433.98 1025.27,5438.41C1024.41,5444.99 1026.4,5451.67 1023.07,5458.26C1022.71,5458.95 1022.36,5459.64 1021.99,5460.32C1007.37,5487.7 980.44,5508.07 950.72,5515.89C920.115,5523.93 887.191,5524.55 856.642,5519.02C841.205,5516.23 825.512,5511.4 814.084,5500.86C806.587,5493.94 799.937,5486.22 792.293,5479.39C782.056,5470.22 771.715,5460.6 766.961,5447.87C762.588,5436.17 762.938,5423.2 760.524,5410.95C750.208,5357.65 753.667,5300 784.536,5256.19C799.534,5234.9 820.629,5217.73 845.256,5208.85C864.252,5202.01 885.694,5204.25 905.151,5203.01C918.189,5202.19 929.913,5195.06 941.47,5188.06C949.213,5183.37 956.712,5178.27 964.656,5173.93C970.334,5170.83 976.423,5167.84 982.646,5167.7C982.766,5167.69 982.886,5167.69 983.006,5167.69C984.866,5167.71 985.734,5168.02 986.68,5168.39C991.047,5170.09 994.147,5174.09 996.891,5178.21C1003.07,5176.78 1009.41,5175.8 1015.68,5175.8C1016.43,5175.8 1017.18,5175.82 1017.93,5175.86C1018.53,5175.9 1019.13,5175.94 1019.73,5176.01C1025.85,5176.69 1032.07,5179.9 1033.11,5187.86C1033.95,5194.27 1032.7,5200.89 1034.54,5207.11C1034.54,5207.11 1034.25,5209.78 1034.25,5209.78C1034.25,5209.78 1032.16,5211.46 1032.16,5211.46L1029.51,5211.18L1027.83,5209.11C1025.78,5202.2 1027.27,5194.7 1025.99,5187.6C1024.89,5181.51 1014.61,5182.47 1006.99,5183.44C1003.89,5183.83 1000.83,5184.24 997.6,5184.45C997.6,5184.45 993.973,5184 992.21,5184.09C989.546,5184.2 989.957,5184.08 989.957,5184.08L988.54,5183.38C988.54,5183.38 988.01,5181.9 988.01,5181.9L988.693,5180.5L990.176,5179.95C991.025,5179.97 991.832,5179.89 992.635,5179.71C991.574,5178.22 990.434,5176.78 989.094,5175.53C989.094,5175.53 985.977,5173.55 983.657,5173.51C978.284,5173.48 973.239,5176.87 968.162,5179.92C968.162,5179.92 962.316,5183.32 957.802,5186.12C944.869,5194.16 932.102,5202.92 917.677,5207.61C894.839,5215.02 868.872,5206.23 844.079,5216.82C816.162,5228.74 792.828,5251.16 779.407,5278.61C759.477,5319.38 759.04,5367.55 767.568,5410.48C770.449,5424.99 769.53,5440.58 777.17,5452.68C784.312,5463.99 795.592,5472.16 805.092,5481.59C813.553,5490 820.687,5499.36 832.079,5504.55C846.329,5511.05 862.078,5513.75 878.063,5514.75C861.193,5507.41 845.65,5496.94 832.146,5484.6C823.799,5476.97 817.202,5467.71 810.912,5458.22C805.166,5449.59 798.781,5441.19 789.647,5436.04C789.647,5436.04 788.946,5435.15 788.946,5435.15C788.946,5435.15 789.081,5434.02 789.081,5434.02L789.966,5433.33C790.338,5433.37 790.711,5433.41 791.084,5433.45C807.049,5442.31 814.93,5461.23 826.639,5474.01C839.683,5488.25 856.736,5499.03 874.236,5506.59C883.302,5510.51 892.728,5513.65 902.708,5515.19C929.807,5514.6 957.3,5510.13 980.33,5495.29C995.736,5485.36 1008.55,5471.43 1016.82,5455.09C1019.95,5448.92 1017.48,5441.26 1019.18,5434.42C1014.14,5438.28 1008.83,5441.83 1003.52,5445.31C992.564,5452.47 979.725,5457.68 966.594,5456.81C951.592,5455.82 936.247,5449.88 930.079,5435.91C921.915,5417.42 929.148,5390.94 948.719,5386.24C950.402,5385.83 951.69,5385.65 953.782,5385.65C955.256,5385.66 956.725,5385.82 958.171,5386.1C958.171,5386.1 960.323,5387.54 960.323,5387.54C960.323,5387.54 960.837,5390.08 960.837,5390.08L959.405,5392.22L956.88,5392.74C953.899,5392.16 950.764,5392.4 947.964,5393.6C940.164,5396.94 936.053,5405.48 934.507,5413.21C931.924,5426.13 936.928,5440.93 949.818,5446.04C961.096,5450.51 973.924,5451.49 985.336,5447.16C996.568,5442.9 1006.12,5435.25 1015.92,5427.95C1021.58,5423.71 1027.76,5419.25 1030.41,5412.72C1031.21,5410.75 1031,5408.22 1029.34,5406.67C1028.34,5405.72 1026.51,5404.74 1026.51,5404.74L1024.81,5402.68C1024.81,5402.68 1025,5400.12 1025.06,5400.01L1027.12,5398.31L1029.78,5398.55C1034.37,5400.98 1038.21,5405.21 1037.98,5410.59C1037.8,5414.55 1035.98,5418.02 1033.59,5421.08C1035.71,5420.54 1037.92,5420.34 1040.12,5420.53C1047.3,5421.15 1053.83,5425.64 1057.63,5431.88C1065.25,5426.08 1074.24,5422.19 1082.05,5417.32C1098.58,5409.66 1108.43,5392.53 1116.23,5375.23C1124.43,5357.11 1134.98,5340.22 1145.25,5323.1C1156.59,5304.05 1163.13,5280.48 1182.08,5270.39C1183.63,5269.56 1184.73,5268.82 1186.95,5268.83C1190.34,5268.93 1192.11,5270.09 1194.17,5271.1C1199.84,5273.89 1205.44,5277.17 1210.62,5280.97C1243.89,5245.83 1288.45,5220.24 1332.76,5202.91C1348.86,5196.61 1365.33,5191.17 1381.97,5186.39L1382.18,5186.34C1384.53,5185.8 1386.89,5185.28 1389.24,5184.77C1389.24,5184.77 1390.68,5184.98 1391.65,5185.12C1391.65,5185.12 1393.11,5186.94 1393.11,5186.94L1392.78,5189.23L1390.9,5190.76C1390.12,5191.02 1389.34,5191.28 1388.56,5191.54C1381.1,5194.07 1373.38,5196.18 1365.78,5198.62C1310.17,5216.47 1256.91,5242.53 1216.07,5285.3C1221.88,5290.31 1226.87,5296.06 1230.44,5302.56C1234.01,5309.05 1234.84,5316.81 1231.7,5324.23C1224.67,5340.87 1207.1,5350.88 1195.29,5364.31C1194.07,5365.7 1192.86,5367.11 1191.68,5368.55C1176.35,5387.15 1167.49,5410.71 1151.7,5428.28C1145.11,5435.62 1137.45,5441.93 1129.23,5447.48C1139.38,5446.23 1150.08,5448.01 1159.98,5450.47C1169.56,5452.85 1178.89,5456.13 1188.21,5459.47L1188.47,5459.56C1193.94,5461.42 1199.39,5463.33 1204.81,5465.36L1205.06,5465.46C1221.99,5473.06 1238.5,5481.73 1255.38,5489.29C1252.6,5474.95 1250.48,5460.55 1250.25,5445.72C1250.18,5441.2 1250.37,5436.64 1250.88,5432.12L1250.9,5431.97C1251.71,5428.69 1252.39,5425.42 1254.25,5422.37C1254.25,5422.37 1256.94,5415.95 1259.32,5411.23C1267.06,5395.85 1279.6,5383.5 1292.84,5372.04C1294.63,5370.5 1296.54,5369.07 1298.39,5367.59C1298.39,5367.59 1299.49,5367.26 1299.49,5367.26C1299.82,5367.42 1300.15,5367.59 1300.48,5367.76C1300.48,5367.76 1300.81,5368.84 1300.81,5368.84C1300.39,5369.67 1300.44,5369.73 1299.74,5370.34C1299.74,5370.34 1296.34,5373.44 1294.04,5375.49C1286.04,5382.63 1278.39,5390.21 1271.93,5398.8C1270.4,5400.84 1269.08,5403.07 1267.85,5405.3C1267.85,5405.3 1265.55,5408.94 1263.95,5411.98C1263.03,5413.73 1261.84,5416.32 1261.84,5416.32C1260.85,5418.78 1259.85,5421.27 1259.33,5423.87C1258.79,5426.55 1258.56,5430.48 1257.61,5433.88C1252.67,5452.14 1255.03,5471.63 1258.6,5490.71C1264.82,5493.43 1271.09,5495.98 1277.45,5498.24C1298.44,5505.72 1321.17,5507.22 1343.54,5507.55C1373.56,5508.01 1404.55,5506.91 1432.01,5494.59C1447,5487.86 1461.31,5479.67 1477.73,5477.24C1500.12,5473.93 1522.98,5476.93 1545.63,5474.31C1557.76,5472.91 1569.07,5467.45 1580.55,5462.31C1607.51,5450.22 1634.59,5436.73 1657.32,5418.92C1660.58,5416.37 1663.89,5413.75 1666.2,5410.42C1666.2,5410.42 1668.46,5408.97 1668.46,5408.97C1669.33,5409.16 1670.2,5409.35 1671.07,5409.54C1671.07,5409.54 1672.52,5411.8 1672.52,5411.8L1671.96,5414.4C1669.48,5417.96 1666.26,5420.92 1662.77,5423.65C1690.79,5414.77 1721.58,5416.67 1749.84,5405.31C1770.1,5397.16 1784.96,5379.88 1803.72,5368.92C1810.66,5364.86 1818.4,5362.31 1826.49,5361.29C1835.76,5360.12 1845.77,5361.09 1853.6,5354.91C1858.36,5351.15 1861.38,5345.66 1864.1,5340.38C1866.44,5335.83 1868.93,5331.01 1868.6,5326C1868.53,5324.99 1868.64,5324.93 1868.61,5324.46C1868.42,5321.52 1867.09,5318.75 1865.53,5316.21L1865.5,5316.16C1864.34,5314.5 1862.52,5312.27 1862.52,5312.27C1861.95,5311.63 1861.36,5311 1860.76,5310.39C1860.59,5310.22 1860.42,5310.05 1860.26,5309.88C1859.42,5309.03 1859.13,5308.76 1856.62,5307.37C1856.62,5307.37 1854.86,5305.98 1854.86,5305.98C1849.03,5299.7 1843.64,5292.93 1842.02,5284.23C1840.01,5273.49 1843.12,5261.06 1832.34,5254.97L1831.08,5253.76C1826.76,5254.07 1822.45,5254.6 1818.16,5255.55C1783.53,5263.28 1750.3,5277.71 1716.25,5286.88C1697.4,5291.95 1677.77,5295.92 1660.54,5304.41C1660.55,5304.47 1660.56,5304.51 1660.55,5304.53L1659.89,5305.41C1659.89,5305.41 1658.72,5305.64 1658.72,5305.64L1658.28,5305.57C1649.51,5310.16 1641.41,5316.02 1634.43,5323.92C1634.43,5323.92 1633.31,5324.47 1633.31,5324.47C1633.31,5324.47 1632.12,5324.06 1632.12,5324.06L1631.58,5322.95L1631.97,5321.77C1638.02,5314.86 1645.18,5309.38 1652.99,5304.88C1652.22,5304.79 1651.62,5304.73 1650.12,5304.65C1650.12,5304.65 1642.6,5303.23 1636.02,5301.94C1622.72,5299.34 1609.12,5297.74 1595.77,5299.43L1595.55,5299.46C1587.1,5300.77 1578.89,5303.21 1570.65,5305.73C1553.44,5311.01 1535.27,5315.31 1517.78,5317.03C1480.52,5320.68 1443.1,5324.08 1405.81,5324.8C1402.36,5324.86 1398.92,5324.89 1395.48,5324.89L1393.82,5324.89L1393.42,5323.72L1392.4,5322.88L1390.94,5321.43C1392.13,5320.23 1392.11,5320.21 1393.41,5319.13L1393.81,5317.97C1438.08,5317.59 1481.51,5313.66 1525.55,5309.23C1540.13,5307.72 1554.05,5303.15 1568.18,5299.15C1568.18,5299.15 1570.77,5298.47 1573.5,5297.81L1574.01,5297.68C1580.77,5296.13 1587.6,5294.81 1594.49,5294.09C1598.82,5293.65 1603.19,5293.28 1607.58,5293.28C1621.2,5293.34 1634.74,5295.97 1648.04,5298.91C1648.04,5298.91 1650.69,5299.76 1650.69,5299.76L1652.42,5300.43L1655.9,5301.62L1657.63,5302.2L1657.83,5302.26C1675.72,5293.11 1696.34,5288.41 1714.53,5283.33C1716.06,5272.37 1718.76,5261.85 1716.09,5251.2C1711.41,5232.52 1698.18,5217.41 1689.58,5200.77C1681.63,5185.44 1672.39,5171.13 1660.75,5157.94C1650.28,5146.07 1638.88,5135.26 1629.49,5121.84C1625.71,5116.49 1621.21,5111.72 1616.77,5107.02L1616.63,5106.87C1607.47,5097.71 1597.14,5089.98 1585.99,5082.99C1585.99,5082.99 1577.79,5077.54 1571.56,5073.31C1567.21,5070.35 1562.9,5067.33 1558.73,5064.1L1558.36,5063.65C1546.08,5061.45 1533.2,5063.26 1520.37,5064.81C1509.94,5066.06 1499.51,5067.46 1489.86,5072C1479.42,5076.9 1469.67,5082.31 1457.81,5086.34C1423.2,5098.09 1386.31,5105.52 1357.76,5127.8C1357.76,5127.8 1356.32,5128.18 1356.32,5128.18C1353.08,5130.07 1350.13,5132.43 1347.35,5135.01C1355.36,5134.5 1363.4,5134.03 1371.21,5134.05C1375.61,5134.08 1380,5134.27 1384.38,5134.71C1384.38,5134.71 1385.92,5135.31 1385.92,5135.31C1386.5,5135.64 1387.46,5135.93 1387.46,5135.93L1388.5,5136.61C1388.5,5136.61 1388.85,5137.63 1388.85,5137.63C1388.85,5137.63 1386.47,5139.03 1386.47,5139.03C1385.52,5139.18 1386.45,5139.72 1382.75,5139.49C1374.72,5139.02 1366.68,5139.42 1358.69,5140.21L1358.48,5140.23C1354.35,5140.75 1350.24,5141.39 1346.12,5142.05L1345.59,5142.13C1329.64,5143.92 1313.74,5145.07 1297.53,5145.18C1270.32,5145.4 1242.58,5145.81 1216.57,5152.14C1216.2,5152.57 1215.87,5153.01 1215.87,5153.01C1214.16,5153.31 1212.44,5153.55 1210.72,5153.72C1191.44,5159.59 1174.42,5171.69 1155.88,5180.34C1155.88,5180.34 1151.81,5182.13 1151.81,5182.13C1149.98,5182.88 1147.6,5183.85 1147.6,5183.85C1146.52,5184.27 1145.45,5184.69 1144.37,5185.1L1142.45,5185.86C1139.91,5186.87 1136.7,5188.17 1136.7,5188.17C1133.54,5189.46 1130.39,5190.81 1127.26,5192.22L1126.93,5192.36C1123.5,5194.01 1120.09,5195.7 1116.73,5197.48C1111.77,5200.11 1106.89,5202.88 1102.09,5205.92C1102.09,5205.92 1100.88,5206.14 1100.88,5206.14C1100.88,5206.14 1099.88,5205.47 1099.88,5205.47L1099.66,5204.3C1101.49,5201.48 1102.85,5201.5 1104.67,5200.34C1105.26,5199.96 1105.85,5199.59 1106.44,5199.22C1112.17,5195.65 1118.16,5192.49 1124.2,5189.47L1125.27,5188.94C1128.13,5187.45 1131.01,5185.98 1133.87,5184.5C1139.98,5181.34 1146.05,5178.1 1152.22,5175.01C1152.22,5175.01 1156.11,5173.14 1159.5,5171.43C1170.38,5165.91 1180.86,5159.51 1191.79,5154.19C1180.19,5154.03 1168.8,5153.9 1158.47,5158.42C1145.64,5164.03 1135.94,5175.04 1124,5181.53C1121.31,5182.99 1118.55,5184.32 1115.75,5185.57C1115.75,5185.57 1112.85,5186.56 1110.79,5187.19C1109.09,5187.67 1106.71,5188.33 1106.71,5188.33C1101.72,5190.1 1096.64,5191.66 1091.54,5193.14C1091.54,5193.14 1091.04,5193.23 1089.77,5193.47L1088.87,5193.33C1093.62,5199.77 1096.23,5208.44 1097.6,5215.78C1099.99,5228.57 1101.44,5242.07 1111.21,5251.23C1115.04,5254.81 1119.86,5257.23 1124.87,5258.75C1124.87,5258.75 1126.94,5260.46 1126.94,5260.46C1126.94,5260.46 1127.24,5263 1127.2,5263.13L1125.5,5265.19L1122.85,5265.45C1112.71,5262.37 1103.81,5255.81 1098.71,5246.04C1091.9,5232.99 1092.2,5217.17 1087.62,5204.29C1085.6,5198.62 1081.56,5193.3 1075.65,5191.37C1075.5,5191.29 1075.36,5191.21 1075.21,5191.13C1073.93,5190.44 1072.13,5189.72 1072.13,5189.72C1070.72,5189.36 1069.29,5189.12 1067.85,5188.98C1070.98,5191.97 1073.24,5196.13 1074.18,5201.06C1074.95,5205.16 1075.06,5208.97 1074.32,5213.54C1074.32,5213.54 1073.83,5215.65 1073.58,5215.83C1073.01,5216.26 1072.86,5216.33 1072.86,5216.33L1071.79,5217.03C1071.53,5217.28 1071.13,5217.82 1071.13,5217.82L1069.22,5218.78C1069.22,5218.78 1068.28,5216.56 1068.28,5216.56C1068.22,5215.84 1068.14,5215.85 1068.14,5215.85L1067.89,5215.2C1067.47,5214.59 1067.42,5214.46 1067.42,5214.46C1067.42,5214.46 1067.18,5213.51 1067.18,5213.5C1067.57,5212.08 1067.26,5213.26 1068.08,5210.07C1068.22,5209.49 1068.35,5208.91 1068.47,5208.33C1069.85,5201.37 1069.42,5192.73 1062.65,5188.84C1059.45,5188.97 1056.26,5189.44 1053.16,5190.02L1052.73,5189.79L1052.13,5186.76L1052.33,5186.4C1052.75,5186.32 1053.17,5186.24 1053.59,5186.15C1054.17,5186.04 1054.76,5185.94 1055.34,5185.84L1055.17,5185.27C1055.17,5185.27 1055.69,5183.83 1056.84,5183.93C1058.49,5184.08 1060.09,5184.45 1061.6,5185.02C1065.71,5184.65 1069.84,5184.59 1074.05,5184.61C1075.57,5184.63 1077.73,5184.92 1077.73,5184.92C1081.61,5186.15 1084.8,5188.5 1087.41,5191.51L1087.51,5190.75L1089.19,5189.5C1089.7,5189.27 1089.7,5189.27 1090.21,5189.05C1095.11,5187.48 1099.96,5185.8 1104.73,5183.91C1104.73,5183.91 1107.52,5182.52 1109.43,5181.5C1119.47,5176.07 1128.92,5170.3 1138.46,5162.92C1147.31,5156.1 1157.24,5150.19 1168.41,5148.33C1182.11,5146.05 1196.3,5148.29 1210.28,5146.74C1212.12,5146.18 1213.98,5145.68 1215.87,5145.23C1217.8,5144.78 1219.74,5144.35 1221.69,5143.96C1250.55,5138.09 1280.28,5138.35 1309.79,5138.11C1320.22,5137.98 1330.66,5136.79 1341.07,5135.6C1344.76,5131.64 1348.77,5127.93 1352.4,5124.04L1353.03,5122.75C1356.74,5119.23 1361.37,5116.49 1365.88,5113.72C1395.96,5095.21 1432.36,5088.88 1465.19,5076.29C1476.58,5071.92 1486.64,5064.32 1498.6,5061.39C1514.43,5057.52 1530.81,5056.05 1547.13,5055.98C1547.51,5055.98 1547.88,5055.99 1548.26,5055.99C1552.18,5056.02 1556.12,5056.13 1559.96,5056.83C1560.04,5056.78 1560.12,5056.76 1560.21,5056.78C1561.91,5057.15 1563.64,5057.4 1565.37,5057.6C1565.37,5057.6 1572.81,5058.88 1579.07,5059.02C1587.84,5059.21 1596.69,5058.25 1605.31,5059.48L1606.4,5060.35C1608.34,5060.09 1610.46,5059.68 1612.48,5059.05C1612.48,5059.05 1617.23,5056.65 1619.67,5055.44C1628.94,5050.82 1637.22,5044.46 1645.09,5038.09C1645.09,5038.09 1647.41,5036.28 1648.46,5035.53C1648.89,5035.22 1649.33,5034.92 1649.76,5034.61C1662.86,5025.45 1677.28,5017.69 1693.5,5016.9C1709.81,5012.42 1727.18,5014.97 1744.29,5016.56C1752.71,5017.35 1761.29,5017.06 1769.47,5014.95C1778.55,5012.62 1787.01,5008.4 1794.92,5003.44C1797.27,4997.34 1801.27,4991.93 1806.64,4987.98C1815.11,4981.75 1824.9,4977.45 1832.82,4970.47C1853.93,4951.96 1876.56,4934.98 1899.85,4919.32C1909.64,4912.73 1919.38,4905.51 1930.64,4902.15C1939.64,4899.47 1949.16,4900.12 1958.42,4899.4C1963.26,4896.89 1968.35,4894.69 1973.27,4892.53C1986.88,4886.5 1997.96,4876.42 2010.55,4868.52C2033.76,4853.94 2059.7,4843.83 2086.62,4838.2C2138.38,4827.37 2192.05,4831.25 2243.75,4825.87C2272.25,4822.91 2300.4,4817.45 2328.84,4813.59C2363.83,4808.65 2394.1,4786.04 2430.3,4783.87C2431.86,4783.78 2433.41,4783.73 2434.98,4783.74C2441.93,4783.78 2448.86,4784.91 2455.32,4787.48C2455.32,4787.48 2456.11,4788.25 2456.11,4788.25C2456.11,4788.25 2456.12,4789.35 2456.12,4789.35L2456.03,4789.44C2457.88,4790.7 2459.61,4792.22 2461.21,4793.89C2469.34,4779.71 2480.36,4767.53 2491.79,4755.88C2491.79,4755.88 2494.47,4752.99 2494.47,4752.99L2496.43,4750.78C2498.45,4748.59 2497.82,4749.33 2501.5,4745.2L2505.4,4740.29L2507.18,4738.12C2507.66,4737.62 2508.14,4737.11 2508.63,4736.61C2514.89,4730.06 2521.07,4723.31 2526.64,4716.13ZM1011.34,5458.69C1011.34,5458.69 1012.14,5459.64 1012.14,5459.64L1012,5460.85L1011.02,5461.68C992.701,5468.11 970.873,5466.92 950.397,5466.58C932.708,5466.3 914.474,5466.59 898.058,5472.4C896.647,5472.9 896.223,5472.96 896.223,5472.96L894.527,5472.97C894.527,5472.97 893.7,5472.16 893.7,5472.16L893.755,5471.02L895.007,5469.87C896.1,5469.24 896.188,5469.29 896.693,5469.1C928.88,5456.74 966.209,5467.42 1001.2,5460.52C1003.14,5460.14 1005.07,5459.71 1006.98,5459.22C1006.98,5459.22 1008.55,5458.91 1010.07,5458.53C1010.07,5458.53 1010.83,5458.62 1011.34,5458.69ZM855.225,5414.6C855.657,5414.61 856.09,5414.62 856.521,5414.64C857.023,5414.67 857.525,5414.7 858.026,5414.75C874.899,5416.28 889.888,5427.14 904.307,5436.05C912.911,5441.34 921.639,5446.55 931.565,5449.26C931.895,5449.35 931.329,5449.19 932.498,5449.57C934.23,5450.14 935.999,5450.58 937.795,5450.89L938.001,5450.92L939.512,5451.8C939.512,5451.8 940.027,5453.3 940.016,5453.41L939.196,5454.86L937.539,5455.41C935.875,5455.33 934.217,5455.18 932.567,5454.95C923.662,5453.73 915.343,5449.16 907.666,5444.64C891.261,5434.99 876.195,5421.51 856.963,5419.75C848.4,5418.97 843.405,5420.29 837.038,5423.46C837.038,5423.46 834.36,5422.74 834.36,5422.74C834.36,5422.74 835.146,5420.11 835.146,5420.11C841.211,5416.58 848.245,5414.57 855.225,5414.6ZM1206.31,5285.65C1202.58,5282.85 1198.63,5280.34 1194.49,5278.2L1194.41,5278.16C1191.96,5277.06 1189.42,5275.9 1186.86,5275.83C1186.8,5275.86 1186.75,5275.88 1186.7,5275.9C1174.54,5281.59 1167.72,5294.81 1161.82,5306.38C1160.29,5309.36 1158.81,5312.37 1157.32,5315.36C1156.93,5316.13 1156.55,5316.9 1156.16,5317.66C1145.04,5339.52 1130.75,5359.58 1120.65,5382.54C1113.08,5399.57 1102.66,5415.44 1084.98,5423.6L1084.95,5423.61C1083.1,5424.21 1081.23,5424.76 1079.36,5425.32L1078.26,5425.65C1073.48,5427.11 1068.79,5428.91 1064.46,5431.42C1062.64,5432.47 1060.9,5433.67 1059.23,5434.97C1059.54,5435.69 1059.81,5436.42 1060.05,5437.17C1060.05,5437.17 1059.81,5439.84 1059.81,5439.84C1059.81,5439.84 1057.76,5441.57 1057.76,5441.57L1055.1,5441.33L1053.79,5439.78C1052.98,5440.59 1052.19,5441.42 1051.41,5442.27C1051.41,5442.27 1052.68,5444.01 1054.2,5445.28C1054.2,5445.28 1056.05,5447.02 1058.75,5448.48C1068.71,5453.9 1080.58,5455.04 1092.15,5454.32L1092.32,5454.31C1100.73,5453.48 1109.32,5451.88 1116.26,5447.68C1131.59,5438.33 1145.67,5426.76 1155.61,5412.02C1167.63,5394.19 1176.53,5374.57 1192.42,5357.68C1201.92,5347.58 1214.04,5339.77 1222.12,5328.34C1224.96,5324.32 1227.52,5319.79 1227.64,5314.89C1227.83,5307.03 1221.92,5299.96 1215.94,5294C1214.56,5292.62 1213.14,5291.29 1211.68,5290.01C1211.12,5290.63 1210.56,5291.25 1210.01,5291.88C1210.01,5291.88 1208.65,5291.86 1208.65,5291.86L1205.01,5288.67L1204.83,5287.31C1205.32,5286.76 1205.82,5286.2 1206.31,5285.65ZM895.263,5348.31C909.43,5348.46 920.193,5361.81 929.297,5372.89C929.297,5372.89 931.798,5376.24 933.054,5377.96C933.91,5379.13 935.17,5380.76 935.17,5380.76C935.992,5382.25 937.553,5384.58 937.553,5384.58C938.132,5385.81 938.275,5385.75 938.275,5385.75L938.712,5386.94C938.712,5386.94 938.437,5387.94 938.379,5388L937.361,5388.4L936.138,5388.05C935.376,5387.55 936.062,5387.69 934.477,5387.2C933.063,5386.13 930.939,5384.64 930.939,5384.64C929.483,5383.26 927.54,5381.31 927.54,5381.31C927.105,5380.85 926.673,5380.4 926.242,5379.94C925.231,5378.87 923.948,5377.41 923.948,5377.41C917.767,5369.76 911.901,5361.34 903.437,5356.84C897.628,5353.76 890.519,5354.14 884.281,5356.85C884.281,5356.85 882.38,5356.79 882.38,5356.79C882.215,5356.82 881.838,5356.89 881.838,5356.89L879.563,5356.23L880.218,5353.96C880.723,5353.45 880.266,5354.52 881.86,5351.89C881.86,5351.89 884.783,5350.42 886.359,5349.87C889.224,5348.88 892.266,5348.3 895.263,5348.31ZM1094.63,5299.13L1094.65,5299.14L1096.12,5301.36L1095.6,5303.97C1090.39,5311.69 1081.4,5318.06 1076.26,5326.75C1067.79,5341.08 1063.43,5358.1 1050.57,5369.29C1050.57,5369.29 1049.5,5369.65 1049.5,5369.65C1049.5,5369.65 1048.47,5369.14 1048.47,5369.14L1048.12,5368.08C1048.78,5366.71 1049.33,5366.43 1049.82,5365.96C1062.33,5353.98 1065.93,5335.07 1074.81,5320.66C1079.25,5313.44 1085.41,5307.45 1089.79,5300.06C1089.79,5300.06 1092.02,5298.6 1092.02,5298.6C1092.89,5298.77 1093.76,5298.95 1094.63,5299.13ZM1345.78,5325.25C1345.78,5325.25 1346.1,5326.32 1346.1,5326.32C1345.23,5328 1344.2,5328.51 1343.25,5329.31C1332.82,5338.11 1322.6,5347.06 1314.94,5358.14C1314.67,5358.51 1314.27,5359.07 1314.27,5359.07L1313.34,5359.67C1313.34,5359.67 1312.26,5359.46 1312.26,5359.46L1311.66,5358.55L1311.86,5357.46C1312.13,5357.04 1312.5,5356.46 1312.5,5356.46C1320.2,5345.24 1330.53,5336.01 1341,5327.27C1341,5327.27 1343.72,5325.07 1343.72,5325.07L1344.8,5324.75C1345.13,5324.91 1345.45,5325.08 1345.78,5325.25ZM1803.85,5288.58C1806.43,5292.37 1808.79,5296.29 1810.49,5300.92C1810.49,5300.92 1812.4,5308.42 1812.63,5313.02C1813.19,5324.41 1810.77,5335.86 1809.37,5347.12C1809.37,5347.12 1808.65,5348.43 1808.65,5348.43C1808.65,5348.43 1807.23,5348.86 1807.23,5348.86L1805.95,5348.15L1805.51,5346.74C1806.49,5334.32 1808.13,5321.71 1805.55,5309.53C1804.19,5303.12 1802.41,5296.7 1799.69,5290.98C1799.69,5290.98 1799.52,5289.11 1799.52,5289.11C1799.52,5289.11 1800.48,5287.73 1800.57,5287.68L1802.33,5287.49C1802.84,5287.85 1803.34,5288.21 1803.85,5288.58ZM1026.8,5309.02C1027.88,5309.2 1027.91,5308.87 1028.64,5309.6C1030.32,5311.3 1031.74,5313.31 1032.48,5315.59C1032.48,5315.59 1032.3,5317.58 1032.3,5317.58C1032.3,5317.58 1030.72,5318.86 1030.72,5318.86L1028.71,5318.67L1027.46,5317.13C1026.95,5315.32 1025.3,5314 1024.57,5312.48C1024.57,5312.48 1024.8,5312 1024.49,5311.26L1024.35,5309.07L1026.54,5308.94C1026.63,5308.96 1026.71,5308.99 1026.8,5309.02ZM910.821,5254.09L911.614,5254.82L911.707,5255.94C911.389,5257 911.047,5258.92 911.047,5258.92C910.987,5259.18 910.93,5259.43 910.874,5259.69C910.042,5263.63 909.984,5267.72 910.707,5271.88C911.027,5273.67 910.824,5275.06 910.879,5277.67C910.88,5277.7 910.94,5281.55 911.364,5284.49C912.629,5293.27 918.205,5301.63 927.942,5302.83C927.942,5302.83 929.024,5303.43 929.024,5303.43C929.024,5303.43 929.376,5304.61 929.376,5304.61L928.788,5305.67L927.614,5306.03C920.127,5305.37 913.503,5300.98 909.47,5294.26C906.618,5289.5 905.054,5284.02 904.261,5278.67C903.997,5276.89 903.84,5275.05 903.94,5273.26C904.08,5270.76 905.093,5268.13 905.997,5264.75C906.551,5262.68 906.994,5260.51 907.633,5258.4C907.66,5258.32 908.343,5256.53 908.958,5254.99C908.958,5254.99 909.726,5254.16 909.726,5254.16C909.726,5254.16 910.707,5254.05 910.821,5254.09ZM2612.49,4758.3C2612.13,4759.92 2611.65,4761.79 2611.18,4762.64C2604.03,4775.34 2587.2,4780.06 2576.92,4789.37C2557.97,4806.54 2543.49,4828.78 2521.59,4842.65C2521.22,4842.82 2520.86,4842.99 2520.49,4843.17C2518.15,4844.25 2516.12,4844.58 2513.36,4845.55C2513.36,4845.55 2511.53,4846.29 2509.55,4847.05C2509.55,4847.05 2508.21,4847.05 2508.21,4847.05C2508.21,4847.05 2507.26,4846.16 2507.26,4846.16L2507.25,4844.88L2508.15,4843.9C2509.23,4843.36 2511.41,4842.13 2511.41,4842.13C2512.86,4841.17 2514.17,4840.02 2515.36,4838.74L2517.85,4836.73C2518.11,4836.56 2518.37,4836.4 2518.64,4836.23C2540.64,4821.92 2555.34,4798.41 2574.36,4782.33C2584.49,4773.77 2598.97,4770.19 2605.15,4759.27C2605.15,4759.27 2605.81,4756.81 2606.18,4754.73C2606.18,4754.73 2606.86,4751.62 2607.47,4748.63C2607.47,4748.63 2608.38,4741.68 2608.98,4735.9C2608.98,4735.9 2609.49,4732.39 2609.99,4729.07C2612.43,4712.97 2615.77,4696.79 2615.81,4680.59C2615.82,4679.29 2615.65,4678.88 2615.53,4678.42C2613.32,4670.22 2605.9,4664.22 2598.66,4660.75C2584.96,4654.18 2568.39,4652.57 2554.19,4657.83C2547.51,4660.31 2542.02,4664.66 2539.31,4673.21C2535.57,4685.02 2534.29,4697.5 2531.45,4709.57C2534.06,4705.77 2536.48,4701.85 2538.63,4697.75C2538.63,4697.75 2540.69,4696.04 2540.69,4696.04C2541.58,4696.12 2542.46,4696.2 2543.35,4696.28C2543.35,4696.28 2545.07,4698.34 2545.07,4698.34L2544.83,4701C2536.4,4717.06 2524.7,4730.38 2512.14,4742.82C2512.14,4742.82 2510.46,4744.26 2510.46,4744.26C2509.09,4745.33 2507.5,4746.57 2507.5,4746.57C2506.4,4747.44 2504.9,4748.64 2504.9,4748.64C2503.05,4750.26 2503.05,4750.25 2500.73,4752.33C2499.47,4753.45 2498.54,4754.3 2498.54,4754.3L2496.82,4755.8C2483.9,4767.58 2472.06,4781.02 2463.41,4796.37C2466.74,4800.42 2469.37,4805.01 2471.21,4808.96C2477.29,4821.97 2478.27,4838.32 2466.41,4847.15C2465.61,4847.75 2464.78,4848.31 2463.94,4848.85C2466.53,4849.13 2469.51,4849.41 2472.06,4849.77C2494.47,4852.95 2512.16,4879.22 2522.14,4896.77C2523.44,4899.05 2524.68,4901.36 2525.86,4903.7C2525.86,4903.7 2526.61,4905.4 2526.61,4905.4C2527.21,4906.98 2527.74,4908.59 2528.23,4910.2C2529.12,4913.11 2529.87,4916.06 2530.56,4919.02C2530.56,4919.02 2531.6,4922.8 2532.2,4925.93C2532.48,4927.38 2532.71,4928.84 2532.89,4930.3C2532.89,4930.3 2532.46,4931.89 2532.46,4931.89C2532.46,4931.89 2531.06,4932.73 2531.06,4932.73L2529.5,4932.31C2528.74,4931.07 2528.59,4930.47 2528.35,4929.19C2527.96,4927.17 2527.47,4925.18 2526.9,4923.21C2525.4,4918.04 2522.79,4913.13 2520.29,4908.3C2520.29,4908.3 2519.59,4906.82 2519.59,4906.82C2519.42,4906.41 2519.25,4906.01 2519.08,4905.6C2510.85,4886.55 2499.98,4867.92 2482.04,4856.59C2475.47,4852.45 2467.08,4852.77 2459.46,4851.35C2457.82,4852.18 2456.14,4852.94 2454.45,4853.66L2454.32,4853.72C2450.72,4854.96 2447.04,4855.94 2443.32,4856.77L2443.21,4856.79C2429.2,4859.42 2414.91,4860.01 2400.87,4862.95C2379.34,4867.45 2358.45,4874.83 2336.85,4879.71C2314.73,4884.71 2291.7,4880.56 2269.36,4886.15C2253.56,4890.1 2239.52,4899.27 2223.65,4904.15C2211.8,4907.79 2199.22,4908.51 2187.83,4914.54C2177.68,4919.92 2168.66,4927.51 2157.83,4931.35C2145.66,4935.66 2132.38,4935.14 2120.41,4940.51C2110.35,4945.03 2101.39,4951.89 2091.01,4955.73C2079.59,4959.95 2067.47,4961.35 2055.84,4965.65C2013.73,4981.26 1973.33,5000.17 1934.55,5024.46C1906.41,5042.08 1877.95,5059.63 1854.16,5082.71C1848.97,5087.74 1843.95,5093.08 1840.39,5099.3C1840.39,5099.3 1838.88,5099.39 1838.11,5099.96L1835.64,5100.83C1835.64,5100.83 1834.89,5098.12 1834.89,5098.12C1834.87,5097.17 1834.23,5095.98 1834.23,5095.98C1841.82,5082.56 1854.3,5072.42 1866.75,5062.52C1870.44,5059.58 1874.18,5056.72 1877.96,5053.91C1870.58,5055.48 1863.3,5057.7 1856.15,5059.36C1853.71,5059.92 1851.33,5060.7 1848.94,5061.47C1848.94,5061.47 1844.54,5062.31 1842.19,5062.65C1841.47,5062.76 1840.74,5062.86 1840.01,5062.96C1837.74,5063.28 1834.52,5063.61 1834.52,5063.61C1807.69,5065.31 1780.26,5063.68 1756.36,5076.83C1756.36,5076.83 1753.7,5077.12 1753.7,5077.12C1753.7,5077.12 1751.67,5075.56 1751.6,5075.44L1751.32,5072.79L1752.98,5070.7C1777.15,5057.41 1806.97,5058.26 1833.69,5056.7C1833.69,5056.7 1838.83,5056.58 1841.63,5056.49C1843.72,5056.42 1845.81,5056.35 1847.9,5056.2C1847.9,5056.2 1851.22,5056.32 1854.76,5055.85L1854.84,5055.84C1857.9,5055.25 1860.94,5054.55 1863.97,5053.82C1863.97,5053.82 1867.96,5052.81 1870.75,5052.12C1875.05,5051.08 1879.41,5050.19 1883.81,5049.63C1901.73,5036.73 1920.48,5024.98 1939.28,5013.25C1974.9,4991.07 2013.71,4973.8 2053.41,4959.09C2066.07,4954.4 2079.67,4953.1 2091.49,4948C2102.47,4943.27 2112.09,4935.54 2123.4,4931.83C2135.47,4927.88 2148.56,4928.34 2160.09,4922.82C2170.61,4917.78 2179.7,4909.97 2190.49,4905.57C2202.5,4900.67 2215.72,4900.02 2228.23,4895.12C2243.27,4889.24 2257.48,4881.03 2273.42,4878.17C2294.99,4874.3 2317.24,4877.59 2338.37,4872.23C2364.17,4865.67 2389.59,4856.78 2416.1,4853.57C2428.22,4852.1 2440.39,4851.33 2452.51,4847.97C2459.63,4846.54 2466.92,4843.74 2470.19,4836.79C2475.45,4825.62 2469.66,4811.18 2463.53,4802.22C2460.45,4797.72 2456.74,4793.61 2452.14,4790.72C2451.79,4790.45 2451.23,4790.09 2451.23,4790.09L2450.56,4789.18L2450.6,4788.86C2435.94,4784.43 2419.69,4787.39 2405.58,4791.58C2379.83,4799.21 2355.68,4812.84 2329.26,4816.63C2293.99,4821.49 2259.32,4828.6 2223.99,4830.87C2171.45,4834.25 2117.75,4831.94 2066.89,4847.88C2040.27,4856.23 2015.7,4869.72 1993.71,4887.44C1986.08,4893.6 1976.9,4897.56 1968.04,4901.7L1967.98,4901.98L1966.54,4902.95C1965.92,4903.08 1965.31,4903.19 1964.68,4903.29C1964.56,4903.35 1964.43,4903.41 1964.31,4903.47C1956.33,4907.35 1948.63,4912.39 1943.89,4920.23C1943.89,4920.23 1941.72,4921.79 1941.72,4921.79C1941.72,4921.79 1939.07,4921.36 1939.07,4921.36L1937.52,4919.19L1937.93,4916.56C1940.95,4911.67 1945.12,4907.77 1949.89,4904.47C1942.18,4904.82 1934.52,4905.33 1927.41,4908.64C1915.57,4914.15 1904.8,4922.06 1894.01,4929.83C1873.43,4944.63 1853.73,4960 1834.7,4977.2C1824.94,4985.94 1810.55,4989.45 1803.57,5000.77C1801.29,5004.46 1800.17,5008.78 1799.71,5013.1C1799.71,5013.1 1798.41,5015.44 1798.41,5015.44C1798.41,5015.44 1795.83,5016.18 1795.83,5016.18L1793.5,5014.89L1792.76,5012.33C1792.92,5010.84 1793.18,5009.36 1793.53,5007.92C1779.34,5016.16 1763.69,5021.19 1746.55,5020C1733.36,5019.09 1720.42,5016.84 1707.27,5017.91C1711.97,5018.79 1716.58,5020.17 1721.01,5021.94L1721.53,5023.6L1719.88,5027.59L1718.61,5028.52C1708.45,5024.42 1697.37,5022.72 1686.64,5024.71C1673.71,5027.11 1662.19,5034.28 1651.47,5041.67C1651.47,5041.67 1648.56,5043.51 1646.18,5045.01C1637.85,5050.23 1629.93,5056.19 1620.83,5060.16C1620.83,5060.16 1615.78,5061.55 1612.75,5062.38C1612.28,5062.51 1611.82,5062.63 1611.35,5062.74C1614.24,5064.18 1616.97,5065.83 1619.46,5068.18C1629.46,5077.64 1639.16,5087.36 1648.09,5097.68L1648.19,5097.7L1648.51,5098.17C1653.32,5103.74 1657.89,5109.48 1662.18,5115.46C1667.85,5123.32 1673.87,5130.83 1679.41,5138.73L1679.69,5138.73C1679.69,5138.73 1680.49,5139.54 1680.49,5139.54L1680.48,5140.26C1682.77,5143.58 1684.96,5146.98 1687,5150.5C1689.63,5155.07 1692.15,5159.7 1694.67,5164.33L1696.5,5167.63C1702.31,5176.81 1709.14,5185.67 1713.81,5195.1C1714.92,5197.34 1715.71,5199.81 1716.25,5202.26C1716.25,5202.26 1716.6,5205.64 1716.77,5207.88C1717.87,5222.68 1721.52,5237.49 1721.74,5251.78C1721.77,5253.81 1721.69,5255.84 1721.57,5257.86C1721.57,5257.86 1721.14,5260.6 1721.14,5260.6L1720.96,5260.76C1721.04,5267.96 1719.41,5275.16 1718.32,5282.25L1718.44,5282.21C1751.86,5272.53 1783.53,5258.24 1817.72,5249.96C1833.87,5246.04 1850.88,5248.34 1866.82,5245.3C1874.12,5243.91 1881.17,5241.5 1888.12,5238.91C1888.12,5238.91 1894,5236.89 1897.86,5235.64C1899.02,5235.27 1900.18,5234.89 1901.35,5234.52C1914.24,5230.38 1927.11,5226.44 1939.7,5226.31C1940.01,5226.31 1940.32,5226.31 1940.62,5226.31C1949.02,5226.4 1957.28,5228.62 1964.78,5232.57C1976.43,5238.71 1986,5248.26 1996.78,5255.84C2009.99,5254.06 2020.75,5243.55 2029.91,5234.22C2036.95,5227.09 2044.58,5220.82 2053.86,5216.08C2068.57,5208.58 2084.42,5203.55 2097.25,5192.86C2140.12,5157.14 2173.61,5111.93 2217.18,5076.56C2227.97,5067.8 2239.98,5060.59 2252.72,5055.02C2272.97,5046.17 2294.52,5040.22 2313.58,5028.86C2303.84,5028.69 2294.17,5029.36 2284.76,5031.65C2284.76,5031.65 2282.56,5032.1 2281,5032.51C2281,5032.51 2279.83,5032.36 2279.83,5032.36C2279.83,5032.36 2279.09,5031.47 2279.09,5031.47L2279.22,5030.33C2281.3,5028.57 2282.28,5028.87 2283.6,5028.45L2283.77,5028.4C2295.72,5025.4 2308.16,5025.27 2320.22,5024.93C2320.22,5024.93 2322.32,5024.67 2322.32,5024.67L2323.72,5024.42C2330.35,5023.44 2343.14,5024.23 2354.29,5022.83C2365.7,5021.4 2376.7,5017.35 2386.62,5011.53C2405.98,5000.16 2422.52,4983.56 2444.66,4977.62C2458.8,4973.82 2474.14,4975.89 2487.71,4971.86C2503.75,4967.09 2517.6,4956.39 2530.18,4945.24C2529.84,4942.5 2530.14,4939.62 2530.65,4936.9C2530.65,4936.9 2531.64,4935.37 2531.64,4935.37L2533.4,4934.97L2533.42,4934.97L2534.93,4935.95L2535.34,4937.73C2534.99,4939.78 2534.68,4942.01 2534.87,4944.07L2536.08,4944.65L2536.1,4944.67L2536.97,4947.19L2536.39,4948.39C2536.59,4948.64 2536.81,4948.89 2537.05,4949.12C2540.77,4952.69 2546.8,4951.22 2550.76,4950.48C2560.79,4948.6 2570.32,4944.16 2580.1,4942.05C2586.11,4940.75 2592.21,4939.78 2598.09,4938.08L2598.21,4938.05C2602.12,4936.69 2605.91,4934.92 2609.3,4932.55C2608.1,4933.33 2609.97,4931.65 2611.31,4929.88C2611.31,4929.88 2612.44,4928.52 2613.53,4927.16C2625.45,4912.34 2637.68,4897.32 2647.64,4881.37C2653.21,4872.45 2652.02,4859.49 2659.39,4849.27C2671.65,4832.27 2693.68,4822.79 2701.12,4801.47C2705.13,4789.97 2704.52,4777.16 2702.41,4765.05C2700.28,4752.86 2696.29,4740.77 2688.65,4730.84C2682.86,4723.32 2674.3,4717.54 2664.33,4717.38C2663.75,4717.37 2660.77,4717.25 2657.73,4717.67C2657.73,4717.67 2654.32,4717.77 2651.5,4718.53C2641.57,4721.23 2633.98,4729.32 2627.3,4737.49C2621.92,4744.09 2617.29,4751.27 2612.49,4758.3ZM944.199,5228.05C944.886,5229.02 944.793,5228.72 945.166,5230.09C948.488,5241.86 956.596,5252.47 955.131,5265.35C955.131,5265.35 954.212,5266.9 954.212,5266.9C954.212,5266.9 952.372,5267.32 952.372,5267.32L950.772,5266.34L950.399,5264.58C952.974,5252.84 943.655,5240.46 941.814,5229.67C941.814,5229.67 942.065,5228.48 942.065,5228.48C942.065,5228.48 943.05,5227.81 943.05,5227.81C943.433,5227.89 943.816,5227.97 944.199,5228.05ZM1362.76,5216.96L1363.52,5217.69L1363.52,5217.71L1363.36,5218.76C1363.36,5218.76 1362.41,5219.62 1362.41,5219.62L1361.12,5220.24L1360.07,5220.98C1356.13,5222.41 1352.2,5223.83 1348.3,5225.33C1348.3,5225.33 1343.11,5227.98 1338.85,5230.02C1338.85,5230.02 1335.79,5231.28 1333.24,5232.21C1313.56,5239.45 1294.31,5248.85 1280.33,5264.45C1280.33,5264.45 1279.17,5265.01 1279.17,5265.01C1279.17,5265.01 1277.97,5264.6 1277.97,5264.6L1277.42,5263.46L1277.82,5262.26C1289.67,5248.5 1305.42,5238.66 1321.62,5230.36C1328.53,5226.84 1335.51,5223.85 1342.99,5221.78L1343.72,5221.58C1344.08,5221.48 1344.08,5221.48 1344.46,5221.41L1345.21,5221.29C1346.45,5221.06 1346.75,5221 1346.75,5221C1350.7,5219.7 1354.63,5218.42 1358.6,5217.21C1358.6,5217.21 1360.08,5217.1 1360.08,5217.1C1360.08,5217.1 1361.5,5216.83 1361.5,5216.83C1361.92,5216.87 1362.34,5216.91 1362.76,5216.96ZM1110.85,5223.51C1123.72,5225.28 1135.38,5232.62 1145.87,5240.12C1146.86,5241.13 1148.08,5242.41 1148.08,5242.41C1148.56,5242.79 1149.04,5243.18 1149.52,5243.57C1150.82,5244.62 1152.03,5245.62 1152.03,5245.62C1153.89,5247.24 1154.02,5248.3 1155.3,5249.46C1155.3,5249.46 1155.82,5250.46 1155.82,5250.46C1155.82,5250.46 1155.55,5251.49 1155.55,5251.49L1154.63,5251.99L1152.95,5251.36C1151.84,5250.68 1151.78,5250.31 1149.8,5250.12C1148.22,5249.08 1146.66,5248.01 1145.08,5246.98C1145.08,5246.98 1142.06,5245.55 1142.06,5245.55C1141.55,5245.2 1141.03,5244.85 1140.51,5244.5C1131.02,5238.14 1120.74,5231.94 1110.14,5230.48C1110.04,5230.46 1109.9,5230.44 1109.9,5230.44L1107.6,5229.09C1107.6,5229.09 1106.91,5226.49 1106.91,5226.49L1108.27,5224.19C1109.13,5223.96 1109.97,5223.39 1110.85,5223.51ZM1677.17,5142.83C1676.61,5143.17 1676.19,5143.44 1676.19,5143.44C1675.05,5144.41 1674.05,5145.56 1673.03,5146.69C1673.03,5146.69 1672.24,5148 1672.24,5148C1671.06,5150.37 1669.85,5151.3 1668.75,5152.42C1668.75,5152.42 1666.65,5154.14 1666.65,5154.14C1665.41,5154.61 1666.39,5154.14 1664.4,5154.45C1664.4,5154.45 1663.9,5154.69 1663.19,5155C1667.9,5160.13 1672.44,5165.4 1676.5,5171.09C1686.8,5185.51 1693.83,5202.02 1702.36,5215.94C1707.95,5225.07 1714.01,5234.29 1717.65,5244.1C1716.56,5233.33 1714.29,5222.64 1713.49,5212.3C1713.45,5211.89 1713.4,5211.49 1713.36,5211.08C1712.76,5205.92 1711.38,5202.08 1709.38,5198.4C1709.38,5198.4 1701.92,5186.7 1697.42,5178.86C1696.43,5177.12 1695.3,5174.66 1695.3,5174.66C1694.88,5173.67 1694.8,5173.48 1694.37,5172.49C1689.76,5162.08 1683.76,5152.38 1677.17,5142.83ZM1124.83,5209.3C1137.19,5210.45 1150.37,5210.57 1160.78,5216.65C1167.09,5220.34 1170.91,5227.24 1177.82,5229.86C1191.87,5235.18 1208.29,5233.27 1223.7,5232.19C1223.7,5232.19 1226.12,5233.06 1226.12,5233.06C1226.12,5233.06 1227.21,5235.47 1227.21,5235.47L1226.32,5237.95L1223.99,5239.01C1207.82,5239.27 1191.15,5240.28 1176.16,5234C1169.23,5231.09 1165.12,5223.82 1158.81,5219.95C1149.01,5213.95 1136.33,5213.81 1124.51,5212.58C1124.51,5212.58 1123.4,5211.98 1123.4,5211.98C1123.4,5211.98 1123.03,5210.77 1123.03,5210.77C1123.03,5210.77 1123.59,5209.18 1124.83,5209.3ZM1601.99,5136.58C1602.36,5139.03 1602.39,5139.03 1602.58,5141.49C1602.21,5141.54 1601.84,5141.6 1601.48,5141.65C1584.26,5144 1566.52,5141.53 1549.45,5145.82C1532.52,5150.08 1517.18,5159.41 1502.08,5167.88L1500.63,5168.69C1499.74,5169.18 1498.85,5169.66 1497.95,5170.14C1495.88,5171.25 1493.79,5172.35 1491.68,5173.42C1489.21,5174.67 1486.68,5175.75 1484.09,5176.78C1484.09,5176.78 1481.32,5177.79 1479.42,5178.47C1456.66,5186.59 1433.04,5193.35 1413.07,5206.55C1413.07,5206.55 1411.92,5206.77 1411.92,5206.77C1411.92,5206.77 1410.95,5206.11 1410.95,5206.11L1410.73,5204.97L1411.37,5204.01C1428.13,5192.81 1447.94,5186.78 1466.51,5179.26C1488.95,5170.16 1507.76,5154.75 1530.93,5144.81C1542.24,5139.96 1554.35,5137.04 1566.63,5136.33C1578.06,5135.67 1589.58,5136.26 1600.9,5134.66L1601.54,5134.56C1601.69,5135.24 1601.84,5135.91 1601.99,5136.58ZM1588.71,5111.66C1590.38,5111.67 1592.06,5111.72 1593.74,5111.8C1593.74,5111.8 1596.15,5112.95 1596.15,5112.95C1596.15,5112.95 1597.06,5115.48 1597.06,5115.48L1595.91,5117.89C1594.9,5118.25 1593.41,5118.79 1593.39,5118.79C1593.26,5118.78 1593.12,5118.78 1592.99,5118.77C1592.73,5118.76 1592.47,5118.75 1592.21,5118.74C1560.11,5117.54 1528.67,5131.91 1500.4,5148.75C1486.61,5156.97 1474.53,5168.1 1459.34,5172.84C1445.64,5177.11 1430.13,5175.83 1417.61,5181.85C1416.49,5182.4 1411.39,5184.64 1408.17,5188.81C1407.29,5190.14 1407,5190.7 1406.5,5191.71C1405.02,5194.68 1404.06,5197.88 1403.36,5201.14L1403.34,5201.24C1401.39,5201.39 1401.39,5201.75 1398.56,5200.26C1398.59,5200.09 1398.63,5199.92 1398.66,5199.75C1399.71,5194.9 1401.33,5190.18 1404.03,5186.07C1406.51,5181.77 1410.17,5178.08 1414.55,5175.67C1423.72,5170.61 1436.26,5170.6 1447.5,5168.51C1452.38,5167.61 1457.22,5166.4 1461.82,5164.53C1474.1,5159.51 1484.1,5150.38 1495.45,5143.56C1523.78,5126.53 1554.93,5112.04 1587.45,5111.67C1587.87,5111.66 1588.29,5111.66 1588.71,5111.66ZM2458.1,5184.51L2457.2,5186.35C2456.11,5186.99 2456.47,5188.67 2455.47,5188.8C2436.83,5191.04 2417.62,5188.93 2398.6,5186.69C2390.1,5185.7 2379.78,5182.93 2379.15,5174.48C2378.66,5167.78 2386.21,5162.77 2392.49,5158.77C2406.1,5150.09 2421.06,5142.28 2436.36,5139.27C2439.44,5138.66 2442.54,5138.17 2445.62,5137.58C2445.62,5137.58 2446.9,5136.87 2446.9,5136.87C2448.74,5136.61 2450.55,5136.14 2452.43,5136.11C2452.64,5136.11 2453.6,5136.41 2453.6,5136.41C2454.27,5136.98 2454.26,5136.48 2454.2,5137.78C2454.2,5137.78 2453.71,5138.95 2452,5139.34C2443.04,5141.36 2433.97,5142.39 2425.25,5146.02C2411.25,5151.84 2396.6,5157.66 2386.3,5168.31C2384.26,5170.42 2382.38,5173.02 2383.68,5175.71C2386.06,5180.65 2392.83,5181.18 2397.09,5181.69C2413.98,5183.72 2431.36,5183.1 2449.3,5182.25C2451.16,5182.16 2453.03,5182.1 2454.87,5181.82C2454.87,5181.82 2455.28,5183.58 2456.22,5183.62C2456.22,5183.62 2457.32,5184.78 2458.1,5184.51ZM2583.24,5107.77C2594.01,5110.41 2604.92,5112.31 2615.78,5114.87C2624.33,5116.92 2633.52,5122.05 2633.58,5132.59C2633.66,5146.1 2621.11,5156.86 2612.62,5161.71C2595.23,5171.65 2574.24,5173.13 2554.5,5175.36C2542.87,5176.69 2531.19,5178.27 2520.11,5182.03C2520.11,5182.03 2517.43,5182.24 2517.43,5182.24L2515.08,5181.81C2515.08,5181.81 2513.72,5180.63 2513.72,5180.63L2513.97,5178.85C2514.57,5178.11 2515.47,5177.01 2515.48,5177C2515.7,5176.82 2515.91,5176.65 2516.13,5176.48C2516.58,5176.12 2517.21,5175.62 2517.21,5175.62C2544.67,5166.04 2574.87,5169.58 2600.95,5159.67C2601.25,5159.56 2601.56,5159.45 2601.86,5159.34C2611.66,5155.69 2620.87,5150.48 2626.4,5140.17C2626.64,5139.73 2626.86,5139.28 2627.07,5138.82C2628.86,5134.93 2629.4,5130.06 2626.86,5126.25C2622.37,5119.52 2612,5118.41 2605.14,5116.56C2597.6,5114.57 2589.86,5113.39 2582.3,5111.37C2582.3,5111.37 2581.14,5110.69 2581.14,5110.69L2580.08,5108.85L2581.92,5107.79C2581.92,5107.79 2582.67,5107.63 2583.24,5107.77ZM1646.17,5100.78C1644.34,5101.12 1642.44,5101.36 1642.44,5101.36C1636.26,5102.34 1629.89,5102.63 1626.69,5106.6C1625.9,5107.58 1625.36,5108.85 1624.95,5110.2C1628.72,5114.63 1632.31,5119.21 1635.71,5123.97C1643.01,5134.08 1651.95,5142.97 1660.57,5152.18C1661.31,5151.66 1662.08,5150.97 1662.08,5150.97C1662.44,5150.25 1662.75,5149.16 1662.75,5149.16C1662.89,5149.04 1663.04,5148.92 1663.17,5148.8C1664.76,5147.45 1665.59,5146.73 1666.83,5145.7L1668.1,5144.84C1669.52,5144.2 1671.15,5142.99 1672.62,5141.92C1672.62,5141.92 1674.43,5140.91 1674.43,5140.91C1674.59,5140.81 1674.74,5140.71 1674.89,5140.61C1675.06,5140.51 1675.23,5140.41 1675.4,5140.3C1669.63,5132.08 1663.47,5123.93 1657.44,5115.49C1653.81,5110.45 1650.09,5105.54 1646.17,5100.78ZM2571.5,4979.02C2573.38,4979.03 2575.26,4979.06 2577.14,4979.11C2577.14,4979.11 2579.56,4980.24 2579.56,4980.24C2579.56,4980.24 2580.48,4982.76 2580.48,4982.76L2579.36,4985.18L2576.86,4986.1C2546.95,4984.88 2516.08,4987.78 2488.58,4999.55C2475.74,5005.05 2464.64,5014.92 2451.06,5017.9C2444.65,5019.31 2437.92,5019.66 2432.02,5022.25C2424.87,5025.39 2419,5030.81 2411.84,5034.21C2402.04,5038.87 2391.62,5042.21 2381.42,5045.94C2361.7,5053.04 2339.85,5051.37 2320.7,5059.13C2307.57,5064.44 2297.15,5076.78 2296.2,5091.53C2295.28,5105.67 2301.89,5119.08 2309.31,5130.26C2309.31,5130.26 2309.52,5131.32 2309.52,5131.32C2309.52,5131.32 2308.91,5132.22 2308.91,5132.22L2307.86,5132.42L2306.97,5131.83C2297.33,5117.36 2289.74,5100.54 2294.68,5083.23C2298.28,5070.64 2308.54,5060.44 2321.13,5055.71C2339.9,5048.66 2361.37,5049.69 2380.06,5042.93C2393.56,5037.98 2407.62,5033.8 2419.52,5025.61C2425.45,5021.53 2431.67,5017.81 2438.66,5016.29C2446.62,5014.56 2454.39,5013.5 2462.42,5009.12C2473.1,5003.31 2482.96,4996.55 2494.99,4991.96C2518.82,4982.88 2544.62,4979.13 2570.08,4979.02C2570.55,4979.02 2571.03,4979.02 2571.5,4979.02ZM1572.6,5065.59C1585.85,5074.82 1599.46,5083.54 1611.47,5095.59C1615.27,5099.4 1618.95,5103.32 1622.5,5107.36C1624.25,5103.53 1627.58,5100.37 1632.48,5098.98C1636.26,5097.91 1639.74,5098.08 1643.67,5097.8C1637.9,5091.04 1631.71,5084.64 1624.88,5078.73C1619.79,5074.34 1616.8,5069.51 1610.99,5066.79C1609.33,5066.02 1607.54,5065.67 1605.76,5065.79C1605.76,5065.79 1604.31,5066.41 1604.31,5066.41C1594.26,5064.85 1583.41,5066.38 1572.6,5065.59ZM2623.2,4995.97C2633.13,4996.06 2643.77,4997.93 2650.7,5005.21C2658,5012.88 2655.02,5026.46 2650.16,5034.5C2646.11,5041.19 2640.4,5046.7 2632.99,5049.74C2605.97,5060.84 2574.56,5057.23 2548.97,5069.49C2548.97,5069.49 2544.72,5071.23 2541.29,5072.78C2541.29,5072.78 2535.32,5075.42 2532.05,5076.98C2522.82,5081.32 2512.81,5084.23 2502.72,5083.07C2502.72,5083.07 2500.45,5082.7 2500.45,5082.7L2499.49,5082.13C2499.49,5082.13 2499.17,5081.18 2499.18,5081.09L2499.72,5080.17L2501.35,5079.88C2502.49,5079.93 2503.64,5079.95 2504.79,5079.93C2506.09,5079.91 2506.83,5079.88 2507.55,5079.86C2516.45,5079.53 2524.98,5075.96 2532.74,5071.51C2535.17,5070.12 2538.22,5067.93 2538.22,5067.93C2540.62,5066.39 2543.03,5064.86 2545.49,5063.42L2545.67,5063.32C2571.65,5050.73 2603.31,5054.48 2630.61,5043.15C2640.18,5039.18 2647.34,5029.41 2648.36,5019.39C2648.94,5013.67 2645.34,5008.34 2638.16,5005.53C2627.59,5001.4 2615.62,5002.8 2604.24,5005.1C2591.55,5007.66 2579.24,5012.5 2566.62,5014.42C2554.76,5016.22 2542.7,5014.88 2531.56,5019.77C2511.23,5028.7 2493.45,5042.61 2472.67,5050.12C2472.67,5050.12 2469.88,5050.96 2467.93,5051.46C2450.39,5055.96 2432.02,5052.36 2414.02,5056C2400.94,5058.65 2390.4,5069.01 2377.88,5074.12C2376.19,5074.81 2373.96,5075.25 2373.96,5075.25L2372.82,5075.09C2372.82,5075.09 2372.1,5074.24 2372.1,5074.24L2372.23,5073.16L2373.09,5072.4C2374.32,5071.93 2373.22,5072.19 2375.75,5071.21C2388.65,5066.12 2398.54,5055.58 2413.23,5052.33C2424.85,5049.77 2436.96,5050.31 2448.79,5049.18C2456.05,5048.49 2463.19,5046.51 2469.79,5043.8C2469.79,5043.8 2472.9,5042.65 2475.37,5041.62C2495.16,5033.36 2511.93,5019.58 2532.22,5011.92C2544.6,5007.24 2558.7,5009.44 2571.63,5006.23C2588.26,5002.09 2604.67,4996.22 2621.9,4995.98C2622.33,4995.97 2622.76,4995.97 2623.2,4995.97ZM2691.01,4752.9C2691.01,4752.9 2691.87,4753.96 2691.87,4753.96C2691.74,4755.15 2691.5,4755.7 2691.13,4756.46C2687.84,4763.34 2688.28,4771.1 2688.65,4779.08L2688.66,4779.2C2688.68,4787.72 2686.74,4795.96 2680.53,4803.44C2671.41,4814.41 2658.24,4820.74 2648.62,4831.42C2647.48,4832.69 2646.35,4833.97 2645.23,4835.26C2640.96,4840.2 2636.87,4845.32 2632.85,4850.49L2632.24,4851.28C2619.6,4867.63 2607.01,4884.59 2588.86,4893.77C2577.24,4899.64 2564.2,4902.41 2551.28,4903.69C2551.28,4903.69 2550.13,4903.34 2550.13,4903.34C2550.13,4903.34 2549.56,4902.28 2549.56,4902.28L2549.91,4901.15L2550.95,4900.58C2569.37,4898.64 2587.72,4893.06 2601.82,4880.67C2619.8,4864.88 2631.26,4842.76 2646.41,4825.35C2653.96,4816.67 2664.03,4810.39 2672.17,4802.16C2676.45,4798.05 2680.6,4793.55 2682.37,4787.69C2686.07,4775.5 2683.24,4763.31 2688.61,4753.61C2688.61,4753.61 2689.67,4752.76 2689.67,4752.76C2690.12,4752.8 2690.56,4752.85 2691.01,4752.9Z"/>
    </g>
</svg>
