<?xml version="1.0" encoding="UTF-8" standalone="no"?>
<!DOCTYPE svg PUBLIC "-//W3C//DTD SVG 1.1//EN" "http://www.w3.org/Graphics/SVG/1.1/DTD/svg11.dtd">
<svg width="100%" height="100%" viewBox="0 0 554 640" version="1.1" xmlns="http://www.w3.org/2000/svg" xmlns:xlink="http://www.w3.org/1999/xlink" xml:space="preserve" xmlns:serif="http://www.serif.com/" style="fill-rule:evenodd;clip-rule:evenodd;stroke-linejoin:round;stroke-miterlimit:2;">
    <g transform="matrix(1,0,0,1,-309.703,-13.122)">
        <path d="M535.398,120.051C526.081,100.087 523.436,76.353 534.424,56.43C539.828,46.631 547.969,38.427 556.493,31.478C569.829,20.605 586.252,13.237 603.812,13.122C603.989,13.122 604.166,13.122 604.343,13.122C620.664,13.209 637.076,18.74 649.755,29.063C649.879,29.031 650.028,29.023 650.207,29.047C650.757,29.215 650.296,28.922 651.28,29.846C652.288,30.792 653.267,31.769 654.215,32.773L670.476,17.782C670.476,17.782 671.185,17.464 672.273,17.473C679.711,17.64 686.744,22.151 694.055,25.979C704.45,31.423 714.511,37.478 724.987,43.065C724.987,43.065 726.423,44.045 727.852,45.078C744.003,56.684 761.055,66.795 778.517,76.732C779.114,77.072 779.717,77.404 780.322,77.732C780.624,77.895 780.925,78.06 781.227,78.223C804.541,90.964 828.17,105.951 843.315,127.018C848.584,134.347 853.298,142.978 852.975,151.341C852.95,151.993 852.958,152.299 852.641,152.661C850.074,155.15 847.501,157.636 844.921,160.12C847.551,165.131 849.488,170.818 848.777,176.116C848.601,177.201 848.091,177.551 847.673,178.123C844.306,182.733 840.252,186.835 836.331,191.045C790.777,239.949 742.609,286.505 693.892,332.277C685.196,340.447 676.85,349.408 667.325,356.071C667.023,356.283 666.713,356.491 666.38,356.653C666.029,357.369 665.472,357.983 664.66,358.402C660.893,360.346 656.14,356.999 652.079,354.114C649.006,351.932 646.106,349.515 643.19,347.13L642.528,346.591L643.472,345.409C648.926,349.679 653.965,354.928 660.783,356.777C660.95,356.823 661.119,356.864 661.289,356.899C663.199,357.294 665.691,355.683 664.754,352.837C662.528,346.084 656.08,340.926 650.172,336.115C650.025,336.072 649.877,336.022 649.727,335.966C642.446,346.002 636.198,356.825 629.605,367.416C613.786,392.824 598.347,418.489 583.337,444.28C561.011,482.641 556.611,541.429 578.397,587.523C580.628,592.243 582.978,597.181 586.286,600.783C599.863,615.475 617.461,626.328 636.707,631.393C687.672,644.807 744.485,620.012 769.049,573.277C770.931,569.698 772.674,566.014 773.916,562.193C774.141,561.503 775.195,557.271 775.934,553.425C779.45,535.139 781.679,516.644 783.916,498.16L783.959,497.804C782.827,497.986 781.711,498.196 780.621,498.418C779.265,498.652 777.911,497.902 777.237,496.753C774.65,497.047 772.036,497.444 769.461,497.54C769.364,498.235 769.073,498.893 768.486,499.277C767.941,499.634 767.275,499.719 766.63,499.644C766.456,499.842 766.073,500.039 765.294,500.166C752.478,502.185 739.255,500.805 726.462,499.994C725.529,499.918 725.2,499.816 724.595,499.599C720.342,498.071 719.014,492.374 718.311,487.405C717.056,478.536 718.383,469.369 722.028,461.167C722.145,460.904 722.276,460.647 722.421,460.397C723.844,457.948 726.615,456.28 729.504,456.438C742.203,457.119 754.594,461.184 767.005,462.999C767.005,462.999 767.777,463.052 767.873,463.785C768.647,464.249 769.314,465.176 769.464,465.78C772.999,465.953 776.535,466.124 780.07,466.29L780.004,460.352L780.002,460.132C777.893,458.738 776.264,456.545 776.299,453.906C776.312,452.925 776.525,451.969 776.862,451.054C776.579,450.995 776.231,450.836 775.897,450.453C771.932,445.917 769.919,439.609 767.842,433.479C750.869,383.387 764.34,325.517 795.137,283.832C800.664,276.351 809.791,271.224 819.82,271.083C820.145,271.08 820.144,271.08 820.469,271.081C828.434,271.148 836.046,272.637 842.554,277.664C856.371,288.336 861.416,307.445 863.009,325.878C863.593,332.641 863.695,339.437 863.495,346.219C863.495,346.219 863.823,353.43 863.296,359.765C860.953,387.948 854.244,416.731 839.37,439.825C834.981,446.64 829.646,452.912 822.97,457.555C822.97,457.555 822.772,457.843 822.36,457.914C822.443,461.297 820.194,464.79 815.657,464.986C814.927,465.018 814.669,464.981 814.211,464.594C814.217,467.695 813.51,470.925 813.052,474.176C811.937,482.091 810.553,489.965 808.877,497.78L808.619,498.9C807.736,501.378 805.173,501.456 801.96,499.729C798.938,545.071 788.059,591.232 752.72,620.75C744.008,628.027 734.144,633.893 723.938,638.834C691.002,654.781 651.832,658.804 617.552,643.354C604.158,637.318 591.931,628.794 581.225,618.73C580.855,618.383 579.852,617.4 579.774,617.319C579.557,617.094 579.341,616.868 579.126,616.641C558.16,594.53 548.21,564.165 546.978,532.953C546.267,514.926 548.055,496.846 550.852,478.97C552.963,463.306 560.778,448.334 568.287,433.381C570.714,428.55 573.193,423.747 575.722,418.971C547.858,450.184 516.84,479.378 480.182,498.276C452.569,512.512 420.603,518.275 390.036,515.294C368.292,513.173 346.448,505.352 331.577,489.29C308.496,464.361 303.62,424.188 317.24,392.046C327.451,367.95 344.049,346.754 362.137,327.268C377.291,310.942 393.916,296.087 410.976,281.612L411.809,280.904C423.284,270.861 435.26,260.922 446.604,249.649C457.689,238.633 468.555,227.406 479.288,216.06C477.054,214.838 475.064,212.77 472.879,210.972C467.704,206.712 462.66,202.296 457.651,197.842C457.651,197.842 456.738,197.097 457.42,196.363C482.84,173.115 508.457,150.472 533.314,126.654C534.198,125.806 535.345,124.635 535.955,124.007C535.649,122.695 535.437,121.38 535.392,120.061C535.392,120.061 535.394,120.058 535.398,120.051ZM785.883,497.525C783.391,518.709 781.587,540.038 776.325,560.822C775.418,564.404 774.531,566.271 773.537,568.516C758.463,602.568 724.808,627.783 687.204,635.019C650.029,642.786 610.042,629.997 584.328,601.888C584.328,601.888 579.919,595.656 577.106,589.916C556.1,547.04 557.304,494.349 577.481,450.654C580.553,444.002 584.446,437.756 588.169,431.427C607.526,398.523 626.584,365.113 648.294,334C649.162,332.757 650.481,330.993 650.481,330.993C648.771,328.838 647.191,326.534 644.953,325C642.789,323.518 640.145,322.942 637.554,322.341L637.52,322.333C615.626,354.232 595.365,387.392 577.076,421.569C568.148,438.252 558.955,455.186 554.328,473.381C550.149,489.813 549.216,507.352 549.117,523.806C548.916,557.143 557.783,591.484 581.775,616.216C607.216,640.36 641.37,654.244 675.895,650.832C699.352,648.514 721.784,639.103 741.941,626.471L742.435,626.16C753.719,617.788 764.106,608.171 772.053,596.489C791.193,568.351 797.846,533.288 800.123,499.07L800.139,498.823C795.756,496.946 790.737,496.907 785.883,497.525ZM626.234,316.907C609.238,353.306 585.816,385.943 559.438,415.199C528.914,449.052 492.874,477.854 449.402,493.992C425.69,502.794 399.851,504.472 375.043,497.468C356.103,492.121 338.288,479.952 330.1,461.506C320.779,440.508 322.979,415.645 329.782,393.597C337.263,369.349 350.829,347.106 368.39,328.406C383.923,311.863 402.321,298.058 421.59,286.426C429.095,281.837 435.861,276.115 442.711,270.542C460.011,256.469 477.368,242.377 491.855,225.3C493.156,223.767 494.512,222.239 495.521,220.515C495.865,219.927 496.081,216.381 494.228,214.223C492.474,212.181 489.645,211.502 487.099,211.233C487.099,211.233 485.331,213.11 484.151,214.363C465.226,234.408 446.369,254.815 425.263,273.044C413.848,282.903 402.041,292.044 390.829,302.244C363.218,327.362 337.259,354.97 321.416,388.255C309.447,413.403 308.536,443.647 320.604,469.083C327.858,484.372 340.396,496.987 355.812,504.255C379.34,515.348 406.862,515.669 431.646,512.178C474.833,506.093 512.693,478.583 545.243,447.723C557.285,436.307 568.68,424.211 579.59,411.755C596.381,380.812 615.169,351 634.88,321.992C635.131,321.622 635.383,321.253 635.637,320.885C635.711,320.777 635.776,320.675 635.836,320.578C632.862,318.519 629.498,316.863 626.234,316.907ZM782,460L781.996,460.33C781.996,460.33 781.917,466.577 781.917,466.577C782.764,467.338 782.779,467.401 783.08,467.732C785.871,470.794 787.567,475.04 786.361,479.139C785.203,483.073 781.982,486.026 778.752,488.283L778.624,488.371C778.42,490.627 778.185,492.881 778.012,495.141C777.941,496.644 779.468,497.503 781.377,497.021C788.907,495.172 797.258,495.192 803.662,499.355C805.656,500.65 807.214,499.426 807.695,497.004C809.897,485.754 812.756,474.148 812.115,463.025C812.111,462.947 812.106,462.87 812.099,462.793C807.115,458.974 800.621,456.844 795.121,456.238C790.513,455.73 785.546,456.546 781.988,460L782,460ZM728.992,459.417C725.571,459.576 723.883,463.557 722.601,467.587C719.804,476.373 719.03,486.014 722.14,494.752C722.413,495.51 722.556,495.716 722.866,496.138C724.873,498.871 729.281,498.468 733.298,498.785C743.922,499.607 754.635,500.493 765.075,498.813C765.075,498.813 763.874,494.874 763.182,491.561C761.33,482.694 761.623,473.276 765.411,464.993L765.503,464.793C753.515,462.916 741.555,459.709 729.26,459.419C729.11,459.417 729.111,459.413 728.992,459.417ZM511.639,242.546C501.981,262.679 499.934,286.225 499.079,308.9C498.588,321.928 498.722,334.98 499.112,348.007C498.698,357.683 498.815,367.391 497.972,377.032C494.676,414.72 477.861,451.46 445.299,473.71C443.604,474.868 443.118,475.129 443.036,475.175C420.614,487.723 392.274,488.94 369.233,477.576C350.209,468.194 333.47,452.053 329.38,431.28C327.792,423.217 327.831,414.924 328.674,406.659C322.896,433.547 326.146,463.531 348.079,481.556C362.901,493.737 382.551,498.514 400.934,499.474C422.971,500.624 444.708,494.621 465.07,485.144C518.382,460.33 561.188,416.026 594.362,367.398C602.947,354.813 611.097,341.96 618.284,328.508C613.167,326.098 608.734,322.283 604.079,318.769C572.3,294.777 542.213,268.811 511.639,242.546ZM766.178,497.465C766.283,497.848 766.39,498.229 766.5,498.607C766.517,498.61 766.535,498.613 766.552,498.616C767.037,498.694 767.568,498.696 767.959,498.426C768.251,498.224 768.39,497.902 768.452,497.561C767.689,497.564 766.931,497.535 766.178,497.465ZM766.88,466.453C762.753,475.533 763.386,486.142 765.661,495.467C765.838,495.816 766.025,496.162 766.221,496.503C766.221,496.503 771.831,496.161 776.814,495.494C776.795,495.326 776.791,495.155 776.802,494.982L777.347,487.945C777.59,486.355 779.963,485.901 781.865,483.83C785.755,479.597 786.178,472.223 780.465,467.745C780.288,467.608 780.207,467.623 780.164,467.595C775.986,467.23 771.808,466.872 767.63,466.516L766.88,466.453ZM332.814,391.752C329.774,408.067 327.804,425.209 334.092,440.264C340.685,456.046 354.408,468.121 370.348,475.897C392.723,486.812 420.244,485.63 442.257,473.225L442.455,473.113C460.017,461.449 474.413,445.177 483.304,426.221C494.663,402.003 495.789,374.138 496.888,347.993C495.938,317.102 495.881,285.507 504.523,255.646C505.216,253.254 505.94,250.872 506.654,248.486C506.654,248.486 508.238,243.998 509.98,240.559C520.863,219.076 537.458,200.51 553.162,183.265L553.373,183.035C553.373,183.035 550.761,180.349 548.567,178.626C544.995,175.822 540.93,173.397 536.504,173.192C523.084,187.854 512.429,205.185 504.161,222.891C493.972,244.713 487.637,268.476 487.189,292.613L487.182,293.025C486.362,323.425 486.542,353.945 481.971,383.995C478.428,407.283 468.557,429.858 453.109,447.388C438.283,464.212 415.403,474.166 392.384,470.512C371.51,467.198 352.02,453.181 345.837,432.642C339.907,412.941 344.937,390.569 355.259,372.977C367.681,351.806 382.841,331.858 403.668,318.505C430.66,301.198 457.827,283.937 480.53,261.904C484.363,258.185 488.047,254.309 491.19,249.96C492.082,248.725 492.096,247.615 492.444,246.491C494.55,239.767 496.981,233.15 499.736,226.678C498.926,225.414 497.42,224.701 495.81,224.238C490.403,231.562 483.487,237.779 476.743,244.097C461.346,258.521 445.122,272.454 428.304,284.789C420.649,290.403 412.14,294.946 404.287,300.516C372.27,323.225 345.486,353.999 332.814,391.752ZM490.129,254.396C473.876,273.988 451.997,288.524 431.346,302.729C420.892,309.921 409.783,316.229 399.618,323.739C381.017,337.482 366.374,356.77 355.43,376.901C343.762,398.366 341.022,426.422 354.349,445.282C369.579,466.836 401.08,474.76 426.433,464.274C447.242,455.666 461.892,435.623 471.065,414.039C479.329,394.593 481.407,373.218 482.714,351.754C483.906,332.179 484.294,312.571 484.818,292.975C485.02,280.028 486.872,267.179 490.114,254.653C490.114,254.653 490.343,254.135 490.129,254.396ZM767.647,464.868C767.608,464.956 767.563,465.049 767.513,465.146C767.423,465.32 767.335,465.496 767.249,465.671L767.881,465.703L768.277,465.722C768.096,465.416 767.889,465.103 767.647,464.868ZM820.196,456.775C809.01,447.564 792.992,444.222 779.545,450.056C778.069,452.824 778.009,456.242 780.751,458.225C780.751,458.225 783.913,455.818 786.597,454.958C795.49,452.108 805.155,455.864 812.367,460.621C813.667,461.479 815.414,462.994 815.414,462.994C815.643,462.985 815.87,462.974 816.098,462.953C816.287,462.936 816.475,462.914 816.663,462.885C819.1,462.518 821.094,460.032 820.196,456.775ZM828.883,275.833C819.996,274.318 810.574,274.764 803.342,280.562C801.977,281.656 800.697,282.851 799.455,284.082L799.356,284.181C777.728,312.125 763.912,346.154 762.793,381.792C762.128,402.997 765.026,424.773 774.2,443.695C775.065,445.479 775.976,447.255 777.184,448.82C777.184,448.82 780.313,447.426 782.902,446.628C796.129,442.549 811.369,446.607 822.073,455.727C822.312,455.559 822.548,455.388 822.784,455.215C837.776,444.13 845.783,425.57 851.382,407.573C857.218,388.818 861.547,369.236 860.788,349.854C860.011,330.011 860.291,308.784 849.749,291.505C849.343,290.839 848.92,290.183 848.481,289.538C844.08,283.076 837.715,276.953 829.855,275.995C829.855,275.995 829.294,275.905 828.883,275.833ZM843.781,161.218C784.339,218.412 721.521,274.654 659.037,330.358L657.942,331.333L657.943,331.334C657.122,333.652 655.263,335.802 652.811,336.268C658.555,340.91 664.254,346.197 666.396,351.906C666.707,352.734 666.883,353.664 666.859,354.57C673.068,350.381 678.393,344.534 684.147,339.17C730.558,295.905 775.744,251.1 819.789,205.918C828.91,196.56 838.728,187.619 846.401,177.19C849.18,173.412 846.372,166.314 843.781,161.218ZM518.929,229.833C518.053,231.199 517.193,232.575 516.351,233.962C551.122,256.073 585.495,278.919 616.424,305.345C620.054,308.446 623.617,311.626 627.055,314.938C627.082,314.938 627.109,314.938 627.136,314.938C631.338,315.009 635.26,317.202 638.409,320.1C641.179,320.728 643.957,321.444 646.293,323.044C648.999,324.899 650.879,327.685 652.927,330.263C652.927,330.263 653.327,331.197 652.286,332.531C651.84,333.113 651.399,333.699 650.961,334.287C651.776,334.558 652.032,334.485 652.71,334.319C654.315,333.925 655.37,332.429 655.95,330.953C655.931,330.92 655.912,330.888 655.893,330.857C648.783,319.357 637.859,310.592 627.116,301.9C593.413,274.633 556.643,251.752 518.96,229.85L518.929,229.833ZM519.751,228.561C557.135,250.153 594.365,273.302 628.181,300.583C638.857,309.196 649.733,318.064 656.993,329.319L657.201,329.647C722.706,271.202 787.841,212.885 851.118,151.572C851.862,141.975 845.589,132.469 838.742,124.04C822.92,104.56 800.907,90.833 778.581,78.755C760.188,68.276 741.892,57.555 725.082,45.084C725.082,45.084 718.887,41.613 714.024,38.865C702.459,32.331 691.172,25.122 678.662,20.561C676.283,19.694 673.774,18.762 671.397,19.067L655.243,33.885C678.25,59.334 682.557,101.649 661.223,131.212C647.426,150.331 624.306,161.363 600.516,162.543C594.511,171.444 588.914,180.78 581.745,188.635C581.472,188.934 581.122,189.257 580.868,189.482C580.752,190.127 580.142,190.534 579.813,191.105C578.564,193.263 577.371,195.7 575.969,197.326C576.123,198.514 573.903,197.632 572.884,197.296C572.665,197.224 572.448,197.148 572.231,197.07C571.891,196.948 571.553,196.819 571.218,196.685C564.893,194.154 559.219,190.216 553.802,186.033C541.504,199.427 529.648,213.366 519.751,228.561ZM515.566,235.266C515.419,235.511 515.273,235.757 515.128,236.003C514.134,237.685 513.203,239.398 512.331,241.136C544.355,268.269 575.529,295.797 610.298,321.394C613.108,323.463 615.863,325.738 618.994,327.17C620.986,323.397 622.9,319.577 624.726,315.701L625.637,316.063L625.557,315.607C600.517,291.872 571.266,272.667 542.676,253.276C533.696,247.185 524.672,241.16 515.566,235.266ZM480.822,198.776C479.591,199.857 478.36,200.937 477.128,202.016C479.998,204.698 482.968,207.712 485.851,209.107L485.887,209.07C486.305,208.787 486.354,208.816 486.717,208.818C486.779,208.046 494.429,209.819 496.833,213.786C498.172,215.995 498.632,218.864 497.764,221.327C497.553,221.928 497.456,221.898 497.294,222.14C497.207,222.269 497.119,222.397 497.031,222.525C498.397,222.991 499.679,223.655 500.631,224.605C502.212,220.998 503.894,217.438 505.678,213.931C498.105,208.422 489.752,204.178 480.822,198.776ZM536.458,125.909C534.474,128.185 531.852,130.217 529.514,132.433C506.387,154.353 483.02,175.553 459.447,196.853L459.284,197C465.971,203.03 472.472,209.36 479.885,214.479C480.054,214.595 480.253,214.719 480.446,214.834C481.804,213.397 483.159,211.958 484.513,210.517L484.69,210.33C480.91,208.749 477.968,205.212 475.51,202.582C475.51,202.582 475.729,202.263 475.972,201.969L475.497,201.436C490.619,187.725 505.885,174.133 521.273,160.632L521.3,160.609C521.175,160.196 521.159,159.746 521.361,159.426L521.211,159.341C523.028,156.551 525.126,153.3 527.111,151.867L527.072,151.862C528.304,143.993 531.946,135.944 538.273,131.565C537.687,129.686 537.01,127.801 536.458,125.909ZM522.076,161.951L511.414,171.605C501.672,180.386 491.868,189.072 482.032,197.714C486.35,200.149 490.653,202.619 494.909,205.149C494.909,205.149 497.423,206.672 498.932,207.622C501.444,209.209 504.181,210.596 506.431,212.465C513.797,198.264 522.833,184.955 533.521,172.974C529.434,169.527 525.08,166.176 522.076,161.951ZM555.073,184.652C555.229,184.774 555.386,184.896 555.542,185.018C560.953,189.214 566.699,193.273 573.019,195.567L573.082,195.589C562.232,179.923 544.293,169.356 526.722,162.15C525.67,161.719 524.609,161.307 523.522,160.973C526.698,164.981 530.76,168.199 534.786,171.592C535.819,170.553 535.961,170.819 536.116,170.82C543.146,170.913 549.672,175.667 554.757,181.087L555.831,182.169C556.613,183.098 555.862,183.798 555.862,183.798C555.599,184.082 555.336,184.367 555.073,184.652ZM575.001,195.47C576.464,193.422 577.688,191.205 578.963,189.026C567.836,172.061 547.95,160.709 531.125,153.66C530.282,153.307 528.993,152.88 528.993,152.88C527.102,153.355 525.372,156.237 523.558,159.139C526.091,159.615 528.596,161.103 531.17,162.322C543.941,168.366 556.124,175.945 566.303,185.5C569.524,188.523 572.547,191.804 575.001,195.47ZM580.144,187.636C584.629,183.365 587.983,177.738 591.755,172.469C594.082,169.219 596.378,165.947 598.655,162.661C598.655,162.661 595.326,162.009 592.661,161.431C572.636,157.084 553.854,147.277 539.093,133.167L538.917,132.997C533.317,137.135 530.27,144.341 529.09,151.127C531.883,151.371 534.691,153.362 537.636,154.873C553.847,163.188 570.236,173.279 580.144,187.636ZM600.335,161.415C619.74,160.377 638.811,153.027 652.308,139.448C672.912,118.719 679.256,85.439 667.497,57.25C667.497,57.25 669.831,65.186 670.34,71.309C672.752,100.376 652.413,129.297 625.668,141.406C604.804,150.852 579.5,152.083 559.553,142.195C551.226,138.068 542.928,133.088 537.82,125.581L537.779,125.519C538.388,127.858 539.307,131.031 539.407,131.375C539.614,131.509 539.789,131.711 539.97,131.893C556.131,147.957 578.29,158.371 600.099,161.276C600.099,161.276 600.209,161.323 600.335,161.415ZM649.195,30.075C649.19,30.071 649.184,30.067 649.179,30.063C632.914,17.207 610.563,11.493 590.229,15.962C571.432,20.094 555.076,32.455 542.752,46.853C530.827,60.784 526.044,80.182 529.444,98.353C530.814,105.678 533.282,112.765 536.41,119.537C536.503,119.652 536.584,119.851 536.641,120.166C537.898,126.419 544.061,131.229 550.333,135.355C560.796,142.239 572.587,146.601 585.169,147.115C607.24,148.019 629.879,140.811 645.66,125.601C663.51,108.397 673.469,82.484 665.59,57.954C662.329,47.801 656.414,38.563 649.276,30.655C649.276,30.655 649.204,30.39 649.195,30.075ZM598.369,21.196C622.279,18.518 648.258,30.65 655.357,55.669C658.73,67.557 657.481,80.47 653.684,92.3C644.199,124.43 602.206,141.695 570.273,128.147C551.542,120.201 536.913,101.621 536.925,81.427C536.936,62.765 549.332,45.378 565.179,34.277C575.032,27.375 586.598,22.554 598.369,21.196ZM597.832,22.782C571.99,26.083 547.25,45.284 540.33,69.645C535.708,85.916 541.977,104.248 554.679,115.955C565.37,125.807 579.97,131.19 594.593,131.056C619.531,130.825 644.926,115.488 651.976,91.772C657.146,75.771 657.254,57.5 647.908,43.357C637.561,27.698 617.038,20.421 597.832,22.782ZM583.132,88.197C579.263,83.994 577.484,77.947 580.282,72.055C583.418,65.453 590.217,60.699 597.631,59.874C604.391,59.168 611.638,62.334 614.293,68.823C616.535,74.302 615.458,81.117 612.326,85.709C607.729,92.448 598.477,95.421 590.761,93.053C588.65,92.406 586.656,91.313 584.927,89.893L583.298,91.415C578.182,96.188 573.27,101.19 567.947,105.73C566.507,106.726 566.201,104.927 566.819,104.315L583.132,88.197ZM567.497,105.12C567.439,105.175 567.348,105.173 567.292,105.115C567.237,105.058 567.238,104.966 567.295,104.911C581.932,90.567 607,66 607,66L608,67C608,67 582.425,91.07 567.497,105.12ZM585.558,89.303C590.798,93.256 598.505,93.971 604.761,90.923C614.7,86.08 619.29,70.118 608.472,63.013C605.232,60.885 601.172,60.185 597.289,60.676C585.521,62.275 574.801,75.551 582.387,86.076C582.788,86.632 583.224,87.155 583.691,87.644L586.644,84.727C593.21,78.254 599.777,71.784 606.344,65.331C606.344,65.331 606.992,64.773 607.664,65.336L608.665,66.335C609.472,67.279 608.981,67.318 608.646,67.686L596.732,78.861L585.558,89.303Z"/>
    </g>
</svg>
