<?xml version="1.0" encoding="UTF-8" standalone="no"?>
<!DOCTYPE svg PUBLIC "-//W3C//DTD SVG 1.1//EN" "http://www.w3.org/Graphics/SVG/1.1/DTD/svg11.dtd">
<svg width="100%" height="100%" viewBox="0 0 391 482" version="1.1" xmlns="http://www.w3.org/2000/svg" xmlns:xlink="http://www.w3.org/1999/xlink" xml:space="preserve" xmlns:serif="http://www.serif.com/" style="fill-rule:evenodd;clip-rule:evenodd;stroke-linejoin:round;stroke-miterlimit:2;">
    <g transform="matrix(1,0,0,1,-1332.23,-3301.69)">
        <g transform="matrix(1,0,0,1,614.226,0)">
            <g transform="matrix(1,0,0,1,-614.226,0)">
                <path d="M1517.62,3658.74L1517.23,3658.41C1514.21,3626.23 1518.28,3593.73 1527.02,3562.52C1527.11,3562.22 1527.11,3562.22 1527.19,3561.92C1531.09,3549.06 1541.66,3538.01 1541.92,3524.51C1542.19,3510.41 1532.54,3497.8 1531.45,3482.7C1529.75,3459.32 1541.21,3436.68 1545.42,3414.3C1547.62,3402.62 1548.18,3389.59 1559.36,3382.08C1560.78,3381.12 1562.29,3380.28 1563.87,3379.61C1566.4,3378.54 1569.12,3378.12 1571.81,3378.12C1575.17,3378.15 1578.51,3378.89 1581.75,3379.85L1581.87,3379.89C1588.31,3382.12 1594.84,3385.08 1601.72,3384.44C1601.72,3384.44 1601.97,3384.47 1601.89,3386.17C1601.69,3386.19 1601.49,3386.21 1601.29,3386.22C1589.5,3387.05 1578.33,3378.7 1567.59,3381.06C1567.19,3381.14 1566.8,3381.24 1566.4,3381.36C1555.53,3384.49 1550.45,3397.39 1548.23,3408.53C1543.33,3433.45 1531.34,3457.01 1532.97,3482.04C1534.07,3499.03 1546.89,3514.55 1542.46,3531.72C1539.41,3543.52 1531.07,3553.35 1527.8,3565.08C1519.73,3594.01 1516.03,3624.67 1518.24,3654.19C1520.5,3638.45 1524.05,3622.88 1528.14,3607.23C1530.6,3597.71 1532.25,3588.01 1536.16,3578.95C1541.78,3565.95 1550.05,3554.36 1556.21,3541.52C1556.21,3541.52 1557.12,3539.7 1557.98,3537.96C1563.35,3526.95 1565.73,3514.59 1570.05,3503.49L1570.46,3503.25C1567.61,3500.33 1564.67,3497.5 1561.6,3494.79L1561.33,3493.82C1561.33,3493.82 1561.97,3493.65 1562.33,3493.97C1573.39,3503.59 1583.12,3514.64 1593.23,3525.17C1593.23,3525.17 1595.24,3527.64 1596.86,3529.6L1597,3529.76C1608.05,3542.08 1620.93,3552.73 1629.2,3566.9C1641.58,3588.12 1648.57,3611.89 1660.94,3633.02C1671.33,3650.77 1683.43,3667.58 1692.27,3686.21C1692.55,3686.81 1692.77,3687.28 1692.77,3687.28L1692.43,3688.22L1691.49,3687.88C1680.89,3665.14 1665.12,3645.21 1653.65,3622.68C1641.2,3598.22 1634.74,3571.22 1614.39,3549.76C1607.14,3542.12 1599.5,3534.77 1591.96,3527.43L1591.59,3527.06C1585.09,3519.43 1578.64,3511.74 1571.71,3504.53C1571.59,3504.89 1571.42,3505.24 1571.28,3505.61C1568.64,3512.93 1567.28,3520.65 1564.49,3527.91C1558.47,3543.6 1549.32,3557.78 1540.89,3572.82C1530.41,3591.51 1527.02,3614.59 1522.88,3634.79C1521.15,3643.18 1519.73,3651.64 1518.71,3660.16C1518.35,3663.14 1518.05,3666.12 1517.78,3669.12C1517.74,3669.47 1517.74,3669.47 1517.7,3669.81C1516.78,3677.81 1513.65,3685.44 1513.1,3693.46C1512.81,3697.72 1513.2,3701.99 1513.63,3706.22L1513.49,3706.4L1513.75,3706.81C1513.57,3717.31 1505.22,3726.17 1498.09,3732.77C1491.36,3738.97 1485.21,3745.55 1479.8,3753.18C1475.68,3758.94 1470.9,3764.72 1464.16,3766.93C1463.12,3767.27 1462.06,3767.56 1461,3767.84C1455.74,3769.17 1450.89,3771.03 1446.61,3775.01C1445.27,3776.24 1443.23,3777.94 1443.23,3777.94C1434.48,3783.38 1422.94,3785.82 1414.36,3778.53C1410.46,3775.21 1408.58,3770.12 1405.43,3765.99C1403.66,3763.63 1402.53,3760.84 1402.44,3757.64C1402.27,3751.44 1403.88,3745.6 1402.79,3738.84C1401.69,3732.09 1400.8,3725.18 1399.5,3718.63C1398.21,3712.06 1392.73,3707.54 1391.98,3699.86C1391.27,3692.51 1392.58,3684.89 1389.46,3677.86C1384.88,3667.52 1379.68,3657.01 1375.98,3645.99C1375.29,3643.9 1374.21,3640.94 1374.21,3640.94C1372.13,3633.66 1370.54,3626.03 1369.05,3619.02C1368.35,3615.42 1371.27,3611.06 1369.26,3609.23L1369.18,3609.06C1366.95,3609.68 1364.46,3610.17 1362.07,3609.83C1358.37,3609.31 1354.89,3607.75 1351.16,3607.33L1350.68,3606.74L1351.27,3606.26C1352.6,3606.39 1352.95,3606.48 1353.77,3606.64C1357.57,3607.42 1361.41,3609.06 1365.03,3608.5C1368.34,3607.99 1371.16,3605.8 1374.55,3605.01L1374.59,3605C1395.09,3601.84 1415.22,3598.41 1433.72,3596.07C1447.19,3594.34 1460.95,3592.18 1472.76,3585.71C1480.96,3581.21 1488.27,3575.36 1495.73,3569.61C1503.74,3563.41 1510.99,3555.49 1512.57,3545C1512.6,3544.84 1512.63,3544.67 1512.66,3544.5C1513.42,3540.06 1513.5,3535.51 1513.14,3530.99C1513.14,3530.99 1513.17,3530.99 1513.06,3528.79C1513.06,3528.79 1512.55,3523.3 1511.4,3518.62C1508.99,3508.81 1505.55,3498.7 1498.6,3491.47C1497.42,3490.24 1495.95,3489.15 1494.27,3489.09L1493.36,3488.59C1492.73,3489.64 1492.04,3490.68 1491.3,3491.69L1491.39,3491.73C1495.59,3502.03 1501.65,3512.51 1497.69,3524.35C1496.07,3529.2 1492.89,3533.02 1489.08,3536.2L1489.2,3536.98C1489.2,3536.98 1489.13,3537.27 1488.43,3536.73C1484.53,3539.85 1480.04,3542.35 1475.91,3544.62C1474.01,3545.67 1472.09,3546.71 1470.17,3547.72L1470.17,3547.86C1470.17,3547.86 1470.11,3547.85 1470,3547.81C1461.19,3552.44 1452.15,3556.58 1442.6,3559.24C1433.31,3561.83 1423.79,3563.44 1414.2,3564.55C1407.94,3565.28 1401.71,3564.75 1395.1,3565.8C1386.76,3567.12 1378.54,3569.06 1370.02,3569.62C1361.22,3570.19 1352.37,3569.76 1343.59,3569.21L1342.64,3569.15L1342.15,3568.61L1342.7,3568.12C1349.75,3568.54 1356.75,3568.61 1363.75,3568.32C1363.73,3568.16 1363.69,3567.91 1363.64,3567.5C1363.57,3566.93 1363.5,3566.36 1363.44,3565.78C1362.55,3556.75 1364.1,3547.7 1366.27,3538.77C1366.79,3536.61 1367.21,3534.41 1367.33,3532.19L1367.46,3531.22C1359.62,3531.7 1351.78,3531.91 1343.81,3531.1L1342.2,3530.49L1341.71,3529.9L1342.64,3529.39C1343.55,3529.18 1343.81,3529.1 1343.81,3529.1C1361.14,3530.23 1378.78,3527.61 1396.34,3527.57C1397.77,3527.56 1399.21,3527.54 1400.65,3527.47C1409.5,3527.08 1417.76,3523.84 1426.23,3520.16C1441.71,3513.49 1459.71,3512.64 1474.74,3504.14C1477.05,3502.84 1479.29,3501.45 1481.42,3499.88C1481.42,3499.88 1488.21,3494.99 1492.26,3488.57C1496.17,3482.39 1497.98,3474.88 1496.44,3467.47C1495.07,3461.04 1491.44,3455.15 1488.45,3449.48C1486.6,3446.02 1483.98,3443 1481.39,3440.01C1481.39,3440.01 1480.58,3438.95 1480.58,3438.95C1479.06,3437 1477.37,3435.16 1475.63,3433.38C1475.3,3433.03 1474.96,3432.69 1474.62,3432.35C1468.96,3426.61 1463.14,3420.8 1456.22,3416.82C1455.19,3416.22 1453.77,3415.64 1453.77,3415.64L1453.36,3414.77C1453.36,3414.77 1454.06,3414.3 1454.34,3414.4C1465.92,3418.68 1475.04,3431.1 1482.54,3438.41L1482.78,3438.64C1488.34,3444.95 1492.67,3452.23 1496.06,3459.72C1497.13,3462.08 1497.93,3464.58 1498.31,3467.17C1499.31,3474.1 1497.47,3481.6 1493.52,3488.31C1493.79,3488.1 1494.18,3487.81 1494.29,3487.81C1498.7,3487.95 1501.51,3492.73 1503.63,3496.22C1509.39,3505.72 1512.83,3516.73 1514.47,3527.49C1514.92,3530.56 1515.06,3530.61 1515.06,3530.61C1515.08,3530.94 1515.11,3531.26 1515.13,3531.59C1515.59,3538.74 1515.08,3546.07 1512.03,3552.67C1510.17,3556.72 1507.61,3560.27 1504.68,3563.47C1505.83,3566.93 1508.53,3572.82 1510.44,3577.13C1510.44,3577.13 1512.69,3584.18 1512.86,3589.75C1513.37,3607.24 1502.71,3624.57 1493.28,3634.98L1492.76,3635.54C1492.76,3635.54 1492.07,3636.28 1492,3634.87C1502.82,3622.32 1511.3,3606.54 1510.89,3590.77C1510.79,3586.52 1509.58,3582.34 1508.22,3578.32L1507.04,3574.11C1505.88,3570.25 1504.83,3567.62 1503.83,3564.38C1502.67,3565.59 1501.46,3566.76 1500.21,3567.87C1500.25,3567.91 1500.28,3567.96 1500.32,3568C1498.57,3588.33 1489.15,3608.35 1469.37,3616.39L1468.64,3616.09C1468.64,3616.09 1468.8,3615.42 1469.61,3615.08C1487.27,3607.53 1496.72,3586.61 1499.12,3568.83C1495.36,3572.08 1491.36,3574.97 1487.58,3577.71C1488.4,3578.93 1491.92,3584.61 1490.6,3590.25C1489.63,3594.34 1486.99,3597.86 1484.04,3600.85C1483.48,3601.4 1480.74,3604.16 1480.74,3604.16C1477.05,3607.18 1472.97,3609.72 1468.88,3612.23L1468.6,3612.4C1467.34,3612.5 1467.34,3612.48 1466.07,3612.48L1466.74,3611.17L1467.3,3610.27C1471.33,3607.8 1475.34,3605.29 1479.05,3602.37C1479.05,3602.37 1480.91,3601.08 1482.72,3599.51C1483.76,3598.61 1490.12,3591.84 1488.97,3584.84C1488.63,3582.76 1487.8,3580.79 1486.73,3578.94L1486.71,3578.34C1486.43,3578.55 1486.14,3578.76 1485.86,3578.96C1473.43,3588.04 1459.61,3593.83 1442.54,3596.46C1429.29,3598.51 1416.04,3599.98 1402.76,3602.31C1402.76,3602.31 1396.69,3603.47 1391.27,3604.54C1386.22,3605.47 1381.17,3606.39 1376.12,3607.27L1375,3607.47C1374.17,3607.55 1373.1,3607.87 1371.87,3608.24C1373.43,3611.3 1370.72,3615.63 1371.43,3618.66C1373.23,3625.77 1374.46,3633.03 1376.46,3640.18C1376.46,3640.18 1377.32,3643.83 1378.12,3646.28C1378.32,3646.88 1378.52,3647.47 1378.72,3648.07C1379.38,3650.02 1380.08,3651.97 1380.8,3653.9C1384.48,3663.73 1390.36,3673.28 1392.35,3682.26C1394,3689.72 1391.75,3697.85 1394.39,3705.03C1396.41,3710.53 1400.65,3714.83 1401.15,3721.01C1401.85,3728.81 1404.6,3736.24 1404.79,3744.19C1404.93,3750.19 1402.18,3756.36 1404.71,3762.09C1406.31,3765.7 1409.15,3768.45 1411.56,3772.46C1413.99,3776.47 1417.86,3779.7 1422.88,3780.7C1429.45,3782.02 1436.32,3779.83 1441.87,3776.52C1441.87,3776.52 1443.23,3775.91 1443.35,3775.83C1445.88,3773.99 1447.85,3771.46 1450.52,3769.87C1456.33,3766.41 1463.75,3766.89 1469.45,3762.55C1476.64,3757.07 1480.68,3748.24 1486.81,3741.55C1497.06,3730.38 1511.94,3721.93 1512.32,3706.78L1512.53,3706.48L1512.38,3706.35C1512.31,3705.67 1512.24,3704.99 1512.17,3704.31C1510.97,3691.48 1515.56,3678.93 1516.78,3666.24C1517.02,3663.74 1517.31,3661.23 1517.62,3658.74ZM1585.27,3475.58L1585.72,3476.06C1606.01,3506.32 1626.04,3536.69 1641.62,3569.58C1652.81,3593.22 1662.58,3617.31 1676.2,3639.64C1683.28,3651.24 1690.74,3662.59 1697.84,3674.17L1698.29,3674.91L1698.06,3675.85L1697.13,3675.62C1686,3657.42 1673.7,3639.68 1663.87,3620.87C1654.34,3602.61 1646.89,3583.35 1637.79,3564.85C1622.57,3533.92 1603.37,3505.01 1584.65,3476.77L1584.38,3476.17C1584.38,3476.17 1583.84,3475.29 1585.27,3475.58ZM1627.52,3332.42C1628.58,3332.19 1629.66,3332.09 1630.76,3332.13C1635.64,3332.32 1640.55,3333.59 1645.4,3332.67C1650.89,3331.62 1657.07,3329.1 1657.81,3324.28C1658.59,3319.21 1652.21,3315.31 1646.62,3313.24C1645.23,3312.72 1643.11,3312.23 1643.11,3312.23L1640.9,3311.99C1635.95,3310.98 1631,3312.22 1625.57,3312.53C1621.12,3312.82 1617.01,3314.46 1612.3,3315.24C1601.59,3317.05 1591.14,3319.3 1579.64,3318.15C1560.73,3316.27 1541.47,3314.25 1522.43,3312.21L1521.03,3312.06L1508.21,3310.04L1492.6,3307.65C1492.6,3307.65 1484.77,3306.45 1484.77,3306.45C1479.84,3304.63 1473.89,3307.33 1468.25,3306.52C1457.73,3304.9 1447.45,3303.23 1436.41,3303.51C1428.03,3303.72 1419.66,3304.38 1411.3,3304.33C1398.03,3304.25 1384.69,3303.08 1371.68,3305.75C1363.69,3307.38 1355.69,3309.52 1347.52,3308.8C1347.21,3308.74 1346.9,3308.67 1346.58,3308.61C1345.47,3308.39 1343.95,3308.06 1343.95,3308.06L1343.52,3307.41L1344.45,3307.03C1345.75,3307.22 1347.66,3307.24 1347.66,3307.24C1348.18,3307.28 1348.18,3307.28 1348.72,3307.32C1359.82,3307.88 1370.64,3303.44 1381.53,3302.51C1393.04,3301.53 1404.69,3302.79 1416.12,3302.54C1424.65,3302.36 1433.18,3301.67 1441.7,3301.69C1450.73,3301.75 1459.58,3303.51 1468.56,3304.8C1473.43,3305.43 1478.69,3303.7 1483.99,3304.53C1484.41,3304.6 1484.84,3304.7 1485.24,3304.86L1492.97,3306.11C1501.15,3307.43 1514.74,3309.93 1522.59,3310.78C1536.92,3312.33 1551.19,3313.62 1565.58,3315.03C1565.74,3315.04 1565.9,3315.06 1566.06,3315.08C1574.08,3316.06 1582.2,3317.78 1590.08,3317.14C1598.37,3316.43 1606.48,3314.89 1614.82,3313.46C1619.13,3312.69 1623.16,3311.37 1627.63,3311.11C1632.15,3310.83 1636.77,3309.85 1641.04,3310.68L1643.3,3310.93C1646.06,3311.44 1648.89,3312.45 1651.39,3313.83L1651.6,3313.74C1652.19,3313.78 1652.69,3313.59 1652.93,3313.68C1658.08,3315.65 1661.55,3320.54 1665.07,3324.62C1669.07,3329.19 1674.69,3333.15 1672.3,3340.1C1670.34,3345.81 1663.32,3348 1661.33,3352.92C1660.77,3354.31 1660.36,3355.76 1659.91,3357.19C1659.49,3358.51 1659.46,3358.57 1659.24,3359.13C1656.61,3365.99 1649.16,3370.45 1641.58,3370.75C1640.84,3370.78 1639.24,3370.69 1637.68,3370.37C1641.32,3377.28 1636.18,3384.51 1631.33,3388.65C1631.33,3388.65 1628.56,3390.61 1626.3,3391.7C1620.8,3394.35 1614.46,3393.23 1608.18,3391.13C1608.3,3391.54 1608.39,3391.98 1608.45,3392.44C1609.2,3398.44 1606.2,3404.11 1603.41,3409.25C1603.19,3409.67 1602.98,3410.1 1602.79,3410.55L1603.45,3410.21C1603.66,3410.66 1603.88,3411.1 1604.09,3411.55C1603.19,3414.1 1603.45,3416.89 1604.38,3419.51C1605.12,3420.59 1606,3421.59 1606.87,3422.55C1613.7,3423.16 1622.06,3421.27 1627.38,3423.6C1629.99,3424.74 1632.11,3426.75 1633.92,3429.01L1633.99,3429.11C1642.41,3440.85 1646.57,3455.21 1650.5,3469.42C1655.33,3486.87 1658.63,3504.9 1666.45,3521.22C1676.34,3541.86 1683.06,3563.91 1692.42,3584.96C1692.42,3584.96 1695.75,3593.74 1698.3,3598.28C1698.89,3599.34 1699.53,3600.39 1700.17,3601.42C1704.13,3607.73 1708.89,3613.56 1712.33,3620.2C1716.16,3627.58 1718.43,3635.64 1722.48,3642.92L1722.2,3643.89L1721.23,3643.62C1721.03,3643.27 1721.03,3643.27 1720.84,3642.91C1716.8,3635.38 1714.47,3627.02 1710.35,3619.47C1705.9,3611.32 1700.05,3604.02 1695.27,3596.05C1694.18,3594.22 1693.83,3593.39 1693.2,3592.17C1692.46,3590.7 1691.72,3589.23 1690.99,3587.76C1690.79,3587.35 1686.57,3577.92 1683.26,3569.64C1676.79,3553.42 1671.12,3536.91 1663.62,3521.1C1651.69,3495.82 1650.12,3466.32 1637.61,3440.23C1634.63,3434.02 1631.33,3427.18 1625.94,3424.73C1620.29,3422.16 1613.06,3425.06 1606.47,3424.72C1605.33,3424.71 1605.19,3424.69 1604.61,3424.62C1596.48,3423.69 1590.49,3415.75 1580.58,3416.07C1574.79,3416.25 1569.41,3418.93 1564.25,3421.63L1563.59,3421.4L1563.04,3419.92C1564.73,3418.93 1566.43,3417.96 1568.18,3417.08C1572.22,3415.03 1576.59,3413.64 1581.14,3413.58C1581.36,3413.58 1581.36,3413.58 1581.57,3413.58C1584.94,3413.64 1588.31,3414.35 1591.37,3415.72C1595.07,3417.38 1598.3,3419.96 1602.03,3421.49C1602.39,3421.64 1602.75,3421.76 1603.13,3421.88C1603.02,3421.66 1602.92,3421.44 1602.82,3421.22C1601.64,3419.69 1600.72,3418 1600.36,3416.11C1599.25,3410.22 1604.38,3405.74 1606.06,3400.95C1607.24,3397.6 1607.73,3393.84 1606.72,3390.4L1606.49,3389.94L1606.56,3389.91C1606.38,3389.36 1606.15,3388.81 1605.88,3388.28C1605.97,3388.01 1606.15,3387.45 1606.15,3387.45C1606.15,3387.45 1606.96,3388.31 1607.63,3389.72C1613.99,3391.81 1621.11,3393.21 1627.16,3389.48C1627.16,3389.48 1629.28,3387.77 1630.37,3386.8C1633.69,3383.8 1636.51,3379.88 1636.61,3375.57C1636.81,3366.74 1623.23,3361.94 1612.6,3357.91C1604.12,3354.66 1597.07,3348.26 1589.07,3345.37C1589.07,3345.37 1589.15,3345.03 1589.25,3344.63C1587.45,3344.24 1583.96,3343.48 1582.36,3343.17C1581.12,3342.95 1579.88,3342.76 1578.62,3342.64C1572.36,3342.04 1566.06,3342.58 1560.49,3346.32C1557.08,3348.64 1553.78,3350.7 1549.32,3351.78C1541.1,3353.76 1531.79,3354.04 1527.04,3361.86C1524.56,3365.95 1524.05,3370.74 1525.59,3375.72C1528.14,3384.02 1533.46,3392.68 1530.37,3400C1529.06,3403.1 1526.12,3405.29 1522.93,3406.56C1520.72,3407.45 1518.15,3407.8 1515.91,3406.75C1509.6,3403.79 1509.19,3394.49 1502.1,3391.87C1494.88,3389.19 1486.84,3389.65 1479.16,3389.01C1473.2,3388.5 1467.6,3385.12 1461.71,3383.88C1458.34,3383.16 1454.88,3383.03 1451.44,3382.78C1451.44,3382.78 1450.27,3382.57 1450.26,3382.57C1448.48,3382.27 1446.69,3382.01 1444.93,3381.64C1444.88,3381.63 1444.84,3381.62 1444.79,3381.61C1445.08,3381.95 1445.37,3382.28 1445.64,3382.58C1449.52,3387.02 1452.05,3392.51 1453.97,3398.15C1455.15,3401.69 1455.67,3405.94 1454.9,3409.23C1453.02,3417.29 1447.88,3425.11 1441.93,3429.84C1441.4,3430.26 1440.88,3430.68 1440.36,3431.11C1446.17,3432.53 1450.68,3434.5 1455.13,3436.68L1455.31,3436.77C1459.32,3438.92 1463.06,3441.56 1466.56,3444.45C1466.56,3444.45 1468.65,3446.35 1469.91,3447.68C1471.41,3449.28 1473.15,3451.54 1473.18,3451.59C1475.43,3454.95 1475.69,3455.26 1476.29,3456.19L1476.49,3456.58C1476.54,3456.28 1476.59,3455.97 1476.63,3455.67C1478.03,3445.18 1472.5,3434.58 1464.81,3426.67C1460.92,3423.83 1457.32,3420.26 1452.95,3418.66C1452.95,3418.66 1451.89,3418.3 1453.2,3417.63C1453.23,3417.64 1453.26,3417.65 1453.29,3417.66C1453.61,3417.76 1453.91,3417.88 1454.21,3418.01C1458.2,3419.79 1461.54,3422.89 1465.18,3425.61C1465.18,3425.61 1467.21,3427.59 1468.64,3429.32C1476.17,3438.41 1480.45,3450.98 1476.06,3462.05C1475.03,3464.65 1473.6,3467.04 1471.88,3469.21L1471.93,3469.34L1471.75,3469.37C1467.66,3474.48 1461.99,3478.43 1456.2,3481.23C1454.95,3481.83 1453.7,3482.42 1452.44,3482.99L1452.48,3483.11L1451.86,3483.25C1420.73,3497.18 1384.87,3501.44 1350.96,3499.77L1350.34,3499.73L1349.85,3499.19L1350.39,3498.7C1351.91,3498.76 1352.1,3498.78 1352.88,3498.81C1366.47,3499.36 1380.04,3498.89 1393.44,3497.29C1393.39,3497.28 1393.34,3497.26 1393.29,3497.24C1385.68,3495.17 1377.74,3495.82 1369.36,3494.58C1359.73,3493.15 1350.16,3491.37 1340.48,3490.31C1339.69,3490.2 1339.1,3490.14 1339.1,3490.14L1338.63,3489.55C1338.63,3489.55 1339.05,3489.06 1339.79,3489.13C1354.47,3490.4 1368.98,3494.12 1383.96,3494.84C1387.63,3495.03 1391.31,3495.29 1394.8,3496.5C1395.42,3496.71 1395.9,3496.97 1395.9,3496.97L1395.91,3496.98C1413.8,3494.65 1431.37,3490.27 1448.22,3483.55C1448.97,3483.25 1449.72,3482.94 1450.46,3482.62C1450.4,3482.59 1450.32,3482.55 1450.25,3482.5C1441.71,3477.94 1431.5,3477.11 1422.3,3474.72C1419.51,3473.99 1416.73,3473.26 1413.95,3472.54C1400.57,3469.09 1387.18,3465.81 1373.4,3464.2C1371.49,3464.62 1369.58,3465.03 1367.67,3465.44C1367.67,3465.44 1364.71,3465.93 1361.85,3466.31C1364.84,3473.56 1368.16,3480.79 1368.95,3488.43L1368.39,3489.26C1368.39,3489.26 1367.72,3488.74 1367.5,3487.26C1366.42,3480.14 1363.33,3473.49 1360.62,3466.71L1360.57,3466.48L1360.52,3466.48C1353.63,3467.32 1347.73,3467.59 1341.54,3467.32L1340.83,3467.19L1340.01,3466.49L1340.84,3465.79C1341.56,3465.66 1341.69,3465.68 1343.65,3465.56C1343.65,3465.56 1350.71,3465.3 1356.41,3464.94C1359.97,3464.71 1363.53,3464.36 1367.07,3463.88C1367.07,3463.88 1369.41,3463.61 1371.65,3463.25C1371.72,3463.06 1371.87,3462.92 1372.17,3462.95C1372.43,3462.97 1372.69,3463 1372.96,3463.03C1372.99,3463.02 1373.03,3463.01 1373.07,3463.01C1386.09,3460.54 1397.5,3454.34 1411.61,3448.79C1416.77,3446.76 1421.76,3444.35 1426.24,3441.01C1427.05,3440.4 1431.74,3436.55 1435.66,3433.07C1435.66,3433.07 1436.38,3432.43 1437.39,3431.54C1437.25,3431.51 1437.1,3431.48 1436.96,3431.45L1436.54,3430.83C1436.54,3430.83 1437,3430.38 1437.55,3430.49C1437.84,3430.55 1438.12,3430.6 1438.39,3430.66C1439.75,3429.46 1441.31,3428.05 1442.34,3427.08C1446.53,3423.05 1448.61,3417.29 1451.24,3411.89C1454.98,3404.13 1451.14,3391.51 1446.13,3385.11C1443.13,3381.29 1439.48,3378.02 1436.32,3374.17C1433.15,3370.34 1429.71,3366.67 1425.59,3363.96L1425.51,3363.74C1425.54,3365.94 1425.3,3368.14 1424.76,3370.26C1425.92,3371.08 1426.86,3372.17 1427.67,3373.35C1432.33,3380.12 1435.41,3387.91 1435.4,3394.44C1435.4,3395.87 1433.81,3405.17 1429.64,3409.91C1426.59,3413.37 1422.51,3415.85 1418.66,3418.57C1416.86,3419.83 1414.96,3420.94 1412.99,3421.94L1413.11,3422.17L1412.14,3422.36L1412.14,3422.36C1403.72,3426.45 1393.99,3428.63 1384.48,3431.47C1367.62,3436.49 1349.91,3437.42 1332.82,3440.51L1332.23,3440.11L1332.63,3439.53C1340.09,3438.03 1347.52,3437.31 1355.05,3436.4C1353.52,3430.86 1352.13,3425.16 1353.07,3419.56L1353.32,3418.67C1350.43,3419 1347.62,3419.51 1344.92,3420.26C1342.54,3420.92 1340.18,3421.65 1337.76,3422.14L1336.79,3421.69C1336.79,3421.69 1337.2,3420.98 1338.56,3420.65C1344.01,3419.3 1349.04,3417.66 1355.4,3417.34C1358.68,3417.18 1361.97,3417.12 1365.25,3417.13C1376.17,3417.17 1386.97,3418.2 1398.08,3418.46C1402.93,3418.58 1407.88,3418.79 1412.23,3420.89C1416.4,3418.61 1420.22,3415.62 1424.02,3412.72C1427.41,3410.08 1427.56,3409.3 1428.51,3407.92C1428.88,3407.39 1428.88,3407.35 1429.66,3406.16C1429.82,3405.91 1429.98,3405.66 1430.13,3405.41C1428.91,3405.05 1426.85,3404.45 1425.35,3404C1413.83,3400.6 1401.49,3399.51 1389.76,3398.77C1387.34,3398.62 1384.92,3398.52 1382.5,3398.51C1379.34,3399.6 1376.14,3400.57 1372.91,3401.44C1373.41,3401.43 1373.9,3401.43 1374.39,3401.43C1382.91,3401.49 1391.37,3402.5 1399.91,3402.93C1405.87,3403.24 1411.9,3403.54 1417.64,3405.22C1420.66,3406.1 1423.39,3407.75 1426.38,3408.75C1426.38,3408.75 1427.15,3409.62 1427.15,3409.62L1426.35,3409.93C1425.75,3409.86 1425.75,3409.81 1425.53,3409.73C1421.95,3408.45 1418.73,3406.6 1414.82,3405.78C1403.74,3403.46 1392.29,3403.7 1380.74,3402.89C1375.91,3402.56 1371.04,3402.45 1366.27,3403.08C1360.67,3404.34 1355.02,3405.32 1349.42,3406.1C1347.45,3406.37 1344.55,3406.61 1344.55,3406.61C1342.72,3406.65 1341.5,3406.51 1341.5,3406.51L1340.81,3405.98L1342.1,3405.21C1342.58,3405.16 1342.95,3405.12 1342.95,3405.12C1354.01,3403.79 1364.95,3401.72 1375.54,3398.54L1375.15,3398.21L1375.66,3397.63C1376.78,3397.55 1377.91,3397.48 1379.04,3397.44C1384.5,3395.66 1389.86,3393.56 1395.08,3391.1C1401.48,3388.08 1408.64,3385.57 1414.22,3381.45L1414.06,3381.15C1414.06,3381.15 1414.59,3380.73 1414.95,3380.82C1414.97,3380.83 1414.99,3380.84 1415.02,3380.84C1417.46,3378.91 1419.56,3376.64 1421.1,3373.82C1424.21,3368.09 1423.8,3360.99 1421.49,3354.7C1421.15,3353.63 1421.08,3353.48 1420.85,3352.92C1418.09,3346.08 1412.45,3340.56 1406.85,3336.29L1406.68,3335.93C1405.1,3336.09 1403.52,3336.22 1401.93,3336.29C1398.14,3336.47 1394.31,3336.41 1390.52,3336.48C1391.19,3337.35 1392.69,3339.36 1393.68,3341.1C1395.01,3343.43 1396.11,3345.93 1396.68,3348.48C1396.81,3348.56 1396.93,3348.64 1397.05,3348.72C1397.05,3348.72 1397.52,3349.7 1397.52,3349.7L1396.92,3349.71C1397.41,3352.85 1397.05,3356.02 1395.28,3359C1389.86,3368.1 1380.34,3373.79 1372.23,3377.16C1372.23,3377.16 1368.98,3378.22 1366.72,3378.94C1356.03,3382.32 1344.64,3385.13 1334.25,3384.17L1333.6,3383.59C1333.6,3383.59 1338.34,3383.34 1341.13,3383.1C1350.15,3382.32 1359.16,3380.45 1367.67,3377.31C1374.26,3374.88 1380.83,3370.8 1386.24,3366.45C1380.43,3365.37 1374.61,3364.1 1368.77,3365.01C1367.86,3365.15 1367.14,3365.26 1365.79,3365.56L1364.87,3365.09C1364.87,3365.09 1365.2,3364.48 1365.36,3364.18C1367.6,3363.27 1368.29,3363.25 1369.79,3363.08C1370.79,3362.97 1371.79,3362.92 1372.8,3362.92C1374.17,3362.93 1376.12,3363.12 1376.12,3363.12C1377.06,3363.28 1378.3,3363.52 1378.3,3363.52C1381.16,3363.93 1383.98,3364.53 1386.8,3365.13L1387.49,3365.43C1387.77,3365.21 1389.9,3363.55 1391.1,3362.34C1394.15,3359.27 1396.6,3355.41 1396.06,3350.69C1396.01,3350.22 1395.94,3349.76 1395.85,3349.31C1389.06,3345.22 1380.86,3344.24 1373.07,3343.57L1372.59,3343.02C1372.59,3343.02 1372.88,3342.53 1373.91,3342.61C1381.41,3343.17 1389.12,3344.22 1395.51,3347.79C1394.43,3343.77 1392.17,3340.04 1389.51,3336.89C1389.51,3336.89 1389.36,3336.71 1389.31,3336.51C1385.31,3336.62 1381.35,3336.92 1377.5,3337.86C1371.73,3339.28 1366.38,3342.06 1361.15,3344.87C1361.15,3344.87 1360.36,3343.45 1360.36,3343.45C1368.88,3338.56 1377.86,3334.97 1388.13,3334.54C1393.66,3334.31 1399.2,3334.48 1404.69,3334.02C1412.99,3333.33 1421.13,3332.15 1429.76,3332.15C1443.58,3332.19 1457.28,3333.52 1471.23,3333.48C1484.23,3333.47 1497.11,3335.12 1509.95,3335.49C1518.96,3335.76 1528.02,3336.17 1536.96,3335.87C1540.25,3335.76 1543.72,3335.22 1547.18,3335.06C1573.44,3333.83 1599.59,3335.93 1626.82,3332.49C1627.08,3332.46 1627.32,3332.43 1627.52,3332.42ZM1661.72,3554.38C1667.45,3562.35 1667.2,3573.15 1670.64,3582.13C1672.02,3585.72 1675.92,3587.55 1677.39,3592.11C1678.71,3596.19 1679.19,3600.68 1681.63,3604.2C1681.63,3604.2 1681.63,3605.24 1681.63,3605.24C1681.63,3605.24 1679.7,3603.66 1678.86,3601.57C1677.59,3598.42 1677.15,3595 1676.02,3591.81C1674.63,3587.85 1670.5,3585.66 1669.16,3581.46C1666.45,3572.82 1665.98,3563.38 1661.14,3555.57C1660.95,3555.28 1660.79,3554.99 1660.79,3554.99C1660.79,3554.99 1660.23,3554.08 1661.72,3554.38ZM1419.25,3525.25C1414.14,3527.43 1408.91,3529.26 1403.26,3529.82C1395.19,3530.61 1386.9,3529.93 1378.94,3530.45C1375.79,3530.66 1372.64,3530.88 1369.49,3531.1C1369.15,3531.12 1368.82,3531.14 1368.49,3531.16C1368.5,3531.17 1368.51,3531.18 1368.51,3531.18C1369.04,3538.71 1365.4,3545.55 1364.7,3553.49C1364.28,3558.31 1364.39,3563.18 1365.04,3567.98C1365.04,3567.98 1365.04,3568.05 1365.05,3568.26C1374.03,3567.84 1383.02,3566.83 1392.13,3565.21C1400.65,3563.71 1409.43,3564.08 1417.71,3562.99C1435.56,3560.62 1453.01,3555.54 1468.79,3547.11C1468.62,3546.97 1468.44,3546.8 1468.26,3546.6C1460.54,3538.35 1448.71,3534.35 1438.46,3531.6C1434.02,3530.41 1429.49,3529.46 1425.01,3528.56C1424.53,3528.46 1424.71,3528.52 1423.87,3528.32C1422.17,3527.91 1420.5,3527.39 1418.88,3526.72L1419.14,3525.35C1419.14,3525.35 1419.18,3525.3 1419.25,3525.25ZM1650.51,3547.18C1654.4,3551.59 1653.76,3558.48 1656.53,3563.7C1656.58,3563.82 1656.63,3563.94 1656.69,3564.05C1656.93,3564.55 1657.26,3565.18 1655.93,3564.83C1655.54,3564.25 1655.44,3564.05 1655.33,3563.8C1652.85,3558.69 1653.36,3552.17 1649.75,3547.91C1649.75,3547.91 1649.06,3547.07 1650.51,3547.18ZM1625.14,3517.12C1629.23,3530.35 1638.74,3541.22 1643.71,3554.24L1643.42,3554.92C1643.42,3554.92 1642.8,3554.76 1642.5,3554.03C1637.16,3541.38 1628.01,3530.47 1624.13,3517.42C1624.13,3517.42 1623.87,3516.44 1625.14,3517.12ZM1452.88,3513.84C1451.96,3514.09 1451.04,3514.34 1450.13,3514.58C1463.26,3517.59 1472.82,3530.09 1483.41,3537.22L1483.7,3537.41L1483.84,3538.14C1483.84,3538.14 1483.24,3538.38 1482.54,3537.9C1471.28,3530.22 1462.78,3517.84 1448.97,3515.42C1448.57,3515.35 1448.11,3515.28 1447.71,3515.22C1440.06,3517.25 1432.41,3519.32 1425.39,3522.51C1423.43,3523.4 1421.48,3524.3 1419.51,3525.14C1419.57,3525.13 1419.62,3525.14 1419.67,3525.16C1420.74,3525.53 1421.82,3525.83 1422.92,3526.09C1434.55,3528.87 1446.18,3531.11 1458.03,3537.45C1462.43,3539.81 1466.57,3542.78 1469.86,3546.53C1475.93,3543.28 1482.28,3539.9 1487.37,3535.73C1487.31,3535.67 1487.25,3535.61 1487.19,3535.55C1477.85,3525.44 1466.13,3516.96 1453.14,3514.24L1452.88,3513.84ZM1490.48,3492.79C1488.64,3495.16 1486.52,3497.37 1484.16,3499.35C1482.35,3500.86 1482.4,3500.95 1482.4,3500.95C1474.33,3507.33 1464.51,3510.63 1454.37,3513.43C1467.47,3516.38 1478.87,3524.9 1488.2,3535.04C1493.7,3530.32 1497.55,3524.59 1497.67,3516.97C1497.8,3508.64 1493.71,3500.82 1490.48,3492.79ZM1402.68,3516.49C1405.21,3516.56 1403.71,3517.54 1403.71,3517.54C1402.61,3517.54 1404.11,3517.36 1400.76,3517.71C1396.04,3518.2 1391.58,3520.18 1386.92,3520.88C1377.95,3522.25 1369.05,3524.73 1358.27,3523.8C1354.16,3523.47 1349.86,3523.8 1346.32,3521.49L1346.08,3520.7C1346.08,3520.7 1349.2,3521.84 1351.43,3522.19C1354.12,3522.62 1356.86,3522.55 1359.6,3522.8C1361.3,3522.94 1361.62,3522.93 1362.58,3522.93C1369.56,3522.9 1376.23,3520.66 1383.37,3520.14C1383.61,3520.12 1383.85,3520.11 1384.09,3520.09C1390.33,3519.55 1396.19,3516.7 1402.42,3516.49C1402.51,3516.49 1402.6,3516.49 1402.68,3516.49ZM1416.27,3517.77C1416.27,3517.77 1415.97,3518.35 1415.11,3518.53C1413.48,3518.89 1411.89,3519.44 1410.39,3520.17C1410.39,3520.17 1409.65,3519.94 1409.65,3519.94L1409.89,3519.23C1411.65,3518.35 1413.53,3517.72 1415.46,3517.37C1415.46,3517.37 1415.95,3517.55 1416.27,3517.77ZM1433.17,3506.93C1430.02,3510.43 1426.28,3513.27 1422.43,3515.84C1422.43,3515.84 1421.64,3515.73 1421.64,3515.73C1421.64,3515.73 1421.91,3514.94 1423.5,3513.82C1426.45,3511.72 1429.24,3509.38 1431.79,3506.81L1432.41,3506.2C1432.41,3506.2 1433.15,3505.48 1433.17,3506.93ZM1619.6,3445.29C1620.27,3445.62 1620.26,3445.67 1620.51,3445.85C1631.67,3453.96 1637.7,3467.72 1642.56,3480.78C1646.44,3491.2 1649.54,3501.99 1652.77,3512.51L1653.06,3513.47L1652.63,3514.34L1651.77,3513.89C1645.28,3494.69 1641.25,3474.26 1629.26,3457.06C1626.49,3453.1 1623.26,3449.41 1619.34,3446.59L1618.75,3446.08L1618.61,3445.31C1618.61,3445.31 1619.22,3445.08 1619.6,3445.29ZM1441.86,3504.91C1438.78,3508.37 1435.14,3511.31 1431.29,3513.91L1430.91,3514.16L1430.19,3514.02L1430.62,3513.1C1430.89,3512.92 1431.16,3512.73 1431.43,3512.54C1434.8,3510.19 1438,3507.57 1440.76,3504.53L1441.05,3504.19C1441.05,3504.19 1441.77,3503.44 1441.86,3504.91ZM1447.14,3502.87C1444.26,3506.48 1441.36,3510.11 1437.5,3512.75L1436.6,3512.74C1436.6,3512.74 1436.6,3512.12 1437.09,3511.78C1440.73,3509.22 1443.55,3505.68 1446.33,3502.22C1446.33,3502.22 1446.99,3501.45 1447.14,3502.87ZM1338.15,3485.42C1344.26,3486.55 1350.41,3486.41 1356.69,3487.67C1367.03,3489.74 1377.3,3491.76 1387.8,3493.11C1391.83,3493.64 1395.85,3494.28 1399.74,3495.38C1399.74,3495.38 1400.51,3496.19 1400.51,3496.19C1400.51,3496.19 1399.43,3496.47 1399.43,3496.47C1390.94,3494.09 1382.08,3493.86 1373.19,3492.25C1363.39,3490.47 1353.82,3487.92 1343.78,3487.21C1342.37,3487.1 1340.97,3486.98 1339.58,3486.78C1338.95,3486.69 1338.53,3486.86 1337.71,3486.44L1337.3,3485.82C1337.3,3485.82 1337.82,3485.36 1338.15,3485.42ZM1602.07,3424.71L1601.76,3425.45C1601.76,3425.45 1597.64,3427.08 1594.79,3428.21C1594.01,3428.53 1593.23,3428.85 1592.45,3429.18C1591.27,3429.7 1589.73,3430.51 1589.73,3430.51C1588.4,3431.25 1587.28,3432.2 1584.85,3434.07C1580.21,3437.63 1577.92,3443.45 1578.23,3449.61C1578.54,3455.77 1579.41,3462.55 1575.42,3467.26C1570.89,3472.62 1563.3,3474.87 1558.08,3479.79C1555.25,3482.45 1553.53,3486.48 1555.01,3490.66C1555.01,3490.66 1554.37,3492.46 1554.37,3492.46L1553.06,3491.75C1552.54,3491.5 1552.61,3491.38 1552.54,3491.18C1551.63,3488.4 1551.59,3485.35 1552.85,3482.63C1557.78,3471.99 1574.03,3471.14 1575.88,3460.38C1576.81,3454.97 1575.02,3449.29 1575.97,3443.81C1576.89,3438.42 1580.55,3433.79 1585.25,3430.78L1586.31,3430.26C1589.09,3429.17 1595.36,3426.64 1600.42,3424.7C1600.42,3424.7 1601.16,3424.32 1602.07,3424.71ZM1554.43,3425.26L1555.82,3425.41L1555.51,3427.04C1555.41,3427.11 1555.32,3427.18 1555.22,3427.26C1548.8,3432.35 1545.04,3440.03 1543.55,3448.28C1541.89,3457.45 1542.93,3467.91 1544.6,3478.03C1544.6,3478.03 1545.11,3481.66 1545.69,3484.99L1545.77,3485.43L1545.16,3486.37L1544.23,3485.75C1543.69,3483.45 1543.15,3481.16 1542.68,3478.86L1542.61,3478.55C1540.88,3468.71 1539.88,3458.7 1541.3,3448.74C1542.38,3441.19 1544.94,3433.65 1550.43,3428.16C1552.87,3425.73 1553.24,3425.74 1554.06,3425.2C1554.06,3425.2 1554.27,3425.18 1554.43,3425.26ZM1412.4,3449.99C1405.98,3452.63 1399.53,3455.04 1393.01,3458.15C1387.86,3460.58 1382.32,3462.14 1376.68,3463.46C1393.32,3465.59 1409.61,3470.15 1425.93,3474.39C1434.7,3476.63 1443.95,3477.39 1451.75,3481.96L1451.84,3482.02C1458.88,3478.86 1465.73,3474.67 1470.47,3469.08C1463.92,3464.85 1457.43,3460.5 1449.99,3458.11C1437.77,3454.17 1424.92,3452.48 1412.4,3449.99ZM1439.28,3431.99C1431.57,3438.35 1424.23,3444.97 1415.05,3448.88C1414.81,3448.98 1414.56,3449.09 1414.32,3449.19C1430.82,3452.33 1448.1,3453.94 1462.36,3462.51C1465.36,3464.31 1468.26,3466.29 1471.2,3468.18C1473.54,3465.21 1475.28,3461.86 1476.18,3458.08L1475.76,3457.86C1474.68,3456.28 1473.23,3454.25 1472.95,3453.89C1464.23,3442.81 1452.33,3435.3 1439.28,3431.99ZM1410.61,3421.73C1403.51,3418.8 1395.04,3419.97 1386.8,3419.41C1376.04,3418.7 1364.73,3417.54 1354.38,3418.56C1354.39,3418.58 1354.41,3418.6 1354.43,3418.63C1353.47,3427.27 1354.93,3431.14 1356.3,3436.16L1356.25,3436.25C1363.28,3435.38 1370.38,3434.31 1377.66,3432.26C1387.79,3429.41 1397.89,3426.75 1407.79,3422.96C1408.75,3422.6 1409.69,3422.18 1410.61,3421.73ZM1525.36,3380.32C1523.99,3381.51 1521.36,3383.44 1518.38,3383.9C1517.08,3384.1 1515.36,3384.23 1515.36,3384.23C1514.1,3384.37 1512.26,3384.71 1512.26,3384.71C1507.2,3384.97 1503.08,3387.08 1497.83,3388.08C1496.55,3388.32 1495.26,3388.47 1493.96,3388.55C1497.58,3388.92 1501.09,3389.65 1504.31,3391.39C1510.2,3394.57 1511.42,3404.6 1517.69,3405.95C1519.83,3406.41 1522.01,3405.63 1523.92,3404.64C1526.42,3403.34 1528.68,3401.3 1529.48,3398.45C1531.28,3392.08 1527.58,3385.66 1525.36,3380.32ZM1416.12,3382.44C1410.35,3386.77 1403.08,3389.39 1395.97,3392.94C1392.6,3394.59 1389.13,3396.07 1385.6,3397.39C1397.44,3397.64 1409.3,3399.38 1420.8,3401.57C1422.11,3401.82 1423.41,3402.11 1424.7,3402.45C1426.73,3402.98 1428.71,3403.69 1430.56,3404.68C1431.6,3402.83 1432.46,3400.87 1433.07,3398.88C1432.98,3398.74 1432.9,3398.57 1432.88,3398.37C1432.15,3391.06 1424.84,3386.11 1418.96,3383.54C1418.09,3383.16 1417.01,3382.76 1416.12,3382.44ZM1424.41,3371.47C1423.61,3373.97 1422.35,3376.33 1420.54,3378.39C1419.53,3379.54 1418.43,3380.58 1417.26,3381.54C1424.94,3384.2 1431.99,3389.5 1433.72,3396.3C1434,3394.88 1434.14,3393.46 1434.14,3392.07C1434.13,3391.26 1433.93,3388.95 1433.2,3386.85C1431.7,3382.48 1429.3,3378.45 1426.91,3374.5C1426.66,3374.08 1425.76,3372.6 1424.41,3371.47ZM1623.08,3334.21C1602.53,3336.53 1582.05,3336.26 1561.28,3336.11C1553.17,3336.07 1545.04,3336.24 1537.04,3337.15C1520.81,3337.16 1504.14,3336.46 1488.48,3336.08L1488.33,3336.07C1474.1,3335.42 1459.68,3335.47 1444.21,3334.7C1436.68,3334.35 1429.12,3334.07 1421.61,3334.44C1417.37,3334.65 1413.16,3335.23 1408.94,3335.7C1410.55,3336.86 1412.42,3338.34 1412.42,3338.34C1416.35,3341.67 1419.87,3345.59 1422.19,3350.2C1424.05,3353.89 1425.3,3358.36 1425.49,3362.87C1425.77,3362.8 1426.17,3362.71 1426.28,3362.76C1431.19,3365.25 1432.85,3367.52 1435.8,3370.97C1436.94,3372.3 1438.05,3373.67 1439.16,3375.04C1439.16,3375.04 1441.45,3377.76 1443.72,3380.38C1444.34,3380.38 1445.33,3380.43 1446.89,3380.54C1449.92,3380.77 1452.94,3380.59 1456.04,3380.77L1456.27,3380.78C1463.63,3381.42 1470.08,3385.86 1478.55,3387.34C1479.11,3387.44 1479.66,3387.52 1480.22,3387.6C1487.5,3386.94 1494.79,3388.41 1502.18,3385.09C1504.04,3384.25 1506.01,3383.58 1507.79,3382.81C1507.79,3382.81 1511.8,3382.18 1512.16,3382.21C1512.27,3382.22 1512.38,3382.23 1512.48,3382.24C1512.69,3382.26 1512.89,3382.28 1513.1,3382.3C1517.37,3382.72 1517.54,3383.02 1520.08,3382.27C1521.92,3381.74 1523.52,3380.58 1524.93,3379.25C1524.84,3379.02 1524.75,3378.79 1524.67,3378.56C1523.25,3374.55 1522.11,3370.4 1523.31,3366.19C1524.83,3360.86 1528.66,3356.26 1533.76,3354.06C1541.31,3350.81 1550.17,3351.29 1557.13,3346.63C1560.38,3344.43 1563.72,3342.22 1567.53,3341.42C1569.66,3340.98 1571.84,3340.82 1574.03,3340.82C1579.33,3340.87 1584.62,3342.06 1589.44,3343.92C1589.53,3343.62 1589.62,3343.4 1589.67,3343.41C1592.34,3344.12 1594.81,3345.34 1597.22,3346.73L1597.22,3346.73C1597.22,3346.73 1599.18,3346.45 1602.1,3346.32C1606.94,3346.11 1611.98,3345.04 1615.68,3341.55C1615.68,3341.55 1617.77,3339.35 1619.76,3337.03C1620.72,3335.93 1621.85,3334.98 1623.08,3334.21ZM1659,3324.92C1658.86,3325.64 1658.61,3326.38 1658.22,3327.12C1656.11,3331.16 1650.89,3332.9 1645.89,3333.9C1638.9,3335.29 1631.3,3331.78 1625.34,3334.23C1621.8,3335.68 1619.66,3339.31 1617.44,3341.95C1616.74,3342.75 1618.54,3341.58 1615.52,3343.98C1614.45,3344.83 1613.26,3345.54 1612.01,3346.11C1608.17,3347.87 1603.91,3348.24 1599.77,3348.29C1602.76,3350.18 1605.7,3352.18 1608.82,3353.63C1618.75,3358.28 1630.79,3359.69 1636.84,3368.96C1637.84,3369.27 1638.28,3369.32 1639.06,3369.41C1647.27,3370.36 1655.88,3365.37 1658.37,3357.44C1658.65,3356.52 1658.92,3355.59 1659.2,3354.67C1660.06,3351.91 1661.28,3349.21 1663.29,3347.15C1663.29,3347.15 1663.78,3346.74 1664.47,3346.17C1660.82,3339.94 1660.76,3332.01 1659,3324.92ZM1659.31,3321.59C1662,3328.85 1661.7,3337.45 1664.88,3344.32C1665.05,3344.68 1665.19,3345.07 1665.34,3345.44C1665.99,3344.9 1666.71,3344.3 1667.34,3343.77C1670.41,3341.13 1672.44,3336.55 1670.32,3332.92C1668.44,3329.7 1664.73,3327.99 1662.13,3324.93C1661.19,3323.83 1660.27,3322.68 1659.31,3321.59Z"/>
            </g>
        </g>
    </g>
</svg>
