<?xml version="1.0" encoding="UTF-8" standalone="no"?>
<!DOCTYPE svg PUBLIC "-//W3C//DTD SVG 1.1//EN" "http://www.w3.org/Graphics/SVG/1.1/DTD/svg11.dtd">
<svg width="100%" height="100%" viewBox="0 0 376 454" version="1.1" xmlns="http://www.w3.org/2000/svg" xmlns:xlink="http://www.w3.org/1999/xlink" xml:space="preserve" xmlns:serif="http://www.serif.com/" style="fill-rule:evenodd;clip-rule:evenodd;stroke-linejoin:round;stroke-miterlimit:2;">
    <g transform="matrix(1,0,0,1,-1916.34,-3339.67)">
        <path d="M2288.84,3624.9C2286.76,3622.4 2286.51,3618.66 2285.73,3615.13C2281.15,3594.45 2274.93,3573.95 2265.64,3554.72C2261.15,3545.4 2256.37,3536.47 2250.86,3527.76C2250.86,3527.76 2248.32,3523.76 2246.38,3520.02C2242.6,3512.73 2239.16,3505.19 2233.33,3499.3C2219.45,3485.2 2208.12,3468.67 2194.46,3454.53C2191.82,3451.8 2191.12,3447.63 2188.79,3445.23C2184.44,3440.67 2181.3,3435.04 2176.96,3430.53C2176.96,3430.53 2175.89,3428.18 2175.44,3426.68C2174.89,3424.93 2172.91,3423.61 2171.46,3421.96C2169.98,3420.27 2168.57,3418.51 2167.22,3416.71C2160.13,3407.26 2154.95,3396.46 2147.84,3387.04C2136.92,3371.86 2117.95,3364.71 2104.72,3351.8C2100.44,3347.62 2092.61,3347.32 2092.56,3340.12C2092.56,3340.12 2092.58,3339.1 2093.61,3340.11C2093.62,3340.89 2093.65,3340.94 2093.7,3341.22C2093.76,3341.59 2093.86,3341.95 2093.99,3342.31C2095.72,3346.99 2101.84,3347.45 2105.48,3351.01C2118.36,3363.47 2135.95,3370.1 2148.16,3384.48C2155.31,3392.89 2160.36,3402.8 2166.74,3412.01C2169.65,3416.23 2172.78,3420.38 2176.41,3424.08C2176.41,3424.08 2177.45,3426.19 2178,3428C2178.4,3429.27 2179.64,3430.2 2180.58,3431.32C2184.04,3435.43 2186.74,3440.08 2190.55,3443.96C2192.97,3446.43 2192.9,3449.86 2195.35,3452.35C2209.57,3466.92 2220.68,3484.28 2235.04,3499.01C2242.79,3506.97 2245.09,3515.54 2250.27,3524.46C2264.36,3548.75 2278.42,3573.71 2286.18,3607.49C2287.34,3612.55 2287.89,3617.87 2289.89,3622.57C2290.67,3624.42 2292.1,3626.3 2291.25,3628.69C2291.25,3628.69 2290.24,3629.99 2289.08,3629.95L2288.55,3629.44C2288.55,3629.44 2289.74,3628.78 2289.33,3628.02C2289.55,3627.45 2289.49,3626.78 2289.35,3626.22C2288.75,3627.28 2287.91,3628.68 2287.11,3629.83C2278.27,3642.57 2263.88,3650.24 2248.82,3655.72L2247.39,3656.56C2246.46,3656.99 2245.51,3657.42 2245.51,3657.42C2239.38,3659.6 2233.55,3662.16 2227.43,3665.59C2220.38,3669.51 2212.18,3671.15 2204.08,3672.8L2202.76,3672.52C2199.68,3673.13 2196.6,3673.69 2193.51,3674.22C2193.51,3674.22 2192.19,3674.85 2192.19,3674.85C2191.41,3674.97 2190.62,3675.1 2189.83,3675.22C2175.8,3677.4 2161.77,3679 2147.6,3680.14C2138.51,3680.89 2129.33,3681.93 2121.07,3685.85C2119.87,3686.33 2118.69,3686.88 2117.55,3687.5C2115.45,3688.64 2114.47,3688.99 2113.71,3689.44C2113.85,3689.52 2114.01,3689.72 2114.19,3690.13C2113.3,3692.41 2112.8,3694.81 2112.28,3697.16C2112.28,3697.16 2111.6,3702.92 2110.85,3706.1C2110.73,3706.62 2110.6,3707.13 2110.47,3707.64C2107.53,3718.79 2097.82,3727.14 2089.36,3739.12C2089.46,3739.24 2089.56,3739.44 2089.65,3739.77C2087.88,3743.24 2085.47,3748.47 2084.07,3752.99C2084.07,3752.99 2083.03,3756.95 2082.23,3760.26C2080.6,3767.13 2079.43,3774.03 2078.63,3781.09C2078.56,3781.54 2078.53,3781.58 2078.28,3784.05C2078.28,3784.05 2078.05,3788.43 2077.5,3791.8L2077.36,3792.5L2076.75,3792.95C2076.75,3792.95 2076.97,3786.69 2077.09,3783.03C2077.17,3780.72 2077.27,3778.73 2077.32,3778.31C2077.34,3778.15 2077.36,3777.99 2077.38,3777.83C2078.16,3771.37 2079.38,3764.96 2081.04,3758.66L2082.83,3753.12C2084.02,3749.56 2085.35,3746.03 2086.97,3742.64C2086.45,3743.41 2085.95,3744.18 2085.46,3744.96C2085.46,3744.96 2084.44,3745.52 2084.44,3745.52L2084.44,3744.35C2090.55,3733.81 2095.99,3727.18 2102.07,3719.28C2104.43,3716.18 2106.32,3712.82 2107.53,3708.83C2108.31,3706.26 2108.95,3703.63 2109.55,3700.99C2109.55,3700.99 2110.06,3699.49 2110.06,3699.49C2110.39,3698.49 2110.82,3697.06 2110.82,3697.06C2110.89,3696.73 2110.97,3696.4 2111.05,3696.08C2111.58,3693.97 2112.31,3691.86 2113.12,3689.85C2112.29,3690.52 2111.43,3691.69 2109.04,3694.85C2108.41,3695.69 2107.77,3696.54 2107.21,3697.44L2106.47,3697.64C2106.47,3697.64 2106.11,3697.18 2106.7,3696.17C2108.79,3692.61 2111.34,3689.52 2115.24,3686.68C2129.11,3676.61 2148.97,3678.2 2165.85,3676.14C2174.52,3675.04 2183.18,3673.89 2191.82,3672.53L2193.26,3672.71C2193.74,3672.63 2194.23,3672.56 2194.71,3672.48C2197.29,3672.07 2199.86,3671.62 2202.42,3671.11C2202.42,3671.11 2202.95,3670.8 2203.34,3670.39C2211.54,3668.74 2219.95,3667.02 2227.26,3662.85C2232.68,3659.74 2238.44,3657.39 2244.33,3655.37C2244.33,3655.37 2246.83,3654.72 2246.83,3654.72C2247.61,3654.67 2248.76,3654.32 2249.79,3653.94C2259.42,3650.38 2268.98,3646.14 2276.87,3639.44C2281.66,3635.37 2285.67,3630.38 2288.84,3624.9ZM2109.43,3529.01C2099.27,3520.49 2089.44,3511.22 2083.38,3501.46C2081.54,3498.56 2079.34,3495.83 2078.27,3492.58C2078.09,3492.02 2078.16,3492.19 2078.11,3491.97C2078.11,3491.97 2077.84,3490.99 2079.1,3491.66C2079.1,3491.66 2081.66,3496.86 2083.43,3499.35C2084.36,3500.68 2085.26,3502.04 2086.21,3503.36C2086.21,3503.36 2088.62,3506.88 2090.83,3509.54C2094.92,3514.46 2099.67,3518.8 2104.63,3522.84C2104.63,3522.84 2106.97,3524.56 2109.53,3526.45C2109.69,3526.45 2109.93,3526.55 2110.27,3526.83C2110.27,3526.83 2110.28,3526.9 2110.29,3527.01C2110.64,3527.27 2110.98,3527.52 2111.32,3527.77C2111.32,3527.77 2115.01,3530.85 2117.83,3533.3L2119.37,3534.77C2129.15,3544.15 2142.94,3549.12 2153.24,3558.91C2158.7,3564.12 2165.41,3567.53 2171.8,3573.09C2179.07,3579.4 2183.99,3588.63 2193.87,3591.61C2195.33,3592.05 2197.49,3592.42 2197.49,3592.42L2198,3593.07L2197.9,3593.15L2197.93,3593.19C2197.93,3593.19 2197.8,3593.31 2197.58,3593.4L2197.34,3593.58C2196.78,3593.52 2196.22,3593.45 2195.66,3593.35C2189.18,3592.64 2182.78,3595.13 2176.33,3598.45C2176.33,3598.45 2169.89,3601.11 2165.21,3603.26C2157.22,3606.92 2149.55,3611.1 2141.69,3615.65L2139.05,3617.18C2137.36,3618.13 2135.68,3619.07 2134,3620.01L2131.22,3621.57C2128.59,3623.05 2125,3625.08 2125,3625.08L2122.99,3626.16L2121.78,3626.83C2110.55,3633.35 2099.04,3639.59 2087.31,3645.33C2085.24,3646.34 2082.8,3647.73 2082.8,3647.73C2082.45,3647.89 2082.1,3648.05 2081.75,3648.21C2080.62,3648.73 2079.01,3649.44 2079.01,3649.44C2077.46,3649.99 2078.68,3649.39 2076.03,3650.73C2069.76,3653.89 2063.93,3657.73 2057.26,3660.95C2052.97,3663.03 2048.65,3665.05 2044.34,3667.08L2042.16,3668.12C2041.25,3668.61 2041.24,3668.83 2041.24,3668.83C2037.7,3670.67 2033.93,3672.33 2031.91,3675.69C2028.21,3681.86 2025.36,3688.57 2021.43,3694.72C2017.52,3700.86 2011.92,3705.63 2007.86,3712.17C2004,3718.39 2000.75,3724.82 1998.64,3731.91L1997.84,3732.35L1997.39,3731.54C1998.83,3726.65 2000.67,3721.91 2002.59,3717.21L2002.66,3717.03C2007,3708.43 2014.14,3701.53 2019.09,3693.74C2022.7,3688.06 2025.69,3682.02 2028.87,3676.04C2030.81,3672.43 2034.01,3669.63 2037.79,3667.89C2037.79,3667.89 2040.8,3667.02 2040.8,3667.02C2051.49,3663.45 2063.85,3656.12 2072.89,3650.61C2074.6,3649.57 2076.34,3648.6 2078.12,3647.63C2078.12,3647.63 2080.09,3646.77 2081.94,3645.92C2081.94,3645.92 2084.39,3644.9 2086.68,3643.85C2087.01,3642.61 2087.48,3640.78 2087.77,3639.32C2089.7,3629.64 2093.26,3620.42 2096.39,3611.08C2099.17,3602.74 2101.7,3594.31 2103.88,3585.84C2103.88,3585.84 2105.01,3580.7 2105.78,3577.25C2106.76,3572.83 2107.67,3568.4 2108.85,3564.04C2108.85,3564.04 2110.85,3558.02 2111.33,3552.96C2111.67,3549.38 2111.41,3545.78 2111.01,3542.18C2111.01,3542.18 2110.91,3539.89 2110.91,3539.89C2110.85,3538.09 2110.73,3537.7 2110.61,3536.85C2110.45,3535.71 2110.22,3534.21 2110.22,3534.21C2109.92,3532.48 2109.65,3530.75 2109.43,3529.01ZM2217.26,3521.03C2217.26,3520.51 2217.31,3519.98 2217.33,3519.46C2217.38,3517.57 2215.78,3517.09 2215.9,3516.22C2215.9,3516.22 2220.97,3513.43 2222.88,3512.41C2224.38,3511.58 2224.31,3509.27 2223.33,3507.12C2223.33,3507.12 2222.44,3505.74 2223.65,3505.78C2225.64,3505.94 2228.11,3507.4 2229.14,3509.43C2229.29,3509.37 2229.41,3509.32 2229.5,3509.3C2229.49,3509.11 2229.49,3508.99 2229.49,3508.99C2229.49,3508.99 2230.91,3508.86 2230.91,3508.86C2230.94,3509.02 2230.96,3509.18 2230.99,3509.34C2231.36,3511.54 2232.08,3513.74 2232.86,3515.88C2232.98,3516.2 2232.98,3516.2 2233.1,3516.51C2235.01,3521.45 2237.48,3526.11 2239.28,3531.19C2239.28,3531.19 2241.32,3538.16 2242.32,3541.82C2243.97,3547.85 2245.47,3553.89 2247.54,3559.86C2248.31,3562.11 2249.04,3564.45 2249.05,3566.78C2249.05,3568.73 2248.53,3570.63 2248.27,3572.56C2248.11,3573.01 2247.96,3573.29 2247.83,3573.44C2249.26,3580.59 2252.06,3587.38 2254.98,3593.92L2256.29,3596.71C2256.56,3597.27 2256.55,3597.27 2256.83,3597.81L2257.96,3599.96C2257.96,3599.96 2259.09,3601.98 2259.61,3603.33C2261.64,3608.53 2262.7,3613.7 2267.18,3619.08C2268.83,3621.05 2270.76,3622.83 2272.02,3624.99C2272.98,3626.63 2272.21,3631.01 2269.28,3634.39C2268.86,3634.88 2268.54,3635.18 2268.31,3635.34C2267.61,3636.79 2266.66,3638.13 2265.48,3639.3C2262.66,3642.1 2258.31,3643.47 2254.14,3643.01C2254.14,3643.01 2252.31,3642.52 2252.31,3642.52L2252.16,3642.3C2250.83,3642.77 2249.28,3642.93 2248.19,3643.06C2246.65,3643.22 2244.41,3643.32 2244.41,3643.32C2242.62,3643.56 2242.42,3643.62 2242.42,3643.62C2240.27,3643.8 2238.09,3643.98 2235.93,3644.24L2234.5,3644.33C2234.42,3644.34 2230.26,3644.83 2226.56,3645.44L2225.11,3645.61C2222.24,3645.95 2223.15,3645.8 2220.06,3646.36C2213.12,3647.62 2206.36,3649.94 2199.7,3651.22C2199.4,3651.26 2199.15,3651.3 2199.15,3651.3L2198.53,3650.88L2198.96,3650.27C2200.34,3649.95 2199.54,3650.16 2201.3,3649.75C2207.89,3648.19 2214.22,3646.16 2221.24,3644.78C2223.24,3644.39 2225.98,3643.7 2225.98,3643.7C2228.25,3643.31 2230.52,3642.96 2232.8,3642.63C2232.8,3642.63 2235.38,3642.11 2235.38,3642.11C2237.65,3641.82 2239.93,3641.55 2242.18,3641.54C2242.18,3641.54 2248.91,3641.51 2250.73,3640.94C2252.8,3640.28 2252.16,3638.76 2252.22,3637.18C2252.22,3637.18 2254.52,3624.24 2246.79,3627.51C2244.54,3628.46 2242.92,3630.51 2241.22,3632.47L2240.29,3632.75L2240.24,3632.02C2242.21,3629.73 2244.04,3627.12 2246.87,3625.94C2247.44,3625.7 2247.95,3625.57 2248.92,3625.58C2252.52,3625.71 2253.55,3630.11 2253.64,3634.98C2253.64,3634.98 2254.53,3637.16 2254.54,3637.18C2254.65,3637.63 2254.72,3639.95 2254.66,3640.15C2254.47,3640.73 2254.1,3641.18 2253.61,3641.55C2254.02,3641.56 2254.04,3641.61 2254.47,3641.64C2254.56,3641.65 2254.66,3641.66 2254.76,3641.66C2254.74,3641.52 2254.74,3641.37 2254.78,3641.22C2255.74,3637.46 2253.95,3633.61 2253.14,3629.85C2253.14,3629.85 2252.88,3628.6 2254.14,3629.43C2254.99,3633.55 2257.14,3637.41 2256.03,3641.65C2259.63,3641.47 2263.14,3639.89 2265.56,3637.19C2265.78,3636.98 2265.98,3636.75 2266.18,3636.51C2267.85,3634.46 2268.51,3631.71 2268.64,3629.08C2268.64,3629.08 2268.65,3627.95 2269.67,3628.97C2269.7,3629.97 2269.62,3630.97 2269.43,3631.94C2270.74,3629.58 2271.24,3626.88 2269.33,3624.38C2264.96,3618.66 2261.14,3612.98 2258.74,3605.84C2258.66,3605.61 2258.58,3605.37 2258.5,3605.14C2257.78,3603.16 2256.62,3600.59 2256.62,3600.59L2255.54,3597.99C2251.59,3589.45 2247.5,3580.9 2246.1,3571.6C2245.8,3569.56 2245.68,3567.5 2245.68,3565.44C2245.68,3565.44 2245.74,3564.08 2246.8,3565.13C2247.15,3566.51 2247.21,3568.15 2247.36,3569.95C2247.61,3567.76 2247.89,3565.27 2247.17,3562.64C2244.57,3553.17 2242.32,3543.71 2238.04,3533.3C2234.96,3525.81 2230.85,3518.68 2229.66,3511.11C2229.62,3510.88 2229.59,3510.64 2229.57,3510.42C2229.39,3510.5 2229.18,3510.58 2228.92,3510.66C2228.06,3510.93 2228.73,3512.62 2227.29,3513.19C2226.93,3513.33 2226.5,3513.33 2226.13,3513.28C2226.11,3516.05 2224.74,3520.32 2219.79,3518.72C2218.59,3518.34 2220.14,3521.54 2218.21,3522.14C2217.72,3522.29 2217.26,3522.17 2216.84,3521.93C2218.81,3528.15 2219.26,3534.83 2221.11,3541.1C2223.66,3549.89 2225.46,3558.86 2227.1,3567.88C2228.33,3574.63 2229.14,3581.53 2230.16,3588.39C2230.96,3593.87 2231.58,3599.39 2231.28,3604.93L2231.74,3604.77C2231.79,3605.07 2231.84,3605.36 2231.89,3605.66C2230.76,3607.35 2229.74,3609.11 2228.69,3610.86C2228.69,3610.86 2228.11,3612.23 2227.22,3613.58C2227.22,3613.58 2225.66,3615.49 2224.39,3616.62C2223.45,3617.46 2221.97,3618.51 2221.97,3618.51C2220.01,3618.87 2217.71,3620.55 2215.52,3621.51C2199.41,3628.55 2183.18,3636.02 2166.04,3640.26C2162.42,3641.15 2158.66,3641.79 2154.91,3642.4C2154.91,3642.4 2151.51,3643.05 2148.6,3643.64C2144.86,3644.39 2141.08,3645.02 2137.26,3645.06C2137.26,3645.06 2136.44,3644.51 2136.44,3644.51C2136.44,3644.51 2136.77,3643.98 2138.43,3643.93C2144.11,3643.68 2149.68,3642.24 2155.25,3641.02C2158.44,3640.32 2161.61,3639.56 2164.77,3638.71C2165.28,3638.57 2165.78,3638.44 2166.29,3638.31C2166.67,3638.21 2167.05,3638.11 2167.43,3638.01C2167.94,3637.88 2168.44,3637.74 2168.95,3637.61C2180.66,3634.4 2192.02,3630.09 2203.03,3624.85C2204.41,3624.21 2204.54,3624.17 2205.22,3623.89C2209.97,3621.91 2215.03,3620.51 2219.4,3617.83C2221.02,3616.83 2220.02,3617.02 2221.48,3615.89C2222.85,3614.82 2224.06,3613.56 2225.14,3612.2C2225.14,3612.2 2227.65,3609.2 2229.74,3606.43C2230.64,3596.04 2228.03,3585.62 2226.75,3575.19C2225.26,3563.08 2223.05,3551.2 2219.51,3539.37C2219.03,3537.74 2218.98,3537.46 2218.78,3536.55C2217.56,3531.07 2217.13,3525.38 2215.12,3520.15C2215.12,3520.15 2214.58,3518.86 2215.97,3519.46C2216.09,3519.77 2216.21,3520.08 2216.32,3520.39C2216.62,3520.66 2216.95,3520.91 2217.26,3521.03ZM2110.71,3530.08C2110.86,3531.16 2111.05,3532.39 2111.26,3533.63C2111.26,3533.63 2111.7,3535.94 2112,3537.39C2112.07,3537.77 2112.07,3537.77 2112.16,3538.14L2112.7,3540.07C2112.89,3540.84 2113.14,3541.81 2113.14,3541.81C2113.36,3543.11 2113.55,3544.41 2113.69,3545.72C2114.78,3555.52 2110.85,3565.46 2108.63,3574.09C2107.62,3577.9 2106.51,3581.7 2105.41,3585.49C2105.41,3585.49 2104.27,3589.65 2103.26,3593.25C2099.23,3607.47 2094.21,3621.3 2089.93,3635.46C2089.19,3638.02 2088.98,3640.76 2088.03,3643.23C2088.19,3643.15 2088.35,3643.07 2088.5,3642.99C2109.11,3632.84 2129.01,3620.56 2147.76,3609.45C2156.34,3604.44 2165.98,3601.2 2175.32,3597.17C2175.32,3597.17 2179.48,3595.47 2181.9,3594.46C2184.89,3593.24 2187.98,3592.29 2191.23,3592.08C2182.14,3588.26 2176.68,3578.02 2168.51,3572.15C2163.12,3568.29 2157.61,3564.89 2152.34,3559.85C2142.82,3550.81 2130.33,3545.86 2119.85,3537.5C2116.85,3535.1 2113.77,3532.63 2110.71,3530.08ZM2229.06,3632.44C2231.17,3632.45 2233.26,3632.61 2235.35,3632.85L2235.88,3633.52C2235.88,3633.52 2233.06,3633.78 2230.99,3633.76C2223.53,3633.71 2216.73,3637.15 2209.93,3638.06C2199.17,3639.43 2188.37,3640.46 2177.6,3641.53L2176.55,3641.63L2175.99,3641.17L2176.45,3640.61C2187.57,3639.51 2198.69,3638.69 2209.78,3636.98C2213.71,3636.36 2212.63,3636.41 2215.79,3635.32C2220.06,3633.84 2224.02,3632.43 2229.06,3632.44ZM2234.93,3602.7C2234.93,3603.08 2234.93,3603.46 2234.93,3603.83L2234.41,3604.35C2234.41,3604.35 2233.88,3603.91 2233.89,3602.71C2233.89,3602.71 2233.93,3601.7 2234.93,3602.7ZM1917.31,3411.76C1917.31,3411.76 1917.32,3411.75 1917.33,3411.75C1922.13,3409.22 1927.55,3407.9 1932.73,3406.73C1932.73,3406.73 1935.89,3406.2 1938.42,3405.84C1938.42,3405.84 1944.78,3404.73 1948.27,3404.35C1960.01,3403.16 1972.61,3403.36 1983.32,3398.04C1987.8,3395.82 1992.1,3393.45 1996.71,3390.93C1996.71,3390.93 2000.37,3389.14 2002.52,3387.83C2008.01,3384.47 2013.29,3380.8 2018.5,3377.03C2018.5,3377.03 2020.76,3375.3 2023.23,3373.62C2023.23,3373.62 2028.67,3369.83 2034.19,3366.87L2034.32,3366.8C2047.62,3360.36 2062.23,3356.65 2074.39,3356.3C2077.69,3356.54 2080.08,3356.29 2083.13,3355.39C2083.65,3355.23 2083.65,3354.67 2085.18,3355.29C2085.18,3355.29 2084.98,3355.85 2084.19,3356.33C2085.7,3356.99 2087.57,3357.36 2087.57,3357.36C2087.71,3357.39 2087.85,3357.43 2087.99,3357.46C2091,3358.14 2093.98,3357.95 2097.2,3357.12C2098.03,3356.91 2099.33,3356.94 2099.33,3356.94C2099.57,3356.99 2099.82,3357.03 2100.07,3357.07C2103.3,3357.58 2104.41,3357.2 2106.3,3357.34C2107.34,3357.41 2109.39,3358.06 2110.61,3359.31C2113.52,3362.33 2113.5,3366.69 2111.92,3370.13C2111.07,3372.02 2111.78,3373.31 2112.72,3376.26C2113.28,3378.02 2112.12,3380.1 2110.73,3381.78C2111.21,3382.33 2111.65,3382.92 2112.04,3383.54L2111.94,3384.41C2111.94,3384.41 2109.37,3381.7 2107.34,3380.37C2105.78,3379.35 2103.29,3378.6 2103.01,3378.59C2095.64,3378.24 2086.57,3379.56 2080.58,3387.49C2076.03,3393.51 2074.76,3401.47 2076.26,3409.31C2076.26,3409.31 2075.91,3410.22 2075.91,3410.22C2075.91,3410.22 2075.32,3409.95 2075.16,3409.1C2073.9,3402.12 2074.48,3394.71 2078.22,3388.31C2082.52,3380.95 2090.6,3376.51 2098.84,3376.36C2098.91,3376.36 2098.91,3376.36 2098.97,3376.36C2099.64,3376.38 2100.3,3376.42 2100.97,3376.5C2101.18,3376.52 2101.4,3376.55 2101.62,3376.59C2104.2,3376.98 2102.02,3376.57 2105.53,3378.03C2107.21,3378.72 2108.74,3379.75 2110.03,3381.03C2110.07,3380.96 2110.12,3380.9 2110.18,3380.83C2111.47,3379.15 2111.53,3377.43 2111.51,3377.31C2111.45,3376.85 2111.41,3376.85 2111.34,3376.64C2110.9,3375.34 2110.13,3374.3 2109.94,3373.22C2109.38,3369.97 2112.77,3367.49 2111.42,3363.53C2110.69,3361.41 2109.15,3359.5 2106.92,3358.86C2106.14,3358.65 2108,3358.37 2103.57,3358.47C2103.45,3358.48 2103.32,3358.48 2103.19,3358.48C2102.4,3358.47 2102.11,3358.4 2100.74,3358.34C2096.56,3358.15 2093.27,3360.55 2087.41,3359.03C2087.41,3359.03 2084.45,3358.05 2082.93,3356.85C2080.87,3357.54 2078.97,3357.86 2077.02,3358.12C2077.02,3358.12 2075.13,3358.57 2074,3358.68C2069.68,3359.11 2067.6,3359.23 2065.32,3359.66C2059.93,3360.67 2054.66,3362.37 2049.42,3363.61C2040.91,3365.67 2032.52,3369.78 2025.35,3373.97C2025.35,3373.97 2022.64,3375.5 2020.52,3377.01C2014.27,3381.49 2007.96,3385.92 2001.37,3389.86C2000.31,3390.49 1997.9,3392.02 1997.9,3392.02C1997.9,3392.02 1994.31,3394.07 1991.31,3395.61C1990.1,3396.23 1988.89,3396.87 1987.69,3397.5C1984.36,3399.23 1985.28,3398.74 1982.9,3399.68C1972.5,3403.74 1960.63,3404.1 1949.65,3405.55C1946.37,3405.98 1939.44,3407.75 1935.58,3408.1C1934.61,3408.19 1933.23,3408.34 1933.23,3408.34C1931.5,3408.45 1931.76,3408.46 1931.76,3408.46C1931.76,3408.46 1929.16,3408.72 1927.54,3409.09C1924,3409.92 1920.58,3411.16 1917.4,3412.88C1917.32,3415.79 1917.85,3418.61 1920.16,3421.14C1920.16,3421.14 1921.24,3422.52 1922.54,3423.7C1922.54,3423.7 1926.68,3427.46 1930.24,3429.56C1932.76,3431.06 1936.28,3432.79 1936.51,3432.9C1938.37,3433.73 1940.31,3434.48 1941.78,3435.95C1944.79,3438.95 1945.17,3444.44 1945.9,3449.32C1947.01,3456.7 1947.32,3464.46 1949.04,3471.21C1951.06,3479.17 1953.48,3486.76 1954.19,3495.59C1954.21,3495.81 1954.22,3496.03 1954.24,3496.26C1954.41,3499.38 1954.39,3502.49 1954.86,3505.67C1954.86,3505.67 1955.16,3510.91 1956.9,3516.04C1956.9,3516.04 1956.92,3516.68 1956.92,3516.68L1956.9,3516.73C1957.03,3517.66 1957.13,3517.87 1957.29,3518.47C1958.47,3522.76 1959.97,3526.84 1961.62,3531.46C1961.62,3531.46 1962.56,3534.17 1963.04,3535.55C1966.01,3544.06 1969.01,3552.38 1973.26,3560.04C1973.26,3560.04 1975.21,3564.14 1976.65,3566.1C1980.94,3571.9 1984.34,3578.15 1986.64,3585.74C1986.98,3586.83 1987.35,3587.93 1988,3588.85L1988.41,3588.97C1988.48,3589.1 1988.55,3589.23 1988.62,3589.35C1994.45,3599.09 2010,3601.69 2018.06,3596.53C2025.3,3591.81 2029.85,3583.43 2032.64,3576.26C2035.18,3569.71 2037.23,3562.97 2038.91,3556.14C2038.95,3555.99 2038.99,3555.84 2039.02,3555.68C2040.88,3547.56 2042.46,3539.47 2044.18,3531.3C2047.76,3514.36 2053.87,3497.44 2062.75,3482.5C2064.58,3478.85 2065.3,3474.73 2066.49,3470.9C2067.06,3468.99 2067.01,3468.97 2067.01,3468.97C2067.94,3464.04 2068.56,3458.82 2071.87,3455.24C2074.56,3452.32 2079.2,3451.72 2080.09,3446.92C2081.53,3441.54 2081.24,3436.66 2085.31,3431.22C2085.35,3431.18 2085.38,3431.14 2085.41,3431.1C2085.08,3431.16 2084.71,3431.18 2084.32,3431.14C2081.24,3430.74 2077.72,3430.06 2075.74,3428.13C2075.74,3428.13 2075.67,3427.38 2075.67,3427.38C2075.67,3427.38 2076.31,3427.28 2076.42,3427.38C2078.97,3429.42 2082.75,3430.14 2086.04,3430.21L2086.14,3430.3C2088.38,3428.2 2091.89,3427.45 2094.82,3426.42C2092.44,3425.97 2090.17,3425.03 2088.25,3423.55C2088.25,3423.55 2088.09,3422.76 2088.09,3422.76C2088.09,3422.76 2088.7,3422.59 2088.89,3422.73C2091.26,3424.54 2094.25,3425.27 2097.19,3425.41C2097.3,3425.35 2097.41,3425.28 2097.52,3425.22C2097.52,3425.22 2098.02,3425.2 2098.38,3425.28C2098.38,3425.28 2098.38,3425.34 2098.36,3425.44C2098.68,3425.43 2099,3425.43 2099.31,3425.42C2098.48,3424.56 2097.64,3423.72 2096.78,3422.9C2096.78,3422.9 2096.54,3422.67 2095.9,3422.1L2095.86,3421.38C2095.86,3421.38 2096.45,3421.23 2096.88,3421.6C2107.41,3430.77 2116.2,3441.7 2127.73,3450.32C2129.41,3451.58 2131.85,3453.38 2131.85,3453.38C2142.17,3461.49 2150.43,3470.43 2162.01,3480.68C2162.01,3480.68 2166.03,3484.56 2168.44,3487.02C2170.55,3489.19 2172.51,3491.5 2174.59,3493.7C2174.59,3493.7 2181.98,3501.97 2186.46,3505.74C2186.46,3505.74 2190.89,3509.08 2195.14,3511.4L2195.18,3511.28C2195.41,3511.35 2196,3511.7 2195.88,3511.49C2195.59,3511.05 2196.3,3511.53 2197.42,3511.72C2198.55,3511.9 2199.33,3511.92 2200.97,3512.19C2202.28,3512.37 2198.92,3509.87 2203.49,3509.57C2203.49,3509.57 2200.27,3507.04 2200.33,3503.06C2200.34,3502.33 2200.43,3501.42 2201.65,3502.39C2202.33,3502.89 2206.99,3505.26 2208.32,3505.23C2210.76,3505.17 2210.64,3500.46 2216,3503.62C2216.61,3503.96 2217.12,3504.21 2217.56,3504.4C2212.73,3499.99 2206.59,3497.1 2201.69,3492.61L2200.64,3491.76C2196.37,3487.98 2194.93,3485.37 2192.58,3483.01C2188.01,3478.42 2182.76,3474.48 2178.78,3469.4C2173.29,3462.39 2169.77,3454.01 2163.93,3447.35C2158.47,3441.12 2152.18,3436.27 2146.37,3428.96C2146.37,3428.96 2142.33,3423.41 2138.33,3419.25C2137.47,3418.29 2137.39,3418.23 2136.97,3417.81C2129.55,3410.33 2120.29,3404.88 2112.34,3397.94C2110.37,3396.22 2112.37,3396.57 2112.37,3396.57C2112.5,3396.68 2112.62,3396.79 2112.75,3396.89C2116,3399.65 2119.39,3402.22 2122.8,3404.77C2120.14,3401.32 2116.27,3398.87 2113.92,3395.35C2113.92,3395.35 2113.33,3394.45 2114.73,3394.73C2114.82,3394.86 2114.91,3394.98 2115,3395.11C2117.85,3399.03 2122.38,3401.53 2124.75,3405.73C2124.9,3406.01 2124.92,3406.19 2124.88,3406.32C2129.77,3409.95 2134.68,3413.64 2139.32,3417.89L2139.52,3418.07C2142.23,3420.73 2144.68,3423.65 2147.1,3426.58C2147.1,3426.58 2150.82,3431.56 2154.14,3434.99C2158.44,3439.42 2163.42,3443.19 2167.22,3448.1C2173.64,3456.39 2177.59,3466.15 2185.51,3473.73C2190.64,3478.63 2195.72,3483.68 2200.39,3488.95C2200.39,3488.95 2201.95,3490.98 2201.95,3490.98C2202.28,3491.41 2202.29,3491.4 2202.29,3491.4C2206.74,3495.79 2212.59,3498.52 2217.46,3502.66C2218.37,3503.43 2219.42,3504.51 2219.87,3504.99C2219.94,3504.99 2220,3505 2220.06,3505L2220.56,3505.55C2220.56,3505.55 2220.53,3505.59 2220.47,3505.65C2220.52,3505.74 2220.56,3505.85 2220.6,3505.98C2218.7,3509.68 2214.46,3511.72 2213.3,3517.06C2212.8,3519.3 2213.33,3519.03 2211.89,3519.99C2209.98,3521.28 2206.79,3520.82 2205.01,3520.03C2203.35,3519.29 2202,3518.24 2200.78,3516.6C2199.67,3515.17 2197.49,3514.22 2195.47,3512.87C2195.15,3512.8 2194.49,3512.63 2193.35,3512.2C2193.35,3512.2 2188.65,3509.7 2186.04,3507.74C2186.04,3507.74 2183.32,3505.71 2180.99,3503.28C2179.13,3501.34 2177.37,3499.31 2175.64,3497.26L2174.88,3496.22C2174.2,3495.29 2173.29,3494.2 2173.29,3494.2C2171.14,3491.47 2168.81,3488.92 2166.3,3486.51C2157.63,3478.24 2147.36,3471.14 2138.81,3461.89C2130.48,3452.94 2119.6,3446.4 2111.89,3438.88C2107.87,3434.95 2104.25,3430.62 2100.39,3426.54C2100.31,3426.61 2100.18,3426.66 2100.01,3426.68C2099,3426.76 2097.98,3426.77 2096.96,3426.7C2094.18,3427.99 2090.81,3428.09 2088.43,3429.89C2085.66,3432 2083.22,3436.62 2082.13,3441.25C2081.72,3443.07 2081.58,3445.02 2081.45,3446.92C2081.43,3447.17 2080.62,3450.82 2078.18,3452.59C2075.82,3454.31 2073.08,3455.26 2071.67,3458.2C2070.1,3461.47 2069.12,3465.15 2068.58,3468.59L2068.41,3470.08C2068.22,3473.22 2067.87,3474.6 2067.24,3476.8C2065.52,3482.83 2061.79,3487.99 2059.05,3493.7C2048.98,3514.64 2044.5,3539.16 2039.74,3557.82C2036.94,3568.72 2033.89,3579.87 2027.21,3589.02C2023.09,3594.66 2017.79,3599.96 2011.17,3600.73C2002.09,3601.78 1991.98,3597.89 1987.48,3590.43C1987.19,3590.28 1986.82,3589.92 1986.38,3589.1C1984.56,3585.66 1984.01,3581.98 1981.53,3577.77C1980.01,3575.16 1979.2,3572.11 1977.63,3569.66C1975.2,3565.85 1972.22,3562.35 1969.92,3558.24C1969.92,3558.24 1967.52,3553.49 1966.67,3550.86C1966.31,3549.72 1965.94,3548.58 1965.58,3547.44C1964.27,3543.28 1962.95,3539.01 1961.49,3534.96C1961.49,3534.96 1959.71,3530.11 1958.38,3525.81C1957.51,3523.06 1956.21,3520.42 1955.68,3517.64C1955.34,3517.44 1954.96,3517.15 1954.7,3516.78C1953.6,3513.37 1953.06,3509.78 1952.8,3506.19L1952.79,3506.02C1952.79,3503.15 1952.89,3499.59 1952.89,3499.43C1952.93,3490.95 1951.39,3482.9 1948.76,3474.36C1945.92,3464.96 1945.6,3455.14 1944.07,3445.16C1943.77,3443.3 1943.47,3441.39 1942.66,3439.7C1942.44,3439.24 1941.01,3437.21 1939.26,3436.11C1937.93,3435.27 1935.86,3434.51 1935.86,3434.51C1935.35,3434.34 1934.85,3434.18 1934.34,3434C1934.12,3433.93 1933.89,3433.85 1933.67,3433.77C1928.83,3431.98 1924.63,3429 1921.08,3425.4C1921.08,3425.4 1917.75,3420.13 1917.1,3418.2C1916.96,3417.78 1916.84,3417.36 1916.73,3416.92C1916.34,3415.3 1916.25,3413.61 1916.42,3411.95C1916.42,3411.95 1916.52,3410.94 1917.31,3411.76ZM2230.97,3576.89C2231.98,3581.89 2233.31,3586.86 2233.45,3591.95L2232.94,3592.49C2232.94,3592.49 2232.42,3592.13 2232.38,3591.27C2232.14,3586.48 2230.9,3581.82 2229.94,3577.1C2229.94,3577.1 2229.78,3576.1 2230.97,3576.89ZM2021.91,3572.51C2021.82,3572.71 2021.73,3572.9 2021.64,3573.1C2018.92,3579.3 2016.75,3586.03 2009.14,3588.82C2005.11,3590.29 2000.46,3590.06 1996.27,3588.88C1996.27,3588.88 1995.63,3588.16 1995.63,3588.16C1995.63,3588.16 2005.61,3589.45 2010.75,3587.02C2016.25,3584.41 2018.44,3577.87 2021.11,3572.31C2021.11,3572.31 2021.53,3571.43 2021.91,3572.51ZM1992.44,3566.79C1992.44,3566.79 1992.58,3567.21 1992.58,3567.21C1993.2,3567.99 1992.75,3567.36 1993.77,3569.16C1994.34,3570.13 1995.09,3570.86 1996.19,3571.42C1996.19,3571.42 1997.14,3572.22 1997.14,3572.22C1997.14,3572.22 1996.32,3572.47 1996.22,3572.48C1995.95,3572.53 1995.99,3572.73 1995.65,3572.66C1994.21,3572.31 1993.09,3571.05 1992.35,3569.66C1992.35,3569.66 1991.99,3568.78 1991.85,3567.64C1991.85,3567.64 1991.81,3566.92 1991.81,3566.92L1992.06,3566.54C1992.19,3566.63 1992.31,3566.71 1992.44,3566.79ZM2034.8,3526.4L2034.66,3526.51C2034.66,3526.51 2034.63,3525.63 2034.63,3525.63C2037.06,3520.93 2040,3516.51 2042.94,3512.1C2042.94,3512.1 2043.44,3511.36 2043.67,3512.49C2043.53,3512.69 2043.4,3512.89 2043.27,3513.09C2043.32,3513.19 2043.37,3513.34 2043.4,3513.54C2039.2,3519.8 2035.59,3525.99 2033.39,3534.65C2031.7,3541.29 2030.28,3548.05 2027.45,3554.28L2026.72,3554.73C2026.72,3554.73 2027.43,3552.03 2028.19,3549.91C2030.92,3542.25 2031.87,3534.02 2034.8,3526.4ZM2218.34,3519.04C2218.35,3519.41 2218.33,3519.79 2218.31,3520.16C2218.35,3519.87 2218.37,3519.5 2218.34,3519.04ZM2219.28,3505.99C2219.03,3505.95 2218.78,3505.91 2218.53,3505.87C2216.62,3505.52 2214.99,3504.04 2213.35,3503.87C2212.89,3503.83 2212.87,3503.92 2212.71,3503.98C2210.84,3504.67 2210.13,3506.7 2206.54,3506.24C2204.51,3505.92 2203.29,3504.37 2201.42,3503.44C2201.42,3503.44 2201.64,3507.55 2204.67,3509.05C2204.67,3509.05 2206.78,3509.33 2206.01,3510.35C2206.01,3510.35 2202.16,3510.81 2202.16,3510.81C2201.87,3511.7 2204.55,3513.67 2198.22,3512.89C2198.04,3512.87 2197.86,3512.84 2197.67,3512.82C2197.47,3512.79 2197.27,3512.77 2197.06,3512.75C2199.89,3514.8 2202.52,3517 2204.27,3518.21C2206,3519.41 2208.36,3519.65 2210.85,3519.06C2213.27,3518.48 2212.41,3513.72 2216.14,3509.73C2217.16,3508.6 2218.32,3507.89 2219.4,3506.05C2219.36,3506.03 2219.33,3506.01 2219.28,3505.99ZM2228.19,3509.97C2227.49,3508.66 2225.93,3507.95 2224.55,3507.23C2224.55,3507.23 2226.62,3511.78 2223.09,3513.48C2221.1,3514.43 2219.15,3515.47 2217.24,3516.3C2217.24,3516.3 2217.68,3516.68 2217.99,3517.28C2218,3517.25 2218.03,3517.22 2218.05,3517.18C2218.05,3517.18 2218.22,3516.77 2219.19,3517.37C2220.95,3518.35 2223.46,3517.87 2224.54,3516.2C2225.11,3515.32 2225.11,3514.21 2225.12,3513.19C2225.12,3513.19 2225.13,3512.97 2225.24,3512.84L2225.06,3512.45C2225.06,3512.45 2225.59,3512.1 2225.8,3512.18C2226.56,3512.44 2227.31,3512.33 2227.5,3510.98C2227.56,3510.57 2227.85,3510.24 2228.19,3509.97ZM1944.46,3427.83L1944.36,3428.55C1943.22,3429.38 1942.47,3430.69 1941.23,3431.4C1941.23,3431.4 1940.76,3430.58 1940.76,3430.58C1940.83,3430.54 1940.89,3430.5 1940.96,3430.45C1942.03,3429.7 1942.69,3428.52 1943.72,3427.74C1943.72,3427.74 1944.16,3427.78 1944.46,3427.83ZM2078.82,3412.44C2078.82,3412.44 2078.71,3412.34 2079.12,3413.97C2080.13,3417.97 2083.44,3420.87 2086.36,3423.8C2087.97,3425.41 2088.14,3425.7 2088.97,3426.96L2089.06,3427.09L2088.92,3427.79C2088.92,3427.79 2085.29,3424.35 2082.54,3421.82C2080,3419.49 2077.83,3416.68 2077.55,3413.12C2077.53,3412.87 2077.55,3412.79 2077.54,3412.54L2078.13,3411.84C2078.36,3412.04 2078.59,3412.24 2078.82,3412.44ZM1961.23,3423.89L1960.61,3424.68C1959.65,3424.66 1959.55,3424.68 1959.08,3424.72C1956.41,3424.95 1956.92,3425.12 1955.48,3425.87C1955.15,3426.04 1954.68,3426.32 1954.68,3426.32L1954.26,3426.23L1954.34,3425.81C1954.55,3425.66 1954.76,3425.52 1954.97,3425.38C1955.96,3424.72 1957.12,3424.37 1958.09,3423.9C1958.09,3423.9 1959.32,3423.49 1960.46,3423.23C1960.72,3423.45 1960.97,3423.67 1961.23,3423.89ZM2030.17,3385.74C2024.73,3388.55 2019.33,3392.04 2014.05,3396.53C2012.65,3397.73 2009.41,3400.95 2006.2,3403.08C2003.02,3405.2 1999.57,3406.55 1996.46,3409.4C1992.68,3412.87 1989.3,3415.9 1984.68,3418.31C1979.16,3421.18 1972.91,3422.93 1966.8,3423.93L1965.5,3423.25L1966.29,3422.15C1966.57,3422.09 1966.85,3422.01 1967.13,3421.94C1968.71,3421.54 1970.99,3420.85 1970.99,3420.85C1971.3,3420.76 1971.61,3420.68 1971.91,3420.6C1975.93,3419.47 1979.86,3418.02 1983.63,3416.21C1984.92,3415.58 1990.36,3412.67 1993.6,3410C1994.36,3409.36 1995.12,3408.72 1995.88,3408.09C2000.18,3404.56 2005.3,3402.49 2009.22,3399.13C2010.21,3398.29 2011.17,3397.43 2012.14,3396.57C2015.19,3393.86 2018.32,3391.21 2021.6,3388.76C2021.6,3388.76 2024.52,3386.8 2026.21,3385.72C2030.26,3383.12 2034.77,3381.36 2039.61,3379.66C2040.79,3379.56 2040.06,3379.68 2042.05,3378.76C2043.48,3378.08 2043.52,3377.37 2045.13,3377.8C2045.13,3377.8 2046.49,3377.85 2040.62,3380.86C2038.83,3381.78 2038.38,3381.97 2037.43,3382.37C2035.66,3383.11 2033.88,3383.9 2032.11,3384.76C2031.95,3385.68 2031.76,3386.96 2031.82,3387.5C2032.21,3391.42 2039.4,3388.15 2041.94,3384.89C2042.37,3384.34 2042.79,3383.69 2042.79,3383.69L2043.48,3383.52C2043.48,3383.52 2040.99,3389.05 2036.39,3390.63C2035.76,3390.85 2035.12,3391.01 2034.46,3391.08C2033.04,3391.26 2031.5,3390.78 2030.73,3389.48C2030.04,3388.32 2029.93,3387.02 2030.17,3385.74ZM2072.86,3423.07C2072.98,3423.09 2073.16,3423.14 2073.16,3423.14L2073.41,3423.51C2073.41,3423.51 2072.74,3423.72 2072.74,3423.72L2072.48,3423.34C2072.6,3423.25 2072.71,3423.05 2072.86,3423.07ZM2088.7,3384.49C2088.7,3384.49 2088.75,3385.07 2088.41,3385.32C2085.63,3387.47 2087.36,3392.29 2088.07,3395.13C2088.07,3395.13 2088.49,3398.01 2088.21,3400.09C2088.21,3400.09 2087.91,3400.95 2087.91,3400.95C2087.77,3401.1 2087.77,3401.1 2087.67,3401.27L2086.99,3401.81L2086.38,3400.37C2086.18,3397.96 2086.28,3395.6 2085.84,3392.78C2085.37,3389.78 2085.08,3386.25 2087.98,3384.35C2088.22,3384.4 2088.46,3384.45 2088.7,3384.49ZM2054.26,3393.15C2057.99,3393.3 2061.36,3395.93 2065.08,3396.64L2065.34,3396.99C2065.34,3396.99 2064.6,3397.22 2063.88,3397C2060.44,3395.97 2057.12,3393.34 2053.6,3394.21C2051.41,3394.75 2050.99,3397.57 2051.22,3400.17L2050.93,3400.53L2050.58,3400.24C2050.37,3398.3 2050.28,3396.26 2051.28,3394.56C2051.62,3393.98 2052.2,3393.58 2052.82,3393.35C2053.28,3393.19 2053.77,3393.14 2054.26,3393.15ZM2111.22,3384.68C2113.39,3385.56 2113.18,3385.56 2113.18,3385.56C2114.37,3386.43 2114.91,3387.83 2114.98,3388.07C2115.18,3388.77 2115.14,3388.76 2115.14,3388.76C2115.14,3388.76 2115.82,3391.19 2116.74,3392.96C2117.3,3394.08 2117.37,3395.18 2117.62,3396.55L2117.46,3397.7L2116.51,3396.84C2115.95,3394.71 2115.02,3392.72 2114.05,3390.43C2114.05,3390.43 2113.27,3389.42 2113.27,3389.42C2113.03,3388.96 2113.53,3389.51 2112.31,3387.57C2111.89,3386.2 2112.01,3386.39 2111.71,3386.17C2111.34,3385.91 2110.76,3385.65 2110.76,3385.65L2110.47,3384.95C2110.47,3384.95 2111.05,3384.62 2111.22,3384.68ZM2062.26,3381.07C2061.41,3380.97 2061.41,3380.88 2061.41,3380.88C2061.41,3380.88 2058.45,3380.33 2058.45,3380.33L2057.89,3379.68L2058.94,3379.15C2061.77,3379.4 2059.21,3379.36 2064.33,3379.51C2067.29,3379.59 2069.38,3378.68 2071.6,3377.84C2073.64,3377.08 2076.47,3375.76 2076.47,3375.76C2077.5,3375.35 2078.93,3374.81 2078.93,3374.81C2081.42,3373.96 2082.68,3372.89 2082.68,3372.89C2085.51,3371.68 2087.44,3370.66 2090.31,3370.69L2090.83,3371.2C2090.83,3371.2 2089.6,3371.56 2088.16,3372.04C2088.23,3372.07 2088.31,3372.1 2088.37,3372.13C2088.37,3372.13 2085.21,3374.79 2082.99,3377.11C2081.64,3378.51 2080.12,3379.85 2078.21,3380.35C2078.21,3380.35 2077.13,3380.61 2077.87,3379.39C2081.21,3378.56 2083.04,3374.94 2085.91,3372.86C2085.19,3373.14 2084.56,3373.43 2084.15,3373.68C2082.12,3375 2080.74,3375.76 2080.74,3375.76C2079.34,3376.76 2077.4,3377.79 2077.4,3377.79C2074.04,3379.34 2070.62,3380.89 2067,3381.34C2065.99,3381.47 2064.44,3381.21 2064.44,3381.21C2064.16,3381.2 2063.91,3381.19 2063.68,3381.18C2064.26,3381.63 2064.77,3382.05 2064.77,3382.05C2065.44,3382.73 2066.08,3383.43 2066.73,3384.12C2067.39,3384.81 2067.38,3384.81 2068.38,3385.9C2068.38,3385.9 2070.72,3388.13 2071.63,3389.73C2072.97,3392.07 2072.32,3395.35 2069.06,3396.85C2069.06,3396.85 2068.57,3397.02 2068.08,3397.15L2067.35,3396.82C2067.35,3396.82 2067.49,3396.19 2068.77,3395.54C2069.88,3394.96 2070.94,3394.1 2071.11,3392.88C2071.39,3390.88 2069.04,3388.66 2069.04,3388.66C2066.32,3386.79 2067.22,3387.3 2066.16,3386.52L2063.24,3383.52C2062.67,3382.76 2061.79,3381.74 2061.79,3381.74C2061.79,3381.74 2062.01,3381.38 2062.26,3381.07ZM2066.83,3368.72C2071.45,3368.8 2076.07,3369.88 2080.57,3369.01C2082.11,3368.71 2081.2,3369.92 2081.2,3369.92C2080.83,3370.02 2080.46,3370.11 2080.08,3370.18C2075.44,3371.04 2070.58,3369.54 2065.97,3370.34C2060.66,3371.25 2055.63,3373.27 2050.5,3375.34C2050.5,3375.34 2048.94,3375.91 2047.74,3376.35L2047.05,3376.05L2047.34,3375.36C2048.47,3374.86 2048.54,3374.81 2049.05,3374.54C2049.54,3374.32 2050.03,3374.09 2050.52,3373.87C2054.99,3371.81 2059.52,3369.49 2064.36,3368.83C2065.17,3368.72 2066,3368.72 2066.83,3368.72ZM2104.4,3370.23C2104.4,3370.23 2104.31,3370.75 2103.15,3370.85C2100.8,3371.05 2098.43,3371.12 2096.09,3371.39L2095.57,3371.46L2095.01,3371.02C2095.01,3371.02 2095.07,3370.5 2096.24,3370.37C2098.77,3370.09 2101.32,3370.02 2103.85,3369.77C2104.03,3369.92 2104.21,3370.08 2104.4,3370.23ZM2081.45,3358.84C2081.45,3358.84 2081.47,3359.44 2080.98,3359.9C2079.31,3361.44 2078.39,3363.65 2077.31,3365.66L2076.49,3366.08C2076.49,3366.08 2076.23,3365.5 2076.63,3364.75C2077.73,3362.66 2078.74,3360.47 2080.53,3358.92C2080.53,3358.92 2081.03,3358.79 2081.45,3358.84Z"/>
    </g>
</svg>
