<?xml version="1.0" encoding="UTF-8" standalone="no"?>
<!DOCTYPE svg PUBLIC "-//W3C//DTD SVG 1.1//EN" "http://www.w3.org/Graphics/SVG/1.1/DTD/svg11.dtd">
<svg width="100%" height="100%" viewBox="0 0 391 394" version="1.1" xmlns="http://www.w3.org/2000/svg" xmlns:xlink="http://www.w3.org/1999/xlink" xml:space="preserve" xmlns:serif="http://www.serif.com/" style="fill-rule:evenodd;clip-rule:evenodd;stroke-linejoin:round;stroke-miterlimit:2;">
    <g transform="matrix(1,0,0,1,-2389.22,-3333.27)">
        <g transform="matrix(1,0,0,1,526.324,0)">
            <g transform="matrix(1,0,0,1,-526.324,0)">
                <path d="M2586.06,3429.76C2578.85,3424.49 2572.7,3417.63 2567.52,3410.29C2566.56,3408.93 2565.75,3407.5 2564.89,3406.11C2564.89,3406.11 2564.24,3405.11 2563.78,3404.39C2557.6,3394.9 2552.44,3384.72 2546.75,3375.06C2538.36,3360.91 2524.32,3350.84 2517.63,3336.17C2517.07,3334.94 2517.12,3334.14 2517.12,3334.14L2517.49,3333.27C2517.78,3333.39 2518.07,3333.52 2518.36,3333.64C2518.36,3333.64 2518.53,3333.57 2519.28,3335.01C2519.28,3335.01 2520.47,3337.51 2521.52,3339.3C2527.85,3350.13 2538.14,3358.28 2544.78,3368.88C2545.52,3370.05 2546.22,3371.23 2546.92,3372.43C2553.24,3383.29 2558.77,3394.5 2565.84,3405.06C2565.84,3405.06 2567.94,3407.78 2569.62,3410.07C2576.07,3418.82 2583.76,3426.93 2593.51,3432.18L2593.91,3433.51L2593.9,3433.51C2600.35,3437.74 2605.91,3443.8 2612.48,3446.51C2618.58,3449.02 2625.56,3448.72 2631.87,3450.9C2637.87,3452.97 2643.2,3456.44 2649.66,3457.71C2658.68,3459.47 2668.09,3459.93 2676.51,3463.47C2682.1,3465.83 2687.05,3469.45 2691.74,3473.27L2691.96,3473.45C2697.64,3478.26 2702.87,3483.65 2709.08,3487.79C2713.78,3490.92 2718.98,3493.16 2724.04,3495.7C2724.04,3495.7 2727.12,3497.32 2729.58,3498.82C2734.84,3502.03 2740.21,3505.55 2743,3510.89C2744.46,3513.74 2746.06,3516.18 2748.99,3518.47C2749.6,3518.95 2750.21,3519.45 2750.74,3520L2751.17,3520.02C2751.17,3520.02 2754.37,3523.07 2757.2,3524.79C2763.63,3528.67 2771.37,3530.45 2776.65,3535.38C2777.98,3536.62 2779.36,3538.85 2779.45,3539.09C2783.02,3547.89 2769.9,3555.02 2756.63,3553.41C2745.99,3552.12 2735.23,3549.53 2726.17,3543.38C2722.05,3540.59 2718.47,3537 2715.99,3532.62C2715.78,3532.25 2715.59,3531.89 2715.4,3531.53C2714.71,3531.86 2713.83,3532.22 2712.87,3532.43C2712.87,3532.43 2708.13,3532.65 2706.3,3532.31C2700.36,3531.17 2694.63,3527.6 2689.88,3523.63C2692.73,3528.53 2695.57,3533.16 2698.17,3537.28C2702.84,3544.7 2708.25,3551.68 2713.74,3558.45C2718.7,3564.48 2726.32,3568.23 2730.77,3574.72C2735.05,3580.97 2737.05,3588.64 2739.93,3595.26C2747.03,3611.59 2752.28,3628.47 2759.83,3645.57C2762.73,3652.16 2766.22,3659 2766.62,3665.82L2766.62,3665.83C2766.63,3665.97 2766.64,3666.12 2766.65,3666.26C2767.07,3671.34 2769.74,3676.79 2766.23,3681.37C2759.6,3690.03 2744.26,3689.38 2737.46,3682.4C2732.96,3677.79 2732.31,3670.56 2730.12,3665.63C2726.73,3658.05 2722.87,3650.71 2719.57,3643.09C2719.01,3641.84 2718.84,3641.55 2718.44,3640.83C2715.96,3636.31 2712.97,3632.21 2711.02,3627.22C2708.64,3621.13 2706.85,3614.66 2702.73,3609.58C2699.4,3605.47 2694.59,3602.84 2691.1,3598.91C2691.1,3598.91 2687.59,3594.46 2685.43,3591.48C2684.88,3590.72 2684.35,3589.94 2683.85,3589.15C2681.12,3584.88 2679.75,3579.71 2675.63,3577.95C2673.39,3577 2670.81,3577.06 2668.34,3576.91C2671.84,3586.91 2676,3596.74 2681.08,3606.1C2684.37,3612.1 2688.83,3617.05 2690.79,3624.66C2692.3,3630.48 2693.6,3640.15 2695.83,3647.2C2699.84,3659.79 2703.56,3672.45 2707.2,3685.22L2707.7,3686.11C2707.62,3686.14 2707.55,3686.18 2707.49,3686.22C2707.88,3687.57 2708.26,3688.93 2708.65,3690.29C2709.29,3692.56 2710.03,3695.61 2710.11,3695.93C2711.75,3702.58 2713.56,3709.65 2712.17,3716.27C2710.6,3723.73 2700.08,3726.88 2692.59,3727.2C2685.08,3727.51 2677.32,3723.68 2675.18,3715.44C2675.12,3715.22 2675.07,3714.98 2675.02,3714.74C2675.01,3714.76 2675,3714.77 2674.99,3714.79C2670.14,3722.7 2657.36,3725.21 2650.63,3718.37C2650.63,3718.37 2650.5,3718.23 2650.47,3718.07L2650.17,3717.93C2630.21,3691.02 2620.86,3657.23 2606.11,3627.69C2604.86,3625.19 2603.88,3622.56 2602.96,3619.9L2602.93,3619.89L2602.24,3619.11C2602.24,3619.11 2602.41,3618.98 2602.61,3618.88C2601.76,3616.37 2600.96,3613.84 2600.04,3611.38L2599.85,3611.39L2599.81,3610.76C2597.74,3605.35 2595.05,3600.26 2590.1,3596.33C2588.25,3594.85 2585.98,3593.94 2583.62,3593.68C2583.32,3593.64 2578.69,3593.84 2575.33,3593.45C2574.32,3593.34 2572.86,3593 2572.86,3593C2572.8,3592.94 2572.74,3592.89 2572.69,3592.85C2568.05,3601.85 2571.26,3613.59 2571.85,3623.27C2572.34,3631.41 2571.71,3639.6 2572.54,3647.71C2573.78,3659.69 2577.68,3671.31 2577.89,3683.47C2577.89,3683.47 2577.94,3687.65 2577.01,3690.41C2573.29,3701.6 2554.19,3705.05 2547.36,3693.46C2545.14,3689.69 2544.88,3684.92 2543.97,3680.31C2542.97,3675.25 2541.89,3670.25 2541.04,3665.1L2540.67,3664.26C2540.02,3662.05 2539.77,3660.85 2539.41,3659.22C2537.03,3648.48 2534.94,3637.64 2534.07,3626.72C2533.82,3623.65 2533.83,3620.58 2533.77,3617.51L2533.74,3615.97C2533.7,3614.55 2533.66,3612.94 2533.66,3612.94C2533.08,3600.51 2531.36,3588.43 2525.08,3576.66C2518.95,3565.18 2510.97,3554.71 2504.24,3543.68C2501.35,3538.99 2497.79,3534.82 2495.89,3529.28C2492.3,3518.87 2491.89,3507.29 2492.34,3497.18L2492.35,3496.91C2492.66,3492.94 2493.19,3489.01 2493.94,3485.13C2493.74,3485.14 2493.44,3485.05 2493.04,3484.7C2486.29,3478.6 2482.47,3469.8 2476.81,3462.57C2453.06,3432.28 2428.07,3404.42 2399.59,3382.12C2397.48,3380.47 2395.42,3378.77 2393.32,3377.11C2393.32,3377.11 2392.18,3376.17 2391.26,3375.4L2389.53,3373.93C2389.25,3373.19 2389.32,3373.17 2389.22,3372.38L2390.32,3372.25C2390.48,3372.26 2390.64,3372.28 2390.81,3372.3C2390.81,3372.3 2393.49,3374.19 2394.81,3375.23C2395.51,3375.79 2396.21,3376.35 2396.91,3376.91C2398.63,3378.28 2400.97,3380.18 2400.97,3380.18C2420.21,3396.36 2438.27,3413.67 2454.12,3432.98C2464.13,3445.18 2475.04,3456.68 2483.34,3469.85C2486.49,3474.88 2489.41,3480.09 2493.89,3484.03L2494.06,3484.51C2495.34,3478.08 2497.21,3471.81 2499.64,3465.77C2499.64,3465.77 2500.55,3465.6 2501.41,3465.94L2501.91,3466.52C2501.77,3466.87 2501.64,3467.21 2501.51,3467.55C2497.97,3477.13 2495.53,3487.08 2494.48,3497.11C2492.7,3510.33 2493.29,3524.87 2500.77,3536.2C2506.12,3544.3 2511.42,3552.55 2516.86,3560.73C2522.96,3569.94 2529.11,3579.23 2532.1,3590.18C2534.03,3597.28 2534.67,3604.66 2535.14,3612.02C2535.14,3612.02 2535.9,3622.81 2536.66,3629.89C2537.83,3640.73 2539.9,3651.4 2542.22,3662.01C2542.36,3662.94 2542.5,3663.86 2542.5,3663.86L2542.53,3664.87C2543.8,3672.13 2545.32,3679.39 2546.62,3686.66C2546.88,3688.05 2546.91,3688.17 2547.08,3688.84C2548.13,3693 2550.91,3696.75 2555.33,3698.47C2562.75,3701.36 2572.76,3698.61 2575.47,3689.78C2576.08,3687.8 2576.28,3685.71 2576.39,3683.63C2576.52,3682.26 2576.51,3682.03 2576.53,3681.27C2576.63,3676.4 2575.99,3672.98 2575.27,3669.06C2573.89,3661.4 2571.86,3653.83 2571.25,3646.08C2570.4,3635.2 2571.05,3624.37 2569.6,3613.36C2569.05,3608.93 2568.64,3604.46 2569.11,3600.02C2569.11,3600.02 2569.14,3598.94 2569.14,3598.94C2569.61,3595.8 2570.67,3592.73 2572.46,3590.11C2572.46,3590.11 2573.92,3588.55 2573.92,3588.55L2574.77,3588.49C2574.79,3588.77 2574.81,3589.06 2574.83,3589.34C2574.34,3589.97 2573.8,3590.98 2573.8,3590.98C2573.7,3591.12 2573.61,3591.27 2573.51,3591.42L2573.5,3591.44C2576.78,3592.02 2580.12,3591.66 2583.52,3592.14C2583.6,3592.15 2588.45,3593.2 2590.97,3595.25C2595.54,3598.97 2598.42,3604.18 2600.68,3609.65C2600.84,3609.49 2601.07,3609.27 2601.44,3608.91C2601.95,3608.43 2602.48,3607.96 2603.02,3607.52C2612.82,3599.55 2627,3599.37 2638.11,3598.26C2643.32,3597.74 2648.53,3597.09 2653.51,3595.65C2653.51,3595.65 2654.35,3595.26 2655.32,3595.05C2657.01,3592.6 2658.76,3590.21 2660.65,3587.93C2660.65,3587.93 2664.66,3583.33 2668.4,3580.88C2668.21,3580.33 2668.03,3579.78 2667.84,3579.23L2667.18,3578.71C2665.11,3574.77 2663.83,3572.16 2662.14,3569.19C2658.39,3562.63 2650.98,3559.29 2640.28,3560.22C2638.08,3560.42 2634.97,3560.8 2634.97,3560.8C2621.76,3562.59 2607.7,3560.77 2595.49,3564.52C2588.56,3566.65 2582.2,3571.2 2579.17,3578.33C2577.69,3581.79 2576.78,3585.48 2576.24,3589.16C2576.24,3589.16 2576,3589.73 2575.88,3590.37L2575.32,3590.83L2574.88,3590.02C2574.85,3581.69 2578.9,3572.22 2586.12,3567.2C2598.65,3558.48 2615.88,3561.06 2629.7,3559.86C2634.89,3559.41 2640.08,3558.59 2645.19,3558.6C2649.54,3558.59 2654.06,3559.17 2657.73,3561.52C2662.17,3564.37 2664.35,3569.62 2666.78,3574.87L2666.87,3575.16L2667.34,3574.78C2667.59,3574.51 2667.65,3574.42 2667.79,3574.43C2667.79,3574.43 2670.16,3574.52 2671.78,3574.64C2674.08,3574.84 2676.42,3575.29 2678.37,3576.64C2683.33,3580.11 2684.85,3586.48 2687.61,3591.06L2687.68,3591.18C2689.09,3593.29 2690.64,3595.31 2692.21,3597.3C2692.21,3597.3 2696.93,3602.25 2700.23,3605.14C2707.91,3611.92 2710.13,3623.22 2714.18,3631.06C2716.49,3635.51 2719.47,3639.51 2721.56,3644.27C2724.88,3651.79 2728.73,3659.06 2732.01,3666.59C2732.48,3667.69 2732.52,3667.84 2732.72,3668.42C2734.74,3674.08 2735.93,3680.56 2741.3,3683.53C2749.24,3687.92 2761.48,3687 2765.72,3679.32C2767.87,3675.42 2765.46,3670.61 2765.3,3665.97L2765.3,3665.95C2765.3,3665.95 2764.74,3662.64 2764.04,3660.27C2760.83,3649.5 2755.35,3639.6 2751.42,3628.82C2746.72,3616.08 2741.8,3603.35 2736.35,3591C2735.17,3588.28 2734.2,3585.45 2733.11,3582.73C2732.47,3583.94 2731.77,3585.12 2730.83,3586.14C2730.83,3586.14 2726.78,3587.53 2724.83,3588.19C2721.74,3589.22 2718.3,3588.79 2715.31,3589.58L2714.45,3589.32C2714.45,3589.32 2715.14,3588.52 2716.18,3588.3C2719.35,3587.64 2722.66,3587.8 2725.64,3586.39C2727.03,3585.74 2728.37,3585.18 2729.51,3584.01C2730.88,3583.75 2731.76,3582.73 2732.57,3581.41C2731.59,3579.09 2730.46,3576.86 2728.99,3574.87C2727.41,3572.75 2725.57,3570.92 2723.62,3569.18C2723.4,3569.27 2723.02,3569.33 2722.41,3569.25C2719.55,3568.91 2717.04,3569.36 2717.04,3569.36C2711.91,3569.51 2707.19,3572.34 2703.84,3575.88C2702.79,3577.01 2702.81,3575.47 2702.81,3575.47C2703.37,3574.74 2703.47,3574.67 2703.81,3574.33C2707.28,3570.75 2711.89,3568.43 2716.89,3567.66C2717.62,3567.43 2718.33,3567.14 2718.54,3567.2C2720.45,3567.81 2721.48,3568 2722.47,3568.19C2718.65,3564.92 2714.55,3561.91 2711.3,3557.87C2703.89,3548.59 2696.94,3538.95 2691.47,3528.38C2691.32,3528.11 2691.18,3527.84 2691.04,3527.56C2687.67,3521.23 2683.07,3515.63 2679.76,3509.24C2679.76,3509.24 2678.51,3507.02 2677.48,3504.92L2677.44,3504.83C2674.31,3497.5 2673.28,3489.27 2674.95,3481.5L2675.82,3480.92C2676.01,3481.21 2676.21,3481.5 2676.4,3481.79C2676.36,3482.02 2676.32,3482.26 2676.28,3482.49C2675.55,3487.18 2675.95,3492.01 2677.22,3496.63C2677.73,3495.44 2678.43,3494.36 2679.35,3493.51C2679.68,3493.21 2681.05,3492.85 2681.05,3492.85C2681.38,3492.87 2681.46,3492.44 2682.78,3493.14L2681.45,3494.99C2681.28,3495.14 2681.23,3493.7 2678.6,3497.54C2678.34,3497.93 2678.1,3498.45 2677.92,3498.89C2678.58,3500.84 2679.26,3502.8 2680.01,3504.72C2681.04,3502.74 2682.39,3500.89 2684.12,3499.41L2685.58,3499.01C2685.64,3499.02 2685.7,3499.04 2685.76,3499.05C2685.92,3499.05 2685.92,3499.05 2686.08,3499.03L2686.9,3499.28C2686.9,3499.28 2686.49,3500.18 2686.49,3500.18C2686.24,3500.58 2686.56,3500.16 2685.83,3501.18C2685.83,3501.18 2682.21,3503.19 2680.6,3506.22C2680.85,3506.83 2681.11,3507.44 2681.38,3508.03L2681.44,3508.17C2683.43,3512.1 2685.54,3516.01 2687.68,3519.79C2687.74,3519.81 2687.79,3519.84 2687.85,3519.87C2687.85,3519.87 2691.11,3522.08 2693.26,3523.63C2697.29,3526.48 2701.65,3528.98 2706.44,3530.15C2708.68,3530.7 2710.81,3531.01 2713.19,3530.91C2713.79,3530.88 2714.38,3530.8 2714.99,3530.67C2714.68,3529.98 2714.39,3529.2 2714.11,3528.2C2714.11,3528.2 2714.36,3527.29 2714.36,3527.29L2715.14,3527.82C2715.5,3528.59 2715.23,3528.07 2715.84,3529.38C2716.01,3529.75 2716.2,3530.12 2716.39,3530.49L2716.84,3530.7C2716.84,3530.7 2716.75,3530.77 2716.59,3530.87C2724.56,3545.27 2742.81,3550.35 2758.79,3551.88C2767.43,3552.65 2778.98,3549.93 2778.11,3542C2777.44,3535.87 2770.5,3532.66 2764.72,3530C2760.41,3528 2756,3525.94 2752.47,3522.9C2753.13,3525.12 2752.87,3527.51 2754.43,3529.77C2757.93,3534.81 2763.86,3538.25 2769.55,3539.44L2770.01,3540.05C2770.01,3540.05 2768.47,3540.49 2766.66,3539.89C2760.69,3537.89 2754.69,3533.78 2752.43,3528.7C2750.97,3525.39 2752.1,3522.41 2747.03,3518.47C2742.84,3515.18 2741.64,3509.54 2737.26,3505.77C2732.35,3501.55 2726.63,3498.67 2720.91,3495.93C2720.13,3498.29 2720.61,3497.54 2720.32,3498.29C2720.32,3498.29 2720.93,3501.74 2720.15,3505.07C2720.15,3505.07 2719.92,3506.03 2719.16,3504.86C2719.54,3502.71 2719.03,3500.44 2718.85,3498.4C2718.85,3498.4 2718.49,3496.68 2718.49,3496.68C2718.54,3496.58 2718.59,3496.48 2718.64,3496.38C2718.84,3495.98 2719.13,3495.53 2719.36,3495.2C2713.71,3492.51 2708.14,3489.86 2703.43,3486.08C2692.53,3477.33 2682.88,3466.51 2669.64,3462.82C2661.71,3460.6 2653.26,3460.62 2645.34,3458.13C2639.9,3456.43 2635.05,3453.2 2629.53,3451.73C2623.41,3450.1 2616.85,3450.23 2611.1,3447.68C2603.57,3444.33 2598.45,3436.89 2590.72,3433.56C2590.72,3433.56 2587.65,3432.16 2584.54,3431.25C2584.54,3431.25 2581.97,3430.32 2580.21,3429.83C2574.26,3428.14 2568.24,3426.1 2562.21,3427.04C2557.56,3427.77 2553.09,3429.46 2548.41,3429.93L2547.84,3429.46L2548.3,3428.88C2548.57,3428.85 2548.57,3428.85 2548.83,3428.82C2554.71,3428.05 2560.36,3425.58 2566.28,3425.64C2571.37,3425.74 2576.24,3427.59 2581.31,3428.85C2581.31,3428.85 2583.05,3429.24 2584.92,3429.48L2585,3429.49C2585.36,3429.57 2585.71,3429.66 2586.06,3429.76ZM2666.7,3679.09C2667.72,3680.58 2668.72,3682.09 2669.69,3683.62C2669.69,3683.62 2671.77,3687.42 2671.77,3687.42C2674.63,3693.53 2676.83,3700.09 2676.88,3707.48C2676.89,3708.62 2676.5,3711.23 2675.7,3713.3C2676.66,3716.22 2678.8,3721.37 2682.46,3723.58C2689.69,3727.97 2699.37,3725.88 2705.74,3722.1C2709.09,3720.11 2710.99,3716.9 2710.91,3711.88C2710.76,3703.14 2707.68,3694.61 2705.87,3686.29C2701.57,3684.79 2697.82,3682.22 2692.97,3681.26C2685.55,3679.78 2677.96,3679.67 2670.37,3679.28C2669.16,3679.22 2667.53,3679.13 2666.7,3679.09ZM2691.55,3688.25C2695.47,3688.3 2699.75,3689.13 2701.86,3692.11C2701.86,3692.11 2703.07,3694.16 2703.9,3696.12C2703.9,3696.12 2707.97,3706.05 2707.35,3714.55C2707.07,3718.45 2702.18,3720.66 2697.77,3721.63C2693.42,3722.59 2688.84,3722.37 2684.44,3721.6C2684.17,3721.55 2682.53,3720.44 2681.7,3718.86C2679.07,3713.86 2678.56,3707.91 2678.49,3702.48C2678.49,3702.48 2678.55,3699.43 2678.87,3697.15C2679.17,3694.98 2679.7,3692.74 2681.12,3691.1C2681.12,3691.1 2686.95,3688.24 2691.55,3688.25ZM2654.53,3676.42C2652.54,3679.02 2650.56,3681.64 2648.61,3684.3C2645,3689.18 2641.76,3694.52 2640.51,3700.53L2640.49,3700.55C2643.65,3706.17 2647.1,3711.65 2650.97,3716.91L2651.45,3717.66L2651.45,3717.71C2658.22,3724.13 2671.03,3720.96 2674.62,3712.21C2674.59,3711.97 2674.58,3711.83 2674.58,3711.83L2674.92,3711.41C2675.36,3710.1 2675.59,3708.68 2675.58,3707.16C2675.5,3700.84 2673.43,3694.61 2669.83,3688.61C2669.83,3688.61 2668.81,3686.8 2667.84,3685.16C2667.84,3685.16 2665.92,3681.7 2664.18,3678.81L2664.18,3678.78C2661.17,3678.26 2660.17,3677.6 2658.37,3677.14C2658.37,3677.14 2656.32,3676.53 2654.53,3676.42ZM2691.19,3689.39C2688.09,3689.44 2685.04,3690.14 2682.3,3691.65C2678.62,3693.67 2679.67,3700.43 2680.03,3704.47C2680.48,3709.53 2681.23,3715.01 2683.99,3718.92C2685.05,3720.44 2686.94,3720.07 2688.66,3720.22C2689.53,3720.3 2690.4,3720.35 2691.27,3720.37C2696.38,3720.48 2702.16,3719.77 2705.19,3716.14C2707.02,3713.94 2705.71,3709.75 2705.02,3705.85C2704.33,3701.95 2703.4,3698.07 2701.84,3694.45C2700.84,3692.15 2700.29,3691.95 2699.55,3691.45C2697.15,3689.84 2694.49,3689.37 2691.19,3689.39ZM2659.8,3683.03C2663.09,3683.06 2666.7,3683.79 2668.46,3686.32C2668.46,3686.32 2669.48,3688.08 2670.18,3689.73L2670.21,3689.79C2671.69,3693.97 2672.42,3698.39 2673,3702.76C2673.47,3706.36 2670.27,3711.2 2661.98,3712.01C2659.25,3712.28 2656.48,3712.03 2653.76,3711.55C2651.35,3711.13 2650.32,3707.08 2649.75,3704.44C2649.08,3701.32 2648.62,3698.11 2648.76,3694.92C2648.91,3691.43 2648.86,3687.5 2651.19,3685.32C2651.19,3685.32 2655.94,3683.03 2659.8,3683.03ZM2659.49,3684.17C2656.92,3684.22 2654.35,3684.84 2652.12,3686.09C2649.91,3687.33 2650.1,3690.68 2650.08,3693.04C2650.04,3698.6 2650.59,3704.66 2653.52,3709.02C2655.09,3711.34 2659.48,3710.29 2661.85,3710.18C2665.19,3710.02 2668.79,3709.27 2670.97,3706.69C2672.13,3705.31 2671.39,3701.93 2671.39,3701.93C2670.99,3697.3 2670.05,3692.68 2668.27,3688.38C2667.84,3687.36 2667.6,3687.02 2667.4,3686.77C2665.67,3684.66 2662.44,3684.14 2659.49,3684.17ZM2668.89,3582.26C2668.25,3582.75 2668.14,3582.86 2667.77,3583.2C2664.64,3585.97 2663.83,3586.75 2662.35,3588.36C2661.4,3589.4 2662.39,3587.93 2659.86,3591.13C2659.36,3591.76 2658.88,3592.4 2658.4,3593.05C2657.93,3593.68 2657.47,3594.32 2657.01,3594.97C2657.15,3595 2657.28,3595.04 2657.4,3595.09L2656.58,3595.6C2652.83,3600.98 2649.47,3606.64 2645.48,3611.85C2644.7,3612.88 2643.91,3613.89 2643.1,3614.89L2643.26,3615.29L2642.95,3616.01C2642.95,3616.01 2642.83,3615.8 2642.64,3615.47C2641.08,3617.39 2639.49,3619.29 2637.91,3621.18L2638.02,3621.3L2637.78,3621.34C2632.85,3627.23 2627.94,3633.1 2624.07,3639.63C2623.11,3641.16 2623,3641.37 2622.55,3642.19C2620.85,3645.32 2619.48,3648.62 2618.42,3652.01C2625.06,3667.94 2631.39,3684.07 2639.72,3699.16C2639.93,3698.22 2640.12,3697.66 2640.4,3696.8C2642.98,3689.06 2648.45,3682.7 2653.36,3676.35L2652.85,3675.97C2652.85,3675.97 2652.9,3675.42 2654.18,3675.28C2654.36,3675.05 2654.53,3674.81 2654.71,3674.58C2656.87,3671.68 2659.02,3668.77 2661.18,3665.87C2661.18,3665.87 2664.03,3661.95 2664.03,3661.95C2665.93,3659.44 2667.85,3656.93 2669.81,3654.45C2675.65,3647.09 2681.49,3639.34 2687.74,3633.26C2688.72,3632.31 2690.29,3631.22 2690.29,3631.22L2690.9,3631.29C2690.1,3626.61 2689.14,3621.97 2687.07,3617.66C2684.95,3613.25 2681.62,3609.59 2679.33,3605.32C2675.36,3597.87 2671.74,3590.2 2668.89,3582.26ZM2560.02,3664.45C2562.95,3664.49 2566.14,3665.28 2567.61,3667.64C2567.61,3667.64 2569.42,3671.55 2570.17,3675.05C2570.79,3677.95 2571.15,3680.88 2571.51,3683.81C2572.07,3688.45 2567.38,3692.73 2560.96,3693.39C2559.87,3693.51 2556.04,3693.81 2553.46,3692.91C2551.83,3692.34 2550.72,3688.48 2550.26,3685.92C2549.91,3683.89 2549.68,3681.85 2549.58,3679.79C2549.37,3675.32 2549.23,3670.24 2551.71,3667.05C2551.71,3667.05 2556.15,3664.44 2560.02,3664.45ZM2559.75,3665.59C2557.26,3665.63 2554.79,3666.35 2552.69,3667.69C2552.69,3667.69 2550.77,3673.34 2550.94,3677.47C2551.15,3681.97 2551.57,3686.75 2553.76,3690.48C2555.24,3692.98 2563.11,3691.87 2566.55,3690.14C2568.14,3689.34 2569.74,3688.31 2569.89,3686.35C2570.31,3680.55 2569.17,3675.16 2567.39,3669.91C2567.01,3668.8 2566.73,3668.33 2566.54,3668.05C2565.12,3666.13 2562.32,3665.58 2559.75,3665.59ZM2690.97,3631.69C2689.28,3633.77 2680.65,3644.32 2676.62,3648.91C2672.66,3653.43 2668.83,3658.07 2665.12,3662.79C2665.12,3662.79 2664.35,3663.72 2662.81,3665.66L2662.6,3665.93C2660.2,3669.05 2657.79,3672.15 2655.4,3675.28C2655.59,3675.29 2655.78,3675.3 2655.97,3675.32C2657.04,3675.43 2658.58,3675.54 2658.58,3675.54C2660,3675.88 2661.89,3676.44 2661.89,3676.44C2662.35,3676.59 2662.8,3676.73 2663.26,3676.87C2663.48,3676.93 2663.7,3677 2663.92,3677.06C2673.84,3679.86 2685.69,3677.07 2696.83,3680.61C2699.88,3681.57 2702.61,3683.32 2705.53,3684.56L2705.47,3684.24C2705.19,3682.76 2705.18,3682.76 2705.18,3682.76C2704.78,3681.06 2704.35,3679.37 2703.89,3677.68C2703.49,3676.17 2703.06,3674.66 2702.63,3673.16C2699.54,3662.47 2695.3,3652.07 2692.75,3641.26C2692.01,3638.1 2691.52,3634.89 2690.97,3631.69ZM2749.45,3649.04C2754.41,3649.13 2757.68,3655.18 2760,3658.83C2760,3658.83 2763.95,3665.92 2765.06,3670.67C2767.19,3679.84 2746.83,3688.81 2742.28,3677.97C2742.26,3677.91 2741.5,3675.33 2741.21,3673.73C2740.02,3667.09 2738.41,3660.13 2741.64,3654.29C2742.5,3652.72 2743.8,3652.07 2745.57,3650.58C2745.57,3650.58 2746.83,3649.88 2746.73,3649.66C2746.86,3649.6 2746.99,3649.55 2747.12,3649.49C2747.86,3649.2 2748.64,3649.04 2749.45,3649.04ZM2748.78,3650.37C2748.14,3650.39 2747.27,3650.7 2747.27,3650.7L2746.3,3651.43C2744.42,3653.07 2742.67,3654.31 2741.88,3656.51C2739.42,3663.35 2741.06,3671.98 2743.56,3677.41C2745.8,3682.25 2753.13,3681.84 2759.89,3677.02C2761.52,3675.86 2763.41,3674.7 2763.51,3672.51C2763.61,3670.33 2762.51,3668.31 2761.65,3666.22C2760.57,3663.64 2759.36,3661.09 2758.09,3658.63C2758.09,3658.63 2754.48,3650.27 2748.78,3650.37ZM2604.59,3620.37C2605.54,3623.03 2606.5,3625.55 2607.62,3627.8C2611.27,3635.22 2614.58,3642.85 2617.8,3650.53C2621.41,3639.91 2628.45,3630.7 2635.8,3621.6C2633.55,3621.9 2630.02,3622.37 2627.33,3622.73C2619.87,3623.75 2612.06,3622.44 2604.59,3620.37ZM2551.16,3618.12C2552.85,3618.14 2554.52,3618.47 2556.08,3619.13C2556.08,3619.13 2557.32,3620.48 2558.47,3620.83C2558.47,3620.83 2559.42,3621.09 2558.23,3621.81C2555.47,3621.3 2556.16,3621.39 2555.63,3621.46C2555.63,3621.46 2551.4,3620.27 2547.48,3620.97C2547.48,3620.97 2545.11,3620.82 2543.97,3621.17C2542.93,3621.49 2541.49,3622.03 2541.49,3622.03L2540.82,3621.74C2540.82,3621.74 2541.72,3620.74 2543.83,3620.06C2545.05,3619.66 2546.84,3618.57 2546.84,3618.57C2548.29,3618.28 2549.23,3618.12 2551.16,3618.12ZM2653.99,3596.99C2642.74,3601.37 2629.27,3599.71 2619.49,3601.66C2612.63,3603.02 2606.01,3605.68 2601.13,3610.75C2602.23,3613.54 2603.19,3616.37 2604.14,3619.09C2612.73,3621.53 2621.66,3622.53 2630.62,3621.03C2632.6,3620.7 2634.61,3620.46 2636.62,3620.58C2638.37,3618.42 2640.13,3616.26 2641.85,3614.09C2641.25,3613 2640.52,3611.66 2640.05,3610.62C2640.05,3610.62 2639.01,3608.93 2639.01,3608.93C2638.68,3608.08 2638.36,3607.22 2638.04,3606.36C2637.29,3604.29 2636.82,3601.87 2636.82,3601.87L2637.23,3601.11C2637.48,3601.25 2637.74,3601.38 2637.99,3601.52C2637.99,3601.52 2639.43,3605.01 2640.8,3608.21C2640.8,3608.21 2641.03,3609.33 2641.03,3609.33C2641.38,3610.7 2641.91,3612.01 2642.46,3613.33C2645.22,3609.82 2647.9,3606.27 2650.3,3602.61C2651.52,3600.73 2652.74,3598.85 2653.99,3596.99ZM2632.06,3607.53L2631.61,3608.13C2630.99,3608.23 2630.36,3608.33 2629.74,3608.42C2628.02,3608.68 2626.92,3608.87 2626.92,3608.87C2626,3609.02 2625.4,3608.87 2622.27,3610.14C2620.76,3610.64 2620.63,3610.51 2620.07,3610.63C2617.74,3611.12 2615.45,3611.78 2613.24,3612.66C2613.24,3612.66 2611.53,3611.99 2611.53,3611.99L2612.24,3610.37C2615.04,3609.26 2617.95,3608.47 2620.91,3607.91C2620.91,3607.91 2622.76,3607.91 2624.2,3607.87C2625.91,3607.81 2625.91,3607.74 2626.56,3607.68C2626.56,3607.68 2629.29,3607.39 2631.46,3607.09C2631.66,3607.24 2631.86,3607.39 2632.06,3607.53ZM2546.96,3599.25C2547.63,3599.26 2548.3,3599.3 2548.96,3599.35C2550.91,3599.52 2549.95,3599.38 2551.19,3599.82C2551.19,3599.82 2552.29,3600.27 2552.29,3600.27C2553.56,3600.94 2553.65,3600.81 2553.65,3600.81C2553.65,3600.81 2554.96,3601.09 2553.68,3601.87L2551.77,3601.86C2550.94,3601.89 2549.73,3601.95 2549.73,3601.95C2549.54,3601.92 2549.35,3601.9 2549.15,3601.88C2546.57,3601.63 2543.95,3601.79 2541.41,3602.4L2540.49,3602.58C2540.07,3602.23 2540.08,3602.19 2540.08,3602.19L2539.19,3601.72L2539.69,3600.85C2540.09,3599.58 2540.66,3600.01 2540.66,3600.01C2542.58,3599.53 2544.54,3599.27 2546.52,3599.25C2546.74,3599.25 2546.74,3599.25 2546.96,3599.25ZM2684.63,3495.76C2688.49,3496.69 2690.83,3501.73 2695.05,3504.65C2695.05,3504.65 2697.29,3506.07 2698.9,3506.91C2703.71,3509.4 2708.39,3512.18 2712.66,3515.54C2712.66,3515.54 2714.93,3517.61 2715.97,3518.95C2716.58,3519.73 2717.37,3520.91 2717.37,3520.91C2717.77,3521.57 2718.18,3522.23 2718.18,3522.23C2722.78,3528.85 2729.44,3533.91 2735.87,3537.41C2737.87,3538.52 2740.12,3539.54 2741.56,3541.18C2741.64,3541.28 2741.82,3541.54 2741.96,3541.78C2741.96,3541.78 2742.48,3542.64 2741.09,3542.34C2740.84,3542 2741.01,3542.22 2740.64,3541.85C2736.79,3538.16 2730.84,3537.01 2726.45,3533C2725.96,3532.56 2725.47,3532.11 2724.98,3531.67C2722.13,3529.08 2719.46,3526.36 2717.13,3523.14C2717.13,3523.14 2714.78,3520.18 2712.75,3518.67C2708.95,3515.84 2704.99,3513.19 2700.98,3510.67L2699.18,3509.29C2694.51,3505.65 2690.32,3501.71 2685.81,3497.75C2685.34,3497.34 2684.8,3496.96 2684.26,3496.74L2683.92,3496.09C2683.92,3496.09 2684.45,3495.72 2684.63,3495.76Z"/>
            </g>
        </g>
    </g>
</svg>
